<?xml version="1.0" encoding="utf-8"?>
<!-- Generator: Adobe Illustrator 16.0.0, SVG Export Plug-In . SVG Version: 6.00 Build 0)  -->
<!DOCTYPE svg PUBLIC "-//W3C//DTD SVG 1.1//EN" "http://www.w3.org/Graphics/SVG/1.1/DTD/svg11.dtd">


<svg version="1.1" id="Layer_1" xmlns="http://www.w3.org/2000/svg" xmlns:xlink="http://www.w3.org/1999/xlink" x="0px" y="0px"
	 width="200px" height="90px" viewBox="0 0 841.89 595.276" enable-background="new 0 0 841.89 595.276"
	 xml:space="preserve">
<g>
	<path d="M269.544,215.194v111.292c0,14.71,11.153,21.833,24.441,21.833c13.053,0,24.441-7.123,24.441-21.833V215.194h34.646
		v110.577c0,33.464-21.831,55.29-59.325,55.29c-37.492,0-58.848-21.826-58.848-55.29V215.194H269.544z"/>
</g>
<polygon points="462.962,283.772 438.043,283.772 438.043,255.771 404.825,255.771 404.825,283.772 379.906,283.772 379.906,312.25 
	404.825,312.25 404.825,340.49 438.043,340.49 438.043,312.25 462.962,312.25 "/>
<rect x="489.795" y="352.579" width="118.175" height="28.482"/>
</svg>
