<?xml version="1.0" standalone="no"?>
<!DOCTYPE svg PUBLIC "-//W3C//DTD SVG 1.1//EN" "http://www.w3.org/Graphics/SVG/1.1/DTD/svg11.dtd" >
<svg xmlns="http://www.w3.org/2000/svg">
<metadata>
Created by FontPrep 20130207 at Wed Feb  4 14:42:12 2015
 By Brian Tretcher
Copyright (c) 2010 Dalton Maag Ltd. All rights reserved. This font may not be altered in any way without prior permission of Dalton Maag Ltd.
</metadata>
<defs>
<font id="25ff87b0743a9ded6c66bb8a3055c6a1" horiz-adv-x='1024' >
  <font-face 
    font-family="AktivGroteskCorp-LightItalic"
    font-weight="300"
    font-style="italic"
    font-stretch="normal"
    units-per-em="2048"
    panose-1="2 11 6 4 2 2 2 9 2 4"
    ascent="1638"
    descent="-410"
    x-height="1055"
    cap-height="1462"
    bbox="-432 -446 2587 1896"
    underline-thickness="114"
    underline-position="-158"
    slope="-12"
    unicode-range="U+0008-FB04"
  />
<missing-glyph horiz-adv-x="1024" 
d="M819 102v1332h-614v-1332h614zM102 0v1536h820v-1536h-820z" />
    <glyph glyph-name="f_f" unicode="ff" horiz-adv-x="1265" 
d="M490 1412q82 68 184 67q101 0 178 -31l-37 -96q-59 22 -135 22q-147 0 -188 -186l-29 -133h280l-20 -99h-281l-202 -956h-119l203 956h-164l20 99h164l29 129q35 160 117 228zM1313 1374q-146 0 -189 -186l-28 -133h280l-20 -99h-281l-203 -956h-118l202 956h-163l20 99
h164l29 129q36 160 118 228t183 67q101 0 178 -31l-37 -96q-59 22 -135 22z" />
    <glyph glyph-name="f_i" unicode="fi" horiz-adv-x="1050" 
d="M490 1412q82 68 184 67q101 0 178 -31l-37 -96q-59 22 -135 22q-147 0 -188 -186l-29 -133h280l-20 -99h-281l-202 -956h-119l203 956h-164l20 99h164l29 129q35 160 117 228zM954 1284l37 178h135l-36 -178h-136zM700 0l224 1055h118l-223 -1055h-119z" />
    <glyph glyph-name="f_l" unicode="fl" horiz-adv-x="1050" 
d="M490 1412q82 68 184 67q101 0 178 -31l-37 -96q-59 22 -135 22q-147 0 -188 -186l-29 -133h280l-20 -99h-281l-202 -956h-119l203 956h-164l20 99h164l29 129q35 160 117 228zM700 0l310 1462h118l-309 -1462h-119z" />
    <glyph glyph-name="f_f_i" unicode="ffi" horiz-adv-x="1683" 
d="M490 1412q82 68 184 67q101 0 178 -31l-37 -96q-59 22 -135 22q-147 0 -188 -186l-29 -133h280l-20 -99h-281l-202 -956h-119l203 956h-164l20 99h164l29 129q35 160 117 228zM1313 1374q-146 0 -189 -186l-28 -133h280l-20 -99h-281l-203 -956h-118l202 956h-163l20 99
h164l29 129q36 160 118 228t183 67q101 0 178 -31l-37 -96q-59 22 -135 22zM1587 1284l37 178h135l-37 -178h-135zM1333 0l223 1055h119l-223 -1055h-119z" />
    <glyph glyph-name="f_f_l" unicode="ffl" horiz-adv-x="1683" 
d="M490 1412q82 68 184 67q101 0 178 -31l-37 -96q-59 22 -135 22q-147 0 -188 -186l-29 -133h280l-20 -99h-281l-202 -956h-119l203 956h-164l20 99h164l29 129q35 160 117 228zM1313 1374q-146 0 -189 -186l-28 -133h280l-20 -99h-281l-203 -956h-118l202 956h-163l20 99
h164l29 129q36 160 118 228t183 67q101 0 178 -31l-37 -96q-59 22 -135 22zM1333 0l309 1462h119l-309 -1462h-119z" />
    <glyph glyph-name=".notdef" horiz-adv-x="1024" 
d="M819 102v1332h-614v-1332h614zM102 0v1536h820v-1536h-820z" />
    <glyph glyph-name=".null" horiz-adv-x="0" 
 />
    <glyph glyph-name=".null" horiz-adv-x="0" 
 />
    <glyph glyph-name=".null" horiz-adv-x="0" 
 />
    <glyph glyph-name="nonmarkingreturn" unicode="&#x9;" horiz-adv-x="458" 
 />
    <glyph glyph-name="nonmarkingreturn" unicode="&#xd;" horiz-adv-x="458" 
 />
    <glyph glyph-name="space" unicode=" " horiz-adv-x="458" 
 />
    <glyph glyph-name="exclam" unicode="!" horiz-adv-x="421" 
d="M63 0l39 188h148l-39 -188h-148zM502 1462l-234 -1067h-108l217 1067h125z" />
    <glyph glyph-name="quotedbl" unicode="&#x22;" horiz-adv-x="618" 
d="M281 958h-99l92 496h123zM600 958h-98l92 496h123z" />
    <glyph glyph-name="numbersign" unicode="#" 
d="M397 469h379l164 455h-379zM745 379h-378l-138 -379h-112l135 379h-213l16 90h228l168 455h-230l19 94h245l133 371h115l-137 -371h379l133 371h115l-133 -371h213l-19 -94h-229l-168 -455h231l-16 -90h-246l-135 -379h-115z" />
    <glyph glyph-name="dollar" unicode="$" 
d="M377 1004q0 -76 62.5 -133.5t181.5 -82.5l8 -2l119 564q-192 -7 -281.5 -100.5t-89.5 -245.5zM584 68q186 0 283.5 87t97.5 240q0 90 -42 157.5t-165 92.5l-58 12l-125 -589h9zM262 1024q0 199 144.5 312.5t363.5 117.5l35 160h100l-37 -166q244 -32 296.5 -158.5
t62.5 -181.5l-111 -23q-28 118 -83.5 181t-184.5 80l-123 -580l31 -6q331 -67 331 -354q0 -201 -131 -321t-383 -120h-20l-39 -188h-100l41 196q-258 34 -313.5 160.5t-57.5 220.5h111q4 -135 81.5 -199.5t200.5 -80.5l127 602q-166 39 -254 120t-88 228z" />
    <glyph glyph-name="percent" unicode="%" horiz-adv-x="1818" 
d="M1657 512q0 221 -176 221q-150 0 -235 -143.5t-85 -315.5q0 -221 176 -221q150 0 235 143.5t85 315.5zM1047 264q0 212 117 388.5t323 176.5q129 0 207 -82.5t78 -224.5q0 -212 -115 -388.5t-333 -176.5q-120 0 -198.5 83t-78.5 224zM788 1130q0 222 -176 222
q-149 0 -234 -144t-85 -315q0 -221 176 -221q150 0 234.5 142.5t84.5 315.5zM456 575q-120 0 -199 83t-79 225q0 213 118.5 389t321.5 176q129 0 207 -83t78 -224q0 -214 -115.5 -390t-331.5 -176zM535 0h-134l1020 1415h129z" />
    <glyph glyph-name="ampersand" unicode="&#x26;" horiz-adv-x="1265" 
d="M524 1161q0 -88 25.5 -154.5t62.5 -132.5q159 75 210.5 122.5t73.5 95.5t22 118t-47.5 116t-140.5 46t-149.5 -61.5t-56.5 -149.5zM554 70q214 0 355 135l-346 536q-80 -41 -146.5 -79.5t-140 -109.5t-73.5 -220q0 -172 121.5 -217t229.5 -45zM191 72.5
q-115 105.5 -115 266.5t101 265.5t333 220.5q-104 178 -104 317q0 140 96 232t238 92t215 -75t73 -170t-28.5 -158.5t-78 -111.5t-116 -85t-139.5 -73l319 -498q99 149 121 367h117q-26 -275 -179 -459l132 -203h-134l-77 119q-173 -152 -416 -152t-358 105.5z" />
    <glyph glyph-name="quotesingle" unicode="'" horiz-adv-x="299" 
d="M281 958h-99l92 496h123z" />
    <glyph glyph-name="parenleft" unicode="(" horiz-adv-x="499" 
d="M256 229q0 -262 76 -483h-111q-92 216 -92 508q0 510 176 816t287 433h115q-211 -274 -331 -595.5t-120 -678.5z" />
    <glyph glyph-name="parenright" unicode=")" horiz-adv-x="499" 
d="M344 1020q0 262 -76 483h111q92 -216 92 -508q0 -510 -176 -816t-287 -433h-114q211 274 330.5 596t119.5 678z" />
    <glyph glyph-name="asterisk" unicode="*" horiz-adv-x="770" 
d="M342 836l-88 71l227 207l-231 88l47 101l217 -111l37 270h119l-70 -272l227 104l39 -106l-258 -80l140 -219l-109 -53l-104 221z" />
    <glyph glyph-name="plus" unicode="+" 
d="M715 643l-92 -440h-111l92 440h-411l24 109h412l92 438h110l-92 -438h412l-25 -109h-411z" />
    <glyph glyph-name="comma" unicode="," horiz-adv-x="405" 
d="M-31 -201l142 398h143l-180 -398h-105z" />
    <glyph glyph-name="hyphen" unicode="-" horiz-adv-x="800" 
d="M133 530l25 123h596l-25 -123h-596z" />
    <glyph glyph-name="period" unicode="." horiz-adv-x="407" 
d="M45 0l39 190h154l-39 -190h-154z" />
    <glyph glyph-name="slash" unicode="/" horiz-adv-x="618" 
d="M61 0h-129l779 1503h129z" />
    <glyph glyph-name="zero" unicode="0" 
d="M791 1341q-84 0 -159 -36.5t-164.5 -133.5t-149.5 -301.5t-60 -423.5q0 -259 107.5 -315.5t183.5 -56.5q137 0 238.5 81t202 273t100.5 541q0 259 -107.5 315.5t-191.5 56.5zM792 1454q206 0 317.5 -129t111.5 -350q0 -364 -130.5 -619t-277.5 -324t-257 -69
q-206 0 -317.5 128.5t-111.5 347.5t70 453.5t180 351t208.5 163.5t206.5 47z" />
    <glyph glyph-name="one" unicode="1" 
d="M549 0l272 1282l-391 -207l-51 94l459 246h133l-299 -1415h-123z" />
    <glyph glyph-name="two" unicode="2" 
d="M1190 1087q0 -276 -242.5 -466.5t-419 -313.5t-264.5 -192h750l-47 -115h-897l22 111q96 76 212 160.5t226 166.5t204.5 153t211.5 192t117 302q0 123 -70.5 189.5t-199.5 66.5q-239 0 -306 -102t-94 -170l-108 23q119 362 516 362q177 0 283 -100.5t106 -266.5z" />
    <glyph glyph-name="three" unicode="3" 
d="M588 72q164 0 263 88t99 264q0 127 -64.5 193.5t-180.5 66.5h-199l24 113h164q265 0 316 114.5t51 207.5t-73 157.5t-227 64.5t-237.5 -56.5t-138.5 -199.5l-109 21q68 246 228 297t269 51q200 0 303.5 -97t103.5 -243q0 -224 -115 -291t-176 -88q186 -82 186 -297
q0 -216 -131.5 -345.5t-344.5 -129.5t-343.5 103.5t-134.5 291.5h115q22 -286 352 -286z" />
    <glyph glyph-name="four" unicode="4" 
d="M248 471h559l164 774zM709 0l77 371h-696l21 100l884 944h131l-200 -944h209l-37 -100h-193l-78 -371h-118z" />
    <glyph glyph-name="five" unicode="5" 
d="M702 797q-202 0 -360 -133h-109l209 751h748l-23 -112h-649l-143 -517q88 62 164 87.5t175 25.5q183 0 280.5 -111.5t97.5 -265.5q0 -232 -141 -395.5t-380 -163.5q-299 0 -365.5 134t-68.5 237h115q8 -135 81 -198.5t250 -63.5t280.5 121.5t103.5 319.5t-98.5 241
t-166.5 43z" />
    <glyph glyph-name="six" unicode="6" 
d="M291 377q0 -127 81.5 -217t227.5 -90q188 0 287.5 110.5t99.5 333.5q0 124 -73.5 204.5t-210.5 80.5q-157 0 -284.5 -113.5t-127.5 -308.5zM704 901q204 0 306 -116t102 -256q0 -267 -137 -416.5t-360 -149.5q-222 0 -335.5 130t-113.5 343q0 328 131 598.5t274.5 345
t266.5 74.5q178 0 269 -77t112 -224l-107 -25q-27 127 -94.5 171t-169.5 44t-266.5 -75t-274.5 -588q152 221 397 221z" />
    <glyph glyph-name="seven" unicode="7" 
d="M1231 1303q-489 -649 -803 -1303h-139q355 710 807 1303h-809l22 112h944z" />
    <glyph glyph-name="eight" unicode="8" 
d="M882 150q117 84 117 270q0 105 -83.5 174.5t-256.5 69.5q-231 0 -335.5 -90.5t-104.5 -241.5q0 -117 82.5 -191.5t273 -74.5t307.5 84zM1100 1105q0 167 -110 207t-206 40q-195 0 -296 -96.5t-101 -245.5q0 -97 77 -167.5t223 -70.5q175 0 294 83t119 250zM1128 397
q0 -90 -84 -262t-489 -172q-219 0 -341 102t-122 250q0 191 114.5 287.5t250.5 126.5q-74 34 -131.5 109t-57.5 170q0 197 140 321.5t395 124.5q199 0 308.5 -99t109.5 -254t-100 -254t-230 -128q237 -69 237 -322z" />
    <glyph glyph-name="nine" unicode="9" 
d="M1016 717q-148 -201 -390 -201q-202 0 -305.5 118t-103.5 256q0 267 140.5 415.5t361.5 148.5t332.5 -132t111.5 -354q0 -372 -92 -566.5t-202 -316.5t-339 -122q-295 0 -344 128t-57 194h119q22 -173 126.5 -192t179.5 -19q170 0 291.5 153.5t170.5 489.5zM626 618
q161 0 286.5 107.5t125.5 296.5q0 138 -78.5 232t-224.5 94q-188 0 -290.5 -111t-102.5 -334q0 -192 105.5 -238.5t178.5 -46.5z" />
    <glyph glyph-name="colon" unicode=":" horiz-adv-x="407" 
d="M227 864l39 191h154l-39 -191h-154zM45 0l39 190h154l-39 -190h-154z" />
    <glyph glyph-name="semicolon" unicode=";" horiz-adv-x="407" 
d="M-31 -201l142 398h143l-180 -398h-105zM225 864l39 191h154l-39 -191h-154z" />
    <glyph glyph-name="less" unicode="&#x3c;" 
d="M217 649l19 90l1003 437l-27 -132l-845 -352l694 -362l-27 -117z" />
    <glyph glyph-name="equal" unicode="=" 
d="M170 412l25 112h880l-24 -112h-881zM268 870l25 113h881l-25 -113h-881z" />
    <glyph glyph-name="greater" unicode="&#x3e;" 
d="M1124 739l-18 -90l-1004 -436l27 133l846 350l-694 365l26 115z" />
    <glyph glyph-name="question" unicode="?" horiz-adv-x="1013" 
d="M326 0l39 188h151l-39 -188h-151zM879.5 1321.5q-66.5 58.5 -203.5 58.5t-220.5 -57.5t-140.5 -210.5l-104 21q111 354 485 354q181 0 277 -89.5t96 -225.5t-66.5 -234t-177.5 -186q-49 -39 -152.5 -118t-131.5 -216l-4 -23h-119l4 23q37 177 189.5 295.5t244.5 206.5
t91 241q-1 102 -67.5 160.5z" />
    <glyph glyph-name="at" unicode="@" horiz-adv-x="1898" 
d="M992 825q-68 0 -134.5 -37.5t-141.5 -137t-75 -292.5q0 -141 54.5 -210.5t157.5 -69.5t175 50t112 114.5t62 167.5l17 73q47 191 -45 279q-35 35 -74.5 49t-107.5 14zM1007 924q198 0 277 -166l33 141h108l-151 -700q-4 -20 -4 -35q0 -82 105 -82q192 0 286 177.5
t94 434.5t-176.5 405t-476.5 148q-205 0 -370 -67.5t-342 -251.5t-177 -586q0 -295 180.5 -479.5t497.5 -188.5q200 0 329 45.5t218 157.5h131q-195 -304 -645 -306q-388 -2 -612 201t-224 564q0 213 70.5 398.5t203 323.5t321.5 217t427 79q332 0 491.5 -131t218 -253
t58.5 -264q0 -306 -134 -510t-386 -204q-82 0 -134.5 38t-62.5 109q-143 -159 -317 -159t-252.5 114.5t-73.5 253.5q8 253 149.5 414.5t339.5 161.5z" />
    <glyph glyph-name="A" unicode="A" horiz-adv-x="1353" 
d="M418 561h598l-139 764zM831 1462h148l268 -1462h-129l-82 446h-688l-268 -446h-137z" />
    <glyph glyph-name="B" unicode="B" horiz-adv-x="1277" 
d="M606 111q251 0 356 83t105 259q0 113 -82 184.5t-246 71.5h-381l-127 -598h375zM741 821q294 0 359 111.5t65 182.5t-32.5 155t-282.5 84h-354l-113 -533h358zM1292 1145q0 -287 -315 -381q106 -41 164.5 -126t58.5 -244t-149.5 -276.5t-462.5 -117.5h-502l309 1462h473
q234 0 329 -95t95 -222z" />
    <glyph glyph-name="C" unicode="C" horiz-adv-x="1452" 
d="M739 -37q-257 0 -417 161.5t-160 438.5q0 186 52 356.5t152.5 299.5t244 204.5t327.5 75.5q229 0 359 -124t153 -349l-125 -25q-27 199 -119 294.5t-258 95.5q-304 0 -477.5 -235t-173.5 -581q0 -216 115.5 -358.5t326.5 -142.5q301 0 386 146.5t104 228.5h137
q-84 -342 -291 -414t-336 -72z" />
    <glyph glyph-name="D" unicode="D" horiz-adv-x="1437" 
d="M559 111q355 0 542 206.5t187 567.5q0 200 -116 334.5t-326 134.5h-348l-265 -1243h326zM858 1462q251 0 406 -161t155 -420q0 -392 -223 -636.5t-655 -244.5h-455l309 1462h463z" />
    <glyph glyph-name="E" unicode="E" horiz-adv-x="1204" 
d="M498 1350l-115 -537h754l-25 -117h-754l-125 -581h838l-49 -115h-936l309 1462h920l-23 -112h-794z" />
    <glyph glyph-name="F" unicode="F" horiz-adv-x="1132" 
d="M498 1350l-119 -555h706l-24 -117h-707l-143 -678h-125l309 1462h879l-23 -112h-753z" />
    <glyph glyph-name="G" unicode="G" horiz-adv-x="1456" 
d="M933 1391q-296 0 -467 -240t-171 -576q0 -214 116.5 -357.5t319.5 -143.5q268 0 440 129l89 407h-420l24 113h539l-123 -578q-132 -117 -293 -149.5t-273 -32.5t-215.5 43t-221 166t-117.5 391q0 178 50 346t148.5 299t245 211t342.5 80t328.5 -100.5t171.5 -298.5
l-121 -27q-31 160 -133 239t-259 79z" />
    <glyph glyph-name="H" unicode="H" horiz-adv-x="1411" 
d="M1036 0l148 698h-826l-147 -698h-125l309 1462h125l-137 -647h825l138 647h124l-309 -1462h-125z" />
    <glyph glyph-name="I" unicode="I" horiz-adv-x="460" 
d="M86 0l309 1462h125l-309 -1462h-125z" />
    <glyph glyph-name="J" unicode="J" horiz-adv-x="1179" 
d="M487 -37q-302 0 -366 145.5t-64 243.5v18q0 19 2 33h119v-26q0 -143 69.5 -223t254.5 -80t280 106.5t136 302.5l206 979h125l-213 -1003q-53 -256 -186 -376t-363 -120z" />
    <glyph glyph-name="K" unicode="K" horiz-adv-x="1302" 
d="M676 829l-348 -280l-117 -549h-125l309 1462h125l-160 -760l928 760h150l-660 -557l402 -905h-144z" />
    <glyph glyph-name="L" unicode="L" horiz-adv-x="1126" 
d="M979 0h-893l309 1462h125l-284 -1345h794z" />
    <glyph glyph-name="M" unicode="M" horiz-adv-x="1716" 
d="M715 0l-248 1245l-264 -1245h-117l309 1462h156l252 -1317l813 1317h160l-310 -1462h-116l266 1251l-782 -1251h-119z" />
    <glyph glyph-name="N" unicode="N" horiz-adv-x="1413" 
d="M1034 0l-557 1274l-270 -1274h-121l309 1462h131l555 -1269l271 1269h121l-310 -1462h-129z" />
    <glyph glyph-name="O" unicode="O" horiz-adv-x="1548" 
d="M766 74q132 0 253.5 70.5t205.5 186t128 262.5t44 277q0 245 -117.5 382t-329.5 137q-154 0 -275.5 -72t-205.5 -186.5t-128 -261.5t-44 -277t28.5 -221.5t86 -157.5t140 -102.5t214.5 -36.5zM954 1499q249 0 412.5 -162t163.5 -442q0 -170 -52.5 -336t-153.5 -299
t-247.5 -215t-337.5 -82q-248 0 -411.5 161.5t-163.5 440.5q0 168 54 336t155.5 300t248 215t332.5 83z" />
    <glyph glyph-name="P" unicode="P" horiz-adv-x="1267" 
d="M702 700q237 0 361.5 93t124.5 315q0 246 -348 246h-344l-140 -654h346zM1317 1106q0 -261 -168 -387.5t-465 -126.5h-350l-125 -592h-123l309 1462h465q237 0 347 -105.5t110 -250.5z" />
    <glyph glyph-name="Q" unicode="Q" horiz-adv-x="1548" 
d="M766 74q132 0 262 76l-149 233l94 61l147 -227q128 108 202.5 292.5t74.5 394.5t-117.5 347.5t-329.5 137.5q-154 0 -275.5 -72t-205.5 -186.5t-128 -261.5t-44 -277t28.5 -221.5t86 -157.5t140 -102.5t214.5 -36.5zM164 565q0 168 54 336t155.5 300t248 215t332.5 83
q249 0 412.5 -162t163.5 -442q0 -354 -131 -532.5t-215 -245.5l131 -201l-96 -63l-129 200q-171 -90 -351 -90q-248 0 -411.5 161.5t-163.5 440.5z" />
    <glyph glyph-name="R" unicode="R" horiz-adv-x="1280" 
d="M1174 1104q0 250 -357 250h-321l-129 -604h352q225 0 340 80.5t115 273.5zM662 639h-318l-135 -639h-123l309 1462h451q243 0 348.5 -104.5t105.5 -253.5q0 -343 -352 -434l168 -670h-141l-152 645q-53 -6 -161 -6z" />
    <glyph glyph-name="S" unicode="S" horiz-adv-x="1314" 
d="M1176 398q0 -90 -42 -174.5t-153 -172.5t-344 -88q-534 0 -547 420h123q24 -241 173 -275t256 -34q206 0 302 96t96 254q0 91 -45.5 153.5t-171.5 90.5l-211 45q-158 35 -250 118.5t-92 237.5q0 210 140.5 320t382.5 110t362.5 -106.5t142.5 -272.5l-116 -24
q-23 143 -111 219t-292 76t-294 -84.5t-90 -228.5q0 -145 87 -187.5t161 -59.5l203 -43q255 -50 292.5 -175t37.5 -215z" />
    <glyph glyph-name="T" unicode="T" horiz-adv-x="1208" 
d="M870 1348l-284 -1348h-125l284 1348h-507l24 114h1139l-25 -114h-506z" />
    <glyph glyph-name="U" unicode="U" horiz-adv-x="1384" 
d="M176 389q0 80 23 193l186 880h125l-188 -891q-20 -94 -21 -178q0 -160 85 -239.5t284 -79.5t306.5 119.5t164.5 377.5l188 891h125l-188 -889q-69 -321 -215.5 -465.5t-392.5 -144.5q-233 0 -357.5 106t-124.5 320z" />
    <glyph glyph-name="V" unicode="V" horiz-adv-x="1329" 
d="M651 0h-135l-260 1462h133l221 -1321l779 1321h139z" />
    <glyph glyph-name="W" unicode="W" horiz-adv-x="1865" 
d="M1122 1300l-626 -1300h-138l-104 1462h131l72 -1306l635 1300h133l82 -1298l620 1304h139l-720 -1462h-144z" />
    <glyph glyph-name="X" unicode="X" horiz-adv-x="1255" 
d="M776 760l371 -760h-143l-322 674l-592 -674h-143l682 778l-332 684h139l283 -606l538 606h142z" />
    <glyph glyph-name="Y" unicode="Y" horiz-adv-x="1204" 
d="M258 1462h135l279 -723l585 723h144l-682 -829l-133 -633h-125l133 633z" />
    <glyph glyph-name="Z" unicode="Z" horiz-adv-x="1198" 
d="M1044 0h-1048l20 102l1139 1248h-868l22 112h1030l-22 -104l-1135 -1243h912z" />
    <glyph glyph-name="bracketleft" unicode="[" horiz-adv-x="520" 
d="M20 -254l375 1757h340l-22 -102h-217l-330 -1553h217l-23 -102h-340z" />
    <glyph glyph-name="backslash" unicode="\" horiz-adv-x="618" 
d="M256 1503h121l139 -1503h-121z" />
    <glyph glyph-name="bracketright" unicode="]" horiz-adv-x="520" 
d="M600 1503l-375 -1757h-340l23 102h217l330 1553h-217l22 102h340z" />
    <glyph glyph-name="asciicircum" unicode="^" 
d="M1006 627l-199 692l-490 -692h-129l590 821h107l241 -821h-120z" />
    <glyph glyph-name="underscore" unicode="_" horiz-adv-x="1024" 
d="M-158 -358l23 106h1022l-23 -106h-1022z" />
    <glyph glyph-name="grave" unicode="`" horiz-adv-x="776" 
d="M594 1208l-215 275h151l183 -275h-119z" />
    <glyph glyph-name="a" unicode="a" horiz-adv-x="1075" 
d="M178 254q0 -70 45 -121t179 -51t223 60q90 60 131.5 115.5t60.5 148.5l33 155l-197 -8q-266 -12 -370.5 -79.5t-104.5 -219.5zM51 244q0 119 45 191.5t155.5 135.5t403.5 76l213 8l4 21q4 27 8.5 52.5t4.5 47.5q0 92 -53.5 151.5t-196.5 59.5t-211 -37.5t-111 -142.5
l-110 18q49 143 156.5 202.5t290.5 59.5t269.5 -84.5t86.5 -226.5q0 -42 -15 -119l-139 -657h-119l31 150q-72 -72 -166 -123.5t-232 -51.5t-226.5 75t-88.5 194z" />
    <glyph glyph-name="b" unicode="b" horiz-adv-x="1193" 
d="M1006 639q0 174 -69 260t-191 86q-122 -1 -215 -63t-150 -143t-84 -206l-18 -88q-37 -172 -5.5 -237.5t76.5 -106.5q83 -71 229 -71q84 0 165 46t171.5 167.5t90.5 355.5zM371 897q169 190 375 190t296.5 -128.5t90.5 -319.5q0 -262 -112 -406.5t-218.5 -205
t-228.5 -60.5q-253 0 -361 195l-33 -162h-119l310 1462h118z" />
    <glyph glyph-name="c" unicode="c" horiz-adv-x="1134" 
d="M687 985q-91 0 -174 -42t-174 -156t-91 -365t111.5 -301.5t192.5 -50.5q149 0 231 69t124 193h121q-81 -259 -233 -312t-254 -53q-196 0 -309 123.5t-113 301.5q0 327 169.5 511t411.5 184q190 0 282 -98t108 -252l-113 -22q-15 120 -55.5 170.5t-92 75t-142.5 24.5z" />
    <glyph glyph-name="d" unicode="d" horiz-adv-x="1189" 
d="M989 715q0 120 -87 195t-202 75q-209 0 -332.5 -165t-123.5 -404q0 -168 73.5 -257t202.5 -89q215 0 310.5 143t121.5 268l19 88q18 82 18 146zM117 412q0 261 110.5 408t217.5 207t229 60q252 0 362 -196l121 571h119l-311 -1462h-119l33 158q-152 -191 -377 -191
q-193 0 -289 130.5t-96 314.5z" />
    <glyph glyph-name="e" unicode="e" horiz-adv-x="1146" 
d="M971 692q0 136 -75.5 217.5t-226.5 81.5t-260.5 -102.5t-148.5 -288.5h705q6 27 6 92zM242 473v-81q0 -48 19.5 -111.5t83 -139t224.5 -75.5q203 0 256.5 82.5t69.5 127.5h117q-56 -153 -158 -231t-303 -78t-316.5 130.5t-115.5 306.5q0 327 163.5 505t407.5 178
q191 0 293 -113.5t102 -289.5q0 -96 -10 -154l-6 -32h-825q-2 -20 -2 -25z" />
    <glyph glyph-name="f" unicode="f" horiz-adv-x="632" 
d="M490.5 1411.5q82.5 67.5 183.5 67.5t178 -31l-37 -96q-59 22 -135 22q-147 0 -188 -186l-29 -133h280l-20 -99h-281l-202 -956h-119l203 956h-164l20 99h164l29 129q35 160 117.5 227.5z" />
    <glyph glyph-name="g" unicode="g" horiz-adv-x="1187" 
d="M254 440q0 -154 69.5 -237.5t200.5 -83.5t225 62q93 62 139 138t73 201l10 49q18 82 18 147q0 119 -87 194t-232 75q-84 0 -164 -45t-166 -163t-86 -337zM127 438q0 249 108.5 391t214.5 200t226 58q250 0 360 -196l35 164h119l-217 -1016q-49 -227 -169 -343t-355 -116
q-280 0 -343 110.5t-65 194.5h113q16 -110 80 -157t227 -47q162 0 257 84.5t138 285.5l31 144q-139 -179 -383 -179q-191 0 -284 124.5t-93 297.5z" />
    <glyph glyph-name="h" unicode="h" horiz-adv-x="1142" 
d="M778 1087q147 0 224 -79.5t77 -221.5q0 -53 -12 -110l-143 -676h-119l139 653q14 68 14 115q0 96 -44 154.5t-154 58.5q-202 0 -315 -133t-134 -230l-131 -618h-119l310 1462h118l-122 -579q187 204 411 204z" />
    <glyph glyph-name="i" unicode="i" horiz-adv-x="417" 
d="M322 1284l36 178h136l-37 -178h-135zM68 0l223 1055h119l-224 -1055h-118z" />
    <glyph glyph-name="j" unicode="j" horiz-adv-x="417" 
d="M322 1284l36 178h136l-37 -178h-135zM-128 -274q77 0 118 50t59 136l242 1143h119l-232 -1092q-38 -171 -103 -257.5t-205 -86.5q-101 0 -187 37l41 98q71 -28 148 -28z" />
    <glyph glyph-name="k" unicode="k" horiz-adv-x="1009" 
d="M61 0l310 1462h118l-186 -891l637 484h154l-449 -355l270 -700h-133l-237 635l-275 -205l-90 -430h-119z" />
    <glyph glyph-name="l" unicode="l" horiz-adv-x="417" 
d="M68 0l309 1462h119l-310 -1462h-118z" />
    <glyph glyph-name="m" unicode="m" horiz-adv-x="1746" 
d="M742 981q-76 0 -136.5 -23.5t-126.5 -75.5t-107.5 -111.5t-64.5 -166.5l-127 -604h-119l224 1055h118l-36 -172q92 111 193.5 157.5t193.5 46.5t158.5 -54t84.5 -156q142 163 256.5 186.5t155.5 23.5q139 0 205.5 -75.5t66.5 -192.5q0 -72 -20 -174l-137 -645h-119
l133 623q25 108 25 183q0 175 -170 175q-143 0 -258 -94q-61 -49 -94 -99.5t-54 -140.5l-137 -647h-119l131 614q27 143 27 203t-35.5 112t-111.5 52z" />
    <glyph glyph-name="n" unicode="n" horiz-adv-x="1142" 
d="M778 1087q147 0 224 -79.5t77 -221.5q0 -53 -12 -110l-143 -676h-119l139 653q14 68 14 115q0 96 -44 154.5t-154 58.5q-202 0 -315 -133t-134 -230l-131 -618h-119l224 1055h118l-36 -172q187 204 411 204z" />
    <glyph glyph-name="o" unicode="o" horiz-adv-x="1214" 
d="M560 -33q-202 0 -320.5 121.5t-118.5 298.5q0 325 175 512.5t433 187.5q186 0 303 -122.5t117 -297.5q0 -176 -47 -301.5t-128 -215t-192.5 -136.5t-221.5 -47zM551 70q209 0 340 163t131 406q0 154 -77 250t-226 96q-211 0 -341 -163t-130 -406q0 -154 76.5 -250
t226.5 -96z" />
    <glyph glyph-name="p" unicode="p" horiz-adv-x="1193" 
d="M1006 639q0 174 -69 260t-191 86q-122 -1 -215 -63t-150 -143t-89 -225t-32 -211q0 -120 90 -202q83 -71 229 -71q84 0 165 46t171.5 167.5t90.5 355.5zM371 897q169 190 374 190q204 0 296 -125.5t92 -312.5q0 -265 -156 -473.5t-418 -208.5q-106 0 -198.5 48
t-147.5 147l-119 -559h-119l310 1452h118z" />
    <glyph glyph-name="q" unicode="q" horiz-adv-x="1191" 
d="M989 713q0 118 -90 200q-85 72 -201 72q-213 0 -333.5 -169t-120.5 -400q0 -168 73.5 -257t202.5 -89q215 0 310.5 143t121.5 268l19 88q18 80 18 144zM117 414q0 117 38 237.5t110.5 217t179.5 157.5t229 61q252 0 362 -196l35 164h119l-311 -1452h-119l119 555
q-152 -191 -377 -191q-195 0 -290 129.5t-95 317.5z" />
    <glyph glyph-name="r" unicode="r" horiz-adv-x="690" 
d="M696 958q-109 0 -202 -77q-66 -53 -114 -110.5t-69 -154.5l-131 -616h-119l224 1055h118l-36 -172q98 109 180 148.5t149 39.5t105 -10l-33 -109q-35 6 -72 6z" />
    <glyph glyph-name="s" unicode="s" horiz-adv-x="1052" 
d="M178 293q0 -225 314 -225q152 0 219 64.5t67 149.5t-38 124.5t-138 62.5l-121 27q-152 35 -219 96.5t-67 157.5q0 172 119.5 254.5t291.5 82.5q278 0 328.5 -114.5t58.5 -173.5l-108 -21q-21 109 -84.5 158t-202.5 49q-212 0 -248.5 -82t-36.5 -119q0 -75 41 -116
t154 -64l133 -29q123 -27 192.5 -91t67.5 -208t-124 -226.5t-298 -82.5q-279 0 -347.5 116t-68.5 210h115z" />
    <glyph glyph-name="t" unicode="t" horiz-adv-x="675" 
d="M391 -23q-96 0 -157.5 54.5t-61.5 163.5q0 51 10 96l142 665h-164l20 99h164l62 291h118l-61 -291h299l-21 -99h-299l-141 -665q-10 -58 -10 -80q0 -131 129 -131q70 0 143 26l21 -96q-97 -33 -193 -33z" />
    <glyph glyph-name="u" unicode="u" horiz-adv-x="1120" 
d="M158.5 84q-37.5 117 -37.5 177t12 118l143 676h119l-141 -664q-10 -62 -10 -115q0 -202 189 -202t300 133t131 229l131 619h119l-223 -1055h-119l37 172q-181 -205 -397 -205t-253.5 117z" />
    <glyph glyph-name="v" unicode="v" horiz-adv-x="1015" 
d="M483 0h-139l-203 1055h131l164 -926l561 926h136z" />
    <glyph glyph-name="w" unicode="w" horiz-adv-x="1456" 
d="M1034 0h-137l-70 922l-460 -922h-138l-82 1055h127l50 -922l462 916h140l67 -916l443 922h131z" />
    <glyph glyph-name="x" unicode="x" horiz-adv-x="978" 
d="M539 639l379 416h137l-457 -506l276 -549h-126l-236 475l-426 -475h-141l512 569l-252 486h127z" />
    <glyph glyph-name="y" unicode="y" horiz-adv-x="1019" 
d="M188.5 -261q35.5 32 108.5 150l76 125l-232 1041h129l193 -905l532 905h142l-734 -1194q-39 -59 -70.5 -107.5t-83.5 -99.5t-144 -51t-154 30l39 97q52 -23 107 -23q56 0 91.5 32z" />
    <glyph glyph-name="z" unicode="z" horiz-adv-x="919" 
d="M-8 100l833 854h-649l21 101h796l-20 -101l-834 -854h703l-37 -100h-834z" />
    <glyph glyph-name="braceleft" unicode="{" horiz-adv-x="538" 
d="M219 486q0 84 -115 85h-4l23 107h4q84 0 121 39t53 117l94 442q27 131 99.5 179t185.5 48h86l-23 -100h-94q-108 0 -129 -111l-104 -489q-35 -158 -154 -178q84 -18 84 -115q0 -31 -6 -64l-104 -489q-5 -12 -5 -44q0 -67 84 -67h99l-23 -100h-86q-92 0 -144 30.5
t-52 114.5q0 27 10 82l94 443q6 32 6 70z" />
    <glyph glyph-name="bar" unicode="|" horiz-adv-x="413" 
d="M8 -254l375 1757h123l-375 -1757h-123z" />
    <glyph glyph-name="braceright" unicode="}" horiz-adv-x="538" 
d="M408 1331q0 72 -84 72h-99l23 100h86q92 0 143 -30.5t51 -116.5q0 -39 -8 -80l-94 -442q-8 -32 -8 -70q0 -86 117 -86h4l-23 -107h-4q-86 0 -122 -38.5t-52 -116.5l-94 -443q-39 -183 -134.5 -205t-150.5 -22h-84l23 100h92q108 0 129 111l104 489q35 158 152 179
q-84 16 -84 112q0 33 8 66l104 489q5 25 5 39z" />
    <glyph glyph-name="asciitilde" unicode="~" 
d="M416 760q-70 0 -113 -48t-65 -171h-103q42 277 147.5 297t171.5 20t125.5 -39t109.5 -86t99.5 -86t121.5 -39t118.5 48.5t67.5 170.5h102q-42 -276 -151 -298.5t-175 -22.5t-125 40t-110 87t-101 87t-120 40z" />
    <glyph glyph-name="uni00A0" unicode="&#xa0;" horiz-adv-x="458" 
 />
    <glyph glyph-name="exclamdown" unicode="&#xa1;" horiz-adv-x="421" 
d="M418 1055l-39 -189h-148l39 189h148zM322 659l-216 -1056h-124l231 1056h109z" />
    <glyph glyph-name="cent" unicode="&#xa2;" 
d="M346 594q0 -123 53.5 -218t173.5 -120l193 905q-193 -12 -306.5 -169t-113.5 -398zM217 625q0 121 46 245.5t165.5 258t357.5 137.5l37 168h101l-37 -174q139 -22 213 -114t88 -231l-113 -22q-15 107 -60 176.5t-151 87.5l-192 -909q198 5 256.5 109t77.5 157h120
q-113 -362 -475 -369l-35 -163h-100l35 170q-159 27 -225 116.5t-87.5 162.5t-21.5 194z" />
    <glyph glyph-name="sterling" unicode="&#xa3;" 
d="M379 980q0 81 52.5 277.5t406.5 196.5q166 0 255 -81t124 -238l-113 -29q-31 135 -91.5 189.5t-168.5 54.5q-193 0 -267.5 -97.5t-74.5 -275.5q0 -60 18 -219h463l-22 -105h-431v-35q0 -162 -72.5 -284.5t-187.5 -220.5h791l-43 -113h-909l22 113q138 116 209.5 230.5
t71.5 256.5l-2 53h-183l23 105h147l-12 94t-6 128z" />
    <glyph glyph-name="currency" unicode="&#xa4;" 
d="M580 334q192 0 299.5 132t107.5 335q0 129 -62.5 204.5t-168.5 75.5q-191 0 -299.5 -131.5t-108.5 -333.5q0 -129 63 -205.5t169 -76.5zM1112 813q0 -272 -158 -434l95 -131l-93 -66l-88 125q-126 -82 -278 -82t-250 92l-137 -118l-68 82l139 120q-47 88 -47 201
q0 272 164 438l-90 127l90 66l86 -123q121 80 275 80t252 -98l143 125l67 -82l-147 -129q45 -86 45 -193z" />
    <glyph glyph-name="yen" unicode="&#xa5;" 
d="M645 346l-72 -346h-120l71 346h-381l23 103h381l35 163l-23 64h-352l20 104h289l-252 635h133l258 -704l568 704h133l-518 -635h286l-20 -104h-350l-52 -64l-34 -163h395l-23 -103h-395z" />
    <glyph glyph-name="brokenbar" unicode="&#xa6;" horiz-adv-x="413" 
d="M285 469l-154 -723h-123l154 723h123zM236 815l147 688h123l-148 -688h-122z" />
    <glyph glyph-name="section" unicode="&#xa7;" horiz-adv-x="1044" 
d="M517 872q-102 0 -172.5 -62t-70.5 -189q0 -63 44 -110.5t147 -80.5l61 -20q49 -17 100 -17q50 0 93 15.5t75.5 46t53 78t20.5 113t-43 110.5t-147 80l-62 20q-53 16 -99 16zM739 332q150 -72 150 -256q0 -162 -113.5 -239t-322.5 -77q-210 0 -315 100.5t-105 227.5h112
q13 -111 89 -167t241 -56q248 0 272.5 94t24.5 140t-33.5 98.5t-134.5 81.5l-168 49q-152 45 -217 116.5t-65 182.5t62.5 193.5t191.5 113.5q-150 70 -150 238t116.5 246.5t315.5 78.5t298 -86.5t120 -208.5l-111 -20q-23 104 -95 157.5t-226 53.5q-249 0 -275 -88.5
t-26 -140.5q0 -122 170 -175l166 -51q147 -47 212.5 -117.5t65.5 -181.5t-60.5 -194t-189.5 -113z" />
    <glyph glyph-name="dieresis" unicode="&#xa8;" horiz-adv-x="776" 
d="M629 1268l37 174h135l-37 -174h-135zM301 1268l37 174h133l-37 -174h-133z" />
    <glyph glyph-name="copyright" unicode="&#xa9;" horiz-adv-x="1581" 
d="M433.5 275q161.5 -173 415.5 -173t416 174.5t162 455t-161.5 453.5t-416.5 173q-254 0 -415.5 -171.5t-161.5 -455t161.5 -456.5zM1354 1262.5q192 -199.5 192 -528.5t-198.5 -531.5t-502.5 -202.5t-497.5 200.5t-193.5 529.5t201.5 530.5t503.5 201.5q303 0 495 -199.5z
M1077 874q-43 187 -205 187q-152 0 -215 -90t-63 -242q0 -229 95 -279.5t165 -50.5q195 0 229 197h113q-25 -135 -111.5 -213t-248.5 -78t-261.5 111.5t-99.5 308.5t105 312.5t278 115.5q137 0 217 -67.5t105 -190.5z" />
    <glyph glyph-name="ordfeminine" unicode="&#xaa;" horiz-adv-x="868" 
d="M444 778q114 0 180 41t95 81t43 104l22 102l-133 -6q-268 -11 -300 -83.5t-32 -120.5t32.5 -83t92.5 -35zM211 885q0 158 112 224t330 75l148 6q8 40 8 90t-37.5 89.5t-109.5 39.5q-126 0 -173.5 -26t-76.5 -103l-93 16q37 111 117 157t212 46t196.5 -62.5t64.5 -166.5
q0 -44 -8 -88l-100 -477h-101l19 94q-53 -45 -117 -79t-162 -34t-163.5 56.5t-65.5 142.5z" />
    <glyph glyph-name="guillemotleft" unicode="&#xab;" horiz-adv-x="960" 
d="M899 979h121l-371 -459l168 -450h-112l-187 456zM512 979h121l-371 -459l168 -450h-113l-186 456z" />
    <glyph glyph-name="logicalnot" unicode="&#xac;" 
d="M1032 330h-108l92 438h-809l22 106h918z" />
    <glyph glyph-name="uni00AD" unicode="&#xad;" horiz-adv-x="800" 
d="M133 530l25 123h596l-25 -123h-596z" />
    <glyph glyph-name="registered" unicode="&#xae;" horiz-adv-x="983" 
d="M624.5 1417q-145.5 0 -233.5 -93t-88 -263t88 -263t233.5 -93t235.5 93t90 263t-90 263t-235.5 93zM631 1499q183 0 298 -117t115 -319q0 -201 -119.5 -320.5t-301.5 -119.5t-298 118t-116 319q0 200 119.5 319.5t302.5 119.5zM713 1153q0 25 -17.5 40t-77.5 15h-65v-118
h78q55 0 68.5 19t13.5 44zM623 1276q174 0 174 -120q0 -52 -15.5 -77.5t-56.5 -42.5l90 -174h-92l-78 156h-92v-156h-84v414h154z" />
    <glyph glyph-name="macron" unicode="&#xaf;" horiz-adv-x="776" 
d="M160 1389h499l-22 -105h-500z" />
    <glyph glyph-name="degree" unicode="&#xb0;" horiz-adv-x="647" 
d="M268 1182q0 -80 46 -128t122 -48t122 48t46 128t-46 130t-122 50t-122 -50t-46 -130zM164 1185q0 116 78.5 192.5t194.5 76.5q115 0 193.5 -76.5t78.5 -192.5t-78.5 -194t-194.5 -78t-194 78t-78 194z" />
    <glyph glyph-name="plusminus" unicode="&#xb1;" 
d="M715 643l-92 -440h-111l92 440h-411l24 109h412l92 438h110l-92 -438h412l-25 -109h-411zM66 0l22 113h938l-22 -113h-938z" />
    <glyph glyph-name="twosuperior" unicode="&#xb2;" horiz-adv-x="843" 
d="M587 1352q-77 0 -124 -34t-80 -118l-98 23q29 94 104.5 159.5t199.5 65.5t191.5 -62.5t67.5 -146.5t-23.5 -138t-81.5 -118.5t-192.5 -154t-183.5 -126.5h391l-39 -98h-537l17 90q72 53 149.5 108.5t141.5 101.5q140 101 193.5 162t53.5 159q0 49 -36.5 88t-113.5 39z
" />
    <glyph glyph-name="threesuperior" unicode="&#xb3;" horiz-adv-x="843" 
d="M756 1222q0 138 -157 138q-83 0 -131 -33t-83 -119l-92 21q65 219 319 219q117 0 180.5 -59.5t63.5 -147.5t-42 -138t-105 -79q92 -62 92 -178q0 -117 -77 -194t-215 -77t-219 68.5t-81 187.5h94q16 -167 203 -167q88 0 141 47t53 125q0 147 -131 147h-127l21 88h112
q86 0 133.5 43.5t47.5 107.5z" />
    <glyph glyph-name="acute" unicode="&#xb4;" horiz-adv-x="776" 
d="M330 1208l272 275h168l-305 -275h-135z" />
    <glyph glyph-name="mu" unicode="&#xb5;" horiz-adv-x="1120" 
d="M244 286q0 -212 188 -212q191 0 301.5 133t130.5 229l131 619h119l-223 -1055h-119l37 172q-181 -205 -395 -205q-167 0 -228 107l-100 -471h-119l309 1452h119l-141 -664q-10 -63 -10 -105z" />
    <glyph glyph-name="paragraph" unicode="&#xb6;" horiz-adv-x="1193" 
d="M180 1004q0 80 34 168t154 189t453 101h449l-371 -1747h-127l348 1641h-280l-348 -1641h-127l196 930q-196 0 -288.5 98.5t-92.5 260.5z" />
    <glyph glyph-name="periodcentered" unicode="&#xb7;" horiz-adv-x="407" 
d="M186 670l39 190h154l-39 -190h-154z" />
    <glyph glyph-name="cedilla" unicode="&#xb8;" horiz-adv-x="776" 
d="M283 -246q0 70 -150 70h-24l102 182h94l-63 -112q88 -14 121.5 -53.5t33.5 -80.5q0 -100 -71.5 -138t-157.5 -38t-145 15l20 90q63 -13 115 -13q125 0 125 78z" />
    <glyph glyph-name="onesuperior" unicode="&#xb9;" horiz-adv-x="843" 
d="M436 604l148 692l-201 -94l-39 92l256 125h129l-174 -815h-119z" />
    <glyph glyph-name="ordmasculine" unicode="&#xba;" horiz-adv-x="884" 
d="M523 684q-145 0 -231.5 88.5t-86.5 217.5q0 236 127 372.5t315 136.5q134 0 219.5 -87.5t85.5 -216.5q0 -128 -33.5 -220t-93 -156.5t-140.5 -99.5t-162 -35zM507 778q158 0 247.5 111t89.5 280q0 106 -52.5 172t-141.5 66q-160 0 -248.5 -112.5t-88.5 -278.5
q0 -106 52.5 -172t141.5 -66z" />
    <glyph glyph-name="guillemotright" unicode="&#xbb;" horiz-adv-x="980" 
d="M119 70h-123l371 458l-168 451h110l189 -457zM526 70h-123l371 458l-168 451h111l188 -457z" />
    <glyph glyph-name="onequarter" unicode="&#xbc;" horiz-adv-x="1837" 
d="M356 604l148 692l-201 -94l-39 92l256 125h129l-174 -815h-119zM504 0h-133l1020 1415h129zM1206 297h297l78 377zM1440 2l43 205h-422l16 76l533 534h104l-110 -520h102l-37 -90h-86l-43 -205h-100z" />
    <glyph glyph-name="onehalf" unicode="&#xbd;" horiz-adv-x="1837" 
d="M356 604l148 692l-201 -94l-39 92l256 125h129l-174 -815h-119zM440 0h-133l1020 1415h129zM1498 750q-77 0 -124 -34t-80 -118l-98 23q28 93 104 159t200 66t192 -62t68 -147q0 -84 -24 -138q-24 -53 -65 -99q-85 -94 -296 -231q-48 -32 -97 -69h391l-39 -98h-536l16 90
q72 52 150 108q271 193 316 243q71 79 73 180q0 49 -37 88t-114 39z" />
    <glyph glyph-name="threequarters" unicode="&#xbe;" horiz-adv-x="1837" 
d="M737 1222q-1 138 -157 138q-82 0 -130 -33t-83 -119l-93 21q65 219 320 219q118 0 180 -59t63 -147q1 -89 -41 -139t-106 -79q94 -63 93 -179t-77 -193t-214 -77q-137 0 -220 69q-82 69 -82 187h95q16 -167 202 -167q88 0 142 47q53 47 53 125q0 147 -131 147h-127l20 88
h113q86 0 133 44q47 43 47 107zM580 0h-134l1020 1415h129zM1206 297h297l78 377zM1440 2l43 205h-422l16 76l533 534h104l-110 -520h102l-37 -90h-86l-43 -205h-100z" />
    <glyph glyph-name="questiondown" unicode="&#xbf;" horiz-adv-x="1009" 
d="M762 1055l-39 -189h-152l39 189h152zM391 -424q-182 0 -277.5 88.5t-95.5 223.5q0 136 67 232.5t177 184.5q49 39 153.5 118.5t131.5 213.5l4 22h119l-4 -22q-36 -178 -225.5 -322.5t-245.5 -227.5t-55 -186t67.5 -160.5t204.5 -57.5t220.5 57t139.5 211l105 -21
q-111 -354 -486 -354z" />
    <glyph glyph-name="Agrave" unicode="&#xc0;" horiz-adv-x="1353" 
d="M418 561h598l-139 764zM831 1462h148l268 -1462h-129l-82 446h-688l-268 -446h-137zM922 1585l-213 264h153l180 -264h-120z" />
    <glyph glyph-name="Aacute" unicode="&#xc1;" horiz-adv-x="1353" 
d="M418 561h598l-139 764zM831 1462h148l268 -1462h-129l-82 446h-688l-268 -446h-137zM782 1585l273 264h166l-308 -264h-131z" />
    <glyph glyph-name="Acircumflex" unicode="&#xc2;" horiz-adv-x="1353" 
d="M418 561h598l-139 764zM831 1462h148l268 -1462h-129l-82 446h-688l-268 -446h-137zM641 1585l285 264h116l175 -264h-123l-121 170l-205 -170h-127z" />
    <glyph glyph-name="Atilde" unicode="&#xc3;" horiz-adv-x="1353" 
d="M418 561h598l-139 764zM831 1462h148l268 -1462h-129l-82 446h-688l-268 -446h-137zM1290 1815q-33 -216 -202 -216q-87 0 -170 60q-33 23 -64 41q-32 18 -74 18t-67 -28t-37 -88h-101q15 106 65 160t136 54t172 -58q33 -22 63 -40q29 -18 73 -18t69 26t35 89h102z" />
    <glyph glyph-name="Adieresis" unicode="&#xc4;" horiz-adv-x="1353" 
d="M418 561h598l-139 764zM831 1462h148l268 -1462h-129l-82 446h-688l-268 -446h-137zM1016 1628l39 178h139l-39 -178h-139zM680 1628l39 178h137l-39 -178h-137z" />
    <glyph glyph-name="Aring" unicode="&#xc5;" horiz-adv-x="1353" 
d="M909 1464q105 0 105 113t-105 113q-47 0 -75.5 -28t-28.5 -86t28.5 -85t75.5 -27zM418 561h598l-139 764zM715 1569q0 104 58 153.5t137 49.5t137.5 -51.5t58.5 -133.5q0 -145 -115 -192l256 -1395h-129l-82 446h-688l-268 -446h-137l856 1409q-84 56 -84 160z" />
    <glyph glyph-name="AE" unicode="&#xc6;" horiz-adv-x="2072" 
d="M571 625h572l155 725h-145zM-72 0l1174 1462h1081l-22 -112h-744l-114 -537h702l-25 -117h-702l-125 -581h786l-49 -115h-878l106 510h-639l-407 -510h-144z" />
    <glyph glyph-name="Ccedilla" unicode="&#xc7;" horiz-adv-x="1452" 
d="M780 -268q0 75 -159 75h-25l88 158q-233 17 -377.5 176.5t-144.5 421.5q0 186 52 356.5t152.5 299.5t244 204.5t327.5 75.5q229 0 359 -124t153 -349l-125 -25q-27 199 -119 294.5t-258 95.5q-304 0 -477.5 -235t-173.5 -581q0 -216 115.5 -358.5t326.5 -142.5
q301 0 386 146.5t104 228.5h137q-83 -324 -271 -401t-313 -83l-45 -84q127 -22 145.5 -74.5t18.5 -88.5t-20.5 -70.5t-68 -64t-140.5 -29.5t-166 14l22 92q62 -12 120 -12q132 0 132 84z" />
    <glyph glyph-name="Egrave" unicode="&#xc8;" horiz-adv-x="1204" 
d="M498 1350l-115 -537h754l-25 -117h-754l-125 -581h838l-49 -115h-936l309 1462h920l-23 -112h-794zM899 1585l-213 264h154l180 -264h-121z" />
    <glyph glyph-name="Eacute" unicode="&#xc9;" horiz-adv-x="1204" 
d="M498 1350l-115 -537h754l-25 -117h-754l-125 -581h838l-49 -115h-936l309 1462h920l-23 -112h-794zM727 1585l272 264h166l-307 -264h-131z" />
    <glyph glyph-name="Ecircumflex" unicode="&#xca;" horiz-adv-x="1204" 
d="M498 1350l-115 -537h754l-25 -117h-754l-125 -581h838l-49 -115h-936l309 1462h920l-23 -112h-794zM584 1585l284 264h117l174 -264h-123l-121 170l-204 -170h-127z" />
    <glyph glyph-name="Edieresis" unicode="&#xcb;" horiz-adv-x="1204" 
d="M498 1350l-115 -537h754l-25 -117h-754l-125 -581h838l-49 -115h-936l309 1462h920l-23 -112h-794zM973 1628l39 178h139l-39 -178h-139zM637 1628l39 178h137l-39 -178h-137z" />
    <glyph glyph-name="Igrave" unicode="&#xcc;" horiz-adv-x="460" 
d="M86 0l309 1462h125l-309 -1462h-125zM457 1585l-213 264h153l181 -264h-121z" />
    <glyph glyph-name="Iacute" unicode="&#xcd;" horiz-adv-x="460" 
d="M86 0l309 1462h125l-309 -1462h-125zM358 1585l273 264h166l-308 -264h-131z" />
    <glyph glyph-name="Icircumflex" unicode="&#xce;" horiz-adv-x="460" 
d="M86 0l309 1462h125l-309 -1462h-125zM197 1585l284 264h117l174 -264h-123l-121 170l-204 -170h-127z" />
    <glyph glyph-name="Idieresis" unicode="&#xcf;" horiz-adv-x="460" 
d="M86 0l309 1462h125l-309 -1462h-125zM571 1628l39 178h140l-39 -178h-140zM236 1628l38 178h138l-39 -178h-137z" />
    <glyph glyph-name="Eth" unicode="&#xd0;" horiz-adv-x="1458" 
d="M580 111q354 0 541.5 206t187.5 568q0 198 -115.5 333.5t-327.5 135.5h-348l-117 -543h410l-25 -111h-407l-125 -589h326zM879 1462q250 0 405.5 -161t155.5 -420q0 -391 -223.5 -636t-655.5 -245h-455l148 700h-168l25 111h168l137 651h463z" />
    <glyph glyph-name="Ntilde" unicode="&#xd1;" horiz-adv-x="1413" 
d="M1034 0l-557 1274l-270 -1274h-121l309 1462h131l555 -1269l271 1269h121l-310 -1462h-129zM1335 1815q-33 -216 -202 -216q-87 0 -170 60q-33 23 -64 41t-73 18t-68 -28q-25 -28 -37 -88h-100q16 106 65 160t135 54t172 -58q33 -22 63 -40t74 -18t68 26q25 26 35 89h102
z" />
    <glyph glyph-name="Ograve" unicode="&#xd2;" horiz-adv-x="1548" 
d="M766 74q132 0 253 70q122 70 206 187q172 238 172 560q0 224 -117 361t-330 137q-154 0 -276 -72t-205 -187q-84 -115 -128 -262q-44 -146 -44 -276t29 -221q94 -297 440 -297zM954 1499q250 0 413 -163t163 -441q0 -170 -52 -336q-110 -351 -402 -514q-146 -82 -337 -82
q-248 0 -411 161q-164 161 -164 441q0 168 54 336q113 351 404 515q146 83 332 83zM993 1585l-213 264h154l180 -264h-121z" />
    <glyph glyph-name="Oacute" unicode="&#xd3;" horiz-adv-x="1548" 
d="M766 74q132 0 253 70q122 70 206 187q172 238 172 560q0 224 -117 361t-330 137q-154 0 -276 -72t-205 -187q-84 -115 -128 -262q-44 -146 -44 -276t29 -221q94 -297 440 -297zM954 1499q250 0 413 -163t163 -441q0 -170 -52 -336q-110 -351 -402 -514q-146 -82 -337 -82
q-248 0 -411 161q-164 161 -164 441q0 168 54 336q113 351 404 515q146 83 332 83zM840 1585l272 264h166l-307 -264h-131z" />
    <glyph glyph-name="Ocircumflex" unicode="&#xd4;" horiz-adv-x="1548" 
d="M766 74q132 0 253 70q122 70 206 187q172 238 172 560q0 224 -117 361t-330 137q-154 0 -276 -72t-205 -187q-84 -115 -128 -262q-44 -146 -44 -276t29 -221q94 -297 440 -297zM954 1499q250 0 413 -163t163 -441q0 -170 -52 -336q-110 -351 -402 -514q-146 -82 -337 -82
q-248 0 -411 161q-164 161 -164 441q0 168 54 336q113 351 404 515q146 83 332 83zM707 1585l284 264h117l174 -264h-123l-121 170l-204 -170h-127z" />
    <glyph glyph-name="Otilde" unicode="&#xd5;" horiz-adv-x="1548" 
d="M766 74q132 0 253 70q122 70 206 187q172 238 172 560q0 224 -117 361t-330 137q-154 0 -276 -72t-205 -187q-84 -115 -128 -262q-44 -146 -44 -276t29 -221q94 -297 440 -297zM954 1499q250 0 413 -163t163 -441q0 -170 -52 -336q-110 -351 -402 -514q-146 -82 -337 -82
q-248 0 -411 161q-164 161 -164 441q0 168 54 336q113 351 404 515q146 83 332 83zM1356 1815q-33 -216 -201 -216q-86 0 -172 60q-33 23 -63 41t-74 18q-43 0 -68 -28t-37 -88h-100q15 106 65 160t135 54t173 -58q32 -22 62 -40t74 -18t69 26t34 89h103z" />
    <glyph glyph-name="Odieresis" unicode="&#xd6;" horiz-adv-x="1548" 
d="M766 74q132 0 253 70q122 70 206 187q172 238 172 560q0 224 -117 361t-330 137q-154 0 -276 -72t-205 -187q-84 -115 -128 -262q-44 -146 -44 -276t29 -221q94 -297 440 -297zM954 1499q250 0 413 -163t163 -441q0 -170 -52 -336q-110 -351 -402 -514q-146 -82 -337 -82
q-248 0 -411 161q-164 161 -164 441q0 168 54 336q113 351 404 515q146 83 332 83zM1081 1628l39 178h140l-39 -178h-140zM745 1628l39 178h138l-39 -178h-138z" />
    <glyph glyph-name="multiply" unicode="&#xd7;" 
d="M260 276l-70 78l414 342l-280 348l84 68l280 -346l418 354l70 -76l-424 -356l264 -336l-86 -69l-262 338z" />
    <glyph glyph-name="Oslash" unicode="&#xd8;" horiz-adv-x="1548" 
d="M726 74q171 0 293 70.5t206 186t128 262t44 311.5t-74 288l-883 -1010q115 -108 286 -108zM297 601q0 -214 76 -335l880 1012q-115 111 -286 111t-292.5 -72t-205.5 -186.5t-128 -262t-44 -267.5zM164 565q0 168 54 336t155.5 300t248 215t351.5 83t360 -131l142 162
l84 -68l-152 -174q123 -154 123 -393q0 -170 -52.5 -336t-153.5 -299t-247.5 -215t-353.5 -82t-361 129l-137 -158l-84 68l146 168q-123 154 -123 395z" />
    <glyph glyph-name="Ugrave" unicode="&#xd9;" horiz-adv-x="1384" 
d="M658 -37q-349 0 -448 235q-34 81 -34 176t23 208l186 880h125l-188 -891q-20 -94 -21 -178q0 -159 85 -239t265 -80q219 0 326 120t164 377l188 891h125l-188 -889q-35 -162 -88 -277q-106 -230 -304 -298q-100 -34 -216 -35zM938 1585l-213 264h154l180 -264h-121z" />
    <glyph glyph-name="Uacute" unicode="&#xda;" horiz-adv-x="1384" 
d="M658 -37q-349 0 -448 235q-34 81 -34 176t23 208l186 880h125l-188 -891q-20 -94 -21 -178q0 -159 85 -239t265 -80q219 0 326 120t164 377l188 891h125l-188 -889q-35 -162 -88 -277q-106 -230 -304 -298q-100 -34 -216 -35zM799 1585l272 264h166l-307 -264h-131z" />
    <glyph glyph-name="Ucircumflex" unicode="&#xdb;" horiz-adv-x="1384" 
d="M658 -37q-349 0 -448 235q-34 81 -34 176t23 208l186 880h125l-188 -891q-20 -94 -21 -178q0 -159 85 -239t265 -80q219 0 326 120t164 377l188 891h125l-188 -889q-35 -162 -88 -277q-106 -230 -304 -298q-100 -34 -216 -35zM639 1585l285 264h116l174 -264h-122
l-121 170l-205 -170h-127z" />
    <glyph glyph-name="Udieresis" unicode="&#xdc;" horiz-adv-x="1384" 
d="M658 -37q-349 0 -448 235q-34 81 -34 176t23 208l186 880h125l-188 -891q-20 -94 -21 -178q0 -159 85 -239t265 -80q219 0 326 120t164 377l188 891h125l-188 -889q-35 -162 -88 -277q-106 -230 -304 -298q-100 -34 -216 -35zM1032 1628l39 178h139l-39 -178h-139z
M696 1628l39 178h137l-38 -178h-138z" />
    <glyph glyph-name="Yacute" unicode="&#xdd;" horiz-adv-x="1204" 
d="M258 1462h135l279 -723l585 723h144l-682 -829l-133 -633h-125l133 633zM707 1585l272 264h166l-307 -264h-131z" />
    <glyph glyph-name="Thorn" unicode="&#xde;" horiz-adv-x="1267" 
d="M1126 823q0 246 -348 246h-344l-137 -653h344q236 0 360.5 92t124.5 315zM1255 821q0 -260 -169 -387t-463 -127h-351l-63 -307h-123l309 1462h123l-59 -284h340q236 0 346 -105.5t110 -251.5z" />
    <glyph glyph-name="germandbls" unicode="&#xdf;" horiz-adv-x="1148" 
d="M956 446q0 135 -84 210t-239 75h-121l23 105h90q245 0 303.5 117.5t58.5 205.5t-55 154.5t-190 66.5t-216.5 -74.5t-115.5 -242.5l-226 -1063h-118l229 1087q41 193 150.5 292.5t293.5 99.5t276.5 -90t92.5 -226q0 -276 -285 -372q177 -49 217.5 -160t40.5 -195
t-26.5 -173t-116.5 -188.5t-342 -99.5q-156 0 -258 56l41 96q96 -49 210 -49q201 0 284 95t83 273z" />
    <glyph glyph-name="agrave" unicode="&#xe0;" horiz-adv-x="1075" 
d="M178 254q0 -70 45 -121t180 -51t222 58t130 114q43 55 62 152l33 155l-197 -8q-266 -12 -371 -80q-104 -68 -104 -219zM51 244q0 120 45 192q88 142 318 185q111 20 241 26l213 8l4 21l8 52t5 48q1 92 -53 152t-198 59q-144 0 -212 -38t-109 -142l-110 18q49 143 156 203
q108 59 291 59q184 0 270 -85t86 -226q0 -42 -15 -119l-139 -657h-119l31 150q-72 -72 -166 -123t-232 -51t-227 74q-88 75 -88 194zM705 1208l-216 275h152l182 -275h-118z" />
    <glyph glyph-name="aacute" unicode="&#xe1;" horiz-adv-x="1075" 
d="M178 254q0 -70 45 -121t180 -51t222 58t130 114q43 55 62 152l33 155l-197 -8q-266 -12 -371 -80q-104 -68 -104 -219zM51 244q0 120 45 192q88 142 318 185q111 20 241 26l213 8l4 21l8 52t5 48q1 92 -53 152t-198 59q-144 0 -212 -38t-109 -142l-110 18q49 143 156 203
q108 59 291 59q184 0 270 -85t86 -226q0 -42 -15 -119l-139 -657h-119l31 150q-72 -72 -166 -123t-232 -51t-227 74q-88 75 -88 194zM543 1208l272 275h168l-305 -275h-135z" />
    <glyph glyph-name="acircumflex" unicode="&#xe2;" horiz-adv-x="1075" 
d="M178 254q0 -70 45 -121t180 -51t222 58t130 114q43 55 62 152l33 155l-197 -8q-266 -12 -371 -80q-104 -68 -104 -219zM51 244q0 120 45 192q88 142 318 185q111 20 241 26l213 8l4 21l8 52t5 48q1 92 -53 152t-198 59q-144 0 -212 -38t-109 -142l-110 18q49 143 156 203
q108 59 291 59q184 0 270 -85t86 -226q0 -42 -15 -119l-139 -657h-119l31 150q-72 -72 -166 -123t-232 -51t-227 74q-88 75 -88 194zM373 1208l289 275h116l172 -275h-116l-125 185l-211 -185h-125z" />
    <glyph glyph-name="atilde" unicode="&#xe3;" horiz-adv-x="1075" 
d="M178 254q0 -70 45 -121t180 -51t222 58t130 114q43 55 62 152l33 155l-197 -8q-266 -12 -371 -80q-104 -68 -104 -219zM51 244q0 120 45 192q88 142 318 185q111 20 241 26l213 8l4 21l8 52t5 48q1 92 -53 152t-198 59q-144 0 -212 -38t-109 -142l-110 18q49 143 156 203
q108 59 291 59q184 0 270 -85t86 -226q0 -42 -15 -119l-139 -657h-119l31 150q-72 -72 -166 -123t-232 -51t-227 74q-88 75 -88 194zM1034 1450q-33 -213 -195 -213q-84 0 -166 58q-32 22 -62 40q-31 19 -73 19q-81 1 -100 -113h-98q16 105 63 159t132 54t166 -58
q32 -22 62 -40q31 -18 73 -18q81 -1 100 112h98z" />
    <glyph glyph-name="adieresis" unicode="&#xe4;" horiz-adv-x="1075" 
d="M178 254q0 -70 45 -121t180 -51t222 58t130 114q43 55 62 152l33 155l-197 -8q-266 -12 -371 -80q-104 -68 -104 -219zM51 244q0 120 45 192q88 142 318 185q111 20 241 26l213 8l4 21l8 52t5 48q1 92 -53 152t-198 59q-144 0 -212 -38t-109 -142l-110 18q49 143 156 203
q108 59 291 59q184 0 270 -85t86 -226q0 -42 -15 -119l-139 -657h-119l31 150q-72 -72 -166 -123t-232 -51t-227 74q-88 75 -88 194zM772 1268l37 174h135l-37 -174h-135zM444 1268l37 174h133l-36 -174h-134z" />
    <glyph glyph-name="aring" unicode="&#xe5;" horiz-adv-x="1075" 
d="M178 254q0 -70 45 -121t180 -51t222 58t130 114q43 55 62 152l33 155l-197 -8q-266 -12 -371 -80q-104 -68 -104 -219zM51 244q0 120 45 192q88 142 318 185q111 20 241 26l213 8l4 21l8 52t5 48q1 92 -53 152t-198 59q-144 0 -212 -38t-109 -142l-110 18q49 143 156 203
q108 59 291 59q184 0 270 -85t86 -226q0 -42 -15 -119l-139 -657h-119l31 150q-72 -72 -166 -123t-232 -51t-227 74q-88 75 -88 194zM582 1399q0 -57 28 -85t74 -28q47 0 75 28t27 85q0 57 -27 85q-28 28 -75 27q-102 0 -102 -112zM492 1399q0 96 57 145t135 49
q129 0 178 -110q16 -37 16 -85t-16 -84q-48 -104 -178 -108q-78 0 -135 48t-57 145z" />
    <glyph glyph-name="ae" unicode="&#xe6;" horiz-adv-x="1822" 
d="M1647 694q0 133 -69.5 215t-221.5 82t-258.5 -102.5t-145.5 -288.5h688q7 31 7 94zM370 82q177 0 254 55t116.5 112.5t60.5 156.5l33 155l-205 -8q-253 -12 -352 -80t-99 -219q0 -70 46 -121t146 -51zM958 887q154 200 394 200q213 0 311 -111.5t98 -291.5
q0 -96 -10 -154l-6 -32h-809q-2 -20 -2 -25v-81q0 -48 18.5 -111.5t81 -139t221.5 -75.5q203 0 251 82.5t65 127.5h117q-57 -155 -153 -232t-288 -77q-242 0 -314.5 106.5t-90.5 155.5q-96 -139 -207 -196.5t-259 -57.5t-236.5 75.5t-88.5 194.5q0 118 44 190.5t150.5 135
t385.5 76.5l221 8l4 21q42 215 -52.5 263t-170.5 48q-144 0 -210 -36.5t-110 -143.5l-110 18q49 143 156 202.5t255 59.5q288 0 344 -200z" />
    <glyph glyph-name="ccedilla" unicode="&#xe7;" horiz-adv-x="1134" 
d="M569 -246q0 70 -149 70h-25l82 147q-172 20 -265 140.5t-93 289.5q0 318 169.5 502t411.5 184q190 0 282 -98t108 -252l-113 -22q-15 120 -55.5 170.5t-92 75t-142.5 24.5t-174 -42t-174 -156t-91 -365t111.5 -301.5t192.5 -50.5q149 0 231 69t124 193h121
q-47 -154 -157.5 -255.5t-301.5 -109.5l-41 -73q88 -14 122 -53.5t34 -80.5q0 -100 -71.5 -138t-156.5 -38t-147 15l21 90q63 -13 115 -13q124 0 124 78z" />
    <glyph glyph-name="egrave" unicode="&#xe8;" horiz-adv-x="1146" 
d="M971 692q0 208 -163 277q-54 22 -128 22q-162 0 -272 -102t-148 -289h705q6 27 6 92zM242 458v-66q0 -48 19 -111t59 -111q91 -106 249 -104q207 0 285 127q25 39 41 83h117q-55 -149 -157 -229t-303 -80q-200 0 -318 131q-117 131 -116 307q2 329 165 506
q163 176 407 176q191 0 294 -114t101 -289q0 -96 -10 -154l-6 -32h-825q-2 -20 -2 -40zM739 1208l-215 275h152l182 -275h-119z" />
    <glyph glyph-name="eacute" unicode="&#xe9;" horiz-adv-x="1146" 
d="M971 692q0 208 -163 277q-54 22 -128 22q-162 0 -272 -102t-148 -289h705q6 27 6 92zM242 458v-66q0 -48 19 -111t59 -111q91 -106 249 -104q207 0 285 127q25 39 41 83h117q-55 -149 -157 -229t-303 -80q-200 0 -318 131q-117 131 -116 307q2 329 165 506
q163 176 407 176q191 0 294 -114t101 -289q0 -96 -10 -154l-6 -32h-825q-2 -20 -2 -40zM578 1208l272 275h168l-305 -275h-135z" />
    <glyph glyph-name="ecircumflex" unicode="&#xea;" horiz-adv-x="1146" 
d="M971 692q0 208 -163 277q-54 22 -128 22q-162 0 -272 -102t-148 -289h705q6 27 6 92zM242 458v-66q0 -48 19 -111t59 -111q91 -106 249 -104q207 0 285 127q25 39 41 83h117q-55 -149 -157 -229t-303 -80q-200 0 -318 131q-117 131 -116 307q2 329 165 506
q163 176 407 176q191 0 294 -114t101 -289q0 -96 -10 -154l-6 -32h-825q-2 -20 -2 -40zM422 1208l289 275h116l172 -275h-116l-125 185l-211 -185h-125z" />
    <glyph glyph-name="edieresis" unicode="&#xeb;" horiz-adv-x="1146" 
d="M971 692q0 208 -163 277q-54 22 -128 22q-162 0 -272 -102t-148 -289h705q6 27 6 92zM242 458v-66q0 -48 19 -111t59 -111q91 -106 249 -104q207 0 285 127q25 39 41 83h117q-55 -149 -157 -229t-303 -80q-200 0 -318 131q-117 131 -116 307q2 329 165 506
q163 176 407 176q191 0 294 -114t101 -289q0 -96 -10 -154l-6 -32h-825q-2 -20 -2 -40zM809 1268l37 174h135l-37 -174h-135zM481 1268l37 174h133l-37 -174h-133z" />
    <glyph glyph-name="igrave" unicode="&#xec;" horiz-adv-x="417" 
d="M68 0l223 1055h119l-224 -1055h-118zM313 1208l-215 275h152l182 -275h-119z" />
    <glyph glyph-name="iacute" unicode="&#xed;" horiz-adv-x="417" 
d="M68 0l223 1055h119l-224 -1055h-118zM270 1208l273 275h168l-305 -275h-136z" />
    <glyph glyph-name="icircumflex" unicode="&#xee;" horiz-adv-x="417" 
d="M68 0l223 1055h119l-224 -1055h-118zM66 1208l288 275h117l172 -275h-117l-125 185l-211 -185h-124z" />
    <glyph glyph-name="idieresis" unicode="&#xef;" horiz-adv-x="417" 
d="M68 0l223 1055h119l-224 -1055h-118zM463 1268l37 174h135l-37 -174h-135zM135 1268l37 174h133l-37 -174h-133z" />
    <glyph glyph-name="eth" unicode="&#xf0;" horiz-adv-x="1214" 
d="M1022 598q0 134 -93 220q-93 85 -247 85q-194 0 -314 -152t-120 -356q0 -139 84.5 -232t244.5 -93q90 0 174.5 41t177.5 150.5t93 336.5zM1149 649q0 -305 -169.5 -493.5t-424.5 -188.5q-190 0 -312 118.5t-122 299.5q0 260 165.5 440.5t405.5 180.5q195 0 316 -134
q-27 265 -199 392l-160 -140l-65 70l139 121q-111 53 -254 67l23 101q173 -18 317 -92l170 147l65 -72l-151 -131q256 -199 256 -686z" />
    <glyph glyph-name="ntilde" unicode="&#xf1;" horiz-adv-x="1142" 
d="M954 768q0 96 -44 154t-166 59q-122 0 -255 -100q-65 -53 -113 -109t-69 -154l-131 -618h-119l224 1055h118l-37 -172q187 204 412 204q147 1 224 -79t77 -222q0 -53 -12 -110l-143 -676h-119l139 653q14 68 14 115zM1130 1450q-33 -213 -193 -213q-83 0 -168 58
q-31 22 -61 40q-30 19 -73 19q-83 1 -100 -113h-99q16 105 64 159t130 54q83 0 168 -58q32 -22 62 -40t72 -18t66 26q24 27 34 86h98z" />
    <glyph glyph-name="ograve" unicode="&#xf2;" horiz-adv-x="1214" 
d="M554 -33q-202 0 -322 123q-119 123 -117 316q0 306 175 494q175 187 433 187q185 0 303 -122q117 -122 117 -298t-47 -301q-94 -256 -320 -352q-112 -48 -222 -47zM545 70q208 0 340 163q131 163 131 406q0 154 -77 250t-226 96q-211 0 -342 -165t-129 -404
q0 -154 76 -250t227 -96zM752 1208l-215 275h151l182 -275h-118z" />
    <glyph glyph-name="oacute" unicode="&#xf3;" horiz-adv-x="1214" 
d="M554 -33q-202 0 -322 123q-119 123 -117 316q0 306 175 494q175 187 433 187q185 0 303 -122q117 -122 117 -298t-47 -301q-94 -256 -320 -352q-112 -48 -222 -47zM545 70q208 0 340 163q131 163 131 406q0 154 -77 250t-226 96q-211 0 -342 -165t-129 -404
q0 -154 76 -250t227 -96zM631 1208l272 275h168l-305 -275h-135z" />
    <glyph glyph-name="ocircumflex" unicode="&#xf4;" horiz-adv-x="1214" 
d="M554 -33q-202 0 -322 123q-119 123 -117 316q0 306 175 494q175 187 433 187q185 0 303 -122q117 -122 117 -298t-47 -301q-94 -256 -320 -352q-112 -48 -222 -47zM545 70q208 0 340 163q131 163 131 406q0 154 -77 250t-226 96q-211 0 -342 -165t-129 -404
q0 -154 76 -250t227 -96zM451 1208l288 275h117l172 -275h-117l-125 185l-211 -185h-124z" />
    <glyph glyph-name="otilde" unicode="&#xf5;" horiz-adv-x="1214" 
d="M554 -33q-202 0 -322 123q-119 123 -117 316q0 306 175 494q175 187 433 187q185 0 303 -122q117 -122 117 -298t-47 -301q-94 -256 -320 -352q-112 -48 -222 -47zM545 70q208 0 340 163q131 163 131 406q0 154 -77 250t-226 96q-211 0 -342 -165t-129 -404
q0 -154 76 -250t227 -96zM1116 1450q-33 -213 -195 -213q-84 0 -166 58q-32 22 -62 40q-31 19 -73 19q-81 1 -100 -113h-98q16 105 63 159t132 54t166 -58q32 -22 62 -40q31 -18 73 -18q81 -1 100 112h98z" />
    <glyph glyph-name="odieresis" unicode="&#xf6;" horiz-adv-x="1214" 
d="M554 -33q-202 0 -322 123q-119 123 -117 316q0 306 175 494q175 187 433 187q185 0 303 -122q117 -122 117 -298t-47 -301q-94 -256 -320 -352q-112 -48 -222 -47zM545 70q208 0 340 163q131 163 131 406q0 154 -77 250t-226 96q-211 0 -342 -165t-129 -404
q0 -154 76 -250t227 -96zM848 1268l37 174h135l-37 -174h-135zM520 1268l37 174h133l-37 -174h-133z" />
    <glyph glyph-name="divide" unicode="&#xf7;" 
d="M219 641l25 113h880l-24 -113h-881zM500 236l37 176h145l-37 -176h-145zM657 981l39 176h146l-39 -176h-146z" />
    <glyph glyph-name="oslash" unicode="&#xf8;" horiz-adv-x="1214" 
d="M546 70q214 0 345 163t131 406q0 113 -45 199l-617 -709q76 -59 186 -59zM248 416q0 -121 47 -209l618 713q-78 65 -189 65q-216 0 -346 -163t-130 -406zM1149 654q0 -310 -170.5 -498.5t-437.5 -188.5q-144 0 -252 78l-117 -133l-78 63l121 140q-94 115 -94 282
q0 315 175 502.5t433 187.5q148 0 258 -83l117 133l78 -64l-123 -141q90 -115 90 -278z" />
    <glyph glyph-name="ugrave" unicode="&#xf9;" horiz-adv-x="1120" 
d="M121 264q0 59 12 115l143 676h119l-141 -664q-10 -62 -10 -115q0 -202 188 -202t365 210q47 56 67 152l131 619h119l-223 -1055h-119l37 172q-181 -205 -395 -205q-142 0 -223 85q-70 78 -70 212zM684 1208l-215 275h152l182 -275h-119z" />
    <glyph glyph-name="uacute" unicode="&#xfa;" horiz-adv-x="1120" 
d="M121 264q0 59 12 115l143 676h119l-141 -664q-10 -62 -10 -115q0 -202 188 -202t365 210q47 56 67 152l131 619h119l-223 -1055h-119l37 172q-181 -205 -395 -205q-142 0 -223 85q-70 78 -70 212zM582 1208l272 275h168l-305 -275h-135z" />
    <glyph glyph-name="ucircumflex" unicode="&#xfb;" horiz-adv-x="1120" 
d="M121 264q0 59 12 115l143 676h119l-141 -664q-10 -62 -10 -115q0 -202 188 -202t365 210q47 56 67 152l131 619h119l-223 -1055h-119l37 172q-181 -205 -395 -205q-142 0 -223 85q-70 78 -70 212zM410 1208l288 275h117l172 -275h-117l-125 185l-210 -185h-125z" />
    <glyph glyph-name="udieresis" unicode="&#xfc;" horiz-adv-x="1120" 
d="M121 264q0 59 12 115l143 676h119l-141 -664q-10 -62 -10 -115q0 -202 188 -202t365 210q47 56 67 152l131 619h119l-223 -1055h-119l37 172q-181 -205 -395 -205q-142 0 -223 85q-70 78 -70 212zM803 1268l37 174h135l-37 -174h-135zM475 1268l37 174h133l-37 -174h-133
z" />
    <glyph glyph-name="yacute" unicode="&#xfd;" horiz-adv-x="1019" 
d="M-10 -270q52 -23 109 -23t92 32t106 150l76 125l-232 1041h129l193 -905l532 905h142l-734 -1194q-39 -59 -71 -107q-66 -101 -137 -134q-39 -17 -111 -17t-133 30zM502 1208l272 275h168l-305 -275h-135z" />
    <glyph glyph-name="thorn" unicode="&#xfe;" horiz-adv-x="1193" 
d="M1006 639q0 174 -69 260t-191 86q-122 -1 -215 -63t-150 -143t-84 -206l-18 -88q-38 -169 -6 -236t77 -108q83 -71 229 -71q84 0 165 46t171.5 167.5t90.5 355.5zM371 897q169 190 376 190q206 0 296 -127.5t90 -314.5q0 -264 -110 -409.5t-217.5 -207t-229.5 -61.5
q-254 0 -363 195l-119 -559h-119l396 1859h118z" />
    <glyph glyph-name="ydieresis" unicode="&#xff;" horiz-adv-x="1019" 
d="M-10 -270q52 -23 109 -23t92 32t106 150l76 125l-232 1041h129l193 -905l532 905h142l-734 -1194q-39 -59 -71 -107q-66 -101 -137 -134q-39 -17 -111 -17t-133 30zM739 1268l37 174h135l-37 -174h-135zM412 1268l37 174h133l-37 -174h-133z" />
    <glyph glyph-name="Amacron" unicode="&#x100;" horiz-adv-x="1353" 
d="M418 561h598l-139 764zM831 1462h148l268 -1462h-129l-82 446h-688l-268 -446h-137zM631 1634l22 109h578l-23 -109h-577z" />
    <glyph glyph-name="amacron" unicode="&#x101;" horiz-adv-x="1075" 
d="M178 254q0 -70 45 -121t180 -51t222 58t130 114q43 55 62 152l33 155l-197 -8q-266 -12 -371 -80q-104 -68 -104 -219zM51 244q0 120 45 192q88 142 318 185q111 20 241 26l213 8l4 21l8 52t5 48q1 92 -53 152t-198 59q-144 0 -212 -38t-109 -142l-110 18q49 143 156 203
q108 59 291 59q184 0 270 -85t86 -226q0 -42 -15 -119l-139 -657h-119l31 150q-72 -72 -166 -123t-232 -51t-227 74q-88 75 -88 194zM446 1389h500l-22 -105h-500z" />
    <glyph glyph-name="Abreve" unicode="&#x102;" horiz-adv-x="1353" 
d="M418 561h598l-139 764zM831 1462h148l268 -1462h-129l-82 446h-688l-268 -446h-137zM979 1675q165 0 195 174h98q-26 -141 -100 -203t-188 -61q-114 0 -174 52t-60 151q0 27 6 61h98q-6 -29 -6 -49q0 -125 131 -125z" />
    <glyph glyph-name="abreve" unicode="&#x103;" horiz-adv-x="1075" 
d="M178 254q0 -70 45 -121t180 -51t222 58t130 114q43 55 62 152l33 155l-197 -8q-266 -12 -371 -80q-104 -68 -104 -219zM51 244q0 120 45 192q88 142 318 185q111 20 241 26l213 8l4 21l8 52t5 48q1 92 -53 152t-198 59q-144 0 -212 -38t-109 -142l-110 18q49 143 156 203
q108 59 291 59q184 0 270 -85t86 -226q0 -42 -15 -119l-139 -657h-119l31 150q-72 -72 -166 -123t-232 -51t-227 74q-88 75 -88 194zM985 1475q-51 -269 -287 -269q-114 0 -174 54t-61 153q0 27 6 62h98q-6 -29 -6 -50q0 -67 36 -99t95 -32q164 0 195 181h98z" />
    <glyph glyph-name="Aogonek" unicode="&#x104;" horiz-adv-x="1353" 
d="M418 561h598l-139 764zM1171 -264q26 0 52 4l-23 -98q-24 -4 -82 -4t-103.5 38.5t-45.5 132.5t153 191h-4l-82 446h-688l-268 -446h-137l888 1462h148l268 -1462q-158 -109 -157 -193q0 -71 81 -71z" />
    <glyph glyph-name="aogonek" unicode="&#x105;" horiz-adv-x="1075" 
d="M178 254q0 -70 45 -121t179 -51t223 60q90 60 131.5 115.5t60.5 148.5l33 155l-197 -8q-266 -12 -370.5 -79.5t-104.5 -219.5zM696 -186q0 -70 80 -70q29 0 49 4l-20 -96q-24 -4 -81 -4t-100.5 38t-43.5 126.5t153 187.5l31 150q-72 -72 -166 -123.5t-232 -51.5
t-226.5 75t-88.5 194t45 191.5t155.5 135.5t403.5 76l213 8l4 21q4 27 8.5 52.5t4.5 47.5q0 92 -53.5 151.5t-196.5 59.5t-211 -37.5t-111 -142.5l-110 18q49 143 156.5 202.5t290.5 59.5t269.5 -84.5t86.5 -226.5q0 -42 -15 -119l-139 -657h-2q-154 -105 -154 -186z" />
    <glyph glyph-name="Cacute" unicode="&#x106;" horiz-adv-x="1452" 
d="M740 -37q-130 0 -234 41q-215 85 -301 306q-43 112 -43 276t52 334q107 352 396 503q143 76 328 76q229 0 359 -124t153 -349l-125 -25q-27 199 -119 294t-258 95q-302 1 -476 -234q-175 -235 -175 -581q0 -213 115 -357t327 -144q301 0 431 224q40 69 59 151h137
q-84 -343 -391 -449q-105 -36 -235 -37zM850 1585l272 264h166l-307 -264h-131z" />
    <glyph glyph-name="cacute" unicode="&#x107;" horiz-adv-x="1134" 
d="M248 444q0 -98 16 -162q33 -132 149 -186q58 -26 139 -26q219 1 309 160q28 48 46 102h121q-54 -173 -166 -261q-128 -104 -323 -104t-309 124t-112 302q2 327 171 510q169 184 411 184q278 0 360 -219q24 -63 30 -131l-113 -22q-15 120 -56 171q-41 50 -92 75t-142 25
t-174 -43q-83 -42 -142 -117t-91 -179q-32 -105 -32 -203zM602 1208l272 275h168l-305 -275h-135z" />
    <glyph glyph-name="Ccircumflex" unicode="&#x108;" horiz-adv-x="1452" 
d="M740 -37q-130 0 -234 41q-215 85 -301 306q-43 112 -43 276t52 334q107 352 396 503q143 76 328 76q229 0 359 -124t153 -349l-125 -25q-27 199 -119 294t-258 95q-302 1 -476 -234q-175 -235 -175 -581q0 -213 115 -357t327 -144q301 0 431 224q40 69 59 151h137
q-84 -343 -391 -449q-105 -36 -235 -37zM666 1585l284 264h117l174 -264h-123l-121 170l-204 -170h-127z" />
    <glyph glyph-name="ccircumflex" unicode="&#x109;" horiz-adv-x="1134" 
d="M248 444q0 -98 16 -162q33 -132 149 -186q58 -26 139 -26q219 1 309 160q28 48 46 102h121q-54 -173 -166 -261q-128 -104 -323 -104t-309 124t-112 302q2 327 171 510q169 184 411 184q278 0 360 -219q24 -63 30 -131l-113 -22q-15 120 -56 171q-41 50 -92 75t-142 25
t-174 -43q-83 -42 -142 -117t-91 -179q-32 -105 -32 -203zM442 1208l289 275h117l172 -275h-117l-125 185l-211 -185h-125z" />
    <glyph glyph-name="Cdotaccent" unicode="&#x10a;" horiz-adv-x="1452" 
d="M740 -37q-130 0 -234 41q-215 85 -301 306q-43 112 -43 276t52 334q107 352 396 503q143 76 328 76q229 0 359 -124t153 -349l-125 -25q-27 199 -119 294t-258 95q-302 1 -476 -234q-175 -235 -175 -581q0 -213 115 -357t327 -144q301 0 431 224q40 69 59 151h137
q-84 -343 -391 -449q-105 -36 -235 -37zM899 1626l39 182h139l-39 -182h-139z" />
    <glyph glyph-name="cdotaccent" unicode="&#x10b;" horiz-adv-x="1134" 
d="M248 444q0 -98 16 -162q33 -132 149 -186q58 -26 139 -26q219 1 309 160q28 48 46 102h121q-54 -173 -166 -261q-128 -104 -323 -104t-309 124t-112 302q2 327 171 510q169 184 411 184q278 0 360 -219q24 -63 30 -131l-113 -22q-15 120 -56 171q-41 50 -92 75t-142 25
t-174 -43q-83 -42 -142 -117t-91 -179q-32 -105 -32 -203zM659 1266l37 178h135l-36 -178h-136z" />
    <glyph glyph-name="Ccaron" unicode="&#x10c;" horiz-adv-x="1452" 
d="M740 -37q-130 0 -234 41q-215 85 -301 306q-43 112 -43 276t52 334q107 352 396 503q143 76 328 76q229 0 359 -124t153 -349l-125 -25q-27 199 -119 294t-258 95q-302 1 -476 -234q-175 -235 -175 -581q0 -213 115 -357t327 -144q301 0 431 224q40 69 59 151h137
q-84 -343 -391 -449q-105 -36 -235 -37zM1305 1855l-285 -264h-117l-174 264h123l121 -169l205 169h127z" />
    <glyph glyph-name="ccaron" unicode="&#x10d;" horiz-adv-x="1134" 
d="M248 444q0 -98 16 -162q33 -132 149 -186q58 -26 139 -26q219 1 309 160q28 48 46 102h121q-54 -173 -166 -261q-128 -104 -323 -104t-309 124t-112 302q2 327 171 510q169 184 411 184q278 0 360 -219q24 -63 30 -131l-113 -22q-15 120 -56 171q-41 50 -92 75t-142 25
t-174 -43q-83 -42 -142 -117t-91 -179q-32 -105 -32 -203zM1079 1487l-288 -275h-117l-172 275h116l125 -184l211 184h125z" />
    <glyph glyph-name="Dcaron" unicode="&#x10e;" horiz-adv-x="1437" 
d="M559 111q356 0 542 206q187 206 187 568q0 200 -115 334q-115 135 -327 135h-348l-265 -1243h326zM858 1462q251 0 406 -161t155 -420q0 -392 -213 -625q-234 -256 -665 -256h-455l309 1462h463zM1174 1855l-285 -264h-117l-174 264h123l121 -169l205 169h127z" />
    <glyph glyph-name="dcaron" unicode="&#x10f;" horiz-adv-x="1189" 
d="M989 715q0 120 -87 195t-202 75q-114 0 -195 -45q-161 -90 -230 -304q-32 -103 -31 -220q0 -168 74 -257t199 -89q126 0 212 60q173 121 223 351l19 88q18 82 18 146zM117 412q0 122 38 242q80 253 289 373q106 60 229 60q253 0 363 -196l121 571h119l-311 -1462h-119
l33 158q-152 -191 -361 -191t-314 143q-87 117 -87 302zM1327 1090l129 372h129l-155 -372h-103z" />
    <glyph glyph-name="Dcroat" unicode="&#x110;" horiz-adv-x="1458" 
d="M580 111q355 0 542 207t187 567q0 199 -115 334t-328 135h-348l-117 -543h410l-25 -111h-407l-125 -589h326zM879 1462q250 0 406 -162q155 -162 155 -419q0 -392 -213 -625q-234 -256 -666 -256h-455l148 700h-168l25 111h168l137 651h463z" />
    <glyph glyph-name="dcroat" unicode="&#x111;" 
d="M983 680q0 118 -84 192q-84 72 -199 72q-205 0 -330.5 -165.5t-125.5 -383.5q0 -150 73.5 -237.5t198.5 -87.5t210 64t142.5 138t79.5 189l15 67q20 88 20 152zM117 397q0 113 39 228.5t112.5 209t180.5 153t227 59.5q243 0 352 -195l74 350h-361l23 103h358l35 157h119
l-35 -157h145l-22 -103h-143l-256 -1202h-119l33 158q-170 -191 -370 -191t-296 130.5t-96 299.5z" />
    <glyph glyph-name="Emacron" unicode="&#x112;" horiz-adv-x="1204" 
d="M498 1350l-115 -537h754l-25 -117h-754l-125 -581h838l-49 -115h-936l309 1462h920l-23 -112h-794zM588 1634l22 109h578l-23 -109h-577z" />
    <glyph glyph-name="emacron" unicode="&#x113;" horiz-adv-x="1146" 
d="M971 692q0 208 -163 277q-54 22 -128 22q-162 0 -272 -102t-148 -289h705q6 27 6 92zM242 458v-66q0 -48 19 -111t59 -111q91 -106 249 -104q207 0 285 127q25 39 41 83h117q-55 -149 -157 -229t-303 -80q-200 0 -318 131q-117 131 -116 307q2 329 165 506
q163 176 407 176q191 0 294 -114t101 -289q0 -96 -10 -154l-6 -32h-825q-2 -20 -2 -40zM481 1389h500l-23 -105h-499z" />
    <glyph glyph-name="Ebreve" unicode="&#x114;" horiz-adv-x="1204" 
d="M498 1350l-115 -537h754l-25 -117h-754l-125 -581h838l-49 -115h-936l309 1462h920l-23 -112h-794zM926 1675q166 0 194 174h99q-27 -141 -101 -203t-186 -61q-114 0 -175 52q-60 52 -61 151q0 27 6 61h99q-6 -29 -6 -49q0 -125 131 -125z" />
    <glyph glyph-name="ebreve" unicode="&#x115;" horiz-adv-x="1146" 
d="M971 692q0 208 -163 277q-54 22 -128 22q-162 0 -272 -102t-148 -289h705q6 27 6 92zM242 458v-66q0 -48 19 -111t59 -111q91 -106 249 -104q207 0 285 127q25 39 41 83h117q-55 -149 -157 -229t-303 -80q-200 0 -318 131q-117 131 -116 307q2 329 165 506
q163 176 407 176q191 0 294 -114t101 -289q0 -96 -10 -154l-6 -32h-825q-2 -20 -2 -40zM1016 1475q-52 -269 -288 -269q-114 0 -174 54t-60 153q0 27 6 62h98q-6 -29 -6 -50q0 -67 36 -99t95 -32q164 0 195 181h98z" />
    <glyph glyph-name="Edotaccent" unicode="&#x116;" horiz-adv-x="1204" 
d="M498 1350l-115 -537h754l-25 -117h-754l-125 -581h838l-49 -115h-936l309 1462h920l-23 -112h-794zM805 1626l39 182h139l-39 -182h-139z" />
    <glyph glyph-name="edotaccent" unicode="&#x117;" horiz-adv-x="1146" 
d="M971 692q0 208 -163 277q-54 22 -128 22q-162 0 -272 -102t-148 -289h705q6 27 6 92zM242 458v-66q0 -48 19 -111t59 -111q91 -106 249 -104q207 0 285 127q25 39 41 83h117q-55 -149 -157 -229t-303 -80q-200 0 -318 131q-117 131 -116 307q2 329 165 506
q163 176 407 176q191 0 294 -114t101 -289q0 -96 -10 -154l-6 -32h-825q-2 -20 -2 -40zM651 1266l37 178h135l-37 -178h-135z" />
    <glyph glyph-name="Eogonek" unicode="&#x118;" horiz-adv-x="1204" 
d="M864 -193q0 -71 82 -71q27 0 51 4l-22 -98q-24 -4 -82 -4t-104 38.5t-46 132.5t154 191h-811l309 1462h920l-23 -112h-794l-115 -537h754l-25 -117h-754l-125 -581h838l-49 -115q-158 -109 -158 -193z" />
    <glyph glyph-name="eogonek" unicode="&#x119;" horiz-adv-x="1146" 
d="M971 692q0 136 -75.5 217.5t-226.5 81.5t-260.5 -102.5t-148.5 -288.5h705q6 27 6 92zM496 -221q0 105 108 190q-10 -2 -13 -2h-30q-210 0 -326 130.5t-116 306.5q0 327 163.5 505t407.5 178q191 0 293 -113.5t102 -289.5q0 -96 -10 -154l-6 -32h-825q-2 -20 -2 -25v-57
q0 -238 120.5 -294t201.5 -56q147 0 221.5 55.5t109.5 154.5h117q-35 -98 -91.5 -169.5t-156.5 -106.5q-152 -106 -152 -186q0 -70 80 -70q29 0 49 4l-20 -96q-24 -4 -81 -4q-56 0 -100 38t-44 93z" />
    <glyph glyph-name="Ecaron" unicode="&#x11a;" horiz-adv-x="1204" 
d="M498 1350l-115 -537h754l-25 -117h-754l-125 -581h838l-49 -115h-936l309 1462h920l-23 -112h-794zM1212 1855l-284 -264h-117l-174 264h123l121 -169l204 169h127z" />
    <glyph glyph-name="ecaron" unicode="&#x11b;" horiz-adv-x="1146" 
d="M971 692q0 208 -163 277q-54 22 -128 22q-162 0 -272 -102t-148 -289h705q6 27 6 92zM242 458v-66q0 -48 19 -111t59 -111q91 -106 249 -104q207 0 285 127q25 39 41 83h117q-55 -149 -157 -229t-303 -80q-200 0 -318 131q-117 131 -116 307q2 329 165 506
q163 176 407 176q191 0 294 -114t101 -289q0 -96 -10 -154l-6 -32h-825q-2 -20 -2 -40zM1059 1487l-289 -275h-117l-172 275h117l125 -184l211 184h125z" />
    <glyph glyph-name="Gcircumflex" unicode="&#x11c;" horiz-adv-x="1456" 
d="M933 1391q-157 0 -276 -69q-119 -68 -199 -182q-162 -229 -163 -565q0 -211 115 -356t334 -145q218 0 361 86q38 23 66 43l89 407h-420l24 113h539l-123 -578q-133 -118 -367 -164q-378 -75 -594 147q-159 165 -159 435q0 178 50 346q105 353 393 510q146 80 342 80
t329 -100t172 -299l-121 -27q-31 160 -133 239t-259 79zM666 1585l284 264h117l174 -264h-123l-121 170l-204 -170h-127z" />
    <glyph glyph-name="gcircumflex" unicode="&#x11d;" horiz-adv-x="1187" 
d="M254 440q0 -154 70 -238t201 -83q131 0 224 62t139 138t73 201l10 49q18 82 18 147q0 119 -87 194t-232 75q-84 0 -164 -45t-135 -121q-117 -162 -117 -379zM127 438q0 115 37 231q79 247 286 360q106 58 226 58q250 0 360 -196l35 164h119l-217 -1016
q-49 -227 -169 -343t-355 -116q-280 0 -373 163q-33 58 -35 142h113q16 -112 80 -158t226 -46q163 0 258 85t138 285l31 144q-139 -179 -383 -179q-192 0 -293 137q-84 112 -84 285zM449 1208l288 275h117l172 -275h-117l-125 185l-211 -185h-124z" />
    <glyph glyph-name="Gbreve" unicode="&#x11e;" horiz-adv-x="1456" 
d="M933 1391q-157 0 -276 -69q-119 -68 -199 -182q-162 -229 -163 -565q0 -211 115 -356t334 -145q218 0 361 86q38 23 66 43l89 407h-420l24 113h539l-123 -578q-133 -118 -367 -164q-378 -75 -594 147q-159 165 -159 435q0 178 50 346q105 353 393 510q146 80 342 80
t329 -100t172 -299l-121 -27q-31 160 -133 239t-259 79zM1012 1675q166 0 194 174h99q-27 -141 -101 -203t-186 -61q-114 0 -175 52q-60 52 -61 151q0 27 6 61h99q-6 -29 -6 -49q0 -125 131 -125z" />
    <glyph glyph-name="gbreve" unicode="&#x11f;" horiz-adv-x="1187" 
d="M254 440q0 -154 70 -238t201 -83q131 0 224 62t139 138t73 201l10 49q18 82 18 147q0 119 -87 194t-232 75q-84 0 -164 -45t-135 -121q-117 -162 -117 -379zM127 438q0 115 37 231q79 247 286 360q106 58 226 58q250 0 360 -196l35 164h119l-217 -1016
q-49 -227 -169 -343t-355 -116q-280 0 -373 163q-33 58 -35 142h113q16 -112 80 -158t226 -46q163 0 258 85t138 285l31 144q-139 -179 -383 -179q-192 0 -293 137q-84 112 -84 285zM1055 1475q-51 -269 -287 -269q-114 0 -174 54t-62 153q0 27 7 62h98q-6 -29 -6 -50
q0 -67 36 -99t95 -32q165 0 194 181h99z" />
    <glyph glyph-name="Gdotaccent" unicode="&#x120;" horiz-adv-x="1456" 
d="M933 1391q-157 0 -276 -69q-119 -68 -199 -182q-162 -229 -163 -565q0 -211 115 -356t334 -145q218 0 361 86q38 23 66 43l89 407h-420l24 113h539l-123 -578q-133 -118 -367 -164q-378 -75 -594 147q-159 165 -159 435q0 178 50 346q105 353 393 510q146 80 342 80
t329 -100t172 -299l-121 -27q-31 160 -133 239t-259 79zM899 1626l39 182h139l-39 -182h-139z" />
    <glyph glyph-name="gdotaccent" unicode="&#x121;" horiz-adv-x="1187" 
d="M254 440q0 -154 70 -238t201 -83q131 0 224 62t139 138t73 201l10 49q18 82 18 147q0 119 -87 194t-232 75q-84 0 -164 -45t-135 -121q-117 -162 -117 -379zM127 438q0 115 37 231q79 247 286 360q106 58 226 58q250 0 360 -196l35 164h119l-217 -1016
q-49 -227 -169 -343t-355 -116q-280 0 -373 163q-33 58 -35 142h113q16 -112 80 -158t226 -46q163 0 258 85t138 285l31 144q-139 -179 -383 -179q-192 0 -293 137q-84 112 -84 285zM678 1266l37 178h135l-37 -178h-135z" />
    <glyph glyph-name="Gcommaaccent" unicode="&#x122;" horiz-adv-x="1456" 
d="M933 1391q-157 0 -276 -69q-119 -68 -199 -182q-162 -229 -163 -565q0 -211 115 -356t334 -145q218 0 361 86q38 23 66 43l89 407h-420l24 113h539l-123 -578q-133 -118 -367 -164q-378 -75 -594 147q-159 165 -159 435q0 178 50 346q105 353 393 510q146 80 342 80
t329 -100t172 -299l-121 -27q-31 160 -133 239t-259 79zM426 -434l211 295h156l-246 -295h-121z" />
    <glyph glyph-name="gcommaaccent" unicode="&#x123;" horiz-adv-x="1187" 
d="M254 440q0 -154 70 -238t201 -83q131 0 224 62t139 138t73 201l10 49q18 82 18 147q0 119 -87 194t-232 75q-84 0 -164 -45t-135 -121q-117 -162 -117 -379zM127 438q0 115 37 231q79 247 286 360q106 58 226 58q250 0 360 -196l35 164h119l-217 -1016
q-49 -227 -169 -343t-355 -116q-280 0 -373 163q-33 58 -35 142h113q16 -112 80 -158t226 -46q163 0 258 85t138 285l31 144q-139 -179 -383 -179q-192 0 -293 137q-84 112 -84 285zM1032 1483l-205 -287h-151l239 287h117z" />
    <glyph glyph-name="Hcircumflex" unicode="&#x124;" horiz-adv-x="1411" 
d="M1036 0l148 698h-826l-147 -698h-125l309 1462h125l-137 -647h825l138 647h124l-309 -1462h-125zM653 1585l285 264h117l174 -264h-123l-121 170l-205 -170h-127z" />
    <glyph glyph-name="hcircumflex" unicode="&#x125;" horiz-adv-x="1142" 
d="M778 1087q147 1 224 -79t77 -222q0 -53 -12 -110l-143 -676h-119l139 653q14 68 14 115q0 96 -44 154t-167 59q-123 0 -253 -100q-66 -53 -114 -109t-69 -154l-131 -618h-119l310 1462h118l-122 -579q187 204 411 204zM397 1585l285 264h117l174 -264h-123l-121 170
l-205 -170h-127z" />
    <glyph glyph-name="Hbar" unicode="&#x126;" horiz-adv-x="1452" 
d="M1225 799l59 284h-825l-60 -284h826zM1057 0l143 682h-825l-144 -682h-125l230 1083h-168l22 109h168l58 270h125l-58 -270h826l57 270h125l-57 -270h168l-23 -109h-168l-229 -1083h-125z" />
    <glyph glyph-name="hbar" unicode="&#x127;" horiz-adv-x="1165" 
d="M793 1047q147 0 224 -80t77 -222q0 -53 -13 -110l-135 -635h-119l131 612q15 72 15 115q0 96 -44 154.5t-155 58.5q-202 0 -315 -133t-133 -229l-123 -578h-119l254 1202h-145l22 103h143l35 157h119l-35 -157h363l-23 -103h-360l-76 -360q188 205 412 205z" />
    <glyph glyph-name="Itilde" unicode="&#x128;" horiz-adv-x="460" 
d="M86 0l309 1462h125l-309 -1462h-125zM846 1815q-33 -216 -201 -216q-86 0 -172 60q-33 23 -63 41t-74 18q-43 0 -68 -28t-37 -88h-100q15 106 65 160t135 54t173 -58q32 -22 62 -40t74 -18t69 26t34 89h103z" />
    <glyph glyph-name="itilde" unicode="&#x129;" horiz-adv-x="417" 
d="M68 0l223 1055h119l-224 -1055h-118zM721 1450q-33 -213 -194 -213q-83 0 -168 58q-31 22 -61 40q-30 19 -72 19q-81 1 -101 -113h-98q16 105 63 159t130 54t168 -58q32 -22 62 -40t72 -18q81 -1 101 112h98z" />
    <glyph glyph-name="Imacron" unicode="&#x12a;" horiz-adv-x="460" 
d="M86 0l309 1462h125l-309 -1462h-125zM186 1634l23 109h577l-22 -109h-578z" />
    <glyph glyph-name="imacron" unicode="&#x12b;" horiz-adv-x="417" 
d="M68 0l223 1055h119l-224 -1055h-118zM143 1389h500l-22 -105h-500z" />
    <glyph glyph-name="Ibreve" unicode="&#x12c;" horiz-adv-x="460" 
d="M86 0l309 1462h125l-309 -1462h-125zM535 1675q164 0 194 174h98q-27 -141 -101 -203t-186 -61q-114 0 -174 52t-61 151q0 27 6 61h99q-6 -29 -7 -49q0 -125 132 -125z" />
    <glyph glyph-name="ibreve" unicode="&#x12d;" horiz-adv-x="417" 
d="M68 0l223 1055h119l-224 -1055h-118zM680 1475q-52 -269 -288 -269q-114 0 -174 54t-60 153q0 27 6 62h98q-6 -29 -6 -50q0 -67 36 -99t95 -32q164 0 195 181h98z" />
    <glyph glyph-name="Iogonek" unicode="&#x12e;" horiz-adv-x="460" 
d="M53 -193q0 -71 82 -71q27 0 51 4l-22 -98q-24 -4 -82 -4t-104 38.5t-46 132.5t154 191l309 1462h125l-309 -1462q-158 -109 -158 -193z" />
    <glyph glyph-name="iogonek" unicode="&#x12f;" horiz-adv-x="417" 
d="M322 1284l36 178h136l-37 -178h-135zM-84 -188q0 88 154 188h-2l223 1055h119l-224 -1055q-153 -104 -153 -186q0 -70 80 -70q29 0 49 4l-21 -96q-25 -4 -81 -4t-100 38t-44 126z" />
    <glyph glyph-name="Idotaccent" unicode="&#x130;" horiz-adv-x="460" 
d="M86 0l309 1462h125l-309 -1462h-125zM424 1626l39 182h139l-39 -182h-139z" />
    <glyph glyph-name="dotlessi" unicode="&#x131;" horiz-adv-x="417" 
d="M68 0l223 1055h119l-224 -1055h-118z" />
    <glyph glyph-name="IJ" unicode="&#x132;" horiz-adv-x="1640" 
d="M86 0l309 1462h125l-309 -1462h-125zM948 -37q-302 0 -398 218q-32 73 -32 171v25q0 12 2 26h119v-26q0 -144 62 -215q79 -90 262 -89q184 1 279 107t136 303l207 979h125l-213 -1003q-53 -256 -186 -376t-363 -120z" />
    <glyph glyph-name="ij" unicode="&#x133;" horiz-adv-x="835" 
d="M322 1284l36 178h136l-37 -178h-135zM68 0l223 1055h119l-224 -1055h-118zM739 1284l37 178h135l-37 -178h-135zM289 -274q78 0 119 50t59 136l242 1143h118l-231 -1092q-38 -170 -82 -230q-86 -114 -226 -114q-105 0 -188 37l41 98q70 -28 148 -28z" />
    <glyph glyph-name="Jcircumflex" unicode="&#x134;" horiz-adv-x="1179" 
d="M487 -37q-302 0 -398 218q-32 73 -32 171v25q0 12 2 26h119v-26q0 -145 63 -215q79 -90 262 -89q185 1 279 107t136 303l206 979h125l-213 -1003q-53 -256 -186 -376t-363 -120zM911 1585l285 264h117l174 -264h-123l-121 170l-205 -170h-127z" />
    <glyph glyph-name="jcircumflex" unicode="&#x135;" horiz-adv-x="419" 
d="M-127 -274q78 0 119 50t59 136l242 1143h119l-232 -1092q-38 -170 -82 -230q-86 -114 -226 -114q-107 0 -187 37l41 98q69 -28 147 -28zM57 1208l289 275h117l172 -275h-117l-125 185l-211 -185h-125z" />
    <glyph glyph-name="Kcommaaccent" unicode="&#x136;" horiz-adv-x="1302" 
d="M676 829l-348 -280l-117 -549h-125l309 1462h125l-160 -760l928 760h150l-660 -557l402 -905h-144zM305 -434l211 295h156l-246 -295h-121z" />
    <glyph glyph-name="kcommaaccent" unicode="&#x137;" horiz-adv-x="1009" 
d="M61 0l310 1462h118l-186 -891l637 484h154l-449 -355l270 -700h-133l-237 635l-275 -205l-90 -430h-119zM162 -426l205 287h151l-239 -287h-117z" />
    <glyph glyph-name="kgreenlandic" unicode="&#x138;" horiz-adv-x="1009" 
d="M61 0l224 1055h118l-114 -537l649 537h154l-453 -387l279 -668h-136l-241 600l-283 -229l-78 -371h-119z" />
    <glyph glyph-name="Lacute" unicode="&#x139;" horiz-adv-x="1126" 
d="M979 0h-893l309 1462h125l-284 -1345h794zM387 1585l272 264h166l-307 -264h-131z" />
    <glyph glyph-name="lacute" unicode="&#x13a;" horiz-adv-x="417" 
d="M68 0l309 1462h119l-310 -1462h-118zM367 1585l272 264h166l-307 -264h-131z" />
    <glyph glyph-name="Lcommaaccent" unicode="&#x13b;" horiz-adv-x="1126" 
d="M979 0h-893l309 1462h125l-284 -1345h794zM233 -434l211 295h156l-246 -295h-121z" />
    <glyph glyph-name="lcommaaccent" unicode="&#x13c;" horiz-adv-x="417" 
d="M68 0l309 1462h119l-310 -1462h-118zM-184 -426l204 287h152l-240 -287h-116z" />
    <glyph glyph-name="Lcaron" unicode="&#x13d;" horiz-adv-x="1126" 
d="M979 0h-893l309 1462h125l-284 -1345h794zM815 1070l135 392h136l-164 -392h-107z" />
    <glyph glyph-name="lcaron" unicode="&#x13e;" horiz-adv-x="417" 
d="M68 0l309 1462h119l-310 -1462h-118zM547 1090l129 372h129l-156 -372h-102z" />
    <glyph glyph-name="Ldot" unicode="&#x13f;" horiz-adv-x="1126" 
d="M979 0h-893l309 1462h125l-284 -1345h794zM762 711l39 190h153l-39 -190h-153z" />
    <glyph glyph-name="ldot" unicode="&#x140;" horiz-adv-x="595" 
d="M68 0l309 1462h119l-310 -1462h-118zM483 670l39 190h154l-39 -190h-154z" />
    <glyph glyph-name="Lslash" unicode="&#x141;" horiz-adv-x="1146" 
d="M999 0h-893l113 530l-194 -120l26 131l195 121l170 800h125l-152 -714l520 323l-28 -131l-519 -324l-106 -499h795z" />
    <glyph glyph-name="lslash" unicode="&#x142;" horiz-adv-x="512" 
d="M115 0l147 698l-217 -141l25 123l219 141l135 641h119l-121 -567l217 143l-25 -125l-217 -141l-164 -772h-118z" />
    <glyph glyph-name="Nacute" unicode="&#x143;" horiz-adv-x="1413" 
d="M1034 0l-557 1274l-270 -1274h-121l309 1462h131l555 -1269l271 1269h121l-310 -1462h-129zM831 1585l273 264h166l-307 -264h-132z" />
    <glyph glyph-name="nacute" unicode="&#x144;" horiz-adv-x="1142" 
d="M954 768q0 96 -44 154t-166 59q-122 0 -255 -100q-65 -53 -113 -109t-69 -154l-131 -618h-119l224 1055h118l-37 -172q187 204 412 204q147 1 224 -79t77 -222q0 -53 -12 -110l-143 -676h-119l139 653q14 68 14 115zM584 1208l272 275h168l-305 -275h-135z" />
    <glyph glyph-name="Ncommaaccent" unicode="&#x145;" horiz-adv-x="1413" 
d="M1034 0l-557 1274l-270 -1274h-121l309 1462h131l555 -1269l271 1269h121l-310 -1462h-129zM319 -434l211 295h156l-246 -295h-121z" />
    <glyph glyph-name="ncommaaccent" unicode="&#x146;" horiz-adv-x="1142" 
d="M954 768q0 96 -44 154t-166 59q-122 0 -255 -100q-65 -53 -113 -109t-69 -154l-131 -618h-119l224 1055h118l-37 -172q187 204 412 204q147 1 224 -79t77 -222q0 -53 -12 -110l-143 -676h-119l139 653q14 68 14 115zM221 -426l205 287h152l-240 -287h-117z" />
    <glyph glyph-name="Ncaron" unicode="&#x147;" horiz-adv-x="1413" 
d="M1034 0l-557 1274l-270 -1274h-121l309 1462h131l555 -1269l271 1269h121l-310 -1462h-129zM1290 1855l-284 -264h-117l-174 264h123l120 -169l205 169h127z" />
    <glyph glyph-name="ncaron" unicode="&#x148;" horiz-adv-x="1142" 
d="M954 768q0 96 -44 154t-166 59q-122 0 -255 -100q-65 -53 -113 -109t-69 -154l-131 -618h-119l224 1055h118l-37 -172q187 204 412 204q147 1 224 -79t77 -222q0 -53 -12 -110l-143 -676h-119l139 653q14 68 14 115zM1102 1487l-289 -275h-117l-172 275h117l125 -184
l211 184h125z" />
    <glyph glyph-name="napostrophe" unicode="&#x149;" horiz-adv-x="1206" 
d="M1016 768q0 96 -44 154t-168 59q-124 0 -253 -100q-66 -53 -114 -109t-68 -154l-131 -618h-119l223 1055h119l-37 -172q187 204 412 204q147 1 224 -79t77 -222q0 -53 -13 -110l-143 -676h-119l139 653q15 73 15 115zM139 1081l131 381h138l-177 -381h-92z" />
    <glyph glyph-name="Eng" unicode="&#x14a;" horiz-adv-x="1413" 
d="M406 -248q110 -59 234 -59t189.5 18.5t106.5 57t62.5 95t37.5 134.5l-559 1276l-270 -1274h-121l309 1462h131l555 -1269l271 1269h121l-310 -1462q-51 -232 -161.5 -326t-344.5 -94q-175 0 -303 68z" />
    <glyph glyph-name="eng" unicode="&#x14b;" horiz-adv-x="1142" 
d="M778 1087q147 0 224 -79.5t77 -221.5q0 -53 -12 -110l-152 -713q-38 -169 -101 -256.5t-205 -87.5q-98 0 -187 37l41 98q69 -28 147 -28t118 50t58 136l158 741q14 68 14 115q0 96 -44 154.5t-154 58.5q-202 0 -315 -133t-134 -230l-131 -618h-119l224 1055h118l-36 -172
q187 204 411 204z" />
    <glyph glyph-name="Omacron" unicode="&#x14c;" horiz-adv-x="1548" 
d="M766 74q132 0 253 70q122 70 206 187q172 238 172 560q0 224 -117 361t-330 137q-154 0 -276 -72t-205 -187q-84 -115 -128 -262q-44 -146 -44 -276t29 -221q94 -297 440 -297zM954 1499q250 0 413 -163t163 -441q0 -170 -52 -336q-110 -351 -402 -514q-146 -82 -337 -82
q-248 0 -411 161q-164 161 -164 441q0 168 54 336q113 351 404 515q146 83 332 83zM696 1634l23 109h577l-22 -109h-578z" />
    <glyph glyph-name="omacron" unicode="&#x14d;" horiz-adv-x="1214" 
d="M554 -33q-202 0 -322 123q-119 123 -117 316q0 306 175 494q175 187 433 187q185 0 303 -122q117 -122 117 -298t-47 -301q-94 -256 -320 -352q-112 -48 -222 -47zM545 70q208 0 340 163q131 163 131 406q0 154 -77 250t-226 96q-211 0 -342 -165t-129 -404
q0 -154 76 -250t227 -96zM510 1389h500l-23 -105h-500z" />
    <glyph glyph-name="Obreve" unicode="&#x14e;" horiz-adv-x="1548" 
d="M766 74q132 0 253 70q122 70 206 187q172 238 172 560q0 224 -117 361t-330 137q-154 0 -276 -72t-205 -187q-84 -115 -128 -262q-44 -146 -44 -276t29 -221q94 -297 440 -297zM954 1499q250 0 413 -163t163 -441q0 -170 -52 -336q-110 -351 -402 -514q-146 -82 -337 -82
q-248 0 -411 161q-164 161 -164 441q0 168 54 336q113 351 404 515q146 83 332 83zM1044 1675q165 0 195 174h98q-27 -141 -101 -203t-186 -61q-114 0 -174 52t-61 151q0 27 6 61h99q-6 -29 -7 -49q0 -125 131 -125z" />
    <glyph glyph-name="obreve" unicode="&#x14f;" horiz-adv-x="1214" 
d="M554 -33q-202 0 -322 123q-119 123 -117 316q0 306 175 494q175 187 433 187q185 0 303 -122q117 -122 117 -298t-47 -301q-94 -256 -320 -352q-112 -48 -222 -47zM545 70q208 0 340 163q131 163 131 406q0 154 -77 250t-226 96q-211 0 -342 -165t-129 -404
q0 -154 76 -250t227 -96zM1057 1475q-51 -269 -287 -269q-114 0 -174 54t-61 153q0 27 6 62h98q-6 -29 -6 -50q0 -67 36 -99t95 -32q165 0 194 181h99z" />
    <glyph glyph-name="Ohungarumlaut" unicode="&#x150;" horiz-adv-x="1548" 
d="M766 74q132 0 253 70q122 70 206 187q172 238 172 560q0 224 -117 361t-330 137q-154 0 -276 -72t-205 -187q-84 -115 -128 -262q-44 -146 -44 -276t29 -221q94 -297 440 -297zM954 1499q250 0 413 -163t163 -441q0 -170 -52 -336q-110 -351 -402 -514q-146 -82 -337 -82
q-248 0 -411 161q-164 161 -164 441q0 168 54 336q113 351 404 515q146 83 332 83zM1059 1585l246 264h155l-278 -264h-123zM727 1585l246 264h155l-278 -264h-123z" />
    <glyph glyph-name="ohungarumlaut" unicode="&#x151;" horiz-adv-x="1214" 
d="M554 -33q-202 0 -322 123q-119 123 -117 316q0 306 175 494q175 187 433 187q185 0 303 -122q117 -122 117 -298t-47 -301q-94 -256 -320 -352q-112 -48 -222 -47zM545 70q208 0 340 163q131 163 131 406q0 154 -77 250t-226 96q-211 0 -342 -165t-129 -404
q0 -154 76 -250t227 -96zM846 1208l262 275h160l-295 -275h-127zM506 1208l262 275h160l-295 -275h-127z" />
    <glyph glyph-name="OE" unicode="&#x152;" horiz-adv-x="2217" 
d="M1323 878q0 242 -97 376.5t-306 134.5q-147 0 -263 -72t-196 -186.5t-122 -261.5t-42 -277q0 -247 109.5 -382.5t290.5 -135.5q180 0 295.5 76.5t189 196.5t107.5 264.5t34 266.5zM164 565q0 168 52 336t150.5 300t240 215t322.5 83t303 -95t169 -261l65 319h863
l-23 -112h-741l-115 -537h700l-24 -117h-701l-125 -581h785l-49 -115h-879l45 211q-197 -248 -493 -248q-234 0 -389.5 163t-155.5 439z" />
    <glyph glyph-name="oe" unicode="&#x153;" horiz-adv-x="1992" 
d="M1817 694q0 135 -72.5 216t-223.5 81t-253.5 -102.5t-141.5 -288.5h684q7 31 7 94zM545 70q209 0 331.5 160.5t122.5 408.5q0 154 -68.5 250t-217.5 96q-210 0 -337.5 -162.5t-127.5 -406.5q0 -154 73.5 -250t223.5 -96zM121 386q0 327 172.5 514t429.5 187
q141 0 233.5 -69.5t133.5 -194.5q155 264 452 264q191 0 290 -112.5t99 -290.5q0 -96 -10 -154l-6 -32h-805q-2 -20 -2 -25v-57q0 -237 114.5 -293.5t194.5 -56.5q145 0 215 53.5t109 156.5h117q-56 -153 -155 -231t-290 -78q-291 0 -403 281q-95 -142 -203.5 -211.5
t-281.5 -69.5t-288.5 120.5t-115.5 298.5z" />
    <glyph glyph-name="Racute" unicode="&#x154;" horiz-adv-x="1280" 
d="M719 750q225 0 340 81t115 273q0 247 -357 250h-321l-129 -604h352zM662 639h-318l-135 -639h-123l309 1462h451q243 0 359 -114q97 -95 95 -244q0 -343 -352 -434l168 -670h-141l-152 645q-53 -6 -161 -6zM719 1585l272 264h166l-307 -264h-131z" />
    <glyph glyph-name="racute" unicode="&#x155;" horiz-adv-x="690" 
d="M696 958q-109 0 -202 -77q-66 -53 -114 -111t-69 -154l-131 -616h-119l224 1055h118l-36 -172q98 109 180 149q83 40 151 39q69 0 103 -10l-33 -109q-35 6 -72 6zM438 1208l273 275h168l-306 -275h-135z" />
    <glyph glyph-name="Rcommaaccent" unicode="&#x156;" horiz-adv-x="1280" 
d="M719 750q225 0 340 81t115 273q0 247 -357 250h-321l-129 -604h352zM662 639h-318l-135 -639h-123l309 1462h451q243 0 359 -114q97 -95 95 -244q0 -343 -352 -434l168 -670h-141l-152 645q-53 -6 -161 -6zM268 -434l211 295h156l-246 -295h-121z" />
    <glyph glyph-name="rcommaaccent" unicode="&#x157;" horiz-adv-x="690" 
d="M696 958q-109 0 -202 -77q-66 -53 -114 -111t-69 -154l-131 -616h-119l224 1055h118l-36 -172q98 109 180 149q83 40 151 39q69 0 103 -10l-33 -109q-35 6 -72 6zM-178 -426l205 287h151l-239 -287h-117z" />
    <glyph glyph-name="Rcaron" unicode="&#x158;" horiz-adv-x="1280" 
d="M719 750q225 0 340 81t115 273q0 247 -357 250h-321l-129 -604h352zM662 639h-318l-135 -639h-123l309 1462h451q243 0 359 -114q97 -95 95 -244q0 -343 -352 -434l168 -670h-141l-152 645q-53 -6 -161 -6zM1157 1855l-285 -264h-116l-174 264h123l120 -169l205 169h127z
" />
    <glyph glyph-name="rcaron" unicode="&#x159;" horiz-adv-x="690" 
d="M696 958q-109 0 -202 -77q-66 -53 -114 -111t-69 -154l-131 -616h-119l224 1055h118l-36 -172q98 109 180 149q83 40 151 39q69 0 103 -10l-33 -109q-35 6 -72 6zM895 1487l-289 -275h-117l-172 275h117l125 -184l211 184h125z" />
    <glyph glyph-name="Sacute" unicode="&#x15a;" horiz-adv-x="1314" 
d="M791 1391q-391 0 -396 -301q0 -156 126 -219q48 -24 122 -40l203 -43q330 -65 330 -366q0 -216 -153 -338q-153 -121 -386 -121q-534 0 -547 420h123q24 -243 245 -292q77 -17 184 -17q300 0 376 211q37 103 14 214q-17 79 -98 129q-43 26 -111 40l-211 45
q-158 35 -250 119t-92 237q0 210 143 321t381 110q239 -1 361 -108q121 -107 143 -272l-116 -24q-23 143 -111 219t-280 76zM715 1585l272 264h166l-307 -264h-131z" />
    <glyph glyph-name="sacute" unicode="&#x15b;" horiz-adv-x="1052" 
d="M178 293q0 -225 314 -225q152 0 220 64t66 150q0 85 -38 125t-138 62l-121 27q-151 35 -219 96q-68 62 -68 158q1 170 120 253q119 84 292 84q278 0 356 -176q24 -53 31 -112l-108 -21q-21 109 -85 158t-202 49q-213 0 -268 -127q-30 -71 -11 -132q19 -62 92 -93
q38 -16 97 -29l133 -29q123 -27 193 -91t67 -208q-2 -144 -122 -226q-120 -81 -300 -83q-275 0 -379 169q-37 62 -37 157h115zM547 1208l272 275h168l-305 -275h-135z" />
    <glyph glyph-name="Scircumflex" unicode="&#x15c;" horiz-adv-x="1314" 
d="M791 1391q-391 0 -396 -301q0 -156 126 -219q48 -24 122 -40l203 -43q330 -65 330 -366q0 -216 -153 -338q-153 -121 -386 -121q-534 0 -547 420h123q24 -243 245 -292q77 -17 184 -17q300 0 376 211q37 103 14 214q-17 79 -98 129q-43 26 -111 40l-211 45
q-158 35 -250 119t-92 237q0 210 143 321t381 110q239 -1 361 -108q121 -107 143 -272l-116 -24q-23 143 -111 219t-280 76zM567 1585l285 264h117l174 -264h-123l-121 170l-205 -170h-127z" />
    <glyph glyph-name="scircumflex" unicode="&#x15d;" horiz-adv-x="1052" 
d="M178 293q0 -225 314 -225q152 0 220 64t66 150q0 85 -38 125t-138 62l-121 27q-151 35 -219 96q-68 62 -68 158q1 170 120 253q119 84 292 84q278 0 356 -176q24 -53 31 -112l-108 -21q-21 109 -85 158t-202 49q-213 0 -268 -127q-30 -71 -11 -132q19 -62 92 -93
q38 -16 97 -29l133 -29q123 -27 193 -91t67 -208q-2 -144 -122 -226q-120 -81 -300 -83q-275 0 -379 169q-37 62 -37 157h115zM352 1208l289 275h117l172 -275h-117l-125 185l-211 -185h-125z" />
    <glyph glyph-name="Scedilla" unicode="&#x15e;" horiz-adv-x="1314" 
d="M631 -268q0 75 -160 75h-25l91 160q-300 21 -371.5 161t-75.5 255h123q24 -241 173 -275t256 -34q206 0 302 96t96 254q0 91 -45.5 153.5t-171.5 90.5l-211 45q-158 35 -250 118.5t-92 237.5q0 210 140.5 320t382.5 110t362.5 -106.5t142.5 -272.5l-116 -24
q-23 143 -111 219t-292 76t-294 -84.5t-90 -228.5q0 -145 87 -187.5t161 -59.5l203 -43q330 -65 330 -366q0 -216 -153 -337.5t-388 -121.5h-2l-45 -82q124 -21 144 -74t20 -89t-20.5 -70.5t-68.5 -64t-141 -29.5t-166 14l23 92q62 -12 119 -12q133 0 133 84z" />
    <glyph glyph-name="scedilla" unicode="&#x15f;" horiz-adv-x="1052" 
d="M487 -246q0 70 -149 70h-25l82 147q-229 28 -280.5 134t-51.5 188h115q0 -225 314 -225q152 0 219 64.5t67 149.5t-38 124.5t-138 62.5l-121 27q-152 35 -219 96.5t-67 157.5q0 172 119.5 254.5t291.5 82.5q278 0 328.5 -114.5t58.5 -173.5l-108 -21q-21 109 -84.5 158
t-202.5 49q-212 0 -248.5 -82t-36.5 -119q0 -75 41 -116t154 -64l133 -29q123 -27 192.5 -91t67.5 -208t-119.5 -224.5t-294.5 -84.5l-41 -73q88 -14 122 -53.5t34 -80.5q0 -100 -71.5 -138t-156.5 -38t-147 15l21 90q63 -13 115 -13q124 0 124 78z" />
    <glyph glyph-name="Scaron" unicode="&#x160;" horiz-adv-x="1314" 
d="M791 1391q-391 0 -396 -301q0 -156 126 -219q48 -24 122 -40l203 -43q330 -65 330 -366q0 -216 -153 -338q-153 -121 -386 -121q-534 0 -547 420h123q24 -243 245 -292q77 -17 184 -17q300 0 376 211q37 103 14 214q-17 79 -98 129q-43 26 -111 40l-211 45
q-158 35 -250 119t-92 237q0 210 143 321t381 110q239 -1 361 -108q121 -107 143 -272l-116 -24q-23 143 -111 219t-280 76zM1186 1855l-285 -264h-117l-174 264h123l121 -169l205 169h127z" />
    <glyph glyph-name="scaron" unicode="&#x161;" horiz-adv-x="1052" 
d="M178 293q0 -225 314 -225q152 0 219 64.5t67 149.5t-38 124.5t-138 62.5l-121 27q-152 35 -219 96.5t-67 157.5q0 172 119.5 254.5t291.5 82.5q278 0 328.5 -114.5t58.5 -173.5l-108 -21q-21 109 -84.5 158t-202.5 49q-212 0 -248.5 -82t-36.5 -119q0 -75 41 -116
t154 -64l133 -29q123 -27 192.5 -91t67.5 -208t-124 -226.5t-298 -82.5q-279 0 -347.5 116t-68.5 210h115zM799 1487l-289 -275h-117l-172 275h117l125 -184l211 184h125z" />
    <glyph glyph-name="uni0162" unicode="&#x162;" horiz-adv-x="1208" 
d="M551 -246q0 70 -150 70h-24l98 176h-14l284 1348h-507l24 114h1139l-25 -114h-506l-284 -1348h-17l-59 -106q88 -14 122 -53.5t34 -80.5q0 -100 -72 -138t-158 -38t-145 15l20 90q63 -13 116 -13q124 0 124 78z" />
    <glyph glyph-name="uni0163" unicode="&#x163;" horiz-adv-x="675" 
d="M172 195q0 51 10 96l142 665h-164l20 99h164l62 291h118l-61 -291h299l-21 -99h-299l-141 -665q-10 -58 -10 -80q0 -131 129 -131q70 0 143 26l21 -96q-95 -29 -168 -33l-47 -83q88 -14 121.5 -53.5t33.5 -80.5q0 -100 -71 -138t-157 -38t-146 15l20 90q63 -13 115 -13
q125 0 125 78q0 70 -150 70h-24l90 164q-154 33 -154 207z" />
    <glyph glyph-name="Tcaron" unicode="&#x164;" horiz-adv-x="1208" 
d="M870 1348l-284 -1348h-125l284 1348h-507l24 114h1139l-25 -114h-506zM1184 1855l-285 -264h-117l-174 264h123l121 -169l205 169h127z" />
    <glyph glyph-name="tcaron" unicode="&#x165;" horiz-adv-x="675" 
d="M391 -23q-96 0 -157.5 54.5t-61.5 163.5q0 51 10 96l142 665h-164l20 99h164l62 291h118l-61 -291h299l-21 -99h-299l-141 -665q-10 -58 -10 -80q0 -131 129 -131q70 0 143 26l21 -96q-97 -33 -193 -33zM608 1169l117 314h123l-141 -314h-99z" />
    <glyph glyph-name="Tbar" unicode="&#x166;" horiz-adv-x="1208" 
d="M870 1348l-118 -562h329l-22 -110h-330l-143 -676h-125l143 676h-330l23 110h330l118 562h-507l24 114h1139l-25 -114h-506z" />
    <glyph glyph-name="tbar" unicode="&#x167;" horiz-adv-x="675" 
d="M391 -23q-96 0 -157.5 54.5t-61.5 163.5q0 51 10 96l47 221h-163l20 104h166l72 340h-164l20 99h164l62 291h118l-61 -291h299l-21 -99h-299l-71 -340h297l-21 -104h-299l-47 -221q-10 -58 -10 -80q0 -131 129 -131q70 0 143 26l21 -96q-97 -33 -193 -33z" />
    <glyph glyph-name="Utilde" unicode="&#x168;" horiz-adv-x="1384" 
d="M658 -37q-349 0 -448 235q-34 81 -34 176t23 208l186 880h125l-188 -891q-20 -94 -21 -178q0 -159 85 -239t265 -80q219 0 326 120t164 377l188 891h125l-188 -889q-35 -162 -88 -277q-106 -230 -304 -298q-100 -34 -216 -35zM1317 1815q-33 -216 -201 -216
q-86 0 -172 60q-34 23 -64 41t-73 18t-68 -28t-37 -88h-100q16 106 66 160t134 54q85 0 173 -58q33 -22 63 -40t73 -18q44 0 69 26t34 89h103z" />
    <glyph glyph-name="utilde" unicode="&#x169;" horiz-adv-x="1120" 
d="M121 264q0 59 12 115l143 676h119l-141 -664q-10 -62 -10 -115q0 -202 188 -202t365 210q47 56 67 152l131 619h119l-223 -1055h-119l37 172q-181 -205 -395 -205q-142 0 -223 85q-70 78 -70 212zM1071 1450q-33 -213 -195 -213q-84 0 -166 58q-32 22 -62 40
q-30 19 -72 19q-81 1 -101 -113h-98q16 105 63 159t132 54t166 -58q32 -22 62 -40t72 -18q81 -1 101 112h98z" />
    <glyph glyph-name="Umacron" unicode="&#x16a;" horiz-adv-x="1384" 
d="M658 -37q-349 0 -448 235q-34 81 -34 176t23 208l186 880h125l-188 -891q-20 -94 -21 -178q0 -159 85 -239t265 -80q219 0 326 120t164 377l188 891h125l-188 -889q-35 -162 -88 -277q-106 -230 -304 -298q-100 -34 -216 -35zM647 1634l23 109h577l-22 -109h-578z" />
    <glyph glyph-name="umacron" unicode="&#x16b;" horiz-adv-x="1120" 
d="M121 264q0 59 12 115l143 676h119l-141 -664q-10 -62 -10 -115q0 -202 188 -202t365 210q47 56 67 152l131 619h119l-223 -1055h-119l37 172q-181 -205 -395 -205q-142 0 -223 85q-70 78 -70 212zM483 1389h500l-22 -105h-500z" />
    <glyph glyph-name="Ubreve" unicode="&#x16c;" horiz-adv-x="1384" 
d="M658 -37q-349 0 -448 235q-34 81 -34 176t23 208l186 880h125l-188 -891q-20 -94 -21 -178q0 -159 85 -239t265 -80q219 0 326 120t164 377l188 891h125l-188 -889q-35 -162 -88 -277q-106 -230 -304 -298q-100 -34 -216 -35zM995 1675q165 0 195 174h98
q-26 -141 -100 -203t-188 -61q-114 0 -174 52t-60 151q0 27 6 61h98q-6 -29 -6 -49q0 -125 131 -125z" />
    <glyph glyph-name="ubreve" unicode="&#x16d;" horiz-adv-x="1120" 
d="M121 264q0 59 12 115l143 676h119l-141 -664q-10 -62 -10 -115q0 -202 188 -202t365 210q47 56 67 152l131 619h119l-223 -1055h-119l37 172q-181 -205 -395 -205q-142 0 -223 85q-70 78 -70 212zM1016 1475q-52 -269 -288 -269q-114 0 -174 54t-60 153q0 27 6 62h98
q-6 -29 -6 -50q0 -67 36 -99t95 -32q164 0 195 181h98z" />
    <glyph glyph-name="Uring" unicode="&#x16e;" horiz-adv-x="1384" 
d="M658 -37q-349 0 -448 235q-34 81 -34 176t23 208l186 880h125l-188 -891q-20 -94 -21 -178q0 -159 85 -239t265 -80q219 0 326 120t164 377l188 891h125l-188 -889q-35 -162 -88 -277q-106 -230 -304 -298q-100 -34 -216 -35zM922 1589q104 0 104 111q0 59 -28 87t-76 28
t-76 -28q-29 -28 -29 -86t29 -85t76 -27zM727 1701q0 97 58 146t138 49t138 -51q57 -51 57 -145q0 -93 -56 -143t-137 -51t-140 48q-58 50 -58 147z" />
    <glyph glyph-name="uring" unicode="&#x16f;" horiz-adv-x="1120" 
d="M121 264q0 59 12 115l143 676h119l-141 -664q-10 -62 -10 -115q0 -202 188 -202t365 210q47 56 67 152l131 619h119l-223 -1055h-119l37 172q-181 -205 -395 -205q-142 0 -223 85q-70 78 -70 212zM606 1399q0 -57 28 -85t75 -28t75 28t27 85q0 57 -28 85q-29 28 -75 28
t-74 -28t-28 -85zM516 1399q0 96 57 145t136 49q129 0 178 -110q16 -37 16 -85t-16 -84q-46 -104 -178 -108q-78 0 -136 48q-57 49 -57 145z" />
    <glyph glyph-name="Uhungarumlaut" unicode="&#x170;" horiz-adv-x="1384" 
d="M658 -37q-349 0 -448 235q-34 81 -34 176t23 208l186 880h125l-188 -891q-20 -94 -21 -178q0 -159 85 -239t265 -80q219 0 326 120t164 377l188 891h125l-188 -889q-35 -162 -88 -277q-106 -230 -304 -298q-100 -34 -216 -35zM997 1585l246 264h156l-279 -264h-123z
M666 1585l245 264h156l-279 -264h-122z" />
    <glyph glyph-name="uhungarumlaut" unicode="&#x171;" horiz-adv-x="1120" 
d="M121 264q0 59 12 115l143 676h119l-141 -664q-10 -62 -10 -115q0 -202 188 -202t365 210q47 56 67 152l131 619h119l-223 -1055h-119l37 172q-181 -205 -395 -205q-142 0 -223 85q-70 78 -70 212zM791 1208l262 275h159l-294 -275h-127zM451 1208l262 275h159l-294 -275
h-127z" />
    <glyph glyph-name="Uogonek" unicode="&#x172;" horiz-adv-x="1384" 
d="M721 -193q0 -71 82 -71q27 0 51 4l-23 -98q-23 -4 -81 -4t-104 38.5t-46 100.5q0 104 105 188l-58 -2q-338 0 -404.5 158t-66.5 262t23 199l186 880h125l-188 -891q-20 -94 -21 -178q0 -160 85 -239.5t284 -79.5t306.5 119.5t164.5 377.5l188 891h125l-188 -889
q-53 -244 -146.5 -382t-242.5 -191q-156 -109 -156 -193z" />
    <glyph glyph-name="uogonek" unicode="&#x173;" horiz-adv-x="1120" 
d="M244 276q0 -202 189 -202t300 133t131 229l131 619h119l-223 -1055q-154 -105 -154 -186q0 -70 80 -70q29 0 49 4l-20 -96q-24 -4 -81 -4t-100.5 38t-43.5 126.5t153 187.5h-2l37 172q-181 -205 -397 -205t-253.5 117t-37.5 177t12 118l143 676h119l-141 -664
q-10 -63 -10 -115z" />
    <glyph glyph-name="Wcircumflex" unicode="&#x174;" horiz-adv-x="1865" 
d="M1122 1300l-626 -1300h-138l-104 1462h131l72 -1306l635 1300h133l82 -1298l620 1304h139l-720 -1462h-144zM899 1585l285 264h116l175 -264h-123l-121 170l-205 -170h-127z" />
    <glyph glyph-name="wcircumflex" unicode="&#x175;" horiz-adv-x="1456" 
d="M1034 0h-137l-70 922l-460 -922h-138l-82 1055h127l50 -922l462 916h140l67 -916l443 922h131zM561 1208l289 275h117l172 -275h-117l-125 185l-211 -185h-125z" />
    <glyph glyph-name="Ycircumflex" unicode="&#x176;" horiz-adv-x="1204" 
d="M258 1462h135l279 -723l585 723h144l-682 -829l-133 -633h-125l133 633zM549 1585l285 264h116l174 -264h-123l-120 170l-205 -170h-127z" />
    <glyph glyph-name="ycircumflex" unicode="&#x177;" horiz-adv-x="1019" 
d="M-10 -270q52 -23 109 -23t92 32t106 150l76 125l-232 1041h129l193 -905l532 905h142l-734 -1194q-39 -59 -71 -107q-66 -101 -137 -134q-39 -17 -111 -17t-133 30zM342 1208l289 275h117l172 -275h-117l-125 185l-211 -185h-125z" />
    <glyph glyph-name="Ydieresis" unicode="&#x178;" horiz-adv-x="1204" 
d="M258 1462h135l279 -723l585 723h144l-682 -829l-133 -633h-125l133 633zM694 1628l39 178h139l-38 -178h-140zM358 1628l39 178h138l-39 -178h-138z" />
    <glyph glyph-name="Zacute" unicode="&#x179;" horiz-adv-x="1198" 
d="M1044 0h-1048l20 102l1139 1248h-868l22 112h1030l-22 -104l-1135 -1243h912zM702 1585l273 264h166l-307 -264h-132z" />
    <glyph glyph-name="zacute" unicode="&#x17a;" horiz-adv-x="919" 
d="M-8 100l833 854h-649l21 101h796l-20 -101l-834 -854h703l-37 -100h-834zM492 1208l272 275h168l-305 -275h-135z" />
    <glyph glyph-name="Zdotaccent" unicode="&#x17b;" horiz-adv-x="1198" 
d="M1044 0h-1048l20 102l1139 1248h-868l22 112h1030l-22 -104l-1135 -1243h912zM760 1626l39 182h139l-39 -182h-139z" />
    <glyph glyph-name="zdotaccent" unicode="&#x17c;" horiz-adv-x="919" 
d="M-8 100l833 854h-649l21 101h796l-20 -101l-834 -854h703l-37 -100h-834zM539 1266l36 178h136l-37 -178h-135z" />
    <glyph glyph-name="Zcaron" unicode="&#x17d;" horiz-adv-x="1198" 
d="M1044 0h-1048l20 102l1139 1248h-868l22 112h1030l-22 -104l-1135 -1243h912zM1190 1855l-285 -264h-117l-174 264h123l121 -169l205 169h127z" />
    <glyph glyph-name="zcaron" unicode="&#x17e;" horiz-adv-x="919" 
d="M-8 100l833 854h-649l21 101h796l-20 -101l-834 -854h703l-37 -100h-834zM950 1487l-288 -275h-117l-172 275h116l125 -184l211 184h125z" />
    <glyph glyph-name="longs" unicode="&#x17f;" horiz-adv-x="413" 
d="M627 1374q-146 0 -189 -186l-252 -1188h-118l251 1184q35 160 118 227.5t184 67.5t178 -31l-37 -96q-59 22 -135 22z" />
    <glyph glyph-name="florin" unicode="&#x192;" 
d="M1037 1352q-79 0 -126 -38t-80 -132l-53 -154h277l-29 -104h-285l-360 -1018q-53 -154 -129 -209t-179 -55t-179 34l36 97q63 -29 141 -29q77 0 117.5 38t73.5 132l356 1010h-161l26 104h172l58 162q77 216 175.5 240t175.5 24t153 -35l-37 -96q-64 29 -143 29z" />
    <glyph glyph-name="Scommaaccent" unicode="&#x218;" horiz-adv-x="1314" 
d="M791 1391q-391 0 -396 -301q0 -156 126 -219q48 -24 122 -40l203 -43q330 -65 330 -366q0 -216 -153 -338q-153 -121 -386 -121q-534 0 -547 420h123q24 -243 245 -292q77 -17 184 -17q300 0 376 211q37 103 14 214q-17 79 -98 129q-43 26 -111 40l-211 45
q-158 35 -250 119t-92 237q0 210 143 321t381 110q239 -1 361 -108q121 -107 143 -272l-116 -24q-23 143 -111 219t-280 76zM315 -434l211 295h156l-246 -295h-121z" />
    <glyph glyph-name="scommaaccent" unicode="&#x219;" horiz-adv-x="1052" 
d="M178 293q0 -225 314 -225q152 0 220 64t66 150q0 85 -38 125t-138 62l-121 27q-151 35 -219 96q-68 62 -68 158q1 170 120 253q119 84 292 84q278 0 356 -176q24 -53 31 -112l-108 -21q-21 109 -85 158t-202 49q-213 0 -268 -127q-30 -71 -11 -132q19 -62 92 -93
q38 -16 97 -29l133 -29q123 -27 193 -91t67 -208q-2 -144 -122 -226q-120 -81 -300 -83q-275 0 -379 169q-37 62 -37 157h115zM182 -426l205 287h152l-240 -287h-117z" />
    <glyph glyph-name="uni021A" unicode="&#x21a;" horiz-adv-x="1208" 
d="M870 1348l-284 -1348h-125l284 1348h-507l24 114h1139l-25 -114h-506zM209 -434l211 295h155l-245 -295h-121z" />
    <glyph glyph-name="uni021B" unicode="&#x21b;" horiz-adv-x="675" 
d="M172 195q0 53 10 96l142 665h-164l20 99h164l62 291h118l-61 -291h299l-21 -99h-299l-141 -665q-10 -58 -10 -80q0 -131 129 -131q70 0 143 26l21 -96q-92 -32 -190 -32t-160 54t-62 163zM39 -426l205 287h151l-239 -287h-117z" />
    <glyph glyph-name="dotlessj" unicode="&#x237;" horiz-adv-x="417" 
d="M-128 -274q77 0 118 50t59 136l242 1143h119l-232 -1092q-38 -171 -103 -257.5t-205 -86.5q-101 0 -187 37l41 98q71 -28 148 -28z" />
    <glyph glyph-name="apostrophe" unicode="&#x2bc;" horiz-adv-x="372" 
d="M195 1081l131 381h137l-176 -381h-92z" />
    <glyph glyph-name="circumflex" unicode="&#x2c6;" horiz-adv-x="776" 
d="M231 1208l289 275h117l172 -275h-117l-125 185l-211 -185h-125z" />
    <glyph glyph-name="caron" unicode="&#x2c7;" horiz-adv-x="776" 
d="M868 1487l-288 -275h-117l-172 275h117l124 -184l211 184h125z" />
    <glyph glyph-name="uni02C9" unicode="&#x2c9;" horiz-adv-x="776" 
d="M309 1389h500l-23 -105h-499z" />
    <glyph glyph-name="breve" unicode="&#x2d8;" horiz-adv-x="776" 
d="M856 1475q-52 -269 -288 -269q-114 0 -174 54.5t-60 152.5q0 27 6 62h98q-6 -29 -6 -50q0 -66 36 -98.5t95 -32.5q164 0 195 181h98z" />
    <glyph glyph-name="dotaccent" unicode="&#x2d9;" horiz-adv-x="776" 
d="M465 1266l37 178h135l-37 -178h-135z" />
    <glyph glyph-name="ring" unicode="&#x2da;" horiz-adv-x="776" 
d="M436 1398.5q0 -57.5 28 -85t75 -27.5t74.5 27.5t27.5 85t-27.5 85t-74.5 27.5t-75 -27.5t-28 -85zM346 1399q0 96 57.5 145t135.5 49q128 0 161 -73.5t33 -121.5q0 -91 -57 -141.5t-136 -50.5t-136.5 48.5t-57.5 144.5z" />
    <glyph glyph-name="ogonek" unicode="&#x2db;" horiz-adv-x="776" 
d="M264 -186q0 -70 80 -70q29 0 49 4l-20 -96q-24 -4 -81 -4t-101 38t-44 126t154 188h117q-154 -105 -154 -186z" />
    <glyph glyph-name="tilde" unicode="&#x2dc;" horiz-adv-x="776" 
d="M897 1450q-33 -213 -193 -213q-82 0 -141 40t-89 58.5t-72 18.5t-66.5 -27t-34.5 -86h-98q16 104 63 158.5t144 54.5q49 0 85.5 -18.5t68.5 -40t61.5 -40t72.5 -18.5t66.5 27t34.5 86h98z" />
    <glyph glyph-name="hungarumlaut" unicode="&#x2dd;" horiz-adv-x="776" 
d="M537 1208l262 275h159l-294 -275h-127zM197 1208l262 275h159l-294 -275h-127z" />
    <glyph glyph-name="tonos" unicode="&#x384;" horiz-adv-x="776" 
d="M424 1503h156l-242 -295h-117z" />
    <glyph glyph-name="dieresistonos" unicode="&#x385;" horiz-adv-x="776" 
d="M565 1276l33 158h125l-33 -158h-125zM94 1276l33 158h125l-33 -158h-125zM426 1507h152l-201 -299h-113z" />
    <glyph glyph-name="Alphatonos" unicode="&#x386;" horiz-adv-x="1353" 
d="M418 561h598l-139 764zM831 1462h148l268 -1462h-129l-82 446h-688l-268 -446h-137zM438 1462h152l-236 -315h-112z" />
    <glyph glyph-name="Epsilontonos" unicode="&#x388;" horiz-adv-x="1435" 
d="M729 1350l-115 -537h754l-25 -117h-753l-125 -581h838l-50 -115h-936l310 1462h919l-22 -112h-795zM344 1462h152l-236 -315h-113z" />
    <glyph glyph-name="Etatonos" unicode="&#x389;" horiz-adv-x="1642" 
d="M1268 0l147 698h-825l-148 -698h-125l310 1462h125l-138 -647h826l137 647h125l-309 -1462h-125zM344 1462h152l-236 -315h-113z" />
    <glyph glyph-name="Iotatonos" unicode="&#x38a;" horiz-adv-x="692" 
d="M317 0l310 1462h125l-310 -1462h-125zM344 1462h152l-236 -315h-113z" />
    <glyph glyph-name="Omicrontonos" unicode="&#x38c;" horiz-adv-x="1658" 
d="M1507 891q0 225 -117 361q-117 137 -329 137q-154 0 -276 -72q-121 -72 -205 -187t-128 -262q-44 -146 -44 -276t28 -221q94 -297 440 -297q132 0 254 70t205 187q172 238 172 560zM1065 1499q248 -1 411 -163q164 -162 164 -441q0 -170 -52 -336q-110 -352 -401 -514
q-146 -82 -337 -82q-247 0 -411 161q-165 161 -165 441q0 168 54 336t156 300q101 132 248 215t333 83zM330 1462h151l-235 -315h-113z" />
    <glyph glyph-name="Upsilontonos" unicode="&#x38e;" horiz-adv-x="1521" 
d="M575 1462h136l278 -723l586 723h143l-682 -829l-133 -633h-125l133 633zM338 1462h151l-235 -315h-113z" />
    <glyph glyph-name="Omegatonos" unicode="&#x38f;" horiz-adv-x="1603" 
d="M1563 952q0 -537 -451 -839h363l-48 -113h-507l22 111q242 135 365 349t123 488q0 207 -98 324t-274 117q-318 0 -496 -249q-158 -224 -156 -544q0 -150 61 -278t172 -207l-23 -111h-507l22 113h352q-83 74 -144 201t-62 290q-1 164 51 327q107 342 393 491
q145 77 352 77t349 -145q141 -144 141 -402zM311 1462h152l-236 -315h-112z" />
    <glyph glyph-name="iotadieresistonos" unicode="&#x390;" horiz-adv-x="516" 
d="M102 130q0 58 12 112t25 114l148 699h119l-168 -791q-4 -22 -8 -46t-5 -54q1 -30 21 -59q20 -27 83 -27t103 14l17 -94q-58 -21 -159 -22q-100 0 -144 48t-44 106zM582 1276l32 158h125l-32 -158h-125zM111 1276l32 158h125l-32 -158h-125zM442 1507h152l-201 -299h-112z
" />
    <glyph glyph-name="Alpha" unicode="&#x391;" horiz-adv-x="1353" 
d="M418 561h598l-139 764zM831 1462h148l268 -1462h-129l-82 446h-688l-268 -446h-137z" />
    <glyph glyph-name="Beta" unicode="&#x392;" horiz-adv-x="1277" 
d="M606 111q253 0 357 83t104 259q0 115 -81 184q-81 70 -247 72h-381l-127 -598h375zM741 821q292 0 388 162q36 61 36 132t-15 110q-49 126 -300 129h-354l-113 -533h358zM1292 1145q0 -287 -315 -381q107 -41 165 -126t58 -187q0 -327 -335 -419q-116 -32 -277 -32h-502
l309 1462h473q234 0 342 -108q82 -82 82 -209z" />
    <glyph glyph-name="Gamma" unicode="&#x393;" horiz-adv-x="1060" 
d="M496 1350l-285 -1350h-125l309 1462h869l-25 -112h-743z" />
    <glyph glyph-name="uni0394" unicode="&#x394;" horiz-adv-x="1318" 
d="M150 115h913l-201 1206zM819 1462h135l256 -1462h-1265z" />
    <glyph glyph-name="Epsilon" unicode="&#x395;" horiz-adv-x="1204" 
d="M498 1350l-115 -537h754l-25 -117h-754l-125 -581h838l-49 -115h-936l309 1462h920l-23 -112h-794z" />
    <glyph glyph-name="Zeta" unicode="&#x396;" horiz-adv-x="1198" 
d="M1044 0h-1048l20 102l1139 1248h-868l22 112h1030l-22 -104l-1135 -1243h912z" />
    <glyph glyph-name="Eta" unicode="&#x397;" horiz-adv-x="1411" 
d="M1036 0l148 698h-826l-147 -698h-125l309 1462h125l-137 -647h825l138 647h124l-309 -1462h-125z" />
    <glyph glyph-name="Theta" unicode="&#x398;" horiz-adv-x="1548" 
d="M766 74q132 0 253.5 70.5t205.5 186t128 262.5t44 277q0 245 -117.5 382t-329.5 137q-154 0 -275.5 -72t-205.5 -186.5t-128 -261.5t-44 -277t28.5 -221.5t86 -157.5t140 -102.5t214.5 -36.5zM954 1499q249 0 412.5 -162t163.5 -442q0 -170 -52.5 -336t-153.5 -299
t-247.5 -215t-337.5 -82q-248 0 -411.5 161.5t-163.5 440.5q0 168 54 336t155.5 300t248 215t332.5 83zM498 815h737l-25 -117h-737z" />
    <glyph glyph-name="Iota" unicode="&#x399;" horiz-adv-x="460" 
d="M86 0l309 1462h125l-309 -1462h-125z" />
    <glyph glyph-name="Kappa" unicode="&#x39a;" horiz-adv-x="1302" 
d="M676 829l-348 -280l-117 -549h-125l309 1462h125l-160 -760l928 760h150l-660 -557l402 -905h-144z" />
    <glyph glyph-name="Lambda" unicode="&#x39b;" horiz-adv-x="1316" 
d="M858 1321l-778 -1321h-137l872 1462h135l260 -1462h-129z" />
    <glyph glyph-name="Mu" unicode="&#x39c;" horiz-adv-x="1716" 
d="M715 0l-248 1245l-264 -1245h-117l309 1462h156l252 -1317l813 1317h160l-310 -1462h-116l266 1251l-782 -1251h-119z" />
    <glyph glyph-name="Nu" unicode="&#x39d;" horiz-adv-x="1413" 
d="M1034 0l-557 1274l-270 -1274h-121l309 1462h131l555 -1269l271 1269h121l-310 -1462h-129z" />
    <glyph glyph-name="Xi" unicode="&#x39e;" horiz-adv-x="1103" 
d="M305 1462h914l-23 -114h-913zM8 115h965l-49 -115h-938zM209 815h831l-24 -117h-832z" />
    <glyph glyph-name="Omicron" unicode="&#x39f;" horiz-adv-x="1548" 
d="M766 74q132 0 253 70q122 70 206 187q172 238 172 560q0 224 -117 361t-330 137q-154 0 -276 -72t-205 -187q-84 -115 -128 -262q-44 -146 -44 -276t29 -221q94 -297 440 -297zM954 1499q250 0 413 -163t163 -441q0 -170 -52 -336q-110 -351 -402 -514q-146 -82 -337 -82
q-248 0 -411 161q-164 161 -164 441q0 168 54 336q113 351 404 515q146 83 332 83z" />
    <glyph glyph-name="Pi" unicode="&#x3a0;" horiz-adv-x="1388" 
d="M512 1350l-285 -1350h-125l310 1462h1052l-309 -1462h-125l285 1350h-803z" />
    <glyph glyph-name="Rho" unicode="&#x3a1;" horiz-adv-x="1267" 
d="M702 700q236 0 361 93t125 315q0 242 -348 246h-344l-140 -654h346zM1317 1106q0 -261 -169 -388q-169 -126 -464 -126h-350l-125 -592h-123l309 1462h465q236 0 359 -116q98 -94 98 -240z" />
    <glyph glyph-name="Sigma" unicode="&#x3a3;" horiz-adv-x="1163" 
d="M166 115h917l-49 -115h-1048l20 102l645 643l-364 615l20 102h998l-23 -114h-856l365 -621z" />
    <glyph glyph-name="Tau" unicode="&#x3a4;" horiz-adv-x="1208" 
d="M870 1348l-284 -1348h-125l284 1348h-507l24 114h1139l-25 -114h-506z" />
    <glyph glyph-name="Upsilon" unicode="&#x3a5;" horiz-adv-x="1204" 
d="M258 1462h135l279 -723l585 723h144l-682 -829l-133 -633h-125l133 633z" />
    <glyph glyph-name="Phi" unicode="&#x3a6;" horiz-adv-x="1654" 
d="M317 693q0 -121 32 -189q90 -191 399 -217l204 968q-452 -19 -588 -332q-48 -109 -47 -230zM1507 851q1 123 -31 189q-91 193 -399 215l-205 -968q454 21 588 333q47 110 47 231zM186 694q0 140 60 266q119 247 417 345q144 47 312 53l35 166h125l-37 -170
q236 -21 388 -140t152 -337q0 -323 -226 -506q-208 -170 -562 -185l-39 -186h-125l39 188q-240 21 -382 138q-73 59 -115 144q-42 84 -42 224z" />
    <glyph glyph-name="Chi" unicode="&#x3a7;" horiz-adv-x="1255" 
d="M776 760l371 -760h-143l-322 674l-592 -674h-143l682 778l-332 684h139l283 -606l538 606h142z" />
    <glyph glyph-name="Psi" unicode="&#x3a8;" horiz-adv-x="1671" 
d="M254 847q0 106 22 208l86 407h123l-88 -411q-23 -102 -22 -177q0 -188 107.5 -268t312.5 -90l200 946h123l-200 -944q250 13 403 139t215 412l86 393h125l-84 -389q-73 -338 -255.5 -490.5t-512.5 -168.5l-86 -414h-123l88 416q-368 20 -444 172.5t-76 258.5z" />
    <glyph glyph-name="Omega" unicode="&#x3a9;" horiz-adv-x="1529" 
d="M1489 952q0 -537 -451 -839h363l-47 -113h-508l22 111q242 135 365 349t123 488q0 207 -97.5 324t-274.5 117q-320 0 -486 -236t-166 -557q0 -150 61.5 -278t171.5 -207l-22 -111h-508l22 113h353q-139 125 -173 265t-34 220q0 170 51 333t149.5 289t244 202.5
t333.5 76.5q227 0 367.5 -144.5t140.5 -402.5z" />
    <glyph glyph-name="Iotadieresis" unicode="&#x3aa;" horiz-adv-x="460" 
d="M86 0l309 1462h125l-309 -1462h-125zM571 1628l39 178h140l-39 -178h-140zM236 1628l38 178h138l-39 -178h-137z" />
    <glyph glyph-name="Upsilondieresis" unicode="&#x3ab;" horiz-adv-x="1204" 
d="M258 1462h135l279 -723l585 723h144l-682 -829l-133 -633h-125l133 633zM936 1628l39 178h139l-39 -178h-139zM600 1628l39 178h137l-39 -178h-137z" />
    <glyph glyph-name="alphatonos" unicode="&#x3ac;" horiz-adv-x="1357" 
d="M485 70q181 0 360 260q56 82 116 184q-17 256 -75 355q-68 116 -220 116q-204 0 -321 -201q-105 -178 -103 -407q0 -151 63 -229t180 -78zM1167 -29q-73 0 -111 47t-52 152l-27 195q-126 -201 -239 -300q-114 -98 -276 -98t-254 111q-91 111 -89 291q0 291 150 505
q150 213 407 213q168 1 262 -113t111 -325l204 406h121l-301 -563l27 -228q14 -114 34 -152t60 -38t70 8l10 -94q-68 -17 -107 -17zM799 1503h155l-241 -295h-117z" />
    <glyph glyph-name="epsilontonos" unicode="&#x3ad;" horiz-adv-x="1058" 
d="M508 502q-314 0 -311 -228q1 -96 75 -150t234 -54q224 0 292 127q22 41 36 90h112q-36 -145 -117 -217q-117 -103 -327 -103t-320 84t-109 210t72 198q72 72 189 100q-63 23 -105 82q-41 59 -41 123q0 139 95 223q115 102 366 101q250 -1 334 -166q25 -49 33 -107
l-105 -20q-29 140 -155 179q-49 15 -123 15q-322 0 -322 -209q0 -74 45 -127t160 -53h219l-16 -98h-211zM719 1503h155l-241 -295h-117z" />
    <glyph glyph-name="etatonos" unicode="&#x3ae;" horiz-adv-x="1146" 
d="M778 1087q147 1 224 -79t77 -222q0 -53 -12 -110l-231 -1073h-119l227 1050q14 68 14 115q0 96 -44 154t-167 59q-123 0 -253 -100q-66 -53 -114 -109t-69 -154l-131 -618h-119l224 1055h118l-36 -172q187 204 411 204zM842 1503h155l-241 -295h-117z" />
    <glyph glyph-name="iotatonos" unicode="&#x3af;" horiz-adv-x="516" 
d="M102 130q0 58 12 112t25 114l148 699h119l-168 -791q-4 -22 -8 -46t-5 -54q1 -30 21 -59q20 -27 83 -27t103 14l17 -94q-58 -21 -159 -22q-100 0 -144 48t-44 106zM477 1503h156l-242 -295h-117z" />
    <glyph glyph-name="upsilondieresistonos" unicode="&#x3b0;" horiz-adv-x="1122" 
d="M476 70q182 0 264 88t124 286l129 611h119l-129 -611q-59 -262 -168 -369q-110 -108 -317 -108q-262 0 -343 164q-28 55 -28 133t20 180l129 611h119l-129 -611q-22 -95 -22 -182q0 -88 66 -140t166 -52zM905 1276l33 158h125l-33 -158h-125zM434 1276l33 158h125
l-33 -158h-125zM766 1507h152l-201 -299h-113z" />
    <glyph glyph-name="alpha" unicode="&#x3b1;" horiz-adv-x="1357" 
d="M242 377q0 -150 63 -228.5t186 -78.5t231 110.5t239 333.5q-17 256 -79.5 363.5t-215.5 107.5q-109 0 -189 -56.5t-157.5 -187.5t-77.5 -364zM1167 -29q-72 0 -110.5 47.5t-52.5 151.5l-27 195q-126 -202 -240 -300t-275 -98q-160 0 -251.5 110t-91.5 270
q0 314 149.5 527t407.5 213q168 0 262 -113.5t111 -324.5l204 406h121l-301 -563l27 -228q14 -113 34 -151.5t60 -38.5t70 8l10 -94q-68 -17 -107 -17z" />
    <glyph glyph-name="beta" unicode="&#x3b2;" horiz-adv-x="1165" 
d="M961 453q0 129 -78 203.5t-224 74.5h-116l22 103h84q144 0 253.5 84.5t109.5 242.5q0 102 -67 158.5t-165 56.5q-172 0 -254.5 -80t-117.5 -239l-134 -617q-8 -40 -8 -84q0 -111 88 -190q91 -86 252 -86q355 0 355 373zM1085 432q0 -80 -32.5 -168t-129 -187.5
t-323.5 -99.5q-119 0 -220 51.5t-159 151.5l-123 -577h-118l309 1452q47 217 165.5 320.5t329.5 103.5q148 0 249.5 -84.5t101.5 -228.5t-83 -235t-210 -136q108 -31 175.5 -126t67.5 -237z" />
    <glyph glyph-name="gamma" unicode="&#x3b3;" horiz-adv-x="1017" 
d="M272 -395l88 418l-225 1032h133l176 -899l547 899h142l-654 -1032l-88 -418h-119z" />
    <glyph glyph-name="delta" unicode="&#x3b4;" horiz-adv-x="1169" 
d="M954 510q0 207 -113.5 288t-164.5 113q-192 -37 -311 -177t-119 -345q0 -140 83.5 -229.5t234.5 -89.5q170 0 280 116.5t110 323.5zM1032 1196q-36 186 -230 186q-157 0 -216.5 -43.5t-59.5 -100.5q0 -56 23.5 -89t63.5 -63.5t91.5 -61.5t145 -97t162.5 -170.5t69 -237.5
q0 -134 -40 -231.5t-111.5 -168t-168.5 -111.5t-199 -41q-198 0 -320.5 117t-122.5 299q0 229 139 385.5t338 206.5q-87 59 -133.5 112t-46.5 127q0 139 108 202t269 63q236 0 285.5 -105.5t56.5 -156.5z" />
    <glyph glyph-name="epsilon" unicode="&#x3b5;" horiz-adv-x="1058" 
d="M311 780q0 -74 45 -127t160 -53h219l-16 -98h-211q-218 0 -264.5 -79t-46.5 -162t74.5 -137t234.5 -54q225 0 269 84t59 133h112q-36 -147 -135 -233.5t-310 -86.5t-319 83t-108 210t71.5 198.5t188.5 100.5q-63 23 -104.5 82t-41.5 123q0 140 104.5 231.5t344.5 91.5
q175 0 268.5 -74t110.5 -198l-105 -20q-40 194 -278 194q-322 0 -322 -209z" />
    <glyph glyph-name="zeta" unicode="&#x3b6;" horiz-adv-x="944" 
d="M807 -182q0 45 -34 79.5t-140 67.5l-107 33q-324 100 -323 375q0 309 200.5 510.5t346 300t278.5 176.5h-561l20 102h740l-21 -100q-256 -154 -368.5 -236t-201.5 -162.5t-156.5 -172t-108.5 -192.5t-41 -214t56 -176.5t181 -104.5l113 -36q109 -36 175.5 -84t66.5 -143
q0 -164 -138 -263l-71 64q94 75 94 176z" />
    <glyph glyph-name="eta" unicode="&#x3b7;" horiz-adv-x="1146" 
d="M778 1087q147 0 224 -79.5t77 -221.5q0 -53 -12 -110l-231 -1073h-119l227 1050q14 68 14 115q0 96 -44 154.5t-154 58.5q-202 0 -315 -133t-134 -230l-131 -618h-119l224 1055h118l-36 -172q187 204 411 204z" />
    <glyph glyph-name="theta" unicode="&#x3b8;" horiz-adv-x="1206" 
d="M1079 981q0 203 -64.5 299t-211.5 96q-193 0 -322.5 -163t-183.5 -433h766q16 136 16 201zM264 459q0 -193 65 -293t208 -100q402 0 512 612h-768q-17 -117 -17 -219zM813 1479q182 0 283.5 -121t101.5 -371q0 -385 -129.5 -638t-273.5 -319.5t-269 -66.5
q-182 0 -283.5 127t-101.5 363q0 364 132.5 625t275.5 331t264 70z" />
    <glyph glyph-name="iota" unicode="&#x3b9;" horiz-adv-x="516" 
d="M102 130q0 58 12.5 112.5t24.5 113.5l148 699h119l-168 -791q-4 -23 -8.5 -46t-4.5 -46q0 -94 101 -94q65 0 106 14l17 -94q-62 -23 -161 -23t-142.5 48.5t-43.5 106.5z" />
    <glyph glyph-name="kappa" unicode="&#x3ba;" horiz-adv-x="1009" 
d="M61 0l224 1055h118l-114 -539l649 539h154l-453 -385l279 -670h-136l-241 602l-283 -231l-78 -371h-119z" />
    <glyph glyph-name="lambda" unicode="&#x3bb;" horiz-adv-x="1019" 
d="M463 1378q-59 0 -123 -20l-16 96q86 29 168 29t137 -51.5t80 -186.5l237 -1245h-131l-158 938l-575 -938h-135l678 1083l-21 121q-16 98 -49 136t-92 38z" />
    <glyph glyph-name="uni03BC" unicode="&#x3bc;" horiz-adv-x="1120" 
d="M244 286q0 -212 190 -212q186 0 363 210q47 56 67 152l131 619h119l-223 -1055h-119l37 172q-181 -205 -395 -205q-165 0 -228 107l-100 -471h-119l309 1452h119l-141 -664q-10 -63 -10 -105z" />
    <glyph glyph-name="nu" unicode="&#x3bd;" horiz-adv-x="1015" 
d="M483 0h-139l-203 1055h131l164 -926l561 926h136z" />
    <glyph glyph-name="xi" unicode="&#x3be;" horiz-adv-x="989" 
d="M756 -182q0 45 -34 80.5t-140 66.5l-174 49q-306 87 -306 384q0 175 93 278t251 139q-168 76 -167 289q0 161 114 278t317 117t299 -81.5t113 -209.5l-106 -22q-24 107 -86.5 159t-204.5 52q-212 0 -268 -100.5t-56 -202.5t58.5 -173t181.5 -71h217l-20 -98h-201
q-296 0 -354 -127t-58 -207q0 -138 60 -202.5t190 -102.5l168 -47q153 -39 190 -107.5t37 -140.5t-38.5 -134.5t-98.5 -105.5l-71 64q94 75 94 176z" />
    <glyph glyph-name="omicron" unicode="&#x3bf;" horiz-adv-x="1206" 
d="M556 -33q-200 0 -317.5 120.5t-117.5 318.5q0 305 173.5 493t430.5 188q184 0 300 -121.5t116 -297.5q0 -177 -46 -302.5t-127 -215t-191.5 -136.5t-220.5 -47zM547 70q207 0 337 161.5t130 407.5q0 154 -75 250t-224 96q-209 0 -338 -161.5t-129 -407.5
q0 -154 74.5 -250t224.5 -96z" />
    <glyph glyph-name="pi" unicode="&#x3c0;" horiz-adv-x="1187" 
d="M741 145q0 40 13.5 105t25.5 127l121 575h-434l-201 -952h-119l201 952h-221l23 103h1095l-22 -103h-203l-141 -667q-19 -83 -19 -118q0 -34 12.5 -61.5t57.5 -27.5t88 12l18 -92q-53 -23 -136 -23q-159 0 -159 170z" />
    <glyph glyph-name="rho" unicode="&#x3c1;" horiz-adv-x="1193" 
d="M915 272.5q86 116.5 86 362.5t-111.5 298t-201.5 52q-175 0 -265 -122.5t-132 -327.5l-19 -91q-14 -61 -14 -114q0 -101 85 -180q85 -80 229 -80q91 0 174 43t169 159.5zM1128 653q0 -297 -152.5 -491.5t-422.5 -194.5q-111 0 -199 48t-141 139l-119 -551h-119l203 948
q61 285 195.5 410.5t326.5 125.5t310 -120t118 -314z" />
    <glyph glyph-name="sigma1" unicode="&#x3c2;" horiz-adv-x="1071" 
d="M958 715q-33 270 -276 270q-193 0 -312.5 -155t-119.5 -406q0 -204 87 -250.5t138 -60.5l164 -47q153 -39 190 -107.5t37 -140.5t-39 -134.5t-98 -105.5l-72 64q95 76 95 176q0 45 -34 80.5t-140 66.5l-166 49q-194 51 -241.5 177.5t-47.5 252.5t46 251.5t163.5 258.5
t351.5 133q183 0 278.5 -99t108.5 -251z" />
    <glyph glyph-name="sigma" unicode="&#x3c3;" horiz-adv-x="1208" 
d="M776 954q-238 0 -383 -136.5t-145 -401.5q0 -158 77 -252t218 -94q198 0 311 144.5t113 373.5t-127 366h-64zM1092 576q0 -126 -42 -242.5t-157.5 -241.5t-360.5 -125q-177 0 -294 120.5t-117 304.5q0 331 190 497t441 166h495l-22 -103h-269q136 -146 136 -376z" />
    <glyph glyph-name="tau" unicode="&#x3c4;" horiz-adv-x="987" 
d="M598 -29q-279 0 -279 230q0 43 12.5 98t22.5 109l117 544h-350l20 103h897l-20 -103h-428l-144 -667q-8 -32 -8 -64q0 -80 43 -113.5t121 -33.5t189 32l24 -96q-85 -39 -217 -39z" />
    <glyph glyph-name="upsilon" unicode="&#x3c5;" horiz-adv-x="1122" 
d="M476 70q182 0 264.5 88t123.5 286l129 611h119l-129 -611q-59 -261 -167.5 -369t-317.5 -108q-262 0 -316.5 109.5t-54.5 187.5t20 180l129 611h119l-129 -611q-22 -95 -22 -182q0 -88 65.5 -140t166.5 -52z" />
    <glyph glyph-name="phi" unicode="&#x3c6;" horiz-adv-x="1511" 
d="M1313 575q0 168 -103.5 285t-271.5 125l-193 -919q268 12 418 148t150 361zM246 480q0 -184 105.5 -295t279.5 -115l192 917q-283 -8 -430 -145.5t-147 -361.5zM119 478q0 126 55 244t212 246.5t503 118.5q262 -8 406.5 -151t144.5 -352q0 -278 -200 -444.5t-515 -170.5
l-78 -366h-115l78 370q-219 12 -355 146t-136 359z" />
    <glyph glyph-name="chi" unicode="&#x3c7;" horiz-adv-x="1009" 
d="M227 1085q80 0 123 -64.5t74 -182.5l94 -367l436 584h136l-527 -705l142 -483q29 -104 55 -144t70 -40t88 16l20 -92q-54 -27 -115 -27q-104 0 -146.5 56.5t-84.5 207.5l-115 422l-497 -663h-132l584 780l-125 451q-23 78 -49.5 113.5t-66.5 35.5t-85 -16l-20 92
q61 26 141 26z" />
    <glyph glyph-name="psi" unicode="&#x3c8;" horiz-adv-x="1568" 
d="M627 -25q-209 17 -341 121.5t-132 306.5q0 104 22 205l94 447h119l-94 -447q-23 -102 -23 -186q0 -165 95.5 -246.5t279.5 -99.5l209 979h115l-209 -983q237 17 381.5 144t204.5 411l90 428h118l-90 -428q-69 -329 -240 -481.5t-485 -174.5l-77 -368h-115z" />
    <glyph glyph-name="omega" unicode="&#x3c9;" horiz-adv-x="1622" 
d="M1546 677q0 -124 -24.5 -247t-82 -226.5t-148.5 -170t-223 -66.5t-204.5 66.5t-91.5 167.5q-57 -107 -142 -170.5t-222 -63.5q-211 0 -258.5 127.5t-47.5 225.5q0 374 332 749l92 -51q-141 -170 -224 -342t-83 -363q0 -244 205 -243q139 0 213 93t117 259l65 303h115
l-60 -276q-14 -57 -14 -158q0 -100 57 -160.5t157 -60.5t170.5 61.5t129 189.5t58.5 333t-78 364l96 51q31 -57 63.5 -162.5t32.5 -229.5z" />
    <glyph glyph-name="iotadieresis" unicode="&#x3ca;" horiz-adv-x="516" 
d="M102 130q0 58 12.5 112.5t24.5 113.5l148 699h119l-168 -791q-4 -23 -8.5 -46t-4.5 -46q0 -94 101 -94q65 0 106 14l17 -94q-62 -23 -161 -23t-142.5 48.5t-43.5 106.5zM561 1268l37 174h135l-37 -174h-135zM233 1268l37 174h133l-36 -174h-134z" />
    <glyph glyph-name="upsilondieresis" unicode="&#x3cb;" horiz-adv-x="1122" 
d="M476 70q182 0 264 88t124 286l129 611h119l-129 -611q-59 -262 -168 -369q-110 -108 -317 -108q-262 0 -343 164q-28 55 -28 133t20 180l129 611h119l-129 -611q-22 -95 -22 -182q0 -88 66 -140t166 -52zM834 1268l36 174h136l-37 -174h-135zM506 1268l37 174h133
l-37 -174h-133z" />
    <glyph glyph-name="omicrontonos" unicode="&#x3cc;" horiz-adv-x="1206" 
d="M556 -33q-201 0 -318 121t-117 299q0 177 48 303q97 254 321 350q110 47 218 47q108 1 185 -31q248 -103 248 -437q0 -128 -46 -253q-93 -256 -319 -352q-110 -48 -220 -47zM547 70q206 0 337 162q130 162 130 407q0 154 -75 250t-224 96q-209 0 -338 -163t-129 -406
q0 -154 74 -250t225 -96zM852 1503h156l-242 -295h-117z" />
    <glyph glyph-name="upsilontonos" unicode="&#x3cd;" horiz-adv-x="1122" 
d="M476 70q182 0 264 88t124 286l129 611h119l-129 -611q-59 -262 -168 -369q-110 -108 -317 -108q-262 0 -343 164q-28 55 -28 133t20 180l129 611h119l-129 -611q-22 -95 -22 -182q0 -88 66 -140t166 -52zM823 1503h156l-242 -295h-116z" />
    <glyph glyph-name="omegatonos" unicode="&#x3ce;" horiz-adv-x="1622" 
d="M1546 677q0 -124 -24 -247q-53 -267 -231 -396q-91 -67 -223 -67t-205 66q-72 66 -91 168q-57 -107 -115 -150q-110 -82 -247 -83q-136 -1 -222 86t-86 255q0 390 332 760l92 -51q-141 -170 -224 -342t-83 -363q0 -244 205 -243q139 0 227 110q64 80 103 242l65 303h115
l-60 -276q-14 -57 -14 -158t56 -161t157 -60t171 61t113 153q72 159 74 366q1 206 -77 368l96 51q32 -57 64 -163t32 -229zM1051 1503h155l-241 -295h-117z" />
    <glyph glyph-name="uni0400" unicode="&#x400;" horiz-adv-x="1204" 
d="M498 1350l-115 -537h754l-25 -117h-754l-125 -581h838l-49 -115h-936l309 1462h920l-23 -112h-794zM899 1585l-213 264h154l180 -264h-121z" />
    <glyph glyph-name="afii10023" unicode="&#x401;" horiz-adv-x="1204" 
d="M498 1350l-115 -537h754l-25 -117h-754l-125 -581h838l-49 -115h-936l309 1462h920l-23 -112h-794zM973 1628l39 178h139l-39 -178h-139zM637 1628l39 178h137l-39 -178h-137z" />
    <glyph glyph-name="afii10051" unicode="&#x402;" horiz-adv-x="1552" 
d="M1092 899q254 0 325.5 -138t71.5 -239q0 -522 -682 -522h-92l22 111h115q245 4 377.5 94.5t132.5 307.5t-141.5 247.5t-225.5 30.5q-202 0 -374 -66l-164 -725h-125l305 1352h-410l23 110h1053l-23 -110h-516l-119 -518q193 65 447 65z" />
    <glyph glyph-name="afii10052" unicode="&#x403;" horiz-adv-x="1060" 
d="M672 1585l272 264h166l-307 -264h-131zM496 1350l-285 -1350h-125l309 1462h869l-25 -112h-743z" />
    <glyph glyph-name="afii10053" unicode="&#x404;" horiz-adv-x="1466" 
d="M289 553q0 -82 29.5 -173t119.5 -198.5t300 -107.5q209 0 319.5 87t161.5 263h122q-60 -230 -205 -345.5t-399 -115.5t-414.5 161.5t-160.5 438.5q0 186 52 356.5t152.5 299.5t244 204.5t343.5 75.5t326.5 -110.5t155.5 -315.5l-121 -24q-27 174 -118 258t-269 84
q-233 0 -397.5 -163t-215.5 -423h736l-23 -109h-733q-6 -61 -6 -143z" />
    <glyph glyph-name="afii10054" unicode="&#x405;" horiz-adv-x="1314" 
d="M791 1391q-391 0 -396 -301q0 -156 126 -219q48 -24 122 -40l203 -43q330 -65 330 -366q0 -216 -153 -338q-153 -121 -386 -121q-534 0 -547 420h123q24 -243 245 -292q77 -17 184 -17q300 0 376 211q37 103 14 214q-17 79 -98 129q-43 26 -111 40l-211 45
q-158 35 -250 119t-92 237q0 210 143 321t381 110q239 -1 361 -108q121 -107 143 -272l-116 -24q-23 143 -111 219t-280 76z" />
    <glyph glyph-name="afii10055" unicode="&#x406;" horiz-adv-x="460" 
d="M86 0l309 1462h125l-309 -1462h-125z" />
    <glyph glyph-name="afii10056" unicode="&#x407;" horiz-adv-x="460" 
d="M86 0l309 1462h125l-309 -1462h-125zM571 1628l39 178h140l-39 -178h-140zM236 1628l38 178h138l-39 -178h-137z" />
    <glyph glyph-name="afii10057" unicode="&#x408;" horiz-adv-x="1179" 
d="M487 -37q-302 0 -398 218q-32 73 -32 171v25q0 12 2 26h119v-26q0 -145 63 -215q79 -90 262 -89q185 1 279 107t136 303l206 979h125l-213 -1003q-53 -256 -186 -376t-363 -120z" />
    <glyph glyph-name="afii10058" unicode="&#x409;" horiz-adv-x="2213" 
d="M2099 500q0 -500 -614 -500h-455l285 1352h-481l-189 -602q-140 -442 -291.5 -601t-365.5 -159h-27l23 114h26q70 0 135.5 29t164 149t235.5 549l196 631h723l-121 -571h242q254 0 384 -87.5t130 -303.5zM1503 109q244 0 356.5 90t112.5 303q0 147 -91 213.5t-259 66.5
h-303l-141 -673h325z" />
    <glyph glyph-name="afii10059" unicode="&#x40a;" horiz-adv-x="2140" 
d="M1440 109q244 0 352.5 88t108.5 288q0 111 -86 177.5t-254 66.5h-330l-131 -620h340zM2028 483q0 -483 -607 -483h-469l152 725h-725l-152 -725h-125l310 1462h125l-134 -624h725l134 624h124l-131 -624h256q376 0 446.5 -131.5t70.5 -223.5z" />
    <glyph glyph-name="afii10060" unicode="&#x40b;" horiz-adv-x="1507" 
d="M963 858q176 0 283.5 -81t107.5 -247q0 -67 -15 -133l-82 -397h-122l73 356q19 93 19 162q0 121 -71.5 178.5t-235.5 57.5q-165 0 -336 -66l-146 -688h-125l287 1354h-373l23 108h1024l-23 -108h-526l-119 -561q181 65 357 65z" />
    <glyph glyph-name="afii10061" unicode="&#x40c;" horiz-adv-x="1265" 
d="M1382 1343q-45 9 -93 9t-94 -29t-116 -129l-133 -193q-57 -84 -113 -139t-147 -90q47 -16 84 -56t76 -124l270 -592h-133l-221 502q-51 116 -109 158t-164 42h-129l-149 -702h-125l309 1462h125l-137 -643h88q123 1 211 63t172 183l127 184q88 125 163 169t181 44
q19 0 49 -5q29 -5 43 -7zM754 1585l272 264h166l-307 -264h-131z" />
    <glyph glyph-name="uni040D" unicode="&#x40d;" horiz-adv-x="1384" 
d="M1012 0l268 1253l-1069 -1253h-125l311 1462h123l-270 -1247l1067 1247h127l-311 -1462h-121zM901 1585l-213 264h154l180 -264h-121z" />
    <glyph glyph-name="afii10062" unicode="&#x40e;" horiz-adv-x="1144" 
d="M74 109q84 -37 154 -37q69 0 117 34t104 119l108 166l-299 1071h133l246 -952l592 952h139l-723 -1145q-130 -206 -193 -263q-63 -56 -112 -73t-130 -17t-177 44zM571 1825q0 23 7 57h96q-4 -18 -4 -26v-19q0 -135 176 -135t231 180h99q-66 -268 -342 -268
q-131 0 -197 56t-66 155z" />
    <glyph glyph-name="afii10145" unicode="&#x40f;" horiz-adv-x="1376" 
d="M1026 113l285 1349h125l-310 -1462h-444l-72 -354h-118l71 354h-477l309 1462h125l-284 -1349h790z" />
    <glyph glyph-name="afii10017" unicode="&#x410;" horiz-adv-x="1353" 
d="M418 561h598l-139 764zM831 1462h148l268 -1462h-129l-82 446h-688l-268 -446h-137z" />
    <glyph glyph-name="afii10018" unicode="&#x411;" horiz-adv-x="1271" 
d="M610 109q244 0 355.5 90t111.5 303q0 123 -83 191.5t-251 68.5h-372l-138 -653h377zM688 870q252 0 384 -83.5t132 -286.5q0 -240 -145.5 -370t-466.5 -130h-506l309 1462h854l-24 -114h-729l-101 -478h293z" />
    <glyph glyph-name="afii10019" unicode="&#x412;" horiz-adv-x="1277" 
d="M606 111q251 0 356 83t105 259q0 113 -82 184.5t-246 71.5h-381l-127 -598h375zM741 821q294 0 359 111.5t65 182.5t-32.5 155t-282.5 84h-354l-113 -533h358zM1292 1145q0 -287 -315 -381q106 -41 164.5 -126t58.5 -244t-149.5 -276.5t-462.5 -117.5h-502l309 1462h473
q234 0 329 -95t95 -222z" />
    <glyph glyph-name="afii10020" unicode="&#x413;" horiz-adv-x="1060" 
d="M496 1350l-285 -1350h-125l309 1462h869l-25 -112h-743z" />
    <glyph glyph-name="afii10021" unicode="&#x414;" horiz-adv-x="1413" 
d="M780 1352l-75 -244q-186 -610 -301 -771t-185 -224h832l266 1239h-537zM43 0l-82 -354h-119l107 467h108q159 121 278.5 356.5t264.5 699.5l90 293h774l-288 -1349h129l-101 -467h-119l76 354h-1118z" />
    <glyph glyph-name="afii10022" unicode="&#x415;" horiz-adv-x="1204" 
d="M498 1350l-115 -537h754l-25 -117h-754l-125 -581h838l-49 -115h-936l309 1462h920l-23 -112h-794z" />
    <glyph glyph-name="afii10024" unicode="&#x416;" horiz-adv-x="1990" 
d="M1933.5 1322q-51.5 -30 -114.5 -128l-129 -193q-57 -84 -113.5 -139t-146.5 -90q47 -16 83.5 -56t75.5 -124l266 -592h-139l-217 502q-53 120 -105 160t-153 40h-111l-149 -702h-125l148 702h-127q-101 0 -150 -30.5t-86 -69.5t-88 -100l-418 -502h-155l493 590
q72 88 126 129t124 57q-59 29 -92 84t-56 139l-51 211q-23 86 -55.5 117t-81.5 31t-111 -8l13 100q14 2 39 7t66 5q96 0 147 -39.5t82 -156.5l51 -201q33 -127 91 -186.5t173 -59.5h92l135 643h125l-137 -643h74q208 0 370 246l123 184q82 125 162 169t182 44q22 0 50 -5
t43 -7l-35 -107q-45 9 -91 9t-97.5 -30z" />
    <glyph glyph-name="afii10025" unicode="&#x417;" horiz-adv-x="1230" 
d="M586 72q399 0 399 374q0 131 -78 196t-209 65h-194l24 112h185q391 0 391 334q0 106 -75 171t-189 65q-203 0 -296 -59t-147 -200l-114 21q55 163 178 255.5t335 92.5t321.5 -95.5t109.5 -244.5q0 -312 -301 -401q106 -53 145 -136t39 -165q0 -246 -143 -371t-381 -125
q-471 0 -482 397h119q14 -166 104.5 -226t258.5 -60z" />
    <glyph glyph-name="afii10026" unicode="&#x418;" horiz-adv-x="1384" 
d="M1012 0l268 1253l-1069 -1253h-125l311 1462h123l-270 -1247l1067 1247h127l-311 -1462h-121z" />
    <glyph glyph-name="afii10027" unicode="&#x419;" horiz-adv-x="1384" 
d="M1012 0l268 1253l-1069 -1253h-125l311 1462h123l-270 -1247l1067 1247h127l-311 -1462h-121zM698 1825q0 23 7 57h96q-4 -18 -4 -26v-19q0 -135 176 -135t231 180h99q-66 -268 -342 -268q-131 0 -197 56t-66 155z" />
    <glyph glyph-name="afii10028" unicode="&#x41a;" horiz-adv-x="1265" 
d="M1197 1323q-48 -29 -118 -129l-133 -193q-57 -84 -113.5 -139t-146.5 -90q47 -16 84 -56t76 -124l270 -592h-133l-221 502q-50 115 -108 157.5t-165 42.5h-129l-149 -702h-125l309 1462h125l-137 -643h88q123 0 211 62.5t172 183.5l127 184q88 125 163.5 169t180.5 44
q19 0 49 -5q29 -5 43 -7l-35 -107q-45 9 -91 9t-94 -29z" />
    <glyph glyph-name="afii10029" unicode="&#x41b;" horiz-adv-x="1456" 
d="M-12 -10h-27l23 114h26q70 0 135.5 29t164 149t235.5 549l196 631h775l-310 -1462h-125l287 1352h-534l-189 -602q-140 -442 -291.5 -601t-365.5 -159z" />
    <glyph glyph-name="afii10030" unicode="&#x41c;" horiz-adv-x="1716" 
d="M715 0l-248 1245l-264 -1245h-117l309 1462h156l252 -1317l813 1317h160l-310 -1462h-116l266 1251l-782 -1251h-119z" />
    <glyph glyph-name="afii10031" unicode="&#x41d;" horiz-adv-x="1411" 
d="M1036 0l148 698h-826l-147 -698h-125l309 1462h125l-137 -647h825l138 647h124l-309 -1462h-125z" />
    <glyph glyph-name="afii10032" unicode="&#x41e;" horiz-adv-x="1548" 
d="M766 74q132 0 253 70q122 70 206 187q172 238 172 560q0 224 -117 361t-330 137q-154 0 -276 -72t-205 -187q-84 -115 -128 -262q-44 -146 -44 -276t29 -221q94 -297 440 -297zM954 1499q250 0 413 -163t163 -441q0 -170 -52 -336q-110 -351 -402 -514q-146 -82 -337 -82
q-248 0 -411 161q-164 161 -164 441q0 168 54 336q113 351 404 515q146 83 332 83z" />
    <glyph glyph-name="afii10033" unicode="&#x41f;" horiz-adv-x="1388" 
d="M512 1350l-285 -1350h-125l310 1462h1052l-309 -1462h-125l285 1350h-803z" />
    <glyph glyph-name="afii10034" unicode="&#x420;" horiz-adv-x="1267" 
d="M702 700q236 0 361 93t125 315q0 242 -348 246h-344l-140 -654h346zM1317 1106q0 -261 -169 -388q-169 -126 -464 -126h-350l-125 -592h-123l309 1462h465q236 0 359 -116q98 -94 98 -240z" />
    <glyph glyph-name="afii10035" unicode="&#x421;" horiz-adv-x="1452" 
d="M740 -37q-130 0 -234 41q-215 85 -301 306q-43 112 -43 276t52 334q107 352 396 503q143 76 328 76q229 0 359 -124t153 -349l-125 -25q-27 199 -119 294t-258 95q-302 1 -476 -234q-175 -235 -175 -581q0 -213 115 -357t327 -144q301 0 431 224q40 69 59 151h137
q-84 -343 -391 -449q-105 -36 -235 -37z" />
    <glyph glyph-name="afii10036" unicode="&#x422;" horiz-adv-x="1208" 
d="M870 1348l-284 -1348h-125l284 1348h-507l24 114h1139l-25 -114h-506z" />
    <glyph glyph-name="afii10037" unicode="&#x423;" horiz-adv-x="1144" 
d="M210 -37q-81 0 -177 45l41 101q84 -37 154 -37q69 0 117 33.5t104 119.5l108 166l-299 1071h133l246 -952l592 952h139l-723 -1145q-130 -206 -193 -262.5t-112 -74t-130 -17.5z" />
    <glyph glyph-name="afii10038" unicode="&#x424;" horiz-adv-x="1654" 
d="M317 693q0 -121 61 -250.5t370 -155.5l204 968q-451 -19 -543 -230t-92 -332zM1507 851q0 122 -60.5 250t-369.5 154l-205 -968q454 20 544.5 231t90.5 333zM186 694q0 140 60.5 265.5t220.5 256t508 142.5l35 166h125l-37 -170q237 -21 388.5 -141.5t151.5 -335.5
q0 -322 -217 -499t-571 -192l-39 -186h-125l39 188q-239 21 -347 109t-150 172.5t-42 224.5z" />
    <glyph glyph-name="afii10039" unicode="&#x425;" horiz-adv-x="1255" 
d="M776 760l371 -760h-143l-322 674l-592 -674h-143l682 778l-332 684h139l283 -606l538 606h142z" />
    <glyph glyph-name="afii10040" unicode="&#x426;" horiz-adv-x="1349" 
d="M1100 0h-1014l309 1462h125l-284 -1349h753l285 1349h125l-285 -1349h129l-100 -467h-119z" />
    <glyph glyph-name="afii10041" unicode="&#x427;" horiz-adv-x="1263" 
d="M651 608q-301 0 -363.5 128t-62.5 211t15 140l79 375h125l-69 -329q-23 -104 -23 -158q0 -131 75 -194.5t249 -63.5t368 65l152 680h127l-330 -1462h-127l152 676q-189 -68 -367 -68z" />
    <glyph glyph-name="afii10042" unicode="&#x428;" horiz-adv-x="1910" 
d="M834 113l286 1349h125l-287 -1349h603l284 1349h125l-309 -1462h-1575l309 1462h125l-284 -1349h598z" />
    <glyph glyph-name="afii10043" unicode="&#x429;" horiz-adv-x="1918" 
d="M1671 0h-1585l309 1462h125l-284 -1349h598l286 1349h125l-287 -1349h603l284 1349h125l-284 -1349h129l-101 -467h-119z" />
    <glyph glyph-name="afii10044" unicode="&#x42a;" horiz-adv-x="1417" 
d="M729 109q244 0 356.5 90t112.5 303q0 139 -91 209.5t-259 70.5h-375l-141 -673h397zM1325 500q0 -500 -614 -500h-527l285 1350h-309l24 112h434l-120 -571h313q514 0 514 -391z" />
    <glyph glyph-name="afii10045" unicode="&#x42b;" horiz-adv-x="1687" 
d="M592 109q244 0 356.5 90t112.5 303q0 139 -91 209.5t-259 70.5h-336l-142 -673h359zM1313 0l309 1462h125l-309 -1462h-125zM1188 500q0 -500 -615 -500h-487l309 1462h125l-121 -571h275q514 0 514 -391z" />
    <glyph glyph-name="afii10046" unicode="&#x42c;" horiz-adv-x="1294" 
d="M1202 500q0 -500 -614 -500h-502l309 1462h125l-121 -571h289q514 0 514 -391zM606 111q244 0 356.5 89t112.5 302q0 139 -91 209.5t-259 70.5h-350l-142 -671h373z" />
    <glyph glyph-name="afii10047" unicode="&#x42d;" horiz-adv-x="1454" 
d="M1309 924q0 78 -30 169t-114.5 193.5t-277.5 102.5q-365 0 -510 -351l-119 35q86 207 247 316.5t390 109.5t385 -161t156 -443q0 -168 -45 -334t-139.5 -299t-242 -216t-355.5 -83t-348 122.5t-156 338.5h122q20 -156 118.5 -253t257.5 -97q286 0 441.5 176t198.5 446
h-737l22 109h732q4 41 4 119z" />
    <glyph glyph-name="afii10048" unicode="&#x42e;" horiz-adv-x="1984" 
d="M1228 74q124 0 240.5 70.5t197.5 186t124 262.5t43 277q0 247 -110 383t-310 136q-147 0 -264 -72t-198 -186.5t-125 -261.5t-44 -277t28 -221.5t81 -157.5t133 -102.5t204 -36.5zM653 529q0 107 9 169h-304l-147 -698h-125l309 1462h125l-137 -649h299
q67 291 262.5 488.5t472.5 197.5q240 0 394.5 -163t154.5 -441q0 -170 -51 -336t-148.5 -299t-240 -215t-324.5 -82q-238 0 -351.5 118t-155.5 229.5t-42 218.5z" />
    <glyph glyph-name="afii10049" unicode="&#x42f;" horiz-adv-x="1325" 
d="M905 1352q-246 0 -357.5 -78t-111.5 -266q0 -115 80 -189t248 -74h346l127 607h-332zM309 1010q0 452 615 452h460l-309 -1462h-125l135 639h-288q-133 0 -218 -59.5t-167 -184.5l-267 -395h-143l303 455q45 66 100.5 126t151.5 95q-115 37 -181.5 120t-66.5 214z" />
    <glyph glyph-name="afii10065" unicode="&#x430;" horiz-adv-x="1077" 
d="M178 254q0 -70 45 -121t179 -51t223 60q90 60 131.5 115.5t60.5 148.5l35 163l-199 -8q-269 -12 -372 -82.5t-103 -224.5zM51 245q0 218 157.5 307.5t446.5 102.5l215 9q17 85 17 124q0 96 -54.5 153.5t-197.5 57.5t-211 -37.5t-111 -142.5l-110 19q49 143 156.5 202.5
t290.5 59.5t270.5 -83t87.5 -229q0 -47 -15 -122l-141 -666h-119l31 150q-72 -72 -166 -123.5t-232 -51.5t-226.5 75t-88.5 195z" />
    <glyph glyph-name="afii10066" unicode="&#x431;" horiz-adv-x="1196" 
d="M983 551q0 350 -281 350q-189 0 -319 -139q-117 -122 -117 -268q0 -203 67.5 -315.5t246.5 -112.5t291 143t112 342zM1112 603q0 -294 -153.5 -467t-399.5 -173q-199 0 -309.5 134.5t-110.5 415.5t138 498.5t264 294t255.5 109.5t239.5 55l138 27l-7 -111l-163 -30
q-327 -65 -470 -192t-210 -345q170 185 405 185q185 0 284 -123.5t99 -277.5z" />
    <glyph glyph-name="afii10067" unicode="&#x432;" horiz-adv-x="1091" 
d="M551 100q174 0 244.5 55.5t70.5 166.5q0 74 -50 126t-173 52h-358l-84 -400h350zM938 821q0 146 -217 146h-338l-78 -367h340q202 0 247.5 80t45.5 141zM989 326q0 -150 -103.5 -238t-338.5 -88h-486l224 1067h458q172 0 244 -71t72 -163q0 -93 -55.5 -172t-167.5 -112
q70 -23 111.5 -87.5t41.5 -135.5z" />
    <glyph glyph-name="afii10068" unicode="&#x433;" horiz-adv-x="845" 
d="M287 1067h682l-23 -106h-563l-203 -961h-119z" />
    <glyph glyph-name="afii10069" unicode="&#x434;" horiz-adv-x="1120" 
d="M412 535q-82 -242 -135.5 -317t-86.5 -114h594l181 861h-412zM-55 104h106q152 136 273 504l149 459h631l-203 -963h121l-82 -391h-109l62 287h-866l-60 -287h-108z" />
    <glyph glyph-name="afii10070" unicode="&#x435;" horiz-adv-x="1146" 
d="M971 700q0 133 -72.5 218.5t-226.5 85.5t-263.5 -102.5t-148.5 -295.5h705q6 27 6 94zM242 480v-78q0 -50 18.5 -115.5t81 -143t227.5 -77.5q203 0 256.5 82.5t69.5 127.5h117q-56 -153 -158 -231t-303 -78t-316.5 132t-115.5 310q0 331 163 511t408 180
q191 0 293 -114.5t102 -295.5q0 -96 -10 -153l-6 -33h-825q-2 -20 -2 -24z" />
    <glyph glyph-name="afii10072" unicode="&#x436;" horiz-adv-x="1497" 
d="M250 973q-41 0 -82 -8l8 92q12 2 26 4t27 4t45 2q75 0 108 -40t54 -134l35 -145q37 -160 203 -160h57l100 479h117l-100 -479h47q86 0 146.5 37t117.5 123l96 143q70 102 123.5 139t147.5 37q23 0 44 -4t32 -6l-33 -96q-41 8 -79 8t-69.5 -30t-66.5 -83l-99 -149
q-71 -107 -180 -154q63 -27 111 -125l205 -428h-129l-187 395q-25 53 -65.5 77t-112.5 24h-70l-104 -496h-117l105 496h-64q-123 0 -211 -101l-354 -395h-148l385 428q83 94 164 123q-78 30 -108 156l-41 163q-12 47 -27.5 75t-56.5 28z" />
    <glyph glyph-name="afii10073" unicode="&#x437;" horiz-adv-x="1042" 
d="M655 1100q140 0 251.5 -66t111.5 -192q0 -125 -69.5 -192.5t-168.5 -96.5q80 -39 116 -101.5t36 -127.5q0 -357 -447 -357q-272 0 -338.5 117t-70.5 205h110q16 -125 95 -172t175 -47q185 0 268 50.5t83 190.5q0 80 -54.5 138.5t-164.5 58.5h-223l20 98h219q195 0 244 76
t49 146t-59.5 119.5t-165.5 49.5q-182 0 -259.5 -44t-115.5 -140l-107 21q84 266 465 266z" />
    <glyph glyph-name="afii10074" unicode="&#x438;" horiz-adv-x="1130" 
d="M772 0l191 891l-770 -891h-132l228 1067h119l-191 -887l764 887h137l-227 -1067h-119z" />
    <glyph glyph-name="afii10075" unicode="&#x439;" horiz-adv-x="1130" 
d="M772 0l191 891l-770 -891h-132l228 1067h119l-191 -887l764 887h137l-227 -1067h-119zM471 1419q0 23 6 58h96q-4 -19 -4 -27v-18q-1 -63 27 -89q48 -45 145 -47q181 0 236 181h98q-66 -269 -342 -269q-131 0 -197 56t-65 155z" />
    <glyph glyph-name="afii10076" unicode="&#x43a;" horiz-adv-x="980" 
d="M1001 969q-59 0 -88.5 -30t-64.5 -83l-100 -149q-39 -59 -76 -92t-94 -62q41 -16 66.5 -47t47.5 -78l191 -428h-129l-172 395q-23 53 -65 77t-120 24h-110l-105 -496h-119l226 1067h119l-101 -479h96q82 0 134.5 38t109.5 122l107 157q63 93 113 127.5t129 34.5
q78 0 102 -12l-33 -97q-55 11 -64 11z" />
    <glyph glyph-name="afii10077" unicode="&#x43b;" horiz-adv-x="1140" 
d="M-61 -10h-21l21 108h16q121 0 207 111t186 422l141 436h639l-225 -1067h-119l203 965h-412l-137 -408q-109 -322 -213.5 -444.5t-285.5 -122.5z" />
    <glyph glyph-name="afii10078" unicode="&#x43c;" horiz-adv-x="1409" 
d="M61 0l238 1067h158l182 -942l584 942h174l-234 -1067h-116l202 922l-577 -922h-113l-178 911l-203 -911h-117z" />
    <glyph glyph-name="afii10079" unicode="&#x43d;" horiz-adv-x="1159" 
d="M61 0l226 1067h119l-97 -455h623l96 455h119l-225 -1067h-119l106 508h-622l-107 -508h-119z" />
    <glyph glyph-name="afii10080" unicode="&#x43e;" horiz-adv-x="1214" 
d="M551 70q210 0 340.5 164.5t130.5 410.5q0 160 -77 256t-226 96q-211 0 -341 -163.5t-130 -411.5q0 -160 76.5 -256t226.5 -96zM560 -33q-203 0 -321 123t-118 322q0 309 175.5 498.5t432.5 189.5q185 0 302.5 -123.5t117.5 -302.5t-47 -306.5t-128 -217t-192.5 -136.5
t-221.5 -47z" />
    <glyph glyph-name="afii10081" unicode="&#x43f;" horiz-adv-x="1130" 
d="M774 0l203 961h-594l-203 -961h-119l226 1067h831l-225 -1067h-119z" />
    <glyph glyph-name="afii10082" unicode="&#x440;" horiz-adv-x="1193" 
d="M1006 645q0 178 -69 265t-192 87t-215 -62t-149 -143t-89 -228t-32 -217q0 -124 90 -206q83 -71 229 -71q84 0 165 46t171.5 167.5t90.5 361.5zM371 909q170 191 374 191t296 -127.5t92 -317.5q0 -268 -155.5 -478t-418.5 -210q-106 0 -198.5 48t-147.5 147l-119 -559
h-119l310 1464h118z" />
    <glyph glyph-name="afii10083" unicode="&#x441;" horiz-adv-x="1134" 
d="M687 997q-91 0 -174 -42t-174 -157.5t-91 -370.5q0 -256 111.5 -306.5t192.5 -50.5q149 0 231 69t124 193h121q-81 -259 -233 -312t-254 -53q-197 0 -309.5 125t-112.5 305q0 334 169.5 518.5t411.5 184.5q190 0 282 -98t108 -252l-113 -23q-15 120 -55.5 170.5t-92 75
t-142.5 24.5z" />
    <glyph glyph-name="afii10084" unicode="&#x442;" horiz-adv-x="921" 
d="M524 963h-383l23 104h880l-22 -104h-379l-203 -963h-118z" />
    <glyph glyph-name="afii10085" unicode="&#x443;" horiz-adv-x="1024" 
d="M188.5 -261q35.5 32 108.5 150l82 131l-234 1047h129l195 -911l535 911h141l-754 -1225q-80 -130 -138 -184.5t-149 -54.5t-153 30l39 97q52 -23 107 -23q56 0 91.5 32z" />
    <glyph glyph-name="afii10086" unicode="&#x444;" horiz-adv-x="1515" 
d="M1313 575q0 163 -104 265t-277 110l-180 -852q268 12 414.5 132t146.5 345zM246 465q0 -156 109 -257.5t282 -105.5l180 850q-274 -6 -422.5 -131t-148.5 -356zM119 482q0 122 56 231.5t200.5 219t464.5 122.5l86 407h114l-88 -413q217 -17 352.5 -142t135.5 -323
q0 -274 -196 -426t-513 -160l-84 -395h-115l84 399q-221 16 -359 139.5t-138 340.5z" />
    <glyph glyph-name="afii10087" unicode="&#x445;" horiz-adv-x="983" 
d="M541 645l381 422h137l-459 -512l277 -555h-127l-236 481l-428 -481h-141l514 575l-252 492h127z" />
    <glyph glyph-name="afii10088" unicode="&#x446;" horiz-adv-x="1114" 
d="M287 1067h119l-203 -963h573l203 963h119l-203 -963h121l-82 -391h-109l62 287h-826z" />
    <glyph glyph-name="afii10089" unicode="&#x447;" horiz-adv-x="1021" 
d="M521 399q-184 0 -280 73t-96 208q0 26 11 92l61 295h119l-53 -254q-16 -72 -17 -121q0 -96 58.5 -143t188.5 -47t269 51l109 514h119l-226 -1067h-118l96 453q-138 -54 -241 -54z" />
    <glyph glyph-name="afii10090" unicode="&#x448;" horiz-adv-x="1603" 
d="M406 1067l-203 -963h483l205 963h119l-205 -963h489l203 963h119l-225 -1067h-1330l226 1067h119z" />
    <glyph glyph-name="afii10091" unicode="&#x449;" horiz-adv-x="1615" 
d="M406 1067l-203 -963h475l205 963h118l-204 -963h481l203 963h118l-202 -963h121l-82 -391h-109l62 287h-1328l226 1067h119z" />
    <glyph glyph-name="afii10092" unicode="&#x44a;" horiz-adv-x="1140" 
d="M938 352q0 195 -221 195h-318l-94 -447h320q166 0 239.5 56.5t73.5 195.5zM1063 356q0 -356 -455 -356h-442l203 965h-246l20 102h367l-88 -420h272q369 0 369 -291z" />
    <glyph glyph-name="afii10093" unicode="&#x44b;" horiz-adv-x="1384" 
d="M834 352q0 195 -222 195h-317l-94 -447h319q166 0 240 56.5t74 195.5zM958 356q0 -356 -454 -356h-443l226 1067h119l-89 -420h273q368 0 368 -291zM1040 0l226 1067h118l-225 -1067h-119z" />
    <glyph glyph-name="afii10094" unicode="&#x44c;" horiz-adv-x="1060" 
d="M983 356q0 -356 -455 -356h-467l226 1067h119l-89 -420h297q369 0 369 -291zM858 352q0 195 -221 195h-342l-94 -447h344q166 0 239.5 56.5t73.5 195.5z" />
    <glyph glyph-name="afii10095" unicode="&#x44d;" horiz-adv-x="1124" 
d="M1059 700q0 -285 -100.5 -441.5t-209.5 -224t-271 -67.5t-268 88t-118 252h115q31 -238 289 -237q172 0 275 120.5t138 303.5h-495l20 100h496q8 47 8 100q0 137 -72.5 220t-209.5 83t-217.5 -55t-125.5 -166l-110 25q117 303 471 299q178 0 281.5 -113t103.5 -287z" />
    <glyph glyph-name="afii10096" unicode="&#x44e;" horiz-adv-x="1566" 
d="M932 70q196 0 319 163t123 412q0 166 -69.5 259t-204.5 93q-197 0 -319 -164.5t-122 -410.5q0 -166 69 -259t204 -93zM940 -33q-193 0 -298 118t-105 327v28q0 29 2 49h-256l-103 -489h-119l226 1067h119l-101 -477h248q49 235 201 372.5t339 137.5t297.5 -120
t110.5 -325q0 -313 -124 -453.5t-229.5 -187.5t-207.5 -47z" />
    <glyph glyph-name="afii10097" unicode="&#x44f;" horiz-adv-x="1087" 
d="M317 729q0 -76 53.5 -124t168.5 -48h309l86 410h-303q-166 0 -240 -53.5t-74 -184.5zM193 729q0 338 454 338h428l-225 -1067h-119l96 457h-243q-70 0 -114 -24.5t-85 -76.5l-279 -356h-139l293 379q59 79 131 104q-92 23 -145 85.5t-53 160.5z" />
    <glyph glyph-name="uni0450" unicode="&#x450;" horiz-adv-x="1146" 
d="M971 700q0 133 -72.5 218.5t-226.5 85.5t-263.5 -102.5t-148.5 -295.5h705q6 27 6 94zM242 480v-78q0 -50 18.5 -115.5t81 -143t227.5 -77.5q203 0 256.5 82.5t69.5 127.5h117q-56 -153 -158 -231t-303 -78t-316.5 132t-115.5 310q0 331 163 511t408 180
q191 0 293 -114.5t102 -295.5q0 -96 -10 -153l-6 -33h-825q-2 -20 -2 -24zM731 1208l-215 275h152l182 -275h-119z" />
    <glyph glyph-name="afii10071" unicode="&#x451;" horiz-adv-x="1146" 
d="M971 700q0 133 -72.5 218.5t-226.5 85.5t-263.5 -102.5t-148.5 -295.5h705q6 27 6 94zM242 480v-78q0 -50 18.5 -115.5t81 -143t227.5 -77.5q203 0 256.5 82.5t69.5 127.5h117q-56 -153 -158 -231t-303 -78t-316.5 132t-115.5 310q0 331 163 511t408 180
q191 0 293 -114.5t102 -295.5q0 -96 -10 -153l-6 -33h-825q-2 -20 -2 -24zM801 1268l37 174h135l-37 -174h-135zM473 1268l37 174h133l-37 -174h-133z" />
    <glyph glyph-name="afii10099" unicode="&#x452;" horiz-adv-x="1187" 
d="M656 -274q78 0 118.5 50t59.5 136l149 700q14 68 14 113q0 96 -44 154.5t-168 58.5t-253 -100q-66 -53 -113.5 -109.5t-68.5 -150.5l-123 -578h-118l253 1202h-188l21 90h186l37 170h119l-37 -170h393l-21 -90h-391l-75 -362q187 204 411 204q147 0 224 -79.5t77 -221.5
q0 -54 -155 -780q-37 -168 -102.5 -256t-206.5 -88q-98 0 -187 37l41 98q70 -28 148 -28z" />
    <glyph glyph-name="afii10100" unicode="&#x453;" horiz-adv-x="845" 
d="M287 1067h682l-23 -106h-563l-203 -961h-119zM506 1208l272 275h168l-305 -275h-135z" />
    <glyph glyph-name="afii10101" unicode="&#x454;" horiz-adv-x="1124" 
d="M119 400q0 331 172 515.5t407 184.5q170 0 262 -80t119 -221l-110 -25q-24 108 -81.5 165.5t-207.5 57.5t-268 -109t-154 -294h514l-20 -100h-508q-2 -18 -2 -22v-46q0 -252 116.5 -304t196.5 -52q259 0 346 237h115q-124 -340 -396 -340t-386.5 127.5t-114.5 305.5z" />
    <glyph glyph-name="afii10102" unicode="&#x455;" horiz-adv-x="1052" 
d="M178 293q0 -225 314 -225q214 0 250 87t36 153t-36.5 105.5t-139.5 61.5l-121 27q-152 35 -219 96.5t-67 159.5q0 172 119.5 257t291.5 85q278 0 328.5 -115t58.5 -174l-108 -20q-21 110 -85 158t-209 48t-211.5 -61.5t-66.5 -139.5t41 -119.5t154 -66.5l133 -28
q123 -27 192.5 -91.5t69.5 -211.5t-124.5 -229.5t-299.5 -82.5q-279 0 -347.5 116t-68.5 210h115z" />
    <glyph glyph-name="afii10103" unicode="&#x456;" horiz-adv-x="417" 
d="M322 1284l36 178h136l-37 -178h-135zM68 0l225 1067h119l-226 -1067h-118z" />
    <glyph glyph-name="afii10104" unicode="&#x457;" horiz-adv-x="417" 
d="M461 1268l37 174h135l-37 -174h-135zM133 1268l37 174h133l-37 -174h-133zM68 0l225 1067h119l-226 -1067h-118z" />
    <glyph glyph-name="afii10105" unicode="&#x458;" horiz-adv-x="417" 
d="M322 1284l36 178h136l-37 -178h-135zM-128 -274q77 0 118 50t59 136l244 1155h119l-234 -1104q-38 -171 -103 -257.5t-205 -86.5q-101 0 -187 37l41 98q71 -28 148 -28z" />
    <glyph glyph-name="afii10106" unicode="&#x459;" horiz-adv-x="1714" 
d="M1511 352q0 195 -221 195h-317l-94 -447h319q166 0 239.5 56.5t73.5 195.5zM1636 356q0 -356 -454 -356h-443l203 965h-367l-137 -408q-109 -322 -213.5 -444.5t-285.5 -122.5h-21l21 108h16q121 0 207 111t186 422l141 436h594l-88 -420h273q368 0 368 -291z" />
    <glyph glyph-name="afii10107" unicode="&#x45a;" horiz-adv-x="1714" 
d="M1272 635q364 0 364 -297q0 -154 -109.5 -246t-344.5 -92h-441l113 532h-561l-113 -532h-119l226 1067h119l-93 -430h561l93 430h118l-92 -432h279zM1511 346q0 189 -221 189h-317l-92 -435h317q166 0 239.5 55.5t73.5 190.5z" />
    <glyph glyph-name="afii10108" unicode="&#x45b;" horiz-adv-x="1202" 
d="M817 1044q147 0 224 -79.5t77 -221.5q0 -51 -12 -108l-135 -635h-119l131 612q14 68 14 113q0 96 -44 154.5t-168 58.5t-253 -100q-66 -53 -113.5 -109.5t-68.5 -150.5l-123 -578h-118l253 1202h-202l22 90h201l35 170h119l-35 -170h434l-23 -90h-432l-75 -362
q187 204 411 204z" />
    <glyph glyph-name="afii10109" unicode="&#x45c;" horiz-adv-x="980" 
d="M1001 969q-59 0 -89 -30t-64 -83l-100 -149q-39 -59 -76 -93t-94 -61q40 -16 66 -47t48 -78l191 -428h-129l-172 395q-23 53 -65 77t-120 24h-110l-105 -496h-119l226 1067h119l-101 -479h96q82 0 135 38q52 38 109 122l107 157q63 94 100 118q65 44 143 44q77 0 101 -12
l-33 -97q-55 11 -64 11zM580 1208l272 275h168l-305 -275h-135z" />
    <glyph glyph-name="uni045D" unicode="&#x45d;" horiz-adv-x="1130" 
d="M772 0l191 891l-770 -891h-132l228 1067h119l-191 -887l764 887h137l-227 -1067h-119zM739 1208l-215 275h152l182 -275h-119z" />
    <glyph glyph-name="afii10110" unicode="&#x45e;" horiz-adv-x="1024" 
d="M-10 -270q52 -23 109 -23t92 32t106 150l82 131l-234 1047h129l195 -911l535 911h141l-754 -1225q-80 -130 -121 -168q-75 -71 -167 -71t-152 30zM469 1450v-18q0 -98 88 -125q33 -10 84 -11q179 0 236 181h98q-66 -269 -342 -269q-131 0 -197 56t-65 155q0 23 6 58h96
q-4 -19 -4 -27z" />
    <glyph glyph-name="afii10193" unicode="&#x45f;" horiz-adv-x="1130" 
d="M530 0l-59 -287h-109l62 287h-363l226 1067h119l-203 -961h594l202 961h119l-225 -1067h-363z" />
    <glyph glyph-name="uni0462" unicode="&#x462;" horiz-adv-x="1472" 
d="M764 109q244 0 356.5 90t112.5 303q0 139 -91 209.5t-259 70.5h-355l-141 -673h377zM1360 500q0 -500 -615 -500h-503l254 1200h-344l22 105h344l45 215h123l-45 -215h506l-23 -105h-506l-65 -309h293q514 0 514 -391z" />
    <glyph glyph-name="uni0463" unicode="&#x463;" horiz-adv-x="1210" 
d="M1133 356q0 -356 -455 -356h-467l199 956h-260l20 99h262l92 444h121l-92 -444h455l-21 -99h-457l-63 -309h297q369 0 369 -291zM1008 352q0 195 -222 195h-342l-94 -447h344q166 0 240 56.5t74 195.5z" />
    <glyph glyph-name="uni0472" unicode="&#x472;" horiz-adv-x="1548" 
d="M592 893q84 0 149.5 -32t127 -68.5t126 -68.5t138.5 -32q118 0 256 76q8 62 8 147t-29 176t-117.5 194.5t-310.5 103.5t-387.5 -162.5t-224.5 -407.5q125 74 264 74zM1134 590q-108 0 -174.5 31.5t-128 68.5t-125 69t-136.5 32q-128 0 -265 -84q-8 -69 -8 -157
t28.5 -179.5t118 -194t313.5 -102.5q225 0 386.5 163.5t224.5 415.5q-126 -63 -234 -63zM954 1499q249 0 412.5 -162t163.5 -442q0 -170 -52.5 -336t-153.5 -299t-247.5 -215t-337.5 -82q-248 0 -411.5 161.5t-163.5 440.5q0 168 54 336t155.5 300t248 215t332.5 83z" />
    <glyph glyph-name="uni0473" unicode="&#x473;" horiz-adv-x="1214" 
d="M434 653q89 0 135.5 -21.5t87.5 -48t84 -48t124 -21.5t151 39q6 43 6 92q0 160 -76.5 256t-233.5 96t-275 -102.5t-165 -273.5q73 32 162 32zM845 418q-85 0 -129 22.5t-87 49t-89 49t-127 22.5t-161 -41q-4 -25 -4 -32v-66q0 -160 76.5 -256t233.5 -96t275 102.5
t164 278.5q-67 -33 -152 -33zM560 -33q-203 0 -321 123t-118 322q0 309 175.5 498.5t432.5 189.5q185 0 302.5 -123.5t117.5 -302.5t-47 -306.5t-128 -217t-192.5 -136.5t-221.5 -47z" />
    <glyph glyph-name="uni0474" unicode="&#x474;" horiz-adv-x="1513" 
d="M1374 1423q72 60 184 60t187 -66l-57 -96q-60 51 -113 51q-85 0 -126.5 -38t-107.5 -150l-686 -1184h-139l-260 1462h133l221 -1321l633 1116q59 106 131 166z" />
    <glyph glyph-name="uni0475" unicode="&#x475;" horiz-adv-x="1159" 
d="M992 1029.5q65 57.5 160 57.5t175 -61l-57 -92q-55 43 -107 43q-53 0 -90 -27.5t-78 -95.5l-510 -854h-139l-205 1067h131l166 -938l432 743q57 100 122 157.5z" />
    <glyph glyph-name="uni048A" unicode="&#x48a;" horiz-adv-x="1380" 
d="M662 1796q0 23 6 57h96q-4 -18 -4 -20v-25q0 -135 177 -135t230 180h99q-66 -268 -342 -268q-131 0 -196.5 56.5t-65.5 154.5zM1274 113q-56 -319 -318 -486l-69 88q76 51 140.5 129t90.5 156h-106l268 1253l-1069 -1253h-125l311 1462h123l-270 -1247l1067 1247h127
l-287 -1349h117z" />
    <glyph glyph-name="uni048B" unicode="&#x48b;" horiz-adv-x="1132" 
d="M492 1430q0 23 6 57h96q-4 -18 -4 -21v-24q0 -135 177 -135t230 180h99q-66 -268 -342 -268q-131 0 -196.5 56t-65.5 155zM772 0l191 891l-770 -891h-132l228 1067h119l-191 -887l764 887h137l-205 -963h107q-44 -222 -129.5 -293t-134.5 -102l-64 78q139 98 182 213
h-102z" />
    <glyph glyph-name="uni048C" unicode="&#x48c;" horiz-adv-x="1290" 
d="M664 870q514 0 514 -381q0 -236 -146.5 -362.5t-468.5 -126.5h-504l242 1145h-168l23 106h168l45 211h123l-46 -211h400l-23 -106h-399l-57 -275h297zM582 109q244 0 356.5 87t112.5 296q0 135 -91.5 202.5t-259.5 67.5h-358l-137 -653h377z" />
    <glyph glyph-name="uni048D" unicode="&#x48d;" horiz-adv-x="1142" 
d="M696 637q176 0 272.5 -66.5t96.5 -229.5t-109.5 -252t-345.5 -89h-467l174 831h-204l20 99h205l33 157h121l-33 -157h395l-20 -99h-398l-39 -194h299zM940 348q0 191 -221 191h-344l-92 -439h344q166 0 239.5 54.5t73.5 193.5z" />
    <glyph glyph-name="uni048E" unicode="&#x48e;" horiz-adv-x="1267" 
d="M1188 1108q0 246 -348 246h-344l-140 -654h346q59 0 138 9l-97 231l99 43l104 -252q113 37 177.5 125t64.5 252zM684 592h-350l-125 -592h-123l309 1462h465q237 0 347 -105.5t110 -250.5q0 -362 -330 -471l86 -199l-98 -43l-92 215q-75 -16 -199 -16z" />
    <glyph glyph-name="uni048F" unicode="&#x48f;" horiz-adv-x="1193" 
d="M1006 653q0 170 -69 257t-192 87t-215 -62t-149 -143t-89 -228t-32 -217q0 -124 90 -206q83 -71 215 -71q66 0 121 20l-106 254l94 43l104 -250q106 74 167 210t61 306zM371 909q170 191 374 191t296 -127.5t92 -315.5t-81.5 -359.5t-232.5 -260.5l86 -197l-94 -43
l-84 197q-88 -27 -181 -27t-185.5 48t-147.5 147l-119 -559h-119l310 1464h118z" />
    <glyph glyph-name="afii10050" unicode="&#x490;" horiz-adv-x="1060" 
d="M496 1350l-285 -1350h-125l309 1462h746l45 203h121l-68 -315h-743z" />
    <glyph glyph-name="afii10098" unicode="&#x491;" horiz-adv-x="845" 
d="M897 1241h109l-60 -280h-563l-203 -961h-119l226 1067h573z" />
    <glyph glyph-name="uni0492" unicode="&#x492;" horiz-adv-x="1101" 
d="M537 1348l-115 -541h448l-22 -113h-451l-145 -694h-125l145 694h-186l23 113h188l139 655h869l-25 -114h-743z" />
    <glyph glyph-name="uni0493" unicode="&#x493;" horiz-adv-x="886" 
d="M229 598l99 469h682l-23 -106h-563l-78 -363h346l-22 -102h-344l-105 -496h-119l105 496h-146l23 102h145z" />
    <glyph glyph-name="uni0494" unicode="&#x494;" horiz-adv-x="1277" 
d="M702 899q152 0 318 -73.5t166 -424.5q0 -314 -185.5 -523.5t-535.5 -209.5h-96l24 113h72q281 0 437.5 162.5t156.5 445.5q0 199 -83 300.5t-266 101.5t-345 -62l-154 -729h-125l309 1462h811l-24 -112h-686l-109 -510q163 59 315 59z" />
    <glyph glyph-name="uni0495" unicode="&#x495;" horiz-adv-x="1048" 
d="M551 635q207 0 303 -112t96 -273q0 -318 -164 -491t-458 -173h-74l20 101h60q244 0 367.5 143t123.5 406q0 154 -68.5 225t-205.5 71t-270 -51l-101 -481h-119l226 1067h698l-22 -106h-580l-82 -377q134 51 250 51z" />
    <glyph glyph-name="uni0496" unicode="&#x496;" horiz-adv-x="2054" 
d="M1933.5 1322q-51.5 -30 -114.5 -128l-129 -193q-57 -84 -113.5 -139t-146.5 -90q47 -16 83.5 -56t75.5 -124l215 -479h115l-100 -467h-119l76 354h-60l-217 502q-53 120 -105 160t-153 40h-111l-149 -702h-125l148 702h-127q-101 0 -150 -30.5t-86 -69.5t-88 -100
l-418 -502h-155l493 590q72 88 126 129t124 57q-59 29 -92 84t-56 139l-51 211q-23 86 -55.5 117t-81.5 31t-111 -8l13 100q14 2 39 7t66 5q96 0 147 -39.5t82 -156.5l51 -201q33 -127 91 -186.5t173 -59.5h92l135 643h125l-137 -643h74q208 0 370 246l123 184
q82 125 162 169t182 44q22 0 50 -5t43 -7l-35 -107q-45 9 -91 9t-97.5 -30z" />
    <glyph glyph-name="uni0497" unicode="&#x497;" horiz-adv-x="1546" 
d="M250 973q-41 0 -82 -8l8 92q12 2 26 4t27 4t45 2q75 0 108 -40t54 -134l35 -145q37 -160 203 -160h57l100 479h117l-100 -479h47q86 0 146.5 37t117.5 123l96 143q70 102 123.5 139t147.5 37q23 0 44 -4t32 -6l-33 -96q-41 8 -79 8t-69.5 -30t-66.5 -83l-99 -149
q-71 -107 -180 -154q63 -27 111 -125l153 -324h105l-82 -391h-109l62 287h-53l-187 395q-25 53 -65.5 77t-112.5 24h-70l-104 -496h-117l105 496h-64q-123 0 -211 -101l-354 -395h-148l385 428q83 94 164 123q-78 30 -108 156l-41 163q-12 47 -27.5 75t-56.5 28z" />
    <glyph glyph-name="uni0498" unicode="&#x498;" horiz-adv-x="1230" 
d="M610 -268q0 75 -159 75h-25l88 156q-400 28 -410 395h119q14 -166 104.5 -226t258.5 -60q399 0 399 374q0 131 -78 196t-209 65h-194l24 112h185q391 0 391 334q0 106 -75 171t-189 65q-203 0 -296 -59t-147 -200l-114 21q55 163 178 255.5t335 92.5t321.5 -95.5
t109.5 -244.5q0 -312 -301 -401q106 -53 145 -136t39 -165q0 -238 -133 -362t-367 -134l-43 -80q127 -22 145.5 -74.5t18.5 -88.5t-20.5 -70.5t-68 -64t-140.5 -29.5t-166 14l22 92q62 -12 119 -12q133 0 133 84z" />
    <glyph glyph-name="uni0499" unicode="&#x499;" horiz-adv-x="1042" 
d="M526 -246q0 70 -149 70h-25l80 145q-239 13 -295.5 125.5t-60.5 194.5h110q16 -125 95 -172t175 -47q185 0 268 50.5t83 190.5q0 80 -54.5 138.5t-164.5 58.5h-223l20 98h219q195 0 244 76t49 146t-59.5 119.5t-165.5 49.5q-182 0 -259.5 -44t-115.5 -140l-107 21
q84 266 465 266q140 0 251.5 -66t111.5 -192q0 -125 -69.5 -192.5t-168.5 -96.5q80 -39 116 -101.5t36 -127.5q0 -178 -106.5 -262.5t-299.5 -92.5l-41 -75q88 -14 122 -53.5t34 -80.5q0 -100 -71.5 -138t-156.5 -38t-147 15l21 90q63 -13 115 -13q124 0 124 78z" />
    <glyph glyph-name="uni049A" unicode="&#x49a;" horiz-adv-x="1331" 
d="M1197 1323q-48 -29 -118 -129l-133 -193q-57 -84 -113.5 -139t-146.5 -90q47 -16 84 -56t76 -124l217 -477h119l-101 -469h-118l75 354h-55l-221 502q-50 115 -108 157.5t-165 42.5h-129l-149 -702h-125l309 1462h125l-137 -643h88q123 0 211 62.5t172 183.5l127 184
q88 125 163.5 169t180.5 44q19 0 49 -5q29 -5 43 -7l-35 -107q-45 9 -91 9t-94 -29z" />
    <glyph glyph-name="uni049B" unicode="&#x49b;" horiz-adv-x="1030" 
d="M1001 969q-59 0 -88.5 -30t-64.5 -83l-100 -149q-39 -59 -76 -92t-94 -62q41 -16 66.5 -47t47.5 -78l144 -324h102l-82 -391h-108l61 287h-55l-172 395q-23 53 -65 77t-120 24h-110l-105 -496h-119l226 1067h119l-101 -479h96q82 0 134.5 38t109.5 122l107 157
q63 93 113 127.5t129 34.5q78 0 102 -12l-33 -97q-55 11 -64 11z" />
    <glyph glyph-name="uni049C" unicode="&#x49c;" horiz-adv-x="1306" 
d="M1239 1323.5q-48 -28.5 -119 -129.5l-133 -193q-57 -84 -113.5 -139t-146.5 -90q47 -16 84 -56t76 -124l270 -592h-133l-221 502q-47 105 -86.5 142.5t-106.5 45.5l-53 -246h-104l55 258h-148l-149 -702h-125l309 1462h125l-135 -643h147l60 281h104l-55 -258
q72 25 129 75t125 148l127 184q88 125 163.5 169t180.5 44q19 0 49 -5q29 -5 43 -7l-35 -107q-45 9 -91 9q-45 0 -93 -28.5z" />
    <glyph glyph-name="uni049D" unicode="&#x49d;" horiz-adv-x="1032" 
d="M1053 969q-59 0 -89 -30t-65 -83l-100 -149q-39 -59 -76 -92t-94 -62q41 -16 66.5 -47t47.5 -78l191 -428h-129l-172 395q-39 84 -135 97l-43 -211h-90l41 215h-119l-105 -496h-119l226 1067h119l-101 -479h121l47 221h90l-45 -213v-2q53 12 93 50t85 104l107 157
q63 93 113 127.5t129 34.5q78 0 102 -12l-33 -97q-55 11 -63 11z" />
    <glyph glyph-name="uni049E" unicode="&#x49e;" horiz-adv-x="1306" 
d="M1239 1323.5q-48 -28.5 -119 -129.5l-133 -193q-57 -84 -113.5 -139t-146.5 -90q47 -16 84 -56t76 -124l270 -592h-133l-221 502q-52 118 -109.5 159t-161.5 41h-131l-149 -702h-125l233 1100h-165l22 108h166l53 254h125l-55 -254h227l-22 -108h-228l-59 -281h104
q109 0 196 62.5t171 183.5l127 184q88 125 163.5 169t180.5 44q19 0 49 -5q29 -5 43 -7l-35 -107q-45 9 -91 9q-45 0 -93 -28.5z" />
    <glyph glyph-name="uni049F" unicode="&#x49f;" horiz-adv-x="1036" 
d="M1057 969q-59 0 -89 -30t-65 -83l-100 -149q-39 -59 -76 -92t-94 -62q41 -16 66.5 -47t48.5 -78l190 -428h-129l-172 395q-23 53 -66 77t-120 24h-111l-104 -496h-119l170 801h-146l21 96h145l35 170h119l-35 -170h195l-21 -96h-194l-46 -213h97q84 0 136 37t109 123
l107 157q63 93 113 127.5t129 34.5q78 0 102 -12l-33 -97q-55 11 -63 11z" />
    <glyph glyph-name="uni04A0" unicode="&#x4a0;" horiz-adv-x="1404" 
d="M1335 1322.5q-49 -29.5 -116 -128.5l-134 -193q-57 -84 -113.5 -139t-146.5 -90q47 -16 84 -56t76 -124l270 -592h-133l-221 502q-50 115 -108 157.5t-164 42.5h-129l-150 -702h-125l285 1352h-283l23 110h409l-137 -643h88q123 0 211 62.5t172 183.5l127 184
q88 125 163.5 169t180.5 44q18 0 48 -5t44 -7l-34 -107q-45 9 -91 9q-47 0 -96 -29.5z" />
    <glyph glyph-name="uni04A1" unicode="&#x4a1;" horiz-adv-x="1093" 
d="M1112 969q-59 0 -89 -30t-65 -83l-100 -149q-39 -59 -76 -92t-94 -62q41 -16 66.5 -47t48.5 -78l190 -428h-129l-172 395q-23 53 -64.5 77t-119.5 24h-111l-104 -496h-119l205 965h-215l22 102h332l-100 -479h96q82 0 134 38t110 122l106 157q63 93 113 127.5t129 34.5
q78 0 102 -12l-32 -97q-55 11 -64 11z" />
    <glyph glyph-name="uni04A2" unicode="&#x4a2;" horiz-adv-x="1419" 
d="M1036 0l148 698h-826l-147 -698h-125l309 1462h125l-137 -647h825l138 647h124l-284 -1349h129l-101 -467h-118l75 354h-135z" />
    <glyph glyph-name="uni04A3" unicode="&#x4a3;" horiz-adv-x="1173" 
d="M909 508h-622l-107 -508h-119l226 1067h119l-97 -455h623l96 455h119l-203 -963h119l-82 -391h-109l62 287h-131z" />
    <glyph glyph-name="uni04A4" unicode="&#x4a4;" horiz-adv-x="1546" 
d="M1036 0l148 698h-826l-147 -698h-125l309 1462h125l-137 -647h825l138 647h405l-25 -110h-280l-285 -1352h-125z" />
    <glyph glyph-name="uni04A5" unicode="&#x4a5;" horiz-adv-x="1269" 
d="M61 0l226 1067h119l-97 -455h623l96 455h354l-22 -102h-236l-202 -965h-119l106 508h-622l-107 -508h-119z" />
    <glyph glyph-name="uni04A6" unicode="&#x4a6;" horiz-adv-x="2172" 
d="M1595 899q152 0 318 -73.5t166 -424.5q0 -314 -186.5 -523.5t-534.5 -209.5h-96l24 113h72q281 0 437.5 162.5t156.5 445.5q0 199 -83 300.5t-268 101.5t-346 -62l-153 -729h-125l285 1348h-766l-285 -1348h-125l309 1462h1016l-131 -622q163 59 315 59z" />
    <glyph glyph-name="uni04A7" unicode="&#x4a7;" horiz-adv-x="1761" 
d="M1276 635q207 0 303 -112t96 -273q0 -318 -164 -491t-458 -173h-74l20 101h60q244 0 367.5 143t123.5 406q0 154 -68.5 225t-205.5 71t-270 -51l-101 -481h-119l203 963h-606l-203 -963h-119l226 1067h843l-104 -483q134 51 250 51z" />
    <glyph glyph-name="uni04A8" unicode="&#x4a8;" horiz-adv-x="1673" 
d="M1524 844q0 274 -224 274q-165 0 -276 -185t-111 -386q0 -129 40 -239.5t122 -176.5q187 98 318 286.5t131 426.5zM954 1389q-170 0 -292.5 -75t-204.5 -192.5t-121 -265.5t-39 -278q0 -243 122 -375.5t345 -132.5q145 0 194 28q-167 180 -167 441q0 111 32.5 231.5
t98 221t166 166t239.5 65.5t229.5 -90.5t90.5 -262.5q0 -353 -169 -529.5t-294 -252.5q61 -22 165 -22q103 0 197 28l19 -100q-109 -33 -247 -33t-251 59q-77 -34 -174.5 -45.5t-134.5 -11.5q-272 0 -433 162.5t-161 427.5q0 178 52 349t154.5 303t254 213t350.5 81
q131 0 252 -55l-49 -105q-112 50 -224 50z" />
    <glyph glyph-name="uni04A9" unicode="&#x4a9;" horiz-adv-x="1282" 
d="M944 776q-122 0 -194 -113t-72 -262q0 -190 119 -288q135 66 215 191.5t80 305.5q0 80 -41 123t-107 43zM244 436q0 -159 81 -263.5t246 -104.5q74 0 117 12q-57 55 -91 138t-34 169q0 194 104.5 340.5t288.5 146.5q111 0 181.5 -70.5t70.5 -193.5q0 -264 -113.5 -379.5
t-199.5 -162.5q117 -33 248 14l18 -86q-80 -33 -190 -33t-193 43q-98 -39 -212 -39q-115 0 -190 31t-165 122t-90 302q0 280 155.5 479t425.5 199q97 0 193 -47l-49 -92q-70 34 -169 34q-193 0 -313 -162.5t-120 -396.5z" />
    <glyph glyph-name="uni04AA" unicode="&#x4aa;" horiz-adv-x="1452" 
d="M648 -352q132 0 132 84q0 77 -159 75h-25l88 158q-233 16 -377 176q-145 159 -145 422q0 187 52 357q107 352 396 503q143 76 328 76q229 0 359 -124t153 -349l-125 -25q-27 199 -119 294t-258 95q-302 1 -476 -234q-175 -235 -175 -581q0 -213 115 -357t327 -144
q301 0 431 224q40 69 59 151h137q-82 -323 -361 -438q-97 -40 -223 -46l-45 -84q124 -21 156 -104q8 -23 8 -59t-20 -70q-54 -94 -234 -94q-71 0 -141 14l22 92q62 -12 120 -12z" />
    <glyph glyph-name="uni04AB" unicode="&#x4ab;" horiz-adv-x="1134" 
d="M569 -246q0 70 -149 70h-25l82 147q-170 19 -264 141t-94 294q0 326 169.5 510t411.5 184q190 0 282 -98t108 -252l-113 -23q-15 120 -55.5 170.5t-92 75t-142.5 24.5t-174 -42t-174 -157.5t-91 -370.5q0 -256 111.5 -306.5t192.5 -50.5q149 0 231 69t124 193h121
q-47 -154 -157.5 -255.5t-301.5 -109.5l-41 -73q88 -14 122 -53.5t34 -80.5q0 -100 -71.5 -138t-156.5 -38t-147 15l21 90q63 -13 115 -13q124 0 124 78z" />
    <glyph glyph-name="uni04AC" unicode="&#x4ac;" horiz-adv-x="1208" 
d="M870 1348l-260 -1235h129l-100 -467h-119l76 354h-135l284 1348h-507l24 114h1139l-25 -114h-506z" />
    <glyph glyph-name="uni04AD" unicode="&#x4ad;" horiz-adv-x="921" 
d="M524 963h-383l23 104h880l-22 -104h-379l-180 -859h121l-82 -391h-109l62 287h-133z" />
    <glyph glyph-name="uni04AE" unicode="&#x4ae;" horiz-adv-x="1204" 
d="M258 1462h135l279 -723l585 723h144l-682 -829l-133 -633h-125l133 633z" />
    <glyph glyph-name="uni04AF" unicode="&#x4af;" horiz-adv-x="1019" 
d="M291 -395l88 418l-238 1044h135l189 -901l536 901h138l-641 -1044l-88 -418h-119z" />
    <glyph glyph-name="uni04B0" unicode="&#x4b0;" horiz-adv-x="1204" 
d="M1020 539h-322l-112 -539h-125l112 539h-319l25 110h309l-330 813h135l279 -723l585 723h144l-670 -813h313z" />
    <glyph glyph-name="uni04B1" unicode="&#x4b1;" horiz-adv-x="1019" 
d="M291 -395l82 395h-250l22 100h215l-219 967h135l189 -901l536 901h138l-594 -967h233l-22 -100h-264l-82 -395h-119z" />
    <glyph glyph-name="uni04B2" unicode="&#x4b2;" horiz-adv-x="1275" 
d="M776 760l320 -656h102l-82 -391h-112l61 287h-61l-322 674l-592 -674h-143l682 778l-332 684h139l283 -606l538 606h142z" />
    <glyph glyph-name="uni04B3" unicode="&#x4b3;" horiz-adv-x="1032" 
d="M543 645l385 422h137l-463 -512l225 -451h107l-82 -391h-109l62 287h-49l-240 481l-430 -481h-141l516 575l-254 492h127z" />
    <glyph glyph-name="uni04B4" unicode="&#x4b4;" horiz-adv-x="1552" 
d="M700 1354l-262 -1241h754l285 1349h125l-285 -1349h129l-100 -467h-119l76 354h-1014l286 1354h-356l25 108h956l-24 -108h-476z" />
    <glyph glyph-name="uni04B5" unicode="&#x4b5;" horiz-adv-x="1210" 
d="M360 963h-219l23 104h653l-22 -104h-316l-180 -859h573l203 963h119l-203 -963h121l-82 -391h-108l61 287h-825z" />
    <glyph glyph-name="uni04B6" unicode="&#x4b6;" horiz-adv-x="1271" 
d="M651 608q-301 0 -363.5 128t-62.5 211t15 140l79 375h125l-69 -329q-23 -104 -23 -158q0 -131 75 -194.5t249 -63.5t368 65l152 680h127l-305 -1349h131l-100 -467h-119l76 354h-140l152 676q-189 -68 -367 -68z" />
    <glyph glyph-name="uni04B7" unicode="&#x4b7;" horiz-adv-x="1036" 
d="M521 399q-184 0 -280 73t-96 208q0 26 11 92l61 295h119l-53 -254q-16 -72 -17 -121q0 -96 58.5 -143t188.5 -47t269 51l109 514h119l-203 -963h123l-82 -391h-109l62 287h-135l96 453q-138 -54 -241 -54z" />
    <glyph glyph-name="uni04B8" unicode="&#x4b8;" horiz-adv-x="1263" 
d="M225 954q0 76 15 133l79 375h125l-69 -329q-23 -104 -23 -158q0 -117 56.5 -178.5t191.5 -75.5l70 280h104l-72 -284q153 4 342 65l152 680h127l-330 -1462h-127l152 676q-172 -64 -342 -68l-64 -262h-104l65 266q-158 16 -253 98.5t-95 243.5z" />
    <glyph glyph-name="uni04B9" unicode="&#x4b9;" horiz-adv-x="1021" 
d="M145 680q0 26 11 92l61 295h119l-53 -254q-17 -73 -17 -137t40 -110t136 -60l47 217h95l-47 -221q121 4 245 51l109 514h119l-226 -1067h-118l96 453q-128 -46 -248 -54l-43 -204h-94l43 208q-123 14 -199 82t-76 195z" />
    <glyph glyph-name="uni04BA" unicode="&#x4ba;" horiz-adv-x="1263" 
d="M760 893q186 0 298.5 -86t112.5 -264q0 -82 -12 -133l-86 -410h-123l76 365q18 86 18 157q0 135 -70.5 198.5t-252.5 63.5t-356 -61l-154 -723h-125l309 1462h125l-135 -637q189 68 375 68z" />
    <glyph glyph-name="uni04BB" unicode="&#x4bb;" horiz-adv-x="1142" 
d="M780 1100q147 0 224 -80t77 -221q0 -53 -12 -111l-145 -688h-119l141 666q15 72 15 114q0 96 -44.5 154.5t-154.5 58.5q-202 0 -315 -133t-134 -229l-133 -631h-119l310 1462h118l-120 -567q188 205 411 205z" />
    <glyph glyph-name="uni04BC" unicode="&#x4bc;" horiz-adv-x="1818" 
d="M1647 954q0 197 -102 317t-324 120t-384 -161.5t-214 -430.5h1015q9 69 9 155zM1066 74q370 0 474 315h129q-61 -193 -208.5 -309.5t-391.5 -116.5q-292 0 -407 135t-150 247.5t-35 202.5t4 142q-218 0 -266.5 82t-48.5 142q0 106 80 216l96 -32q-25 -37 -44 -74.5
t-19 -99.5t61 -93.5t154 -31.5q57 329 262.5 514.5t479.5 185.5t407 -149.5t133 -401.5q0 -107 -17 -215l-6 -43h-1145q-4 -29 -4 -36v-74q0 -350 176 -428t286 -78z" />
    <glyph glyph-name="uni04BD" unicode="&#x4bd;" horiz-adv-x="1325" 
d="M1149 700q0 133 -72.5 218.5t-226.5 85.5t-263.5 -102.5t-148.5 -295.5h705q6 27 6 94zM172 723q0 -70 41 -90.5t100 -24.5q45 233 196.5 362.5t350.5 129.5t301.5 -115t102.5 -295q0 -100 -11 -153l-6 -33h-825q-2 -20 -2 -24v-52q0 -252 121 -307t202 -55q146 0 220 55
t110 155h117q-56 -153 -158 -231t-303 -78t-316.5 132t-115.5 325q0 60 4 84q-161 7 -197 75.5t-36 116.5t10 89.5t51 95.5l88 -33q-45 -59 -45 -129z" />
    <glyph glyph-name="uni04BE" unicode="&#x4be;" horiz-adv-x="1818" 
d="M1647 954q0 197 -102 317t-324 120t-384 -161.5t-214 -430.5h1015q9 69 9 155zM1066 74q370 0 474 315h129q-99 -300 -282 -362t-300 -64l-67 -317h-119l68 323q-244 31 -339 162t-124 235t-29 188t4 136q-218 0 -266.5 82t-48.5 142q0 106 80 216l96 -32
q-25 -37 -44 -74.5t-19 -99.5t61 -93.5t154 -31.5q57 329 262.5 514.5t479.5 185.5t407 -149.5t133 -401.5q0 -107 -17 -215l-6 -43h-1145q-4 -29 -4 -36v-74q0 -350 176 -428t286 -78z" />
    <glyph glyph-name="uni04BF" unicode="&#x4bf;" horiz-adv-x="1325" 
d="M1149 700q0 133 -72.5 218.5t-226.5 85.5t-263.5 -102.5t-148.5 -295.5h705q6 27 6 94zM172 723q0 -70 41 -90.5t100 -24.5q45 233 196.5 362.5t350.5 129.5t301.5 -115t102.5 -295q0 -100 -11 -153l-6 -33h-825q-2 -20 -2 -24v-52q0 -252 121 -307t202 -55q146 0 220 55
t110 155h117q-49 -142 -143.5 -220.5t-272.5 -86.5l-53 -256h-109l56 258q-183 23 -277 149t-94 304q0 60 4 84q-161 7 -197 75.5t-36 116.5t10 89.5t51 95.5l88 -33q-45 -59 -45 -129z" />
    <glyph glyph-name="uni04C0" unicode="&#x4c0;" horiz-adv-x="460" 
d="M86 0l309 1462h125l-309 -1462h-125z" />
    <glyph glyph-name="uni04C1" unicode="&#x4c1;" horiz-adv-x="1990" 
d="M2122 1343q-45 9 -92 9t-84 -22q-64 -38 -127 -136l-129 -193q-58 -84 -114 -139t-146 -90q48 -16 84 -56t75 -124l266 -592h-139l-217 502q-53 120 -92 150q-65 50 -166 50h-111l-149 -702h-125l148 702h-127q-103 0 -151 -30t-85 -70q-37 -39 -88 -100l-418 -502h-155
l493 590q72 88 126 129t124 57q-59 29 -92 84t-56 139l-51 211q-23 86 -55 117q-33 31 -82 31t-111 -8l13 100q14 2 39 7t66 5q145 0 195 -100q19 -39 34 -96l51 -201q33 -127 91 -186t173 -60h92l135 643h125l-137 -643h74q109 -1 199 61t171 185l123 184q82 125 162 169
t182 44q18 0 48 -5t45 -7zM989 1825q0 23 6 57h97q-5 -22 -5 -45q0 -135 176 -135t232 180h98q-66 -268 -342 -268q-131 0 -197 56t-65 155z" />
    <glyph glyph-name="uni04C2" unicode="&#x4c2;" horiz-adv-x="1497" 
d="M250 973q-41 0 -82 -8l8 92q12 2 26 4t26 4q13 2 45 2t62 -10q51 -17 79 -86q12 -33 22 -78l35 -145q37 -160 203 -160h57l100 479h117l-100 -479h47q86 0 146 37t118 123l96 143q69 101 109 128q68 48 162 48q21 0 76 -10l-33 -96q-41 8 -79 8t-70 -30t-66 -83l-99 -149
q-39 -59 -80 -95q-42 -35 -100 -59q66 -28 111 -125l205 -428h-129l-187 395q-25 53 -65 77q-41 24 -113 24h-70l-104 -496h-117l105 496h-64q-120 0 -211 -101l-354 -395h-148l385 428q83 94 164 123q-78 30 -108 156l-41 163q-12 47 -28 75t-56 28zM645 1430q0 23 6 57h97
q-5 -22 -5 -45q0 -135 176 -135t232 180h98q-66 -268 -342 -268q-131 0 -197 56t-65 155z" />
    <glyph glyph-name="uni04C3" unicode="&#x4c3;" horiz-adv-x="1277" 
d="M1197 1323q-48 -29 -118 -129l-133 -193q-96 -141 -196 -200q217 -19 322.5 -153t105.5 -293q0 -313 -188.5 -500t-547.5 -187h-67l24 113h64q279 0 433.5 142.5t154.5 400.5q0 174 -96.5 276t-282.5 102h-312l-149 -702h-125l309 1462h125l-137 -643h113
q109 0 192.5 64.5t165.5 181.5l127 184q88 125 163.5 169t180.5 44q19 0 49 -5q29 -5 43 -7l-35 -107q-45 9 -91 9t-94 -29z" />
    <glyph glyph-name="uni04C4" unicode="&#x4c4;" horiz-adv-x="1009" 
d="M909 203q0 -295 -153.5 -456t-448.5 -161h-74l21 101h59q244 0 357.5 130t113.5 378q0 129 -68.5 213t-221.5 84h-209l-105 -492h-119l226 1067h119l-101 -473h96q82 0 123 26.5t66.5 55.5t54.5 72l107 157q64 95 114 128.5t126 33.5q77 0 104 -12l-33 -97q-55 11 -64 11
q-59 0 -88.5 -30t-64.5 -83l-101 -149q-54 -84 -127 -132q139 -27 215 -133.5t76 -238.5z" />
    <glyph glyph-name="uni04C5" unicode="&#x4c5;" horiz-adv-x="1441" 
d="M-12 -10h-27l23 114h26q70 0 135.5 29t164 149t235.5 549l196 631h775l-287 -1349h117q-55 -316 -318 -486l-70 88q76 51 140.5 129t91.5 156h-109l287 1352h-534l-189 -602q-140 -442 -291.5 -601t-365.5 -159z" />
    <glyph glyph-name="uni04C6" unicode="&#x4c6;" horiz-adv-x="1140" 
d="M-61 -10h-21l21 108h16q121 0 207 111t186 422l141 436h639l-202 -963h106q-44 -222 -129.5 -293t-134.5 -102l-63 78q139 98 182 213h-103l203 965h-412l-137 -408q-109 -322 -213.5 -444.5t-285.5 -122.5z" />
    <glyph glyph-name="uni04C7" unicode="&#x4c7;" horiz-adv-x="1411" 
d="M816 -311q82 0 127.5 45t68.5 149l172 815h-826l-147 -698h-125l309 1462h125l-137 -647h825l138 647h124l-329 -1552q-36 -165 -102 -247.5t-220 -82.5q-74 0 -114.5 12.5t-69.5 22.5l39 98q60 -24 142 -24z" />
    <glyph glyph-name="uni04C8" unicode="&#x4c8;" horiz-adv-x="1159" 
d="M598 -313q78 0 119 50t59 136l133 635h-622l-107 -508h-119l226 1067h119l-97 -455h623l96 455h119l-242 -1143q-37 -175 -80 -234t-96 -84.5t-141 -25.5t-174 37l37 98q69 -28 147 -28z" />
    <glyph glyph-name="uni04C9" unicode="&#x4c9;" horiz-adv-x="1406" 
d="M1036 0l148 698h-826l-147 -698h-125l309 1462h125l-137 -647h825l138 647h124l-286 -1349h116q-55 -316 -317 -486l-70 88q76 51 140.5 129t91.5 156h-109z" />
    <glyph glyph-name="uni04CA" unicode="&#x4ca;" horiz-adv-x="1159" 
d="M944 104h107q-44 -222 -129.5 -293t-135.5 -102l-63 78q139 98 182 213h-102l106 508h-622l-107 -508h-119l226 1067h119l-97 -455h623l96 455h119z" />
    <glyph glyph-name="uni04CB" unicode="&#x4cb;" horiz-adv-x="1263" 
d="M651 608q-301 0 -363.5 128t-62.5 211t15 140l79 375h125l-69 -329q-23 -104 -23 -158q0 -131 75 -194.5t249 -63.5t368 65l152 680h127l-330 -1462h-139l-76 -354h-119l105 467h127l127 563q-189 -68 -367 -68z" />
    <glyph glyph-name="uni04CC" unicode="&#x4cc;" horiz-adv-x="1021" 
d="M521 399q-184 0 -280 73t-96 208q0 26 11 92l61 295h119l-53 -254q-16 -72 -17 -121q0 -96 58.5 -143t188.5 -47t269 51l109 514h119l-226 -1067h-131l-59 -287h-109l84 391h119l74 349q-138 -54 -241 -54z" />
    <glyph glyph-name="uni04CD" unicode="&#x4cd;" horiz-adv-x="1712" 
d="M1608 113q-55 -316 -318 -486l-69 88q76 51 140 129t91 156h-102l266 1251q-17 -23 -86.5 -135t-156.5 -250.5t-218 -350.5t-321 -515h-119l-248 1245l-264 -1245h-117l309 1462h156l252 -1317l813 1317h160l-285 -1349h117z" />
    <glyph glyph-name="uni04CE" unicode="&#x4ce;" horiz-adv-x="1406" 
d="M61 0l238 1067h158l182 -942l584 942h174l-211 -963h106q-44 -222 -129.5 -293t-134.5 -102l-63 78q139 98 182 213h-100l202 922l-577 -922h-113l-178 911l-203 -911h-117z" />
    <glyph glyph-name="uni04CF" unicode="&#x4cf;" horiz-adv-x="460" 
d="M86 0l309 1462h125l-309 -1462h-125z" />
    <glyph glyph-name="uni04D0" unicode="&#x4d0;" horiz-adv-x="1353" 
d="M500 561h598l-140 764zM913 1462h148l268 -1462h-129l-82 446h-688l-268 -446h-137zM846 1827v-19q0 -135 176 -135t231 180h99q-66 -268 -342 -268q-131 0 -197 56t-65 155q0 23 6 57h96q-4 -18 -4 -26z" />
    <glyph glyph-name="uni04D1" unicode="&#x4d1;" horiz-adv-x="1077" 
d="M178 254q0 -70 45 -121t180 -51t222 58t130 114q43 55 62 152l35 163l-199 -8q-272 -12 -373 -83q-102 -71 -102 -224zM51 245q0 218 171 315q148 84 433 95l215 9l13 74q4 28 4 50q0 96 -54 154t-197 57q-143 0 -213 -37q-69 -37 -110 -143l-110 19q49 143 156 202
q108 60 291 60q182 0 270 -83t88 -229q0 -58 -15 -122l-141 -666h-119l31 150q-72 -72 -166 -123t-232 -51t-227 74q-88 75 -88 195zM516 1450v-18q0 -98 88 -125q33 -10 84 -11q181 0 236 181h98q-66 -269 -342 -269q-131 0 -197 56t-65 155q0 23 6 58h96q-4 -19 -4 -27z
" />
    <glyph glyph-name="uni04D2" unicode="&#x4d2;" horiz-adv-x="1353" 
d="M418 561h598l-139 764zM831 1462h148l268 -1462h-129l-82 446h-688l-268 -446h-137zM1016 1628l39 178h139l-39 -178h-139zM680 1628l39 178h137l-39 -178h-137z" />
    <glyph glyph-name="uni04D3" unicode="&#x4d3;" horiz-adv-x="1077" 
d="M178 254q0 -70 45 -121t180 -51t222 58t130 114q43 55 62 152l35 163l-199 -8q-272 -12 -373 -83q-102 -71 -102 -224zM51 245q0 218 171 315q148 84 433 95l215 9l13 74q4 28 4 50q0 96 -54 154t-197 57q-143 0 -213 -37q-69 -37 -110 -143l-110 19q49 143 156 202
q108 60 291 60q182 0 270 -83t88 -229q0 -58 -15 -122l-141 -666h-119l31 150q-72 -72 -166 -123t-232 -51t-227 74q-88 75 -88 195zM778 1268l37 174h135l-37 -174h-135zM451 1268l36 174h134l-37 -174h-133z" />
    <glyph glyph-name="uni04D4" unicode="&#x4d4;" horiz-adv-x="2072" 
d="M571 625h572l155 725h-145zM-72 0l1174 1462h1081l-22 -112h-744l-114 -537h702l-25 -117h-702l-125 -581h786l-49 -115h-878l106 510h-639l-407 -510h-144z" />
    <glyph glyph-name="uni04D5" unicode="&#x4d5;" horiz-adv-x="1822" 
d="M1647 702q0 131 -67.5 216.5t-221.5 85.5t-260.5 -102.5t-145.5 -293.5h688q7 32 7 94zM370 82q177 0 254 55t116.5 114.5t60.5 158.5l33 159l-205 -8q-254 -12 -352.5 -81.5t-98.5 -221.5q0 -72 46 -124t146 -52zM958 899q154 201 394 201q211 0 310 -114t99 -294
q0 -96 -10 -153l-6 -33h-809q-2 -20 -2 -26v-60q0 -242 117.5 -298t198.5 -56q147 0 214.5 53t106.5 157h117q-57 -155 -153 -232t-288 -77q-242 0 -314.5 106.5t-90.5 155.5q-96 -139 -207 -196.5t-258 -57.5t-236.5 76t-89.5 196q0 217 150.5 305.5t429.5 102.5l221 9
q12 58 12 108q0 227 -235 227q-140 0 -206 -36.5t-110 -143.5l-110 19q49 143 156 202.5t255 59.5q288 0 344 -201z" />
    <glyph glyph-name="uni04D6" unicode="&#x4d6;" horiz-adv-x="1204" 
d="M606 1796q0 23 6 57h97q-4 -18 -4 -26v-19q0 -135 176 -135t231 180h98q-66 -268 -342 -268q-130 0 -196 56t-66 155zM498 1350l-115 -537h754l-25 -117h-754l-125 -581h838l-49 -115h-936l309 1462h920l-23 -112h-794z" />
    <glyph glyph-name="uni04D7" unicode="&#x4d7;" horiz-adv-x="1146" 
d="M971 700q0 132 -72 218q-73 86 -227 86t-264 -102t-148 -296h705q6 27 6 94zM242 468v-66q0 -50 18 -116q37 -136 161 -192q62 -28 143 -28q212 1 290 127q25 39 41 83h117q-55 -149 -157 -229t-303 -80t-318 133t-116 310q2 332 164 511t408 179q191 0 294 -116
t101 -294q0 -96 -10 -153l-6 -33h-825q-2 -20 -2 -36zM438 1419q0 23 6 58h97q-4 -19 -4 -27v-18q0 -64 27 -89q47 -45 145 -47q180 0 235 181h98q-66 -269 -342 -269q-130 0 -196 56t-66 155z" />
    <glyph glyph-name="uni04D8" unicode="&#x4d8;" horiz-adv-x="1515" 
d="M879 1499q283 0 430 -177t147 -443q0 -414 -158.5 -602.5t-294 -251t-275.5 -62.5q-262 0 -401 152.5t-139 398.5q0 105 17 213l6 45h1112q2 29 2 36v75q0 348 -166.5 427t-272.5 79q-191 0 -294 -71.5t-174 -223.5l-117 22q70 172 214 277.5t364 105.5zM313 522
q0 -203 104.5 -326.5t318.5 -123.5t361.5 154.5t207.5 437.5h-983q-9 -70 -9 -142z" />
    <glyph glyph-name="uni04D9" unicode="&#x4d9;" horiz-adv-x="1165" 
d="M252 367q0 -133 72 -218.5t226 -85.5t266 102.5t151 295.5h-709q-6 -27 -6 -94zM137 381q0 90 17 182h829q2 20 2 25v51q0 247 -114.5 303.5t-192.5 56.5q-150 0 -232 -52.5t-133 -166.5l-106 25q55 143 176 219t307 76t300 -133.5t114 -310.5q0 -330 -163 -509.5
t-409 -179.5q-189 0 -292 114t-103 300z" />
    <glyph glyph-name="uni04DA" unicode="&#x4da;" horiz-adv-x="1515" 
d="M920 1499q285 0 437 -185q140 -168 140 -435q0 -416 -217 -672q-100 -119 -236 -181t-275 -62q-262 -1 -401 151t-139 399q0 115 17 213l6 45h1112q2 30 2 56v55q0 218 -112 362t-352 144q-241 0 -370 -168q-41 -55 -73 -127l-117 22q70 172 214 278t364 105zM354 522
q0 -202 104 -326t319 -124q214 0 361 154t208 438h-984q-8 -62 -8 -142zM1094 1628l39 178h139l-39 -178h-139zM758 1628l39 178h137l-39 -178h-137z" />
    <glyph glyph-name="uni04DB" unicode="&#x4db;" horiz-adv-x="1165" 
d="M252 367q0 -133 72 -219t226 -85t266 103t151 295h-709q-6 -27 -6 -94zM137 381q0 90 17 182h829q2 21 2 37v39q0 246 -171 332q-58 29 -136 29q-214 -1 -308 -123q-32 -41 -57 -97l-106 25q55 143 176 219t307 76t300 -134t114 -310q0 -329 -163 -509t-409 -180
q-192 0 -294 115q-101 115 -101 299zM827 1268l37 174h135l-36 -174h-136zM500 1268l37 174h133l-37 -174h-133z" />
    <glyph glyph-name="uni04DC" unicode="&#x4dc;" horiz-adv-x="1990" 
d="M2122 1343q-45 9 -92 9t-84 -22q-64 -38 -127 -136l-129 -193q-58 -84 -114 -139t-146 -90q48 -16 84 -56t75 -124l266 -592h-139l-217 502q-53 120 -92 150q-65 50 -166 50h-111l-149 -702h-125l148 702h-127q-103 0 -151 -30t-85 -70q-37 -39 -88 -100l-418 -502h-155
l493 590q72 88 126 129t124 57q-59 29 -92 84t-56 139l-51 211q-23 86 -55 117q-33 31 -82 31t-111 -8l13 100q14 2 39 7t66 5q145 0 195 -100q19 -39 34 -96l51 -201q33 -127 91 -186t173 -60h92l135 643h125l-137 -643h74q109 -1 199 61t171 185l123 184q82 125 162 169
t182 44q18 0 48 -5t45 -7zM1352 1628l39 178h139l-39 -178h-139zM1016 1628l39 178h137l-39 -178h-137z" />
    <glyph glyph-name="uni04DD" unicode="&#x4dd;" horiz-adv-x="1497" 
d="M250 973q-41 0 -82 -8l8 92q12 2 26 4t26 4q13 2 45 2t62 -10q51 -17 79 -86q12 -33 22 -78l35 -145q37 -160 203 -160h57l100 479h117l-100 -479h47q86 0 146 37t118 123l96 143q69 101 109 128q68 48 162 48q21 0 76 -10l-33 -96q-41 8 -79 8t-70 -30t-66 -83l-99 -149
q-39 -59 -80 -95q-42 -35 -100 -59q66 -28 111 -125l205 -428h-129l-187 395q-25 53 -65 77q-41 24 -113 24h-70l-104 -496h-117l105 496h-64q-120 0 -211 -101l-354 -395h-148l385 428q83 94 164 123q-78 30 -108 156l-41 163q-12 47 -28 75t-56 28zM1018 1268l37 174h135
l-37 -174h-135zM690 1268l37 174h133l-37 -174h-133z" />
    <glyph glyph-name="uni04DE" unicode="&#x4de;" horiz-adv-x="1230" 
d="M586 72q399 0 399 374q0 131 -78 196t-209 65h-194l24 112h185q391 0 391 334q0 106 -75 171t-189 65q-205 0 -296 -59q-92 -59 -147 -200l-114 21q54 161 179 255q125 95 336 94t320 -97t109 -244q0 -245 -185 -351q-55 -32 -116 -50q106 -53 145 -136t39 -165
q0 -246 -143 -371t-381 -125q-474 0 -482 397h119q15 -166 105 -226t258 -60zM934 1628l39 178h139l-39 -178h-139zM598 1628l39 178h137l-39 -178h-137z" />
    <glyph glyph-name="uni04DF" unicode="&#x4df;" horiz-adv-x="1042" 
d="M655 1100q140 0 251.5 -66t111.5 -192q0 -125 -69.5 -192.5t-168.5 -96.5q80 -39 116 -101.5t36 -127.5q0 -357 -447 -357q-272 0 -338.5 117t-70.5 205h110q16 -125 95 -172t175 -47q185 0 268 50.5t83 190.5q0 80 -54.5 138.5t-164.5 58.5h-223l20 98h219q195 0 244 76
t49 146t-59.5 119.5t-165.5 49.5q-182 0 -259.5 -44t-115.5 -140l-107 21q84 266 465 266zM770 1268l37 174h135l-37 -174h-135zM442 1268l37 174h133l-37 -174h-133z" />
    <glyph glyph-name="uni04E0" unicode="&#x4e0;" horiz-adv-x="1167" 
d="M1077 456q0 -114 -40 -210t-149.5 -190.5t-350.5 -94.5q-240 0 -365 100.5t-129 296.5h115q16 -231 155.5 -257.5t274 -26.5t249.5 89.5t115 297.5q0 141 -85 207.5t-232 66.5h-191l21 96l573 521h-747l22 110h910l-21 -102l-584 -522q324 0 391.5 -134t67.5 -248z" />
    <glyph glyph-name="uni04E1" unicode="&#x4e1;" horiz-adv-x="972" 
d="M406 449q307 0 374.5 -141.5t67.5 -251.5q0 -224 -133.5 -350t-344.5 -126q-443 0 -462 365h115q17 -210 143.5 -237t200.5 -27q161 0 259.5 92.5t98.5 287.5q0 141 -80 214t-231 73h-181l11 98l567 521h-637l21 100h796l-18 -92l-590 -526h23z" />
    <glyph glyph-name="uni04E2" unicode="&#x4e2;" horiz-adv-x="1384" 
d="M1012 0l268 1253l-1069 -1253h-125l311 1462h123l-270 -1247l1067 1247h127l-311 -1462h-121zM651 1634l23 109h577l-22 -109h-578z" />
    <glyph glyph-name="uni04E3" unicode="&#x4e3;" horiz-adv-x="1130" 
d="M772 0l191 891l-770 -891h-132l228 1067h119l-191 -887l764 887h137l-227 -1067h-119zM508 1389h500l-23 -105h-500z" />
    <glyph glyph-name="uni04E4" unicode="&#x4e4;" horiz-adv-x="1384" 
d="M1012 0l268 1253l-1069 -1253h-125l311 1462h123l-270 -1247l1067 1247h127l-311 -1462h-121zM1038 1628l39 178h140l-39 -178h-140zM702 1628l39 178h138l-39 -178h-138z" />
    <glyph glyph-name="uni04E5" unicode="&#x4e5;" horiz-adv-x="1130" 
d="M772 0l191 891l-770 -891h-132l228 1067h119l-191 -887l764 887h137l-227 -1067h-119zM819 1268l37 174h135l-37 -174h-135zM492 1268l36 174h134l-37 -174h-133z" />
    <glyph glyph-name="uni04E6" unicode="&#x4e6;" horiz-adv-x="1548" 
d="M766 74q132 0 253 70q122 70 206 187q172 238 172 560q0 224 -117 361t-330 137q-154 0 -276 -72t-205 -187q-84 -115 -128 -262q-44 -146 -44 -276t29 -221q94 -297 440 -297zM954 1499q250 0 413 -163t163 -441q0 -170 -52 -336q-110 -351 -402 -514q-146 -82 -337 -82
q-248 0 -411 161q-164 161 -164 441q0 168 54 336q113 351 404 515q146 83 332 83zM1081 1628l39 178h140l-39 -178h-140zM745 1628l39 178h138l-39 -178h-138z" />
    <glyph glyph-name="uni04E7" unicode="&#x4e7;" horiz-adv-x="1214" 
d="M551 70q210 0 340.5 164.5t130.5 410.5q0 160 -77 256t-226 96q-211 0 -341 -163.5t-130 -411.5q0 -160 76.5 -256t226.5 -96zM560 -33q-203 0 -321 123t-118 322q0 309 175.5 498.5t432.5 189.5q185 0 302.5 -123.5t117.5 -302.5t-47 -306.5t-128 -217t-192.5 -136.5
t-221.5 -47zM838 1268l36 174h136l-37 -174h-135zM510 1268l37 174h133l-37 -174h-133z" />
    <glyph glyph-name="uni04E8" unicode="&#x4e8;" horiz-adv-x="1548" 
d="M1397 924q0 76 -29 167t-117.5 194.5t-313.5 103.5q-224 0 -391 -167t-222 -419h1069q4 45 4 121zM753 74q119 0 224.5 50t226.5 177t172 389h-1073q-6 -60 -6 -144t28.5 -175.5t86 -157.5t140 -102.5t201.5 -36.5zM954 1499q249 0 412.5 -162t163.5 -442
q0 -170 -52.5 -336t-153.5 -299t-247.5 -215t-337.5 -82q-248 0 -411.5 161.5t-163.5 440.5q0 168 54 336t155.5 300t248 215t332.5 83z" />
    <glyph glyph-name="uni04E9" unicode="&#x4e9;" horiz-adv-x="1214" 
d="M1024 611v34q0 160 -77.5 256t-238.5 96t-281.5 -111t-162.5 -288h758q2 10 2 13zM246 473v-51q0 -160 77.5 -256t241.5 -96t285.5 119t159.5 307h-762q-2 -18 -2 -23zM560 -33q-203 0 -321 123t-118 322q0 309 175.5 498.5t432.5 189.5q185 0 302.5 -123.5t117.5 -302.5
t-47 -306.5t-128 -217t-192.5 -136.5t-221.5 -47z" />
    <glyph glyph-name="uni04EA" unicode="&#x4ea;" horiz-adv-x="1548" 
d="M1397 924q0 76 -29 167t-86 157q-120 140 -344 141q-224 0 -392 -168t-222 -418h1069q4 45 4 121zM753 74q119 0 225 50t185 134q159 167 213 432h-1073q-6 -60 -6 -144t29 -175q60 -187 226 -261q82 -36 201 -36zM954 1499q250 0 413 -163t163 -441q0 -170 -52 -336
q-110 -351 -402 -514q-146 -82 -337 -82q-248 0 -411 161q-164 161 -164 441q0 168 54 336q113 351 404 515q146 83 332 83zM1081 1628l39 178h140l-39 -178h-140zM745 1628l39 178h138l-39 -178h-138z" />
    <glyph glyph-name="uni04EB" unicode="&#x4eb;" horiz-adv-x="1214" 
d="M1024 611v34q0 160 -77.5 256t-238.5 96t-281.5 -111t-162.5 -288h758q2 10 2 13zM246 473v-51q0 -160 77.5 -256t241.5 -96t285.5 119t159.5 307h-762q-2 -18 -2 -23zM560 -33q-203 0 -321 123t-118 322q0 309 175.5 498.5t432.5 189.5q185 0 302.5 -123.5t117.5 -302.5
t-47 -306.5t-128 -217t-192.5 -136.5t-221.5 -47zM838 1268l36 174h136l-37 -174h-135zM510 1268l37 174h133l-37 -174h-133z" />
    <glyph glyph-name="uni04EC" unicode="&#x4ec;" horiz-adv-x="1454" 
d="M1309 924q0 78 -30 169t-114.5 193.5t-277.5 102.5q-365 0 -510 -351l-119 35q86 207 247 316.5t390 109.5t385 -161t156 -443q0 -168 -45 -334t-139.5 -299t-242 -216t-355.5 -83t-348 122.5t-156 338.5h122q20 -156 118.5 -253t257.5 -97q286 0 441.5 176t198.5 446
h-737l22 109h732q4 41 4 119zM1006 1628l38 178h140l-39 -178h-139zM670 1628l39 178h137l-39 -178h-137z" />
    <glyph glyph-name="uni04ED" unicode="&#x4ed;" horiz-adv-x="1124" 
d="M1059 700q0 -285 -132 -491q-69 -106 -179 -174t-269 -68q-160 0 -268 88q-107 88 -119 252h115q31 -238 289 -237q173 0 275 120q103 120 138 304h-495l20 100h496q8 47 8 100q0 137 -73 220t-209 83t-218 -55q-80 -55 -125 -166l-110 25q117 303 471 299
q181 0 283 -114q102 -113 102 -286zM797 1268l37 174h135l-37 -174h-135zM469 1268l37 174h133l-37 -174h-133z" />
    <glyph glyph-name="uni04EE" unicode="&#x4ee;" horiz-adv-x="1144" 
d="M74 109q84 -37 154 -37q69 0 117 34t104 119l108 166l-299 1071h133l246 -952l592 952h139l-723 -1145q-130 -206 -193 -263q-63 -56 -112 -73t-130 -17t-177 44zM522 1634l23 109h577l-22 -109h-578z" />
    <glyph glyph-name="uni04EF" unicode="&#x4ef;" horiz-adv-x="1024" 
d="M-10 -270q52 -23 109 -23t92 32t106 150l82 131l-234 1047h129l195 -911l535 911h141l-754 -1225q-80 -130 -121 -168q-75 -71 -167 -71t-152 30zM438 1389h500l-23 -105h-499z" />
    <glyph glyph-name="uni04F0" unicode="&#x4f0;" horiz-adv-x="1144" 
d="M74 109q84 -37 154 -37q69 0 117 34t104 119l108 166l-299 1071h133l246 -952l592 952h139l-723 -1145q-130 -206 -193 -263q-63 -56 -112 -73t-130 -17t-177 44zM909 1628l39 178h139l-38 -178h-140zM573 1628l39 178h138l-39 -178h-138z" />
    <glyph glyph-name="uni04F1" unicode="&#x4f1;" horiz-adv-x="1024" 
d="M-10 -270q52 -23 109 -23t92 32t106 150l82 131l-234 1047h129l195 -911l535 911h141l-754 -1225q-80 -130 -121 -168q-75 -71 -167 -71t-152 30zM750 1268l36 174h136l-37 -174h-135zM422 1268l37 174h133l-37 -174h-133z" />
    <glyph glyph-name="uni04F2" unicode="&#x4f2;" horiz-adv-x="1144" 
d="M74 109q84 -37 154 -37q69 0 117 34t104 119l108 166l-299 1071h133l246 -952l592 952h139l-723 -1145q-130 -206 -193 -263q-63 -56 -112 -73t-130 -17t-177 44zM874 1585l246 264h156l-279 -264h-123zM543 1585l245 264h156l-278 -264h-123z" />
    <glyph glyph-name="uni04F3" unicode="&#x4f3;" horiz-adv-x="1024" 
d="M-10 -270q52 -23 109 -23t92 32t106 150l82 131l-234 1047h129l195 -911l535 911h141l-754 -1225q-80 -130 -121 -168q-75 -71 -167 -71t-152 30zM735 1208l262 275h160l-295 -275h-127zM395 1208l262 275h160l-295 -275h-127z" />
    <glyph glyph-name="uni04F4" unicode="&#x4f4;" horiz-adv-x="1263" 
d="M257 799q-32 66 -32 149t15 139l79 375h125l-69 -329q-23 -104 -23 -158q0 -131 75 -195t252 -63q177 0 365 65l152 680h127l-330 -1462h-127l152 676q-183 -66 -367 -68q-301 0 -394 191zM946 1628l39 178h139l-39 -178h-139zM610 1628l39 178h137l-38 -178h-138z" />
    <glyph glyph-name="uni04F5" unicode="&#x4f5;" horiz-adv-x="1021" 
d="M145 680q0 39 11 92l61 295h119l-53 -254q-16 -72 -17 -121q0 -96 58 -143t189 -47q130 0 269 51l109 514h119l-226 -1067h-118l96 453q-133 -52 -239 -53q-185 -2 -281 72q-97 73 -97 208zM731 1268l37 174h135l-37 -174h-135zM403 1268l37 174h133l-36 -174h-134z" />
    <glyph glyph-name="uni04F6" unicode="&#x4f6;" horiz-adv-x="1060" 
d="M496 1348l-260 -1233h129l-101 -469h-119l76 354h-135l309 1462h869l-25 -114h-743z" />
    <glyph glyph-name="uni04F7" unicode="&#x4f7;" horiz-adv-x="845" 
d="M287 1067h682l-23 -104h-563l-180 -857h119l-82 -393h-109l62 287h-132z" />
    <glyph glyph-name="uni04F8" unicode="&#x4f8;" horiz-adv-x="1687" 
d="M592 109q244 0 356 90t113 303q0 139 -91 210t-259 70h-336l-142 -673h359zM1313 0l309 1462h125l-309 -1462h-125zM674 891q514 0 514 -391q0 -500 -615 -500h-487l309 1462h125l-121 -571h275zM1178 1628l39 178h139l-39 -178h-139zM842 1628l39 178h137l-39 -178h-137
z" />
    <glyph glyph-name="uni04F9" unicode="&#x4f9;" horiz-adv-x="1384" 
d="M834 352q0 195 -222 195h-317l-94 -447h319q166 0 240 56t74 196zM958 356q0 -356 -454 -356h-443l226 1067h119l-89 -420h273q368 0 368 -291zM1040 0l226 1067h118l-225 -1067h-119zM963 1268l36 174h136l-37 -174h-135zM635 1268l37 174h133l-37 -174h-133z" />
    <glyph glyph-name="Wgrave" unicode="&#x1e80;" horiz-adv-x="1865" 
d="M1122 1300l-626 -1300h-138l-104 1462h131l72 -1306l635 1300h133l82 -1298l620 1304h139l-720 -1462h-144zM868 1585l-213 264h154l180 -264h-121z" />
    <glyph glyph-name="wgrave" unicode="&#x1e81;" horiz-adv-x="1456" 
d="M1034 0h-137l-70 922l-460 -922h-138l-82 1055h127l50 -922l462 916h140l67 -916l443 922h131zM836 1208l-215 275h151l182 -275h-118z" />
    <glyph glyph-name="Wacute" unicode="&#x1e82;" horiz-adv-x="1865" 
d="M1122 1300l-626 -1300h-138l-104 1462h131l72 -1306l635 1300h133l82 -1298l620 1304h139l-720 -1462h-144zM821 1585l273 264h166l-308 -264h-131z" />
    <glyph glyph-name="wacute" unicode="&#x1e83;" horiz-adv-x="1456" 
d="M1034 0h-137l-70 922l-460 -922h-138l-82 1055h127l50 -922l462 916h140l67 -916l443 922h131zM756 1208l272 275h168l-305 -275h-135z" />
    <glyph glyph-name="Wdieresis" unicode="&#x1e84;" horiz-adv-x="1865" 
d="M1122 1300l-626 -1300h-138l-104 1462h131l72 -1306l635 1300h133l82 -1298l620 1304h139l-720 -1462h-144zM1032 1628l39 178h139l-39 -178h-139zM696 1628l39 178h137l-38 -178h-138z" />
    <glyph glyph-name="wdieresis" unicode="&#x1e85;" horiz-adv-x="1456" 
d="M1034 0h-137l-70 922l-460 -922h-138l-82 1055h127l50 -922l462 916h140l67 -916l443 922h131zM979 1268l37 174h135l-37 -174h-135zM651 1268l37 174h133l-37 -174h-133z" />
    <glyph glyph-name="Ygrave" unicode="&#x1ef2;" horiz-adv-x="1204" 
d="M258 1462h135l279 -723l585 723h144l-682 -829l-133 -633h-125l133 633zM539 1585l-213 264h153l180 -264h-120z" />
    <glyph glyph-name="ygrave" unicode="&#x1ef3;" horiz-adv-x="1019" 
d="M-10 -270q52 -23 109 -23t92 32t106 150l76 125l-232 1041h129l193 -905l532 905h142l-734 -1194q-39 -59 -71 -107q-66 -101 -137 -134q-39 -17 -111 -17t-133 30zM610 1208l-215 275h152l182 -275h-119z" />
    <glyph glyph-name="endash" unicode="&#x2013;" horiz-adv-x="1024" 
d="M31 530l24 123h1024l-24 -123h-1024z" />
    <glyph glyph-name="emdash" unicode="&#x2014;" horiz-adv-x="2048" 
d="M31 530l24 123h2048l-24 -123h-2048z" />
    <glyph glyph-name="afii00208" unicode="&#x2015;" horiz-adv-x="2048" 
d="M31 530l24 123h2048l-24 -123h-2048z" />
    <glyph glyph-name="quoteleft" unicode="&#x2018;" horiz-adv-x="387" 
d="M526 1462l-137 -397h-147l184 397h100z" />
    <glyph glyph-name="quoteright" unicode="&#x2019;" horiz-adv-x="387" 
d="M231 1065l138 397h147l-184 -397h-101z" />
    <glyph glyph-name="quotesinglbase" unicode="&#x201a;" horiz-adv-x="387" 
d="M-47 -201l141 398h144l-181 -398h-104z" />
    <glyph glyph-name="quotedblleft" unicode="&#x201c;" horiz-adv-x="667" 
d="M526 1462l-137 -397h-147l184 397h100zM807 1462l-137 -397h-148l185 397h100z" />
    <glyph glyph-name="quotedblright" unicode="&#x201d;" horiz-adv-x="667" 
d="M231 1065l138 397h147l-184 -397h-101zM512 1065l137 397h148l-185 -397h-100z" />
    <glyph glyph-name="quotedblbase" unicode="&#x201e;" horiz-adv-x="663" 
d="M-47 -201l141 398h144l-181 -398h-104zM229 -201l142 398h143l-180 -398h-105z" />
    <glyph glyph-name="dagger" unicode="&#x2020;" horiz-adv-x="942" 
d="M653 954l-241 -1132h-119l242 1132h-371l20 101h371l86 407h119l-86 -407h366l-20 -101h-367z" />
    <glyph glyph-name="daggerdbl" unicode="&#x2021;" horiz-adv-x="942" 
d="M502 250l-90 -428h-119l90 428h-371l23 104h371l129 600h-371l20 101h371l86 407h119l-86 -407h366l-20 -101h-367l-129 -600h367l-23 -104h-366z" />
    <glyph glyph-name="bullet" unicode="&#x2022;" horiz-adv-x="696" 
d="M601 554.5q-75 -75.5 -190 -75.5t-191.5 74.5t-76.5 192.5t76.5 192t191.5 74t190 -75t75 -191t-75 -191.5z" />
    <glyph glyph-name="ellipsis" unicode="&#x2026;" horiz-adv-x="1624" 
d="M45 0l39 190h154l-39 -190h-154zM653 0l39 190h154l-39 -190h-154zM1262 0l38 190h154l-39 -190h-153z" />
    <glyph glyph-name="perthousand" unicode="&#x2030;" horiz-adv-x="2633" 
d="M788 1130q0 222 -176 222q-149 0 -234 -144t-85 -315q0 -221 176 -221q150 0 234.5 142.5t84.5 315.5zM456 575q-120 0 -199 83t-79 225q0 213 118.5 389t321.5 176q129 0 207 -83t78 -224q0 -214 -115.5 -390t-331.5 -176zM2472 512q0 221 -176 221q-150 0 -235 -143.5
t-85 -315.5q0 -221 176 -221q150 0 235 143.5t85 315.5zM1862 264q0 213 118 389t322 176q129 0 207 -82.5t78 -224.5q0 -212 -115 -388.5t-333 -176.5q-120 0 -198.5 83t-78.5 224zM1657 512q0 221 -176 221q-150 0 -235 -143.5t-85 -315.5q0 -221 176 -221
q150 0 235 143.5t85 315.5zM1047 264q0 212 117 388.5t323 176.5q129 0 207 -82.5t78 -224.5q0 -212 -115 -388.5t-333 -176.5q-120 0 -198.5 83t-78.5 224zM535 0h-134l1020 1415h129z" />
    <glyph glyph-name="guilsinglleft" unicode="&#x2039;" horiz-adv-x="573" 
d="M512 979h121l-371 -459l168 -450h-113l-186 456z" />
    <glyph glyph-name="guilsinglright" unicode="&#x203a;" horiz-adv-x="573" 
d="M119 70h-123l371 458l-168 451h110l189 -457z" />
    <glyph glyph-name="fraction" unicode="&#x2044;" horiz-adv-x="149" 
d="M-299 0h-133l1020 1415h129z" />
    <glyph glyph-name="zerosuperior" unicode="&#x2070;" horiz-adv-x="843" 
d="M782 1130q0 222 -176 222q-149 0 -234 -144t-85 -315q0 -221 176 -221q151 0 235 144t84 314zM450 575q-120 0 -199 83t-79 225q0 213 118.5 389t321.5 176q129 0 207 -83t78 -224q0 -214 -115.5 -390t-331.5 -176z" />
    <glyph glyph-name="foursuperior" unicode="&#x2074;" horiz-adv-x="843" 
d="M336 899h297l78 377zM569 604l43 205h-422l17 76l532 534h105l-111 -520h103l-37 -90h-86l-43 -205h-101z" />
    <glyph glyph-name="fivesuperior" unicode="&#x2075;" horiz-adv-x="843" 
d="M595 1122q110 0 164 -64.5t54 -147.5q0 -154 -82 -244.5t-227 -90.5q-179 0 -221.5 83t-44.5 151h100q6 -74 44 -109.5t130 -35.5t146.5 60t54.5 165q0 145 -135 145q-108 0 -201 -71h-88l121 456h452l-18 -94h-367l-65 -254q73 51 183 51z" />
    <glyph glyph-name="sixsuperior" unicode="&#x2076;" horiz-adv-x="843" 
d="M328 825q0 -61 39 -111t127 -50t146 54t58 175q0 66 -36.5 107.5t-119.5 41.5t-148.5 -60t-65.5 -157zM635 1360q-94 0 -169 -78t-118 -244q35 37 90.5 62.5t115.5 25.5q122 0 182.5 -65.5t60.5 -167.5q0 -152 -85.5 -235t-219.5 -83t-199.5 78t-65.5 189
q0 208 81.5 364.5t169 199t163.5 42.5q201 0 229 -197l-90 -18q-16 74 -51 100.5t-94 26.5z" />
    <glyph glyph-name="sevensuperior" unicode="&#x2077;" horiz-adv-x="843" 
d="M864 1337q-285 -352 -465 -733h-116q126 243 224 402t226 313h-459l23 100h586z" />
    <glyph glyph-name="eightsuperior" unicode="&#x2078;" horiz-adv-x="843" 
d="M479.5 662q102.5 0 165 40.5t62.5 143.5q0 51 -40 89t-155 38t-166 -48.5t-51 -116.5t41 -107t143.5 -39zM548 1061q91 0 153.5 40t62.5 136q0 53 -35 90t-109 37q-128 0 -178.5 -50.5t-50.5 -114.5t33 -101t124 -37zM817 844q0 -269 -344 -269q-145 0 -216 60.5
t-71 152.5q0 173 189 238q-86 64 -86 166q0 103 82 179.5t220 76.5t206.5 -59t68.5 -144q0 -171 -166 -231q117 -60 117 -170z" />
    <glyph glyph-name="ninesuperior" unicode="&#x2079;" horiz-adv-x="843" 
d="M735 1168q-1 192 -169 192q-88 0 -144.5 -56.5t-56.5 -168.5q0 -66 37.5 -110t119.5 -44t147.5 49.5t65.5 137.5zM313 797q11 -133 149 -133q116 0 177 72.5t80 248.5q-84 -92 -206 -92t-184.5 72t-62.5 168q0 147 84 231t217 84t202 -81t69 -192q0 -250 -83.5 -425
t-278.5 -175t-227 89.5t-34 132.5h98z" />
    <glyph glyph-name="zeroinferior" unicode="&#x2080;" horiz-adv-x="843" 
d="M682 528q0 222 -176 222q-148 0 -233 -142t-87 -317q0 -221 176 -221q150 0 235 144q85 143 85 314zM349 -27q-121 0 -199 83t-78 225q0 211 110 377q125 188 330 188q129 0 207 -83t78 -224q0 -96 -27 -196q-59 -217 -218 -317q-83 -52 -203 -53z" />
    <glyph glyph-name="oneinferior" unicode="&#x2081;" horiz-adv-x="843" 
d="M336 2l147 692l-200 -94l-39 92l256 125h129l-174 -815h-119z" />
    <glyph glyph-name="twoinferior" unicode="&#x2082;" horiz-adv-x="843" 
d="M487 750q-77 0 -125 -34t-79 -118l-99 23q29 93 105 159t200 66q123 0 191 -62t68 -147q0 -84 -24 -138q-24 -53 -65 -99q-86 -96 -295 -231q-48 -32 -98 -69h391l-39 -98h-536l16 90q72 53 177 128t233 171q128 97 128 229q0 52 -36 91t-113 39z" />
    <glyph glyph-name="threeinferior" unicode="&#x2083;" horiz-adv-x="843" 
d="M655 620q-1 138 -157 138q-82 0 -130 -33t-83 -119l-92 21q64 215 319 219q118 0 180 -59t63 -147q1 -89 -41 -139t-106 -79q94 -63 93 -179t-77 -193t-215 -77q-138 0 -220 69t-80 187h94q16 -168 202 -168q87 -1 141 47t54 126q0 147 -131 147h-127l20 88h113
q86 0 133 44q47 43 47 107z" />
    <glyph glyph-name="fourinferior" unicode="&#x2084;" horiz-adv-x="843" 
d="M225 297h297l78 377zM459 2l43 205h-422l16 76l533 534h104l-110 -520h102l-37 -90h-86l-43 -205h-100z" />
    <glyph glyph-name="fiveinferior" unicode="&#x2085;" horiz-adv-x="843" 
d="M494 520q110 0 164 -64t55 -148q0 -154 -82 -244t-228 -91q-179 0 -241 122q-23 44 -25 112h101q6 -74 44 -110t130 -36q92 1 146 61t54 165q0 145 -135 145q-110 0 -201 -72h-88l121 457h453l-19 -94h-366l-66 -254q73 51 183 51z" />
    <glyph glyph-name="sixinferior" unicode="&#x2086;" horiz-adv-x="843" 
d="M238 223q0 -61 38 -111t127 -50t147 54t58 175q0 65 -36 107t-120 42q-83 0 -148 -59q-66 -60 -66 -158zM545 758q-94 0 -169 -78t-118 -244q35 37 90 63q56 25 116 25q121 -1 181 -65t62 -168q0 -152 -86 -235q-85 -83 -219 -83t-200 78t-65 189q0 213 92 386
q71 133 186 190q60 30 136 30q201 0 229 -197l-90 -18q-16 75 -51 101t-94 26z" />
    <glyph glyph-name="seveninferior" unicode="&#x2087;" horiz-adv-x="843" 
d="M784 735q-290 -357 -465 -733h-116q127 245 225 403t225 312h-458l22 100h586z" />
    <glyph glyph-name="eightinferior" unicode="&#x2088;" horiz-adv-x="843" 
d="M195 206q0 -148 184 -147q102 0 165 41q62 41 62 144q0 51 -40 89t-154 38t-166 -48q-51 -49 -51 -117zM508 762q-217 0 -217 -184q1 -45 33 -82t123 -37t154 40q62 40 63 136q0 53 -35 90t-121 37zM717 242q0 -267 -344 -269q-145 1 -216 61t-71 159t66 158
q44 42 122 73q-86 64 -86 166q0 104 82 180t222 76t207 -60t67 -143q0 -171 -166 -231q117 -60 117 -170z" />
    <glyph glyph-name="nineinferior" unicode="&#x2089;" horiz-adv-x="843" 
d="M635 566q0 192 -169 192q-89 0 -145 -56t-57 -170q0 -66 38 -110t120 -43q82 0 148 50q66 49 65 137zM213 195q11 -134 149 -134q62 -1 102 15q130 50 154 307q-85 -94 -206 -93q-120 1 -183 72t-63 168q0 148 84 232t216 84t202 -81q69 -81 69 -191q0 -253 -73 -406
q-92 -193 -288 -194t-245 138q-14 40 -16 83h98z" />
    <glyph glyph-name="Euro" unicode="&#x20ac;" 
d="M876 1454q199 0 297 -93t123 -280l-114 -22q-23 156 -91.5 223.5t-224.5 67.5q-155 0 -265.5 -117.5t-176.5 -308.5h543l-37 -101h-537q-19 -80 -33 -229h498l-39 -105h-461q18 -422 353 -421q166 0 240.5 81t115.5 244h117q-50 -213 -162.5 -321.5t-327 -108.5t-336 144
t-129.5 382h-153l39 105h116q9 128 33 229h-137l37 101h129q120 364 297.5 447t285.5 83z" />
    <glyph glyph-name="uni20AE" unicode="&#x20ae;" 
d="M692 444l-92 -444h-125l76 365l-283 -158l-35 94l347 193l49 241l-285 -160l-35 95l348 194l93 439h-447l25 112h1015l-24 -112h-445l-75 -359l286 160l37 -94l-350 -197l-51 -240l289 162l37 -94z" />
    <glyph glyph-name="uni20B4" unicode="&#x20b4;" 
d="M608 70q276 0 346 256h111q-39 -183 -167 -273t-310 -90q-284 0 -342 142.5t-58 226.5t21 147h-90l22 99h113q49 66 127 103.5t194 59.5l220 41q117 20 192 84h-786l22 99h826q14 40 14 141q0 100 -65.5 170t-203 70t-217 -52.5t-124.5 -175.5l-107 25q104 307 451 307
q259 0 320 -129t61 -212t-13 -144h88l-22 -99h-105q-41 -72 -116.5 -114.5t-206.5 -67.5l-201 -37q-141 -24 -205 -69h774l-22 -99h-823q-23 -57 -23 -133q0 -276 305 -276z" />
    </font>
</defs>
</svg>
