<?xml version="1.0" standalone="no"?>
<!DOCTYPE svg PUBLIC "-//W3C//DTD SVG 1.1//EN" "http://www.w3.org/Graphics/SVG/1.1/DTD/svg11.dtd" >
<svg xmlns="http://www.w3.org/2000/svg">
<metadata>
Created by FontPrep 20130207 at Wed Feb  4 14:42:09 2015
 By Brian Tretcher
Copyright (c) 2010 Dalton Maag Ltd. All rights reserved. This font may not be altered in any way without prior permission of Dalton Maag Ltd.
</metadata>
<defs>
<font id="2ac57a0e986b1a72404a920e58ad1be0" horiz-adv-x='1024' >
  <font-face 
    font-family="AktivGroteskCorp-Italic"
    font-weight="400"
    font-style="italic"
    font-stretch="normal"
    units-per-em="2048"
    panose-1="2 11 6 4 2 2 2 9 2 4"
    ascent="1638"
    descent="-410"
    x-height="1059"
    cap-height="1462"
    bbox="-414 -451 2675 1931.02"
    underline-thickness="139"
    underline-position="-133"
    slope="-12"
    unicode-range="U+0008-FB04"
  />
<missing-glyph horiz-adv-x="1024" 
d="M819 102v1332h-614v-1332h614zM102 0v1536h820v-1536h-820z" />
    <glyph glyph-name="f_f" unicode="ff" horiz-adv-x="1368" 
d="M1412 1333q-141 0 -177 -174l-23 -100h269l-29 -141h-270l-193 -918h-180l195 918h-164l28 141h166l23 106q39 170 125 242t206 72t207 -37l-51 -133q-60 24 -132 24zM728 1333q-141 0 -177 -174l-23 -100h269l-29 -141h-270l-193 -918h-180l194 918h-163l28 141h166
l23 106q39 170 125 242t206 72t207 -37l-51 -133q-60 24 -132 24z" />
    <glyph glyph-name="f_i" unicode="fi" horiz-adv-x="1146" 
d="M728 1333q-141 0 -177 -174l-23 -100h269l-29 -141h-270l-193 -918h-180l194 918h-163l28 141h166l23 106q39 170 125 242t206 72t207 -37l-51 -133q-60 24 -132 24zM1004 1255l43 207h192l-43 -207h-192zM752 0l225 1059h178l-225 -1059h-178z" />
    <glyph glyph-name="f_l" unicode="fl" horiz-adv-x="1146" 
d="M728 1333q-141 0 -177 -174l-23 -100h269l-29 -141h-270l-193 -918h-180l194 918h-163l28 141h166l23 106q39 170 125 242t206 72t207 -37l-51 -133q-60 24 -132 24zM752 0l309 1462h178l-309 -1462h-178z" />
    <glyph glyph-name="f_f_i" unicode="ffi" horiz-adv-x="1830" 
d="M1412 1333q-141 0 -177 -174l-23 -100h269l-29 -141h-270l-193 -918h-180l195 918h-164l28 141h166l23 106q39 170 125 242t206 72t207 -37l-51 -133q-60 24 -132 24zM728 1333q-141 0 -177 -174l-23 -100h269l-29 -141h-270l-193 -918h-180l194 918h-163l28 141h166
l23 106q39 170 125 242t206 72t207 -37l-51 -133q-60 24 -132 24zM1688 1255l43 207h192l-43 -207h-192zM1436 0l225 1059h178l-225 -1059h-178z" />
    <glyph glyph-name="f_f_l" unicode="ffl" horiz-adv-x="1828" 
d="M1412 1333q-141 0 -177 -174l-23 -100h269l-29 -141h-270l-193 -918h-180l195 918h-164l28 141h166l23 106q39 170 125 242t206 72t207 -37l-51 -133q-60 24 -132 24zM728 1333q-141 0 -177 -174l-23 -100h269l-29 -141h-270l-193 -918h-180l194 918h-163l28 141h166
l23 106q39 170 125 242t206 72t207 -37l-51 -133q-60 24 -132 24zM1434 0l309 1462h178l-309 -1462h-178z" />
    <glyph glyph-name=".notdef" horiz-adv-x="1024" 
d="M819 102v1332h-614v-1332h614zM102 0v1536h820v-1536h-820z" />
    <glyph glyph-name=".null" horiz-adv-x="0" 
 />
    <glyph glyph-name=".null" horiz-adv-x="0" 
 />
    <glyph glyph-name=".null" horiz-adv-x="0" 
 />
    <glyph glyph-name="nonmarkingreturn" unicode="&#x9;" horiz-adv-x="456" 
 />
    <glyph glyph-name="nonmarkingreturn" unicode="&#xd;" horiz-adv-x="456" 
 />
    <glyph glyph-name="space" unicode=" " horiz-adv-x="456" 
 />
    <glyph glyph-name="exclam" unicode="!" horiz-adv-x="471" 
d="M68 0l49 238h198l-49 -238h-198zM168 420l209 1042h188l-231 -1042h-166z" />
    <glyph glyph-name="quotedbl" unicode="&#x22;" horiz-adv-x="684" 
d="M340 938h-154l97 516h180zM682 938h-154l97 516h180z" />
    <glyph glyph-name="numbersign" unicode="#" 
d="M446 494h320l145 405h-317zM719 360h-320l-129 -360h-159l129 360h-193l25 134h215l149 405h-213l27 133h235l127 357h160l-131 -357h320l129 357h159l-127 -357h183l-25 -133h-207l-149 -405h202l-26 -134h-223l-127 -360h-162z" />
    <glyph glyph-name="dollar" unicode="$" 
d="M424 1010q0 -141 194 -191l103 488q-224 -17 -260.5 -123t-36.5 -174zM604 113q166 0 246 78.5t80 207.5q0 81 -40 140t-147 82l-34 8l-109 -516h4zM1114 418q0 -219 -137 -336t-387 -117h-23l-41 -196h-131l43 208q-252 41 -306 177.5t-56 234.5h174q4 -117 60.5 -179.5
t160.5 -84.5l113 532q-174 41 -254 128t-80 229q0 196 139 313t363 125l36 170h134l-39 -178q172 -27 256 -129.5t102 -239.5l-168 -24q-22 111 -57 154.5t-72 65t-92 32.5l-109 -515l29 -6q342 -78 342 -364z" />
    <glyph glyph-name="percent" unicode="%" horiz-adv-x="1880" 
d="M612 1303q-133 0 -206 -139q-64 -116 -64 -271q0 -78 36 -129t111 -51q134 0 208 137q61 112 63 266q0 187 -148 187zM604 1448q229 0 299 -187q23 -59 23 -145t-28 -185q-60 -214 -223 -313q-85 -51 -175 -51q-230 0 -301 188q-23 58 -23 144t29 185q29 98 85 180
t140 133t174 51zM598 0h-184l1016 1415h184zM1683 510q0 186 -147 186q-131 0 -207 -138q-63 -115 -63 -271q0 -78 36 -129q36 -52 110 -52q135 -1 209 138q62 114 62 266zM1526 842q227 0 301 -188q50 -127 -8 -336t-221 -306q-85 -51 -175 -51q-227 0 -301 187
q-51 129 9 336q60 206 222 306q83 52 173 52z" />
    <glyph glyph-name="ampersand" unicode="&#x26;" horiz-adv-x="1304" 
d="M915 1188q0 66 -42.5 107.5t-122.5 41.5t-132.5 -54.5t-52.5 -145.5t39 -165.5t45 -84.5q140 69 203 129t63 172zM338 182q72 -69 244 -69t307 110l-314 484q-164 -82 -236.5 -158t-72.5 -187t72 -180zM965 104q-166 -137 -400 -137t-358.5 101t-124.5 267t102 273.5
t318 210.5q-22 35 -35 66q-68 120 -68 215q0 174 100 272t258 98t237 -77t79 -177q0 -173 -90.5 -265.5t-259.5 -174.5l274 -426q94 149 107 338h166q-22 -277 -185 -471l142 -217h-193z" />
    <glyph glyph-name="quotesingle" unicode="'" horiz-adv-x="342" 
d="M340 938h-154l97 516h180z" />
    <glyph glyph-name="parenleft" unicode="(" horiz-adv-x="538" 
d="M219 -254q-96 196 -96 568q0 116 64 456.5t401 732.5h172q-209 -272 -330 -591.5t-121 -673.5q0 -268 76 -492h-166z" />
    <glyph glyph-name="parenright" unicode=")" horiz-adv-x="538" 
d="M436 1503q96 -226 96 -569q0 -115 -31.5 -282t-124.5 -412t-308 -494h-172q209 272 329.5 591.5t120.5 674.5q0 267 -76 491h166z" />
    <glyph glyph-name="asterisk" unicode="*" horiz-adv-x="798" 
d="M717 1462l-82 -264l227 109l49 -148l-264 -72l150 -219l-138 -80l-112 226l-191 -223l-116 98l233 203l-231 79l69 144l211 -117l25 264h170z" />
    <glyph glyph-name="plus" unicode="+" 
d="M743 618l-88 -421h-163l88 421h-392l33 158h393l88 422h164l-88 -422h393l-34 -158h-394z" />
    <glyph glyph-name="comma" unicode="," horiz-adv-x="456" 
d="M-23 -199l156 443h191l-201 -443h-146z" />
    <glyph glyph-name="hyphen" unicode="-" horiz-adv-x="798" 
d="M131 510l39 178h602l-39 -178h-602z" />
    <glyph glyph-name="period" unicode="." horiz-adv-x="458" 
d="M53 0l49 240h205l-51 -240h-203z" />
    <glyph glyph-name="slash" unicode="/" horiz-adv-x="677" 
d="M125 0h-188l784 1503h188z" />
    <glyph glyph-name="zero" unicode="0" 
d="M317 457q0 -150 60.5 -242t184.5 -92t214 79t177 259.5t87 496.5q0 150 -59 242t-200 92t-272 -153.5t-161.5 -371.5t-30.5 -310zM792 1454q204 0 321.5 -130.5t117.5 -360.5q0 -360 -130 -613.5t-275.5 -320t-257.5 -66.5q-206 0 -323.5 130t-117.5 362q0 354 133 609
t277.5 322.5t254.5 67.5z" />
    <glyph glyph-name="one" unicode="1" 
d="M532 0l256 1212l-354 -186l-74 139l471 250h183l-299 -1415h-183z" />
    <glyph glyph-name="two" unicode="2" 
d="M766 1292q-127 0 -208 -59t-130 -195l-168 27q56 180 180 284.5t338 104.5t322 -105t108 -272q0 -265 -215.5 -438t-386 -293.5t-248.5 -181.5h686l-59 -164h-928l31 150q92 70 210 156.5t221 164.5t302 226t199 371q0 224 -254 224z" />
    <glyph glyph-name="three" unicode="3" 
d="M1204 1108q0 -282 -278 -375q182 -89 182 -302q0 -212 -132 -340t-361 -128t-363.5 114t-134.5 314h178q8 -141 92 -205.5t222 -64.5t225.5 74.5t87.5 230.5q0 111 -59.5 170t-170.5 59h-180l35 162h164q224 0 269.5 99.5t45.5 181.5t-63.5 139t-197.5 57t-213 -53
t-124 -184l-164 26q93 371 520 371q196 0 308 -96t112 -250z" />
    <glyph glyph-name="four" unicode="4" 
d="M307 498h479l144 673zM682 0l74 352h-674l31 140l860 923h182l-194 -917h198l-53 -146h-176l-74 -352h-174z" />
    <glyph glyph-name="five" unicode="5" 
d="M436 815q138 94 305 94q177 0 276 -110.5t99 -272.5q0 -242 -140 -402.5t-390 -160.5q-314 0 -381.5 146.5t-69.5 252.5h176q8 -127 73.5 -184t215.5 -57t242 103.5t92 281.5t-89 217t-169 39q-154 0 -297 -121h-156l215 774h774l-32 -162h-623z" />
    <glyph glyph-name="six" unicode="6" 
d="M700 768q-143 0 -251.5 -104.5t-108.5 -272.5q0 -117 69.5 -197.5t216.5 -80.5q148 0 238 96.5t90 286.5t-94 231t-160 41zM745 915q183 0 286.5 -115t103.5 -263q0 -276 -143 -425t-372 -149q-230 0 -344 132.5t-114 355.5q0 333 133.5 596t279.5 335t271 72
q352 0 393 -321l-164 -31q-23 115 -81 155.5t-148 40.5q-174 0 -290.5 -137.5t-180.5 -427.5q141 182 370 182z" />
    <glyph glyph-name="seven" unicode="7" 
d="M1247 1264q-466 -625 -774 -1264h-203q357 705 770 1253h-757l32 162h963z" />
    <glyph glyph-name="eight" unicode="8" 
d="M624 111q128 0 233.5 75t105.5 236q0 95 -74 158t-227 63q-207 0 -299.5 -81t-92.5 -218q0 -163 113 -198t241 -35zM1063 1092q0 87 -66 152t-182 65q-205 0 -292 -83t-87 -214q0 -90 66 -152.5t198 -62.5q160 0 261.5 70.5t101.5 224.5zM1143 399q0 -88 -43 -175
t-157.5 -174t-360.5 -87t-369 103t-123 267q0 163 100.5 259t241.5 139q-68 37 -118 107t-50 166q0 201 142.5 325.5t398.5 124.5q206 0 319 -99.5t113 -248.5q0 -224 -124 -295.5t-181 -89.5q211 -76 211 -322z" />
    <glyph glyph-name="nine" unicode="9" 
d="M644 653q145 0 253.5 95.5t108.5 263.5q0 125 -70.5 209t-214.5 84t-236 -95.5t-92 -283.5t92 -230.5t159 -42.5zM977 678q-145 -172 -361 -172q-191 0 -297 116t-106 260q0 273 141.5 422.5t369.5 149.5t343 -134t115 -370q0 -362 -117.5 -608t-258 -312.5t-267.5 -66.5
q-209 0 -308.5 91t-113.5 257h172q16 -115 84.5 -153.5t177.5 -38.5q164 0 273.5 137t152.5 422z" />
    <glyph glyph-name="colon" unicode=":" horiz-adv-x="458" 
d="M53 0l49 240h205l-51 -240h-203zM227 819l49 240h205l-51 -240h-203z" />
    <glyph glyph-name="semicolon" unicode=";" horiz-adv-x="456" 
d="M-23 -199l156 443h191l-201 -443h-146zM227 819l49 240h205l-51 -240h-203z" />
    <glyph glyph-name="less" unicode="&#x3c;" 
d="M215 625l29 139l1011 426l-38 -180l-783 -320l647 -328l-37 -163z" />
    <glyph glyph-name="equal" unicode="=" 
d="M266 846l35 160h885l-33 -160h-887zM172 389l33 160h887l-33 -160h-887z" />
    <glyph glyph-name="greater" unicode="&#x3e;" 
d="M1141 764l-29 -139l-1012 -426l39 184l783 315l-648 330l37 162z" />
    <glyph glyph-name="question" unicode="?" horiz-adv-x="1026" 
d="M330 0l49 238h199l-50 -238h-198zM1041.5 936q-62.5 -95 -175.5 -184q-45 -37 -140.5 -108t-123.5 -198l-4 -26h-178l6 31q33 162 208.5 301.5t230.5 213t55 169.5t-58.5 147t-177.5 51t-195.5 -55.5t-121.5 -194.5l-160 27q53 184 171.5 280.5t316.5 96.5t303.5 -91.5
t105.5 -227.5q0 -137 -62.5 -232z" />
    <glyph glyph-name="at" unicode="@" horiz-adv-x="1953" 
d="M721 373q0 -252 178 -252q142 0 234 125q56 73 84 211l12 69q8 41 8 82q0 88 -53 142q-52 54 -132 53q-144 0 -237.5 -124t-93.5 -306zM1335 184q0 -24 22.5 -45.5t90.5 -21.5t196 91t128 478q0 260 -174.5 406.5t-467.5 146.5q-197 0 -356.5 -65.5t-332.5 -247
t-173 -570.5q0 -288 174 -472.5t490 -184.5q182 0 309 43t217 145h176q-106 -172 -281 -248.5t-429 -76.5q-365 0 -591.5 212t-226.5 574q0 215 72 402.5t205 327t324.5 220t396.5 80.5t349 -49t249.5 -138t165 -216t59.5 -275q0 -310 -135 -509t-391 -199q-188 0 -215 153
q-133 -165 -309 -165t-255 110.5t-79 252.5q0 267 143 431t337 164t273 -154l29 131h162l-148 -688q-4 -19 -4 -43z" />
    <glyph glyph-name="A" unicode="A" horiz-adv-x="1380" 
d="M483 571h512l-114 678zM1024 1462l258 -1462h-195l-69 408h-625l-239 -408h-205l878 1462h197z" />
    <glyph glyph-name="B" unicode="B" horiz-adv-x="1294" 
d="M633 156q223 0 315 75.5t92 229.5q0 96 -69.5 159.5t-220.5 63.5h-334l-113 -528h330zM1135 1116q0 191 -283 191h-305l-98 -463h323q251 0 307 96t56 176zM1233 458q0 -217 -152 -337.5t-467 -120.5h-528l309 1462h482q240 0 344 -94t104 -236q0 -275 -299 -370
q102 -45 154.5 -124t52.5 -180z" />
    <glyph glyph-name="C" unicode="C" horiz-adv-x="1454" 
d="M930 1335q-251 0 -406 -211t-155 -524q0 -208 100.5 -340.5t291.5 -132.5t294.5 94t138.5 248h205q-81 -361 -292.5 -433.5t-351.5 -72.5q-273 0 -429 169.5t-156 451.5q0 182 52 348t151.5 292t243 200.5t323.5 74.5q250 0 381 -130t152 -355l-189 -31
q-23 176 -102.5 264t-251.5 88z" />
    <glyph glyph-name="D" unicode="D" horiz-adv-x="1462" 
d="M588 164q328 0 496.5 191t168.5 517q0 187 -103 307.5t-298 120.5h-301l-242 -1136h279zM870 1462q265 0 422.5 -165.5t157.5 -424.5q0 -396 -227.5 -634t-661.5 -238h-475l309 1462h475z" />
    <glyph glyph-name="E" unicode="E" horiz-adv-x="1216" 
d="M551 1296l-98 -458h716l-34 -168h-717l-107 -504h799l-61 -166h-961l309 1462h946l-34 -166h-758z" />
    <glyph glyph-name="F" unicode="F" horiz-adv-x="1155" 
d="M551 1296l-102 -479h673l-35 -170h-673l-138 -647h-188l309 1462h908l-35 -166h-719z" />
    <glyph glyph-name="G" unicode="G" horiz-adv-x="1466" 
d="M367 598q0 -202 102.5 -336.5t290.5 -134.5q147 0 237 34t150 75l76 352h-371l37 164h547l-129 -602q-91 -82 -236.5 -134.5t-301.5 -52.5q-289 0 -445 173.5t-156 447.5q0 176 51 341t150.5 293t246 204.5t350.5 76.5t338 -107.5t164 -310.5l-184 -32q-53 288 -348 288
q-263 0 -416 -216t-153 -523z" />
    <glyph glyph-name="H" unicode="H" horiz-adv-x="1439" 
d="M1014 0l141 668h-737l-142 -668h-188l309 1462h189l-131 -618h737l131 618h188l-309 -1462h-188z" />
    <glyph glyph-name="I" unicode="I" horiz-adv-x="512" 
d="M88 0l309 1462h189l-310 -1462h-188z" />
    <glyph glyph-name="J" unicode="J" horiz-adv-x="1222" 
d="M74 369q0 33 4 69h184v-39q0 -198 98.5 -235t182.5 -37q162 0 248 93.5t124 281.5l205 960h189l-211 -997q-53 -262 -191.5 -382t-360.5 -120t-347 104t-125 302z" />
    <glyph glyph-name="K" unicode="K" horiz-adv-x="1331" 
d="M696 793l-305 -248l-115 -545h-188l309 1462h189l-146 -690l826 690h221l-639 -557l383 -905h-209z" />
    <glyph glyph-name="L" unicode="L" horiz-adv-x="1150" 
d="M88 0l309 1462h189l-275 -1294h758l-63 -168h-918z" />
    <glyph glyph-name="M" unicode="M" horiz-adv-x="1732" 
d="M397 1462h228l211 -1237l737 1237h233l-309 -1462h-174l244 1153l-703 -1153h-153l-207 1149l-244 -1149h-172z" />
    <glyph glyph-name="N" unicode="N" horiz-adv-x="1433" 
d="M1030 0l-514 1161l-246 -1161h-182l309 1462h170l510 -1161l246 1161h182l-309 -1462h-166z" />
    <glyph glyph-name="O" unicode="O" horiz-adv-x="1566" 
d="M938 1335q-120 0 -230 -66.5t-223.5 -230.5t-113.5 -458q0 -205 101.5 -329t291.5 -124q143 0 252.5 66.5t223.5 230t114 461.5q0 205 -102 327.5t-314 122.5zM973 1499q257 0 417 -165.5t160 -440.5q0 -172 -52 -339t-152.5 -298t-250 -212t-341.5 -81q-260 0 -420 164
t-160 442q0 172 53.5 339t155.5 298t251 212t339 81z" />
    <glyph glyph-name="P" unicode="P" horiz-adv-x="1282" 
d="M723 727q208 0 319 79t111 277q0 94 -69.5 157t-239.5 63h-295l-123 -576h297zM1341 1090q0 -267 -167 -395t-472 -128h-309l-121 -567h-186l309 1462h479q242 0 354.5 -111.5t112.5 -260.5z" />
    <glyph glyph-name="Q" unicode="Q" horiz-adv-x="1566" 
d="M938 1335q-120 0 -230 -66.5t-223.5 -230.5t-113.5 -458q0 -205 101.5 -329t291.5 -124q127 0 235 57l-145 238l133 84l141 -227q165 165 195.5 342.5t30.5 270.5t-25.5 176t-75 142.5t-122.5 92t-193 32.5zM780 -37q-286 0 -446 164t-160 442q0 172 53.5 339t155.5 298
t250.5 212t339.5 81q257 0 417 -165.5t160 -440.5q0 -350 -123.5 -524t-203.5 -242l127 -205l-133 -86l-127 205q-156 -78 -310 -78z" />
    <glyph glyph-name="R" unicode="R" horiz-adv-x="1300" 
d="M750 768q288 0 340.5 111t52.5 179t-34.5 156.5t-279.5 88.5h-280l-113 -535h314zM1333 1083q0 -339 -344 -436l174 -647h-205l-149 610q-29 -4 -37 -4h-371l-129 -606h-186l309 1462h469q252 0 360.5 -109.5t108.5 -269.5z" />
    <glyph glyph-name="S" unicode="S" horiz-adv-x="1316" 
d="M1212 412q0 -92 -41 -181.5t-153.5 -178.5t-368.5 -89q-376 0 -468.5 161t-96.5 292h188q16 -152 105.5 -221.5t284.5 -69.5q265 0 306.5 117.5t41.5 167.5q0 92 -44 150.5t-157 80.5l-193 41q-360 77 -360 369q0 221 148.5 334.5t395.5 113.5t376.5 -107t150.5 -294
l-180 -31q-20 137 -98 204.5t-258 67.5t-260 -71t-80 -174t47 -157t172 -83l188 -41q278 -57 316 -183t38 -218z" />
    <glyph glyph-name="T" unicode="T" horiz-adv-x="1230" 
d="M909 1294l-272 -1294h-191l275 1294h-485l36 168h1155l-34 -168h-484z" />
    <glyph glyph-name="U" unicode="U" horiz-adv-x="1396" 
d="M170 401q0 78 23 187l184 874h188l-186 -882q-18 -92 -19 -166q0 -287 312 -287q277 0 344 170t92 283l188 882h189l-187 -882q-69 -323 -218.5 -470t-406.5 -147q-238 0 -370.5 110t-132.5 328z" />
    <glyph glyph-name="V" unicode="V" horiz-adv-x="1363" 
d="M702 0h-186l-256 1462h203l190 -1218l711 1218h209z" />
    <glyph glyph-name="W" unicode="W" horiz-adv-x="1906" 
d="M1401 0h-197l-67 1223l-580 -1223h-190l-109 1462h209l51 -1202l569 1196h201l66 -1196l557 1202h207z" />
    <glyph glyph-name="X" unicode="X" horiz-adv-x="1306" 
d="M844 760l368 -760h-211l-294 625l-543 -625h-215l678 776l-332 686h209l256 -557l489 557h213z" />
    <glyph glyph-name="Y" unicode="Y" horiz-adv-x="1255" 
d="M262 1462h203l250 -676l534 676h213l-680 -841l-131 -621h-188l129 621z" />
    <glyph glyph-name="Z" unicode="Z" horiz-adv-x="1200" 
d="M1059 0h-1067l31 145l1062 1151h-811l35 166h1049l-31 -147l-1061 -1147h854z" />
    <glyph glyph-name="bracketleft" unicode="[" horiz-adv-x="579" 
d="M25 -254l374 1757h402l-33 -153h-221l-307 -1450h221l-35 -154h-401z" />
    <glyph glyph-name="backslash" unicode="\" horiz-adv-x="677" 
d="M584 0h-176l-144 1503h174z" />
    <glyph glyph-name="bracketright" unicode="]" horiz-adv-x="579" 
d="M670 1503l-375 -1757h-401l32 154h221l308 1450h-222l35 153h402z" />
    <glyph glyph-name="asciicircum" unicode="^" 
d="M973 618l-172 629l-439 -629h-192l594 834h151l238 -834h-180z" />
    <glyph glyph-name="underscore" unicode="_" horiz-adv-x="1024" 
d="M-150 -358l23 106h1022l-23 -106h-1022z" />
    <glyph glyph-name="grave" unicode="`" horiz-adv-x="800" 
d="M606 1210l-223 291h209l182 -291h-168z" />
    <glyph glyph-name="a" unicode="a" horiz-adv-x="1101" 
d="M242 302q0 -95 41 -138t124 -43q156 0 263 83.5t135 207.5l24 120l-176 -8q-230 -12 -320.5 -69.5t-90.5 -152.5zM366 -25q-136 0 -222.5 75t-86.5 198t48.5 196.5t159.5 135.5t390 71l201 6l6 29q10 47 10 84q0 82 -48 132t-171 50t-186.5 -34.5t-97.5 -126.5l-162 20
q49 154 162 217.5t303 63.5t282.5 -84t92.5 -232q0 -63 -15 -123l-137 -653h-174l31 145q-74 -76 -162 -123t-224 -47z" />
    <glyph glyph-name="b" unicode="b" horiz-adv-x="1222" 
d="M326 375q0 -121 75 -190.5t181 -69.5q189 0 296 153.5t107 370.5q0 150 -61.5 227.5t-169.5 77.5q-140 0 -251.5 -108.5t-142.5 -249.5l-18 -84q-16 -70 -16 -127zM801 1092q186 0 279.5 -128.5t93.5 -324.5q0 -270 -111 -413.5t-213 -201t-229 -57.5q-238 0 -349 193
l-32 -160h-177l310 1462h178l-117 -551q152 181 367 181z" />
    <glyph glyph-name="c" unicode="c" horiz-adv-x="1144" 
d="M561 -33q-206 0 -321 125.5t-115 304.5q0 332 171 513.5t421 181.5q191 0 289.5 -100.5t111.5 -262.5l-176 -27q-15 116 -50.5 159.5t-78.5 63t-120 19.5t-148.5 -37t-151.5 -144.5t-80 -331.5t97.5 -270t169.5 -46q133 0 204.5 66.5t100.5 170.5h182
q-101 -385 -506 -385z" />
    <glyph glyph-name="d" unicode="d" horiz-adv-x="1220" 
d="M307 420q0 -141 63.5 -222t193.5 -81t236 108t134 252l18 84q14 66 15 127q0 102 -73 179t-212 77q-78 0 -149.5 -42t-148.5 -151t-77 -331zM119 416q0 270 111.5 415.5t215 203t232.5 57.5q231 0 342 -191l119 561h178l-311 -1462h-175l29 147q-141 -180 -343 -180
t-300 130.5t-98 318.5z" />
    <glyph glyph-name="e" unicode="e" horiz-adv-x="1167" 
d="M301 462v-52q0 -126 76 -212.5t209 -86.5t196.5 48t94.5 138h174q-74 -246 -221.5 -288t-255.5 -42q-205 0 -327 128.5t-122 307.5q0 328 162.5 508.5t421.5 180.5q193 0 300 -113t107 -291q0 -108 -14 -168l-8 -35h-791q-2 -18 -2 -23zM942 696q0 105 -64 181.5
t-192 76.5q-129 0 -225 -81.5t-135 -254.5h612q4 32 4 78z" />
    <glyph glyph-name="f" unicode="f" horiz-adv-x="684" 
d="M728 1333q-141 0 -177 -174l-23 -100h269l-29 -141h-270l-193 -918h-180l194 918h-163l28 141h166l23 106q39 170 125 242t206 72t207 -37l-51 -133q-60 24 -132 24z" />
    <glyph glyph-name="g" unicode="g" horiz-adv-x="1218" 
d="M680 1087q232 0 344 -186l35 158h174l-189 -887q-29 -135 -64.5 -244.5t-130.5 -228.5t-372 -119q-420 0 -432 322h176q14 -96 72.5 -137t208.5 -41t229.5 93t116.5 269l20 102q-135 -168 -360 -168q-188 0 -283.5 123.5t-95.5 305.5q0 244 108.5 384t211 197t231.5 57z
M967 690q0 121 -75.5 187.5t-181.5 66.5q-186 0 -289.5 -149t-103.5 -346q0 -135 62.5 -208t187.5 -73t232.5 93t137.5 232t30 197z" />
    <glyph glyph-name="h" unicode="h" horiz-adv-x="1167" 
d="M815 1092q147 0 225 -80t78 -224q0 -55 -12 -116l-143 -672h-179l138 649q14 63 14 103q0 186 -174 186q-119 0 -232 -86q-55 -45 -97 -96t-58 -129l-133 -627h-179l310 1462h178l-119 -559q167 189 383 189z" />
    <glyph glyph-name="i" unicode="i" horiz-adv-x="462" 
d="M319 1255l43 207h193l-43 -207h-193zM68 0l225 1059h178l-225 -1059h-178z" />
    <glyph glyph-name="j" unicode="j" horiz-adv-x="462" 
d="M-100 -381q-108 0 -203 41l57 137q65 -26 136 -26t109 43t56 129l238 1116h178l-233 -1100q-40 -172 -112.5 -256t-225.5 -84zM319 1255l43 207h193l-43 -207h-193z" />
    <glyph glyph-name="k" unicode="k" horiz-adv-x="1071" 
d="M63 0l310 1462h176l-176 -844l577 441h224l-457 -363l270 -696h-190l-224 602l-245 -184l-88 -418h-177z" />
    <glyph glyph-name="l" unicode="l" horiz-adv-x="462" 
d="M68 0l309 1462h178l-309 -1462h-178z" />
    <glyph glyph-name="m" unicode="m" horiz-adv-x="1763" 
d="M774 1092q221 0 268 -201q102 117 197.5 159t185.5 42q137 0 212 -76t75 -201q0 -77 -18 -162l-138 -653h-178l135 631q19 88 19 156q0 69 -39 110t-105 41q-123 0 -225 -82q-51 -41 -80.5 -87t-46.5 -120l-139 -649h-178l133 627q20 86 20 151q0 160 -149 160
q-104 0 -181 -65.5t-114 -119t-59 -143.5l-127 -610h-179l224 1059h176l-35 -160q163 193 346 193z" />
    <glyph glyph-name="n" unicode="n" horiz-adv-x="1167" 
d="M815 1092q147 0 225 -80t78 -224q0 -55 -12 -116l-143 -672h-179l138 649q14 63 14 103q0 186 -174 186q-119 0 -232 -86q-55 -43 -97 -95t-58 -130l-133 -627h-179l224 1059h176l-35 -160q171 193 387 193z" />
    <glyph glyph-name="o" unicode="o" horiz-adv-x="1230" 
d="M729 944q-182 0 -299 -147.5t-117 -378.5q0 -137 68 -220t197 -83q182 0 297.5 147.5t115.5 378.5q0 137 -66.5 220t-195.5 83zM726 1092q211 0 332.5 -124t121.5 -302q0 -332 -173.5 -515.5t-441.5 -183.5q-195 0 -317.5 124.5t-122.5 301.5t48 302.5t132 213.5
t195.5 135.5t225.5 47.5z" />
    <glyph glyph-name="p" unicode="p" horiz-adv-x="1222" 
d="M326 377q0 -123 75 -192.5t181 -69.5q189 0 296 153.5t107 370.5q0 150 -61.5 227.5t-180.5 77.5t-233.5 -101t-149.5 -257l-18 -84q-16 -70 -16 -125zM801 1092q186 0 279.5 -126t93.5 -321q0 -276 -154 -477t-394 -201t-352 191l-118 -555h-179l310 1456h176l-31 -148
q152 181 369 181z" />
    <glyph glyph-name="q" unicode="q" horiz-adv-x="1222" 
d="M690 944q-172 0 -278.5 -152.5t-106.5 -371.5q0 -141 64.5 -222t194.5 -81t236 108t134 252l18 84q14 63 15 125q0 109 -72 180q-74 78 -205 78zM119 422q0 127 40 248t157.5 271.5t358.5 150.5q242 0 349 -195l35 162h174l-311 -1456h-179l115 540q-141 -176 -343 -176
t-299 131t-97 324z" />
    <glyph glyph-name="r" unicode="r" horiz-adv-x="749" 
d="M719 913q-103 0 -193 -69q-57 -47 -97 -98.5t-56 -129.5l-131 -616h-179l224 1059h176l-35 -164q90 102 168 142t145 40t115 -12l-47 -162q-51 10 -90 10z" />
    <glyph glyph-name="s" unicode="s" horiz-adv-x="1069" 
d="M766 287q0 74 -34 108.5t-124 55.5l-119 26q-160 35 -227 103t-67 166q0 176 123.5 261t311.5 85q187 0 286.5 -79t115.5 -225l-164 -24q-16 92 -69.5 139t-180.5 47q-196 0 -223.5 -69.5t-27.5 -115.5t36.5 -82t139.5 -58l125 -27q280 -56 280 -278q0 -108 -73 -230.5
t-371 -122.5t-368 121t-70 219h170q7 -196 276 -196q133 0 193.5 51t60.5 125z" />
    <glyph glyph-name="t" unicode="t" horiz-adv-x="710" 
d="M434 -23q-117 0 -185.5 60.5t-68.5 179.5q0 63 13 105l126 596h-165l28 141h166l62 289h178l-62 -289h281l-31 -141h-278q-138 -655 -138 -674q0 -119 119 -119q73 0 135 22l29 -137q-92 -33 -209 -33z" />
    <glyph glyph-name="u" unicode="u" horiz-adv-x="1148" 
d="M418 -33q-150 0 -223.5 83t-73.5 216q0 46 14 123l144 670h178l-140 -658q-10 -51 -10 -102q0 -178 165 -178t262 117.5t114 197.5l133 623h178l-225 -1059h-174l35 162q-173 -195 -377 -195z" />
    <glyph glyph-name="v" unicode="v" horiz-adv-x="1067" 
d="M354 0l-198 1059h198l133 -860l504 860h205l-649 -1059h-193z" />
    <glyph glyph-name="w" unicode="w" horiz-adv-x="1501" 
d="M242 0l-84 1059h192l31 -844l422 838h178l61 -838l394 844h190l-532 -1059h-189l-59 844l-418 -844h-186z" />
    <glyph glyph-name="x" unicode="x" horiz-adv-x="1030" 
d="M664 551l270 -551h-195l-204 432l-377 -432h-209l508 567l-250 492h196l179 -379l338 379h200z" />
    <glyph glyph-name="y" unicode="y" horiz-adv-x="1071" 
d="M219.5 -218q33.5 30 97.5 132l70 115l-231 1030h196l162 -832l477 832h207l-709 -1159q-45 -72 -81.5 -127.5t-97.5 -112.5t-168 -57t-177 32l51 138q60 -21 115 -21t88.5 30z" />
    <glyph glyph-name="z" unicode="z" horiz-adv-x="956" 
d="M838 0h-852l28 133l768 782h-596l29 144h825l-28 -133l-766 -783h641z" />
    <glyph glyph-name="braceleft" unicode="{" horiz-adv-x="589" 
d="M217 453q0 96 -111 96h-10l33 151h10q76 0 114 40t54 112l84 397q31 143 110 198.5t199 55.5h125l-32 -149h-99q-109 0 -129 -107l-94 -436q-30 -156 -160 -186q88 -26 88 -125q0 -29 -6 -62l-94 -436q-4 -10 -4 -12v-29q0 -65 82 -65h106l-32 -150h-123q-211 0 -211 174
q0 33 10 80l84 397q6 31 6 56z" />
    <glyph glyph-name="bar" unicode="|" horiz-adv-x="466" 
d="M16 -254l375 1757h176l-374 -1757h-177z" />
    <glyph glyph-name="braceright" unicode="}" horiz-adv-x="589" 
d="M598 700h10l-33 -151h-10q-76 0 -113.5 -40t-54.5 -112l-84 -397q-45 -203 -147.5 -228.5t-161.5 -25.5h-125l33 150h98q109 0 129 106l94 436q30 155 160 187q-88 26 -88 125q0 27 6 61l95 436q4 10 4 13v28q0 66 -82 66h-107l33 149h123q211 0 211 -174q0 -33 -10 -80
l-84 -397q-6 -31 -7 -55q0 -97 111 -97z" />
    <glyph glyph-name="asciitilde" unicode="~" 
d="M878 489q-66 0 -123 34t-105 75t-93 75t-107 34t-102.5 -42t-58.5 -153h-158q37 301 151.5 329.5t182.5 28.5t124 -33.5t104 -73.5t93 -73t109 -33t104.5 42t61.5 151h156q-37 -302 -155 -331.5t-184 -29.5z" />
    <glyph glyph-name="uni00A0" unicode="&#xa0;" horiz-adv-x="456" 
 />
    <glyph glyph-name="exclamdown" unicode="&#xa1;" horiz-adv-x="471" 
d="M377 639l-205 -1036h-190l231 1036h164zM479 1059l-49 -238h-199l50 238h198z" />
    <glyph glyph-name="cent" unicode="&#xa2;" 
d="M389 596q0 -227 172 -281l172 807q-159 -20 -251.5 -159.5t-92.5 -366.5zM203 591q0 305 158 486.5t403 194.5l39 176h133l-39 -186q147 -29 217 -125.5t82 -223.5l-176 -28q-19 189 -156 229l-172 -809q117 10 179.5 73.5t91.5 162.5h182q-45 -172 -161 -276.5
t-322 -108.5l-37 -174h-133l38 184q-160 33 -243.5 149.5t-83.5 275.5z" />
    <glyph glyph-name="sterling" unicode="&#xa3;" 
d="M532 980q0 -64 17 -198h457l-31 -147h-414q-2 -150 -59.5 -262.5t-169.5 -212.5h758l-58 -160h-930l31 145q111 92 182.5 198t71.5 189.5t2 102.5h-180l31 147h137q-17 105 -17 174q0 229 113 363.5t356 134.5q174 0 270.5 -82t125.5 -256l-160 -31q-25 121 -81 169.5
t-152 48.5t-151.5 -25t-88.5 -69t-46.5 -104.5t-13.5 -124.5z" />
    <glyph glyph-name="currency" unicode="&#xa4;" 
d="M756 1055q-172 0 -271.5 -121t-99.5 -322q0 -115 57.5 -183.5t151.5 -68.5q173 0 272 121.5t99 321.5q0 115 -56.5 183.5t-152.5 68.5zM223 600q0 263 150 426l-97 129l123 96l95 -127q117 70 261 70t240 -84l140 123l94 -113l-144 -125q43 -80 43 -182q0 -258 -141 -420
l100 -131l-122 -96l-97 127q-121 -74 -268 -74t-244 84l-135 -121l-96 113l141 121q-43 82 -43 184z" />
    <glyph glyph-name="yen" unicode="&#xa5;" 
d="M678 322l-68 -322h-178l68 322h-367l29 137h366l33 151l-14 45h-350l28 138h267l-232 622h189l227 -661l510 661h192l-493 -622h264l-29 -138h-348l-33 -45l-32 -151h378l-30 -137h-377z" />
    <glyph glyph-name="brokenbar" unicode="&#xa6;" horiz-adv-x="466" 
d="M346 461l-153 -715h-177l154 715h176zM242 799l149 704h176l-149 -704h-176z" />
    <glyph glyph-name="section" unicode="&#xa7;" horiz-adv-x="1079" 
d="M538 850q-89 0 -154 -57.5t-65 -173.5q0 -117 168 -168l66 -19q53 -16 98 -16q96 0 159.5 57.5t63.5 172.5t-165 167l-76 23q-53 14 -95 14zM934 111q0 -353 -445 -353q-223 0 -335.5 101t-116.5 260h172q17 -213 287 -213q219 0 241.5 80t22.5 122t-32 89t-122 71
l-166 47q-152 41 -217 116t-65 185q0 240 237 304q-133 65 -133 235q0 171 125 256.5t336 85.5q372 0 432 -307l-166 -35q-38 195 -280 195q-219 0 -244 -76t-25 -120t32 -88t118 -67l176 -51q150 -45 211 -117.5t61 -180.5t-53 -188.5t-184 -115.5q133 -68 133 -235z" />
    <glyph glyph-name="dieresis" unicode="&#xa8;" horiz-adv-x="800" 
d="M647 1260l41 202h182l-43 -202h-180zM289 1260l41 202h182l-43 -202h-180z" />
    <glyph glyph-name="copyright" unicode="&#xa9;" horiz-adv-x="1585" 
d="M1057 860q-35 170 -179 170q-242 0 -241.5 -216t54.5 -300t173 -84q172 0 197 178h151q-43 -299 -364 -299q-172 0 -269.5 113t-97.5 305t104.5 308t266.5 116q302 0 346 -266zM451.5 1173.5q-156.5 -167.5 -156.5 -442.5q0 -276 156.5 -444t406.5 -168t407.5 169
t157.5 443t-157.5 442t-407.5 168t-406.5 -167.5zM1364 1262.5q192 -199.5 192 -528.5t-199 -531.5t-503 -202.5q-303 0 -498.5 199.5t-195.5 528.5t202.5 531.5t505.5 202.5q304 0 496 -199.5z" />
    <glyph glyph-name="ordfeminine" unicode="&#xaa;" horiz-adv-x="870" 
d="M354 902q0 -42 28 -72.5t114 -30.5t158.5 56t93.5 149l18 79l-121 -4q-239 -11 -265 -73t-26 -104zM795 1260q0 124 -144 124q-96 0 -140 -25.5t-67 -90.5l-127 16q39 121 122 168t221 47t206 -62.5t68 -172.5q0 -39 -10 -90l-101 -474h-137l19 95q-51 -47 -112 -80
t-158 -33t-162.5 58.5t-65.5 146.5q0 159 115 224.5t333 74.5l131 4q2 20 5.5 36.5t3.5 33.5z" />
    <glyph glyph-name="guillemotleft" unicode="&#xab;" horiz-adv-x="1017" 
d="M502 981h184l-362 -463l157 -450h-176l-178 458zM911 981h185l-363 -463l158 -450h-176l-178 458z" />
    <glyph glyph-name="logicalnot" unicode="&#xac;" 
d="M1040 338h-159l82 389h-750l33 158h911z" />
    <glyph glyph-name="uni00AD" unicode="&#xad;" horiz-adv-x="798" 
d="M131 510l39 178h602l-39 -178h-602z" />
    <glyph glyph-name="registered" unicode="&#xae;" horiz-adv-x="989" 
d="M637 1411q-145 0 -233.5 -92t-88.5 -262t88.5 -262.5t233.5 -92.5t235.5 92.5t90.5 262.5t-90.5 262t-235.5 92zM942.5 735q-122.5 -121 -308.5 -121t-303.5 119.5t-117.5 322t122 323t310 120.5q189 0 304.5 -119.5t115.5 -321.5t-122.5 -323zM719 1147q0 25 -17.5 39
t-72.5 14h-62v-113h74q51 0 64.5 17.5t13.5 42.5zM567 1010v-156h-94v422h160q149 0 164.5 -53t15.5 -87q0 -76 -70 -106l91 -176h-103l-78 156h-86z" />
    <glyph glyph-name="macron" unicode="&#xaf;" horiz-adv-x="800" 
d="M324 1419h534l-31 -145h-534z" />
    <glyph glyph-name="degree" unicode="&#xb0;" horiz-adv-x="673" 
d="M456 1018q67 0 108.5 42t41.5 114t-42 115.5t-108 43.5t-108.5 -43.5t-42.5 -115.5t42 -114t109 -42zM168 1175.5q0 61.5 21.5 112.5t60.5 90t92 60.5t114.5 21.5t115 -21.5t91 -60.5t59 -90t21.5 -112.5t-21.5 -113.5t-59 -91t-91 -60.5t-115 -21.5t-114.5 21.5
t-92 60.5t-60.5 91t-21.5 113.5z" />
    <glyph glyph-name="plusminus" unicode="&#xb1;" 
d="M121 0l35 162h901l-35 -162h-901zM743 618l-88 -421h-163l88 421h-392l33 158h393l88 422h164l-88 -422h393l-34 -158h-394z" />
    <glyph glyph-name="twosuperior" unicode="&#xb2;" horiz-adv-x="843" 
d="M590 1323q-66 0 -110 -29.5t-74 -115.5l-136 22q33 113 112 180.5t213 67.5t204.5 -64.5t70.5 -162.5q0 -159 -130.5 -265t-200.5 -147t-115 -76h364l-47 -133h-563l23 113q57 43 125 91t138 99t162.5 117.5t92.5 191.5q0 43 -31.5 77t-97.5 34z" />
    <glyph glyph-name="threesuperior" unicode="&#xb3;" horiz-adv-x="843" 
d="M268 1214q67 234 325 234q140 0 205.5 -63.5t65.5 -147.5t-35.5 -134t-107.5 -83q96 -58 96 -183q0 -124 -79 -197t-244 -73q-203 0 -250 106.5t-47 170.5h139q4 -74 47 -113t118 -39t122 37t47 105t-38 96t-91 28h-99l27 127h98q156 0 156 140q0 100 -133 100
q-72 0 -115 -25.5t-72 -107.5z" />
    <glyph glyph-name="acute" unicode="&#xb4;" horiz-adv-x="800" 
d="M326 1210l286 291h228l-328 -291h-186z" />
    <glyph glyph-name="mu" unicode="&#xb5;" horiz-adv-x="1148" 
d="M307 307q0 -186 164 -186q169 0 264.5 119.5t112.5 195.5l133 623h178l-225 -1059h-174l35 162q-162 -193 -353 -193q-144 0 -198 90l-97 -456h-180l312 1456h178l-140 -658q-10 -51 -10 -94z" />
    <glyph glyph-name="paragraph" unicode="&#xb6;" horiz-adv-x="1247" 
d="M176 983q0 84 35 175t159 197.5t472 106.5h493l-370 -1747h-179l340 1596h-243l-338 -1596h-178l188 891q-192 4 -285.5 107.5t-93.5 269.5z" />
    <glyph glyph-name="periodcentered" unicode="&#xb7;" horiz-adv-x="442" 
d="M182 645l49 240h205l-51 -240h-203z" />
    <glyph glyph-name="cedilla" unicode="&#xb8;" horiz-adv-x="800" 
d="M395 -244q0 64 -135 64h-41l103 190h116l-61 -114q92 -14 126 -55.5t34 -84.5q0 -104 -76 -143t-195 -39q-47 0 -129 14l21 109q52 -12 114 -12q61 0 92 15t31 56z" />
    <glyph glyph-name="onesuperior" unicode="&#xb9;" horiz-adv-x="843" 
d="M426 600l139 657l-194 -92l-54 121l271 131h176l-174 -817h-164z" />
    <glyph glyph-name="ordmasculine" unicode="&#xba;" horiz-adv-x="876" 
d="M635 1374q-127 0 -206 -99t-79 -263q0 -94 47 -152.5t138 -58.5q129 0 206.5 99t77.5 263q0 94 -47 152.5t-137 58.5zM637 1499q152 0 243 -91t91 -221q0 -245 -126 -379t-323 -134q-142 0 -232.5 92.5t-90.5 222.5q0 129 34.5 221.5t96 157t143.5 98t164 33.5z" />
    <glyph glyph-name="guillemotright" unicode="&#xbb;" horiz-adv-x="1017" 
d="M592 68h-186l364 462l-158 451h172l181 -459zM182 68h-186l364 462l-157 451h172l180 -459z" />
    <glyph glyph-name="onequarter" unicode="&#xbc;" horiz-adv-x="1865" 
d="M545 0h-185l1016 1415h185zM338 600l139 657l-194 -92l-54 121l271 131h176l-174 -817h-164zM1268 313h258l69 330zM1460 2l39 191h-412l21 96l520 530h139l-108 -506h104l-45 -120h-86l-39 -191h-133z" />
    <glyph glyph-name="onehalf" unicode="&#xbd;" horiz-adv-x="1865" 
d="M481 0h-184l1016 1415h184zM338 600l139 657l-194 -92l-54 121l271 131h176l-174 -817h-164zM1524 725q-66 0 -110 -30t-75 -115l-135 22q33 112 112 180t213 68t205 -65q70 -65 70 -172t-68 -187q-103 -120 -286 -228q-47 -28 -92 -63h364l-47 -133h-563l23 113
q57 43 126 91t138 99t113 83q138 101 141 226q0 43 -32 77q-31 34 -97 34z" />
    <glyph glyph-name="threequarters" unicode="&#xbe;" horiz-adv-x="1865" 
d="M641 0h-184l1016 1415h184zM1268 313h258l69 330zM1460 2l39 191h-412l21 96l520 530h139l-108 -506h104l-45 -120h-86l-39 -191h-133zM719 1225q1 100 -133 100q-72 0 -115 -26t-72 -107l-135 22q66 234 325 234q140 0 206 -64q65 -64 65 -147q0 -84 -36 -134t-107 -83
q98 -60 97 -183q-1 -124 -80 -197t-227 -73t-232 77t-82 200h139q4 -74 47 -113t118 -39t121 37t48 105q0 68 -38 97q-38 28 -91 27h-99l27 127h98q156 0 156 140z" />
    <glyph glyph-name="questiondown" unicode="&#xbf;" horiz-adv-x="1013" 
d="M782 1059l-49 -238h-198l49 238h198zM74.5 131.5q66.5 99.5 210 209t178.5 165t45 108.5l6 27h176l-4 -31q-34 -163 -211 -304t-229.5 -211t-52.5 -165q0 -96 57 -147t178 -51t196.5 56t120.5 194l160 -27q-53 -184 -171.5 -280.5t-317.5 -96.5t-303.5 90.5t-104.5 227
t66.5 236z" />
    <glyph glyph-name="Agrave" unicode="&#xc0;" horiz-adv-x="1380" 
d="M483 571h512l-114 678zM1024 1462l258 -1462h-195l-69 408h-625l-239 -408h-205l878 1462h197zM911 1583l-229 277h213l186 -277h-170z" />
    <glyph glyph-name="Aacute" unicode="&#xc1;" horiz-adv-x="1380" 
d="M483 571h512l-114 678zM1024 1462l258 -1462h-195l-69 408h-625l-239 -408h-205l878 1462h197zM793 1583l288 277h232l-336 -277h-184z" />
    <glyph glyph-name="Acircumflex" unicode="&#xc2;" horiz-adv-x="1380" 
d="M483 571h512l-114 678zM1024 1462l258 -1462h-195l-69 408h-625l-239 -408h-205l878 1462h197zM625 1583l290 277h179l180 -277h-166l-117 162l-198 -162h-168z" />
    <glyph glyph-name="Atilde" unicode="&#xc3;" horiz-adv-x="1380" 
d="M483 571h512l-114 678zM1024 1462l258 -1462h-195l-69 408h-625l-239 -408h-205l878 1462h197zM1091 1731q41 -1 64 21t33 81h139q-15 -125 -71 -183t-140 -58t-173 54q-33 19 -61 36q-28 18 -68 18q-80 1 -99 -105h-137q27 242 211 242q87 -1 172 -53q33 -20 61 -36
t69 -17z" />
    <glyph glyph-name="Adieresis" unicode="&#xc4;" horiz-adv-x="1380" 
d="M483 571h512l-114 678zM1024 1462l258 -1462h-195l-69 408h-625l-239 -408h-205l878 1462h197zM1030 1618l45 209h189l-45 -209h-189zM662 1618l45 209h186l-45 -209h-186z" />
    <glyph glyph-name="Aring" unicode="&#xc5;" horiz-adv-x="1380" 
d="M929.5 1704q-100.5 0 -100.5 -108q1 -108 101 -107q100 -1 100 107t-100.5 108zM483 571h512l-114 678zM717 1588q0 111 63.5 164.5t149.5 53.5q145 0 180 -79.5t35 -142.5t-32 -110t-79 -69l248 -1405h-195l-69 408h-625l-239 -408h-205l852 1419q-84 58 -84 169z" />
    <glyph glyph-name="AE" unicode="&#xc6;" horiz-adv-x="2101" 
d="M651 647h512l140 649h-142zM1128 485h-602l-383 -485h-217l1161 1462h1141l-33 -166h-712l-99 -458h672l-35 -168h-671l-107 -504h754l-62 -166h-909z" />
    <glyph glyph-name="Ccedilla" unicode="&#xc7;" horiz-adv-x="1454" 
d="M784 -260q0 65 -141 65h-43l86 162q-240 20 -378 185t-138 432q0 182 52 348t151.5 292t243 200.5t323.5 74.5q250 0 381 -130t152 -355l-189 -31q-23 176 -102.5 264t-251.5 88q-251 0 -406 -211t-155 -524q0 -208 100.5 -340.5t291.5 -132.5t294.5 94t138.5 248h205
q-114 -475 -594 -504l-39 -78q96 -16 132 -61t36 -88q0 -109 -80 -149t-205 -40q-47 0 -135 15l23 108q74 -12 118 -12q129 0 129 80z" />
    <glyph glyph-name="Egrave" unicode="&#xc8;" horiz-adv-x="1216" 
d="M551 1296l-98 -458h716l-34 -168h-717l-107 -504h799l-61 -166h-961l309 1462h946l-34 -166h-758zM887 1583l-230 277h213l187 -277h-170z" />
    <glyph glyph-name="Eacute" unicode="&#xc9;" horiz-adv-x="1216" 
d="M551 1296l-98 -458h716l-34 -168h-717l-107 -504h799l-61 -166h-961l309 1462h946l-34 -166h-758zM717 1583l289 277h231l-336 -277h-184z" />
    <glyph glyph-name="Ecircumflex" unicode="&#xca;" horiz-adv-x="1216" 
d="M551 1296l-98 -458h716l-34 -168h-717l-107 -504h799l-61 -166h-961l309 1462h946l-34 -166h-758zM565 1583l291 277h178l180 -277h-165l-117 162l-199 -162h-168z" />
    <glyph glyph-name="Edieresis" unicode="&#xcb;" horiz-adv-x="1216" 
d="M551 1296l-98 -458h716l-34 -168h-717l-107 -504h799l-61 -166h-961l309 1462h946l-34 -166h-758zM981 1618l45 209h188l-45 -209h-188zM612 1618l45 209h187l-45 -209h-187z" />
    <glyph glyph-name="Igrave" unicode="&#xcc;" horiz-adv-x="512" 
d="M88 0l309 1462h189l-310 -1462h-188zM471 1583l-229 277h213l186 -277h-170z" />
    <glyph glyph-name="Iacute" unicode="&#xcd;" horiz-adv-x="512" 
d="M88 0l309 1462h189l-310 -1462h-188zM369 1583l288 277h232l-336 -277h-184z" />
    <glyph glyph-name="Icircumflex" unicode="&#xce;" horiz-adv-x="512" 
d="M88 0l309 1462h189l-310 -1462h-188zM190 1583l291 277h178l181 -277h-166l-117 162l-199 -162h-168z" />
    <glyph glyph-name="Idieresis" unicode="&#xcf;" horiz-adv-x="512" 
d="M88 0l309 1462h189l-310 -1462h-188zM596 1618l45 209h188l-45 -209h-188zM227 1618l45 209h187l-45 -209h-187z" />
    <glyph glyph-name="Eth" unicode="&#xd0;" horiz-adv-x="1488" 
d="M614 164q327 0 496.5 191t169.5 517q0 187 -104 307.5t-297 120.5h-301l-101 -464h375l-35 -160h-373l-108 -512h278zM897 1462q264 0 422 -165.5t158 -424.5q0 -396 -227.5 -634t-661.5 -238h-475l143 676h-166l35 160h164l133 626h475z" />
    <glyph glyph-name="Ntilde" unicode="&#xd1;" horiz-adv-x="1433" 
d="M1030 0l-514 1161l-246 -1161h-182l309 1462h170l510 -1161l246 1161h182l-309 -1462h-166zM831 1837q89 -1 171 -53q32 -20 60 -36t70 -17q41 -1 64 21t33 81h139q-16 -125 -72 -183t-140 -58t-172 54q-32 19 -60 36q-28 18 -69 18q-80 1 -99 -105h-138q14 125 70 183
t143 59z" />
    <glyph glyph-name="Ograve" unicode="&#xd2;" horiz-adv-x="1566" 
d="M938 1335q-120 -1 -230 -67q-218 -132 -298 -416q-39 -136 -39 -254q0 -223 101 -347t292 -124q143 0 253 67q215 131 298 416q39 135 39 255t-26 203t-75 142t-123 92q-72 33 -192 33zM973 1499q254 0 416 -165q161 -165 161 -441q0 -172 -52 -339t-152 -298t-250 -212
t-342 -81q-260 0 -420 164t-160 442q0 172 53 339t155 298t252 212q149 81 339 81zM995 1583l-229 277h213l186 -277h-170z" />
    <glyph glyph-name="Oacute" unicode="&#xd3;" horiz-adv-x="1566" 
d="M938 1335q-120 -1 -230 -67q-218 -132 -298 -416q-39 -136 -39 -254q0 -223 101 -347t292 -124q143 0 253 67q215 131 298 416q39 135 39 255t-26 203t-75 142t-123 92q-72 33 -192 33zM973 1499q254 0 416 -165q161 -165 161 -441q0 -172 -52 -339t-152 -298t-250 -212
t-342 -81q-260 0 -420 164t-160 442q0 172 53 339t155 298t252 212q149 81 339 81zM831 1583l289 277h232l-336 -277h-185z" />
    <glyph glyph-name="Ocircumflex" unicode="&#xd4;" horiz-adv-x="1566" 
d="M938 1335q-120 -1 -230 -67q-218 -132 -298 -416q-39 -136 -39 -254q0 -223 101 -347t292 -124q143 0 253 67q215 131 298 416q39 135 39 255t-26 203t-75 142t-123 92q-72 33 -192 33zM973 1499q254 0 416 -165q161 -165 161 -441q0 -172 -52 -339t-152 -298t-250 -212
t-342 -81q-260 0 -420 164t-160 442q0 172 53 339t155 298t252 212q149 81 339 81zM686 1583l291 277h178l180 -277h-166l-116 162l-199 -162h-168z" />
    <glyph glyph-name="Otilde" unicode="&#xd5;" horiz-adv-x="1566" 
d="M938 1335q-120 -1 -230 -67q-218 -132 -298 -416q-39 -136 -39 -254q0 -223 101 -347t292 -124q143 0 253 67q215 131 298 416q39 135 39 255t-26 203t-75 142t-123 92q-72 33 -192 33zM973 1499q254 0 416 -165q161 -165 161 -441q0 -172 -52 -339t-152 -298t-250 -212
t-342 -81q-260 0 -420 164t-160 442q0 172 53 339t155 298t252 212q149 81 339 81zM855 1837q87 -1 171 -53q34 -20 62 -36t69 -17t64 21t32 81h140q-15 -125 -71 -183t-142 -58t-171 54q-32 19 -61 36q-28 18 -68 18q-81 1 -100 -105h-137q13 125 69 183t143 59z" />
    <glyph glyph-name="Odieresis" unicode="&#xd6;" horiz-adv-x="1566" 
d="M938 1335q-120 -1 -230 -67q-218 -132 -298 -416q-39 -136 -39 -254q0 -223 101 -347t292 -124q143 0 253 67q215 131 298 416q39 135 39 255t-26 203t-75 142t-123 92q-72 33 -192 33zM973 1499q254 0 416 -165q161 -165 161 -441q0 -172 -52 -339t-152 -298t-250 -212
t-342 -81q-260 0 -420 164t-160 442q0 172 53 339t155 298t252 212q149 81 339 81zM1090 1618l45 209h188l-45 -209h-188zM721 1618l45 209h186l-45 -209h-186z" />
    <glyph glyph-name="multiply" unicode="&#xd7;" 
d="M1049 367l-127 -103l-252 322l-383 -322l-99 113l387 321l-264 330l125 102l264 -327l390 330l98 -111l-395 -332z" />
    <glyph glyph-name="Oslash" unicode="&#xd8;" horiz-adv-x="1566" 
d="M969 1335q-279 0 -438.5 -230.5t-159.5 -524.5q0 -150 51 -254l799 917q-101 92 -252 92zM1354 885q0 150 -56 254l-798 -918q98 -94 253 -94q281 0 441 230t160 528zM1550 893q0 -172 -52 -339t-152.5 -298t-250 -212t-357.5 -81t-359 121l-137 -158l-99 80l150 170
q-119 163 -119 393q0 172 53.5 339t155.5 298t250.5 212t355.5 81t350 -121l140 160l98 -80l-147 -170q120 -160 120 -395z" />
    <glyph glyph-name="Ugrave" unicode="&#xd9;" horiz-adv-x="1396" 
d="M170 384q0 95 23 204l184 874h188l-186 -882q-18 -92 -19 -166q0 -287 312 -287q276 0 378 255q34 85 58 198l188 882h189l-187 -882q-69 -324 -219 -471q-149 -146 -406 -146q-365 0 -467 243q-36 83 -36 178zM920 1583l-230 277h213l187 -277h-170z" />
    <glyph glyph-name="Uacute" unicode="&#xda;" horiz-adv-x="1396" 
d="M170 384q0 95 23 204l184 874h188l-186 -882q-18 -92 -19 -166q0 -287 312 -287q276 0 378 255q34 85 58 198l188 882h189l-187 -882q-69 -324 -219 -471q-149 -146 -406 -146q-365 0 -467 243q-36 83 -36 178zM791 1583l288 277h232l-336 -277h-184z" />
    <glyph glyph-name="Ucircumflex" unicode="&#xdb;" horiz-adv-x="1396" 
d="M170 384q0 95 23 204l184 874h188l-186 -882q-18 -92 -19 -166q0 -287 312 -287q276 0 378 255q34 85 58 198l188 882h189l-187 -882q-69 -324 -219 -471q-149 -146 -406 -146q-365 0 -467 243q-36 83 -36 178zM621 1583l290 277h179l180 -277h-166l-117 162l-199 -162
h-167z" />
    <glyph glyph-name="Udieresis" unicode="&#xdc;" horiz-adv-x="1396" 
d="M170 384q0 95 23 204l184 874h188l-186 -882q-18 -92 -19 -166q0 -287 312 -287q276 0 378 255q34 85 58 198l188 882h189l-187 -882q-69 -324 -219 -471q-149 -146 -406 -146q-365 0 -467 243q-36 83 -36 178zM1036 1618l45 209h189l-45 -209h-189zM668 1618l45 209h186
l-45 -209h-186z" />
    <glyph glyph-name="Yacute" unicode="&#xdd;" horiz-adv-x="1255" 
d="M262 1462h203l250 -676l534 676h213l-680 -841l-131 -621h-188l129 621zM719 1583l289 277h231l-336 -277h-184z" />
    <glyph glyph-name="Thorn" unicode="&#xde;" horiz-adv-x="1282" 
d="M666 455q208 0 318 79.5t110 274.5q0 221 -308 221h-297l-120 -575h297zM1282 817q0 -267 -166.5 -394.5t-472.5 -127.5h-309l-62 -295h-186l309 1462h187l-58 -272h293q237 0 351 -111t114 -262z" />
    <glyph glyph-name="germandbls" unicode="&#xdf;" horiz-adv-x="1179" 
d="M1151 1153q0 -272 -270 -362q109 -35 175 -123t66 -200q0 -231 -117.5 -361t-369.5 -130q-150 0 -252 52l51 135q92 -41 205 -41q164 0 234.5 87.5t70.5 223.5q0 270 -293 271h-102l31 145h84q132 0 221.5 70t89.5 217q0 86 -50.5 143t-170.5 57t-190 -67.5t-103 -222.5
l-221 -1047h-174l227 1073q41 199 156.5 302.5t310.5 103.5t293 -92t98 -234z" />
    <glyph glyph-name="agrave" unicode="&#xe0;" horiz-adv-x="1101" 
d="M242 268q0 -62 41 -104q41 -43 124 -43q156 0 263 83t135 208l24 120l-176 -8q-119 -6 -197 -23q-156 -34 -194 -125q-20 -46 -20 -108zM366 -25q-136 0 -223 75q-86 75 -86 198q0 122 48 196q93 142 319 184q109 19 231 23l201 6l6 29q10 47 10 84q0 82 -48 132t-171 50
t-186 -34t-98 -127l-162 20q49 154 163 217q114 64 303 64t281 -84t93 -232q0 -63 -15 -123l-137 -653h-174l31 145q-74 -76 -162 -123t-224 -47zM707 1210l-224 291h209l182 -291h-167z" />
    <glyph glyph-name="aacute" unicode="&#xe1;" horiz-adv-x="1101" 
d="M242 268q0 -62 41 -104q41 -43 124 -43q156 0 263 83t135 208l24 120l-176 -8q-119 -6 -197 -23q-156 -34 -194 -125q-20 -46 -20 -108zM366 -25q-136 0 -223 75q-86 75 -86 198q0 122 48 196q93 142 319 184q109 19 231 23l201 6l6 29q10 47 10 84q0 82 -48 132t-171 50
t-186 -34t-98 -127l-162 20q49 154 163 217q114 64 303 64t281 -84t93 -232q0 -63 -15 -123l-137 -653h-174l31 145q-74 -76 -162 -123t-224 -47zM549 1210l287 291h227l-328 -291h-186z" />
    <glyph glyph-name="acircumflex" unicode="&#xe2;" horiz-adv-x="1101" 
d="M242 268q0 -62 41 -104q41 -43 124 -43q156 0 263 83t135 208l24 120l-176 -8q-119 -6 -197 -23q-156 -34 -194 -125q-20 -46 -20 -108zM366 -25q-136 0 -223 75q-86 75 -86 198q0 122 48 196q93 142 319 184q109 19 231 23l201 6l6 29q10 47 10 84q0 82 -48 132t-171 50
t-186 -34t-98 -127l-162 20q49 154 163 217q114 64 303 64t281 -84t93 -232q0 -63 -15 -123l-137 -653h-174l31 145q-74 -76 -162 -123t-224 -47zM371 1210l293 291h178l178 -291h-164l-117 181l-200 -181h-168z" />
    <glyph glyph-name="atilde" unicode="&#xe3;" horiz-adv-x="1101" 
d="M242 268q0 -62 41 -104q41 -43 124 -43q156 0 263 83t135 208l24 120l-176 -8q-119 -6 -197 -23q-156 -34 -194 -125q-20 -46 -20 -108zM366 -25q-136 0 -223 75q-86 75 -86 198q0 122 48 196q93 142 319 184q109 19 231 23l201 6l6 29q10 47 10 84q0 82 -48 132t-171 50
t-186 -34t-98 -127l-162 20q49 154 163 217q114 64 303 64t281 -84t93 -232q0 -63 -15 -123l-137 -653h-174l31 145q-74 -76 -162 -123t-224 -47zM571 1479q65 1 149 -53q32 -20 60 -38q28 -16 69 -16q39 0 63 23t34 78h131q-27 -240 -225 -240q-66 0 -150 54q-30 19 -58 37
t-68 17q-79 0 -97 -102h-133q27 240 225 240z" />
    <glyph glyph-name="adieresis" unicode="&#xe4;" horiz-adv-x="1101" 
d="M242 268q0 -62 41 -104q41 -43 124 -43q156 0 263 83t135 208l24 120l-176 -8q-119 -6 -197 -23q-156 -34 -194 -125q-20 -46 -20 -108zM366 -25q-136 0 -223 75q-86 75 -86 198q0 122 48 196q93 142 319 184q109 19 231 23l201 6l6 29q10 47 10 84q0 82 -48 132t-171 50
t-186 -34t-98 -127l-162 20q49 154 163 217q114 64 303 64t281 -84t93 -232q0 -63 -15 -123l-137 -653h-174l31 145q-74 -76 -162 -123t-224 -47zM793 1260l41 202h182l-43 -202h-180zM434 1260l41 202h182l-43 -202h-180z" />
    <glyph glyph-name="aring" unicode="&#xe5;" horiz-adv-x="1101" 
d="M242 268q0 -62 41 -104q41 -43 124 -43q156 0 263 83t135 208l24 120l-176 -8q-119 -6 -197 -23q-156 -34 -194 -125q-20 -46 -20 -108zM366 -25q-136 0 -223 75q-86 75 -86 198q0 122 48 196q93 142 319 184q109 19 231 23l201 6l6 29q10 47 10 84q0 82 -48 132t-171 50
t-186 -34t-98 -127l-162 20q49 154 163 217q114 64 303 64t281 -84t93 -232q0 -63 -15 -123l-137 -653h-174l31 145q-74 -76 -162 -123t-224 -47zM809 1412q0 106 -98 106q-43 0 -70 -26t-27 -80t27 -80t70 -25q98 -1 98 105zM504 1411q0 51 17 90t46 66q57 53 145 53
t148 -55t61 -154t-59 -151t-151 -54q-140 0 -190 115q-17 39 -17 90z" />
    <glyph glyph-name="ae" unicode="&#xe6;" horiz-adv-x="1826" 
d="M1602 700q0 103 -62 178.5t-188 75.5q-125 0 -220.5 -81.5t-132.5 -254.5h598q5 40 5 82zM242 302q0 -95 41 -138t134 -43q311 0 374 291l24 120l-178 -8q-222 -12 -308.5 -69.5t-86.5 -152.5zM1376 1092q191 0 295.5 -113t104.5 -291q0 -103 -13 -162l-8 -41h-774
q-2 -16 -2 -19v-46q0 -212 103.5 -260.5t174.5 -48.5q127 0 188.5 49t90.5 137h174q-72 -245 -217 -287.5t-250 -42.5q-291 0 -391 246q-92 -126 -197.5 -182t-263.5 -56t-246 75t-88 198t46.5 196.5t156 135.5t377.5 71l205 6l6 29q6 34 6 98t-48 116t-163 52t-162 -26.5
t-70.5 -57t-41.5 -77.5l-164 20q51 154 162.5 217.5t291.5 63.5q252 0 320 -187q150 187 397 187z" />
    <glyph glyph-name="ccedilla" unicode="&#xe7;" horiz-adv-x="1144" 
d="M580 -244q0 64 -136 64h-41l82 153q-172 23 -266 143t-94 290q0 323 171 504.5t421 181.5q191 0 289.5 -100.5t111.5 -262.5l-176 -27q-15 116 -50.5 159.5t-78.5 63t-120 19.5t-148.5 -37t-151.5 -144.5t-80 -331.5t97.5 -270t169.5 -46q133 0 204.5 66.5t100.5 170.5
h182q-45 -170 -155.5 -271t-311.5 -112l-39 -73q92 -14 126 -55.5t34 -84.5q0 -104 -76 -143t-194 -39q-50 0 -129 14l20 109q53 -12 114 -12q62 0 93 15t31 56z" />
    <glyph glyph-name="egrave" unicode="&#xe8;" horiz-adv-x="1167" 
d="M301 448v-38q0 -128 77 -214t209 -86q132 1 195 49t95 138h174q-75 -247 -290 -307q-79 -23 -187 -23t-190 36q-168 73 -229 241q-30 82 -30 210t45 253q91 252 308 341q108 44 220 44q205 0 312 -114q108 -114 106 -290q0 -108 -14 -168l-8 -35h-791q-2 -17 -2 -37z
M942 696q0 108 -64 183t-193 75q-128 0 -224 -82t-135 -254h612q4 32 4 78zM733 1210l-223 291h209l182 -291h-168z" />
    <glyph glyph-name="eacute" unicode="&#xe9;" horiz-adv-x="1167" 
d="M301 448v-38q0 -128 77 -214t209 -86q132 1 195 49t95 138h174q-75 -247 -290 -307q-79 -23 -187 -23t-190 36q-168 73 -229 241q-30 82 -30 210t45 253q91 252 308 341q108 44 220 44q205 0 312 -114q108 -114 106 -290q0 -108 -14 -168l-8 -35h-791q-2 -17 -2 -37z
M942 696q0 108 -64 183t-193 75q-128 0 -224 -82t-135 -254h612q4 32 4 78zM573 1210l287 291h227l-327 -291h-187z" />
    <glyph glyph-name="ecircumflex" unicode="&#xea;" horiz-adv-x="1167" 
d="M301 448v-38q0 -128 77 -214t209 -86q132 1 195 49t95 138h174q-75 -247 -290 -307q-79 -23 -187 -23t-190 36q-168 73 -229 241q-30 82 -30 210t45 253q91 252 308 341q108 44 220 44q205 0 312 -114q108 -114 106 -290q0 -108 -14 -168l-8 -35h-791q-2 -17 -2 -37z
M942 696q0 108 -64 183t-193 75q-128 0 -224 -82t-135 -254h612q4 32 4 78zM408 1210l292 291h179l178 -291h-164l-117 181l-201 -181h-167z" />
    <glyph glyph-name="edieresis" unicode="&#xeb;" horiz-adv-x="1167" 
d="M301 448v-38q0 -128 77 -214t209 -86q132 1 195 49t95 138h174q-75 -247 -290 -307q-79 -23 -187 -23t-190 36q-168 73 -229 241q-30 82 -30 210t45 253q91 252 308 341q108 44 220 44q205 0 312 -114q108 -114 106 -290q0 -108 -14 -168l-8 -35h-791q-2 -17 -2 -37z
M942 696q0 108 -64 183t-193 75q-128 0 -224 -82t-135 -254h612q4 32 4 78zM821 1260l41 202h182l-43 -202h-180zM463 1260l41 202h182l-43 -202h-180z" />
    <glyph glyph-name="igrave" unicode="&#xec;" horiz-adv-x="462" 
d="M68 0l225 1059h178l-225 -1059h-178zM336 1210l-223 291h209l182 -291h-168z" />
    <glyph glyph-name="iacute" unicode="&#xed;" horiz-adv-x="462" 
d="M68 0l225 1059h178l-225 -1059h-178zM274 1210l287 291h227l-327 -291h-187z" />
    <glyph glyph-name="icircumflex" unicode="&#xee;" horiz-adv-x="462" 
d="M68 0l225 1059h178l-225 -1059h-178zM70 1210l292 291h179l178 -291h-164l-117 181l-200 -181h-168z" />
    <glyph glyph-name="idieresis" unicode="&#xef;" horiz-adv-x="462" 
d="M68 0l225 1059h178l-225 -1059h-178zM485 1260l41 202h183l-43 -202h-181zM127 1260l41 202h182l-43 -202h-180z" />
    <glyph glyph-name="eth" unicode="&#xf0;" horiz-adv-x="1230" 
d="M599 115q166 0 276 130.5t110 338.5q0 127 -84 200q-80 74 -217 74q-174 0 -275.5 -131t-101.5 -324t105.5 -240.5t186.5 -47.5zM1182 694q0 -341 -164 -534t-445 -193q-199 0 -325.5 124.5t-126.5 303.5q0 269 164.5 440t381.5 171t328 -138q-19 248 -182 371l-156 -135
l-77 86l122 108q-100 43 -225 56l41 137q160 -17 303 -90l166 145l80 -88l-143 -123q258 -206 258 -641z" />
    <glyph glyph-name="ntilde" unicode="&#xf1;" horiz-adv-x="1167" 
d="M815 1092q147 0 225 -80t78 -224q0 -55 -12 -116l-143 -672h-179l138 649q14 63 14 103q0 186 -174 186q-119 0 -232 -86q-55 -43 -97 -95t-58 -130l-133 -627h-179l224 1059h176l-35 -160q171 193 387 193zM649 1479q65 1 149 -53q32 -20 60 -38q28 -16 69 -16
q39 0 63 23t34 78h131q-27 -240 -225 -240q-66 0 -150 54q-30 19 -58 37t-68 17q-79 0 -97 -102h-133q27 240 225 240z" />
    <glyph glyph-name="ograve" unicode="&#xf2;" horiz-adv-x="1230" 
d="M729 944q-182 0 -299 -147q-117 -149 -117 -379q0 -137 68 -220t197 -83q181 0 298 147q117 152 115 379q0 137 -66 220q-67 83 -196 83zM726 1092q114 0 194 -33q260 -105 260 -442q0 -128 -46 -255t-129 -214q-173 -181 -440 -181q-195 0 -318 125q-122 125 -122 301
q0 177 48 302q95 251 327 349q112 48 226 48zM754 1210l-224 291h209l183 -291h-168z" />
    <glyph glyph-name="oacute" unicode="&#xf3;" horiz-adv-x="1230" 
d="M729 944q-182 0 -299 -147q-117 -149 -117 -379q0 -137 68 -220t197 -83q181 0 298 147q117 152 115 379q0 137 -66 220q-67 83 -196 83zM726 1092q114 0 194 -33q260 -105 260 -442q0 -128 -46 -255t-129 -214q-173 -181 -440 -181q-195 0 -318 125q-122 125 -122 301
q0 177 48 302q95 251 327 349q112 48 226 48zM610 1210l287 291h227l-327 -291h-187z" />
    <glyph glyph-name="ocircumflex" unicode="&#xf4;" horiz-adv-x="1230" 
d="M729 944q-182 0 -299 -147q-117 -149 -117 -379q0 -137 68 -220t197 -83q181 0 298 147q117 152 115 379q0 137 -66 220q-67 83 -196 83zM726 1092q114 0 194 -33q260 -105 260 -442q0 -128 -46 -255t-129 -214q-173 -181 -440 -181q-195 0 -318 125q-122 125 -122 301
q0 177 48 302q95 251 327 349q112 48 226 48zM436 1210l293 291h178l178 -291h-163l-117 181l-201 -181h-168z" />
    <glyph glyph-name="otilde" unicode="&#xf5;" horiz-adv-x="1230" 
d="M729 944q-182 0 -299 -147q-117 -149 -117 -379q0 -137 68 -220t197 -83q181 0 298 147q117 152 115 379q0 137 -66 220q-67 83 -196 83zM726 1092q114 0 194 -33q260 -105 260 -442q0 -128 -46 -255t-129 -214q-173 -181 -440 -181q-195 0 -318 125q-122 125 -122 301
q0 177 48 302q95 251 327 349q112 48 226 48zM639 1479q67 1 149 -53q32 -20 60 -38q28 -16 68 -16q80 0 98 101h131q-27 -240 -225 -240q-66 0 -150 54q-30 19 -58 37t-68 17q-78 0 -97 -102h-133q27 240 225 240z" />
    <glyph glyph-name="odieresis" unicode="&#xf6;" horiz-adv-x="1230" 
d="M729 944q-182 0 -299 -147q-117 -149 -117 -379q0 -137 68 -220t197 -83q181 0 298 147q117 152 115 379q0 137 -66 220q-67 83 -196 83zM726 1092q114 0 194 -33q260 -105 260 -442q0 -128 -46 -255t-129 -214q-173 -181 -440 -181q-195 0 -318 125q-122 125 -122 301
q0 177 48 302q95 251 327 349q112 48 226 48zM854 1260l41 202h182l-43 -202h-180zM496 1260l41 202h182l-43 -202h-180z" />
    <glyph glyph-name="divide" unicode="&#xf7;" 
d="M219 616l35 162h885l-35 -162h-885zM690 1176h191l-47 -220h-191zM535 438h190l-47 -219h-191z" />
    <glyph glyph-name="oslash" unicode="&#xf8;" horiz-adv-x="1230" 
d="M991 624q0 100 -28 171l-549 -629q64 -51 160 -51t171.5 39t130 108.5t85 165.5t30.5 196zM732 944q-185 0 -302 -147.5t-117 -378.5q0 -86 29 -154l549 627q-64 53 -159 53zM558 -33q-138 0 -253 76l-121 -139l-90 78l125 141q-94 117 -94 282q0 315 177.5 501
t438.5 186q143 0 258 -76l115 129l90 -76l-117 -133q93 -117 93 -282t-46.5 -291.5t-129 -214t-195.5 -134.5t-251 -47z" />
    <glyph glyph-name="ugrave" unicode="&#xf9;" horiz-adv-x="1148" 
d="M418 -33q-150 0 -224 83t-73 216q0 48 14 123l144 670h178l-140 -658q-10 -51 -10 -102q0 -178 165 -178t316 183q43 52 60 132l133 623h178l-225 -1059h-174l35 162q-173 -195 -377 -195zM698 1210l-223 291h209l182 -291h-168z" />
    <glyph glyph-name="uacute" unicode="&#xfa;" horiz-adv-x="1148" 
d="M418 -33q-150 0 -224 83t-73 216q0 48 14 123l144 670h178l-140 -658q-10 -51 -10 -102q0 -178 165 -178t316 183q43 52 60 132l133 623h178l-225 -1059h-174l35 162q-173 -195 -377 -195zM578 1210l286 291h228l-328 -291h-186z" />
    <glyph glyph-name="ucircumflex" unicode="&#xfb;" horiz-adv-x="1148" 
d="M418 -33q-150 0 -224 83t-73 216q0 48 14 123l144 670h178l-140 -658q-10 -51 -10 -102q0 -178 165 -178t316 183q43 52 60 132l133 623h178l-225 -1059h-174l35 162q-173 -195 -377 -195zM410 1210l292 291h179l178 -291h-164l-117 181l-200 -181h-168z" />
    <glyph glyph-name="udieresis" unicode="&#xfc;" horiz-adv-x="1148" 
d="M418 -33q-150 0 -224 83t-73 216q0 48 14 123l144 670h178l-140 -658q-10 -51 -10 -102q0 -178 165 -178t316 183q43 52 60 132l133 623h178l-225 -1059h-174l35 162q-173 -195 -377 -195zM821 1260l41 202h182l-43 -202h-180zM463 1260l41 202h182l-43 -202h-180z" />
    <glyph glyph-name="yacute" unicode="&#xfd;" horiz-adv-x="1071" 
d="M16 -227q60 -21 116 -21t94 36q22 19 42 50t49 76l70 115l-231 1030h196l162 -832l477 832h207l-709 -1159q-45 -72 -81 -127t-77 -93q-79 -76 -188 -77q-108 0 -178 32zM522 1210l287 291h227l-327 -291h-187z" />
    <glyph glyph-name="thorn" unicode="&#xfe;" horiz-adv-x="1222" 
d="M326 375q0 -121 75 -190.5t181 -69.5q189 0 296 153.5t107 370.5q0 150 -61.5 227.5t-180.5 77.5t-233.5 -101t-149.5 -257l-18 -84q-16 -76 -16 -127zM801 1092q186 0 279.5 -128.5t93.5 -320.5q0 -274 -154 -475t-394 -201t-352 191l-118 -555h-179l396 1859h178
l-117 -551q152 181 367 181z" />
    <glyph glyph-name="ydieresis" unicode="&#xff;" horiz-adv-x="1071" 
d="M16 -227q60 -21 116 -21t94 36q22 19 42 50t49 76l70 115l-231 1030h196l162 -832l477 832h207l-709 -1159q-45 -72 -81 -127t-77 -93q-79 -76 -188 -77q-108 0 -178 32zM772 1260l41 202h182l-43 -202h-180zM414 1260l41 202h182l-43 -202h-180z" />
    <glyph glyph-name="Amacron" unicode="&#x100;" horiz-adv-x="1380" 
d="M483 571h512l-114 678zM1024 1462l258 -1462h-195l-69 408h-625l-239 -408h-205l878 1462h197zM676 1780h598l-33 -152h-598z" />
    <glyph glyph-name="amacron" unicode="&#x101;" horiz-adv-x="1101" 
d="M242 268q0 -62 41 -104q41 -43 124 -43q156 0 263 83t135 208l24 120l-176 -8q-119 -6 -197 -23q-156 -34 -194 -125q-20 -46 -20 -108zM366 -25q-136 0 -223 75q-86 75 -86 198q0 122 48 196q93 142 319 184q109 19 231 23l201 6l6 29q10 47 10 84q0 82 -48 132t-171 50
t-186 -34t-98 -127l-162 20q49 154 163 217q114 64 303 64t281 -84t93 -232q0 -63 -15 -123l-137 -653h-174l31 145q-74 -76 -162 -123t-224 -47zM459 1419h534l-30 -145h-535z" />
    <glyph glyph-name="Abreve" unicode="&#x102;" horiz-adv-x="1380" 
d="M483 571h512l-114 678zM1024 1462l258 -1462h-195l-69 408h-625l-239 -408h-205l878 1462h197zM694 1798q0 29 6 70h138q-22 -93 26 -135q32 -29 92 -29q143 0 168 164h140q-52 -285 -310 -285q-128 0 -194 55t-66 160z" />
    <glyph glyph-name="abreve" unicode="&#x103;" horiz-adv-x="1101" 
d="M242 268q0 -62 41 -104q41 -43 124 -43q156 0 263 83t135 208l24 120l-176 -8q-119 -6 -197 -23q-156 -34 -194 -125q-20 -46 -20 -108zM366 -25q-136 0 -223 75q-86 75 -86 198q0 122 48 196q93 142 319 184q109 19 231 23l201 6l6 29q10 47 10 84q0 82 -48 132t-171 50
t-186 -34t-98 -127l-162 20q49 154 163 217q114 64 303 64t281 -84t93 -232q0 -63 -15 -123l-137 -653h-174l31 145q-74 -76 -162 -123t-224 -47zM1032 1493q-51 -285 -310 -285q-124 0 -190 58t-65 157q0 33 6 70h135q-6 -29 -6 -47q0 -59 33 -89t86 -30q145 0 174 166h137
z" />
    <glyph glyph-name="Aogonek" unicode="&#x104;" horiz-adv-x="1380" 
d="M483 571h512l-114 678zM1110 -188q0 -66 80 -66q27 0 55 4l-26 -125q-35 -6 -95 -6t-119 38t-59 109t40 126t130 108h-29l-69 408h-625l-239 -408h-205l878 1462h197l258 -1462q-78 -49 -125 -95t-47 -93z" />
    <glyph glyph-name="aogonek" unicode="&#x105;" horiz-adv-x="1101" 
d="M242 302q0 -95 41 -138t124 -43q156 0 263 83.5t135 207.5l24 120l-176 -8q-230 -12 -320.5 -69.5t-90.5 -152.5zM727 -182q0 -64 80 -64q25 0 53 4l-26 -123q-32 -4 -92 -4t-115.5 35t-55.5 104t41 123t127 107h-18l31 145q-74 -76 -162 -123t-224 -47t-222.5 75
t-86.5 198t48.5 196.5t159.5 135.5t390 71l201 6l6 29q10 47 10 84q0 82 -48 132t-171 50t-186.5 -34.5t-97.5 -126.5l-162 20q49 154 162 217.5t303 63.5t282.5 -84t92.5 -232q0 -63 -15 -123l-137 -653q-78 -49 -123 -92t-45 -90z" />
    <glyph glyph-name="Cacute" unicode="&#x106;" horiz-adv-x="1454" 
d="M930 1335q-251 0 -406 -211t-155 -524q0 -208 100 -340q100 -133 292 -133q191 0 295 94q103 94 138 248h205q-82 -363 -393 -468q-111 -38 -251 -38q-274 0 -429 169q-156 169 -156 452q0 182 52 348q108 344 394 492q143 75 324 75q250 0 381 -130t152 -355l-189 -31
q-23 176 -102 264q-80 88 -252 88zM825 1583l289 277h232l-336 -277h-185z" />
    <glyph glyph-name="cacute" unicode="&#x107;" horiz-adv-x="1144" 
d="M561 -33q-206 0 -321 126t-115 304q0 179 47 305q92 248 316 345q108 45 218 45t185 -29q206 -81 227 -334l-176 -27q-15 118 -51 161q-35 41 -78 61t-120 20t-149 -37t-122 -105q-109 -146 -109 -371q0 -224 145 -293q50 -24 122 -23q132 1 204 67t101 170h182
q-101 -385 -506 -385zM584 1210l286 291h228l-328 -291h-186z" />
    <glyph glyph-name="Ccircumflex" unicode="&#x108;" horiz-adv-x="1454" 
d="M930 1335q-251 0 -406 -211t-155 -524q0 -208 100 -340q100 -133 292 -133q191 0 295 94q103 94 138 248h205q-82 -363 -393 -468q-111 -38 -251 -38q-274 0 -429 169q-156 169 -156 452q0 182 52 348q108 344 394 492q143 75 324 75q250 0 381 -130t152 -355l-189 -31
q-23 176 -102 264q-80 88 -252 88zM643 1583l291 277h178l180 -277h-166l-116 162l-199 -162h-168z" />
    <glyph glyph-name="ccircumflex" unicode="&#x109;" horiz-adv-x="1144" 
d="M561 -33q-206 0 -321 126t-115 304q0 179 47 305q92 248 316 345q108 45 218 45t185 -29q206 -81 227 -334l-176 -27q-15 118 -51 161q-35 41 -78 61t-120 20t-149 -37t-122 -105q-109 -146 -109 -371q0 -224 145 -293q50 -24 122 -23q132 1 204 67t101 170h182
q-101 -385 -506 -385zM420 1210l293 291h178l178 -291h-164l-117 181l-200 -181h-168z" />
    <glyph glyph-name="Cdotaccent" unicode="&#x10a;" horiz-adv-x="1454" 
d="M930 1335q-251 0 -406 -211t-155 -524q0 -208 100 -340q100 -133 292 -133q191 0 295 94q103 94 138 248h205q-82 -363 -393 -468q-111 -38 -251 -38q-274 0 -429 169q-156 169 -156 452q0 182 52 348q108 344 394 492q143 75 324 75q250 0 381 -130t152 -355l-189 -31
q-23 176 -102 264q-80 88 -252 88zM874 1616l48 215h190l-45 -215h-193z" />
    <glyph glyph-name="cdotaccent" unicode="&#x10b;" horiz-adv-x="1144" 
d="M561 -33q-206 0 -321 126t-115 304q0 179 47 305q92 248 316 345q108 45 218 45t185 -29q206 -81 227 -334l-176 -27q-15 118 -51 161q-35 41 -78 61t-120 20t-149 -37t-122 -105q-109 -146 -109 -371q0 -224 145 -293q50 -24 122 -23q132 1 204 67t101 170h182
q-101 -385 -506 -385zM645 1257l45 207h182l-43 -207h-184z" />
    <glyph glyph-name="Ccaron" unicode="&#x10c;" horiz-adv-x="1454" 
d="M930 1335q-251 0 -406 -211t-155 -524q0 -208 100 -340q100 -133 292 -133q191 0 295 94q103 94 138 248h205q-82 -363 -393 -468q-111 -38 -251 -38q-274 0 -429 169q-156 169 -156 452q0 182 52 348q108 344 394 492q143 75 324 75q250 0 381 -130t152 -355l-189 -31
q-23 176 -102 264q-80 88 -252 88zM1354 1866l-291 -275h-178l-180 275h165l119 -162l197 162h168z" />
    <glyph glyph-name="ccaron" unicode="&#x10d;" horiz-adv-x="1144" 
d="M561 -33q-206 0 -321 126t-115 304q0 179 47 305q92 248 316 345q108 45 218 45t185 -29q206 -81 227 -334l-176 -27q-15 118 -51 161q-35 41 -78 61t-120 20t-149 -37t-122 -105q-109 -146 -109 -371q0 -224 145 -293q50 -24 122 -23q132 1 204 67t101 170h182
q-101 -385 -506 -385zM1124 1503l-295 -289h-178l-178 289h164l119 -178l200 178h168z" />
    <glyph glyph-name="Dcaron" unicode="&#x10e;" horiz-adv-x="1462" 
d="M588 164q328 0 496 190q169 190 169 518q0 186 -104 308t-297 120h-301l-242 -1136h279zM870 1462q267 0 423 -166q157 -166 157 -424q0 -398 -219 -625q-236 -247 -670 -247h-475l309 1462h475zM1225 1866l-291 -275h-178l-181 275h166l119 -162l197 162h168z" />
    <glyph glyph-name="dcaron" unicode="&#x10f;" horiz-adv-x="1220" 
d="M307 403q-1 -124 63 -205t193 -81t236 108t135 252l18 84q14 66 15 127q0 102 -73 179t-212 77q-78 0 -150 -42q-141 -82 -198 -280q-27 -95 -27 -219zM678 1092q230 0 342 -191l119 561h178l-311 -1462h-175l29 147q-141 -180 -343 -180t-301 131t-97 318q0 271 150 467
q73 93 177 151t232 58zM1364 1044l143 418h179l-181 -418h-141z" />
    <glyph glyph-name="Dcroat" unicode="&#x110;" horiz-adv-x="1488" 
d="M614 164q327 0 496 190q170 190 170 518q0 184 -104 307t-297 121h-301l-101 -464h375l-35 -160h-373l-108 -512h278zM897 1462q267 0 423 -166q157 -166 157 -424q0 -397 -220 -625q-236 -247 -669 -247h-475l143 676h-166l35 160h164l133 626h475z" />
    <glyph glyph-name="dcroat" unicode="&#x111;" horiz-adv-x="1239" 
d="M307 399q0 -123 63.5 -202.5t189.5 -79.5t231 101.5t141 246.5l14 63q17 74 17 125q-2 98 -68 164q-74 78 -213 78q-78 0 -149.5 -41t-148.5 -144t-77 -311zM678 1044q221 0 332 -188l69 326h-346l29 129h344l33 151h178l-33 -151h143l-28 -129h-142l-251 -1182h-175
l29 147q-78 -92 -160 -136t-188 -44q-194 0 -293.5 127.5t-99.5 302.5q0 260 112.5 399.5t216 193.5t230.5 54z" />
    <glyph glyph-name="Emacron" unicode="&#x112;" horiz-adv-x="1216" 
d="M551 1296l-98 -458h716l-34 -168h-717l-107 -504h799l-61 -166h-961l309 1462h946l-34 -166h-758zM623 1780h598l-33 -152h-598z" />
    <glyph glyph-name="emacron" unicode="&#x113;" horiz-adv-x="1167" 
d="M301 448v-38q0 -128 77 -214t209 -86q132 1 195 49t95 138h174q-75 -247 -290 -307q-79 -23 -187 -23t-190 36q-168 73 -229 241q-30 82 -30 210t45 253q91 252 308 341q108 44 220 44q205 0 312 -114q108 -114 106 -290q0 -108 -14 -168l-8 -35h-791q-2 -17 -2 -37z
M942 696q0 108 -64 183t-193 75q-128 0 -224 -82t-135 -254h612q4 32 4 78zM489 1419h535l-31 -145h-534z" />
    <glyph glyph-name="Ebreve" unicode="&#x114;" horiz-adv-x="1216" 
d="M551 1296l-98 -458h716l-34 -168h-717l-107 -504h799l-61 -166h-961l309 1462h946l-34 -166h-758zM774 1802q0 -40 33 -69t93 -29q143 0 167 164h139q-52 -285 -309 -285q-127 0 -194 55t-66 160q0 29 6 70h137q-6 -26 -6 -66z" />
    <glyph glyph-name="ebreve" unicode="&#x115;" horiz-adv-x="1167" 
d="M301 448v-38q0 -128 77 -214t209 -86q132 1 195 49t95 138h174q-75 -247 -290 -307q-79 -23 -187 -23t-190 36q-168 73 -229 241q-30 82 -30 210t45 253q91 252 308 341q108 44 220 44q205 0 312 -114q108 -114 106 -290q0 -108 -14 -168l-8 -35h-791q-2 -17 -2 -37z
M942 696q0 108 -64 183t-193 75q-128 0 -224 -82t-135 -254h612q4 32 4 78zM627 1446q1 -119 125 -119q138 0 168 166h137q-51 -285 -311 -285q-124 0 -190 58t-64 157q0 33 6 70h135q-6 -29 -6 -47z" />
    <glyph glyph-name="Edotaccent" unicode="&#x116;" horiz-adv-x="1216" 
d="M551 1296l-98 -458h716l-34 -168h-717l-107 -504h799l-61 -166h-961l309 1462h946l-34 -166h-758zM791 1616l47 215h190l-45 -215h-192z" />
    <glyph glyph-name="edotaccent" unicode="&#x117;" horiz-adv-x="1167" 
d="M301 448v-38q0 -128 77 -214t209 -86q132 1 195 49t95 138h174q-75 -247 -290 -307q-79 -23 -187 -23t-190 36q-168 73 -229 241q-30 82 -30 210t45 253q91 252 308 341q108 44 220 44q205 0 312 -114q108 -114 106 -290q0 -108 -14 -168l-8 -35h-791q-2 -17 -2 -37z
M942 696q0 108 -64 183t-193 75q-128 0 -224 -82t-135 -254h612q4 32 4 78zM639 1257l45 207h182l-43 -207h-184z" />
    <glyph glyph-name="Eogonek" unicode="&#x118;" horiz-adv-x="1216" 
d="M890 -381q-60 0 -118.5 38t-58.5 109t40 126t130 108h-795l309 1462h946l-34 -166h-758l-98 -458h716l-34 -168h-717l-107 -504h799l-61 -166q-172 -108 -172 -181t79 -73q26 0 56 4l-27 -125q-35 -6 -95 -6z" />
    <glyph glyph-name="eogonek" unicode="&#x119;" horiz-adv-x="1167" 
d="M685 954q-128 0 -224 -81.5t-135 -254.5h612q8 48 4 97q-4 104 -66.5 171.5t-190.5 67.5zM621 -182q0 -64 79 -64q24 0 54 4l-27 -123q-32 -4 -92 -4t-115 35t-55 107q0 109 119 194h-9q-206 0 -328 128.5t-122 307.5q0 328 162.5 508.5t421.5 180.5q193 0 300 -113
t107 -291q0 -108 -14 -168l-8 -35h-791q-2 -18 -2 -23v-52q0 -126 76 -212.5t209 -86.5t196.5 48t94.5 138h174q-35 -111 -96.5 -186.5t-170.5 -112.5q-78 -47 -120.5 -90t-42.5 -90z" />
    <glyph glyph-name="Ecaron" unicode="&#x11a;" horiz-adv-x="1216" 
d="M551 1296l-98 -458h716l-34 -168h-717l-107 -504h799l-61 -166h-961l309 1462h946l-34 -166h-758zM1266 1866l-291 -275h-178l-181 275h166l119 -162l197 162h168z" />
    <glyph glyph-name="ecaron" unicode="&#x11b;" horiz-adv-x="1167" 
d="M301 448v-38q0 -128 77 -214t209 -86q132 1 195 49t95 138h174q-75 -247 -290 -307q-79 -23 -187 -23t-190 36q-168 73 -229 241q-30 82 -30 210t45 253q91 252 308 341q108 44 220 44q205 0 312 -114q108 -114 106 -290q0 -108 -14 -168l-8 -35h-791q-2 -17 -2 -37z
M942 696q0 108 -64 183t-193 75q-128 0 -224 -82t-135 -254h612q4 32 4 78zM1114 1503l-295 -289h-178l-178 289h164l118 -178l201 178h168z" />
    <glyph glyph-name="Gcircumflex" unicode="&#x11c;" horiz-adv-x="1466" 
d="M760 127q147 0 237 34t150 75l76 352h-371l37 164h547l-129 -602q-207 -184 -577 -186q-118 0 -225 45q-109 46 -183 129q-154 172 -154 446q0 176 51 341q107 347 396 497q146 77 350 77t339 -107q134 -108 164 -311l-184 -32q-53 290 -348 288q-264 0 -423 -226
q-148 -209 -146 -513q0 -201 102 -336t291 -135zM645 1583l291 277h178l180 -277h-166l-116 162l-199 -162h-168z" />
    <glyph glyph-name="gcircumflex" unicode="&#x11d;" horiz-adv-x="1218" 
d="M680 1087q232 0 344 -186l35 158h174l-189 -887q-28 -135 -64 -245q-73 -227 -256 -305q-96 -42 -274 -42t-288 78t-117 244h176q15 -96 73 -138t208 -40q150 0 229 93q80 93 117 269l20 102q-135 -168 -360 -168q-189 0 -290 132q-89 114 -89 297q0 243 146 433
q71 91 173 148t232 57zM967 690q0 121 -76 188q-75 66 -181 66q-186 -1 -290 -150q-103 -149 -103 -345q1 -135 63 -208t187 -73t233 93q107 93 137 232t30 197zM455 1210l293 291h178l178 -291h-164l-117 181l-200 -181h-168z" />
    <glyph glyph-name="Gbreve" unicode="&#x11e;" horiz-adv-x="1466" 
d="M760 127q147 0 237 34t150 75l76 352h-371l37 164h547l-129 -602q-207 -184 -577 -186q-118 0 -225 45q-109 46 -183 129q-154 172 -154 446q0 176 51 341q107 347 396 497q146 77 350 77t339 -107q134 -108 164 -311l-184 -32q-53 290 -348 288q-264 0 -423 -226
q-148 -209 -146 -513q0 -201 102 -336t291 -135zM1288 1868q-52 -285 -309 -285q-127 0 -194 55t-66 160q0 29 6 70h137q-6 -26 -6 -66t33 -69t86 -29q147 0 174 164h139z" />
    <glyph glyph-name="gbreve" unicode="&#x11f;" horiz-adv-x="1218" 
d="M680 1087q232 0 344 -186l35 158h174l-189 -887q-28 -135 -64 -245q-73 -227 -256 -305q-96 -42 -274 -42t-288 78t-117 244h176q15 -96 73 -138t208 -40q150 0 229 93q80 93 117 269l20 102q-135 -168 -360 -168q-189 0 -290 132q-89 114 -89 297q0 243 146 433
q71 91 173 148t232 57zM967 690q0 121 -76 188q-75 66 -181 66q-186 -1 -290 -150q-103 -149 -103 -345q1 -135 63 -208t187 -73t233 93q107 93 137 232t30 197zM668 1446q0 -119 124 -119q138 0 169 166h137q-51 -285 -311 -285q-123 0 -189 58t-66 157q0 33 7 70h135
q-6 -29 -6 -47z" />
    <glyph glyph-name="Gdotaccent" unicode="&#x120;" horiz-adv-x="1466" 
d="M760 127q147 0 237 34t150 75l76 352h-371l37 164h547l-129 -602q-207 -184 -577 -186q-118 0 -225 45q-109 46 -183 129q-154 172 -154 446q0 176 51 341q107 347 396 497q146 77 350 77t339 -107q134 -108 164 -311l-184 -32q-53 290 -348 288q-264 0 -423 -226
q-148 -209 -146 -513q0 -201 102 -336t291 -135zM872 1616l48 215h190l-45 -215h-193z" />
    <glyph glyph-name="gdotaccent" unicode="&#x121;" horiz-adv-x="1218" 
d="M680 1087q232 0 344 -186l35 158h174l-189 -887q-28 -135 -64 -245q-73 -227 -256 -305q-96 -42 -274 -42t-288 78t-117 244h176q15 -96 73 -138t208 -40q150 0 229 93q80 93 117 269l20 102q-135 -168 -360 -168q-189 0 -290 132q-89 114 -89 297q0 243 146 433
q71 91 173 148t232 57zM967 690q0 121 -76 188q-75 66 -181 66q-186 -1 -290 -150q-103 -149 -103 -345q1 -135 63 -208t187 -73t233 93q107 93 137 232t30 197zM668 1257l45 207h182l-43 -207h-184z" />
    <glyph glyph-name="Gcommaaccent" unicode="&#x122;" horiz-adv-x="1466" 
d="M760 127q147 0 237 34t150 75l76 352h-371l37 164h547l-129 -602q-207 -184 -577 -186q-118 0 -225 45q-109 46 -183 129q-154 172 -154 446q0 176 51 341q107 347 396 497q146 77 350 77t339 -107q134 -108 164 -311l-184 -32q-53 290 -348 288q-264 0 -423 -226
q-148 -209 -146 -513q0 -201 102 -336t291 -135zM403 -444l220 307h215l-265 -307h-170z" />
    <glyph glyph-name="gcommaaccent" unicode="&#x123;" horiz-adv-x="1218" 
d="M680 1087q232 0 344 -186l35 158h174l-189 -887q-28 -135 -64 -245q-73 -227 -256 -305q-96 -42 -274 -42t-288 78t-117 244h176q15 -96 73 -138t208 -40q150 0 229 93q80 93 117 269l20 102q-135 -168 -360 -168q-189 0 -290 132q-89 114 -89 297q0 243 146 433
q71 91 173 148t232 57zM967 690q0 121 -76 188q-75 66 -181 66q-186 -1 -290 -150q-103 -149 -103 -345q1 -135 63 -208t187 -73t233 93q107 93 137 232t30 197zM1081 1501l-211 -297h-206l256 297h161z" />
    <glyph glyph-name="Hcircumflex" unicode="&#x124;" horiz-adv-x="1439" 
d="M1014 0l141 668h-737l-142 -668h-188l309 1462h189l-131 -618h737l131 618h188l-309 -1462h-188zM645 1583l291 277h178l180 -277h-166l-116 162l-199 -162h-168z" />
    <glyph glyph-name="hcircumflex" unicode="&#x125;" horiz-adv-x="1167" 
d="M815 1092q147 0 225 -80t78 -224q0 -55 -12 -116l-143 -672h-179l138 649q14 63 14 103q0 186 -174 186q-119 0 -232 -86q-55 -45 -97 -96t-58 -129l-133 -627h-179l310 1462h178l-119 -559q167 189 383 189zM406 1583l290 277h178l181 -277h-166l-117 162l-199 -162
h-167z" />
    <glyph glyph-name="Hbar" unicode="&#x126;" horiz-adv-x="1490" 
d="M1212 827l52 240h-738l-51 -240h737zM371 1225l51 237h188l-51 -237h737l52 237h188l-51 -237h168l-33 -158h-168l-225 -1067h-189l138 651h-738l-137 -651h-188l225 1067h-164l33 158h164z" />
    <glyph glyph-name="hbar" unicode="&#x127;" horiz-adv-x="1185" 
d="M821 1044q147 0 225 -79.5t78 -223.5q0 -55 -12 -116l-133 -625h-178l127 602q14 63 14 103q0 186 -174 186q-119 0 -231 -86q-55 -45 -97.5 -96.5t-58.5 -128.5l-123 -580h-178l250 1182h-142l29 129h139l33 151h178l-32 -151h350l-29 -129h-348l-70 -326
q166 188 383 188z" />
    <glyph glyph-name="Itilde" unicode="&#x128;" horiz-adv-x="512" 
d="M88 0l309 1462h189l-310 -1462h-188zM360 1837q88 -1 170 -53q32 -20 62 -36q28 -16 69 -17t64 21t33 81h139q-15 -125 -71 -183t-140 -58t-173 54q-33 19 -61 36q-28 18 -68 18q-82 1 -99 -105h-138q13 125 69 183t144 59z" />
    <glyph glyph-name="itilde" unicode="&#x129;" horiz-adv-x="462" 
d="M68 0l225 1059h178l-225 -1059h-178zM266 1479q65 1 149 -53q33 -20 61 -38q28 -16 68 -16t64 23t33 78h131q-27 -240 -225 -240q-66 0 -150 54q-31 19 -59 37t-66 17q-79 0 -98 -102h-133q27 240 225 240z" />
    <glyph glyph-name="Imacron" unicode="&#x12a;" horiz-adv-x="512" 
d="M88 0l309 1462h189l-310 -1462h-188zM242 1780h598l-33 -152h-598z" />
    <glyph glyph-name="imacron" unicode="&#x12b;" horiz-adv-x="462" 
d="M68 0l225 1059h178l-225 -1059h-178zM162 1419h534l-30 -145h-535z" />
    <glyph glyph-name="Ibreve" unicode="&#x12c;" horiz-adv-x="512" 
d="M88 0l309 1462h189l-310 -1462h-188zM262 1798q0 29 6 70h138q-22 -93 26 -135q32 -29 92 -29q143 0 168 164h139q-52 -285 -309 -285q-128 0 -194 55t-66 160z" />
    <glyph glyph-name="ibreve" unicode="&#x12d;" horiz-adv-x="462" 
d="M68 0l225 1059h178l-225 -1059h-178zM729 1493q-51 -285 -310 -285q-124 0 -190 58t-65 157q0 33 6 70h135q-6 -29 -6 -47q0 -59 33 -89t86 -30q143 0 174 166h137z" />
    <glyph glyph-name="Iogonek" unicode="&#x12e;" horiz-adv-x="512" 
d="M118 -381q-60 0 -118.5 38t-58.5 109t39.5 126t130.5 108h-23l309 1462h189l-310 -1462q-172 -108 -172 -181t80 -73q26 0 56 4l-27 -125q-35 -6 -95 -6z" />
    <glyph glyph-name="iogonek" unicode="&#x12f;" horiz-adv-x="462" 
d="M319 1255l43 207h193l-43 -207h-193zM78 -182q0 -64 80 -64q25 0 53 4l-27 -123q-32 -4 -92 -4t-115 35t-55 104t41 123t127 107h-22l225 1059h178l-225 -1059q-78 -49 -123 -92t-45 -90z" />
    <glyph glyph-name="Idotaccent" unicode="&#x130;" horiz-adv-x="512" 
d="M88 0l309 1462h189l-310 -1462h-188zM424 1616l47 215h191l-46 -215h-192z" />
    <glyph glyph-name="dotlessi" unicode="&#x131;" horiz-adv-x="462" 
d="M68 0l225 1059h178l-225 -1059h-178z" />
    <glyph glyph-name="IJ" unicode="&#x132;" horiz-adv-x="1736" 
d="M88 0l309 1462h189l-310 -1462h-188zM588 369q0 31 4 69h184v-39q0 -272 279 -272q160 0 255 99q79 86 120 276l204 960h189l-211 -997q-54 -262 -192 -382t-360 -120t-347 104q-125 105 -125 302z" />
    <glyph glyph-name="ij" unicode="&#x133;" horiz-adv-x="925" 
d="M319 1255l43 207h193l-43 -207h-193zM68 0l225 1059h178l-225 -1059h-178zM353 -229q71 0 109 43t56 129l238 1116h178l-234 -1100q-39 -169 -111 -254q-72 -86 -227 -86q-113 0 -202 41l57 137q65 -26 136 -26zM782 1255l43 207h193l-43 -207h-193z" />
    <glyph glyph-name="Jcircumflex" unicode="&#x134;" horiz-adv-x="1222" 
d="M74 369q0 31 4 69h184v-39q0 -129 62 -201q62 -71 219 -71q158 0 253 99q81 88 119 276l205 960h189l-211 -997q-54 -262 -192 -382t-360 -120t-347 104q-125 105 -125 302zM903 1583l291 277h178l180 -277h-166l-116 162l-199 -162h-168z" />
    <glyph glyph-name="jcircumflex" unicode="&#x135;" horiz-adv-x="462" 
d="M-100 -381q-114 0 -203 41l57 137q65 -26 136 -26t109 43t56 129l238 1116h178l-233 -1100q-39 -170 -112 -255t-226 -85zM63 1210l293 291h179l178 -291h-164l-117 181l-201 -181h-168z" />
    <glyph glyph-name="Kcommaaccent" unicode="&#x136;" horiz-adv-x="1331" 
d="M696 793l-305 -248l-115 -545h-188l309 1462h189l-146 -690l826 690h221l-639 -557l383 -905h-209zM299 -444l219 307h215l-264 -307h-170z" />
    <glyph glyph-name="kcommaaccent" unicode="&#x137;" horiz-adv-x="1071" 
d="M63 0l310 1462h176l-176 -844l577 441h224l-457 -363l270 -696h-190l-224 602l-245 -184l-88 -418h-177zM164 -436l211 299h207l-254 -299h-164z" />
    <glyph glyph-name="kgreenlandic" unicode="&#x138;" horiz-adv-x="1071" 
d="M63 0l224 1059h176l-105 -492l594 492h219l-460 -395l278 -664h-194l-226 565l-254 -203l-75 -362h-177z" />
    <glyph glyph-name="Lacute" unicode="&#x139;" horiz-adv-x="1150" 
d="M88 0l309 1462h189l-275 -1294h758l-63 -168h-918zM389 1583l289 277h231l-336 -277h-184z" />
    <glyph glyph-name="lacute" unicode="&#x13a;" horiz-adv-x="462" 
d="M68 0l309 1462h178l-309 -1462h-178zM367 1583l288 277h232l-336 -277h-184z" />
    <glyph glyph-name="Lcommaaccent" unicode="&#x13b;" horiz-adv-x="1150" 
d="M88 0l309 1462h189l-275 -1294h758l-63 -168h-918zM211 -444l219 307h215l-264 -307h-170z" />
    <glyph glyph-name="lcommaaccent" unicode="&#x13c;" horiz-adv-x="462" 
d="M68 0l309 1462h178l-309 -1462h-178zM-186 -436l211 299h206l-254 -299h-163z" />
    <glyph glyph-name="Lcaron" unicode="&#x13d;" horiz-adv-x="1150" 
d="M88 0l309 1462h189l-275 -1294h758l-63 -168h-918zM827 1031l148 431h184l-186 -431h-146z" />
    <glyph glyph-name="lcaron" unicode="&#x13e;" horiz-adv-x="462" 
d="M68 0l309 1462h178l-309 -1462h-178zM598 1044l143 418h179l-181 -418h-141z" />
    <glyph glyph-name="Ldot" unicode="&#x13f;" horiz-adv-x="1150" 
d="M88 0l309 1462h189l-275 -1294h758l-63 -168h-918zM780 694l49 240h205l-51 -240h-203z" />
    <glyph glyph-name="ldot" unicode="&#x140;" horiz-adv-x="702" 
d="M68 0l309 1462h178l-309 -1462h-178zM543 645l49 240h205l-52 -240h-202z" />
    <glyph glyph-name="Lslash" unicode="&#x141;" horiz-adv-x="1177" 
d="M63 569l197 117l164 776h188l-137 -651l467 287l-39 -183l-467 -286l-98 -461h758l-64 -168h-917l106 504l-194 -117z" />
    <glyph glyph-name="lslash" unicode="&#x142;" horiz-adv-x="563" 
d="M78 698l215 129l135 635h178l-112 -530l213 131l-33 -166l-215 -131l-162 -766h-178l141 664l-217 -132z" />
    <glyph glyph-name="Nacute" unicode="&#x143;" horiz-adv-x="1433" 
d="M1030 0l-514 1161l-246 -1161h-182l309 1462h170l510 -1161l246 1161h182l-309 -1462h-166zM811 1583l289 277h231l-336 -277h-184z" />
    <glyph glyph-name="nacute" unicode="&#x144;" horiz-adv-x="1167" 
d="M815 1092q147 0 225 -80t78 -224q0 -55 -12 -116l-143 -672h-179l138 649q14 63 14 103q0 186 -174 186q-119 0 -232 -86q-55 -43 -97 -95t-58 -130l-133 -627h-179l224 1059h176l-35 -160q171 193 387 193zM586 1210l286 291h228l-328 -291h-186z" />
    <glyph glyph-name="Ncommaaccent" unicode="&#x145;" horiz-adv-x="1433" 
d="M1030 0l-514 1161l-246 -1161h-182l309 1462h170l510 -1161l246 1161h182l-309 -1462h-166zM313 -444l219 307h216l-265 -307h-170z" />
    <glyph glyph-name="ncommaaccent" unicode="&#x146;" horiz-adv-x="1167" 
d="M815 1092q147 0 225 -80t78 -224q0 -55 -12 -116l-143 -672h-179l138 649q14 63 14 103q0 186 -174 186q-119 0 -232 -86q-55 -43 -97 -95t-58 -130l-133 -627h-179l224 1059h176l-35 -160q171 193 387 193zM201 -436l211 299h206l-253 -299h-164z" />
    <glyph glyph-name="Ncaron" unicode="&#x147;" horiz-adv-x="1433" 
d="M1030 0l-514 1161l-246 -1161h-182l309 1462h170l510 -1161l246 1161h182l-309 -1462h-166zM1337 1866l-290 -275h-179l-180 275h166l119 -162l196 162h168z" />
    <glyph glyph-name="ncaron" unicode="&#x148;" horiz-adv-x="1167" 
d="M815 1092q147 0 225 -80t78 -224q0 -55 -12 -116l-143 -672h-179l138 649q14 63 14 103q0 186 -174 186q-119 0 -232 -86q-55 -43 -97 -95t-58 -130l-133 -627h-179l224 1059h176l-35 -160q171 193 387 193zM1149 1503l-295 -289h-178l-178 289h164l118 -178l201 178h168
z" />
    <glyph glyph-name="napostrophe" unicode="&#x149;" horiz-adv-x="1294" 
d="M942 1092q147 0 225 -80t78 -224q0 -55 -12 -116l-143 -672h-179l138 649q14 63 14 103q0 186 -174 186q-119 0 -232 -86q-55 -43 -97 -95t-58 -130l-133 -627h-179l224 1059h176l-35 -160q171 193 387 193zM139 1032l148 430h188l-199 -430h-137z" />
    <glyph glyph-name="Eng" unicode="&#x14a;" horiz-adv-x="1433" 
d="M667 -254q177 0 245.5 61t105.5 222l-502 1132l-246 -1161h-182l309 1462h170l510 -1161l246 1161h182l-305 -1442q-54 -244 -170.5 -342t-349.5 -98q-164 0 -299 64l65 153q120 -51 221 -51z" />
    <glyph glyph-name="eng" unicode="&#x14b;" horiz-adv-x="1167" 
d="M609 -229q71 0 109 43t54 129l150 706q14 63 14 103q0 186 -174 186q-117 0 -234 -88q-55 -45 -96 -95t-57 -128l-133 -627h-179l224 1059h176l-35 -160q171 193 387 193q147 0 225 -80t78 -224q0 -55 -12 -116l-152 -713q-35 -170 -108.5 -255t-227.5 -85
q-110 0 -200 41l55 137q65 -26 136 -26z" />
    <glyph glyph-name="Omacron" unicode="&#x14c;" horiz-adv-x="1566" 
d="M938 1335q-120 -1 -230 -67q-218 -132 -298 -416q-39 -136 -39 -254q0 -223 101 -347t292 -124q143 0 253 67q215 131 298 416q39 135 39 255t-26 203t-75 142t-123 92q-72 33 -192 33zM973 1499q254 0 416 -165q161 -165 161 -441q0 -172 -52 -339t-152 -298t-250 -212
t-342 -81q-260 0 -420 164t-160 442q0 172 53 339t155 298t252 212q149 81 339 81zM750 1780h598l-33 -152h-598z" />
    <glyph glyph-name="omacron" unicode="&#x14d;" horiz-adv-x="1230" 
d="M729 944q-182 0 -299 -147q-117 -149 -117 -379q0 -137 68 -220t197 -83q181 0 298 147q117 152 115 379q0 137 -66 220q-67 83 -196 83zM726 1092q114 0 194 -33q260 -105 260 -442q0 -128 -46 -255t-129 -214q-173 -181 -440 -181q-195 0 -318 125q-122 125 -122 301
q0 177 48 302q95 251 327 349q112 48 226 48zM522 1419h535l-31 -145h-534z" />
    <glyph glyph-name="Obreve" unicode="&#x14e;" horiz-adv-x="1566" 
d="M938 1335q-120 -1 -230 -67q-218 -132 -298 -416q-39 -136 -39 -254q0 -223 101 -347t292 -124q143 0 253 67q215 131 298 416q39 135 39 255t-26 203t-75 142t-123 92q-72 33 -192 33zM973 1499q254 0 416 -165q161 -165 161 -441q0 -172 -52 -339t-152 -298t-250 -212
t-342 -81q-260 0 -420 164t-160 442q0 172 53 339t155 298t252 212q149 81 339 81zM1321 1868q-52 -285 -310 -285q-127 0 -193 55t-66 160q0 29 6 70h137q-6 -26 -6 -66t33 -69t86 -29q147 0 174 164h139z" />
    <glyph glyph-name="obreve" unicode="&#x14f;" horiz-adv-x="1230" 
d="M729 944q-182 0 -299 -147q-117 -149 -117 -379q0 -137 68 -220t197 -83q181 0 298 147q117 152 115 379q0 137 -66 220q-67 83 -196 83zM726 1092q114 0 194 -33q260 -105 260 -442q0 -128 -46 -255t-129 -214q-173 -181 -440 -181q-195 0 -318 125q-122 125 -122 301
q0 177 48 302q95 251 327 349q112 48 226 48zM1094 1493q-51 -285 -311 -285q-123 0 -189 58t-66 157q0 33 7 70h135q-6 -29 -6 -47q0 -59 32 -89t86 -30q145 0 174 166h138z" />
    <glyph glyph-name="Ohungarumlaut" unicode="&#x150;" horiz-adv-x="1566" 
d="M938 1335q-120 -1 -230 -67q-218 -132 -298 -416q-39 -136 -39 -254q0 -223 101 -347t292 -124q143 0 253 67q215 131 298 416q39 135 39 255t-26 203t-75 142t-123 92q-72 33 -192 33zM973 1499q254 0 416 -165q161 -165 161 -441q0 -172 -52 -339t-152 -298t-250 -212
t-342 -81q-260 0 -420 164t-160 442q0 172 53 339t155 298t252 212q149 81 339 81zM1085 1583l269 277h215l-314 -277h-170zM711 1583l270 277h215l-313 -277h-172z" />
    <glyph glyph-name="ohungarumlaut" unicode="&#x151;" horiz-adv-x="1230" 
d="M729 944q-182 0 -299 -147q-117 -149 -117 -379q0 -137 68 -220t197 -83q181 0 298 147q117 152 115 379q0 137 -66 220q-67 83 -196 83zM726 1092q114 0 194 -33q260 -105 260 -442q0 -128 -46 -255t-129 -214q-173 -181 -440 -181q-195 0 -318 125q-122 125 -122 301
q0 177 48 302q95 251 327 349q112 48 226 48zM854 1210l274 291h209l-317 -291h-166zM492 1210l276 291h209l-320 -291h-165z" />
    <glyph glyph-name="OE" unicode="&#x152;" horiz-adv-x="2203" 
d="M912 1335q-114 0 -219 -66.5t-213.5 -228.5t-108.5 -460q0 -203 96 -328t255 -125q283 0 426.5 230t143.5 540t-133 374t-247 64zM174 569q0 172 53.5 339t151.5 298t239.5 212t318.5 81t286.5 -84t158.5 -221l56 268h893l-35 -166h-711l-98 -458h670l-35 -168h-670
l-106 -504h751l-61 -166h-908l39 180q-180 -217 -450 -217q-237 0 -390 167t-153 439z" />
    <glyph glyph-name="oe" unicode="&#x153;" horiz-adv-x="1982" 
d="M1757 688q0 113 -57.5 189.5t-188.5 76.5t-223 -81.5t-131 -254.5h596q4 32 4 70zM723 944q-181 0 -295.5 -147t-114.5 -379q0 -137 65.5 -220t192.5 -83q180 0 292 145.5t112 380.5q0 137 -61.5 220t-190.5 83zM1530 1092q189 0 295 -112t106 -292q0 -100 -12 -162
l-8 -41h-772q-2 -16 -2 -19v-46q0 -213 102 -261t172 -48q125 0 187.5 49t93.5 137h174q-97 -330 -463 -330q-228 0 -299.5 102.5t-93.5 149.5q-82 -119 -188.5 -185.5t-281.5 -66.5t-295 124t-120 302q0 325 174.5 512t436.5 187q263 0 356 -244q154 244 438 244z" />
    <glyph glyph-name="Racute" unicode="&#x154;" horiz-adv-x="1300" 
d="M750 768q287 0 365 164q28 58 28 126q0 121 -71 182t-243 63h-280l-113 -535h314zM748 606h-347l-129 -606h-186l309 1462h469q250 0 371 -121q100 -100 98 -258q0 -337 -344 -436l174 -647h-205l-149 610q-29 -4 -61 -4zM700 1583l289 277h232l-336 -277h-185z" />
    <glyph glyph-name="racute" unicode="&#x155;" horiz-adv-x="749" 
d="M719 913q-103 0 -193 -69q-57 -46 -97 -98t-56 -130l-131 -616h-179l224 1059h176l-35 -164q90 102 168 142t145 40t115 -12l-47 -162q-51 10 -90 10zM449 1210l286 291h228l-328 -291h-186z" />
    <glyph glyph-name="Rcommaaccent" unicode="&#x156;" horiz-adv-x="1300" 
d="M750 768q287 0 365 164q28 58 28 126q0 121 -71 182t-243 63h-280l-113 -535h314zM748 606h-347l-129 -606h-186l309 1462h469q250 0 371 -121q100 -100 98 -258q0 -337 -344 -436l174 -647h-205l-149 610q-29 -4 -61 -4zM262 -444l219 307h215l-264 -307h-170z" />
    <glyph glyph-name="rcommaaccent" unicode="&#x157;" horiz-adv-x="749" 
d="M719 913q-103 0 -193 -69q-57 -46 -97 -98t-56 -130l-131 -616h-179l224 1059h176l-35 -164q90 102 168 142t145 40t115 -12l-47 -162q-51 10 -90 10zM-180 -436l211 299h207l-254 -299h-164z" />
    <glyph glyph-name="Rcaron" unicode="&#x158;" horiz-adv-x="1300" 
d="M750 768q287 0 365 164q28 58 28 126q0 121 -71 182t-243 63h-280l-113 -535h314zM748 606h-347l-129 -606h-186l309 1462h469q250 0 371 -121q100 -100 98 -258q0 -337 -344 -436l174 -647h-205l-149 610q-29 -4 -61 -4zM1208 1866l-290 -275h-179l-180 275h166
l119 -162l196 162h168z" />
    <glyph glyph-name="rcaron" unicode="&#x159;" horiz-adv-x="749" 
d="M719 913q-103 0 -193 -69q-57 -46 -97 -98t-56 -130l-131 -616h-179l224 1059h176l-35 -164q90 102 168 142t145 40t115 -12l-47 -162q-51 10 -90 10zM950 1503l-295 -289h-178l-178 289h164l119 -178l200 178h168z" />
    <glyph glyph-name="Sacute" unicode="&#x15a;" horiz-adv-x="1316" 
d="M1212 412q0 -92 -41 -182q-41 -89 -115 -148q-150 -119 -407 -119q-377 0 -511 235q-50 87 -54 218h188q16 -152 106 -222t284 -69q266 0 328 180q35 100 11 187q-28 117 -192 149l-193 41q-360 77 -360 369q0 221 150 334q150 114 393 114q244 0 383 -111
q124 -102 145 -290l-180 -31q-20 137 -98 205t-248 67q-278 0 -334 -160q-16 -46 -16 -117t47 -125t172 -83l188 -41q278 -57 336 -249q18 -60 18 -152zM698 1583l289 277h232l-336 -277h-185z" />
    <glyph glyph-name="sacute" unicode="&#x15b;" horiz-adv-x="1069" 
d="M766 287q0 75 -34 109t-124 55l-119 26q-159 35 -227 103t-68 166q1 174 123 259t311 86t288 -78t116 -225l-164 -24q-16 92 -69 139t-184 47t-189 -49q-59 -49 -59 -115q1 -66 37 -103q36 -36 139 -58l125 -27q145 -29 213 -99q67 -71 67 -179t-38 -172
q-106 -177 -403 -179t-404 175q-38 65 -37 163h170q7 -196 276 -196q133 0 194 51q60 51 60 125zM535 1210l286 291h228l-328 -291h-186z" />
    <glyph glyph-name="Scircumflex" unicode="&#x15c;" horiz-adv-x="1316" 
d="M1212 412q0 -92 -41 -182q-41 -89 -115 -148q-150 -119 -407 -119q-377 0 -511 235q-50 87 -54 218h188q16 -152 106 -222t284 -69q266 0 328 180q35 100 11 187q-28 117 -192 149l-193 41q-360 77 -360 369q0 221 150 334q150 114 393 114q244 0 383 -111
q124 -102 145 -290l-180 -31q-20 137 -98 205t-248 67q-278 0 -334 -160q-16 -46 -16 -117t47 -125t172 -83l188 -41q278 -57 336 -249q18 -60 18 -152zM518 1583l291 277h178l180 -277h-166l-116 162l-199 -162h-168z" />
    <glyph glyph-name="scircumflex" unicode="&#x15d;" horiz-adv-x="1069" 
d="M766 287q0 75 -34 109t-124 55l-119 26q-159 35 -227 103t-68 166q1 174 123 259t311 86t288 -78t116 -225l-164 -24q-16 92 -69 139t-184 47t-189 -49q-59 -49 -59 -115q1 -66 37 -103q36 -36 139 -58l125 -27q145 -29 213 -99q67 -71 67 -179t-38 -172
q-106 -177 -403 -179t-404 175q-38 65 -37 163h170q7 -196 276 -196q133 0 194 51q60 51 60 125zM334 1210l293 291h178l178 -291h-164l-117 181l-200 -181h-168z" />
    <glyph glyph-name="Scedilla" unicode="&#x15e;" horiz-adv-x="1316" 
d="M641 -260q0 65 -141 65h-43l88 164q-309 27 -384 179.5t-77 267.5h188q16 -152 105.5 -221.5t284.5 -69.5q265 0 306.5 117.5t41.5 167.5q0 92 -44 150.5t-157 80.5l-193 41q-360 77 -360 369q0 221 148.5 334.5t395.5 113.5t376.5 -107t150.5 -294l-180 -31
q-20 137 -98 204.5t-258 67.5t-260 -71t-80 -174t47 -157t172 -83l188 -41q354 -72 354 -375q0 -231 -148.5 -351t-401.5 -124l-39 -76q96 -16 132 -61t36 -88q0 -109 -80 -149t-205 -40q-47 0 -135 15l22 108q74 -12 119 -12q129 0 129 80z" />
    <glyph glyph-name="scedilla" unicode="&#x15f;" horiz-adv-x="1069" 
d="M506 -244q0 64 -135 64h-41l82 153q-241 28 -293.5 139t-52.5 195h170q7 -196 276 -196q133 0 193.5 51t60.5 125t-34 108.5t-124 55.5l-119 26q-160 35 -227 103t-67 166q0 176 123.5 261t311.5 85q187 0 286.5 -79t115.5 -225l-164 -24q-16 92 -69.5 139t-180.5 47
q-196 0 -223.5 -69.5t-27.5 -115.5t36.5 -82t139.5 -58l125 -27q280 -56 280 -276q0 -106 -66 -226t-356 -127l-39 -73q92 -14 126 -55.5t34 -84.5q0 -104 -75.5 -143t-194.5 -39q-47 0 -129 14l20 109q53 -12 114 -12q62 0 93 15t31 56z" />
    <glyph glyph-name="Scaron" unicode="&#x160;" horiz-adv-x="1316" 
d="M1212 412q0 -92 -41 -182q-41 -89 -115 -148q-150 -119 -407 -119q-377 0 -511 235q-50 87 -54 218h188q16 -152 106 -222t284 -69q266 0 328 180q35 100 11 187q-28 117 -192 149l-193 41q-360 77 -360 369q0 221 150 334q150 114 393 114q244 0 383 -111
q124 -102 145 -290l-180 -31q-20 137 -98 205t-248 67q-278 0 -334 -160q-16 -46 -16 -117t47 -125t172 -83l188 -41q278 -57 336 -249q18 -60 18 -152zM1231 1866l-291 -275h-178l-180 275h166l118 -162l197 162h168z" />
    <glyph glyph-name="scaron" unicode="&#x161;" horiz-adv-x="1069" 
d="M766 287q0 75 -34 109t-124 55l-119 26q-159 35 -227 103t-68 166q1 174 123 259t311 86t288 -78t116 -225l-164 -24q-16 92 -69 139t-184 47t-189 -49q-59 -49 -59 -115q1 -66 37 -103q36 -36 139 -58l125 -27q145 -29 213 -99q67 -71 67 -179t-38 -172
q-106 -177 -403 -179t-404 175q-38 65 -37 163h170q7 -196 276 -196q133 0 194 51q60 51 60 125zM1047 1503l-295 -289h-179l-178 289h164l119 -178l201 178h168z" />
    <glyph glyph-name="uni0162" unicode="&#x162;" horiz-adv-x="1230" 
d="M563 -244q0 64 -135 64h-41l96 180h-37l275 1294h-485l36 168h1155l-34 -168h-484l-272 -1294h-37l-55 -104q92 -14 126 -55.5t34 -84.5q0 -104 -76 -143t-195 -39q-47 0 -129 14l21 109q52 -12 114 -12q61 0 92 15t31 56z" />
    <glyph glyph-name="uni0163" unicode="&#x163;" horiz-adv-x="710" 
d="M422 -244q0 64 -135 64h-41l92 172q-158 45 -158 225q0 63 13 105l126 596h-165l28 141h166l62 289h178l-62 -289h281l-31 -141h-278q-138 -655 -138 -674q0 -119 119 -119q71 0 135 25l29 -138q-98 -35 -197 -35l-43 -81q92 -14 126 -55.5t34 -84.5q0 -104 -75.5 -143
t-194.5 -39q-47 0 -129 14l20 109q53 -12 114 -12q62 0 93 15t31 56z" />
    <glyph glyph-name="Tcaron" unicode="&#x164;" horiz-adv-x="1230" 
d="M909 1294l-272 -1294h-191l275 1294h-485l36 168h1155l-34 -168h-484zM1237 1866l-291 -275h-178l-180 275h166l118 -162l197 162h168z" />
    <glyph glyph-name="tcaron" unicode="&#x165;" horiz-adv-x="710" 
d="M434 -23q-117 0 -185.5 60.5t-68.5 179.5q0 63 13 105l126 596h-165l28 141h166l62 289h178l-62 -289h281l-31 -141h-278q-138 -655 -138 -674q0 -119 119 -119q73 0 135 22l29 -137q-92 -33 -209 -33zM666 1176l122 325h164l-155 -325h-131z" />
    <glyph glyph-name="Tbar" unicode="&#x166;" horiz-adv-x="1230" 
d="M303 795h311l107 499h-485l36 168h1155l-34 -168h-484l-104 -499h311l-35 -160h-311l-133 -635h-191l136 635h-312z" />
    <glyph glyph-name="tbar" unicode="&#x167;" horiz-adv-x="710" 
d="M434 -23q-117 0 -185.5 60.5t-68.5 179.5q0 63 13 105l34 167h-166l31 142h166l61 287h-165l28 141h166l62 289h178l-62 -289h281l-31 -141h-278l-62 -287h281l-31 -142h-278q-48 -226 -48 -245q0 -119 119 -119q73 0 135 22l29 -137q-92 -33 -209 -33z" />
    <glyph glyph-name="Utilde" unicode="&#x168;" horiz-adv-x="1396" 
d="M170 384q0 95 23 204l184 874h188l-186 -882q-18 -92 -19 -166q0 -287 312 -287q276 0 378 255q34 85 58 198l188 882h189l-187 -882q-69 -324 -219 -471q-149 -146 -406 -146q-365 0 -467 243q-36 83 -36 178zM810 1837q87 -1 171 -53q33 -20 61 -36t70 -17q41 -1 64 21
t32 81h140q-16 -125 -72 -183t-141 -58q-86 0 -171 54q-32 19 -61 36q-29 18 -69 18q-81 1 -99 -105h-137q14 125 70 183t142 59z" />
    <glyph glyph-name="utilde" unicode="&#x169;" horiz-adv-x="1148" 
d="M418 -33q-150 0 -224 83t-73 216q0 48 14 123l144 670h178l-140 -658q-10 -51 -10 -102q0 -178 165 -178t316 183q43 52 60 132l133 623h178l-225 -1059h-174l35 162q-173 -195 -377 -195zM610 1479q65 1 149 -53q33 -20 61 -38q28 -16 68 -16t64 23t33 78h131
q-27 -240 -225 -240q-66 0 -150 54q-31 19 -59 37t-66 17q-79 0 -98 -102h-133q27 240 225 240z" />
    <glyph glyph-name="Umacron" unicode="&#x16a;" horiz-adv-x="1396" 
d="M170 384q0 95 23 204l184 874h188l-186 -882q-18 -92 -19 -166q0 -287 312 -287q276 0 378 255q34 85 58 198l188 882h189l-187 -882q-69 -324 -219 -471q-149 -146 -406 -146q-365 0 -467 243q-36 83 -36 178zM682 1780h598l-33 -152h-598z" />
    <glyph glyph-name="umacron" unicode="&#x16b;" horiz-adv-x="1148" 
d="M418 -33q-150 0 -224 83t-73 216q0 48 14 123l144 670h178l-140 -658q-10 -51 -10 -102q0 -178 165 -178t316 183q43 52 60 132l133 623h178l-225 -1059h-174l35 162q-173 -195 -377 -195zM498 1419h534l-31 -145h-534z" />
    <glyph glyph-name="Ubreve" unicode="&#x16c;" horiz-adv-x="1396" 
d="M170 384q0 95 23 204l184 874h188l-186 -882q-18 -92 -19 -166q0 -287 312 -287q276 0 378 255q34 85 58 198l188 882h189l-187 -882q-69 -324 -219 -471q-149 -146 -406 -146q-365 0 -467 243q-36 83 -36 178zM1274 1868q-52 -285 -310 -285q-128 0 -194 55t-65 160
q0 29 6 70h137q-6 -26 -6 -66t32 -69t87 -29q147 0 174 164h139z" />
    <glyph glyph-name="ubreve" unicode="&#x16d;" horiz-adv-x="1148" 
d="M418 -33q-150 0 -224 83t-73 216q0 48 14 123l144 670h178l-140 -658q-10 -51 -10 -102q0 -178 165 -178t316 183q43 52 60 132l133 623h178l-225 -1059h-174l35 162q-173 -195 -377 -195zM1061 1493q-51 -285 -311 -285q-124 0 -190 58t-64 157q0 33 6 70h135
q-6 -29 -6 -47q0 -59 33 -89t86 -30q143 0 174 166h137z" />
    <glyph glyph-name="Uring" unicode="&#x16e;" horiz-adv-x="1396" 
d="M170 384q0 95 23 204l184 874h188l-186 -882q-18 -92 -19 -166q0 -287 312 -287q276 0 378 255q34 85 58 198l188 882h189l-187 -882q-69 -324 -219 -471q-149 -146 -406 -146q-365 0 -467 243q-36 83 -36 178zM936 1829q-100 0 -100 -109t100 -106q100 0 100 108
t-100 107zM723 1719q0 105 63 159t150 53q144 0 198 -120q17 -40 17 -93q0 -102 -61 -156q-61 -53 -151 -54q-89 -2 -153 52t-63 159z" />
    <glyph glyph-name="uring" unicode="&#x16f;" horiz-adv-x="1148" 
d="M418 -33q-150 0 -224 83t-73 216q0 48 14 123l144 670h178l-140 -658q-10 -51 -10 -102q0 -178 165 -178t316 183q43 52 60 132l133 623h178l-225 -1059h-174l35 162q-173 -195 -377 -195zM836 1412q0 106 -99 106q-43 0 -69 -26t-27 -80q0 -54 27 -80t69 -25
q99 -1 99 105zM530 1411q0 96 60 153q60 56 148 56q87 0 149 -55q61 -55 61 -155q0 -99 -60 -150q-60 -52 -151 -54q-139 0 -189 115q-18 39 -18 90z" />
    <glyph glyph-name="Uhungarumlaut" unicode="&#x170;" horiz-adv-x="1396" 
d="M170 384q0 95 23 204l184 874h188l-186 -882q-18 -92 -19 -166q0 -287 312 -287q276 0 378 255q34 85 58 198l188 882h189l-187 -882q-69 -324 -219 -471q-149 -146 -406 -146q-365 0 -467 243q-36 83 -36 178zM1008 1583l268 277h215l-313 -277h-170zM633 1583l270 277
h215l-313 -277h-172z" />
    <glyph glyph-name="uhungarumlaut" unicode="&#x171;" horiz-adv-x="1148" 
d="M418 -33q-150 0 -224 83t-73 216q0 48 14 123l144 670h178l-140 -658q-10 -51 -10 -102q0 -178 165 -178t316 183q43 52 60 132l133 623h178l-225 -1059h-174l35 162q-173 -195 -377 -195zM809 1210l274 291h209l-317 -291h-166zM446 1210l277 291h209l-320 -291h-166z
" />
    <glyph glyph-name="Uogonek" unicode="&#x172;" horiz-adv-x="1396" 
d="M565 -233q0 108 115 196h-18q-351 0 -421.5 163t-70.5 258t23 204l184 874h188l-186 -882q-18 -92 -19 -166q0 -287 312 -287q277 0 344 170t92 283l188 882h189l-187 -882q-53 -246 -149 -387.5t-252 -194.5q-168 -101 -168 -186q0 -66 80 -66q27 0 55 4l-26 -125
q-36 -6 -96 -6t-118.5 38t-58.5 110z" />
    <glyph glyph-name="uogonek" unicode="&#x173;" horiz-adv-x="1148" 
d="M766 -182q0 -64 80 -64q25 0 53 4l-27 -123q-32 -4 -92 -4t-115 35t-55 104t41 123t127 107h-18l35 162q-172 -195 -377 -195q-150 0 -223.5 83t-73.5 216q0 46 14 123l144 670h178l-140 -658q-10 -51 -10 -102q0 -178 165 -178t262 117.5t114 197.5l133 623h178
l-225 -1059q-78 -49 -123 -92t-45 -90z" />
    <glyph glyph-name="Wcircumflex" unicode="&#x174;" horiz-adv-x="1906" 
d="M1401 0h-197l-67 1223l-580 -1223h-190l-109 1462h209l51 -1202l569 1196h201l66 -1196l557 1202h207zM891 1583l291 277h178l180 -277h-166l-117 162l-198 -162h-168z" />
    <glyph glyph-name="wcircumflex" unicode="&#x175;" horiz-adv-x="1501" 
d="M242 0l-84 1059h192l31 -844l422 838h178l61 -838l394 844h190l-532 -1059h-189l-59 844l-418 -844h-186zM573 1210l293 291h178l179 -291h-164l-117 181l-201 -181h-168z" />
    <glyph glyph-name="Ycircumflex" unicode="&#x176;" horiz-adv-x="1255" 
d="M262 1462h203l250 -676l534 676h213l-680 -841l-131 -621h-188l129 621zM545 1583l291 277h178l180 -277h-166l-117 162l-198 -162h-168z" />
    <glyph glyph-name="ycircumflex" unicode="&#x177;" horiz-adv-x="1071" 
d="M16 -227q60 -21 116 -21t94 36q22 19 42 50t49 76l70 115l-231 1030h196l162 -832l477 832h207l-709 -1159q-45 -72 -81 -127t-77 -93q-79 -76 -188 -77q-108 0 -178 32zM352 1210l293 291h178l178 -291h-163l-117 181l-201 -181h-168z" />
    <glyph glyph-name="Ydieresis" unicode="&#x178;" horiz-adv-x="1255" 
d="M262 1462h203l250 -676l534 676h213l-680 -841l-131 -621h-188l129 621zM961 1618l45 209h188l-45 -209h-188zM592 1618l45 209h186l-45 -209h-186z" />
    <glyph glyph-name="Zacute" unicode="&#x179;" horiz-adv-x="1200" 
d="M1059 0h-1067l31 145l1062 1151h-811l35 166h1049l-31 -147l-1061 -1147h854zM678 1583l289 277h231l-336 -277h-184z" />
    <glyph glyph-name="zacute" unicode="&#x17a;" horiz-adv-x="956" 
d="M838 0h-852l28 133l768 782h-596l29 144h825l-28 -133l-766 -783h641zM502 1210l286 291h228l-328 -291h-186z" />
    <glyph glyph-name="Zdotaccent" unicode="&#x17b;" horiz-adv-x="1200" 
d="M1059 0h-1067l31 145l1062 1151h-811l35 166h1049l-31 -147l-1061 -1147h854zM729 1616l47 215h191l-45 -215h-193z" />
    <glyph glyph-name="zdotaccent" unicode="&#x17c;" horiz-adv-x="956" 
d="M838 0h-852l28 133l768 782h-596l29 144h825l-28 -133l-766 -783h641zM543 1257l45 207h182l-43 -207h-184z" />
    <glyph glyph-name="Zcaron" unicode="&#x17d;" horiz-adv-x="1200" 
d="M1059 0h-1067l31 145l1062 1151h-811l35 166h1049l-31 -147l-1061 -1147h854zM1229 1866l-291 -275h-178l-180 275h165l119 -162l197 162h168z" />
    <glyph glyph-name="zcaron" unicode="&#x17e;" horiz-adv-x="956" 
d="M838 0h-852l28 133l768 782h-596l29 144h825l-28 -133l-766 -783h641zM1016 1503l-295 -289h-178l-178 289h163l119 -178l201 178h168z" />
    <glyph glyph-name="longs" unicode="&#x17f;" horiz-adv-x="464" 
d="M670 1333q-74 0 -116 -43t-60 -131l-246 -1159h-180l245 1155q37 176 125 250t232 74q98 0 184 -37l-51 -133q-58 24 -133 24z" />
    <glyph glyph-name="florin" unicode="&#x192;" 
d="M1051 1305q-72 0 -115 -35t-74 -123l-41 -117h264l-41 -149h-276l-340 -955q-59 -160 -136 -222t-199 -62t-210 43l56 135q73 -31 142 -31t106.5 36t66.5 122l332 934h-162l41 149h172l49 137q57 156 144.5 221.5t207.5 65.5t209 -43l-55 -135q-69 29 -141 29z" />
    <glyph glyph-name="Scommaaccent" unicode="&#x218;" horiz-adv-x="1316" 
d="M1212 412q0 -92 -41 -182q-41 -89 -115 -148q-150 -119 -407 -119q-377 0 -511 235q-50 87 -54 218h188q16 -152 106 -222t284 -69q266 0 328 180q35 100 11 187q-28 117 -192 149l-193 41q-360 77 -360 369q0 221 150 334q150 114 393 114q244 0 383 -111
q124 -102 145 -290l-180 -31q-20 137 -98 205t-248 67q-278 0 -334 -160q-16 -46 -16 -117t47 -125t172 -83l188 -41q278 -57 336 -249q18 -60 18 -152zM287 -444l219 307h215l-264 -307h-170z" />
    <glyph glyph-name="scommaaccent" unicode="&#x219;" horiz-adv-x="1069" 
d="M766 287q0 75 -34 109t-124 55l-119 26q-159 35 -227 103t-68 166q1 174 123 259t311 86t288 -78t116 -225l-164 -24q-16 92 -69 139t-184 47t-189 -49q-59 -49 -59 -115q1 -66 37 -103q36 -36 139 -58l125 -27q145 -29 213 -99q67 -71 67 -179t-38 -172
q-106 -177 -403 -179t-404 175q-38 65 -37 163h170q7 -196 276 -196q133 0 194 51q60 51 60 125zM172 -436l211 299h207l-254 -299h-164z" />
    <glyph glyph-name="uni021A" unicode="&#x21a;" horiz-adv-x="1230" 
d="M909 1294l-272 -1294h-191l275 1294h-485l36 168h1155l-34 -168h-484zM190 -444l220 307h215l-265 -307h-170z" />
    <glyph glyph-name="uni021B" unicode="&#x21b;" horiz-adv-x="710" 
d="M180 217q0 63 13 105l126 596h-165l28 141h166l62 289h178l-62 -289h281l-31 -141h-278l-127 -603q-10 -48 -11 -71q0 -119 119 -119q73 0 135 22l29 -137q-88 -31 -207 -32q-120 0 -188 60t-68 179zM33 -436l211 299h207l-254 -299h-164z" />
    <glyph glyph-name="dotlessj" unicode="&#x237;" horiz-adv-x="462" 
d="M-100 -381q-108 0 -203 41l57 137q65 -26 136 -26t109 43t56 129l238 1116h178l-233 -1100q-40 -172 -112.5 -256t-225.5 -84z" />
    <glyph glyph-name="apostrophe" unicode="&#x2bc;" horiz-adv-x="542" 
d="M197 1032l147 430h188l-198 -430h-137z" />
    <glyph glyph-name="circumflex" unicode="&#x2c6;" horiz-adv-x="800" 
d="M231 1210l293 291h178l179 -291h-164l-117 181l-201 -181h-168z" />
    <glyph glyph-name="caron" unicode="&#x2c7;" horiz-adv-x="800" 
d="M924 1503l-295 -289h-178l-179 289h164l119 -178l201 178h168z" />
    <glyph glyph-name="uni02C9" unicode="&#x2c9;" horiz-adv-x="800" 
d="M324 1419h534l-31 -145h-534z" />
    <glyph glyph-name="breve" unicode="&#x2d8;" horiz-adv-x="800" 
d="M465 1446q0 -119 125 -119q137 0 168 166h137q-51 -285 -311 -285q-124 0 -189 57.5t-65 157.5q0 33 6 70h135q-6 -29 -6 -47z" />
    <glyph glyph-name="dotaccent" unicode="&#x2d9;" horiz-adv-x="800" 
d="M455 1257l45 207h182l-43 -207h-184z" />
    <glyph glyph-name="ring" unicode="&#x2da;" horiz-adv-x="800" 
d="M563 1307q99 -1 99 105t-99 106q-43 0 -69.5 -26t-26.5 -80t26.5 -79.5t69.5 -25.5zM356 1411q0 51 17.5 90t46.5 65.5t65.5 40t77.5 13.5t79 -13.5t67.5 -40t47 -65.5t17.5 -90t-17.5 -90t-47 -64.5t-67.5 -38t-79 -12.5t-77.5 12.5t-65.5 38t-46.5 64.5t-17.5 90z" />
    <glyph glyph-name="ogonek" unicode="&#x2db;" horiz-adv-x="800" 
d="M449 -182q0 -64 79 -64q24 0 54 4l-27 -123q-32 -4 -92 -4t-115 35t-55 104t41 123t127 107h155q-78 -49 -122.5 -92t-44.5 -90z" />
    <glyph glyph-name="tilde" unicode="&#x2dc;" horiz-adv-x="800" 
d="M711 1372q40 0 64 22.5t34 78.5h131q-27 -240 -225 -240q-64 0 -122 37t-85.5 54t-67.5 17q-79 0 -98 -102h-133q27 240 225 240q66 0 123 -37t85.5 -53.5t68.5 -16.5z" />
    <glyph glyph-name="hungarumlaut" unicode="&#x2dd;" horiz-adv-x="800" 
d="M547 1210l274 291h209l-317 -291h-166zM184 1210l277 291h209l-320 -291h-166z" />
    <glyph glyph-name="tonos" unicode="&#x384;" horiz-adv-x="800" 
d="M434 1526h201l-256 -316h-160z" />
    <glyph glyph-name="dieresistonos" unicode="&#x385;" horiz-adv-x="800" 
d="M633 1268l43 184h158l-41 -184h-160zM307 1210l168 316h176l-209 -316h-135zM117 1268l43 184h157l-41 -184h-159z" />
    <glyph glyph-name="Alphatonos" unicode="&#x386;" horiz-adv-x="1388" 
d="M492 571h512l-115 678zM1032 1462l258 -1462h-194l-70 408h-625l-239 -408h-205l879 1462h196zM416 1462h196l-235 -315h-154z" />
    <glyph glyph-name="Epsilontonos" unicode="&#x388;" horiz-adv-x="1507" 
d="M844 1296l-99 -458h717l-35 -168h-716l-107 -504h799l-62 -166h-960l309 1462h946l-34 -166h-758zM354 1462h197l-236 -315h-153z" />
    <glyph glyph-name="Etatonos" unicode="&#x389;" horiz-adv-x="1730" 
d="M1307 0l141 668h-737l-142 -668h-188l309 1462h189l-131 -618h737l131 618h188l-309 -1462h-188zM354 1462h197l-236 -315h-153z" />
    <glyph glyph-name="Iotatonos" unicode="&#x38a;" horiz-adv-x="804" 
d="M365 0l309 1462h188l-309 -1462h-188zM354 1462h197l-236 -315h-153z" />
    <glyph glyph-name="Omicrontonos" unicode="&#x38c;" horiz-adv-x="1736" 
d="M1106 1335q-120 -1 -228 -67q-217 -132 -298 -416q-39 -136 -39 -254q0 -223 101 -347t292 -124q143 0 253 67q215 131 298 416q39 135 39 255t-26 203t-75 142t-123 92t-194 33zM1143 1499q254 0 416 -165q161 -165 161 -441q0 -172 -52 -339t-152 -298t-250 -212
t-342 -81q-260 0 -420 164t-160 442q0 172 53 339t155 298t252 212q149 81 339 81zM346 1462h197l-236 -315h-153z" />
    <glyph glyph-name="Upsilontonos" unicode="&#x38e;" horiz-adv-x="1624" 
d="M631 1462h203l249 -676l535 676h213l-680 -841l-131 -621h-189l130 621zM356 1462h197l-236 -315h-153z" />
    <glyph glyph-name="Omegatonos" unicode="&#x38f;" horiz-adv-x="1662" 
d="M1450 944q0 186 -87 292t-247 105q-294 0 -448 -234q-136 -204 -136 -505q0 -131 54 -252t143 -196l-31 -154h-524l33 160h317q-72 74 -126 192t-54 274t51 316q107 335 396 482q145 75 333 75q232 0 377 -148q144 -148 144 -397q0 -405 -252 -660q-74 -75 -156 -134h330
l-60 -160h-524l31 154q216 128 326 334t110 456zM324 1462h196l-235 -315h-154z" />
    <glyph glyph-name="iotadieresistonos" unicode="&#x390;" horiz-adv-x="565" 
d="M291 212q1 -87 93 -87q54 0 108 12l18 -135q-68 -23 -185 -24q-118 -2 -167 56t-49 126t13 124t25 115l140 660h178l-164 -766q-10 -45 -10 -81zM616 1268l43 184h158l-41 -184h-160zM291 1210l168 316h176l-209 -316h-135zM100 1268l43 184h158l-41 -184h-160z" />
    <glyph glyph-name="Alpha" unicode="&#x391;" horiz-adv-x="1380" 
d="M483 571h512l-114 678zM1024 1462l258 -1462h-195l-69 408h-625l-239 -408h-205l878 1462h197z" />
    <glyph glyph-name="Beta" unicode="&#x392;" horiz-adv-x="1294" 
d="M633 156q223 0 315 76t92 229q0 96 -69 160q-70 63 -221 63h-334l-113 -528h330zM772 844q251 0 332 139q31 53 31 115q0 110 -65 159t-218 50h-305l-98 -463h323zM1233 458q0 -329 -339 -425q-118 -33 -280 -33h-528l309 1462h482q240 0 356 -105q92 -83 92 -225
q0 -274 -299 -370q102 -45 154 -124t53 -180z" />
    <glyph glyph-name="Gamma" unicode="&#x393;" horiz-adv-x="1077" 
d="M395 1462h889l-37 -166h-698l-275 -1296h-188z" />
    <glyph glyph-name="uni0394" unicode="&#x394;" horiz-adv-x="1349" 
d="M240 166h798l-166 1085zM815 1462h191l245 -1462h-1302z" />
    <glyph glyph-name="Epsilon" unicode="&#x395;" horiz-adv-x="1216" 
d="M551 1296l-98 -458h716l-34 -168h-717l-107 -504h799l-61 -166h-961l309 1462h946l-34 -166h-758z" />
    <glyph glyph-name="Zeta" unicode="&#x396;" horiz-adv-x="1200" 
d="M1059 0h-1067l31 145l1062 1151h-811l35 166h1049l-31 -147l-1061 -1147h854z" />
    <glyph glyph-name="Eta" unicode="&#x397;" horiz-adv-x="1439" 
d="M1014 0l141 668h-737l-142 -668h-188l309 1462h189l-131 -618h737l131 618h188l-309 -1462h-188z" />
    <glyph glyph-name="Theta" unicode="&#x398;" horiz-adv-x="1566" 
d="M938 1335q-120 0 -230 -66.5t-223.5 -230.5t-113.5 -458q0 -205 101.5 -329t291.5 -124q143 0 252.5 66.5t223.5 230t114 461.5q0 205 -102 327.5t-314 122.5zM973 1499q259 0 419 -165.5t160 -440.5q0 -172 -52 -339t-153.5 -298t-251 -212t-341.5 -81q-260 0 -421 165
t-161 441q0 172 53.5 339t156.5 298t252 212t339 81zM1180 674h-654l35 164h651z" />
    <glyph glyph-name="Iota" unicode="&#x399;" horiz-adv-x="512" 
d="M88 0l309 1462h189l-310 -1462h-188z" />
    <glyph glyph-name="Kappa" unicode="&#x39a;" horiz-adv-x="1331" 
d="M696 793l-305 -248l-115 -545h-188l309 1462h189l-146 -690l826 690h221l-639 -557l383 -905h-209z" />
    <glyph glyph-name="Lambda" unicode="&#x39b;" horiz-adv-x="1355" 
d="M817 1462h189l254 -1462h-201l-193 1219l-710 -1219h-207z" />
    <glyph glyph-name="Mu" unicode="&#x39c;" horiz-adv-x="1732" 
d="M397 1462h228l211 -1237l737 1237h233l-309 -1462h-174l244 1153l-703 -1153h-153l-207 1149l-244 -1149h-172z" />
    <glyph glyph-name="Nu" unicode="&#x39d;" horiz-adv-x="1433" 
d="M1024 0l-508 1161l-246 -1161h-184l309 1462h178l504 -1161l246 1161h184l-309 -1462h-174z" />
    <glyph glyph-name="Xi" unicode="&#x39e;" horiz-adv-x="1134" 
d="M1024 168l-61 -168h-965l35 168h991zM195 672l34 166h865l-35 -166h-864zM283 1294l34 168h947l-35 -168h-946z" />
    <glyph glyph-name="Omicron" unicode="&#x39f;" horiz-adv-x="1566" 
d="M938 1335q-120 -1 -230 -67q-218 -132 -298 -416q-39 -136 -39 -254q0 -223 101 -347t292 -124q143 0 253 67q215 131 298 416q39 135 39 255t-26 203t-75 142t-123 92q-72 33 -192 33zM973 1499q254 0 416 -165q161 -165 161 -441q0 -172 -52 -339t-152 -298t-250 -212
t-342 -81q-260 0 -420 164t-160 442q0 172 53 339t155 298t252 212q149 81 339 81z" />
    <glyph glyph-name="Pi" unicode="&#x3a0;" horiz-adv-x="1411" 
d="M1272 1296h-713l-272 -1296h-189l310 1462h1087l-309 -1462h-189z" />
    <glyph glyph-name="Rho" unicode="&#x3a1;" horiz-adv-x="1282" 
d="M723 727q211 0 311 74q119 86 119 282q0 95 -70 157t-239 63h-295l-123 -576h297zM1341 1090q0 -523 -639 -523h-309l-121 -567h-186l309 1462h479q241 0 366 -123q101 -99 101 -249z" />
    <glyph glyph-name="Sigma" unicode="&#x3a3;" horiz-adv-x="1177" 
d="M256 168h860l-61 -168h-1061l29 145l600 609l-347 563l29 145h1028l-35 -168h-809l340 -561z" />
    <glyph glyph-name="Tau" unicode="&#x3a4;" horiz-adv-x="1230" 
d="M909 1294l-272 -1294h-191l275 1294h-485l36 168h1155l-34 -168h-484z" />
    <glyph glyph-name="Upsilon" unicode="&#x3a5;" horiz-adv-x="1255" 
d="M262 1462h203l250 -676l534 676h213l-680 -841l-131 -621h-188l129 621z" />
    <glyph glyph-name="Phi" unicode="&#x3a6;" horiz-adv-x="1693" 
d="M375 666q0 -146 100 -229t273 -101l188 893q-129 -8 -233 -46q-213 -79 -289 -272q-38 -99 -39 -245zM1495 898q0 146 -99 230t-274 101l-190 -895q129 8 233 46q330 121 330 518zM182 710q0 142 62 269q120 249 420 348q143 47 307 55l33 162h186l-37 -168
q376 -39 494 -295q41 -88 41 -228t-62 -267q-124 -252 -421 -348q-144 -47 -306 -56l-39 -182h-184l39 188q-235 25 -380 147q-71 60 -112 147q-41 86 -41 228z" />
    <glyph glyph-name="Chi" unicode="&#x3a7;" horiz-adv-x="1306" 
d="M844 760l368 -760h-211l-294 625l-543 -625h-215l678 776l-332 686h209l256 -557l489 557h213z" />
    <glyph glyph-name="Psi" unicode="&#x3a8;" horiz-adv-x="1695" 
d="M432 881q0 -160 87 -238t274 -90l192 909h189l-193 -909q217 13 349.5 129t191.5 379l88 401h188l-88 -407q-72 -337 -257 -490.5t-507 -169.5l-82 -395h-188l84 399q-360 26 -436 184.5t-76 258.5t20 202l88 418h187l-90 -413q-21 -99 -21 -168z" />
    <glyph glyph-name="Omega" unicode="&#x3a9;" horiz-adv-x="1521" 
d="M1309 944q0 186 -87 291.5t-247 105.5q-294 0 -439 -220t-145 -519q0 -131 53.5 -252t143.5 -196l-31 -154h-524l33 160h317q-72 74 -126 192t-54 274t51 316t150.5 284t245 198.5t333.5 74.5q233 0 376.5 -147.5t143.5 -397.5q0 -403 -162.5 -569t-244.5 -225h329
l-59 -160h-524l30 154q215 129 326 334.5t111 455.5z" />
    <glyph glyph-name="Iotadieresis" unicode="&#x3aa;" horiz-adv-x="512" 
d="M88 0l309 1462h189l-310 -1462h-188zM596 1618l45 209h188l-45 -209h-188zM227 1618l45 209h187l-45 -209h-187z" />
    <glyph glyph-name="Upsilondieresis" unicode="&#x3ab;" horiz-adv-x="1255" 
d="M262 1462h203l250 -676l534 676h213l-680 -841l-131 -621h-188l129 621zM961 1618l45 209h188l-45 -209h-188zM592 1618l45 209h186l-45 -209h-186z" />
    <glyph glyph-name="alphatonos" unicode="&#x3ac;" horiz-adv-x="1388" 
d="M311 395q-1 -280 215 -280q106 0 203 101q96 101 209 298q-21 227 -76 329t-184 101q-94 0 -164 -51q-136 -99 -181 -308q-22 -97 -22 -190zM1228 117q43 0 81 10l18 -129q-47 -28 -153 -28q-62 0 -109 46q-47 47 -66 150l-26 160q-124 -198 -227 -277q-103 -80 -266 -81
t-259 112t-96 303q0 290 151 500q151 211 414 209q160 -2 248 -100t117 -302l188 369h178l-321 -570l30 -200q14 -90 34 -131t64 -41zM823 1526h201l-256 -316h-160z" />
    <glyph glyph-name="epsilontonos" unicode="&#x3ad;" horiz-adv-x="1089" 
d="M756 1526h200l-256 -316h-159zM541 113q145 0 209 51q63 51 86 143h168q-70 -340 -477 -340q-226 0 -332 86q-107 86 -107 211t67 198t183 101q-63 29 -98 87t-35 122q0 221 247 294q88 26 200 26q292 0 380 -180q27 -54 35 -115l-158 -27q-29 180 -237 180t-269 -91
q-23 -35 -23 -93t42 -104q41 -46 141 -46h203l-23 -139h-204q-196 0 -250 -98q-20 -37 -21 -92q0 -174 273 -174z" />
    <glyph glyph-name="etatonos" unicode="&#x3ae;" horiz-adv-x="1169" 
d="M815 1092q147 0 225 -80t78 -224q0 -55 -12 -116l-229 -1069h-179l224 1046q14 63 14 103q0 186 -174 186q-117 0 -236 -86q-55 -45 -95 -96t-56 -129l-133 -627h-179l224 1059h176l-35 -162q173 195 387 195zM860 1526h201l-256 -316h-160z" />
    <glyph glyph-name="iotatonos" unicode="&#x3af;" horiz-adv-x="565" 
d="M291 212q1 -87 93 -87q54 0 108 12l18 -135q-68 -23 -185 -24q-118 -2 -167 56t-49 126t13 124t25 115l140 660h178l-164 -766q-10 -45 -10 -81zM496 1526h200l-256 -316h-159z" />
    <glyph glyph-name="upsilondieresistonos" unicode="&#x3b0;" horiz-adv-x="1134" 
d="M303 309q0 -190 215 -190q159 0 231 92q54 71 103 283l121 565h178l-129 -610q-59 -268 -170 -375t-316 -107q-411 0 -411 326q0 82 22 184l123 582h179l-125 -588q-21 -108 -21 -162zM913 1268l43 184h158l-41 -184h-160zM588 1210l168 316h176l-209 -316h-135z
M397 1268l43 184h158l-41 -184h-160z" />
    <glyph glyph-name="alpha" unicode="&#x3b1;" horiz-adv-x="1388" 
d="M311 395q-1 -280 215 -280q106 0 202.5 101t209.5 298q-21 227 -74.5 328.5t-185.5 101.5q-94 0 -164 -51t-136.5 -169t-66.5 -329zM1327 -2q-49 -29 -153 -29q-62 0 -109 47t-66 150l-26 160q-124 -198 -229.5 -278.5t-265.5 -80.5q-161 0 -257 113t-96 303
q0 290 150.5 501.5t414.5 207.5q160 -2 248 -99.5t117 -302.5l188 369h178l-321 -570l30 -200q14 -90 35 -131t64 -41t80 10z" />
    <glyph glyph-name="beta" unicode="&#x3b2;" horiz-adv-x="1196" 
d="M948 432q0 138 -70.5 205.5t-199.5 67.5h-105l31 143h88q120 0 210.5 80t90.5 217q0 90 -59.5 139t-143.5 49q-152 0 -225.5 -75.5t-103.5 -221.5l-123 -575q-10 -41 -10 -84q0 -153 107.5 -204.5t193.5 -51.5q160 0 239.5 86.5t79.5 224.5zM1126 468q0 -223 -128.5 -358
t-354.5 -135q-117 0 -213 49.5t-154 145.5l-120 -567h-174l309 1452q45 209 168 316.5t340 107.5q155 0 263.5 -85.5t108.5 -230.5t-77.5 -236t-210.5 -134q109 -33 176 -123t67 -202z" />
    <glyph glyph-name="gamma" unicode="&#x3b3;" horiz-adv-x="1069" 
d="M272 -395l90 422l-217 1032h195l152 -834l489 834h209l-649 -1032l-88 -422h-181z" />
    <glyph glyph-name="delta" unicode="&#x3b4;" horiz-adv-x="1187" 
d="M305 401q0 -125 72 -205.5t215 -80.5t241.5 103.5t98.5 291.5t-99.5 259t-148.5 101q-168 -37 -273.5 -163t-105.5 -306zM807 1339q-225 0 -225 -135q0 -60 53 -103.5t101 -74.5t106 -70q276 -188 276 -436q0 -247 -156.5 -400t-392.5 -153q-195 0 -322.5 118t-127.5 320
t125 348t329 210q-72 53 -115.5 105t-43.5 129q0 142 114.5 212t287.5 70t263 -78t107 -213l-152 -23q-37 174 -227 174z" />
    <glyph glyph-name="epsilon" unicode="&#x3b5;" horiz-adv-x="1089" 
d="M268 287q0 -174 273 -174q145 0 208.5 51t86.5 143h168q-70 -340 -477 -340q-226 0 -332.5 86t-106.5 211q0 239 250 299q-63 29 -98 87.5t-35 122.5q0 140 113 229.5t323 89.5t309 -80t117 -215l-158 -27q-29 180 -247 180q-281 0 -281 -176q0 -66 41 -112t141 -46h203
l-23 -139h-204q-196 0 -233.5 -67.5t-37.5 -122.5z" />
    <glyph glyph-name="zeta" unicode="&#x3b6;" horiz-adv-x="972" 
d="M731 -172q0 41 -29.5 72.5t-117.5 60.5l-123 41q-160 51 -244 143.5t-84 246.5t71.5 291.5t184.5 253.5t250 210t266 170h-522l31 145h786l-26 -131q-366 -216 -609 -436t-243 -485q0 -106 52 -165t163 -95l129 -44q113 -39 173 -95t60 -152q0 -164 -158 -281l-102 92
q92 77 92 158z" />
    <glyph glyph-name="eta" unicode="&#x3b7;" horiz-adv-x="1169" 
d="M815 1092q147 0 225 -80t78 -224q0 -55 -12 -116l-229 -1069h-179l224 1046q14 63 14 103q0 186 -174 186q-120 0 -236 -86q-55 -45 -95 -96t-56 -129l-133 -627h-179l224 1059h176l-35 -162q173 195 387 195z" />
    <glyph glyph-name="theta" unicode="&#x3b8;" horiz-adv-x="1216" 
d="M1044 973q0 182 -56 269t-189 87q-168 0 -280.5 -143.5t-166.5 -386.5h680q12 129 12 174zM315 467q0 -174 58.5 -264t185.5 -90q265 0 346.5 207.5t104.5 330.5h-682q-13 -106 -13 -184zM811 1479q193 0 302.5 -126t109.5 -378q0 -379 -130.5 -629t-274.5 -315.5
t-271 -65.5q-193 0 -301.5 129t-108.5 373q0 362 130.5 619t274.5 325t269 68z" />
    <glyph glyph-name="iota" unicode="&#x3b9;" horiz-adv-x="565" 
d="M109 160q0 68 13 124t25 115l140 660h178l-164 -766q-10 -45 -10 -81q0 -87 98 -87q49 0 103 12l18 -135q-73 -25 -188 -25t-164 57.5t-49 125.5z" />
    <glyph glyph-name="kappa" unicode="&#x3ba;" horiz-adv-x="1073" 
d="M63 0l224 1059h176l-105 -492l594 492h219l-460 -393l278 -666h-194l-226 567l-254 -205l-75 -362h-177z" />
    <glyph glyph-name="lambda" unicode="&#x3bb;" horiz-adv-x="1071" 
d="M523 1483q102 0 163.5 -61.5t87.5 -202.5l227 -1219h-198l-129 868l-520 -868h-201l678 1081l-17 103q-16 82 -49 114.5t-91 32.5t-122 -18l-22 139q91 31 193 31z" />
    <glyph glyph-name="uni03BC" unicode="&#x3bc;" horiz-adv-x="1153" 
d="M311 307q0 -186 165 -186t316 184q44 55 60 131l133 623h178l-225 -1059h-174l35 162q-162 -193 -353 -193q-141 0 -198 90l-96 -456h-181l312 1456h178l-139 -658q-10 -51 -11 -94z" />
    <glyph glyph-name="nu" unicode="&#x3bd;" horiz-adv-x="1067" 
d="M354 0l-198 1059h198l133 -860l504 860h205l-649 -1059h-193z" />
    <glyph glyph-name="xi" unicode="&#x3be;" horiz-adv-x="1028" 
d="M287 1098q0 173 124.5 287t344.5 114q288 0 347.5 -122t67.5 -189l-159 -27q-22 97 -79.5 146t-182.5 49q-192 0 -239.5 -92t-47.5 -180t53 -155t170 -67h213l-27 -143h-210q-168 0 -267.5 -70.5t-99.5 -226.5q0 -115 55.5 -169t165.5 -89l184 -58q92 -29 158 -87
t66 -157t-47.5 -167t-112.5 -117l-100 92q90 80 90 158q0 41 -30 75t-120 62l-182 58q-137 41 -223 131t-86 241q0 265 134 334.5t208 85.5q-168 82 -168 283z" />
    <glyph glyph-name="omicron" unicode="&#x3bf;" horiz-adv-x="1220" 
d="M723 944q-181 0 -295.5 -147t-114.5 -379q0 -137 65.5 -220t194.5 -83q181 0 295.5 146t114.5 380q0 137 -65.5 220t-194.5 83zM722 1092q208 0 327.5 -124t119.5 -302q0 -332 -172 -515.5t-438 -183.5q-192 0 -312 124t-120 302q0 177 47 302.5t130 213.5t194.5 135.5
t223.5 47.5z" />
    <glyph glyph-name="pi" unicode="&#x3c0;" horiz-adv-x="1232" 
d="M933 -27q-97 0 -142.5 50.5t-45.5 136.5q0 25 5.5 58.5t11.5 70.5t18 90l113 532h-377l-192 -911h-179l193 911h-209l31 148h1138l-30 -148h-199l-129 -606q-14 -68 -14 -100q0 -33 13 -58.5t56 -25.5t84 10l23 -133q-72 -25 -169 -25z" />
    <glyph glyph-name="rho" unicode="&#x3c1;" horiz-adv-x="1220" 
d="M606 115q76 0 148.5 36.5t149.5 141.5t77 330t-97.5 273t-175.5 48q-154 0 -235.5 -109.5t-120.5 -297.5l-16 -76q-10 -48 -10 -95q0 -46 18 -91.5t52 -81t84 -57t126 -21.5zM381.5 965q140.5 127 342.5 127t323.5 -123.5t121.5 -329.5q0 -286 -153 -479t-394 -193
q-242 0 -350 187l-116 -551h-179l203 950q61 285 201.5 412z" />
    <glyph glyph-name="sigma1" unicode="&#x3c2;" horiz-adv-x="1091" 
d="M741 -172q0 41 -30.5 76t-120.5 63l-164 51q-207 63 -253 188.5t-46 250.5t46 249.5t165 255t364 130.5q188 0 288.5 -100.5t113.5 -260.5l-174 -26q-21 173 -99.5 206t-150.5 33t-140.5 -36t-146.5 -139.5t-78 -330.5q0 -127 56.5 -189.5t152.5 -90.5l164 -49
q155 -48 188 -123.5t33 -149.5t-46 -141.5t-111 -116.5l-103 92q92 77 92 158z" />
    <glyph glyph-name="sigma" unicode="&#x3c3;" horiz-adv-x="1226" 
d="M778 913q-208 0 -337.5 -123.5t-129.5 -361.5q0 -143 67.5 -228t196.5 -85q169 0 269 126t100 335t-110 337h-56zM991 911q133 -138 133 -362q0 -123 -41 -234.5t-116.5 -188.5t-180 -118t-212.5 -41q-204 0 -325.5 120.5t-121.5 306.5q0 335 187.5 500t457.5 165h504
l-31 -148h-254z" />
    <glyph glyph-name="tau" unicode="&#x3c4;" horiz-adv-x="1015" 
d="M645 -27q-113 0 -218 37t-105 209q0 49 34 215l103 477h-334l29 148h925l-30 -148h-414l-125 -585q-8 -36 -8 -88t36.5 -84.5t119.5 -32.5t173 29l25 -138q-98 -39 -211 -39z" />
    <glyph glyph-name="upsilon" unicode="&#x3c5;" horiz-adv-x="1134" 
d="M303 309q0 -94 55.5 -142t149.5 -48t149.5 22.5t91 69.5t58 116.5t45.5 166.5l121 565h178l-129 -610q-59 -267 -169 -374.5t-317 -107.5q-411 0 -411 326q0 82 22 184l123 582h179l-125 -588q-21 -108 -21 -162z" />
    <glyph glyph-name="phi" unicode="&#x3c6;" horiz-adv-x="1554" 
d="M1313 586q0 146 -86.5 246t-233.5 112l-176 -833q229 12 362.5 135t133.5 340zM311 471q0 -154 89 -251t243 -103l176 831q-250 -8 -379 -139t-129 -338zM125 481q0 125 55.5 243t211.5 245t519 123q275 -4 431.5 -145.5t156.5 -358.5q0 -281 -195 -446t-518 -173
l-77 -366h-174l79 372q-221 20 -355 152t-134 354z" />
    <glyph glyph-name="chi" unicode="&#x3c7;" horiz-adv-x="1071" 
d="M869 -420q-112 0 -159.5 56t-91.5 198l-110 391l-465 -622h-195l596 790l-112 400q-23 78 -52.5 113.5t-76.5 35.5t-92 -18l-25 135q72 33 142 33q120 0 172 -60.5t87 -183.5l86 -324l402 535h201l-539 -699l137 -460q27 -94 51.5 -132t70.5 -38q45 0 93 16l25 -135
q-83 -31 -145 -31z" />
    <glyph glyph-name="psi" unicode="&#x3c8;" horiz-adv-x="1591" 
d="M215.5 161.5q-70.5 151.5 -70.5 238.5t23 208l94 451h178l-96 -457q-20 -90 -20 -164q0 -156 84 -228.5t239 -88.5l199 938h176l-199 -940q209 17 334 130t178 372l95 438h176l-93 -438q-74 -337 -235.5 -481.5t-484.5 -166.5l-78 -370h-176l77 374q-330 33 -400.5 184.5
z" />
    <glyph glyph-name="omega" unicode="&#x3c9;" horiz-adv-x="1638" 
d="M109 332q0 305 136 491.5t208 259.5l133 -75q-297 -339 -297 -668q0 -102 42 -163.5t123 -61.5t128 28.5t87.5 87.5t75.5 213l64 293h176l-59 -276q-15 -77 -15 -158q0 -82 48.5 -135t132.5 -53t145 54t111.5 167.5t50.5 315.5t-78 358l147 71q109 -211 109 -424
q0 -281 -118 -485.5t-362 -204.5t-302 226q-58 -109 -140.5 -167.5t-226.5 -58.5q-143 0 -231 94.5t-88 270.5z" />
    <glyph glyph-name="iotadieresis" unicode="&#x3ca;" horiz-adv-x="565" 
d="M559 1260l43 202h182l-43 -202h-182zM201 1260l43 202h180l-43 -202h-180zM109 160q0 68 13 124t25 115l140 662h178l-164 -768q-10 -45 -10 -81q0 -87 98 -87q49 0 103 12l18 -135q-73 -25 -188 -25t-164 57.5t-49 125.5z" />
    <glyph glyph-name="upsilondieresis" unicode="&#x3cb;" horiz-adv-x="1134" 
d="M303 309q0 -190 215 -190q159 0 231 92q54 71 103 283l121 565h178l-129 -610q-59 -268 -170 -375t-316 -107q-411 0 -411 326q0 82 22 184l123 582h179l-125 -588q-21 -108 -21 -162zM840 1260l41 202h182l-43 -202h-180zM481 1260l41 202h183l-43 -202h-181z" />
    <glyph glyph-name="omicrontonos" unicode="&#x3cc;" horiz-adv-x="1220" 
d="M858 1526h201l-256 -316h-160zM723 944q-181 0 -296 -147q-114 -148 -114 -379q0 -137 66 -220t194 -83q181 0 296 147q114 148 114 379q0 137 -65 220q-66 83 -195 83zM722 1092q207 0 328 -124q121 -125 119 -319q0 -316 -172 -499t-438 -183q-192 0 -312 124t-120 302
q0 177 47 302q94 251 324 349q112 48 224 48z" />
    <glyph glyph-name="upsilontonos" unicode="&#x3cd;" horiz-adv-x="1134" 
d="M829 1526h201l-256 -316h-160zM303 309q0 -190 215 -190q159 0 231 92q54 71 103 283l121 565h178l-129 -610q-59 -268 -170 -375t-316 -107q-411 0 -411 326q0 82 22 184l123 582h179l-125 -588q-21 -108 -21 -162z" />
    <glyph glyph-name="omegatonos" unicode="&#x3ce;" horiz-adv-x="1638" 
d="M109 332q0 300 208 591q63 87 136 160l133 -75q-297 -339 -297 -668q0 -225 177 -225t246 209q19 59 33 120l64 293h176l-59 -276q-15 -77 -15 -158q0 -82 48 -135t133 -53t146 54q157 141 161 495q0 184 -78 346l147 71q109 -211 109 -424q0 -278 -107 -466
q-128 -222 -373 -223t-302 225q-88 -166 -232 -208q-57 -17 -131 -18q-147 0 -235 94t-88 271zM1057 1526h200l-256 -316h-159z" />
    <glyph glyph-name="uni0400" unicode="&#x400;" horiz-adv-x="1216" 
d="M551 1296l-98 -458h716l-34 -168h-717l-107 -504h799l-61 -166h-961l309 1462h946l-34 -166h-758zM887 1583l-230 277h213l187 -277h-170z" />
    <glyph glyph-name="afii10023" unicode="&#x401;" horiz-adv-x="1216" 
d="M551 1296l-98 -458h716l-34 -168h-717l-107 -504h799l-61 -166h-961l309 1462h946l-34 -166h-758zM981 1618l45 209h188l-45 -209h-188zM612 1618l45 209h187l-45 -209h-187z" />
    <glyph glyph-name="afii10051" unicode="&#x402;" horiz-adv-x="1601" 
d="M1085 903q322 0 393.5 -142.5t71.5 -244.5q0 -262 -161.5 -389t-499.5 -127h-115l35 162h88q229 0 347 70t118 276q0 118 -90.5 176.5t-212.5 58.5q-220 0 -367 -57l-153 -686h-189l287 1296h-410l33 166h1116l-35 -166h-514l-102 -450q169 57 360 57z" />
    <glyph glyph-name="afii10052" unicode="&#x403;" horiz-adv-x="1077" 
d="M659 1583l289 277h232l-336 -277h-185zM395 1462h889l-37 -166h-698l-275 -1296h-188z" />
    <glyph glyph-name="afii10053" unicode="&#x404;" horiz-adv-x="1472" 
d="M365 556q0 -68 25.5 -151t106.5 -180.5t269 -97.5q262 0 330.5 116.5t91.5 190.5h192q-60 -234 -213.5 -352.5t-415.5 -118.5t-420.5 169t-158.5 452q0 377 210 646t586 269q204 0 338 -109.5t162 -318.5l-186 -31q-25 150 -107.5 222.5t-236.5 72.5
q-201 0 -345.5 -133.5t-199.5 -367.5h688l-34 -164h-678q-4 -46 -4 -114z" />
    <glyph glyph-name="afii10054" unicode="&#x405;" horiz-adv-x="1316" 
d="M1212 412q0 -92 -41 -182q-41 -89 -115 -148q-150 -119 -407 -119q-377 0 -511 235q-50 87 -54 218h188q16 -152 106 -222t284 -69q266 0 328 180q35 100 11 187q-28 117 -192 149l-193 41q-360 77 -360 369q0 221 150 334q150 114 393 114q244 0 383 -111
q124 -102 145 -290l-180 -31q-20 137 -98 205t-248 67q-278 0 -334 -160q-16 -46 -16 -117t47 -125t172 -83l188 -41q278 -57 336 -249q18 -60 18 -152z" />
    <glyph glyph-name="afii10055" unicode="&#x406;" horiz-adv-x="512" 
d="M88 0l309 1462h189l-310 -1462h-188z" />
    <glyph glyph-name="afii10056" unicode="&#x407;" horiz-adv-x="512" 
d="M88 0l309 1462h189l-310 -1462h-188zM602 1618l45 209h189l-45 -209h-189zM233 1618l46 209h186l-45 -209h-187z" />
    <glyph glyph-name="afii10057" unicode="&#x408;" horiz-adv-x="1222" 
d="M74 369q0 31 4 69h184v-39q0 -129 62 -201q62 -71 219 -71q158 0 253 99q81 88 119 276l205 960h189l-211 -997q-54 -262 -192 -382t-360 -120t-347 104q-125 105 -125 302z" />
    <glyph glyph-name="afii10058" unicode="&#x409;" horiz-adv-x="2205" 
d="M1935 510q0 246 -311 246h-262l-125 -596h283q213 0 314 79.5t101 270.5zM16 -12h-47l33 166h29q72 0 135 27.5t155 136t214 495.5l202 649h776l-114 -547h217q236 0 372 -97t136 -304q0 -248 -152.5 -381t-474.5 -133h-481l274 1300h-413l-183 -585
q-129 -413 -283.5 -570t-394.5 -157z" />
    <glyph glyph-name="afii10059" unicode="&#x40a;" horiz-adv-x="2136" 
d="M1458 160q213 0 312.5 73.5t99.5 253.5q0 98 -77 156.5t-230 58.5h-277l-115 -542h287zM1544 866q236 0 374 -94t138 -280q0 -238 -151.5 -365t-470.5 -127h-486l146 700h-662l-145 -700h-189l308 1462h190l-127 -596h661l127 596h189l-125 -596h223z" />
    <glyph glyph-name="afii10060" unicode="&#x40b;" horiz-adv-x="1572" 
d="M1045 870q177 0 295.5 -92.5t109 -222t-17.5 -166.5l-82 -389h-187l72 348q23 116 20 164q-4 113 -68.5 160t-216.5 47t-304 -62l-140 -657h-188l274 1298h-385l33 164h1098l-35 -164h-522l-103 -491q170 63 347 63z" />
    <glyph glyph-name="afii10061" unicode="&#x40c;" horiz-adv-x="1310" 
d="M776 1583l289 277h231l-335 -277h-185zM1434 1290q-30 10 -86 10t-101 -33t-104 -118l-105 -143q-59 -82 -119 -144t-151 -98q63 -23 101 -77t92 -175l235 -512h-201l-221 492q-43 96 -95 138t-149 42h-110l-146 -672h-188l309 1462h189l-131 -626h75q113 0 193 62
t158 171l94 131q108 148 188 205t205 57q39 0 74 -6t41 -10z" />
    <glyph glyph-name="uni040D" unicode="&#x40d;" horiz-adv-x="1411" 
d="M989 0l246 1141l-971 -1141h-178l311 1462h185l-246 -1140l969 1140h180l-311 -1462h-185zM905 1583l-229 277h213l186 -277h-170z" />
    <glyph glyph-name="afii10062" unicode="&#x40e;" horiz-adv-x="1193" 
d="M573 1831q0 26 7 59h135q-4 -16 -4 -23v-18q-1 -49 33 -88t125 -39t146 39q54 39 81 129h137q-65 -288 -369 -286q-135 0 -213 57t-78 170zM243 119q77 0 129 36t109 124l84 127l-307 1056h199l229 -880l541 880h200l-714 -1134q-134 -212 -227 -288q-93 -75 -230 -76
t-225 44l55 146q80 -35 157 -35z" />
    <glyph glyph-name="afii10145" unicode="&#x40f;" horiz-adv-x="1404" 
d="M311 166h703l274 1296h189l-310 -1462h-444l-72 -354h-172l74 354h-467l311 1462h189z" />
    <glyph glyph-name="afii10017" unicode="&#x410;" horiz-adv-x="1380" 
d="M483 571h512l-114 678zM1024 1462l258 -1462h-195l-69 408h-625l-239 -408h-205l878 1462h197z" />
    <glyph glyph-name="afii10018" unicode="&#x411;" horiz-adv-x="1284" 
d="M625 160q211 0 313 79.5t102 266.5q0 106 -75.5 167.5t-229.5 61.5h-305l-121 -575h316zM719 895q370 0 440 -141.5t70 -243.5q0 -244 -152.5 -377t-472.5 -133h-518l309 1462h869l-35 -166h-680l-84 -401h254z" />
    <glyph glyph-name="afii10019" unicode="&#x412;" horiz-adv-x="1294" 
d="M633 156q223 0 315 76t92 229q0 96 -69 160q-70 63 -221 63h-334l-113 -528h330zM772 844q251 0 332 139q31 53 31 115q0 110 -65 159t-218 50h-305l-98 -463h323zM1233 458q0 -329 -339 -425q-118 -33 -280 -33h-528l309 1462h482q240 0 356 -105q92 -83 92 -225
q0 -274 -299 -370q102 -45 154 -124t53 -180z" />
    <glyph glyph-name="afii10020" unicode="&#x413;" horiz-adv-x="1077" 
d="M395 1462h889l-37 -166h-698l-275 -1296h-188z" />
    <glyph glyph-name="afii10021" unicode="&#x414;" horiz-adv-x="1466" 
d="M774 1077q-106 -345 -183 -510.5t-135.5 -251.5t-125.5 -149h727l241 1134h-454zM117 0l-80 -354h-170l115 520h120q217 166 335 479t177 510l97 307h811l-277 -1296h141l-112 -520h-170l76 354h-1063z" />
    <glyph glyph-name="afii10022" unicode="&#x415;" horiz-adv-x="1216" 
d="M551 1296l-98 -458h716l-34 -168h-717l-107 -504h799l-61 -166h-961l309 1462h946l-34 -166h-758z" />
    <glyph glyph-name="afii10024" unicode="&#x416;" horiz-adv-x="2054" 
d="M1975 1261.5q-50 -38.5 -117 -147.5l-91 -137q-51 -82 -107 -132t-134 -81q90 -37 157 -191l254 -573h-211l-213 500q-40 95 -86.5 133.5t-138.5 38.5h-94l-143 -672h-189l144 672h-107q-86 0 -147 -42.5t-148 -150.5l-401 -479h-234l502 594q68 82 121 122t119 56
q-57 27 -91 80t-57 131l-49 184q-20 76 -53 108t-91 32t-96 -7l23 148q57 14 139 14t137.5 -45t88.5 -157l49 -179q35 -121 90 -184t164 -63h75l131 628h189l-135 -628h61q98 0 180 58t170 189l111 170q115 171 209 191t159 20t107 -14l-47 -156q-40 8 -95 8t-105 -38.5z
" />
    <glyph glyph-name="afii10025" unicode="&#x417;" horiz-adv-x="1263" 
d="M981 758q182 -96 182 -316q0 -104 -39 -197t-148 -188.5t-359 -95.5q-497 0 -515 430h181q16 -152 93.5 -211t244.5 -59q258 0 308 117.5t50 222.5t-76 162t-213 57h-178l35 160h176q266 0 319.5 106.5t53.5 195.5t-72 144t-178 55q-190 0 -275 -51t-137 -186l-172 26
q62 180 197 274.5t354 94.5t340 -97.5t121 -254.5q0 -293 -293 -389z" />
    <glyph glyph-name="afii10026" unicode="&#x418;" horiz-adv-x="1411" 
d="M989 0l246 1141l-971 -1141h-178l311 1462h185l-246 -1140l969 1140h180l-311 -1462h-185z" />
    <glyph glyph-name="afii10027" unicode="&#x419;" horiz-adv-x="1411" 
d="M690 1831q0 17 6 59h135q-4 -16 -4 -23v-18q0 -49 34 -88t125 -39t146 39q54 39 80 129h138q-65 -288 -369 -286q-135 0 -213 57t-78 170zM989 0l246 1141l-971 -1141h-178l311 1462h185l-246 -1140l969 1140h180l-311 -1462h-185z" />
    <glyph glyph-name="afii10028" unicode="&#x41a;" horiz-adv-x="1310" 
d="M1248 1266.5q-45 -33.5 -105 -117.5l-105 -143q-59 -82 -119.5 -143.5t-150.5 -98.5q62 -23 100.5 -78t92.5 -174l235 -512h-201l-221 492q-43 96 -95 138t-149 42h-110l-146 -672h-188l309 1462h189l-131 -626h75q113 0 193 62.5t158 170.5l94 131q108 148 188 205
t205 57q39 0 74 -6t41 -10l-47 -156q-30 10 -86 10q-55 0 -100 -33.5z" />
    <glyph glyph-name="afii10029" unicode="&#x41b;" horiz-adv-x="1488" 
d="M16 -12h-47l33 166h29q72 0 135 27.5t155 136t214 495.5l202 649h826l-310 -1462h-190l276 1300h-462l-183 -585q-129 -413 -283.5 -570t-394.5 -157z" />
    <glyph glyph-name="afii10030" unicode="&#x41c;" horiz-adv-x="1732" 
d="M397 1462h228l211 -1237l737 1237h233l-309 -1462h-174l244 1153l-703 -1153h-153l-207 1149l-244 -1149h-172z" />
    <glyph glyph-name="afii10031" unicode="&#x41d;" horiz-adv-x="1439" 
d="M1014 0l141 668h-737l-142 -668h-188l309 1462h189l-131 -618h737l131 618h188l-309 -1462h-188z" />
    <glyph glyph-name="afii10032" unicode="&#x41e;" horiz-adv-x="1566" 
d="M938 1335q-120 -1 -230 -67q-218 -132 -298 -416q-39 -136 -39 -254q0 -223 101 -347t292 -124q143 0 253 67q215 131 298 416q39 135 39 255t-26 203t-75 142t-123 92q-72 33 -192 33zM973 1499q254 0 416 -165q161 -165 161 -441q0 -172 -52 -339t-152 -298t-250 -212
t-342 -81q-260 0 -420 164t-160 442q0 172 53 339t155 298t252 212q149 81 339 81z" />
    <glyph glyph-name="afii10033" unicode="&#x41f;" horiz-adv-x="1411" 
d="M1272 1296h-713l-272 -1296h-189l310 1462h1087l-309 -1462h-189z" />
    <glyph glyph-name="afii10034" unicode="&#x420;" horiz-adv-x="1282" 
d="M723 727q211 0 311 74q119 86 119 282q0 95 -70 157t-239 63h-295l-123 -576h297zM1341 1090q0 -523 -639 -523h-309l-121 -567h-186l309 1462h479q241 0 366 -123q101 -99 101 -249z" />
    <glyph glyph-name="afii10035" unicode="&#x421;" horiz-adv-x="1454" 
d="M930 1335q-251 0 -406 -211t-155 -524q0 -208 100 -340q100 -133 292 -133q191 0 295 94q103 94 138 248h205q-82 -363 -393 -468q-111 -38 -251 -38q-274 0 -429 169q-156 169 -156 452q0 182 52 348q108 344 394 492q143 75 324 75q250 0 381 -130t152 -355l-189 -31
q-23 176 -102 264q-80 88 -252 88z" />
    <glyph glyph-name="afii10036" unicode="&#x422;" horiz-adv-x="1230" 
d="M909 1294l-272 -1294h-191l275 1294h-485l36 168h1155l-34 -168h-484z" />
    <glyph glyph-name="afii10037" unicode="&#x423;" horiz-adv-x="1193" 
d="M243 119q77 0 129 35.5t109 124.5l84 127l-307 1056h199l229 -880l541 880h200l-714 -1134q-134 -213 -229 -289t-228 -76t-225 45l55 146q80 -35 157 -35z" />
    <glyph glyph-name="afii10038" unicode="&#x424;" horiz-adv-x="1693" 
d="M375 666q0 -146 100 -229t273 -101l188 893q-262 -16 -411.5 -153.5t-149.5 -409.5zM1495 898q0 146 -99.5 230t-273.5 101l-190 -895q408 25 485.5 221.5t77.5 342.5zM182 710q0 142 61.5 269t221.5 256.5t506 146.5l33 162h186l-37 -168q375 -39 455 -211t80 -312
t-62.5 -267t-221.5 -257t-505 -147l-39 -182h-184l39 188q-237 25 -344 116t-148 177.5t-41 228.5z" />
    <glyph glyph-name="afii10039" unicode="&#x425;" horiz-adv-x="1306" 
d="M844 760l368 -760h-211l-294 625l-543 -625h-215l678 776l-332 686h209l256 -557l489 557h213z" />
    <glyph glyph-name="afii10040" unicode="&#x426;" horiz-adv-x="1402" 
d="M86 0l309 1462h191l-275 -1296h676l273 1296h190l-274 -1296h143l-113 -520h-170l76 354h-1026z" />
    <glyph glyph-name="afii10041" unicode="&#x427;" horiz-adv-x="1308" 
d="M659 580q-296 0 -359.5 130t-65.5 213t14 150l82 389h190l-74 -344q-6 -33 -13 -70.5t-7 -82.5q0 -115 65.5 -171.5t233.5 -56.5t319 60l148 665h190l-323 -1462h-191l142 645q-175 -65 -351 -65z" />
    <glyph glyph-name="afii10042" unicode="&#x428;" horiz-adv-x="1974" 
d="M1040 166h543l275 1296h188l-309 -1462h-1651l309 1462h189l-273 -1296h541l274 1296h189z" />
    <glyph glyph-name="afii10043" unicode="&#x429;" horiz-adv-x="2000" 
d="M86 0l309 1462h189l-273 -1296h541l274 1296h189l-275 -1296h543l275 1296h188l-272 -1296h143l-113 -520h-170l76 354h-1624z" />
    <glyph glyph-name="afii10044" unicode="&#x42a;" horiz-adv-x="1452" 
d="M782 160q213 0 314.5 79.5t101.5 270.5q0 119 -80 182.5t-233 63.5h-320l-125 -596h342zM877 915q369 0 439 -149.5t70 -253.5q0 -248 -152.5 -380t-473.5 -132h-543l272 1296h-309l37 166h498l-115 -547h277z" />
    <glyph glyph-name="afii10045" unicode="&#x42b;" horiz-adv-x="1763" 
d="M612 160q213 0 315.5 79.5t102.5 270.5q0 119 -80 182.5t-233 63.5h-283l-125 -596h303zM709 915q236 0 372 -98t136 -305q0 -248 -152 -380t-473 -132h-506l309 1462h189l-115 -547h240zM1528 0h-189l310 1462h188z" />
    <glyph glyph-name="afii10046" unicode="&#x42c;" horiz-adv-x="1302" 
d="M635 162q211 0 313.5 80t102.5 268q0 119 -79 182.5t-233 63.5h-305l-125 -594h326zM731 915q236 0 372 -98t136 -305q0 -248 -156.5 -380t-478.5 -132h-518l309 1462h189l-115 -547h262z" />
    <glyph glyph-name="afii10047" unicode="&#x42d;" horiz-adv-x="1454" 
d="M870 1499q266 0 418 -168t152 -457q0 -172 -45 -336.5t-138.5 -291.5t-238 -205t-353.5 -78t-360 124.5t-166 346.5h187q23 -154 118 -230.5t231 -76.5q240 0 375.5 149.5t180.5 393.5h-692l34 164h676q2 14 2 17v38q0 204 -103.5 325t-281.5 121q-319 0 -448 -305
l-178 43q170 426 630 426z" />
    <glyph glyph-name="afii10048" unicode="&#x42e;" horiz-adv-x="2076" 
d="M1470 1335q-114 0 -220.5 -66.5t-217 -229t-110.5 -459.5q0 -204 97.5 -328.5t276.5 -124.5q137 0 243 66.5t216.5 230.5t110.5 472t-141 373.5t-255 65.5zM1493 1499q260 0 414.5 -166t154.5 -440q0 -172 -51 -339t-149.5 -298t-243.5 -212t-332 -81q-250 0 -403.5 165
t-153.5 441q0 49 6 103h-319l-142 -672h-188l309 1462h189l-133 -626h311q71 285 210.5 421t262.5 189t258 53z" />
    <glyph glyph-name="afii10049" unicode="&#x42f;" horiz-adv-x="1353" 
d="M889 1303q-213 0 -304 -70t-91 -238q0 -98 66.5 -163.5t207.5 -65.5h324l112 537h-315zM301 1001q0 227 146.5 344t463.5 117h514l-307 -1462h-190l129 606h-230q-173 0 -243 -80t-103 -131l-262 -395h-221l291 438q51 76 104 132.5t144 91.5q-236 87 -236 339z" />
    <glyph glyph-name="afii10065" unicode="&#x430;" horiz-adv-x="1101" 
d="M242 301.5q0 -94.5 41 -137.5t124 -43q155 0 264.5 83.5t133.5 207.5l26 129l-176 -9q-233 -12 -323 -74t-90 -156.5zM874 782q0 183 -218 183q-122 0 -186 -35t-99 -127l-162 20q49 154 162 217.5t303 63.5t282.5 -84t92.5 -232q0 -56 -15 -126l-139 -662h-174l31 145
q-74 -76 -162 -123t-225 -47t-222.5 74t-85.5 198q0 220 162 311.5t438 100.5l201 7l6 28q10 51 10 88z" />
    <glyph glyph-name="afii10066" unicode="&#x431;" horiz-adv-x="1226" 
d="M330 471q0 -170 62.5 -264t219.5 -94t257 131t100 319q0 131 -59.5 214t-202.5 83t-250 -104q-61 -51 -94 -128t-33 -157zM768 1008q186 0 287.5 -122t101.5 -278q0 -300 -154 -471.5t-417 -171.5q-217 0 -330 135t-113 355q0 334 105.5 510t191.5 260q169 165 580 239
l188 33l-10 -156l-174 -30q-329 -58 -467 -189q-113 -104 -176 -288q160 174 387 174z" />
    <glyph glyph-name="afii10067" unicode="&#x432;" horiz-adv-x="1116" 
d="M575 143q152 0 213.5 46.5t61.5 127.5t-44 123.5t-149 42.5h-317l-72 -340h307zM672 614q168 0 208 67t40 121t-40 91t-147 37h-299l-67 -316h305zM1094 838q0 -219 -213 -287q76 -29 112.5 -92.5t36.5 -132.5q0 -150 -103.5 -238t-338.5 -88h-525l226 1071h471
q173 0 253.5 -69t80.5 -164z" />
    <glyph glyph-name="afii10068" unicode="&#x433;" horiz-adv-x="870" 
d="M997 1071l-32 -153h-529l-194 -918h-179l226 1071h708z" />
    <glyph glyph-name="afii10069" unicode="&#x434;" horiz-adv-x="1175" 
d="M502 590q-101 -308 -219 -438h520l160 774h-353zM1171 1071l-192 -919h125l-92 -439h-158l59 287h-815l-59 -287h-156l94 439h103q148 117 287 548l118 371h686z" />
    <glyph glyph-name="afii10070" unicode="&#x435;" horiz-adv-x="1167" 
d="M301 470v-58q0 -125 75.5 -213t209.5 -88t197 48t94 138h174q-72 -246 -220.5 -288t-256.5 -42q-205 0 -327 128.5t-122 307.5q0 331 164 516t420 185q193 0 300 -115.5t107 -294.5q0 -106 -14 -166l-8 -34h-791q-2 -18 -2 -24zM942 694q0 121 -60.5 197t-192.5 76
t-228 -83t-135 -257h612q4 32 4 67z" />
    <glyph glyph-name="afii10072" unicode="&#x436;" horiz-adv-x="1579" 
d="M255 934q-38 0 -79 -8l12 133q12 2 36 7t65 5q83 0 125.5 -40.5t72.5 -133.5l43 -141q23 -78 65 -114t112 -36h53l98 465h170l-98 -465h39q76 0 129 37t102 111l94 141q59 92 125.5 134t154.5 42t109 -14l-43 -135q-40 8 -65 8q-59 0 -92 -38t-74 -97l-68 -103
q-66 -99 -163 -139q45 -18 71.5 -52.5t60.5 -110.5t79 -181t92 -209h-187l-137 326q-34 83 -73.5 117t-120.5 34h-62l-102 -477h-168l100 477h-63q-114 0 -197 -101q-84 -101 -164 -192.5t-157 -183.5h-207l327 385q63 72 113.5 113t108.5 59q-83 49 -111 154l-33 123
q-12 47 -33.5 73.5t-59.5 26.5z" />
    <glyph glyph-name="afii10073" unicode="&#x437;" horiz-adv-x="1075" 
d="M963 315q0 -173 -125 -259.5t-342 -86.5q-298 0 -367.5 126t-75.5 218h168q14 -111 88 -154.5t197 -43.5t197.5 44t74.5 163q0 74 -50 119.5t-150 45.5h-216l29 131h219q167 0 207.5 66t40.5 128t-54 104t-180 42t-198 -42t-107 -134l-161 31q45 141 162.5 216t302.5 75
t299 -68t114 -191q0 -124 -64.5 -191.5t-162.5 -96.5q154 -69 154 -242z" />
    <glyph glyph-name="afii10074" unicode="&#x438;" horiz-adv-x="1153" 
d="M762 0l170 795l-696 -795h-173l228 1071h168l-172 -805l700 805h172l-229 -1071h-168z" />
    <glyph glyph-name="afii10075" unicode="&#x439;" horiz-adv-x="1153" 
d="M467 1430q0 14 6 59h135q-4 -15 -4 -23v-18q0 -49 34 -88t125 -39t145 39t81 129h137q-65 -287 -368 -287q-135 0 -213 58t-78 170zM762 0l170 795l-696 -795h-173l228 1071h168l-172 -805l700 805h172l-229 -1071h-168z" />
    <glyph glyph-name="afii10076" unicode="&#x43a;" horiz-adv-x="1040" 
d="M444 477h-104l-102 -477h-175l228 1071h176l-100 -465h86q66 0 113.5 33t101.5 115l98 149q91 138 162 153t119 15t104 -14l-43 -135q-40 8 -81 8q-40 0 -66.5 -25.5t-59.5 -77.5l-84 -129q-37 -55 -73.5 -87.5t-90.5 -57.5q49 -18 76 -55t47 -84l174 -414h-186l-150 369
q-23 55 -57.5 81.5t-112.5 26.5z" />
    <glyph glyph-name="afii10077" unicode="&#x43b;" horiz-adv-x="1169" 
d="M-23 143q117 0 192.5 100.5t166.5 372.5l147 455h697l-226 -1071h-180l195 926h-357l-120 -369q-99 -311 -212 -439t-303 -128h-47l29 153h18z" />
    <glyph glyph-name="afii10078" unicode="&#x43c;" horiz-adv-x="1437" 
d="M299 1071h207l174 -885l553 885h215l-234 -1071h-165l178 807l-516 -807h-140l-161 819l-181 -819h-166z" />
    <glyph glyph-name="afii10079" unicode="&#x43d;" horiz-adv-x="1189" 
d="M469 1071l-92 -436h553l92 436h178l-227 -1071h-178l100 483h-553l-100 -483h-179l228 1071h178z" />
    <glyph glyph-name="afii10080" unicode="&#x43e;" horiz-adv-x="1230" 
d="M725 956q-184 0 -300 -149.5t-116 -382.5q0 -141 67.5 -225t196.5 -84q184 0 299 149t115 383q0 141 -66.5 225t-195.5 84zM722 1104q211 0 332.5 -126.5t121.5 -305.5q0 -331 -172.5 -518t-442.5 -187q-194 0 -316 126t-122 305q0 178 48 304.5t132 216t195.5 137.5
t223.5 48z" />
    <glyph glyph-name="afii10081" unicode="&#x43f;" horiz-adv-x="1163" 
d="M1174 1071l-228 -1071h-180l195 918h-525l-194 -918h-179l228 1071h883z" />
    <glyph glyph-name="afii10082" unicode="&#x440;" horiz-adv-x="1224" 
d="M434 924q151 180 354 180t295.5 -129t92.5 -324q0 -278 -156 -481t-395 -203t-351 191l-118 -555h-179l312 1468h176zM326 383q0 -129 75 -198.5t181 -69.5q189 0 297 156.5t108 375.5q0 154 -61.5 231.5t-173.5 77.5q-190 0 -276.5 -124.5t-104.5 -204.5l-23 -99
q-22 -96 -22 -145z" />
    <glyph glyph-name="afii10083" unicode="&#x441;" horiz-adv-x="1144" 
d="M557 -33q-204 0 -320 126.5t-116 309.5q0 338 169 519.5t423 181.5q193 0 290.5 -100.5t110.5 -262.5l-176 -26q-14 113 -49 158t-79 64t-121 19t-148.5 -37.5t-151.5 -145.5t-80 -338q0 -229 97.5 -274.5t168.5 -45.5q133 0 205 66.5t101 170.5h182q-101 -385 -506 -385
z" />
    <glyph glyph-name="afii10084" unicode="&#x442;" horiz-adv-x="972" 
d="M514 920h-371l33 151h918l-33 -151h-367l-194 -920h-181z" />
    <glyph glyph-name="afii10085" unicode="&#x443;" horiz-adv-x="1073" 
d="M219.5 -218q33.5 30 97.5 132l72 119l-233 1038h196l162 -846l481 846h209q-170 -276 -337 -551.5t-277 -457.5t-153.5 -250t-111 -138.5t-178.5 -70.5q-112 0 -182 32l51 138q60 -21 115 -21t88.5 30z" />
    <glyph glyph-name="afii10086" unicode="&#x444;" horiz-adv-x="1519" 
d="M1284 588q0 137 -85 223t-238 96l-160 -760q229 14 356 123t127 318zM297 465q0 -133 87 -220t243 -95l161 759q-236 -10 -363.5 -124.5t-127.5 -319.5zM113 478q0 118 54 228.5t194 223t458 129.5l84 389h172l-84 -395q214 -20 345.5 -145.5t131.5 -315.5
q0 -270 -193 -426t-507 -168l-80 -377h-172l80 381q-217 20 -316.5 111.5t-133 169t-33.5 195.5z" />
    <glyph glyph-name="afii10087" unicode="&#x445;" horiz-adv-x="1032" 
d="M936 0h-195l-204 438l-379 -438h-209l510 573l-250 498h197l178 -383l338 383h202l-458 -516z" />
    <glyph glyph-name="afii10088" unicode="&#x446;" horiz-adv-x="1153" 
d="M63 0l226 1071h180l-195 -919h502l195 919h178l-193 -919h125l-94 -439h-158l62 287h-828z" />
    <glyph glyph-name="afii10089" unicode="&#x447;" horiz-adv-x="1069" 
d="M342 711q0 -170 200 -170q98 0 150.5 12t104.5 29l104 489h178l-227 -1071h-178l90 434q-142 -43 -248 -43q-162 0 -259 74t-97 221q0 53 10 100l61 285h179l-56 -258q-12 -59 -12 -102z" />
    <glyph glyph-name="afii10090" unicode="&#x448;" horiz-adv-x="1644" 
d="M1444 0h-1381l228 1071h178l-195 -919h420l197 919h178l-195 -919h424l195 919h178z" />
    <glyph glyph-name="afii10091" unicode="&#x449;" horiz-adv-x="1665" 
d="M1466 152h125l-94 -439h-158l62 287h-1338l226 1071h180l-195 -919h416l195 919h178l-195 -919h418l195 919h178z" />
    <glyph glyph-name="afii10092" unicode="&#x44a;" horiz-adv-x="1181" 
d="M662 147q141 0 205.5 52.5t64.5 171.5q0 74 -46 117.5t-147 43.5h-282l-82 -385h287zM737 678q379 0 379 -320q0 -164 -116.5 -261t-358.5 -97h-475l194 922h-241l33 149h419l-84 -393h250z" />
    <glyph glyph-name="afii10093" unicode="&#x44b;" horiz-adv-x="1470" 
d="M627 678q379 0 379 -320q0 -164 -117 -261t-357 -97h-469l228 1071h178l-82 -393h240zM551 147q141 0 205.5 52.5t64.5 171.5q0 74 -46 117.5t-144 43.5h-277l-82 -385h279zM1309 1071h180l-227 -1071h-181z" />
    <glyph glyph-name="afii10094" unicode="&#x44c;" horiz-adv-x="1097" 
d="M653 678q379 0 379 -320q0 -164 -115.5 -261t-357.5 -97h-496l228 1071h178l-82 -393h266zM578 147q141 0 204.5 52.5t63.5 171.5q0 74 -45 117.5t-144 43.5h-303l-82 -385h306z" />
    <glyph glyph-name="afii10095" unicode="&#x44d;" horiz-adv-x="1146" 
d="M654 958q-222 0 -300 -196l-161 31q122 315 491 311q187 0 297.5 -123t110.5 -309q0 -283 -148.5 -494t-441.5 -211q-175 0 -290.5 92.5t-123.5 262.5h170q33 -209 258 -209q153 0 244 99t123 263h-463l26 137h457q7 51 -2 113q-10 109 -71.5 171t-175.5 62z" />
    <glyph glyph-name="afii10096" unicode="&#x44e;" horiz-adv-x="1632" 
d="M1149 956q-167 0 -275 -149t-108 -383q0 -143 61.5 -226t178.5 -83q167 0 275 149.5t108 382.5q0 143 -61.5 226t-178.5 83zM1462.5 980q114.5 -124 114.5 -305q0 -330 -166.5 -519t-421.5 -189q-182 0 -293.5 121t-111.5 328v59h-242l-100 -475h-179l228 1071h178
l-98 -457h233q49 227 207 358.5t347 131.5q190 0 304.5 -124z" />
    <glyph glyph-name="afii10097" unicode="&#x44f;" horiz-adv-x="1116" 
d="M637 926q-133 0 -194.5 -43t-61.5 -158q0 -66 46 -108t138 -42h277l73 351h-278zM197 721q0 182 118.5 266t348.5 84h462l-227 -1071h-180l90 428h-188q-70 0 -113 -24.5t-82 -75.5l-248 -328h-209l275 362q67 88 139 109q-86 29 -136 93.5t-50 156.5z" />
    <glyph glyph-name="uni0450" unicode="&#x450;" horiz-adv-x="1167" 
d="M301 453v-41q0 -127 76 -215t209 -87t196 49t95 138h174q-73 -246 -290 -307q-79 -23 -187 -23t-190 36q-168 73 -229 241q-30 82 -30 210t45 255q91 256 308 349q108 46 220 46q204 0 312 -117t106 -293q0 -106 -14 -166l-8 -34h-791q-2 -18 -2 -41zM942 694
q0 121 -60 197q-61 76 -193 76t-228 -83t-135 -257h612q4 32 4 67zM727 1210l-223 291h209l182 -291h-168z" />
    <glyph glyph-name="afii10071" unicode="&#x451;" horiz-adv-x="1167" 
d="M301 453v-41q0 -127 76 -215t209 -87t196 49t95 138h174q-73 -246 -290 -307q-79 -23 -187 -23t-190 36q-168 73 -229 241q-30 82 -30 210t45 255q91 256 308 349q108 46 220 46q204 0 312 -117t106 -293q0 -106 -14 -166l-8 -34h-791q-2 -18 -2 -41zM942 694
q0 121 -60 197q-61 76 -193 76t-228 -83t-135 -257h612q4 32 4 67zM815 1260l41 202h182l-43 -202h-180zM457 1260l41 202h182l-43 -202h-180z" />
    <glyph glyph-name="afii10099" unicode="&#x452;" horiz-adv-x="1220" 
d="M852 1034q152 0 228.5 -82t76.5 -225q0 -70 -37 -225l-112 -527q-34 -166 -103 -261t-217 -95q-111 0 -209 37l58 139q70 -24 138 -24q69 0 99.5 45t46.5 125l140 647q14 58 14 106q0 187 -176 187q-111 0 -235 -87.5t-150 -222.5l-123 -571h-178l249 1178h-188l29 133
h186l33 151h180l-33 -151h389l-30 -133h-387l-70 -334q174 190 381 190z" />
    <glyph glyph-name="afii10100" unicode="&#x453;" horiz-adv-x="870" 
d="M494 1210l286 291h228l-328 -291h-186zM997 1071l-32 -153h-529l-194 -918h-179l226 1071h708z" />
    <glyph glyph-name="afii10101" unicode="&#x454;" horiz-adv-x="1146" 
d="M123 409q0 336 173.5 515.5t426.5 179.5t314 -123t73 -190l-170 -29q-18 94 -70.5 145t-182.5 51t-229.5 -93t-133.5 -253h483l-27 -135h-477q-2 -32 8 -92q8 -121 74 -196.5t197 -75.5q183 0 235.5 80.5t69.5 125.5h170q-110 -352 -496 -352q-205 0 -321.5 129.5
t-116.5 312.5z" />
    <glyph glyph-name="afii10102" unicode="&#x455;" horiz-adv-x="1069" 
d="M766 291q0 76 -34 110.5t-124 55.5l-119 26q-160 35 -227 103t-67 168q0 176 123 263t311 87t287.5 -79t115.5 -224l-164 -25q-16 90 -69.5 138.5t-182.5 48.5t-189 -49t-60 -118t36.5 -106t139.5 -59l125 -27q280 -56 280 -282q0 -110 -71 -232.5t-371 -122.5t-370 121
t-70 219h170q7 -196 276 -196q133 0 193.5 52t60.5 128z" />
    <glyph glyph-name="afii10103" unicode="&#x456;" horiz-adv-x="462" 
d="M322 1262l43 206h192l-45 -206h-190zM68 0l227 1071h178l-227 -1071h-178z" />
    <glyph glyph-name="afii10104" unicode="&#x457;" horiz-adv-x="462" 
d="M500 1260l41 202h182l-43 -202h-180zM141 1260l41 202h183l-43 -202h-181zM68 0l227 1071h178l-227 -1071h-178z" />
    <glyph glyph-name="afii10105" unicode="&#x458;" horiz-adv-x="462" 
d="M-100 -381q-108 0 -203 41l57 137q65 -26 136 -26t109 43t56 129l240 1128h178l-235 -1112q-40 -172 -112.5 -256t-225.5 -84zM322 1262l43 206h192l-45 -206h-190z" />
    <glyph glyph-name="afii10106" unicode="&#x459;" horiz-adv-x="1732" 
d="M1288 678q379 0 379 -320q0 -164 -115.5 -261t-357.5 -97h-467l195 926h-310l-120 -369q-99 -311 -212 -439t-303 -128h-47l29 153h18q117 0 192.5 100.5t166.5 372.5l147 455h650l-84 -393h239zM1214 147q141 0 205 52.5t64 171.5q0 74 -45 117.5t-146 43.5h-274
l-82 -385h278z" />
    <glyph glyph-name="afii10107" unicode="&#x45a;" horiz-adv-x="1740" 
d="M1225 147q141 0 203.5 48.5t62.5 158.5q0 72 -44 115t-144 43h-279l-76 -365h277zM1303 657q184 0 278 -77.5t94 -214.5q0 -187 -115 -276t-386 -89h-435l107 510h-496l-108 -510h-179l228 1071h178l-88 -412h496l88 412h180l-90 -414h248z" />
    <glyph glyph-name="afii10108" unicode="&#x45b;" horiz-adv-x="1226" 
d="M852 1034q150 0 227.5 -80t77.5 -223q0 -53 -12 -117l-133 -614h-178l127 592q14 68 14 102q0 187 -174 187q-120 0 -236 -86q-55 -45 -95 -95.5t-56 -128.5l-121 -571h-178l247 1178h-196l31 133h194l33 151h176l-31 -151h416l-31 -133h-413l-70 -334q168 190 381 190z
" />
    <glyph glyph-name="afii10109" unicode="&#x45c;" horiz-adv-x="1040" 
d="M588 1210l286 291h228l-328 -291h-186zM453 606q65 0 113 33t102 115l98 149q64 97 126 132q62 36 132 36q71 0 127 -14l-43 -135q-40 8 -81 8t-67 -26t-59 -77l-84 -129q-68 -102 -164 -145q49 -18 76 -55t47 -84l174 -414h-186l-150 369q-23 55 -57 82q-35 27 -113 26
h-104l-102 -477h-175l228 1071h176l-100 -465h86z" />
    <glyph glyph-name="uni045D" unicode="&#x45d;" horiz-adv-x="1153" 
d="M727 1210l-223 291h209l182 -291h-168zM762 0l170 795l-696 -795h-173l228 1071h168l-172 -805l700 805h172l-229 -1071h-168z" />
    <glyph glyph-name="afii10110" unicode="&#x45e;" horiz-adv-x="1073" 
d="M385 1438q0 14 6 59h135q-4 -16 -4 -23v-18q0 -49 34 -88t125 -39t145 39t81 129h137q-65 -287 -368 -287q-135 0 -213 58t-78 170zM16 -227q60 -21 116 -21t94 36q22 19 42 50t49 76l72 119l-233 1038h196l162 -846l481 846h209q-170 -276 -436 -715t-320 -525
q-55 -87 -99 -133q-93 -97 -218 -95q-96 0 -166 32z" />
    <glyph glyph-name="afii10193" unicode="&#x45f;" horiz-adv-x="1163" 
d="M584 0l-60 -287h-157l59 287h-363l226 1071h180l-195 -917h527l194 917h179l-228 -1071h-362z" />
    <glyph glyph-name="uni0462" unicode="&#x462;" horiz-adv-x="1505" 
d="M817 160q213 0 314.5 79.5t101.5 270.5q0 119 -79 182.5t-232 63.5h-310l-125 -596h330zM913 915q236 0 372 -97t136 -304q0 -248 -152.5 -381t-473.5 -133h-529l250 1178h-348l33 153h348l39 189h188l-41 -189h484l-35 -153h-482l-55 -263h266z" />
    <glyph glyph-name="uni0463" unicode="&#x463;" horiz-adv-x="1230" 
d="M786 678q379 0 379 -320q0 -164 -111.5 -261t-361.5 -97h-495l194 926h-250l31 139h250l90 434h180l-90 -434h436l-30 -139h-437l-51 -248h266zM713 147q141 0 204.5 52.5t63.5 171.5q0 74 -45 117.5t-145 43.5h-304l-81 -385h307z" />
    <glyph glyph-name="uni0472" unicode="&#x472;" horiz-adv-x="1566" 
d="M616 905q103 0 162.5 -28.5t113.5 -62.5t112 -61.5t144 -27.5t200 57q6 51 6 125t-25.5 158t-103 177t-274.5 93t-342.5 -141.5t-200.5 -347.5q105 59 208 59zM1108 575q-98 0 -157.5 28t-115 61.5t-111.5 62.5t-146 29t-201 -64q-6 -44 -6 -128q0 -189 101.5 -313
t301.5 -124t343.5 141.5t201.5 362.5q-113 -56 -211 -56zM973 1499q259 0 419 -165.5t160 -440.5q0 -172 -52 -339t-153.5 -298t-251 -212t-341.5 -81q-260 0 -421 165t-161 441q0 172 53.5 339t156.5 298t252 212t339 81z" />
    <glyph glyph-name="uni0473" unicode="&#x473;" horiz-adv-x="1230" 
d="M722 1104q210 0 332 -125t122 -305q0 -333 -172.5 -520t-442.5 -187q-194 0 -316 126t-122 305q0 178 48 305.5t132 217t195.5 136.5t223.5 47zM448 535q-68 0 -139 -33q-2 -20 -2 -40v-40q0 -141 67.5 -226t203.5 -85t240 90t147 245q-66 -32 -141 -32q-76 0 -115 18.5
t-76 42t-77 42t-108 18.5zM483 662q74 0 114 -18.5t77 -41t74.5 -41t108.5 -18.5t130 32q4 32 4 74q0 141 -67.5 227.5t-203.5 86.5t-238.5 -90.5t-147.5 -243.5q75 33 149 33z" />
    <glyph glyph-name="uni0474" unicode="&#x474;" horiz-adv-x="1552" 
d="M1206 1231q72 128 154 193t208 65t226 -72l-76 -145q-71 49 -140 49t-112.5 -41.5t-99.5 -138.5l-659 -1141h-193l-254 1462h201l194 -1218z" />
    <glyph glyph-name="uni0475" unicode="&#x475;" 
d="M1202 938q-43 0 -65.5 -11.5t-49.5 -38.5t-96 -143l-446 -745h-193l-198 1071h198l135 -872l342 600q95 167 146 214.5t98 65t111 17.5q104 0 192 -72l-78 -129q-53 43 -96 43z" />
    <glyph glyph-name="uni048A" unicode="&#x48a;" horiz-adv-x="1441" 
d="M666 1812q0 18 6 60h135q-4 -16 -4 -18v-23q0 -49 33.5 -88t125.5 -39t145.5 39t80.5 129h137q-65 -287 -369 -287q-135 0 -212.5 57.5t-77.5 169.5zM1350 166q-41 -346 -351 -545l-104 123q72 49 136.5 116.5t94.5 139.5h-137l246 1141l-971 -1141h-178l311 1462h185
l-246 -1140l969 1140h180l-277 -1296h142z" />
    <glyph glyph-name="uni048B" unicode="&#x48b;" horiz-adv-x="1165" 
d="M467 1427q0 18 6 60h135q-4 -16 -4 -17v-24q0 -49 34 -88t125 -39t145.5 39t80.5 129h137q-65 -287 -368 -287q-135 0 -213 57.5t-78 169.5zM1079 152q-25 -166 -87 -265.5t-195 -187.5l-95 104q134 98 177 197h-117l170 795l-696 -795h-173l228 1071h168l-172 -805
l700 805h172l-196 -919h116z" />
    <glyph glyph-name="uni048C" unicode="&#x48c;" horiz-adv-x="1320" 
d="M637 160q211 0 313.5 78.5t102.5 263.5q0 117 -79 178t-233 61h-303l-123 -581h322zM1241 508q0 -508 -627 -508h-520l238 1126h-187l33 154h187l38 182h189l-39 -182h358l-32 -154h-361l-45 -223h260q236 0 372 -96t136 -299z" />
    <glyph glyph-name="uni048D" unicode="&#x48d;" horiz-adv-x="1179" 
d="M739 670q377 0 377 -318q0 -164 -110.5 -258t-352.5 -94h-508l174 825h-204l28 140h205l27 131h180l-27 -131h381l-28 -140h-383l-31 -155h272zM932 365q0 159 -191 159h-307l-80 -377h310q141 0 204.5 50.5t63.5 167.5z" />
    <glyph glyph-name="uni048E" unicode="&#x48e;" horiz-adv-x="1304" 
d="M763 727q25 0 58 2l-88 209l131 61l101 -243q98 33 153.5 109.5t55.5 217.5q0 94 -69 157t-239 63h-317l-123 -576h337zM725 567h-332l-121 -567h-186l309 1462h502q239 0 355 -111.5t116 -260.5q0 -367 -340 -482l78 -182l-131 -61l-92 213q-72 -11 -158 -11z" />
    <glyph glyph-name="uni048F" unicode="&#x48f;" horiz-adv-x="1224" 
d="M434 924q151 180 354 180t295.5 -129t92.5 -323q0 -193 -83.5 -364t-228.5 -255l84 -193l-123 -57l-86 203q-55 -18 -118 -19q-235 0 -347 191l-118 -555h-179l312 1468h176zM326 383q0 -123 77 -198t161.5 -71.5t111.5 11.5l-98 242l122 59l101 -238q88 72 137 195
t49 271t-61.5 225t-173.5 77t-213 -73q-132 -102 -168 -256l-23 -99q-22 -93 -22 -145z" />
    <glyph glyph-name="afii10050" unicode="&#x490;" horiz-adv-x="1073" 
d="M395 1462h715l45 203h172l-80 -369h-698l-275 -1296h-188z" />
    <glyph glyph-name="afii10098" unicode="&#x491;" horiz-adv-x="870" 
d="M842 1071l35 170h157l-67 -323h-531l-194 -918h-179l228 1071h551z" />
    <glyph glyph-name="uni0492" unicode="&#x492;" horiz-adv-x="1122" 
d="M272 664h-188l33 159h188l135 639h887l-35 -166h-698l-98 -473h424l-33 -159h-426l-139 -664h-189z" />
    <glyph glyph-name="uni0493" unicode="&#x493;" horiz-adv-x="917" 
d="M1044 1071l-32 -153h-529l-69 -320h329l-30 -141h-328l-96 -457h-178l96 457h-146l29 141h148l98 473h708z" />
    <glyph glyph-name="uni0494" unicode="&#x494;" horiz-adv-x="1316" 
d="M772 901q231 0 350 -134t119 -364q0 -330 -193 -531.5t-556 -201.5h-91l35 164h70q247 0 394 143.5t147 415.5q0 350 -326 350q-160 0 -299 -53l-146 -690h-190l311 1462h865l-37 -166h-674l-96 -446q160 51 317 51z" />
    <glyph glyph-name="uni0495" unicode="&#x495;" horiz-adv-x="1091" 
d="M595 631q204 0 305 -113.5t101 -279.5q0 -316 -172 -484t-481 -168h-69l30 148h60q217 0 331.5 123t114.5 360q0 135 -62.5 200.5t-185.5 65.5t-231 -43l-94 -440h-179l226 1071h743l-33 -151h-563l-69 -330q117 41 228 41z" />
    <glyph glyph-name="uni0496" unicode="&#x496;" horiz-adv-x="2095" 
d="M1975 1261.5q-50 -38.5 -117 -147.5l-91 -137q-51 -82 -107 -132t-134 -81q90 -37 157 -191l181 -407h127l-111 -520h-172l76 354h-58l-213 500q-42 98 -88 135t-137 37h-94l-143 -672h-189l144 672h-107q-86 0 -147 -42.5t-148 -150.5l-401 -479h-234l502 594
q68 82 121 122t119 56q-57 27 -91 80t-57 131l-49 184q-20 76 -53 108t-91 32t-96 -7l23 148q57 14 139 14t137.5 -45t88.5 -157l49 -179q35 -121 90 -184t164 -63h75l131 628h189l-135 -628h61q98 0 180 58t170 189l111 170q115 171 209 191t159 20t107 -14l-47 -156
q-40 8 -95 8t-105 -38.5z" />
    <glyph glyph-name="uni0497" unicode="&#x497;" horiz-adv-x="1601" 
d="M255 934q-38 0 -79 -8l12 133q12 2 36 7t65 5q83 0 125.5 -40.5t72.5 -133.5l43 -141q23 -78 65 -114t112 -36h53l98 465h170l-98 -465h39q76 0 129 37t102 111l94 141q59 92 125.5 134t154.5 42t109 -14l-43 -135q-40 8 -65 8q-59 0 -92 -38t-74 -97l-68 -103
q-66 -99 -163 -139q45 -18 71.5 -53t46.5 -82l117 -266h113l-92 -439h-154l59 287h-45l-137 326q-34 83 -73.5 117t-120.5 34h-62l-102 -477h-168l100 477h-63q-114 0 -197 -101q-84 -101 -164 -192.5t-157 -183.5h-207l327 385q63 72 113.5 113t108.5 59q-83 49 -111 154
l-33 123q-12 47 -33.5 73.5t-59.5 26.5z" />
    <glyph glyph-name="uni0498" unicode="&#x498;" horiz-adv-x="1263" 
d="M981 758q182 -96 182 -314q0 -213 -135 -341t-373 -140l-39 -76q96 -16 132 -61t36 -88q0 -109 -79.5 -149t-204.5 -40q-50 0 -135 15l22 108q74 -12 119 -12q129 0 129 80q0 65 -141 65h-43l86 160q-421 32 -435 426h181q16 -152 93.5 -211t244.5 -59q258 0 308 117.5
t50 222.5t-76 162t-213 57h-178l35 160h176q266 0 319.5 106.5t53.5 195.5t-72 144t-178 55q-190 0 -275 -51t-137 -186l-172 26q62 180 197 274.5t354 94.5t340 -97.5t121 -254.5q0 -293 -293 -389z" />
    <glyph glyph-name="uni0499" unicode="&#x499;" horiz-adv-x="1075" 
d="M524 -244q0 64 -135 64h-41l82 153q-255 19 -313 137.5t-64 202.5h168q14 -111 88 -154.5t197 -43.5t197.5 44t74.5 163q0 74 -50 119.5t-150 45.5h-216l29 131h219q167 0 207.5 66t40.5 128t-54 104t-180 42t-198 -42t-107 -134l-161 31q45 141 162.5 216t302.5 75
t299 -68t114 -191q0 -124 -64.5 -191.5t-162.5 -96.5q154 -69 154 -238q0 -324 -418 -348l-39 -75q92 -14 126 -55.5t34 -84.5q0 -104 -76 -143t-195 -39q-47 0 -129 14l21 109q52 -12 114 -12q61 0 92 15t31 56z" />
    <glyph glyph-name="uni049A" unicode="&#x49a;" horiz-adv-x="1359" 
d="M1248 1266.5q-45 -33.5 -105 -117.5l-105 -143q-59 -82 -119.5 -143.5t-150.5 -98.5q62 -23 100.5 -78t92.5 -174l157 -346h127l-110 -520h-170l73 354h-43l-221 492q-43 94 -95 137t-149 43h-110l-146 -672h-188l309 1462h189l-131 -626h75q113 0 193 62.5t158 170.5
l94 131q108 148 188 205t205 57q39 0 74 -6t41 -10l-47 -156q-30 10 -86 10q-55 0 -100 -33.5z" />
    <glyph glyph-name="uni049B" unicode="&#x49b;" horiz-adv-x="1069" 
d="M444 477h-104l-102 -477h-175l228 1071h176l-100 -465h86q66 0 113.5 33t101.5 115l98 149q91 138 162 153t119 15t104 -14l-43 -135q-40 8 -81 8q-40 0 -66.5 -25.5t-59.5 -77.5l-84 -129q-37 -55 -73.5 -87.5t-90.5 -57.5q49 -18 76 -55t47 -84l111 -262h110l-92 -439
h-157l59 287h-43l-150 369q-23 55 -57.5 81.5t-112.5 26.5z" />
    <glyph glyph-name="uni049C" unicode="&#x49c;" horiz-adv-x="1366" 
d="M1419 1462q39 0 74 -6t41 -10l-47 -156q-30 10 -69 10q-73 0 -117.5 -33.5t-104.5 -117.5l-104 -143q-59 -82 -120 -143.5t-151 -98.5q62 -23 100.5 -78t92.5 -174l235 -512h-200l-222 492q-31 68 -64.5 108.5t-82.5 58.5l-51 -245h-137l55 260h-127l-146 -674h-188
l309 1462h189l-133 -628h129l61 278h137l-53 -246q99 49 207 203l94 131q108 148 188 205t205 57z" />
    <glyph glyph-name="uni049D" unicode="&#x49d;" horiz-adv-x="1099" 
d="M987 1056q71 15 119 15t104 -14l-43 -135q-40 8 -80 8t-67 -25.5t-59 -77.5l-84 -129q-67 -99 -164 -145q49 -18 75.5 -55t47.5 -84l174 -414h-187l-149 369q-16 45 -42 70.5t-73 35.5l-45 -213h-117l43 217h-100l-102 -479h-175l228 1071h176l-100 -467h102l47 223h117
l-45 -209q66 25 139 136l98 149q91 138 162 153z" />
    <glyph glyph-name="uni049E" unicode="&#x49e;" horiz-adv-x="1355" 
d="M1291 1266.5q-45 -33.5 -105 -117.5l-105 -143q-59 -82 -119.5 -143.5t-150.5 -98.5q62 -23 100.5 -78t92.5 -174l235 -512h-201l-221 492q-43 96 -95 138t-149 42h-110l-146 -672h-188l227 1081h-166l31 158h170l47 223h189l-47 -223h215l-31 -158h-217l-51 -245h75
q113 0 193 62.5t158 170.5l94 131q108 148 188 205t205 57q39 0 74 -6t41 -10l-47 -156q-40 10 -91 10q-50 0 -95 -33.5z" />
    <glyph glyph-name="uni049F" unicode="&#x49f;" horiz-adv-x="1099" 
d="M504 477h-111l-102 -477h-174l166 786h-150l29 136h149l33 149h176l-33 -149h183l-29 -136h-182l-39 -180h92q66 0 114 33t101 115l98 149q91 138 162 153t119 15t104 -14l-43 -135q-40 8 -80 8t-67 -25.5t-59 -77.5l-84 -129q-67 -99 -164 -145q49 -18 75.5 -55
t47.5 -84l174 -414h-187l-149 369q-23 55 -57.5 81.5t-112.5 26.5z" />
    <glyph glyph-name="uni04A0" unicode="&#x4a0;" horiz-adv-x="1478" 
d="M1414 1264.5q-47 -35.5 -103 -115.5l-105 -143q-59 -82 -119.5 -143.5t-150.5 -98.5q62 -23 102 -80.5t90 -171.5l236 -512h-201l-221 492q-43 96 -95 138t-149 42h-110l-146 -672h-188l274 1296h-299l35 166h488l-131 -626h75q113 0 193 62.5t158 170.5l94 131
q108 148 188 205t186 57t134 -16l-47 -156q-30 10 -86 10q-55 0 -102 -35.5z" />
    <glyph glyph-name="uni04A1" unicode="&#x4a1;" horiz-adv-x="1150" 
d="M1138 930q-40 0 -67 -25.5t-59 -77.5l-84 -129q-67 -99 -164 -145q49 -18 75.5 -55t47.5 -84l174 -414h-187l-149 369q-23 55 -57.5 81.5t-112.5 26.5h-104l-103 -477h-174l195 922h-219l32 149h398l-5 -4l-98 -461h86q66 0 114 33t101 115l99 149q91 138 162 153t117 15
t106 -14l-43 -135q-41 8 -81 8z" />
    <glyph glyph-name="uni04A2" unicode="&#x4a2;" horiz-adv-x="1464" 
d="M1014 0l141 668h-737l-142 -668h-190l309 1462h191l-131 -618h737l131 618h188l-272 -1296h141l-110 -520h-172l76 354h-160z" />
    <glyph glyph-name="uni04A3" unicode="&#x4a3;" horiz-adv-x="1210" 
d="M469 1071l-92 -436h553l92 436h178l-194 -919h122l-92 -439h-157l61 287h-145l100 483h-553l-100 -483h-179l228 1071h178z" />
    <glyph glyph-name="uni04A4" unicode="&#x4a4;" horiz-adv-x="1601" 
d="M1014 0l141 668h-739l-142 -668h-188l309 1462h189l-131 -618h739l131 618h485l-36 -166h-295l-275 -1296h-188z" />
    <glyph glyph-name="uni04A5" unicode="&#x4a5;" horiz-adv-x="1300" 
d="M469 1071l-92 -436h553l92 436h412l-33 -149h-234l-194 -922h-178l100 483h-553l-100 -483h-179l228 1071h178z" />
    <glyph glyph-name="uni04A6" unicode="&#x4a6;" horiz-adv-x="2187" 
d="M1642 901q231 0 350 -134t119 -364q0 -330 -193 -531.5t-556 -201.5h-90l35 164h71q248 0 395.5 143.5t147.5 415.5q0 350 -330 350q-158 0 -301 -53l-145 -690h-189l273 1296h-682l-273 -1296h-188l309 1462h1059l-129 -612q160 51 317 51z" />
    <glyph glyph-name="uni04A7" unicode="&#x4a7;" horiz-adv-x="1789" 
d="M1297 631q205 0 307 -114.5t102 -293.5q0 -303 -171 -470t-484 -167h-68l31 148h57q217 0 333 123t116 360q0 135 -62.5 200.5t-185.5 65.5t-234 -43l-92 -440h-178l193 920h-525l-194 -920h-179l228 1071h883l-105 -481q116 41 228 41z" />
    <glyph glyph-name="uni04A8" unicode="&#x4a8;" horiz-adv-x="1693" 
d="M1473 788q0 236 -187 236q-141 0 -227 -145t-86 -326q0 -257 137 -371q152 80 257.5 242.5t105.5 363.5zM1355 -39q-149 0 -272 66q-140 -64 -296 -64q-288 0 -452.5 158.5t-164.5 435.5q0 182 53 352t157.5 301t260.5 210t331 79t308 -63l-72 -148q-104 49 -243 49
q-138 0 -253.5 -67.5t-231 -226.5t-115.5 -465q0 -221 108.5 -340t298.5 -119q117 0 172 20q-147 178 -147 411t95 370t191.5 195.5t204.5 58.5q188 0 272.5 -109t84.5 -299q0 -189 -102.5 -354.5t-276.5 -284.5q41 -14 134 -14t187 28l23 -143q-106 -37 -255 -37z" />
    <glyph glyph-name="uni04A9" unicode="&#x4a9;" horiz-adv-x="1294" 
d="M945 713q-97 0 -156.5 -92.5t-59.5 -217.5q0 -166 98 -251q115 59 175.5 167.5t60.5 249.5q0 66 -31 105t-87 39zM123 424q0 283 157.5 481.5t436.5 198.5q110 0 215 -49l-60 -129q-76 35 -172 35q-184 0 -293.5 -151t-109.5 -372q0 -148 75.5 -242t211.5 -94
q64 0 102 11q-51 53 -78.5 131t-27.5 158q0 177 100.5 308.5t275.5 131.5q117 0 187.5 -74t70.5 -195q0 -310 -268 -473q44 -6 102 -6t132 27l26 -121q-156 -58 -265.5 -34t-147.5 48q-104 -47 -220 -47q-212 0 -331 127.5t-119 329.5z" />
    <glyph glyph-name="uni04AA" unicode="&#x4aa;" horiz-adv-x="1454" 
d="M643 -195h-43l86 162q-240 20 -378 185t-138 432q0 182 52 348q108 344 394 492q143 75 324 75q250 0 381 -130t152 -355l-189 -31q-23 176 -102 264q-80 88 -252 88q-251 0 -406 -211t-155 -524q0 -208 100 -340q100 -133 292 -133q191 0 295 94q103 94 138 248h205
q-114 -475 -594 -504l-39 -78q96 -16 132 -61t36 -88q0 -109 -80 -149t-205 -40q-47 0 -135 15l23 108q73 -12 127 -12q121 0 120 80q0 65 -141 65z" />
    <glyph glyph-name="uni04AB" unicode="&#x4ab;" horiz-adv-x="1144" 
d="M580 -244q0 64 -136 64h-41l82 153q-174 20 -269 143t-95 296q0 329 169 510.5t423 181.5q193 0 290.5 -100.5t110.5 -262.5l-176 -26q-14 113 -49 158t-79 64t-121 19t-148.5 -37.5t-151.5 -145.5t-80 -338q0 -229 97.5 -274.5t168.5 -45.5q133 0 205 66.5t101 170.5
h182q-92 -362 -463 -383l-39 -73q92 -14 126 -55.5t34 -84.5q0 -104 -76 -143t-194 -39q-50 0 -129 14l20 109q53 -12 114 -12q62 0 93 15t31 56z" />
    <glyph glyph-name="uni04AC" unicode="&#x4ac;" horiz-adv-x="1230" 
d="M909 1294l-237 -1128h143l-113 -520h-176l76 354h-156l275 1294h-485l36 168h1155l-34 -168h-484z" />
    <glyph glyph-name="uni04AD" unicode="&#x4ad;" horiz-adv-x="964" 
d="M500 920h-373l33 151h917l-33 -151h-366l-162 -768h125l-92 -439h-158l60 287h-148z" />
    <glyph glyph-name="uni04AE" unicode="&#x4ae;" horiz-adv-x="1255" 
d="M262 1462h203l250 -676l534 676h213l-680 -841l-131 -621h-188l129 621z" />
    <glyph glyph-name="uni04AF" unicode="&#x4af;" horiz-adv-x="1071" 
d="M301 -395l88 418l-244 1048h203l170 -844l490 844h204l-645 -1048l-88 -418h-178z" />
    <glyph glyph-name="uni04B0" unicode="&#x4b0;" horiz-adv-x="1255" 
d="M754 487l-103 -487h-188l102 487h-311l35 158h295l-322 817h203l250 -676l536 676h211l-659 -817h295l-35 -158h-309z" />
    <glyph glyph-name="uni04B1" unicode="&#x4b1;" horiz-adv-x="1071" 
d="M301 -395l84 395h-252l33 147h194l-213 924h201l170 -844l490 844h204l-569 -924h207l-31 -147h-256l-84 -395h-178z" />
    <glyph glyph-name="uni04B2" unicode="&#x4b2;" horiz-adv-x="1316" 
d="M1001 0l-294 625l-543 -625h-215l678 776l-332 686h209l256 -557l489 557h213l-618 -702l291 -598h116l-98 -473h-166l66 311h-52z" />
    <glyph glyph-name="uni04B3" unicode="&#x4b3;" horiz-adv-x="1058" 
d="M862 152h117l-94 -439h-156l59 287h-47l-204 438l-379 -438h-209l510 573l-250 498h197l178 -383l338 383h202l-458 -516z" />
    <glyph glyph-name="uni04B4" unicode="&#x4b4;" horiz-adv-x="1624" 
d="M307 0l273 1298h-357l35 164h979l-37 -164h-430l-240 -1132h676l273 1296h190l-274 -1296h143l-111 -520h-172l76 354h-1024z" />
    <glyph glyph-name="uni04B5" unicode="&#x4b5;" horiz-adv-x="1255" 
d="M539 920l-162 -768h504l192 919h180l-194 -919h125l-92 -439h-158l59 287h-827l194 920h-215l31 151h676l-31 -151h-282z" />
    <glyph glyph-name="uni04B6" unicode="&#x4b6;" horiz-adv-x="1335" 
d="M659 580q-296 0 -359.5 130t-65.5 213t14 150l82 389h190l-74 -344q-6 -33 -13 -70.5t-7 -82.5q0 -115 65.5 -171.5t233.5 -56.5t319 60l148 665h190l-286 -1296h143l-111 -520h-178l76 354h-158l142 645q-175 -65 -351 -65z" />
    <glyph glyph-name="uni04B7" unicode="&#x4b7;" horiz-adv-x="1089" 
d="M516 391q-162 0 -259 74t-97 221q0 53 10 100l61 285h179l-56 -258q-12 -59 -12 -102q0 -88 51 -129t165 -41t239 41l104 489h178l-194 -919h127l-92 -439h-160l61 287h-147l90 434q-142 -43 -248 -43z" />
    <glyph glyph-name="uni04B8" unicode="&#x4b8;" horiz-adv-x="1323" 
d="M233 936q0 71 15 137l82 389h190l-74 -348q-6 -33 -13 -67.5t-6 -104.5q2 -167 200 -201l67 277h154l-68 -281q134 7 279 58l147 667h191l-324 -1462h-190l143 645q-140 -51 -281 -59l-61 -260h-156l64 258q-162 16 -260.5 104t-98.5 248z" />
    <glyph glyph-name="uni04B9" unicode="&#x4b9;" horiz-adv-x="1083" 
d="M160 686q0 53 10 100l61 285h179l-56 -262q-14 -68 -14 -122q0 -120 135 -146l47 217h137l-47 -221q112 9 197 41l106 493h179l-228 -1071h-178l92 438q-87 -32 -196 -41l-45 -209h-138l43 211q-131 16 -207.5 87t-76.5 200z" />
    <glyph glyph-name="uni04BA" unicode="&#x4ba;" horiz-adv-x="1308" 
d="M455 848q164 65 353 65t310.5 -94.5t114 -227t-18.5 -173.5l-88 -418h-188l78 373q16 76 16 119q12 140 -53 203t-231 63t-324 -58l-150 -700h-188l309 1462h189z" />
    <glyph glyph-name="uni04BB" unicode="&#x4bb;" horiz-adv-x="1167" 
d="M817 1104q147 0 225 -80t78 -223q0 -55 -12 -117l-145 -684h-179l140 659q14 68 14 105q0 186 -174 186q-125 0 -238 -88q-55 -43 -94 -94t-55 -129l-135 -639h-179l310 1462h178l-117 -549q169 191 383 191z" />
    <glyph glyph-name="uni04BC" unicode="&#x4bc;" horiz-adv-x="1824" 
d="M1620 946q0 182 -91 287.5t-287 105.5q-195 0 -339.5 -142.5t-193.5 -377.5h905q6 43 6 127zM317 951q0 -132 197 -132q62 310 266.5 495t476.5 185t412.5 -153t140.5 -416q0 -99 -14 -209l-8 -55h-1102q-2 -27 -2 -32v-61q0 -202 108.5 -324t307.5 -122q253 0 327 112.5
t93 168.5h198q-70 -213 -224.5 -329t-401.5 -116q-294 0 -446 172.5t-152 448.5v30q0 29 2 52q-154 2 -246 65.5t-92 185.5t88 242l135 -45q-64 -95 -64 -163z" />
    <glyph glyph-name="uni04BD" unicode="&#x4bd;" horiz-adv-x="1363" 
d="M1137 694q0 121 -60.5 197t-192.5 76t-228.5 -83t-135.5 -257h613q4 32 4 67zM209 738q0 -66 37 -86.5t96 -22.5q49 224 201 349.5t352 125.5t308 -116t108 -294q0 -107 -15 -166l-8 -34h-790q-2 -18 -2 -24v-58q0 -126 75 -213.5t209 -87.5t197 48t94 138h174
q-72 -245 -220 -287.5t-256 -42.5q-205 0 -327.5 129t-122.5 324v28q0 29 3 48q-173 7 -212.5 82.5t-39.5 125.5q0 105 63 195l119 -37q-43 -58 -43 -124z" />
    <glyph glyph-name="uni04BE" unicode="&#x4be;" horiz-adv-x="1824" 
d="M1620 946q0 182 -91 287.5t-287 105.5q-195 0 -339.5 -142.5t-193.5 -377.5h905q6 43 6 127zM317 951q0 -132 197 -132q62 310 266.5 495t476.5 185t412.5 -153t140.5 -416q0 -99 -14 -209l-8 -55h-1102q-2 -27 -2 -32v-61q0 -202 108.5 -324t307.5 -122q253 0 327 112.5
t93 168.5h198q-136 -424 -581 -443l-68 -319h-178l70 327q-225 34 -346 199.5t-121 411.5v30q0 29 2 52q-154 2 -246 65.5t-92 185.5t88 242l135 -45q-64 -95 -64 -163z" />
    <glyph glyph-name="uni04BF" unicode="&#x4bf;" horiz-adv-x="1363" 
d="M1137 694q0 121 -60.5 197t-192.5 76t-228.5 -83t-135.5 -257h613q4 32 4 67zM209 738q0 -66 37 -86.5t96 -22.5q49 224 201 349.5t352 125.5t308 -116t108 -294q0 -107 -15 -166l-8 -34h-790q-2 -18 -2 -24v-58q0 -126 75 -213.5t209 -87.5t197 48t94 138h174
q-43 -141 -137 -227t-274 -101l-54 -256h-159l55 262q-167 27 -262 151.5t-95 293.5v28q0 29 3 48q-173 7 -212.5 82.5t-39.5 125.5q0 105 63 195l119 -37q-43 -58 -43 -124z" />
    <glyph glyph-name="uni04C0" unicode="&#x4c0;" horiz-adv-x="512" 
d="M88 0l309 1462h189l-310 -1462h-188z" />
    <glyph glyph-name="uni04C1" unicode="&#x4c1;" horiz-adv-x="2054" 
d="M999 1831q0 26 7 59h135q-4 -16 -4 -23v-18q-1 -49 33 -88t125 -39t146 39q54 39 81 129h137q-65 -288 -369 -286q-135 0 -213 57t-78 170zM2100 1300q-34 0 -62 -6q-56 -12 -112 -83q-30 -36 -68 -97l-91 -137q-51 -82 -107 -132t-134 -81q90 -37 157 -191l254 -573
h-211l-213 500q-42 99 -89 136q-46 36 -136 36h-94l-143 -672h-189l144 672h-107q-88 0 -147 -42t-148 -151l-401 -479h-234l502 594q68 82 121 122t119 56q-57 27 -91 80t-57 131l-49 184q-20 76 -53 108t-91 32t-96 -7l23 148q57 14 139 14t137 -45t89 -157l49 -179
q35 -121 90 -184t164 -63h75l131 628h189l-135 -628h61q98 0 180 58t170 189l111 170q115 171 256 201q47 10 112 10t107 -14l-47 -156q-41 8 -75 8z" />
    <glyph glyph-name="uni04C2" unicode="&#x4c2;" horiz-adv-x="1579" 
d="M807 1480v-18q0 -49 34 -88t125 -39t145 39t81 129h137q-31 -137 -122 -212t-236 -75t-223 58q-78 57 -78 170q0 17 6 59h135q-4 -16 -4 -23zM289 1071q119 0 168 -98q16 -33 30 -76l43 -141q23 -78 65 -114t112 -36h53l98 465h170l-98 -465h39q76 0 129 37t102 111
l94 141q59 92 125 134t156 42t108 -14l-43 -135q-40 8 -65 8q-59 0 -92 -38t-74 -97l-68 -103q-66 -99 -163 -139q46 -18 72 -53q26 -34 60 -110t78 -180q46 -104 93 -210h-187l-137 326q-35 84 -64 108q-52 43 -130 43h-62l-102 -477h-168l100 477h-63q-114 0 -197 -101
q-84 -100 -164 -192t-157 -184h-207l327 385q64 72 114 113t108 59q-83 49 -111 154l-33 123q-26 100 -92 100q-36 0 -80 -8l12 133q12 2 36 7t65 5z" />
    <glyph glyph-name="uni04C3" unicode="&#x4c3;" horiz-adv-x="1329" 
d="M1244.5 1267q-45.5 -33 -105.5 -118l-125 -170q-99 -133 -180 -176q201 -27 306 -153.5t105 -293.5q0 -322 -197 -504t-561 -182h-77l36 166h76q246 0 388.5 125t142.5 367q0 157 -94.5 251.5t-266.5 94.5h-272l-146 -674h-188l309 1462h189l-133 -628h88q104 0 182 65.5
t153 169.5l123 170q124 177 218 200t160 23t102 -16l-47 -156q-20 10 -80 10t-105.5 -33z" />
    <glyph glyph-name="uni04C4" unicode="&#x4c4;" horiz-adv-x="1079" 
d="M1021 930q-36 0 -63.5 -25.5t-62.5 -77.5l-88 -131q-49 -76 -115 -112q141 -33 219 -137.5t78 -245.5q0 -291 -161.5 -453t-481.5 -162h-76l31 148h66q221 0 330.5 118.5t109.5 342.5q0 131 -75 205.5t-218 74.5h-172l-100 -475h-179l226 1071h178l-98 -461h75
q68 0 115 31t100 113l101 149q67 102 122.5 135t161.5 33q44 0 103 -14l-41 -137q-49 10 -85 10z" />
    <glyph glyph-name="uni04C5" unicode="&#x4c5;" horiz-adv-x="1503" 
d="M16 -12h-47l33 166h29q72 0 135 27.5t155 136t214 495.5l202 649h826l-275 -1296h135q-41 -347 -350 -545l-102 123q72 49 135 116.5t94 139.5h-137l276 1300h-462l-183 -585q-129 -413 -283.5 -570t-394.5 -157z" />
    <glyph glyph-name="uni04C6" unicode="&#x4c6;" horiz-adv-x="1181" 
d="M-23 143q117 0 192.5 100.5t166.5 372.5l147 455h697l-195 -921l2 2h115q-30 -236 -122.5 -323t-158.5 -130l-96 104q135 98 176 197h-127l195 926h-357l-120 -369q-99 -311 -212 -439t-303 -128h-47l29 153h18z" />
    <glyph glyph-name="uni04C7" unicode="&#x4c7;" horiz-adv-x="1439" 
d="M816 -260q73 0 115 37t62 135l162 756h-737l-142 -668h-190l309 1462h191l-131 -618h737l131 618h188l-325 -1538q-40 -181 -121.5 -262.5t-233.5 -81.5q-90 0 -198 41l51 141q59 -22 132 -22z" />
    <glyph glyph-name="uni04C8" unicode="&#x4c8;" horiz-adv-x="1189" 
d="M608 -268q70 0 109 44t57 128l121 579h-553l-100 -483h-179l228 1071h178l-92 -436h553l92 436h178l-244 -1151q-40 -180 -110.5 -260t-227.5 -80q-103 0 -198 41l53 137q65 -26 135 -26z" />
    <glyph glyph-name="uni04C9" unicode="&#x4c9;" horiz-adv-x="1458" 
d="M1014 0l141 668h-737l-142 -668h-190l309 1462h191l-131 -618h737l131 618h188l-274 -1296h137q-40 -344 -350 -545l-104 123q72 49 136 116.5t93 139.5h-135z" />
    <glyph glyph-name="uni04CA" unicode="&#x4ca;" horiz-adv-x="1200" 
d="M1122 152q-25 -166 -87 -265.5t-195 -187.5l-95 104q134 98 177 197h-127l100 483h-553l-100 -483h-179l228 1071h178l-92 -436h553l92 436h178l-194 -919h116z" />
    <glyph glyph-name="uni04CB" unicode="&#x4cb;" horiz-adv-x="1308" 
d="M659 580q-296 0 -359.5 130t-65.5 213t14 150l82 389h190l-74 -344q-6 -33 -13 -70.5t-7 -82.5q0 -115 65.5 -171.5t233.5 -56.5t319 60l148 665h190l-323 -1462h-160l-74 -354h-176l113 520h141v-8l107 487q-175 -65 -351 -65z" />
    <glyph glyph-name="uni04CC" unicode="&#x4cc;" horiz-adv-x="1069" 
d="M342 711q0 -170 200 -170q98 0 150.5 12t104.5 29l104 489h178l-227 -1071h-145l-60 -287h-160l95 439h123l59 282q-142 -43 -248 -43q-162 0 -259 74t-97 221q0 53 10 100l61 285h179l-56 -258q-12 -59 -12 -102z" />
    <glyph glyph-name="uni04CD" unicode="&#x4cd;" horiz-adv-x="1753" 
d="M711 0l-209 1149l-242 -1149h-174l309 1462h230l211 -1237l737 1237h233l-274 -1296h135q-41 -345 -348 -545l-105 123q72 49 135.5 116.5t94.5 139.5h-123l246 1153l-695 -1153h-161z" />
    <glyph glyph-name="uni04CE" unicode="&#x4ce;" horiz-adv-x="1445" 
d="M299 1071h207l174 -885l553 885h215l-201 -919h117q-25 -166 -87.5 -266t-195.5 -187l-94 104q135 98 176 197h-114l178 807l-516 -807h-140l-161 819l-181 -819h-166z" />
    <glyph glyph-name="uni04CF" unicode="&#x4cf;" horiz-adv-x="512" 
d="M88 0l309 1462h189l-310 -1462h-188z" />
    <glyph glyph-name="uni04D0" unicode="&#x4d0;" horiz-adv-x="1380" 
d="M537 571h512l-115 678zM1077 1462l258 -1462h-194l-70 408h-625l-239 -408h-205l879 1462h196zM848 1838v-17q0 -49 34 -88t125 -39t145 39t81 129h137q-65 -287 -369 -287q-135 0 -213 57t-77 170q0 15 6 60h135q-4 -16 -4 -24z" />
    <glyph glyph-name="uni04D1" unicode="&#x4d1;" horiz-adv-x="1101" 
d="M422 1427q0 15 6 60h135q-4 -15 -4 -23v-18q0 -49 34 -88t125 -39t145 39t81 129h137q-65 -287 -368 -287q-135 0 -213 57t-78 170zM242 268q0 -62 41 -104q41 -43 124 -43q155 0 265 84q109 84 133 207l26 129l-176 -9q-119 -6 -198 -24q-153 -34 -195 -131
q-20 -47 -20 -109zM874 782q0 181 -212 183q-128 0 -192 -35t-99 -127l-162 20q49 154 163 217q114 64 303 64t281 -84t93 -232q0 -56 -15 -126l-139 -662h-174l31 145q-74 -76 -162 -123t-225 -47t-223 74q-85 74 -85 198q0 123 48 199q91 144 321 189q109 20 231 24l201 7
l6 28q10 51 10 88z" />
    <glyph glyph-name="uni04D2" unicode="&#x4d2;" horiz-adv-x="1380" 
d="M483 571h512l-114 678zM1024 1462l258 -1462h-195l-69 408h-625l-239 -408h-205l878 1462h197zM1030 1618l45 209h189l-45 -209h-189zM662 1618l45 209h186l-45 -209h-186z" />
    <glyph glyph-name="uni04D3" unicode="&#x4d3;" horiz-adv-x="1101" 
d="M797 1260l41 202h182l-43 -202h-180zM438 1260l41 202h183l-44 -202h-180zM242 268q0 -62 41 -104q41 -43 124 -43q155 0 265 84q109 84 133 207l26 129l-176 -9q-119 -6 -198 -24q-153 -34 -195 -131q-20 -47 -20 -109zM874 782q0 181 -212 183q-128 0 -192 -35
t-99 -127l-162 20q49 154 163 217q114 64 303 64t281 -84t93 -232q0 -56 -15 -126l-139 -662h-174l31 145q-74 -76 -162 -123t-225 -47t-223 74q-85 74 -85 198q0 123 48 199q91 144 321 189q109 20 231 24l201 7l6 28q10 51 10 88z" />
    <glyph glyph-name="uni04D4" unicode="&#x4d4;" horiz-adv-x="2101" 
d="M651 647h512l140 649h-142zM1128 485h-602l-383 -485h-217l1161 1462h1141l-33 -166h-712l-99 -458h672l-35 -168h-671l-107 -504h754l-62 -166h-909z" />
    <glyph glyph-name="uni04D5" unicode="&#x4d5;" horiz-adv-x="1826" 
d="M1355 967q-128 0 -223.5 -83t-134.5 -257h600q6 37 7 82q0 117 -60.5 187.5t-188.5 70.5zM242 271q0 -65 40 -107.5t133 -42.5q172 0 260 79.5t116 215.5l26 125l-182 -9q-223 -12 -308 -71t-85 -190zM977 918q145 186 379 186q209 0 313.5 -114.5t104.5 -293.5
q0 -96 -13 -161l-8 -41h-774v-70q0 -136 70.5 -224.5t202.5 -88.5t192.5 49t91.5 137h174q-72 -245 -217 -287.5t-250 -42.5q-291 0 -391 246q-98 -128 -201.5 -183t-260.5 -55t-246 76t-89 201t47.5 198.5t153.5 133t379 73.5l207 9l8 55q4 28 4 49q0 86 -46 140.5
t-164 54.5t-179.5 -35t-97.5 -127l-162 20q49 154 160.5 217.5t291.5 63.5q254 0 320 -186z" />
    <glyph glyph-name="uni04D6" unicode="&#x4d6;" horiz-adv-x="1216" 
d="M551 1296l-98 -458h716l-34 -168h-717l-107 -504h799l-61 -166h-961l309 1462h946l-34 -166h-758zM592 1802q0 15 6 60h135q-4 -16 -4 -24v-17q0 -49 34 -88t125 -39t145 39t81 129h137q-65 -287 -368 -287q-135 0 -213 57t-78 170z" />
    <glyph glyph-name="uni04D7" unicode="&#x4d7;" horiz-adv-x="1167" 
d="M430 1436q0 14 6 59h135q-4 -15 -4 -23v-18q0 -49 34 -88t125 -39t145 39t81 129h138q-65 -287 -369 -287q-135 0 -213 58t-78 170zM301 453v-41q0 -127 76 -215t209 -87t196 49t95 138h174q-73 -246 -290 -307q-79 -23 -187 -23t-190 36q-168 73 -229 241
q-30 82 -30 210t45 255q91 256 308 349q108 46 220 46q204 0 312 -117t106 -293q0 -106 -14 -166l-8 -34h-791q-2 -18 -2 -41zM942 694q0 121 -60 197q-61 76 -193 76t-228 -83t-135 -257h612q4 32 4 67z" />
    <glyph glyph-name="uni04D8" unicode="&#x4d8;" horiz-adv-x="1523" 
d="M401 530q0 -188 95.5 -297.5t287.5 -109.5t324.5 139t183.5 381h-884q-7 -81 -7 -113zM926 1499q279 0 431 -172.5t152 -456.5q0 -393 -151.5 -580.5t-289.5 -257t-290 -69.5q-276 0 -418.5 160.5t-142.5 408.5q0 105 14 205l9 60h1077q2 27 2 33v69q0 300 -147.5 369
t-253.5 69q-170 0 -266.5 -70.5t-159.5 -203.5l-175 45q164 391 609 391z" />
    <glyph glyph-name="uni04D9" unicode="&#x4d9;" horiz-adv-x="1179" 
d="M299 371q0 -117 61.5 -191t205.5 -74t238.5 90.5t127.5 249.5h-627q-6 -35 -6 -75zM952 664q0 122 -71 209.5t-204 87.5q-132 0 -206 -49.5t-121 -151.5l-157 37q66 156 185.5 231.5t318.5 75.5t315 -133.5t116 -333.5q0 -307 -161.5 -488.5t-415.5 -181.5
q-204 0 -314 113t-110 309q0 78 23 191h798q4 32 4 84z" />
    <glyph glyph-name="uni04DA" unicode="&#x4da;" horiz-adv-x="1529" 
d="M406 530q0 -188 95 -298t287 -110t324 140q133 139 184 381h-884q-6 -69 -6 -113zM782 -37q-152 0 -252 44q-204 88 -274 302q-35 104 -35 220t15 208l8 60h1077q2 27 2 51v51q0 296 -219 403q-76 36 -182 35q-170 0 -267 -70q-96 -71 -159 -204l-174 45q164 391 608 391
q281 0 433 -174t150 -455q0 -392 -204 -646q-99 -122 -237 -192t-290 -69zM1090 1618l45 209h188l-45 -209h-188zM721 1618l45 209h186l-45 -209h-186z" />
    <glyph glyph-name="uni04DB" unicode="&#x4db;" horiz-adv-x="1179" 
d="M299 371q0 -117 61 -191t206 -74t239 90t127 250h-627q-6 -35 -6 -75zM952 664q0 122 -71 209q-71 88 -204 88q-132 1 -206 -49t-121 -152l-157 37q65 155 185 231t319 76t316 -134t115 -333q0 -306 -162 -488t-415 -182q-203 -1 -314 113q-110 114 -110 309q0 78 23 191
h798q4 32 4 84zM825 1260l41 202h183l-43 -202h-181zM467 1260l41 202h182l-43 -202h-180z" />
    <glyph glyph-name="uni04DC" unicode="&#x4dc;" horiz-adv-x="2054" 
d="M2100 1300q-34 0 -62 -6q-56 -12 -112 -83q-30 -36 -68 -97l-91 -137q-51 -82 -107 -132t-134 -81q90 -37 157 -191l254 -573h-211l-213 500q-42 99 -89 136q-46 36 -136 36h-94l-143 -672h-189l144 672h-107q-88 0 -147 -42t-148 -151l-401 -479h-234l502 594
q68 82 121 122t119 56q-57 27 -91 80t-57 131l-49 184q-20 76 -53 108t-91 32t-96 -7l23 148q57 14 139 14t137 -45t89 -157l49 -179q35 -121 90 -184t164 -63h75l131 628h189l-135 -628h61q98 0 180 58t170 189l111 170q115 171 256 201q47 10 112 10t107 -14l-47 -156
q-41 8 -75 8zM1382 1618l45 209h189l-45 -209h-189zM1014 1618l45 209h186l-45 -209h-186z" />
    <glyph glyph-name="uni04DD" unicode="&#x4dd;" horiz-adv-x="1579" 
d="M1065 1260l41 202h182l-43 -202h-180zM707 1260l41 202h182l-43 -202h-180zM289 1071q119 0 168 -98q16 -33 30 -76l43 -141q23 -78 65 -114t112 -36h53l98 465h170l-98 -465h39q76 0 129 37t102 111l94 141q59 92 125 134t156 42t108 -14l-43 -135q-40 8 -65 8
q-59 0 -92 -38t-74 -97l-68 -103q-66 -99 -163 -139q46 -18 72 -53q26 -34 60 -110t78 -180q46 -104 93 -210h-187l-137 326q-35 84 -64 108q-52 43 -130 43h-62l-102 -477h-168l100 477h-63q-114 0 -197 -101q-84 -100 -164 -192t-157 -184h-207l327 385q64 72 114 113
t108 59q-83 49 -111 154l-33 123q-26 100 -92 100q-36 0 -80 -8l12 133q12 2 36 7t65 5z" />
    <glyph glyph-name="uni04DE" unicode="&#x4de;" horiz-adv-x="1263" 
d="M987 758q182 -96 182 -316q0 -104 -39 -197q-78 -186 -285 -252q-101 -32 -227 -32q-493 0 -509 430h180q15 -151 93 -210q78 -60 245 -60q358 0 358 328q0 117 -76 174t-213 57h-178l35 160h176q265 0 345 157q28 55 28 145t-72 144q-72 55 -177 55q-191 0 -276 -52
q-86 -52 -137 -185l-172 26q62 181 199 276t354 94t338 -99t121 -254q0 -294 -293 -389zM954 1618l45 209h189l-45 -209h-189zM586 1618l45 209h186l-45 -209h-186z" />
    <glyph glyph-name="uni04DF" unicode="&#x4df;" horiz-adv-x="1075" 
d="M963 315q0 -173 -125 -259.5t-342 -86.5q-298 0 -367.5 126t-75.5 218h168q14 -111 88 -154.5t197 -43.5t197.5 44t74.5 163q0 74 -50 119.5t-150 45.5h-216l29 131h219q167 0 207.5 66t40.5 128t-54 104t-180 42t-198 -42t-107 -134l-161 31q45 141 162.5 216t302.5 75
t299 -68t114 -191q0 -124 -64.5 -191.5t-162.5 -96.5q154 -69 154 -242zM760 1260l41 202h182l-43 -202h-180zM401 1260l41 202h183l-43 -202h-181z" />
    <glyph glyph-name="uni04E0" unicode="&#x4e0;" horiz-adv-x="1198" 
d="M569 121q369 0 369 342q0 117 -77 181.5t-222 64.5h-190l28 135l508 452h-696l33 166h938l-29 -145l-539 -469q307 -13 369.5 -148.5t62.5 -243.5t-38.5 -203t-150.5 -192.5t-372 -97.5t-384 116t-126 312h176q12 -147 96.5 -208.5t243.5 -61.5z" />
    <glyph glyph-name="uni04E1" unicode="&#x4e1;" horiz-adv-x="1009" 
d="M905 80q0 -242 -131.5 -371t-361.5 -129q-459 0 -475 375h169q14 -127 89 -179t215 -52t227.5 81.5t87.5 257.5q0 125 -77 195t-220 70h-172l18 129l510 471h-598l29 143h829l-22 -117l-545 -491q195 -10 311.5 -104.5t116.5 -278.5z" />
    <glyph glyph-name="uni04E2" unicode="&#x4e2;" horiz-adv-x="1411" 
d="M989 0l246 1141l-971 -1141h-178l311 1462h185l-246 -1140l969 1140h180l-311 -1462h-185zM698 1780h598l-32 -152h-598z" />
    <glyph glyph-name="uni04E3" unicode="&#x4e3;" horiz-adv-x="1153" 
d="M616 1419h535l-31 -145h-534zM762 0l170 795l-696 -795h-173l228 1071h168l-172 -805l700 805h172l-229 -1071h-168z" />
    <glyph glyph-name="uni04E4" unicode="&#x4e4;" horiz-adv-x="1411" 
d="M989 0l246 1141l-971 -1141h-178l311 1462h185l-246 -1140l969 1140h180l-311 -1462h-185zM1053 1618l45 209h188l-45 -209h-188zM684 1618l45 209h186l-45 -209h-186z" />
    <glyph glyph-name="uni04E5" unicode="&#x4e5;" horiz-adv-x="1153" 
d="M846 1260l41 202h182l-43 -202h-180zM487 1260l41 202h183l-43 -202h-181zM762 0l170 795l-696 -795h-173l228 1071h168l-172 -805l700 805h172l-229 -1071h-168z" />
    <glyph glyph-name="uni04E6" unicode="&#x4e6;" horiz-adv-x="1566" 
d="M938 1335q-120 -1 -230 -67q-218 -132 -298 -416q-39 -136 -39 -254q0 -223 101 -347t292 -124q143 0 253 67q215 131 298 416q39 135 39 255t-26 203t-75 142t-123 92q-72 33 -192 33zM973 1499q254 0 416 -165q161 -165 161 -441q0 -172 -52 -339t-152 -298t-250 -212
t-342 -81q-260 0 -420 164t-160 442q0 172 53 339t155 298t252 212q149 81 339 81zM1090 1618l45 209h188l-45 -209h-188zM721 1618l45 209h186l-45 -209h-186z" />
    <glyph glyph-name="uni04E7" unicode="&#x4e7;" horiz-adv-x="1230" 
d="M844 1260l43 202h182l-43 -202h-182zM485 1260l43 202h181l-43 -202h-181zM725 956q-185 0 -299.5 -150.5t-114.5 -381.5q0 -141 66.5 -225t195.5 -84q183 0 299.5 148t116.5 384q0 141 -67.5 225t-196.5 84zM722 1104q211 0 332.5 -126.5t121.5 -305.5
q0 -331 -172.5 -518t-442.5 -187q-194 0 -316 126t-122 305q0 178 48 304.5t132 216t195.5 137.5t223.5 48z" />
    <glyph glyph-name="uni04E8" unicode="&#x4e8;" horiz-adv-x="1566" 
d="M607 1191.5q-147 -143.5 -204 -366.5h949q2 16 2 21v47q0 185 -96.5 313.5t-300.5 128.5q-203 0 -350 -143.5zM371 632v-52q0 -205 101.5 -329t301.5 -124q210 0 356 152t199 380h-954q-4 -23 -4 -27zM973 1499q259 0 419 -165.5t160 -440.5q0 -172 -52 -339t-153.5 -298
t-251 -212t-341.5 -81q-260 0 -421 165t-161 441q0 172 53.5 339t156.5 298t252 212t339 81z" />
    <glyph glyph-name="uni04E9" unicode="&#x4e9;" horiz-adv-x="1230" 
d="M722 1104q210 0 332 -125t122 -305q0 -333 -172.5 -520t-442.5 -187q-194 0 -316 126t-122 305q0 178 48 305.5t132 217t195.5 136.5t223.5 47zM585 113q135 0 241 97t145 265h-662q-3 -33 2 -84q17 -278 274 -278zM991 616q0 342 -266 342q-216 0 -295.5 -133
t-99.5 -209h661z" />
    <glyph glyph-name="uni04EA" unicode="&#x4ea;" horiz-adv-x="1566" 
d="M1354 858v35q0 183 -97 312q-97 130 -300 130t-350 -144t-204 -366h949q2 15 2 33zM371 620v-40q0 -205 101 -329q100 -124 302 -124q106 0 201 44q267 125 354 488h-954q-4 -23 -4 -39zM973 1499q256 0 418 -165q161 -165 161 -441q0 -172 -52 -339t-153 -298t-251 -212
t-342 -81q-260 0 -421 165t-161 441q0 172 53 339t157 298t252 212q149 81 339 81zM1090 1618l45 209h188l-45 -209h-188zM721 1618l45 209h186l-45 -209h-186z" />
    <glyph glyph-name="uni04EB" unicode="&#x4eb;" horiz-adv-x="1230" 
d="M854 1260l41 202h182l-43 -202h-180zM496 1260l41 202h182l-43 -202h-180zM722 1104q210 0 333 -125q121 -125 121 -306t-46 -307q-93 -253 -325 -352q-113 -47 -227 -47t-195 33q-260 107 -260 447q0 129 48 256q95 256 327 354q112 47 224 47zM586 113q136 0 241 97
q104 97 144 265h-662q-3 -33 2 -84q17 -278 275 -278zM991 616q0 342 -266 342q-215 0 -337 -202q-38 -63 -58 -140h661z" />
    <glyph glyph-name="uni04EC" unicode="&#x4ec;" horiz-adv-x="1454" 
d="M870 1499q266 0 418 -168t152 -457q0 -172 -45 -336.5t-138.5 -291.5t-238 -205t-353.5 -78t-360 124.5t-166 346.5h187q23 -154 118 -230.5t231 -76.5q240 0 375.5 149.5t180.5 393.5h-692l34 164h676q2 14 2 17v38q0 204 -103.5 325t-281.5 121q-319 0 -448 -305
l-178 43q170 426 630 426zM995 1618l45 209h189l-45 -209h-189zM629 1618l45 209h184l-43 -209h-186z" />
    <glyph glyph-name="uni04ED" unicode="&#x4ed;" horiz-adv-x="1146" 
d="M793 1260l41 202h182l-43 -202h-180zM434 1260l41 202h182l-43 -202h-180zM654 958q-222 0 -300 -196l-161 31q122 315 491 311q187 0 298 -123q110 -123 110 -309q0 -284 -138 -478q-160 -225 -452 -227q-173 0 -289 92q-117 92 -125 263h170q33 -209 258 -209
q150 0 244 100q93 100 123 262h-463l26 137h457q7 52 -2 113q-9 109 -71 171t-176 62z" />
    <glyph glyph-name="uni04EE" unicode="&#x4ee;" horiz-adv-x="1193" 
d="M243 119q77 0 129 36t109 124l84 127l-307 1056h199l229 -880l541 880h200l-714 -1134q-134 -212 -227 -288q-93 -75 -230 -76t-225 44l55 146q80 -35 157 -35zM586 1780h598l-33 -152h-598z" />
    <glyph glyph-name="uni04EF" unicode="&#x4ef;" horiz-adv-x="1073" 
d="M553 1419h534l-30 -145h-535zM16 -227q60 -21 116 -21t94 36q22 19 42 50t49 76l72 119l-233 1038h196l162 -846l481 846h209q-170 -276 -436 -715t-320 -525q-55 -87 -99 -133q-93 -97 -218 -95q-96 0 -166 32z" />
    <glyph glyph-name="uni04F0" unicode="&#x4f0;" horiz-adv-x="1193" 
d="M243 119q77 0 129 36t109 124l84 127l-307 1056h199l229 -880l541 880h200l-714 -1134q-134 -212 -227 -288q-93 -75 -230 -76t-225 44l55 146q80 -35 157 -35zM936 1618l45 209h188l-45 -209h-188zM567 1618l45 209h187l-45 -209h-187z" />
    <glyph glyph-name="uni04F1" unicode="&#x4f1;" horiz-adv-x="1073" 
d="M780 1260l41 202h183l-43 -202h-181zM422 1260l41 202h182l-43 -202h-180zM16 -227q60 -21 116 -21t94 36q22 19 42 50t49 76l72 119l-233 1038h196l162 -846l481 846h209q-170 -276 -436 -715t-320 -525q-55 -87 -99 -133q-93 -97 -218 -95q-96 0 -166 32z" />
    <glyph glyph-name="uni04F2" unicode="&#x4f2;" horiz-adv-x="1193" 
d="M243 119q77 0 129 36t109 124l84 127l-307 1056h199l229 -880l541 880h200l-714 -1134q-134 -212 -227 -288q-93 -75 -230 -76t-225 44l55 146q80 -35 157 -35zM911 1583l269 277h215l-314 -277h-170zM537 1583l270 277h215l-313 -277h-172z" />
    <glyph glyph-name="uni04F3" unicode="&#x4f3;" horiz-adv-x="1075" 
d="M16 -227q60 -21 116 -21t94 36q22 19 42 50t49 76l72 119l-233 1038h196l162 -846l481 846h209q-170 -276 -436 -715t-320 -525q-55 -87 -99 -133q-93 -97 -218 -95q-96 0 -166 32zM766 1210l274 291h209l-317 -291h-166zM403 1210l277 291h209l-320 -291h-166z" />
    <glyph glyph-name="uni04F4" unicode="&#x4f4;" horiz-adv-x="1308" 
d="M659 580q-294 0 -392 195q-43 86 -31 221q2 36 12 77l82 389h190l-74 -344q-6 -32 -13 -70t-7 -83q0 -115 66 -171t233 -56t319 59l148 665h190l-323 -1462h-191l142 645q-175 -65 -351 -65zM973 1618l45 209h188l-45 -209h-188zM604 1618l45 209h187l-45 -209h-187z" />
    <glyph glyph-name="uni04F5" unicode="&#x4f5;" horiz-adv-x="1069" 
d="M770 1260l41 202h182l-43 -202h-180zM412 1260l41 202h182l-43 -202h-180zM342 711q0 -170 200 -170q98 0 151 12q52 12 104 29l104 489h178l-227 -1071h-178l90 434q-142 -43 -248 -43q-162 0 -259 74t-97 221q0 53 10 100l61 285h179l-56 -258q-12 -59 -12 -102z" />
    <glyph glyph-name="uni04F6" unicode="&#x4f6;" horiz-adv-x="1073" 
d="M395 1462h889l-37 -166h-698l-238 -1128h146l-111 -522h-178l76 354h-158z" />
    <glyph glyph-name="uni04F7" unicode="&#x4f7;" horiz-adv-x="870" 
d="M997 1071l-32 -153h-529l-162 -766h125l-92 -439h-157l61 287h-148l226 1071h708z" />
    <glyph glyph-name="uni04F8" unicode="&#x4f8;" horiz-adv-x="1763" 
d="M612 160q213 0 316 80q102 80 102 270q0 119 -80 182t-233 64h-283l-125 -596h303zM709 915q235 0 371 -98t137 -305q0 -248 -152 -380t-473 -132h-506l309 1462h189l-115 -547h240zM1528 0h-189l310 1462h188zM1212 1618l45 209h189l-45 -209h-189zM844 1618l45 209h186
l-45 -209h-186z" />
    <glyph glyph-name="uni04F9" unicode="&#x4f9;" horiz-adv-x="1470" 
d="M995 1260l41 202h183l-43 -202h-181zM637 1260l41 202h182l-43 -202h-180zM627 678q184 0 281 -78t98 -225q0 -179 -117 -277t-357 -98h-469l228 1071h178l-82 -393h240zM551 147q141 1 206 53t64 171q0 73 -46 117t-144 44h-277l-82 -385h279zM1309 1071h180l-227 -1071
h-181z" />
    <glyph glyph-name="Wgrave" unicode="&#x1e80;" horiz-adv-x="1906" 
d="M1401 0h-197l-67 1223l-580 -1223h-190l-109 1462h209l51 -1202l569 1196h201l66 -1196l557 1202h207zM1167 1583l-229 277h213l186 -277h-170z" />
    <glyph glyph-name="wgrave" unicode="&#x1e81;" horiz-adv-x="1501" 
d="M242 0l-84 1059h192l31 -844l422 838h178l61 -838l394 844h190l-532 -1059h-189l-59 844l-418 -844h-186zM848 1210l-223 291h209l182 -291h-168z" />
    <glyph glyph-name="Wacute" unicode="&#x1e82;" horiz-adv-x="1906" 
d="M1401 0h-197l-67 1223l-580 -1223h-190l-109 1462h209l51 -1202l569 1196h201l66 -1196l557 1202h207zM1061 1583l289 277h231l-336 -277h-184z" />
    <glyph glyph-name="wacute" unicode="&#x1e83;" horiz-adv-x="1501" 
d="M242 0l-84 1059h192l31 -844l422 838h178l61 -838l394 844h190l-532 -1059h-189l-59 844l-418 -844h-186zM776 1210l287 291h227l-327 -291h-187z" />
    <glyph glyph-name="Wdieresis" unicode="&#x1e84;" horiz-adv-x="1906" 
d="M1401 0h-197l-67 1223l-580 -1223h-190l-109 1462h209l51 -1202l569 1196h201l66 -1196l557 1202h207zM1296 1618l45 209h189l-45 -209h-189zM928 1618l45 209h186l-45 -209h-186z" />
    <glyph glyph-name="wdieresis" unicode="&#x1e85;" horiz-adv-x="1501" 
d="M242 0l-84 1059h192l31 -844l422 838h178l61 -838l394 844h190l-532 -1059h-189l-59 844l-418 -844h-186zM1004 1260l40 202h183l-43 -202h-180zM645 1260l41 202h182l-43 -202h-180z" />
    <glyph glyph-name="Ygrave" unicode="&#x1ef2;" horiz-adv-x="1255" 
d="M262 1462h203l250 -676l534 676h213l-680 -841l-131 -621h-188l129 621zM831 1583l-229 277h213l186 -277h-170z" />
    <glyph glyph-name="ygrave" unicode="&#x1ef3;" horiz-adv-x="1071" 
d="M16 -227q60 -21 116 -21t94 36q22 19 42 50t49 76l70 115l-231 1030h196l162 -832l477 832h207l-709 -1159q-45 -72 -81 -127t-77 -93q-79 -76 -188 -77q-108 0 -178 32zM635 1210l-223 291h209l182 -291h-168z" />
    <glyph glyph-name="endash" unicode="&#x2013;" horiz-adv-x="1024" 
d="M33 512l37 174h1024l-37 -174h-1024z" />
    <glyph glyph-name="emdash" unicode="&#x2014;" horiz-adv-x="2048" 
d="M33 512l37 174h2048l-37 -174h-2048z" />
    <glyph glyph-name="afii00208" unicode="&#x2015;" horiz-adv-x="2048" 
d="M33 512l37 174h2048l-37 -174h-2048z" />
    <glyph glyph-name="quoteleft" unicode="&#x2018;" horiz-adv-x="425" 
d="M582 1462l-152 -440h-194l202 440h144z" />
    <glyph glyph-name="quoteright" unicode="&#x2019;" horiz-adv-x="425" 
d="M219 1022l152 440h194l-203 -440h-143z" />
    <glyph glyph-name="quotesinglbase" unicode="&#x201a;" horiz-adv-x="425" 
d="M-41 -199l154 443h192l-201 -443h-145z" />
    <glyph glyph-name="quotedblleft" unicode="&#x201c;" horiz-adv-x="753" 
d="M582 1462l-152 -440h-194l202 440h144zM909 1462l-151 -440h-195l203 440h143z" />
    <glyph glyph-name="quotedblright" unicode="&#x201d;" horiz-adv-x="753" 
d="M219 1022l152 440h194l-203 -440h-143zM547 1022l151 440h195l-203 -440h-143z" />
    <glyph glyph-name="quotedblbase" unicode="&#x201e;" horiz-adv-x="753" 
d="M287 -199l153 443h193l-201 -443h-145zM-41 -199l154 443h192l-201 -443h-145z" />
    <glyph glyph-name="dagger" unicode="&#x2020;" horiz-adv-x="956" 
d="M686 911l-231 -1089h-179l234 1089h-352l30 156h353l84 395h178l-84 -395h350l-33 -156h-350z" />
    <glyph glyph-name="daggerdbl" unicode="&#x2021;" horiz-adv-x="956" 
d="M397 391l113 529h-350l30 153h353l82 389h178l-82 -389h348l-31 -153h-350l-113 -529h349l-33 -158h-348l-88 -411h-179l89 411h-353l33 158h352z" />
    <glyph glyph-name="bullet" unicode="&#x2022;" horiz-adv-x="739" 
d="M637 542q-80 -77 -202 -77t-201.5 78.5t-79.5 202.5q0 123 80 201.5t201 78.5t201.5 -78.5t80.5 -203.5t-80 -202z" />
    <glyph glyph-name="ellipsis" unicode="&#x2026;" horiz-adv-x="1728" 
d="M53 0l49 240h205l-51 -240h-203zM688 0l49 240h205l-51 -240h-203zM1323 0l49 240h205l-51 -240h-203z" />
    <glyph glyph-name="perthousand" unicode="&#x2030;" horiz-adv-x="2705" 
d="M612 1303q-133 0 -206 -139q-64 -116 -64 -271q0 -78 36 -129t111 -51q134 0 208 137q61 112 63 266q0 187 -148 187zM604 1448q229 0 299 -187q23 -59 23 -145t-28 -185q-60 -214 -223 -313q-85 -51 -175 -51q-230 0 -301 188q-23 58 -23 144t29 185q29 98 85 180
t140 133t174 51zM598 0h-184l1016 1415h184zM1683 510q0 186 -147 186q-131 0 -207 -138q-63 -115 -63 -271q0 -78 36 -129q36 -52 110 -52q135 -1 209 138q62 114 62 266zM1526 842q227 0 301 -188q50 -127 -8 -336t-221 -306q-85 -51 -175 -51q-227 0 -301 187
q-51 129 9 336q60 206 222 306q83 52 173 52zM2361 696q-131 0 -207 -138q-63 -115 -63 -271q0 -78 36 -129q36 -52 111 -52q134 -1 208 138q61 112 63 266q0 186 -148 186zM2352 842q229 0 300 -188q23 -58 23 -144t-28 -185t-83 -181q-124 -184 -340 -183q-129 0 -214 88
t-85 232q0 212 114 377q56 80 140 132q83 52 173 52z" />
    <glyph glyph-name="guilsinglleft" unicode="&#x2039;" horiz-adv-x="608" 
d="M502 981h184l-362 -463l157 -450h-176l-178 458z" />
    <glyph glyph-name="guilsinglright" unicode="&#x203a;" horiz-adv-x="608" 
d="M182 68h-186l364 462l-157 451h172l180 -459z" />
    <glyph glyph-name="fraction" unicode="&#x2044;" horiz-adv-x="178" 
d="M-229 0h-185l1016 1415h184z" />
    <glyph glyph-name="zerosuperior" unicode="&#x2070;" horiz-adv-x="843" 
d="M750 1116q0 187 -148 187q-131 0 -200.5 -127t-69.5 -283q0 -78 35.5 -129t110.5 -51q135 0 203.5 126.5t68.5 276.5zM592 1448q156 0 239.5 -88.5t83.5 -231.5q0 -216 -117.5 -388.5t-332.5 -172.5q-131 0 -215 88t-84 232q0 215 85 337t168 173t173 51z" />
    <glyph glyph-name="foursuperior" unicode="&#x2074;" horiz-adv-x="843" 
d="M360 911h258l70 330zM553 600l39 191h-412l21 96l520 530h139l-108 -506h104l-45 -120h-86l-39 -191h-133z" />
    <glyph glyph-name="fivesuperior" unicode="&#x2075;" horiz-adv-x="843" 
d="M545 1006q-82 0 -158 -62h-115l131 473h471l-24 -127h-354l-56 -209q68 41 168 41t159.5 -65.5t59.5 -163.5q0 -152 -87 -239t-221 -87t-211 56.5t-81 191.5h133q6 -66 38 -94.5t114 -28.5t126 52t44 122t-27.5 105t-109.5 35z" />
    <glyph glyph-name="sixsuperior" unicode="&#x2076;" horiz-adv-x="843" 
d="M416 962.5q-56 -49.5 -56 -139.5q0 -53 33 -94t109 -41t126 45t50 154q0 53 -31.5 89t-102.5 36q-72 0 -128 -49.5zM575 1122q119 0 180.5 -65.5t61.5 -165.5q0 -154 -90 -239t-230 -85t-209 80.5t-69 183.5t21.5 207.5t70.5 195.5t130 152.5t196 61.5q217 0 248 -215
l-127 -19q-14 66 -44 91.5t-98 25.5t-135 -65.5t-104 -218.5q79 75 198 75z" />
    <glyph glyph-name="sevensuperior" unicode="&#x2077;" horiz-adv-x="843" 
d="M883 1309q-268 -329 -447 -709h-157q159 320 255.5 456t170.5 232h-431l29 129h602z" />
    <glyph glyph-name="eightsuperior" unicode="&#x2078;" horiz-adv-x="843" 
d="M530 950q-198 0 -198 -149q0 -47 35.5 -82t120.5 -35t138.5 35t53.5 123q0 41 -33 74.5t-117 33.5zM426 1191q0 -116 132 -116q75 0 126 35t51 117q0 41 -28.5 73.5t-114.5 32.5t-126 -45t-40 -97zM877 1237q0 -160 -156 -221q45 -23 76.5 -68t31.5 -106
q0 -143 -96.5 -208t-248.5 -65t-227 62.5t-75 154.5q0 169 183 236q-78 57 -78 164t85 184.5t229 77.5t210 -61.5t66 -149.5z" />
    <glyph glyph-name="ninesuperior" unicode="&#x2079;" horiz-adv-x="843" 
d="M707 1164q0 164 -142 163q-76 0 -124 -47t-48 -145q0 -51 32.5 -89t102.5 -38t124.5 41t54.5 115zM852 1159q0 -592 -379 -592q-253 0 -272 234h133q6 -66 43 -88.5t90 -22.5q101 0 157 64t70 215q-76 -78 -194 -78t-183 69.5t-65 169.5q0 152 88 235t227 83t212 -86.5
t73 -202.5z" />
    <glyph glyph-name="zeroinferior" unicode="&#x2080;" horiz-adv-x="843" 
d="M657 518q0 187 -147 187q-132 0 -207 -139q-63 -115 -63 -271q0 -78 36 -129t110 -51q135 0 209 137q62 114 62 266zM500 850q226 0 301 -187q50 -127 -8 -336t-221 -307q-85 -51 -175 -51q-228 0 -301 188q-51 128 9 336t222 306q83 51 173 51z" />
    <glyph glyph-name="oneinferior" unicode="&#x2081;" horiz-adv-x="843" 
d="M334 2l139 657l-194 -92l-54 121l271 131h176l-174 -817h-164z" />
    <glyph glyph-name="twoinferior" unicode="&#x2082;" horiz-adv-x="843" 
d="M498 725q-66 0 -110 -30t-75 -115l-135 22q33 112 112 180t213 68t205 -65q70 -65 70 -172t-77 -197q-55 -65 -142 -128q-88 -62 -135 -90t-92 -63h364l-47 -133h-563l23 113q57 43 125 91t138 99t114 83q138 101 141 226q0 43 -32 77q-31 34 -97 34z" />
    <glyph glyph-name="threeinferior" unicode="&#x2083;" horiz-adv-x="843" 
d="M633 627q1 100 -133 100q-72 0 -115 -26t-72 -107l-135 22q66 234 325 234q140 0 206 -64q65 -64 65 -147q0 -84 -36 -134t-107 -83q98 -60 97 -183q-1 -124 -80 -197t-227 -73t-231 76q-84 76 -84 201h140q4 -74 47 -113t118 -39t121 37t48 105q0 68 -38 97
q-38 28 -91 27h-99l27 127h98q156 0 156 140z" />
    <glyph glyph-name="fourinferior" unicode="&#x2084;" horiz-adv-x="843" 
d="M254 313h258l70 330zM446 2l39 191h-411l20 96l520 530h140l-109 -506h105l-45 -120h-87l-38 -191h-134z" />
    <glyph glyph-name="fiveinferior" unicode="&#x2085;" horiz-adv-x="843" 
d="M453 408q-81 0 -158 -62h-115l131 473h471l-24 -127h-355l-55 -209q68 41 168 41t160 -66q59 -66 59 -163q0 -152 -87 -239t-221 -87q-134 1 -211 57t-81 191h133q6 -67 38 -95t114 -28t126 51t44 122t-28 106t-109 35z" />
    <glyph glyph-name="sixinferior" unicode="&#x2086;" horiz-adv-x="843" 
d="M592 289q0 53 -32 89t-84 36q-141 0 -186 -107q-16 -35 -16 -85t33 -91t109 -41t126 45t50 154zM489 524q119 0 181 -65q61 -66 61 -166q0 -154 -90 -239t-228 -85t-208 79t-71 184q-2 226 91 404q49 91 130 152q81 62 196 62q217 1 248 -215l-127 -19q-14 66 -44 92
t-98 26t-135 -66q-68 -66 -104 -219q79 75 198 75z" />
    <glyph glyph-name="seveninferior" unicode="&#x2087;" horiz-adv-x="843" 
d="M795 711q-268 -329 -447 -709h-158q155 312 297 514q55 78 129 174h-430l29 129h602z" />
    <glyph glyph-name="eightinferior" unicode="&#x2088;" horiz-adv-x="843" 
d="M438 352q-198 0 -198 -149q0 -47 36 -82t120 -35q85 0 139 35q53 35 53 123q0 40 -33 74t-117 34zM334 593q0 -116 132 -116q75 0 126 35t51 117q0 41 -29 73q-28 32 -114 33q-86 0 -126 -45t-40 -97zM784 639q0 -158 -155 -221q45 -23 77 -68t31 -106q0 -143 -97 -208
q-96 -65 -248 -65q-152 1 -227 63t-75 156t58 156q39 43 124 78q-78 57 -78 164q0 106 86 184q85 78 230 78t209 -62q65 -61 65 -149z" />
    <glyph glyph-name="nineinferior" unicode="&#x2089;" horiz-adv-x="843" 
d="M307 537q0 -51 33 -89q32 -38 102 -38t124 41t54 115t-32 118q-33 45 -109 45t-124 -47t-48 -145zM381 92q103 0 158 64t69 215q-76 -78 -195 -78t-183 70t-64 169q0 152 88 235t226 83t212 -86t74 -202q0 -406 -188 -540q-74 -52 -168 -52q-155 -1 -221 60
q-65 61 -74 173h133q6 -67 43 -89t90 -22z" />
    <glyph glyph-name="Euro" unicode="&#x20ac;" 
d="M874 1454q204 0 301 -99t123 -288l-168 -29q-30 205 -114 232.5t-153 27.5q-133 0 -230 -99t-156 -265h465l-49 -131h-451q-20 -100 -22 -193h444l-49 -133h-395q12 -188 90 -273t207 -85q205 0 249 111.5t60 177.5h172q-38 -220 -157.5 -332.5t-339.5 -112.5t-337.5 140
t-132.5 374h-155l49 133h111q6 98 24 193h-125l47 131h109q116 362 295.5 441t287.5 79z" />
    <glyph glyph-name="uni20AE" unicode="&#x20ae;" 
d="M223 295l314 174l45 213l-252 -141l-43 110l327 183l88 419h-428l35 162h1037l-35 -162h-426l-66 -305l238 133l45 -112l-316 -176l-45 -211l254 141l45 -111l-331 -184l-88 -428h-183l66 313l-236 -129z" />
    <glyph glyph-name="uni20B4" unicode="&#x20b4;" 
d="M342 354q0 -113 66.5 -174t194.5 -61t203 49t107 172h174q-74 -377 -497 -377q-190 0 -306 96.5t-116 272.5q0 80 25 147h-91l27 115h117q92 115 301 168t278 74h-647l25 114h778q35 55 35 143t-58.5 145.5t-172.5 57.5t-184.5 -46t-113.5 -160l-163 38q95 324 473 324
q268 0 328.5 -132t60.5 -216t-29 -154h113l-27 -114h-153q-45 -64 -149 -100t-258 -76.5t-200 -65.5h713l-27 -115h-794q-33 -49 -33 -125z" />
    <glyph glyph-name="afii61289" unicode="&#x2113;" horiz-adv-x="843" 
d="M672 1188q0 166 -101 166q-77 0 -95.5 -89t-18.5 -161v-404q215 263 215 488zM568 1487q235 0 235 -299t-346 -670v-227q0 -136 59 -160.5t88 -24.5q88 0 170 82l74 -90q-111 -135 -283 -135q-125 0 -197.5 69.5t-78.5 205.5q-2 49 -2 58v112q-25 -27 -50.5 -49.5
t-54.5 -51.5l-61 90q43 41 53 51l113 113v524q0 199 80.5 300.5t200.5 101.5z" />
    <glyph glyph-name="afii61352" unicode="&#x2116;" horiz-adv-x="2201" 
d="M2128 1122q0 185 -150 185q-133 0 -204.5 -129.5t-71.5 -278.5q0 -182 151 -182q131 0 203 127t72 278zM1968 1452q155 0 237.5 -88.5t82.5 -230.5q0 -216 -116 -389t-333 -173q-132 0 -214.5 88.5t-82.5 233.5q0 213 85 335t169 173t172 51zM993 0l-479 1159l-246 -1159
h-182l309 1462h180l469 -1163l246 1163h183l-306 -1462h-174z" />
    <glyph glyph-name="trademark" unicode="&#x2122;" horiz-adv-x="1855" 
d="M1272 643l-121 614l-133 -614h-125l174 819h168l125 -659l407 659h175l-175 -819h-125l132 617l-388 -617h-114zM653 1339l-147 -696h-139l147 696h-272l26 123h682l-26 -123h-271z" />
    </font>
</defs>
</svg>
