<?xml version="1.0" standalone="no"?>
<!DOCTYPE svg PUBLIC "-//W3C//DTD SVG 1.1//EN" "http://www.w3.org/Graphics/SVG/1.1/DTD/svg11.dtd" >
<svg xmlns="http://www.w3.org/2000/svg">
<metadata>
Created by FontPrep 20130207 at Wed Feb  4 14:42:13 2015
 By Brian Tretcher
Copyright (c) 2010 Dalton Maag Ltd. All rights reserved. This font may not be altered in any way without prior permission of Dalton Maag Ltd.
</metadata>
<defs>
<font id="66ae9088eca4b947186a2911e11bed2e" horiz-adv-x='1024' >
  <font-face 
    font-family="AktivGroteskCorp-Medium"
    font-weight="500"
    font-stretch="normal"
    units-per-em="2048"
    panose-1="2 11 6 4 2 2 2 2 2 4"
    ascent="1638"
    descent="-410"
    x-height="1065"
    cap-height="1462"
    bbox="-369 -457 2703 1964"
    underline-thickness="163"
    underline-position="-109"
    unicode-range="U+0008-FB04"
  />
<missing-glyph horiz-adv-x="1024" 
d="M819 102v1332h-614v-1332h614zM102 0v1536h820v-1536h-820z" />
    <glyph glyph-name="f_f" unicode="ff" horiz-adv-x="1458" 
d="M762 881v184h166v61q0 168 90 257t239 94q13 2 25 1t73 -5t122 -23l-35 -174q-66 18 -128 18t-107 -37q-46 -37 -46 -124v-68h258v-184h-258v-881h-233v881h-166zM33 881v184h166v61q0 168 90 257t239 94q12 2 24 1t74 -5q61 -4 122 -23l-35 -174q-65 18 -127 18
t-108 -37t-46 -124v-68h258v-184h-258v-881h-233v881h-166z" />
    <glyph glyph-name="f_i" unicode="fi" horiz-adv-x="1232" 
d="M33 881v184h166v61q0 168 90 257t239 94q12 2 24 1t74 -5q61 -4 122 -23l-35 -174q-65 18 -127 18t-108 -37t-46 -124v-68h258v-184h-258v-881h-233v881h-166zM1098 1065v-1065h-234v1065h234zM1102 1462v-231h-242v231h242z" />
    <glyph glyph-name="f_l" unicode="fl" horiz-adv-x="1232" 
d="M33 881v184h166v61q0 168 90 257t239 94q12 2 24 1t74 -5q61 -4 122 -23l-35 -174q-65 18 -127 18t-108 -37t-46 -124v-68h258v-184h-258v-881h-233v881h-166zM1098 1462v-1462h-234v1462h234z" />
    <glyph glyph-name="f_f_i" unicode="ffi" horiz-adv-x="1961" 
d="M762 881v184h166v61q0 168 90 257t239 94q13 2 25 1t73 -5t122 -23l-35 -174q-66 18 -128 18t-107 -37q-46 -37 -46 -124v-68h258v-184h-258v-881h-233v881h-166zM33 881v184h166v61q0 168 90 257t239 94q12 2 24 1t74 -5q61 -4 122 -23l-35 -174q-65 18 -127 18
t-108 -37t-46 -124v-68h258v-184h-258v-881h-233v881h-166zM1827 1065v-1065h-234v1065h234zM1831 1462v-231h-242v231h242z" />
    <glyph glyph-name="f_f_l" unicode="ffl" horiz-adv-x="1961" 
d="M762 881v184h166v61q0 168 90 257t239 94q13 2 25 1t73 -5t122 -23l-35 -174q-66 18 -128 18t-107 -37q-46 -37 -46 -124v-68h258v-184h-258v-881h-233v881h-166zM33 881v184h166v61q0 168 90 257t239 94q12 2 24 1t74 -5q61 -4 122 -23l-35 -174q-65 18 -127 18
t-108 -37t-46 -124v-68h258v-184h-258v-881h-233v881h-166zM1827 1462v-1462h-234v1462h234z" />
    <glyph glyph-name=".notdef" horiz-adv-x="1024" 
d="M819 102v1332h-614v-1332h614zM102 0v1536h820v-1536h-820z" />
    <glyph glyph-name=".null" horiz-adv-x="0" 
 />
    <glyph glyph-name=".null" horiz-adv-x="0" 
 />
    <glyph glyph-name=".null" horiz-adv-x="0" 
 />
    <glyph glyph-name="nonmarkingreturn" unicode="&#x9;" horiz-adv-x="456" 
 />
    <glyph glyph-name="nonmarkingreturn" unicode="&#xd;" horiz-adv-x="456" 
 />
    <glyph glyph-name="space" unicode=" " horiz-adv-x="456" 
 />
    <glyph glyph-name="exclam" unicode="!" horiz-adv-x="516" 
d="M383 1462l-16 -1022h-215l-17 1022h248zM377 281v-281h-238v281h238z" />
    <glyph glyph-name="quotedbl" unicode="&#x22;" horiz-adv-x="729" 
d="M295 1456l-14 -536h-191l-14 536h219zM653 1456l-14 -536h-188l-15 536h217z" />
    <glyph glyph-name="numbersign" unicode="#" 
d="M39 342v172h207l59 360h-199v173h228l55 342h203l-57 -342h272l55 342h201l-55 -342h161v-173h-188l-59 -360h176v-172h-207l-55 -342h-201l55 342h-272l-56 -342h-200l55 342h-178zM780 874h-272l-62 -360h273z" />
    <glyph glyph-name="dollar" unicode="$" 
d="M539 1628h123v-178q222 -18 318.5 -127t121.5 -268l-221 -33q-25 111 -71 171t-148 73v-443l49 -8q205 -39 305 -138t100 -279t-116 -300t-338 -131v-205h-123v207q-227 15 -344 134t-125 319h229q10 -127 68.5 -187.5t171.5 -74.5v461q-226 38 -332.5 134t-110.5 277
q0 36 4 74q16 141 128 235.5t311 108.5v178zM879 381q0 177 -217 217v-440q217 19 217 223zM326 1085v-32q4 -86 50 -134.5t163 -70.5v420q-113 -12 -163 -66.5t-50 -116.5z" />
    <glyph glyph-name="percent" unicode="%" horiz-adv-x="1933" 
d="M166 670.5q-98 109.5 -98 330.5t101 335t265 114t266.5 -111t102.5 -337t-102.5 -333.5t-269.5 -107.5t-265 109.5zM434 1280q-168 0 -168 -276q0 -152 42 -213.5t126 -61.5t127 62.5t43 210.5t-43 213t-127 65zM494 0l714 1415h230l-717 -1415h-227zM1227.5 73.5
q-97.5 110.5 -97.5 328.5t101.5 333t265.5 115t266.5 -111.5t102.5 -336.5t-102.5 -332t-270.5 -107t-265.5 110.5zM1669 403q0 277 -172 277q-82 0 -125 -63.5t-43 -214.5t43 -211t126 -60t127 61.5t44 210.5z" />
    <glyph glyph-name="ampersand" unicode="&#x26;" horiz-adv-x="1337" 
d="M68 389q0 214 127 301.5t186 122.5q-150 166 -150 319t102 248t258 95q157 0 250 -75t109 -196q4 -16 4 -20v-45q-11 -175 -120 -251.5t-160 -107.5l307 -362q49 121 53 295h211q-4 -250 -131 -453l223 -260h-270l-92 109q-163 -142 -385 -142q-279 0 -400.5 119.5
t-121.5 302.5zM301 420q0 -266 307 -266q154 0 246 92l-367 432q-186 -105 -186 -258zM752 1162q0 60 -41 101.5t-111 41.5q-156 0 -156 -168q0 -93 54.5 -155t70.5 -81q183 86 183 261z" />
    <glyph glyph-name="quotesingle" unicode="'" horiz-adv-x="382" 
d="M307 1456l-14 -536h-203l-14 536h231z" />
    <glyph glyph-name="parenleft" unicode="(" horiz-adv-x="575" 
d="M94 625q0 363 91 573.5t153 304.5h219q-121 -213 -170 -428t-49 -453t49 -450.5t170 -425.5h-219q-117 178 -180.5 404.5t-63.5 474.5z" />
    <glyph glyph-name="parenright" unicode=")" horiz-adv-x="575" 
d="M479 625q0 -496 -241 -879h-222q119 213 170.5 426t51.5 453q0 470 -222 878h222q121 -190 181 -417.5t60 -460.5z" />
    <glyph glyph-name="asterisk" unicode="*" horiz-adv-x="825" 
d="M51 1137l80 186l215 -119l-41 258h217l-41 -258l215 119l78 -186l-250 -66l199 -207l-168 -119l-141 228l-142 -228l-168 119l199 207z" />
    <glyph glyph-name="plus" unicode="+" 
d="M125 596v203h377v405h209v-405h376v-203h-376v-406h-209v406h-377z" />
    <glyph glyph-name="comma" unicode="," horiz-adv-x="473" 
d="M373 287l-119 -482h-180l65 482h234z" />
    <glyph glyph-name="hyphen" unicode="-" horiz-adv-x="798" 
d="M702 721v-232h-606v232h606z" />
    <glyph glyph-name="period" unicode="." horiz-adv-x="473" 
d="M360 285v-285h-247v285h247z" />
    <glyph glyph-name="slash" unicode="/" horiz-adv-x="731" 
d="M14 0l469 1503h234l-469 -1503h-234z" />
    <glyph glyph-name="zero" unicode="0" 
d="M602 -37q-524 0 -524 746q0 375 138 560t390 185t390.5 -181t138.5 -564q0 -566 -204 -656t-329 -90zM604 168q287 0 287 541q0 398 -103.5 469t-219 71t-181 -139.5t-65.5 -400.5q0 -262 64 -401.5t218 -139.5z" />
    <glyph glyph-name="one" unicode="1" 
d="M823 1415v-1415h-237v1151l-303 -182l-103 172l438 274h205z" />
    <glyph glyph-name="two" unicode="2" 
d="M834 1015.5q0 108.5 -60.5 171t-176.5 62.5t-179.5 -54t-93.5 -183l-224 30q42 191 161 301.5t349 110.5q229 0 348 -115.5t119 -308.5q0 -121 -44 -216t-125 -187t-194.5 -191.5t-254.5 -228.5h637l-29 -207h-952v182q156 137 288 245t227 203t149.5 186t54.5 199.5z
" />
    <glyph glyph-name="three" unicode="3" 
d="M1100 412q0 -209 -124 -329t-383 -120t-377 132t-128 325h236q14 -139 76.5 -197.5t199.5 -58.5q260 0 260 239q0 121 -64.5 174.5t-189.5 53.5h-153v207h163q176 0 201 155q14 43 5 114t-68.5 108.5t-167.5 37.5t-171 -52t-93 -169l-222 31q78 391 502 391
q227 0 346 -106.5t119 -268.5q0 -225 -197 -327q230 -95 230 -340z" />
    <glyph glyph-name="four" unicode="4" 
d="M946 1415v-893h187l-29 -188h-158v-334h-223v334h-657v166l661 915h219zM723 522v588l-416 -588h416z" />
    <glyph glyph-name="five" unicode="5" 
d="M635 920q242 0 350.5 -133.5t108.5 -325.5q0 -247 -130.5 -372.5t-353.5 -125.5q-458 0 -489 424h231q17 -115 74.5 -168t180.5 -53q255 0 255 291q0 272 -254 272q-158 0 -258 -108h-198l67 794h793v-205h-600l-33 -370q117 80 256 80z" />
    <glyph glyph-name="six" unicode="6" 
d="M1114 442q0 -225 -141 -352t-357 -127q-277 0 -390 189.5t-113 443.5q0 460 148.5 659t395.5 199q203 0 304.5 -84t134.5 -258l-215 -31l-9 21q-29 72 -76 117.5t-180 33.5q-260 -24 -276 -491q120 149 344 153q319 0 374.5 -180.5t55.5 -292.5zM887 434q0 135 -58.5 214
t-195.5 79q-197 0 -238 -108.5t-35 -182.5q0 -117 68 -199.5t187 -82.5q120 0 196 72.5t76 207.5z" />
    <glyph glyph-name="seven" unicode="7" 
d="M90 1210v205h981v-186q-318 -582 -489 -1229h-260q193 645 487 1210h-719z" />
    <glyph glyph-name="eight" unicode="8" 
d="M1094 1055q0 -234 -197 -324q165 -73 201.5 -172.5t36.5 -167.5q0 -195 -132.5 -311.5t-399.5 -116.5t-396 117t-129 311q0 119 68.5 207.5t164.5 128.5q-90 41 -143 124t-53 185q0 197 124.5 307.5t369.5 110.5t365 -111t120 -288zM606.5 817q141.5 0 202.5 57.5
t61 172.5q0 155 -95 190t-202 35t-172 -66t-65 -174q0 -107 64.5 -161t206 -54zM905 395q0 232 -298 232t-298 -236q0 -113 71.5 -177t225.5 -64t226.5 66.5t72.5 178.5z" />
    <glyph glyph-name="nine" unicode="9" 
d="M575 158q152 0 219.5 118.5t69.5 380.5q-127 -159 -344 -159t-324.5 128t-107.5 343t137 350t365 135q275 0 389.5 -199.5t114.5 -447.5q0 -458 -126.5 -651t-385.5 -193q-217 0 -332 89t-131 282h223q18 -92 68.5 -134t164.5 -42zM568 686q130 0 204 72.5t74 214.5
q-4 125 -70.5 208t-186.5 83t-195 -75t-75 -216q0 -202 92.5 -244.5t156.5 -42.5z" />
    <glyph glyph-name="colon" unicode=":" horiz-adv-x="473" 
d="M360 1065v-285h-247v285h247zM360 285v-285h-247v285h247z" />
    <glyph glyph-name="semicolon" unicode=";" horiz-adv-x="473" 
d="M373 287l-119 -482h-180l65 482h234zM360 1065v-285h-247v285h247z" />
    <glyph glyph-name="less" unicode="&#x3c;" 
d="M1081 1204v-219l-657 -289l657 -288v-224l-927 420v180z" />
    <glyph glyph-name="equal" unicode="=" 
d="M1053 573v-204h-893v204h893zM1053 1028v-205h-893v205h893z" />
    <glyph glyph-name="greater" unicode="&#x3e;" 
d="M786 690l-655 293v221l928 -420v-180l-928 -420v222z" />
    <glyph glyph-name="question" unicode="?" horiz-adv-x="1038" 
d="M387 481q0 134 72.5 213.5t107.5 114.5l60 59q41 41 69.5 90.5t28.5 135.5t-54.5 141t-164.5 55t-171 -54t-89 -177l-215 28q49 279 209.5 339.5t279.5 60.5q213 0 330 -103.5t117 -270.5t-103 -282l-125 -124q-53 -53 -88 -108.5t-35 -127.5v-31h-229v41zM621 281v-281
h-240v281h240z" />
    <glyph glyph-name="at" unicode="@" horiz-adv-x="2004" 
d="M1370 236q0 -86 82 -86q184 0 232.5 174t48.5 314t-49.5 255t-184 227.5t-442.5 112.5q-164 0 -303.5 -60.5t-241.5 -168t-160.5 -259t-58.5 -317.5q0 -327 179.5 -517t508.5 -190q254 0 343 68t124 107h221q-76 -149 -257 -244.5t-416 -95.5q-436 0 -667 235.5
t-231 614.5q0 246 87 432t224.5 311t308.5 187.5t347 62.5q368 0 610 -202.5t242 -565.5q0 -314 -141.5 -476.5t-335.5 -162.5q-102 0 -169 33.5t-83 126.5q-68 -98 -143.5 -136.5t-165.5 -38.5q-168 0 -257.5 110.5t-89.5 281.5q0 253 133 418t343 165q161 0 249 -143
l23 121h209l-117 -666q-2 -8 -2 -28zM1034 780q-126 0 -202 -104.5t-76 -284.5q0 -119 46 -175t114 -56q120 0 180.5 72.5t85.5 199.5l12 72q2 14 4 23.5t-2 -1.5l2 43q0 12 1 25.5t-1 26.5q-8 78 -53 118.5t-111 40.5z" />
    <glyph glyph-name="A" unicode="A" horiz-adv-x="1404" 
d="M913 580l-217 602l-215 -602h432zM580 1462h245l557 -1462h-264l-137 373h-567l-135 -373h-256z" />
    <glyph glyph-name="B" unicode="B" horiz-adv-x="1310" 
d="M690 199q242 0 271.5 90t29.5 143q0 111 -62.5 169t-215.5 58h-318v-460h295zM690 862q145 0 202.5 53.5t57.5 155.5t-66.5 148.5t-230.5 46.5h-258v-404h295zM1235 434q0 -306 -193.5 -370t-343.5 -64h-542v1462h506q433 0 481.5 -152.5t48.5 -238.5q0 -206 -191 -295
q234 -104 234 -342z" />
    <glyph glyph-name="C" unicode="C" horiz-adv-x="1458" 
d="M106 729q0 357 182.5 563.5t483.5 206.5q386 0 474.5 -189.5t109.5 -299.5l-244 -35q-34 157 -111 234t-229 77q-194 0 -300.5 -148.5t-106.5 -406.5t108.5 -406.5t298.5 -148.5q238 0 287 122t59 196h262q-25 -239 -180.5 -385t-437.5 -146q-306 0 -481 204.5
t-175 561.5z" />
    <glyph glyph-name="D" unicode="D" horiz-adv-x="1486" 
d="M684 1462q505 0 600.5 -270t95.5 -541t-196 -461t-549 -190h-479v1462h528zM643 211q249 0 365 138t116 384t-102 382t-336 136h-283v-1040h240z" />
    <glyph glyph-name="E" unicode="E" horiz-adv-x="1226" 
d="M156 1462h972v-213h-725v-389h684v-215h-684v-432h764l-28 -213h-983v1462z" />
    <glyph glyph-name="F" unicode="F" horiz-adv-x="1175" 
d="M1090 1462v-213h-687v-413h646v-215h-646v-621h-247v1462h934z" />
    <glyph glyph-name="G" unicode="G" horiz-adv-x="1476" 
d="M795 174q204 0 342 96v297h-324v209h553v-602q-113 -104 -266.5 -157.5t-315.5 -53.5q-324 0 -501 203.5t-177 559.5q0 355 179 564t485 209q370 0 461.5 -172t109.5 -262l-243 -35q-35 133 -108 195.5t-197 62.5q-125 0 -278 -79.5t-153 -480.5t159 -477.5t274 -76.5z
" />
    <glyph glyph-name="H" unicode="H" horiz-adv-x="1464" 
d="M156 1462h247v-592h658v592h248v-1462h-248v641h-658v-641h-247v1462z" />
    <glyph glyph-name="I" unicode="I" horiz-adv-x="557" 
d="M156 1462h247v-1462h-247v1462z" />
    <glyph glyph-name="J" unicode="J" horiz-adv-x="1263" 
d="M874 508v954h248v-970q0 -262 -140 -395.5t-386 -133.5t-383 123t-156 385h248q17 -147 83 -221t213 -74t210 86t63 246z" />
    <glyph glyph-name="K" unicode="K" horiz-adv-x="1355" 
d="M156 1462h247v-643l613 643h274l-504 -549l560 -913h-281l-453 754l-209 -211v-543h-247v1462z" />
    <glyph glyph-name="L" unicode="L" horiz-adv-x="1173" 
d="M403 1462v-1247h725l-30 -215h-942v1462h247z" />
    <glyph glyph-name="M" unicode="M" horiz-adv-x="1746" 
d="M156 1462h301l415 -1163l428 1163h291v-1462h-227v1063l-401 -1063h-197l-387 1061v-1061h-223v1462z" />
    <glyph glyph-name="N" unicode="N" horiz-adv-x="1454" 
d="M156 1462h229l672 -1056v1056h241v-1462h-229l-674 1053v-1053h-239v1462z" />
    <glyph glyph-name="O" unicode="O" horiz-adv-x="1581" 
d="M790 176q212 0 320.5 148.5t108.5 406.5t-110 406.5t-318 148.5t-318.5 -146t-110.5 -407q0 -260 108 -408.5t320 -148.5zM292.5 1293q186.5 206 501.5 206t498 -205t183 -563t-182 -563t-499 -205q-315 0 -501.5 203.5t-186.5 562t186.5 564.5z" />
    <glyph glyph-name="P" unicode="P" horiz-adv-x="1296" 
d="M659 752q255 0 283.5 99t28.5 159q0 128 -69 187.5t-245 59.5h-258v-505h260zM1214 1016q0 -471 -548 -471h-267v-545h-243v1462h506q552 0 552 -446z" />
    <glyph glyph-name="Q" unicode="Q" horiz-adv-x="1583" 
d="M289 169q-183 206 -183 562t186.5 562t503.5 206t498 -207t181 -568t-193 -562l178 -217l-151 -131l-185 225q-156 -76 -324 -76q-328 0 -511 206zM362 731q0 -559 455 -559q86 0 166 41l-180 219l153 129l172 -211q90 137 90 388t-108 399.5t-317 148.5
q-318 0 -374.5 -214t-56.5 -341z" />
    <glyph glyph-name="R" unicode="R" horiz-adv-x="1316" 
d="M662 578h-263v-578h-243v1462h499q302 0 428.5 -125.5t126.5 -285.5t-56 -256.5t-181 -155.5l303 -639h-270l-263 582q-36 -4 -81 -4zM674 786q229 0 256.5 94.5t27.5 147.5q0 112 -70 170.5t-239 58.5h-250v-471h275z" />
    <glyph glyph-name="S" unicode="S" horiz-adv-x="1318" 
d="M680 172q234 0 265.5 91t31.5 132q0 86 -52 142.5t-182 78.5l-186 35q-238 43 -348.5 139t-110.5 294.5t152 306.5t416 108q484 0 546 -409l-233 -37q-29 123 -99.5 182t-224.5 59q-238 0 -272.5 -78.5t-34.5 -117.5q0 -96 52.5 -143.5t183.5 -73.5l202 -39
q231 -43 340 -146.5t109 -297.5t-144 -314.5t-416 -120.5t-431.5 118t-175.5 365h249q16 -143 103.5 -208.5t259.5 -65.5z" />
    <glyph glyph-name="T" unicode="T" horiz-adv-x="1249" 
d="M502 1247h-463v215h1171v-215h-460v-1247h-248v1247z" />
    <glyph glyph-name="U" unicode="U" horiz-adv-x="1409" 
d="M379 1462v-876q0 -207 74.5 -308.5t252.5 -101.5t250 101.5t72 308.5v876h248v-876q0 -478 -221 -550.5t-350 -72.5q-281 0 -426.5 150.5t-145.5 478.5v870h246z" />
    <glyph glyph-name="V" unicode="V" horiz-adv-x="1396" 
d="M299 1462l401 -1126l408 1126h264l-555 -1462h-237l-557 1462h276z" />
    <glyph glyph-name="W" unicode="W" horiz-adv-x="1945" 
d="M301 1462l270 -1110l279 1102h264l283 -1100l262 1108h264l-403 -1462h-248l-297 1151l-293 -1151h-240l-419 1462h278z" />
    <glyph glyph-name="X" unicode="X" horiz-adv-x="1353" 
d="M530 772l-475 690h283l336 -512l340 512h266l-471 -700l528 -762h-284l-389 578l-377 -578h-269z" />
    <glyph glyph-name="Y" unicode="Y" horiz-adv-x="1300" 
d="M778 0h-246v608l-507 854h276l352 -635l361 635h262l-498 -854v-608z" />
    <glyph glyph-name="Z" unicode="Z" horiz-adv-x="1200" 
d="M70 1249v213h1065v-186l-785 -1061h813l-28 -215h-1080v184l787 1065h-772z" />
    <glyph glyph-name="bracketleft" unicode="[" horiz-adv-x="630" 
d="M610 1503v-198h-223v-1360h223v-199h-458v1757h458z" />
    <glyph glyph-name="backslash" unicode="\" horiz-adv-x="731" 
d="M717 0h-232l-471 1503h230z" />
    <glyph glyph-name="bracketright" unicode="]" horiz-adv-x="630" 
d="M246 -55v1360h-226v198h461v-1757h-461v199h226z" />
    <glyph glyph-name="asciicircum" unicode="^" 
d="M700 1458l416 -846h-244l-268 572l-270 -572h-240l416 846h190z" />
    <glyph glyph-name="underscore" unicode="_" horiz-adv-x="1024" 
d="M1024 -252v-106h-1024v106h1024z" />
    <glyph glyph-name="grave" unicode="`" horiz-adv-x="825" 
d="M428 1518l240 -304h-219l-293 304h272z" />
    <glyph glyph-name="a" unicode="a" horiz-adv-x="1124" 
d="M66 308q0 96 49 164.5t154 119.5t347 61l158 9v45q0 121 -58 167t-160 46q-189 0 -222 -144l-213 23q29 156 141.5 227.5t328.5 71.5t313 -112t97 -320v-666h-223v139q-136 -166 -354 -166q-250 0 -304 119.5t-54 215.5zM299 286q0 -54 44 -93t130 -39q154 0 227.5 77.5
t73.5 210.5v62l-149 -6q-278 -16 -302 -87t-24 -125z" />
    <glyph glyph-name="b" unicode="b" horiz-adv-x="1249" 
d="M358 0h-225v1462h232v-536q129 172 345 172t329.5 -151.5t113.5 -411.5t-127 -414t-334 -154t-334 160v-127zM802.5 202q106.5 44 106.5 327q0 192 -72 284t-188 92q-217 0 -252 -132t-35 -208v-67q4 -186 78 -263t201 -77q55 0 161.5 44z" />
    <glyph glyph-name="c" unicode="c" horiz-adv-x="1155" 
d="M604 156q201 0 232 217h235q-20 -190 -136 -298t-349 -108t-361.5 150t-128.5 410t138 415.5t380 155.5q301 0 364.5 -145.5t76.5 -217.5l-232 -35q-16 90 -61.5 149.5t-139.5 59.5t-189 -60.5t-95 -321.5q0 -260 96 -315.5t170 -55.5z" />
    <glyph glyph-name="d" unicode="d" horiz-adv-x="1247" 
d="M887 147q-132 -180 -348 -180t-329.5 154t-113.5 402t116 405.5t320 165.5q30 3 93 -4q150 -15 258 -144v516h231v-1462h-227v147zM885 555q0 275 -109.5 313.5t-165.5 38.5q-129 0 -199.5 -92t-70.5 -280q0 -288 102.5 -332.5t157.5 -44.5q127 0 206 83t79 259v55z" />
    <glyph glyph-name="e" unicode="e" horiz-adv-x="1187" 
d="M866 637q0 283 -258 283q-129 0 -196.5 -77t-77.5 -206h532zM228 113.5q-132 146.5 -132 414.5t142.5 419t378.5 151t356.5 -140t120.5 -380v-103h-764q4 -145 73.5 -235t195.5 -90t181.5 43t73.5 122h225q-61 -348 -465 -348q-254 0 -386 146.5z" />
    <glyph glyph-name="f" unicode="f" horiz-adv-x="729" 
d="M33 881v184h166v61q0 165 89.5 256t239.5 95q12 2 24.5 1t72.5 -5t123 -23l-35 -174q-65 18 -127 18t-108 -36.5t-46 -124.5v-68h258v-184h-258v-881h-233v881h-166z" />
    <glyph glyph-name="g" unicode="g" horiz-adv-x="1247" 
d="M590 -236h53q202 5 221 146t19 213v72q-119 -168 -340 -168t-334 145.5t-113 379.5q0 235 119 387.5t332 156.5q108 7 195 -37.5t147 -122.5v129h227v-918q0 -282 -115 -424.5t-366 -142.5q-252 0 -364.5 84t-131.5 254h234q25 -154 217 -154zM340 561q0 -348 277 -348
q133 0 200.5 90t67.5 256v12q-1 336 -279 336q-126 0 -196 -88t-70 -258z" />
    <glyph glyph-name="h" unicode="h" horiz-adv-x="1189" 
d="M834 668q0 233 -172 233q-138 0 -217.5 -80.5t-79.5 -185.5v-635h-232v1462h232v-544q133 180 346 180q356 0 356 -393v-705h-233v668z" />
    <glyph glyph-name="i" unicode="i" horiz-adv-x="503" 
d="M369 1065v-1065h-234v1065h234zM373 1462v-231h-242v231h242z" />
    <glyph glyph-name="j" unicode="j" horiz-adv-x="503" 
d="M373 1462v-231h-242v231h242zM10 -186q74 0 99.5 51t25.5 149v1051h234v-1073q0 -180 -75 -275.5t-247 -95.5q-109 0 -207 33l35 178q61 -18 135 -18z" />
    <glyph glyph-name="k" unicode="k" horiz-adv-x="1126" 
d="M360 1462v-809l455 412h272l-385 -363l420 -702h-256l-331 569l-175 -155v-414h-227v1462h227z" />
    <glyph glyph-name="l" unicode="l" horiz-adv-x="503" 
d="M369 1462v-1462h-234v1462h234z" />
    <glyph glyph-name="m" unicode="m" horiz-adv-x="1777" 
d="M1325 1098q170 0 250 -94.5t80 -301.5v-702h-234v639q0 219 -60.5 240.5t-110.5 21.5q-106 0 -173 -78t-67 -182v-641h-234v662q0 137 -42 188t-119 51t-163.5 -65.5t-86.5 -198.5v-637h-232v1065h225v-154q111 154 263 179q39 6 81 6q209 -8 275 -191q141 193 348 193z
" />
    <glyph glyph-name="n" unicode="n" horiz-adv-x="1189" 
d="M711 1098q356 0 356 -393v-705h-233v668q0 129 -48 181t-124 52q-139 0 -218 -80.5t-79 -185.5v-635h-232v1065h225v-156q139 189 353 189z" />
    <glyph glyph-name="o" unicode="o" horiz-adv-x="1247" 
d="M233.5 114.5q-137.5 147.5 -137.5 411.5t141 418t388 154t385.5 -154t138.5 -416t-145.5 -411.5t-388.5 -149.5q-244 0 -381.5 147.5zM338 535q0 -379 285 -379q147 0 215.5 101t68.5 277t-68.5 275.5t-216 99.5t-216 -101t-68.5 -273z" />
    <glyph glyph-name="p" unicode="p" horiz-adv-x="1249" 
d="M362 514q0 -356 277 -356q191 0 230.5 137t39.5 241q0 191 -72 280t-192 89q-121 0 -202 -82t-81 -258v-51zM365 -397h-234v1462h227v-147q135 180 350 180t330 -150t115 -409t-125 -415.5t-332 -156.5t-331 154v-518z" />
    <glyph glyph-name="q" unicode="q" horiz-adv-x="1249" 
d="M448.5 -31q-132.5 0 -242.5 156t-110 403q0 246 115 402t324 164q117 10 205.5 -35t148.5 -123v129h227v-1462h-233v538q-103 -146 -277 -168q-25 -4 -157.5 -4zM887 555q0 276 -110.5 314t-166.5 38q-127 0 -197.5 -92t-70.5 -280q0 -288 101.5 -332.5t156.5 -44.5
q129 0 208 83t79 259v55z" />
    <glyph glyph-name="r" unicode="r" horiz-adv-x="804" 
d="M365 625v-625h-232v1065h225v-158q55 84 132.5 129t151.5 45q73 0 120 -8l-27 -213q-38 10 -104 10q-121 0 -193.5 -73.5t-72.5 -171.5z" />
    <glyph glyph-name="s" unicode="s" horiz-adv-x="1085" 
d="M772 280q0 60 -31.5 97t-144.5 57t-209 40t-161.5 55.5t-98.5 92t-33 141.5q0 158 122 246.5t319 88.5q325 0 383.5 -123t72.5 -184l-209 -29q-25 80 -75 119t-142 39q-144 0 -196 -38t-52 -82q0 -78 35.5 -101.5t153.5 -47.5l133 -22q207 -35 286 -114t79 -224
t-111 -234.5t-336 -89.5q-325 0 -403 127t-84 232h223q11 -97 76.5 -136.5t216.5 -39.5q84 0 135 35t51 95z" />
    <glyph glyph-name="t" unicode="t" horiz-adv-x="743" 
d="M561 168q73 0 129 18l35 -174q-98 -33 -213 -32q-176 0 -245.5 91t-69.5 273v537h-168v184h168v287h231v-287h264v-184h-264v-557q0 -156 133 -156z" />
    <glyph glyph-name="u" unicode="u" horiz-adv-x="1175" 
d="M125 358v707h231v-670q0 -133 44 -182t143 -49t183.5 74.5t84.5 191.5v635h233v-1065h-227v156q-143 -189 -336 -189q-194 0 -275 96.5t-81 294.5z" />
    <glyph glyph-name="v" unicode="v" horiz-adv-x="1114" 
d="M285 1065l276 -803l281 803h258l-424 -1065h-240l-422 1065h271z" />
    <glyph glyph-name="w" unicode="w" horiz-adv-x="1542" 
d="M268 1065l181 -778l225 770h213l217 -770l180 778h244l-311 -1065h-232l-215 774l-217 -774h-229l-310 1065h254z" />
    <glyph glyph-name="x" unicode="x" horiz-adv-x="1075" 
d="M55 1065h275l217 -340l233 340h244l-346 -502l379 -563h-271l-254 389l-258 -389h-254l388 553z" />
    <glyph glyph-name="y" unicode="y" horiz-adv-x="1116" 
d="M325 -397q-125 0 -223 30l43 179q51 -18 115 -18t98.5 29.5t65.5 110.5l39 103l-449 1028h271l293 -768l268 768h254l-424 -1075q-37 -94 -104 -240.5t-247 -146.5z" />
    <glyph glyph-name="z" unicode="z" horiz-adv-x="991" 
d="M78 881v184h850v-164l-568 -717h596l-26 -184h-864v164l569 717h-557z" />
    <glyph glyph-name="braceleft" unicode="{" horiz-adv-x="634" 
d="M63 723q134 0 134 147v355q0 231 130 254.5t208 23.5h90v-194h-95q-70 0 -91 -41t-21 -101v-323q0 -78 -23.5 -135.5t-101.5 -83.5q125 -41 125 -193v-350q0 -59 21.5 -100t90.5 -41h95v-195h-90q-167 0 -252.5 58t-85.5 221v342q0 78 -30 118.5t-104 40.5h-12v197h12z
" />
    <glyph glyph-name="bar" unicode="|" horiz-adv-x="516" 
d="M369 1503v-1757h-222v1757h222z" />
    <glyph glyph-name="braceright" unicode="}" horiz-adv-x="634" 
d="M217 432q0 152 125 193q-78 27 -101.5 84t-23.5 135v323q0 59 -21.5 100.5t-91.5 41.5h-94v194h90q169 0 253.5 -58t84.5 -220v-355q0 -147 133 -147h13v-197h-13q-74 0 -103.5 -41t-29.5 -118v-342q0 -163 -85.5 -221t-252.5 -58h-90v195h94q70 0 91.5 41t21.5 100v350z
" />
    <glyph glyph-name="asciitilde" unicode="~" 
d="M803 700q125 0 125 168h207q0 -215 -80 -305t-230 -90q-55 0 -107 25.5t-101.5 57.5t-115 73.5t-122.5 19.5q-84 -6 -88 -117q-120 -20 -182 -45h-35q0 213 79.5 304.5t233.5 91.5q61 0 116.5 -29t107 -62.5t98.5 -62.5t94 -29z" />
    <glyph glyph-name="uni00A0" unicode="&#xa0;" horiz-adv-x="456" 
 />
    <glyph glyph-name="exclamdown" unicode="&#xa1;" horiz-adv-x="516" 
d="M365 623l18 -1020h-250l17 1020h215zM377 1065v-283h-238v283h238z" />
    <glyph glyph-name="cent" unicode="&#xa2;" 
d="M573 1460h123v-184q180 -11 275 -104t125 -252l-230 -39q-27 173 -170 202v-727q104 18 129 136q90 17 181 73h104q-23 -176 -122 -282.5t-292 -118.5v-184h-123v186q-225 23 -333.5 167t-108.5 378t117 386.5t325 176.5v186zM573 1081q-204 -40 -204 -359
q0 -321 204 -364v723z" />
    <glyph glyph-name="sterling" unicode="&#xa3;" 
d="M287 508q0 35 -11 110h-153v185h131q-21 118 -21 216q0 97 35 182t125 169t297 84t299 -94t121 -250l-201 -35q-27 101 -75.5 144t-159.5 43t-166 -70t-55 -166t8 -141l12 -82h447v-185h-422q6 -54 6 -106t-17.5 -142.5t-76.5 -166.5h733l-29 -203h-948l2 174
q119 137 119 334z" />
    <glyph glyph-name="currency" unicode="&#xa4;" 
d="M141 690q0 170 84 303l-123 125l144 137l125 -137q107 68 237 68q129 0 234 -68l125 137l141 -137l-121 -125q80 -135 80 -304q0 -168 -82 -294l123 -129l-141 -135l-125 135q-107 -65 -238 -65t-235 63l-123 -133l-144 135l121 125q-82 129 -82 299zM603 371
q142 0 203.5 90t61.5 232t-61.5 232.5t-201.5 90.5t-203.5 -88.5t-63.5 -233.5t61.5 -234t203.5 -89z" />
    <glyph glyph-name="yen" unicode="&#xa5;" 
d="M496 467v139l-15 29h-344v170h240l-342 610h250l327 -624l332 624h234l-340 -610h245v-170h-348l-12 -29v-139h360v-168h-360v-299h-227v299h-359v168h359z" />
    <glyph glyph-name="brokenbar" unicode="&#xa6;" horiz-adv-x="516" 
d="M369 1503v-688h-222v688h222zM369 469v-723h-222v723h222z" />
    <glyph glyph-name="section" unicode="&#xa7;" horiz-adv-x="1112" 
d="M838 360q184 -90 184 -269q0 -171 -121 -255t-323 -84q-343 0 -416.5 141.5t-83.5 249.5h229q14 -123 82.5 -163.5t188.5 -40.5q216 0 217 143q0 60 -34.5 98t-142.5 70l-182 45q-275 65 -307.5 174t-32.5 176q0 178 189 262q-183 74 -183 273q0 145 123 232t336 87
q322 0 385.5 -126t79.5 -181l-211 -49q-33 92 -89 130t-166 38t-159 -31t-59 -74q-28 -64 4.5 -105.5t79.5 -58.5l82 -26l209 -53q164 -43 235.5 -117t75.5 -187v-109q0 -108 -190 -190zM825 596q0 74 -36.5 122t-139.5 77l-96 24q-60 11 -88 8q-72 -4 -119 -48.5
t-47 -108.5t13.5 -94.5t52.5 -60t165 -58.5q16 -4 43.5 -13t67.5 -2q72 2 128 41t56 113z" />
    <glyph glyph-name="dieresis" unicode="&#xa8;" horiz-adv-x="825" 
d="M330 1483v-230h-224v230h224zM717 1483v-230h-223v230h223z" />
    <glyph glyph-name="copyright" unicode="&#xa9;" horiz-adv-x="1587" 
d="M233.5 255q-141.5 149 -141.5 475t204 529t509 203t496.5 -202t191.5 -533q0 -330 -204.5 -528.5t-504.5 -198.5q-150 0 -279.5 53t-271 202zM1187.5 296q155.5 163 155.5 433t-155.5 434t-402.5 164t-395 -167t-148 -436t153 -430t395 -161t397.5 163zM793 1149
q303 0 350 -272l-180 -31q-16 68 -50.5 113t-102.5 45q-117 0 -163.5 -78.5t-46.5 -194.5q0 -188 71.5 -230t127.5 -42q152 0 170 162h184q-14 -145 -103 -227.5t-266 -82.5t-273.5 113.5t-96.5 302.5q0 190 105.5 306t273.5 116z" />
    <glyph glyph-name="ordfeminine" unicode="&#xaa;" horiz-adv-x="870" 
d="M113 1276q44 223 310 223q122 0 184.5 -24.5t112.5 -83.5t50 -209v-486h-174v97q-100 -117 -256 -117q-123 0 -196.5 60.5t-73.5 160.5t37.5 151.5t114.5 88.5t261 47l109 4v22q0 80 -38 116t-119 36t-114.5 -31t-44.5 -74zM374 817q100 0 160 49t60 146v53l-105 -6
q-136 -11 -175.5 -33t-55.5 -56.5t4 -82.5q12 -70 112 -70z" />
    <glyph glyph-name="guillemotleft" unicode="&#xab;" horiz-adv-x="1069" 
d="M352 985h232l-248 -455l248 -467h-236l-268 465zM786 985h232l-246 -455l246 -467h-236l-264 465z" />
    <glyph glyph-name="logicalnot" unicode="&#xac;" 
d="M1044 893v-549h-208v348h-695v201h903z" />
    <glyph glyph-name="uni00AD" unicode="&#xad;" horiz-adv-x="798" 
d="M702 721v-232h-606v232h606z" />
    <glyph glyph-name="registered" unicode="&#xae;" horiz-adv-x="995" 
d="M489 1274q187 0 187 -129q0 -47 -15.5 -74t-54.5 -47l90 -176h-112l-74 153h-84v-153h-100v426h163zM573 1143q0 51 -86 51h-61v-111h74q47 0 60 17.5t13 42.5zM182.5 728q-116.5 122 -116.5 325q0 204 123 325t312 121t309 -123t120 -330t-128.5 -323.5t-315.5 -116.5
t-303.5 122zM494 700q145 0 235 90.5t90 259.5t-88 262t-235.5 93t-234.5 -93t-87 -261t87.5 -259.5t232.5 -91.5z" />
    <glyph glyph-name="macron" unicode="&#xaf;" horiz-adv-x="825" 
d="M694 1446v-182h-565v182h565z" />
    <glyph glyph-name="degree" unicode="&#xb0;" horiz-adv-x="696" 
d="M140.5 1372.5q83.5 81.5 208.5 81.5q124 0 207 -83t83 -210t-86 -205.5t-210 -78.5t-205 85t-81 207t83.5 203.5zM348 1020q64 0 101.5 40t37.5 105t-37.5 106.5t-101.5 41.5t-101.5 -41t-37.5 -108t37.5 -105.5t101.5 -38.5z" />
    <glyph glyph-name="plusminus" unicode="&#xb1;" 
d="M551 643h-412v109h412v438h111v-438h411v-109h-411v-440h-111v440zM137 111h938v-111h-938v111z" />
    <glyph glyph-name="twosuperior" unicode="&#xb2;" horiz-adv-x="843" 
d="M537 1176q0 120 -120 120q-58 0 -94 -31.5t-53 -109.5l-176 23q31 125 106 198.5t223 73.5t224 -72t76 -178t-58.5 -189t-166.5 -173l-111 -88h346l-22 -156h-592v131l18 16q31 27 73 60t120 98l84 72q59 53 91 100t32 105z" />
    <glyph glyph-name="threesuperior" unicode="&#xb3;" horiz-adv-x="843" 
d="M729 1211q0 -106 -111 -183q66 -29 99 -81t33 -113q0 -123 -75 -198t-241 -75t-245.5 86t-79.5 205h161q8 -80 47 -116t109 -36t111 29t41 102q0 115 -150 115h-84v139h92q59 0 93 31t34 86q0 109 -135 109q-66 0 -101.5 -32t-52.5 -101l-161 24q17 104 95.5 176
t227.5 72q150 0 221.5 -66.5t71.5 -172.5z" />
    <glyph glyph-name="acute" unicode="&#xb4;" horiz-adv-x="825" 
d="M668 1518l-293 -304h-219l239 304h273z" />
    <glyph glyph-name="mu" unicode="&#xb5;" horiz-adv-x="1183" 
d="M365 -397h-232v1462h232v-659q0 -129 39 -186q40 -56 145 -56q65 0 100 18q170 88 170 238v645h234v-1065h-228v154q-119 -180 -295 -181q-116 0 -165 60v-430z" />
    <glyph glyph-name="paragraph" unicode="&#xb6;" horiz-adv-x="1294" 
d="M172.5 1337.5q135.5 124.5 458.5 124.5h524v-1747h-225v1555h-209v-1555h-223v856q-240 15 -350.5 135.5t-110.5 313.5t135.5 317.5z" />
    <glyph glyph-name="periodcentered" unicode="&#xb7;" horiz-adv-x="473" 
d="M360 905v-284h-247v284h247z" />
    <glyph glyph-name="cedilla" unicode="&#xb8;" horiz-adv-x="825" 
d="M324 -309h30q92 0 92 63q0 33 -26.5 46.5t-89.5 15.5h-70l74 196h137l-41 -110q102 -10 144 -57.5t42 -108.5q0 -94 -74.5 -132t-170.5 -38t-164 10v125q70 -10 117 -10z" />
    <glyph glyph-name="onesuperior" unicode="&#xb9;" horiz-adv-x="843" 
d="M561 1417v-823h-186v643l-193 -102l-69 129l272 153h176z" />
    <glyph glyph-name="ordmasculine" unicode="&#xba;" horiz-adv-x="870" 
d="M144.5 775.5q-103.5 109.5 -103.5 304.5t107.5 307t287.5 112t285.5 -110.5t105.5 -308.5t-113 -306t-289 -108q-177 0 -280.5 109.5zM231 1083q0 -262 203 -262t203 261t-155.5 261t-203 -72.5t-47.5 -187.5z" />
    <glyph glyph-name="guillemotright" unicode="&#xbb;" horiz-adv-x="1075" 
d="M492 985h237l266 -463l-270 -459h-233l249 457zM51 985h236l266 -463l-270 -459h-232l246 457z" />
    <glyph glyph-name="onequarter" unicode="&#xbc;" horiz-adv-x="1892" 
d="M436 0l715 1415h227l-714 -1415h-228zM496 1417v-823h-187v643l-192 -102l-70 129l272 153h177zM1683 825v-503h107l-21 -142h-86v-178h-165v178h-402v113l406 532h161zM1518 322v294l-224 -294h224z" />
    <glyph glyph-name="onehalf" unicode="&#xbd;" horiz-adv-x="1892" 
d="M381 0l715 1415h227l-715 -1415h-227zM496 1417v-823h-187v643l-192 -102l-70 129l272 153h177zM1571 584q0 58 -31 90q-31 31 -89 31t-94 -32t-52 -110l-177 23q31 126 93 185q91 89 238 88q146 -1 222 -73t76 -178t-58 -189t-167 -173l-111 -88h346l-22 -156h-592v131
l18 17q31 28 73 60t120 97l84 72q59 53 91 100t32 105z" />
    <glyph glyph-name="threequarters" unicode="&#xbe;" horiz-adv-x="1892" 
d="M532 0l715 1415h228l-715 -1415h-228zM1683 825v-503h107l-21 -142h-86v-178h-165v178h-402v113l406 532h161zM1518 322v294l-224 -294h224zM426 700q152 0 152 128q0 121 -150 118h-84v139h92q59 0 93 31t34 86q0 109 -135 109q-66 0 -102 -32t-52 -101l-161 24
q17 104 95 176t228 72t222 -67t71 -166q0 -66 -31 -110t-80 -79q66 -29 99 -81t33 -113q0 -123 -75 -198t-239 -75t-255 94q-72 78 -72 197h161q8 -80 47 -116t109 -36z" />
    <glyph glyph-name="questiondown" unicode="&#xbf;" horiz-adv-x="1017" 
d="M489 -420q-215 0 -331.5 102.5t-116.5 266.5t63.5 236.5t98.5 107.5l71 69q49 49 84 103.5t35 126.5v31h230v-39q0 -86 -34 -146.5t-82 -111.5t-88 -90t-88 -98t-49 -156q-1 -96 54 -150.5t165 -54.5t172 54t91 177l213 -28q-51 -282 -211 -341t-277 -59zM629 1065v-283
h-240v283h240z" />
    <glyph glyph-name="Agrave" unicode="&#xc0;" horiz-adv-x="1404" 
d="M913 580l-217 602l-215 -602h432zM580 1462h245l557 -1462h-264l-137 373h-567l-135 -373h-256zM874 1583h-223l-305 285h279z" />
    <glyph glyph-name="Aacute" unicode="&#xc1;" horiz-adv-x="1404" 
d="M913 580l-217 602l-215 -602h432zM580 1462h245l557 -1462h-264l-137 373h-567l-135 -373h-256zM1057 1868l-305 -285h-224l252 285h277z" />
    <glyph glyph-name="Acircumflex" unicode="&#xc2;" horiz-adv-x="1404" 
d="M913 580l-217 602l-215 -602h432zM580 1462h245l557 -1462h-264l-137 373h-567l-135 -373h-256zM817 1868l242 -285h-207l-152 154l-151 -154h-207l242 285h233z" />
    <glyph glyph-name="Atilde" unicode="&#xc3;" horiz-adv-x="1404" 
d="M913 580l-217 602l-215 -602h432zM580 1462h245l557 -1462h-264l-137 373h-567l-135 -373h-256zM1085 1849q0 -262 -233 -264q-71 0 -143 43l-54 31q-55 24 -92 24q-80 0 -80 -94h-168q1 137 63 202t173 64q65 0 148 -50t130 -50q88 0 89 94h167z" />
    <glyph glyph-name="Adieresis" unicode="&#xc4;" horiz-adv-x="1404" 
d="M913 580l-217 602l-215 -602h432zM580 1462h245l557 -1462h-264l-137 373h-567l-135 -373h-256zM616 1847v-237h-229v237h229zM1014 1847v-237h-230v237h230z" />
    <glyph glyph-name="Aring" unicode="&#xc5;" horiz-adv-x="1404" 
d="M471 1612q0 111 65.5 169t161.5 58t164 -60.5t68 -176.5t-92 -177l544 -1425h-264l-137 373h-567l-135 -373h-256l542 1421q-61 33 -78 109q-16 31 -16 82zM696 1182l-215 -602h432zM700 1716q-96 0 -96 -104t96 -103q96 0 97 103q0 53 -27 78.5t-70 25.5z" />
    <glyph glyph-name="AE" unicode="&#xc6;" horiz-adv-x="2127" 
d="M1112 670v579h-121l-332 -579h453zM2032 1462v-213h-680v-389h639v-215h-639v-432h719l-29 -213h-930v461h-573l-263 -461h-278l870 1462h1164z" />
    <glyph glyph-name="Ccedilla" unicode="&#xc7;" horiz-adv-x="1458" 
d="M698 -322q103 0 103 45.5t-26.5 61.5t-102.5 16h-60l62 168q-269 28 -418.5 230.5t-149.5 544.5t182.5 548.5t483.5 206.5q386 0 474.5 -189.5t109.5 -299.5l-244 -35q-34 157 -111 234t-229 77q-194 0 -300.5 -148.5t-106.5 -406.5t108.5 -406.5t298.5 -148.5
q238 0 287 122t59 196h262q-25 -226 -167.5 -371.5t-397.5 -157.5l-27 -74q161 -16 179 -77.5t18 -92.5q0 -178 -285 -178q-70 0 -141 11v137q76 -13 139 -13z" />
    <glyph glyph-name="Egrave" unicode="&#xc8;" horiz-adv-x="1226" 
d="M156 1462h972v-213h-725v-389h684v-215h-684v-432h764l-28 -213h-983v1462zM846 1583h-223l-306 285h279z" />
    <glyph glyph-name="Eacute" unicode="&#xc9;" horiz-adv-x="1226" 
d="M156 1462h972v-213h-725v-389h684v-215h-684v-432h764l-28 -213h-983v1462zM987 1868l-305 -285h-223l252 285h276z" />
    <glyph glyph-name="Ecircumflex" unicode="&#xca;" horiz-adv-x="1226" 
d="M156 1462h972v-213h-725v-389h684v-215h-684v-432h764l-28 -213h-983v1462zM762 1868l242 -285h-207l-152 154l-151 -154h-207l241 285h234z" />
    <glyph glyph-name="Edieresis" unicode="&#xcb;" horiz-adv-x="1226" 
d="M156 1462h972v-213h-725v-389h684v-215h-684v-432h764l-28 -213h-983v1462zM561 1847v-237h-229v237h229zM958 1847v-237h-229v237h229z" />
    <glyph glyph-name="Igrave" unicode="&#xcc;" horiz-adv-x="557" 
d="M156 1462h247v-1462h-247v1462zM457 1583h-224l-305 285h279z" />
    <glyph glyph-name="Iacute" unicode="&#xcd;" horiz-adv-x="557" 
d="M156 1462h247v-1462h-247v1462zM637 1868l-305 -285h-223l251 285h277z" />
    <glyph glyph-name="Icircumflex" unicode="&#xce;" horiz-adv-x="557" 
d="M156 1462h247v-1462h-247v1462zM397 1868l242 -285h-207l-151 154l-152 -154h-207l242 285h233z" />
    <glyph glyph-name="Idieresis" unicode="&#xcf;" horiz-adv-x="557" 
d="M156 1462h247v-1462h-247v1462zM197 1847v-237h-230v237h230zM594 1847v-237h-229v237h229z" />
    <glyph glyph-name="Eth" unicode="&#xd0;" horiz-adv-x="1517" 
d="M20 651v207h166v604h531q326 0 510 -182t184 -545t-199.5 -549t-543.5 -186h-482v651h-166zM1155 737q0 514 -438 514h-283v-393h342v-207h-342v-440h240q252 0 366.5 140.5t114.5 385.5z" />
    <glyph glyph-name="Ntilde" unicode="&#xd1;" horiz-adv-x="1454" 
d="M156 1462h229l672 -1056v1056h241v-1462h-229l-674 1053v-1053h-239v1462zM602 1683q-94 0 -92 -94h-168q0 137 62 202t174 64q63 0 147 -50q85 -50 131 -50q88 0 88 94h168q0 -262 -233 -264q-69 0 -144 43l-53 31q-55 24 -80 24z" />
    <glyph glyph-name="Ograve" unicode="&#xd2;" horiz-adv-x="1581" 
d="M790 176q212 0 320 148t109 407q0 258 -109 406q-109 149 -318 149q-208 0 -319 -146t-111 -407t108 -409t320 -148zM795 1499q315 0 496 -203q182 -203 183 -562t-181 -565t-499 -206t-501 202q-185 202 -186 562t186 566t502 206zM995 1583h-223l-305 285h278z" />
    <glyph glyph-name="Oacute" unicode="&#xd3;" horiz-adv-x="1581" 
d="M790 176q212 0 320 148t109 407q0 258 -109 406q-109 149 -318 149q-208 0 -319 -146t-111 -407t108 -409t320 -148zM795 1499q315 0 496 -203q182 -203 183 -562t-181 -565t-499 -206t-501 202q-185 202 -186 562t186 566t502 206zM1128 1868l-305 -285h-223l252 285
h276z" />
    <glyph glyph-name="Ocircumflex" unicode="&#xd4;" horiz-adv-x="1581" 
d="M790 176q212 0 320 148t109 407q0 258 -109 406q-109 149 -318 149q-208 0 -319 -146t-111 -407t108 -409t320 -148zM795 1499q315 0 496 -203q182 -203 183 -562t-181 -565t-499 -206t-501 202q-185 202 -186 562t186 566t502 206zM907 1868l242 -285h-207l-151 154
l-152 -154h-207l242 285h233z" />
    <glyph glyph-name="Otilde" unicode="&#xd5;" horiz-adv-x="1581" 
d="M790 176q212 0 320 148t109 407q0 258 -109 406q-109 149 -318 149q-208 0 -319 -146t-111 -407t108 -409t320 -148zM795 1499q315 0 496 -203q182 -203 183 -562t-181 -565t-499 -206t-501 202q-185 202 -186 562t186 566t502 206zM406 1589q0 137 62 202t173 64
q65 0 148 -50t131 -50q88 0 88 94h168q0 -139 -62 -201t-153 -62q-90 0 -162 42l-54 31q-55 24 -92 24q-36 1 -58 -23t-22 -71h-167z" />
    <glyph glyph-name="Odieresis" unicode="&#xd6;" horiz-adv-x="1581" 
d="M790 176q212 0 320 148t109 407q0 258 -109 406q-109 149 -318 149q-208 0 -319 -146t-111 -407t108 -409t320 -148zM795 1499q315 0 496 -203q182 -203 183 -562t-181 -565t-499 -206t-501 202q-185 202 -186 562t186 566t502 206zM707 1847v-237h-230v237h230z
M1104 1847v-237h-230v237h230z" />
    <glyph glyph-name="multiply" unicode="&#xd7;" 
d="M156 1004l141 143l309 -309l309 309l142 -143l-307 -310l301 -303l-144 -143l-301 303l-303 -303l-141 143l301 303z" />
    <glyph glyph-name="Oslash" unicode="&#xd8;" horiz-adv-x="1581" 
d="M305 150q-199 199 -199 569t187 575t500 205q189 0 348 -86l106 160l121 -80l-108 -166q215 -207 215 -582q0 -376 -184.5 -579t-497.5 -203q-212 0 -371 96l-113 -170l-123 80zM791 176q213 0 320.5 146.5t107.5 399.5t-97 398l-575 -872q96 -72 244 -72zM799 1286
q-222 0 -329.5 -147t-107.5 -394t84 -383l570 861q-100 63 -217 63z" />
    <glyph glyph-name="Ugrave" unicode="&#xd9;" horiz-adv-x="1409" 
d="M1276 586q0 -623 -577 -623q-275 0 -420 151t-146 478v870h246v-876q0 -207 75 -308q75 -102 252 -102q178 0 250 102t72 308v876h248v-876zM891 1583h-223l-306 285h279z" />
    <glyph glyph-name="Uacute" unicode="&#xda;" horiz-adv-x="1409" 
d="M1276 586q0 -623 -577 -623q-275 0 -420 151t-146 478v870h246v-876q0 -207 75 -308q75 -102 252 -102q178 0 250 102t72 308v876h248v-876zM1059 1868l-305 -285h-224l252 285h277z" />
    <glyph glyph-name="Ucircumflex" unicode="&#xdb;" horiz-adv-x="1409" 
d="M1276 586q0 -623 -577 -623q-275 0 -420 151t-146 478v870h246v-876q0 -207 75 -308q75 -102 252 -102q178 0 250 102t72 308v876h248v-876zM819 1868l242 -285h-207l-152 154l-151 -154h-207l242 285h233z" />
    <glyph glyph-name="Udieresis" unicode="&#xdc;" horiz-adv-x="1409" 
d="M1276 586q0 -623 -577 -623q-275 0 -420 151t-146 478v870h246v-876q0 -207 75 -308q75 -102 252 -102q178 0 250 102t72 308v876h248v-876zM618 1847v-237h-229v237h229zM1016 1847v-237h-230v237h230z" />
    <glyph glyph-name="Yacute" unicode="&#xdd;" horiz-adv-x="1300" 
d="M778 0h-246v608l-507 854h276l352 -635l361 635h262l-498 -854v-608zM1010 1868l-305 -285h-224l252 285h277z" />
    <glyph glyph-name="Thorn" unicode="&#xde;" horiz-adv-x="1296" 
d="M1214 754q0 -471 -548 -471h-267v-283h-243v1462h243v-262h263q552 0 552 -446zM659 489q255 0 283.5 99.5t28.5 192t-67.5 152.5t-246.5 60h-258v-504h260z" />
    <glyph glyph-name="germandbls" unicode="&#xdf;" horiz-adv-x="1208" 
d="M846 809q291 -75 291 -411q0 -180 -111.5 -302t-373.5 -115q-97 2 -177 31l35 176q55 -24 133 -24q150 0 207 64.5t57 201.5t-84 194.5t-235 57.5h-80v182h51q117 0 177.5 50t60.5 160t-48.5 168t-170.5 58t-172 -82.5t-50 -238.5v-979h-223v1042q0 204 122.5 320.5
t329.5 116.5q206 0 322.5 -93.5t116.5 -267.5q0 -109 -43 -183.5t-135 -125.5z" />
    <glyph glyph-name="agrave" unicode="&#xe0;" horiz-adv-x="1124" 
d="M774 707q0 121 -58 167t-160 46q-189 1 -222 -144l-213 23q29 155 141 227t309 72q345 0 411 -259q19 -79 19 -173v-666h-223v139q-136 -166 -354 -166q-249 0 -331 178q-27 61 -27 157t49 164t128 108q128 63 373 73l158 9v45zM299 286q0 -54 44 -94q44 -38 130 -38
q153 0 227 78t74 210v62l-149 -6q-279 -16 -315 -124q-11 -34 -11 -88zM526 1518l240 -304h-219l-293 304h272z" />
    <glyph glyph-name="aacute" unicode="&#xe1;" horiz-adv-x="1124" 
d="M774 707q0 121 -58 167t-160 46q-189 1 -222 -144l-213 23q29 155 141 227t309 72q345 0 411 -259q19 -79 19 -173v-666h-223v139q-136 -166 -354 -166q-249 0 -331 178q-27 61 -27 157t49 164t128 108q128 63 373 73l158 9v45zM299 286q0 -54 44 -94q44 -38 130 -38
q153 0 227 78t74 210v62l-149 -6q-279 -16 -315 -124q-11 -34 -11 -88zM905 1518l-293 -304h-219l240 304h272z" />
    <glyph glyph-name="acircumflex" unicode="&#xe2;" horiz-adv-x="1124" 
d="M774 707q0 121 -58 167t-160 46q-189 1 -222 -144l-213 23q29 155 141 227t309 72q345 0 411 -259q19 -79 19 -173v-666h-223v139q-136 -166 -354 -166q-249 0 -331 178q-27 61 -27 157t49 164t128 108q128 63 373 73l158 9v45zM299 286q0 -54 44 -94q44 -38 130 -38
q153 0 227 78t74 210v62l-149 -6q-279 -16 -315 -124q-11 -34 -11 -88zM676 1518l239 -304h-204l-152 175l-151 -175h-207l241 304h234z" />
    <glyph glyph-name="atilde" unicode="&#xe3;" horiz-adv-x="1124" 
d="M774 707q0 121 -58 167t-160 46q-189 1 -222 -144l-213 23q29 155 141 227t309 72q345 0 411 -259q19 -79 19 -173v-666h-223v139q-136 -166 -354 -166q-249 0 -331 178q-27 61 -27 157t49 164t128 108q128 63 373 73l158 9v45zM299 286q0 -54 44 -94q44 -38 130 -38
q153 0 227 78t74 210v62l-149 -6q-279 -16 -315 -124q-11 -34 -11 -88zM184 1235q0 135 60 201t168 65q52 1 113 -33t93 -50t68 -15q86 0 86 92h162q0 -139 -60 -201t-165 -63q-65 0 -140 41l-59 35q-44 22 -76 22q-88 0 -88 -94h-162z" />
    <glyph glyph-name="adieresis" unicode="&#xe4;" horiz-adv-x="1124" 
d="M774 707q0 121 -58 167t-160 46q-189 1 -222 -144l-213 23q29 155 141 227t309 72q345 0 411 -259q19 -79 19 -173v-666h-223v139q-136 -166 -354 -166q-249 0 -331 178q-27 61 -27 157t49 164t128 108q128 63 373 73l158 9v45zM299 286q0 -54 44 -94q44 -38 130 -38
q153 0 227 78t74 210v62l-149 -6q-279 -16 -315 -124q-11 -34 -11 -88zM477 1483v-230h-223v230h223zM864 1483v-230h-223v230h223z" />
    <glyph glyph-name="aring" unicode="&#xe5;" horiz-adv-x="1124" 
d="M774 707q0 121 -58 167t-160 46q-189 1 -222 -144l-213 23q29 155 141 227t309 72q345 0 411 -259q19 -79 19 -173v-666h-223v139q-136 -166 -354 -166q-249 0 -331 178q-27 61 -27 157t49 164t128 108q128 63 373 73l158 9v45zM299 286q0 -54 44 -94q44 -38 130 -38
q153 0 227 78t74 210v62l-149 -6q-279 -16 -315 -124q-11 -34 -11 -88zM557 1642q94 0 160 -58q65 -58 65 -165t-64 -158q-64 -52 -159 -54q-95 -1 -159 52t-64 162t64 165t157 56zM558 1524q-93 0 -93 -100t94 -101q41 0 67 25t25 75q0 101 -93 101z" />
    <glyph glyph-name="ae" unicode="&#xe6;" horiz-adv-x="1832" 
d="M66 293q0 284 222 320t316 40l158 9v45q0 123 -56.5 168t-148.5 45q-164 0 -203 -107q-102 -6 -198 -18l-35 4q29 156 141.5 227.5t302.5 71.5q127 0 209 -41t135 -139q132 180 362 180t349 -141t119 -379v-103h-752q4 -143 72.5 -234t206.5 -91q195 0 233 165h225
q-63 -348 -458 -348q-135 0 -243 54.5t-165 164.5q-151 -213 -409 -213q-172 0 -277.5 77t-105.5 243zM299 286q0 -56 44 -94t126 -38q141 0 217 74.5t76 207.5v68l-150 -6q-266 -16 -289.5 -86t-23.5 -126zM1511 637q0 131 -60 207t-189 76t-195 -78t-76 -205h520z" />
    <glyph glyph-name="ccedilla" unicode="&#xe7;" horiz-adv-x="1155" 
d="M496 -184h-60l60 159q-207 33 -303.5 178.5t-96.5 389.5t138 399.5t380 155.5q379 0 441 -363l-232 -35q-16 90 -61.5 149.5t-139.5 59.5t-189 -59.5t-95 -320.5q0 -262 96 -317.5t186 -55.5q181 0 216 217h235q-48 -389 -440 -404l-23 -67q100 -10 138 -51t47 -97v-30
q-6 -92 -85 -125t-206 -33q-30 0 -117 10v125l94 -10q68 0 84 24q63 4 60 47q-4 29 -33 41.5t-94 12.5z" />
    <glyph glyph-name="egrave" unicode="&#xe8;" horiz-adv-x="1187" 
d="M866 637q0 283 -258 283q-128 0 -196 -77t-78 -206h532zM228 114q-132 146 -132 414t143 419t377 151q235 0 356 -141q122 -141 122 -379v-103h-764q4 -145 74 -235t195 -90q126 0 181 43t74 122h225q-61 -348 -465 -348q-254 1 -386 147zM559 1518l240 -304h-219
l-293 304h272z" />
    <glyph glyph-name="eacute" unicode="&#xe9;" horiz-adv-x="1187" 
d="M866 637q0 283 -258 283q-128 0 -196 -77t-78 -206h532zM228 114q-132 146 -132 414t143 419t377 151q235 0 356 -141q122 -141 122 -379v-103h-764q4 -145 74 -235t195 -90q126 0 181 43t74 122h225q-61 -348 -465 -348q-254 1 -386 147zM944 1518l-293 -304h-219
l240 304h272z" />
    <glyph glyph-name="ecircumflex" unicode="&#xea;" horiz-adv-x="1187" 
d="M866 637q0 283 -258 283q-128 0 -196 -77t-78 -206h532zM228 114q-132 146 -132 414t143 419t377 151q235 0 356 -141q122 -141 122 -379v-103h-764q4 -145 74 -235t195 -90q126 0 181 43t74 122h225q-61 -348 -465 -348q-254 1 -386 147zM725 1518l240 -304h-205
l-152 175l-151 -175h-207l242 304h233z" />
    <glyph glyph-name="edieresis" unicode="&#xeb;" horiz-adv-x="1187" 
d="M866 637q0 283 -258 283q-128 0 -196 -77t-78 -206h532zM228 114q-132 146 -132 414t143 419t377 151q235 0 356 -141q122 -141 122 -379v-103h-764q4 -145 74 -235t195 -90q126 0 181 43t74 122h225q-61 -348 -465 -348q-254 1 -386 147zM526 1483v-230h-223v230h223z
M913 1483v-230h-223v230h223z" />
    <glyph glyph-name="igrave" unicode="&#xec;" horiz-adv-x="503" 
d="M369 1065v-1065h-234v1065h234zM162 1518l239 -304h-219l-293 304h273z" />
    <glyph glyph-name="iacute" unicode="&#xed;" horiz-adv-x="503" 
d="M369 1065v-1065h-234v1065h234zM623 1518l-293 -304h-219l239 304h273z" />
    <glyph glyph-name="icircumflex" unicode="&#xee;" horiz-adv-x="503" 
d="M369 1065v-1065h-234v1065h234zM369 1518l239 -304h-205l-151 175l-152 -175h-206l241 304h234z" />
    <glyph glyph-name="idieresis" unicode="&#xef;" horiz-adv-x="503" 
d="M369 1065v-1065h-234v1065h234zM170 1483v-230h-223v230h223zM557 1483v-230h-223v230h223z" />
    <glyph glyph-name="eth" unicode="&#xf0;" horiz-adv-x="1247" 
d="M762 1380q387 -209 387 -797q0 -302 -147 -459t-387 -157q-239 0 -379 142t-140 374t140 378.5t347 146.5q208 0 322 -140q-27 125 -91 219.5t-191 153.5l-152 -151l-96 100l102 100q-90 27 -209 35l35 180q182 -20 324 -65l127 125l94 -99zM907 506q0 171 -83 242
t-212 71t-201.5 -92t-72.5 -241t73 -239.5t211 -90.5t211.5 92t73.5 246v12z" />
    <glyph glyph-name="ntilde" unicode="&#xf1;" horiz-adv-x="1189" 
d="M711 1098q356 0 356 -393v-705h-233v668q0 129 -48 181t-124 52q-136 0 -218 -80q-81 -81 -79 -186v-635h-232v1065h225v-156q139 189 353 189zM225 1235q1 135 61 201t167 65q52 1 113 -33q62 -34 94 -50t67 -15q86 0 86 92h162q-1 -139 -61 -201t-164 -63
q-65 0 -140 41l-59 35q-44 22 -76 22q-88 0 -88 -94h-162z" />
    <glyph glyph-name="ograve" unicode="&#xf2;" horiz-adv-x="1247" 
d="M234 114q-138 148 -138 412t142 418t388 154t384 -153q139 -153 139 -415t-146 -413q-146 -150 -389 -150q-242 -1 -380 147zM338 535q0 -379 282 -379q150 0 219 101t69 277q-1 376 -285 375q-147 0 -216 -101t-69 -273zM582 1518l239 -304h-219l-293 304h273z" />
    <glyph glyph-name="oacute" unicode="&#xf3;" horiz-adv-x="1247" 
d="M234 114q-138 148 -138 412t142 418t388 154t384 -153q139 -153 139 -415t-146 -413q-146 -150 -389 -150q-242 -1 -380 147zM338 535q0 -379 282 -379q150 0 219 101t69 277q-1 376 -285 375q-147 0 -216 -101t-69 -273zM961 1518l-293 -304h-219l239 304h273z" />
    <glyph glyph-name="ocircumflex" unicode="&#xf4;" horiz-adv-x="1247" 
d="M234 114q-138 148 -138 412t142 418t388 154t384 -153q139 -153 139 -415t-146 -413q-146 -150 -389 -150q-242 -1 -380 147zM338 535q0 -379 282 -379q150 0 219 101t69 277q-1 376 -285 375q-147 0 -216 -101t-69 -273zM739 1518l240 -304h-205l-151 175l-152 -175
h-207l242 304h233z" />
    <glyph glyph-name="otilde" unicode="&#xf5;" horiz-adv-x="1247" 
d="M234 114q-138 148 -138 412t142 418t388 154t384 -153q139 -153 139 -415t-146 -413q-146 -150 -389 -150q-242 -1 -380 147zM338 535q0 -379 282 -379q150 0 219 101t69 277q-1 376 -285 375q-147 0 -216 -101t-69 -273zM248 1235q0 135 60 201t167 65q55 0 140 -49
q34 -18 67 -34t68 -15q86 0 86 92h161q0 -139 -60 -201t-165 -63q-67 0 -139 41l-60 35q-44 22 -75 22q-88 0 -88 -94h-162z" />
    <glyph glyph-name="odieresis" unicode="&#xf6;" horiz-adv-x="1247" 
d="M234 114q-138 148 -138 412t142 418t388 154t384 -153q139 -153 139 -415t-146 -413q-146 -150 -389 -150q-242 -1 -380 147zM338 535q0 -379 282 -379q150 0 219 101t69 277q-1 376 -285 375q-147 0 -216 -101t-69 -273zM541 1483v-230h-224v230h224zM928 1483v-230
h-223v230h223z" />
    <glyph glyph-name="divide" unicode="&#xf7;" 
d="M715 1194v-246h-221v246h221zM715 436v-246h-221v246h221zM1053 799v-203h-893v203h893z" />
    <glyph glyph-name="oslash" unicode="&#xf8;" horiz-adv-x="1247" 
d="M248 100q-152 147 -152 418t141 425.5t388 154.5q137 0 258 -58l88 131l114 -77l-90 -133q154 -154 154 -423t-145 -420t-395 -151q-128 0 -249 56l-96 -146l-114 78zM623 156q147 0 215.5 102t68.5 259t-45 245l-385 -572q62 -34 146 -34zM405.5 808
q-67.5 -101 -67.5 -262t47 -243l383 569q-72 37 -145 37q-150 0 -217.5 -101z" />
    <glyph glyph-name="ugrave" unicode="&#xf9;" horiz-adv-x="1175" 
d="M125 358v707h231v-670q0 -133 44 -182t144 -49q101 0 184 75t83 191v635h233v-1065h-227v156q-143 -189 -336 -189q-194 0 -275 96t-81 295zM537 1518l239 -304h-219l-293 304h273z" />
    <glyph glyph-name="uacute" unicode="&#xfa;" horiz-adv-x="1175" 
d="M125 358v707h231v-670q0 -133 44 -182t144 -49q101 0 184 75t83 191v635h233v-1065h-227v156q-143 -189 -336 -189q-194 0 -275 96t-81 295zM922 1518l-293 -304h-219l239 304h273z" />
    <glyph glyph-name="ucircumflex" unicode="&#xfb;" horiz-adv-x="1175" 
d="M125 358v707h231v-670q0 -133 44 -182t144 -49q101 0 184 75t83 191v635h233v-1065h-227v156q-143 -189 -336 -189q-194 0 -275 96t-81 295zM705 1518l239 -304h-205l-151 175l-152 -175h-207l242 304h234z" />
    <glyph glyph-name="udieresis" unicode="&#xfc;" horiz-adv-x="1175" 
d="M125 358v707h231v-670q0 -133 44 -182t144 -49q101 0 184 75t83 191v635h233v-1065h-227v156q-143 -189 -336 -189q-194 0 -275 96t-81 295zM504 1483v-230h-223v230h223zM891 1483v-230h-223v230h223z" />
    <glyph glyph-name="yacute" unicode="&#xfd;" horiz-adv-x="1116" 
d="M145 -188q51 -18 115 -18t98 29q35 30 66 111l39 103l-449 1028h271l293 -768l268 768h254l-424 -1075q-37 -94 -70 -166t-74 -121q-85 -102 -235 -100q-98 0 -195 30zM889 1518l-293 -304h-219l239 304h273z" />
    <glyph glyph-name="thorn" unicode="&#xfe;" horiz-adv-x="1249" 
d="M365 926q129 172 345 172t329.5 -151.5t113.5 -411.5t-127 -414t-340 -154q-92 0 -173 33t-148 121v-518h-232v1859h232v-536zM802.5 202q106.5 44 106.5 327q0 192 -72 284t-188 92q-217 0 -252 -132t-35 -208v-67q4 -186 78 -263t201 -77q55 0 161.5 44z" />
    <glyph glyph-name="ydieresis" unicode="&#xff;" horiz-adv-x="1116" 
d="M145 -188q51 -18 115 -18t98 29q35 30 66 111l39 103l-449 1028h271l293 -768l268 768h254l-424 -1075q-37 -94 -70 -166t-74 -121q-85 -102 -235 -100q-98 0 -195 30zM477 1483v-230h-223v230h223zM864 1483v-230h-223v230h223z" />
    <glyph glyph-name="Amacron" unicode="&#x100;" horiz-adv-x="1404" 
d="M913 580l-217 602l-215 -602h432zM580 1462h245l557 -1462h-264l-137 373h-567l-135 -373h-256zM1010 1812v-188h-617v188h617z" />
    <glyph glyph-name="amacron" unicode="&#x101;" horiz-adv-x="1124" 
d="M774 707q0 121 -58 167t-160 46q-189 1 -222 -144l-213 23q29 155 141 227t309 72q345 0 411 -259q19 -79 19 -173v-666h-223v139q-136 -166 -354 -166q-249 0 -331 178q-27 61 -27 157t49 164t128 108q128 63 373 73l158 9v45zM299 286q0 -54 44 -94q44 -38 130 -38
q153 0 227 78t74 210v62l-149 -6q-279 -16 -315 -124q-11 -34 -11 -88zM834 1446v-182h-566v182h566z" />
    <glyph glyph-name="Abreve" unicode="&#x102;" horiz-adv-x="1404" 
d="M913 580l-217 602l-215 -602h432zM580 1462h245l557 -1462h-264l-137 373h-567l-135 -373h-256zM567 1882q0 -82 40 -117t93 -35t93 34q39 34 38 118h177q0 -152 -84 -226t-226 -73q-142 0 -224 76q-81 76 -81 223h174z" />
    <glyph glyph-name="abreve" unicode="&#x103;" horiz-adv-x="1124" 
d="M774 707q0 121 -58 167t-160 46q-189 1 -222 -144l-213 23q29 155 141 227t309 72q345 0 411 -259q19 -79 19 -173v-666h-223v139q-136 -166 -354 -166q-249 0 -331 178q-27 61 -27 157t49 164t128 108q128 63 373 73l158 9v45zM299 286q0 -54 44 -94q44 -38 130 -38
q153 0 227 78t74 210v62l-149 -6q-279 -16 -315 -124q-11 -34 -11 -88zM426 1511q0 -85 39 -119t91 -34t91 35t39 118h172q0 -151 -82 -227t-221 -76t-217 77t-78 226h166z" />
    <glyph glyph-name="Aogonek" unicode="&#x104;" horiz-adv-x="1404" 
d="M1309 -244q40 0 73 6v-153q-23 -4 -28 -4h-56q-125 0 -193.5 37t-68.5 137q0 63 39 115.5t115 105.5h-72l-137 373h-567l-135 -373h-256l557 1462h245l557 -1462q-132 -81 -139 -154q-6 -37 10 -55q16 -35 56 -35zM696 1182l-215 -602h432z" />
    <glyph glyph-name="aogonek" unicode="&#x105;" horiz-adv-x="1124" 
d="M66 308q0 96 49 164.5t151.5 119.5t349.5 61l158 9v45q0 119 -56 166t-160 47t-156 -37t-68 -107l-213 23q29 156 141.5 227.5t308.5 71.5q340 0 385 -161t45 -255v-682q-131 -78 -139 -160q0 -45 23 -58t39 -15t24 -1t17 1l34 2v-148q-31 -4 -53 -4h-84q-85 0 -129.5 38
t-53.5 79q-9 42 -6 84t40 91.5t102 90.5l-37 18v121q-142 -166 -354 -166q-250 0 -304 119.5t-54 215.5zM299 286q0 -54 44 -93t130 -39q154 0 227.5 77.5t73.5 210.5v62l-149 -6q-278 -16 -302 -87t-24 -125z" />
    <glyph glyph-name="Cacute" unicode="&#x106;" horiz-adv-x="1458" 
d="M281 166q-172 203 -174 562q-1 359 182 565t483 206q389 0 521 -289q42 -90 63 -200l-244 -35q-33 155 -112 234q-78 79 -228 77q-194 0 -302 -150q-107 -150 -106 -406t109 -405t299 -149q239 0 312 185q24 58 34 133h262q-25 -238 -174 -379q-160 -152 -457 -152
q-296 0 -468 203zM1118 1868l-305 -285h-223l252 285h276z" />
    <glyph glyph-name="cacute" unicode="&#x107;" horiz-adv-x="1155" 
d="M935 75q-116 -108 -348 -108t-362 150q-129 150 -129 410q0 259 138 415t380 156q301 0 400 -226q29 -66 41 -137l-232 -35q-16 90 -62 150q-45 60 -139 59t-145 -33q-139 -89 -139 -348q0 -260 141 -343q51 -30 125 -29q201 0 232 217h235q-20 -190 -136 -298zM934 1518
l-293 -304h-219l240 304h272z" />
    <glyph glyph-name="Ccircumflex" unicode="&#x108;" horiz-adv-x="1458" 
d="M281 166q-172 203 -174 562q-1 359 182 565t483 206q389 0 521 -289q42 -90 63 -200l-244 -35q-33 155 -112 234q-78 79 -228 77q-194 0 -302 -150q-107 -150 -106 -406t109 -405t299 -149q239 0 312 185q24 58 34 133h262q-25 -238 -174 -379q-160 -152 -457 -152
q-296 0 -468 203zM885 1868l241 -285h-206l-152 154l-152 -154h-206l241 285h234z" />
    <glyph glyph-name="ccircumflex" unicode="&#x109;" horiz-adv-x="1155" 
d="M935 75q-116 -108 -348 -108t-362 150q-129 150 -129 410q0 259 138 415t380 156q301 0 400 -226q29 -66 41 -137l-232 -35q-16 90 -62 150q-45 60 -139 59t-145 -33q-139 -89 -139 -348q0 -260 141 -343q51 -30 125 -29q201 0 232 217h235q-20 -190 -136 -298zM723 1518
l240 -304h-205l-152 175l-151 -175h-207l241 304h234z" />
    <glyph glyph-name="Cdotaccent" unicode="&#x10a;" horiz-adv-x="1458" 
d="M281 166q-172 203 -174 562q-1 359 182 565t483 206q389 0 521 -289q42 -90 63 -200l-244 -35q-33 155 -112 234q-78 79 -228 77q-194 0 -302 -150q-107 -150 -106 -406t109 -405t299 -149q239 0 312 185q24 58 34 133h262q-25 -238 -174 -379q-160 -152 -457 -152
q-296 0 -468 203zM889 1851v-245h-240v245h240z" />
    <glyph glyph-name="cdotaccent" unicode="&#x10b;" horiz-adv-x="1155" 
d="M935 75q-116 -108 -348 -108t-362 150q-129 150 -129 410q0 259 138 415t380 156q301 0 400 -226q29 -66 41 -137l-232 -35q-16 90 -62 150q-45 60 -139 59t-145 -33q-139 -89 -139 -348q0 -260 141 -343q51 -30 125 -29q201 0 232 217h235q-20 -190 -136 -298zM721 1485
v-234h-227v234h227z" />
    <glyph glyph-name="Ccaron" unicode="&#x10c;" horiz-adv-x="1458" 
d="M281 166q-172 203 -174 562q-1 359 182 565t483 206q389 0 521 -289q42 -90 63 -200l-244 -35q-33 155 -112 234q-78 79 -228 77q-194 0 -302 -150q-107 -150 -106 -406t109 -405t299 -149q239 0 312 185q24 58 34 133h262q-25 -238 -174 -379q-160 -152 -457 -152
q-296 0 -468 203zM616 1876l154 -156l150 156h206l-241 -287h-234l-241 287h206z" />
    <glyph glyph-name="ccaron" unicode="&#x10d;" horiz-adv-x="1155" 
d="M935 75q-116 -108 -348 -108t-362 150q-129 150 -129 410q0 259 138 415t380 156q301 0 400 -226q29 -66 41 -137l-232 -35q-16 90 -62 150q-45 60 -139 59t-145 -33q-139 -89 -139 -348q0 -260 141 -343q51 -30 125 -29q201 0 232 217h235q-20 -190 -136 -298zM489 1214
l-241 306h207l151 -177l152 177h205l-240 -306h-234z" />
    <glyph glyph-name="Dcaron" unicode="&#x10e;" horiz-adv-x="1486" 
d="M684 1462q505 0 648 -404q48 -136 48 -318q0 -359 -196 -550q-196 -190 -549 -190h-479v1462h528zM643 211q248 0 365 140q118 140 117 384t-103 380t-336 136h-283v-1040h240zM485 1876l154 -156l149 156h207l-241 -287h-234l-241 287h206z" />
    <glyph glyph-name="dcaron" unicode="&#x10f;" horiz-adv-x="1247" 
d="M887 147q-132 -180 -348 -180t-330 154q-113 154 -113 402t115 405t321 166q28 3 92 -4q152 -15 259 -144v516h231v-1462h-227v147zM885 555q0 278 -169 335q-50 17 -106 17q-130 0 -200 -92t-70 -287t75 -284q69 -86 190 -86q122 0 201 83t79 259v55zM1532 1462
l-109 -458h-174l62 458h221z" />
    <glyph glyph-name="Dcroat" unicode="&#x110;" horiz-adv-x="1517" 
d="M20 651v207h166v604h531q326 0 510 -182t184 -544t-199 -549t-544 -187h-482v651h-166zM674 211q252 0 366 140t115 386q0 380 -241 480q-83 35 -197 34h-283v-393h342v-207h-342v-440h240z" />
    <glyph glyph-name="dcroat" unicode="&#x111;" horiz-adv-x="1261" 
d="M889 147q-135 -180 -352 -180t-329 151.5t-112 382.5t124.5 386t332.5 155t330 -153v276h-332v152h332v145h233v-145h139v-152h-139v-1165h-227v147zM887 518q0 250 -109.5 292t-167.5 42q-119 0 -194.5 -86t-75.5 -261t72 -261t200 -86q129 0 202 92t73 246v22z" />
    <glyph glyph-name="Emacron" unicode="&#x112;" horiz-adv-x="1226" 
d="M156 1462h972v-213h-725v-389h684v-215h-684v-432h764l-28 -213h-983v1462zM961 1812v-188h-617v188h617z" />
    <glyph glyph-name="emacron" unicode="&#x113;" horiz-adv-x="1187" 
d="M866 637q0 283 -258 283q-128 0 -196 -77t-78 -206h532zM228 114q-132 146 -132 414t143 419t377 151q235 0 356 -141q122 -141 122 -379v-103h-764q4 -145 74 -235t195 -90q126 0 181 43t74 122h225q-61 -348 -465 -348q-254 1 -386 147zM897 1446v-182h-565v182h565z
" />
    <glyph glyph-name="Ebreve" unicode="&#x114;" horiz-adv-x="1226" 
d="M156 1462h972v-213h-725v-389h684v-215h-684v-432h764l-28 -213h-983v1462zM518 1882q0 -82 40 -117t93 -35t92 34t39 118h176q0 -152 -84 -226t-226 -73q-142 0 -223 76t-81 223h174z" />
    <glyph glyph-name="ebreve" unicode="&#x115;" horiz-adv-x="1187" 
d="M866 637q0 283 -258 283q-128 0 -196 -77t-78 -206h532zM228 114q-132 146 -132 414t143 419t377 151q235 0 356 -141q122 -141 122 -379v-103h-764q4 -145 74 -235t195 -90q126 0 181 43t74 122h225q-61 -348 -465 -348q-254 1 -386 147zM481 1511q0 -85 39 -119t91 -34
t91 35t39 118h172q0 -151 -82 -227t-221 -76t-217 77t-78 226h166z" />
    <glyph glyph-name="Edotaccent" unicode="&#x116;" horiz-adv-x="1226" 
d="M156 1462h972v-213h-725v-389h684v-215h-684v-432h764l-28 -213h-983v1462zM772 1851v-245h-240v245h240z" />
    <glyph glyph-name="edotaccent" unicode="&#x117;" horiz-adv-x="1187" 
d="M866 637q0 283 -258 283q-128 0 -196 -77t-78 -206h532zM228 114q-132 146 -132 414t143 419t377 151q235 0 356 -141q122 -141 122 -379v-103h-764q4 -145 74 -235t195 -90q126 0 181 43t74 122h225q-61 -348 -465 -348q-254 1 -386 147zM729 1485v-234h-227v234h227z
" />
    <glyph glyph-name="Eogonek" unicode="&#x118;" horiz-adv-x="1226" 
d="M1063 -244q39 0 74 6v-153q-23 -4 -28 -4h-54q-127 0 -185.5 31.5t-70.5 95.5q-8 23 -8 47q0 63 38.5 115.5t114.5 105.5h-788v1462h972v-213h-725v-389h684v-215h-684v-432h764l-28 -213q-129 -79 -142 -154q-4 -39 11 -55q16 -35 55 -35z" />
    <glyph glyph-name="eogonek" unicode="&#x119;" horiz-adv-x="1187" 
d="M804 -383h-52q-167 0 -209.5 58.5t-42.5 103.5q0 110 102 190q-50 0 -94 8q-412 58 -412 549q0 270 142.5 421t378.5 151t356.5 -141.5t120.5 -378.5v-103h-764q2 -147 72.5 -236t211.5 -89q201 0 240 165h225q-23 -121 -68 -180t-98 -90t-102 -60.5t-85 -64.5t-36 -82
t23.5 -60.5t56.5 -13.5l59 5v-148q-20 -4 -25 -4zM866 637q0 129 -61.5 206t-190.5 77t-201.5 -77t-78.5 -206h532z" />
    <glyph glyph-name="Ecaron" unicode="&#x11a;" horiz-adv-x="1226" 
d="M156 1462h972v-213h-725v-389h684v-215h-684v-432h764l-28 -213h-983v1462zM500 1876l153 -156l150 156h207l-242 -287h-233l-242 287h207z" />
    <glyph glyph-name="ecaron" unicode="&#x11b;" horiz-adv-x="1187" 
d="M866 637q0 283 -258 283q-128 0 -196 -77t-78 -206h532zM228 114q-132 146 -132 414t143 419t377 151q235 0 356 -141q122 -141 122 -379v-103h-764q4 -145 74 -235t195 -90q126 0 181 43t74 122h225q-61 -348 -465 -348q-254 1 -386 147zM498 1214l-242 306h207
l151 -177l152 177h205l-240 -306h-233z" />
    <glyph glyph-name="Gcircumflex" unicode="&#x11c;" horiz-adv-x="1476" 
d="M795 174q202 0 342 96v297h-324v209h553v-602q-112 -104 -266 -158t-316 -53q-326 0 -501 202t-176 560q-1 357 179 565q180 209 484 209q251 0 392 -120q140 -120 179 -314l-243 -35q-35 133 -107 195q-72 63 -198 63q-125 0 -202 -40q-229 -119 -229 -520t237 -515
q81 -39 196 -39zM895 1868l242 -285h-207l-152 154l-151 -154h-207l242 285h233z" />
    <glyph glyph-name="gcircumflex" unicode="&#x11d;" horiz-adv-x="1247" 
d="M590 -236h53q141 4 198 111q40 75 42 248v72q-119 -168 -340 -168t-334 145t-113 380t119 388q119 152 332 156q108 7 195 -38q88 -44 147 -122v129h227v-918q0 -427 -264 -530q-94 -37 -229 -37q-240 0 -353 84t-131 254h234q25 -154 217 -154zM340 561q0 -348 277 -348
q133 0 201 90t67 256v12q-1 336 -279 336q-126 0 -196 -88t-70 -258zM756 1518l239 -304h-204l-152 175l-152 -175h-206l241 304h234z" />
    <glyph glyph-name="Gbreve" unicode="&#x11e;" horiz-adv-x="1476" 
d="M795 174q202 0 342 96v297h-324v209h553v-602q-112 -104 -266 -158t-316 -53q-326 0 -501 202t-176 560q-1 357 179 565q180 209 484 209q251 0 392 -120q140 -120 179 -314l-243 -35q-35 133 -107 195q-72 63 -198 63q-125 0 -202 -40q-229 -119 -229 -520t237 -515
q81 -39 196 -39zM645 1882q0 -82 40 -117t93 -35t92 34t39 118h176q0 -152 -84 -226t-226 -73q-142 0 -223 76t-81 223h174z" />
    <glyph glyph-name="gbreve" unicode="&#x11f;" horiz-adv-x="1247" 
d="M590 -236h53q141 4 198 111q40 75 42 248v72q-119 -168 -340 -168t-334 145t-113 380t119 388q119 152 332 156q108 7 195 -38q88 -44 147 -122v129h227v-918q0 -427 -264 -530q-94 -37 -229 -37q-240 0 -353 84t-131 254h234q25 -154 217 -154zM340 561q0 -348 277 -348
q133 0 201 90t67 256v12q-1 336 -279 336q-126 0 -196 -88t-70 -258zM508 1511q0 -85 39 -119t91 -34t91 35t39 118h172q0 -151 -82 -227t-221 -76t-217 77t-78 226h166z" />
    <glyph glyph-name="Gdotaccent" unicode="&#x120;" horiz-adv-x="1476" 
d="M795 174q202 0 342 96v297h-324v209h553v-602q-112 -104 -266 -158t-316 -53q-326 0 -501 202t-176 560q-1 357 179 565q180 209 484 209q251 0 392 -120q140 -120 179 -314l-243 -35q-35 133 -107 195q-72 63 -198 63q-125 0 -202 -40q-229 -119 -229 -520t237 -515
q81 -39 196 -39zM899 1851v-245h-240v245h240z" />
    <glyph glyph-name="gdotaccent" unicode="&#x121;" horiz-adv-x="1247" 
d="M590 -236h53q141 4 198 111q40 75 42 248v72q-119 -168 -340 -168t-334 145t-113 380t119 388q119 152 332 156q108 7 195 -38q88 -44 147 -122v129h227v-918q0 -427 -264 -530q-94 -37 -229 -37q-240 0 -353 84t-131 254h234q25 -154 217 -154zM340 561q0 -348 277 -348
q133 0 201 90t67 256v12q-1 336 -279 336q-126 0 -196 -88t-70 -258zM739 1485v-234h-227v234h227z" />
    <glyph glyph-name="Gcommaaccent" unicode="&#x122;" horiz-adv-x="1476" 
d="M795 174q202 0 342 96v297h-324v209h553v-602q-112 -104 -266 -158t-316 -53q-326 0 -501 202t-176 560q-1 357 179 565q180 209 484 209q251 0 392 -120q140 -120 179 -314l-243 -35q-35 133 -107 195q-72 63 -198 63q-125 0 -202 -40q-229 -119 -229 -520t237 -515
q81 -39 196 -39zM936 -137l-211 -318h-215l162 318h264z" />
    <glyph glyph-name="gcommaaccent" unicode="&#x123;" horiz-adv-x="1247" 
d="M590 -236h53q141 4 198 111q40 75 42 248v72q-119 -168 -340 -168t-334 145t-113 380t119 388q119 152 332 156q108 7 195 -38q88 -44 147 -122v129h227v-918q0 -427 -264 -530q-94 -37 -229 -37q-240 0 -353 84t-131 254h234q25 -154 217 -154zM340 561q0 -348 277 -348
q133 0 201 90t67 256v12q-1 336 -279 336q-126 0 -196 -88t-70 -258zM887 1518l-156 -308h-254l205 308h205z" />
    <glyph glyph-name="Hcircumflex" unicode="&#x124;" horiz-adv-x="1464" 
d="M156 1462h247v-592h658v592h248v-1462h-248v641h-658v-641h-247v1462zM850 1868l242 -285h-207l-152 154l-151 -154h-207l241 285h234z" />
    <glyph glyph-name="hcircumflex" unicode="&#x125;" horiz-adv-x="1189" 
d="M834 668q0 233 -172 233q-138 1 -218 -79t-79 -187v-635h-232v1462h232v-544q133 180 346 180q356 0 356 -393v-705h-233v668zM618 1868l242 -285h-207l-151 154l-152 -154h-207l242 285h233z" />
    <glyph glyph-name="Hbar" unicode="&#x126;" horiz-adv-x="1527" 
d="M20 1063v192h166v207h248v-207h660v207h247v-207h166v-192h-166v-1063h-247v614h-660v-614h-248v1063h-166zM1094 1063h-660v-219h660v219z" />
    <glyph glyph-name="hbar" unicode="&#x127;" horiz-adv-x="1202" 
d="M846 614q0 232 -172 232q-137 0 -217 -80t-80 -186v-580h-232v1165h-139v152h139v145h232v-145h336v-152h-336v-305q138 182 333 182t282 -97t87 -294v-651h-233v614z" />
    <glyph glyph-name="Itilde" unicode="&#x128;" horiz-adv-x="557" 
d="M156 1462h247v-1462h-247v1462zM-104 1589q0 137 62 202t173 64q65 0 148 -50t131 -50q88 0 88 94h168q0 -139 -62 -201t-153 -62q-90 0 -162 42l-53 31q-55 24 -92 24q-37 1 -59 -23t-22 -71h-167z" />
    <glyph glyph-name="itilde" unicode="&#x129;" horiz-adv-x="503" 
d="M369 1065v-1065h-234v1065h234zM-123 1235q1 135 61 201t166 65q53 1 114 -33q62 -34 94 -50t67 -15q86 0 86 92h162q-1 -139 -61 -201t-165 -63q-64 0 -139 41l-59 35q-44 22 -76 22q-88 0 -88 -94h-162z" />
    <glyph glyph-name="Imacron" unicode="&#x12a;" horiz-adv-x="557" 
d="M156 1462h247v-1462h-247v1462zM590 1812v-188h-617v188h617z" />
    <glyph glyph-name="imacron" unicode="&#x12b;" horiz-adv-x="503" 
d="M369 1065v-1065h-234v1065h234zM535 1446v-182h-566v182h566z" />
    <glyph glyph-name="Ibreve" unicode="&#x12c;" horiz-adv-x="557" 
d="M156 1462h247v-1462h-247v1462zM147 1882q0 -82 40 -117q39 -35 93 -35t93 34t39 118h176q0 -152 -84 -226t-226 -73q-142 0 -224 76q-81 76 -81 223h174z" />
    <glyph glyph-name="ibreve" unicode="&#x12d;" horiz-adv-x="503" 
d="M369 1065v-1065h-234v1065h234zM121 1511q0 -85 39 -119t91 -34t91 35t39 118h172q0 -151 -82 -227t-221 -76t-217 77t-78 226h166z" />
    <glyph glyph-name="Iogonek" unicode="&#x12e;" horiz-adv-x="557" 
d="M338 -244q30 0 63 6v-153q-29 -4 -35 -4h-77q-185 0 -209.5 70.5t-24.5 118.5q0 99 154 206l-53 68v1394h247v-1462q-145 -90 -145 -153.5t25 -77t55 -13.5z" />
    <glyph glyph-name="iogonek" unicode="&#x12f;" horiz-adv-x="503" 
d="M270 -385q-232 0 -233 170q0 119 147 215h-49v1065h234v-1065q-138 -88 -138 -148.5t24 -74t54 -13.5l60 5v-148q-43 -6 -99 -6zM373 1462v-231h-242v231h242z" />
    <glyph glyph-name="Idotaccent" unicode="&#x130;" horiz-adv-x="557" 
d="M156 1462h247v-1462h-247v1462zM401 1851v-245h-239v245h239z" />
    <glyph glyph-name="dotlessi" unicode="&#x131;" horiz-adv-x="503" 
d="M369 1065v-1065h-234v1065h234z" />
    <glyph glyph-name="IJ" unicode="&#x132;" horiz-adv-x="1824" 
d="M156 1462h247v-1462h-247v1462zM1436 1462h247v-970q0 -262 -140 -396t-386 -133q-246 0 -383 123t-156 385h248q17 -147 83 -221t213 -74t210 86t64 246v954z" />
    <glyph glyph-name="ij" unicode="&#x133;" horiz-adv-x="1007" 
d="M369 1065v-1065h-234v1065h234zM373 1462v-231h-242v231h242zM877 1462v-231h-242v231h242zM514 -186q74 0 100 51t25 149v1051h233v-1073q0 -180 -74 -276q-75 -95 -247 -95q-109 0 -207 33l35 178q61 -18 135 -18z" />
    <glyph glyph-name="Jcircumflex" unicode="&#x134;" horiz-adv-x="1263" 
d="M874 508v954h248v-970q0 -262 -140 -396t-386 -133q-246 0 -383 123t-156 385h248q17 -147 83 -221t213 -74t210 86t63 246zM1114 1868l242 -285h-207l-152 154l-151 -154h-207l242 285h233z" />
    <glyph glyph-name="jcircumflex" unicode="&#x135;" horiz-adv-x="503" 
d="M10 -186q74 0 100 51t25 149v1051h234v-1073q0 -180 -75 -276t-247 -95q-109 0 -207 33l35 178q61 -18 135 -18zM369 1518l239 -304h-205l-151 175l-152 -175h-206l241 304h234z" />
    <glyph glyph-name="Kcommaaccent" unicode="&#x136;" horiz-adv-x="1355" 
d="M156 1462h247v-643l613 643h274l-504 -549l560 -913h-281l-453 754l-209 -211v-543h-247v1462zM860 -137l-211 -318h-215l162 318h264z" />
    <glyph glyph-name="kcommaaccent" unicode="&#x137;" horiz-adv-x="1126" 
d="M360 1462v-809l455 412h272l-385 -363l420 -702h-256l-331 569l-175 -155v-414h-227v1462h227zM735 -137l-203 -307h-206l155 307h254z" />
    <glyph glyph-name="kgreenlandic" unicode="&#x138;" horiz-adv-x="1126" 
d="M360 1065v-461l457 461h268l-378 -391l415 -674h-256l-323 537l-183 -179v-358h-227v1065h227z" />
    <glyph glyph-name="Lacute" unicode="&#x139;" horiz-adv-x="1173" 
d="M403 1462v-1247h725l-30 -215h-942v1462h247zM662 1868l-306 -285h-223l252 285h277z" />
    <glyph glyph-name="lacute" unicode="&#x13a;" horiz-adv-x="503" 
d="M369 1462v-1462h-234v1462h234zM637 1868l-305 -285h-223l251 285h277z" />
    <glyph glyph-name="Lcommaaccent" unicode="&#x13b;" horiz-adv-x="1173" 
d="M403 1462v-1247h725l-30 -215h-942v1462h247zM780 -137l-211 -318h-215l162 318h264z" />
    <glyph glyph-name="lcommaaccent" unicode="&#x13c;" horiz-adv-x="503" 
d="M369 1462v-1462h-234v1462h234zM381 -137l-203 -307h-207l156 307h254z" />
    <glyph glyph-name="Lcaron" unicode="&#x13d;" horiz-adv-x="1173" 
d="M403 1462v-1247h725l-30 -215h-942v1462h247zM984 1465l-111 -466h-176l62 466h225z" />
    <glyph glyph-name="lcaron" unicode="&#x13e;" horiz-adv-x="503" 
d="M369 1462v-1462h-234v1462h234zM782 1462l-108 -458h-174l61 458h221z" />
    <glyph glyph-name="Ldot" unicode="&#x13f;" horiz-adv-x="1173" 
d="M403 1462v-1247h725l-30 -215h-942v1462h247zM967 961v-285h-248v285h248z" />
    <glyph glyph-name="ldot" unicode="&#x140;" horiz-adv-x="796" 
d="M369 1462v-1462h-234v1462h234zM776 905v-284h-248v284h248z" />
    <glyph glyph-name="Lslash" unicode="&#x141;" horiz-adv-x="1204" 
d="M186 1462h248v-596l369 254v-219l-369 -254v-432h725l-31 -215h-942v479l-166 -114v221l166 114v762z" />
    <glyph glyph-name="lslash" unicode="&#x142;" horiz-adv-x="610" 
d="M190 1462h232v-499l186 120v-194l-186 -121v-768h-232v631l-186 -123v197l186 118v639z" />
    <glyph glyph-name="Nacute" unicode="&#x143;" horiz-adv-x="1454" 
d="M156 1462h229l672 -1056v1056h241v-1462h-229l-674 1053v-1053h-239v1462zM1073 1868l-305 -285h-223l252 285h276z" />
    <glyph glyph-name="nacute" unicode="&#x144;" horiz-adv-x="1189" 
d="M711 1098q356 0 356 -393v-705h-233v668q0 129 -48 181t-124 52q-136 0 -218 -80q-81 -81 -79 -186v-635h-232v1065h225v-156q139 189 353 189zM913 1518l-292 -304h-220l240 304h272z" />
    <glyph glyph-name="Ncommaaccent" unicode="&#x145;" horiz-adv-x="1454" 
d="M156 1462h229l672 -1056v1056h241v-1462h-229l-674 1053v-1053h-239v1462zM889 -137l-211 -318h-215l162 318h264z" />
    <glyph glyph-name="ncommaaccent" unicode="&#x146;" horiz-adv-x="1189" 
d="M711 1098q356 0 356 -393v-705h-233v668q0 129 -48 181t-124 52q-136 0 -218 -80q-81 -81 -79 -186v-635h-232v1065h225v-156q139 189 353 189zM743 -137l-202 -307h-207l155 307h254z" />
    <glyph glyph-name="Ncaron" unicode="&#x147;" horiz-adv-x="1454" 
d="M156 1462h229l672 -1056v1056h241v-1462h-229l-674 1053v-1053h-239v1462zM567 1876l154 -156l149 156h207l-241 -287h-234l-242 287h207z" />
    <glyph glyph-name="ncaron" unicode="&#x148;" horiz-adv-x="1189" 
d="M711 1098q356 0 356 -393v-705h-233v668q0 129 -48 181t-124 52q-136 0 -218 -80q-81 -81 -79 -186v-635h-232v1065h225v-156q139 189 353 189zM483 1214l-241 306h207l151 -177l152 177h204l-239 -306h-234z" />
    <glyph glyph-name="napostrophe" unicode="&#x149;" horiz-adv-x="1374" 
d="M1018 668q0 233 -171 233q-138 0 -219 -81t-79 -185v-635h-232v1065h226v-156q139 189 352 189q356 0 356 -393v-705h-233v668zM297 1462l-117 -475h-178l64 475h231z" />
    <glyph glyph-name="Eng" unicode="&#x14a;" horiz-adv-x="1454" 
d="M800 -207q112 0 178 54.5t66 191.5l-649 1014v-1053h-239v1462h229l672 -1056v1056h241v-1413q0 -469 -487 -469q-168 0 -276 43l53 207q100 -37 212 -37z" />
    <glyph glyph-name="eng" unicode="&#x14b;" horiz-adv-x="1189" 
d="M834 -10v678q0 131 -47 182t-125 51q-138 0 -217.5 -80.5t-79.5 -185.5v-635h-232v1065h225v-156q135 189 353 189q356 0 356 -393v-719q0 -178 -74.5 -271.5t-244.5 -93.5q-110 0 -207 33l34 178q56 -18 129 -18t101.5 41t28.5 135z" />
    <glyph glyph-name="Omacron" unicode="&#x14c;" horiz-adv-x="1581" 
d="M790 176q212 0 320 148t109 407q0 258 -109 406q-109 149 -318 149q-208 0 -319 -146t-111 -407t108 -409t320 -148zM795 1499q315 0 496 -203q182 -203 183 -562t-181 -565t-499 -206t-501 202q-185 202 -186 562t186 566t502 206zM1100 1812v-188h-617v188h617z" />
    <glyph glyph-name="omacron" unicode="&#x14d;" horiz-adv-x="1247" 
d="M234 114q-138 148 -138 412t142 418t388 154t384 -153q139 -153 139 -415t-146 -413q-146 -150 -389 -150q-242 -1 -380 147zM338 535q0 -379 282 -379q150 0 219 101t69 277q-1 376 -285 375q-147 0 -216 -101t-69 -273zM905 1446v-182h-565v182h565z" />
    <glyph glyph-name="Obreve" unicode="&#x14e;" horiz-adv-x="1581" 
d="M790 176q212 0 320 148t109 407q0 258 -109 406q-109 149 -318 149q-208 0 -319 -146t-111 -407t108 -409t320 -148zM795 1499q315 0 496 -203q182 -203 183 -562t-181 -565t-499 -206t-501 202q-185 202 -186 562t186 566t502 206zM657 1882q0 -82 40 -117
q39 -35 93 -35t93 34t39 118h176q0 -152 -84 -226t-226 -73q-142 0 -224 76q-81 76 -81 223h174z" />
    <glyph glyph-name="obreve" unicode="&#x14f;" horiz-adv-x="1247" 
d="M234 114q-138 148 -138 412t142 418t388 154t384 -153q139 -153 139 -415t-146 -413q-146 -150 -389 -150q-242 -1 -380 147zM338 535q0 -379 282 -379q150 0 219 101t69 277q-1 376 -285 375q-147 0 -216 -101t-69 -273zM492 1511q0 -85 38 -119t92 -34q52 0 91 35
t39 118h172q0 -151 -82 -227t-221 -76t-218 77q-78 77 -77 226h166z" />
    <glyph glyph-name="Ohungarumlaut" unicode="&#x150;" horiz-adv-x="1581" 
d="M790 176q212 0 320 148t109 407q0 258 -109 406q-109 149 -318 149q-208 0 -319 -146t-111 -407t108 -409t320 -148zM795 1499q315 0 496 -203q182 -203 183 -562t-181 -565t-499 -206t-501 202q-185 202 -186 562t186 566t502 206zM1374 1868l-295 -285h-207l240 285
h262zM975 1868l-295 -285h-209l242 285h262z" />
    <glyph glyph-name="ohungarumlaut" unicode="&#x151;" horiz-adv-x="1247" 
d="M234 114q-138 148 -138 412t142 418t388 154t384 -153q139 -153 139 -415t-146 -413q-146 -150 -389 -150q-242 -1 -380 147zM338 535q0 -379 282 -379q150 0 219 101t69 277q-1 376 -285 375q-147 0 -216 -101t-69 -273zM772 1518l-262 -304h-199l211 304h250z
M1151 1518l-262 -304h-199l211 304h250z" />
    <glyph glyph-name="OE" unicode="&#x152;" horiz-adv-x="2189" 
d="M756 -37q-295 0 -472.5 207t-177.5 556t177.5 561t397.5 212t318.5 -54t171.5 -157v174h920v-213h-680v-389h639v-215h-639v-432h719l-29 -213h-930v176q-72 -102 -170 -157.5t-245 -55.5zM769 1286q-194 0 -299 -147t-105 -408q0 -260 103 -407.5t300 -147.5
q403 0 403 569q-6 389 -154.5 465t-247.5 76z" />
    <glyph glyph-name="oe" unicode="&#x153;" horiz-adv-x="1974" 
d="M614 -33q-246 0 -382 147.5t-136 410.5t141 418t381 155q267 0 394 -228q136 228 383 228t367 -142.5t120 -377.5v-103h-752q4 -256 207 -297q135 -29 203 70q159 0 291 67h37q-63 -348 -461 -348q-150 0 -244 58.5t-155 169.5q-66 -111 -159 -169.5t-235 -58.5zM338 535
q0 -379 278 -379q143 0 211 102t68 376.5t-212 274.5t-278.5 -101t-66.5 -273zM1655 637q0 131 -61.5 207t-189.5 76t-194.5 -78t-76.5 -205h522z" />
    <glyph glyph-name="Racute" unicode="&#x154;" horiz-adv-x="1316" 
d="M662 578h-263v-578h-243v1462h499q304 0 444 -140q113 -113 111 -288q0 -143 -56 -239t-181 -156l303 -639h-270l-263 582q-36 -4 -81 -4zM674 786q229 0 271 144q13 45 13 98q0 112 -70 170t-239 59h-250v-471h275zM963 1868l-306 -285h-223l252 285h277z" />
    <glyph glyph-name="racute" unicode="&#x155;" horiz-adv-x="804" 
d="M365 625v-625h-232v1065h225v-158q56 84 134 129t152 45t118 -8l-27 -213q-38 10 -104 10q-121 0 -193 -74t-73 -171zM799 1518l-293 -304h-219l239 304h273z" />
    <glyph glyph-name="Rcommaaccent" unicode="&#x156;" horiz-adv-x="1316" 
d="M662 578h-263v-578h-243v1462h499q304 0 444 -140q113 -113 111 -288q0 -143 -56 -239t-181 -156l303 -639h-270l-263 582q-36 -4 -81 -4zM674 786q229 0 271 144q13 45 13 98q0 112 -70 170t-239 59h-250v-471h275zM829 -137l-211 -318h-215l162 318h264z" />
    <glyph glyph-name="rcommaaccent" unicode="&#x157;" horiz-adv-x="804" 
d="M365 625v-625h-232v1065h225v-158q56 84 134 129t152 45t118 -8l-27 -213q-38 10 -104 10q-121 0 -193 -74t-73 -171zM389 -137l-203 -307h-206l155 307h254z" />
    <glyph glyph-name="Rcaron" unicode="&#x158;" horiz-adv-x="1316" 
d="M662 578h-263v-578h-243v1462h499q304 0 444 -140q113 -113 111 -288q0 -143 -56 -239t-181 -156l303 -639h-270l-263 582q-36 -4 -81 -4zM674 786q229 0 271 144q13 45 13 98q0 112 -70 170t-239 59h-250v-471h275zM457 1876l153 -156l150 156h207l-242 -287h-233
l-242 287h207z" />
    <glyph glyph-name="rcaron" unicode="&#x159;" horiz-adv-x="804" 
d="M365 625v-625h-232v1065h225v-158q56 84 134 129t152 45t118 -8l-27 -213q-38 10 -104 10q-121 0 -193 -74t-73 -171zM319 1214l-241 306h207l151 -177l152 177h205l-240 -306h-234z" />
    <glyph glyph-name="Sacute" unicode="&#x15a;" horiz-adv-x="1318" 
d="M977 401q0 178 -234 215l-186 35q-238 43 -348 138q-111 95 -111 296q0 200 154 308t414 107q261 -1 405 -127q113 -101 141 -283l-233 -37q-29 123 -99 182q-71 59 -225 59q-240 0 -291 -122q-15 -36 -16 -74q0 -96 52 -144t184 -73l202 -39q231 -42 340 -146t109 -298
t-145 -314q-145 -121 -416 -121q-270 0 -430 118t-176 365h249q15 -142 103 -208t253 -66t235 62q69 63 69 167zM997 1868l-305 -285h-223l252 285h276z" />
    <glyph glyph-name="sacute" unicode="&#x15b;" horiz-adv-x="1085" 
d="M553 150q219 0 219 130q0 60 -32 97t-144 57t-209 39q-200 42 -260 149q-33 56 -33 141q0 156 122 246q122 89 319 89q323 0 415 -191q27 -55 41 -116l-209 -29q-25 80 -74 119q-50 39 -142 39q-209 0 -239 -84q-21 -53 -4 -98q17 -46 91 -66q37 -10 92 -21l133 -22
q207 -35 285 -113t79 -224t-110 -236t-336 -89q-328 0 -439 186q-42 69 -48 173h223q11 -96 97 -148q46 -28 163 -28zM891 1518l-293 -304h-219l239 304h273z" />
    <glyph glyph-name="Scircumflex" unicode="&#x15c;" horiz-adv-x="1318" 
d="M977 401q0 178 -234 215l-186 35q-238 43 -348 138q-111 95 -111 296q0 200 154 308t414 107q261 -1 405 -127q113 -101 141 -283l-233 -37q-29 123 -99 182q-71 59 -225 59q-240 0 -291 -122q-15 -36 -16 -74q0 -96 52 -144t184 -73l202 -39q231 -42 340 -146t109 -298
t-145 -314q-145 -121 -416 -121q-270 0 -430 118t-176 365h249q15 -142 103 -208t253 -66t235 62q69 63 69 167zM774 1868l242 -285h-207l-152 154l-151 -154h-207l242 285h233z" />
    <glyph glyph-name="scircumflex" unicode="&#x15d;" horiz-adv-x="1085" 
d="M553 150q219 0 219 130q0 60 -32 97t-144 57t-209 39q-200 42 -260 149q-33 56 -33 141q0 156 122 246q122 89 319 89q323 0 415 -191q27 -55 41 -116l-209 -29q-25 80 -74 119q-50 39 -142 39q-209 0 -239 -84q-21 -53 -4 -98q17 -46 91 -66q37 -10 92 -21l133 -22
q207 -35 285 -113t79 -224t-110 -236t-336 -89q-328 0 -439 186q-42 69 -48 173h223q11 -96 97 -148q46 -28 163 -28zM659 1518l240 -304h-205l-151 175l-152 -175h-207l242 304h233z" />
    <glyph glyph-name="Scedilla" unicode="&#x15e;" horiz-adv-x="1318" 
d="M650 1294q-302 0 -302 -203q0 -93 55.5 -141.5t192.5 -70.5l190 -37q229 -43 339 -146.5t110 -299.5t-147 -314.5t-392 -118.5l-24 -72q145 -16 166.5 -69t25.5 -80v-33q-14 -162 -281 -162q-44 0 -141 11v127h13q235 -45 235 55q0 35 -30.5 50t-104.5 15h-59l61 164
q-223 25 -348 140.5t-141 336.5h249q16 -147 103.5 -210.5t253.5 -63.5t234.5 62.5t68.5 155.5t-55.5 147.5t-200.5 83.5l-164 30q-340 46 -399.5 187t-59.5 293.5t153.5 260t399.5 107.5q401 0 474 -166t87 -243l-233 -37q-43 189 -144.5 215t-184.5 26z" />
    <glyph glyph-name="scedilla" unicode="&#x15f;" horiz-adv-x="1085" 
d="M446 -309q68 0 100 12t32 48t-30 50.5t-102 14.5h-57l60 157q-357 36 -379 353h223q16 -106 86.5 -141t180.5 -35q212 0 212 137q0 53 -31.5 90t-144.5 57t-209 40t-161.5 55.5t-98.5 92t-33 141.5q0 157 120.5 246t320.5 89q325 0 383.5 -123t72.5 -184l-209 -29
q-38 124 -110 141t-134 17q-117 0 -169 -37.5t-52 -82.5q0 -77 39 -105t150 -44l133 -22q298 -49 331.5 -160t33.5 -178q0 -145 -104.5 -228t-315.5 -94l-23 -67q104 -12 144 -58.5t40 -107.5q0 -94 -73.5 -132t-169.5 -38t-164 10v125q40 -10 108 -10z" />
    <glyph glyph-name="Scaron" unicode="&#x160;" horiz-adv-x="1318" 
d="M977 401q0 178 -234 215l-186 35q-238 43 -348 138q-111 95 -111 296q0 200 154 308t414 107q261 -1 405 -127q113 -101 141 -283l-233 -37q-29 123 -99 182q-71 59 -225 59q-240 0 -291 -122q-15 -36 -16 -74q0 -96 52 -144t184 -73l202 -39q231 -42 340 -146t109 -298
t-145 -314q-145 -121 -416 -121q-270 0 -430 118t-176 365h249q15 -142 103 -208t253 -66t235 62q69 63 69 167zM510 1876l154 -156l149 156h207l-242 -287h-233l-242 287h207z" />
    <glyph glyph-name="scaron" unicode="&#x161;" horiz-adv-x="1085" 
d="M553 150q219 0 219 130q0 60 -32 97t-144 57t-209 39q-200 42 -260 149q-33 56 -33 141q0 156 122 246q122 89 319 89q323 0 415 -191q27 -55 41 -116l-209 -29q-25 80 -74 119q-50 39 -142 39q-209 0 -239 -84q-21 -53 -4 -98q17 -46 91 -66q37 -10 92 -21l133 -22
q207 -35 285 -113t79 -224t-110 -236t-336 -89q-328 0 -439 186q-42 69 -48 173h223q11 -96 97 -148q46 -28 163 -28zM428 1214l-242 306h207l152 -177l151 177h205l-239 -306h-234z" />
    <glyph glyph-name="uni0162" unicode="&#x162;" horiz-adv-x="1249" 
d="M551 -309h31q92 0 92 63q0 33 -26.5 46.5t-90.5 15.5h-70l68 184h-53v1247h-463v215h1171v-215h-460v-1247h-56l-37 -98q102 -10 144.5 -57.5t42.5 -108.5q0 -94 -75 -132t-171 -38t-164 10v125q75 -10 117 -10z" />
    <glyph glyph-name="uni0163" unicode="&#x163;" horiz-adv-x="743" 
d="M393 -309h31q92 0 92 63q0 33 -26.5 46.5t-90.5 15.5h-69l65 176q-111 29 -154.5 116t-43.5 236v537h-168v184h168v287h231v-287h264v-184h-264v-557q0 -156 133 -156q73 0 129 18l35 -174q-92 -29 -197 -32l-28 -78q102 -10 144 -57.5t42 -108.5q0 -94 -74.5 -132
t-170.5 -38t-165 10v125q75 -10 117 -10z" />
    <glyph glyph-name="Tcaron" unicode="&#x164;" horiz-adv-x="1249" 
d="M502 1247h-463v215h1171v-215h-460v-1247h-248v1247zM473 1876l154 -156l149 156h207l-242 -287h-233l-242 287h207z" />
    <glyph glyph-name="tcaron" unicode="&#x165;" horiz-adv-x="743" 
d="M795 1520l-101 -338h-157l55 338h203zM561 168q73 0 129 18l35 -174q-98 -33 -213 -32q-176 0 -245.5 91t-69.5 273v537h-168v184h168v287h231v-287h264v-184h-264v-557q0 -156 133 -156z" />
    <glyph glyph-name="Tbar" unicode="&#x166;" horiz-adv-x="1249" 
d="M207 602v207h295v438h-463v215h1171v-215h-460v-438h294v-207h-294v-602h-248v602h-295z" />
    <glyph glyph-name="tbar" unicode="&#x167;" horiz-adv-x="743" 
d="M561 168q73 0 129 18l35 -174q-98 -33 -213 -32q-176 0 -245.5 91t-69.5 273v121h-168v184h168v232h-168v184h168v287h231v-287h264v-184h-264v-232h264v-184h-264v-141q0 -156 133 -156z" />
    <glyph glyph-name="Utilde" unicode="&#x168;" horiz-adv-x="1409" 
d="M1276 586q0 -623 -577 -623q-275 0 -420 151t-146 478v870h246v-876q0 -207 75 -308q75 -102 252 -102q178 0 250 102t72 308v876h248v-876zM322 1589q0 137 62 202t173 64q65 0 148 -50t131 -50q88 0 88 94h168q0 -139 -62 -201t-153 -62q-90 0 -162 42l-53 31
q-55 24 -92 24q-37 1 -59 -23t-22 -71h-167z" />
    <glyph glyph-name="utilde" unicode="&#x169;" horiz-adv-x="1175" 
d="M125 358v707h231v-670q0 -133 44 -182t144 -49q101 0 184 75t83 191v635h233v-1065h-227v156q-143 -189 -336 -189q-194 0 -275 96t-81 295zM213 1235q0 135 60 201t167 65q53 1 114 -33q62 -34 94 -50t67 -15q86 0 86 92h162q-1 -139 -61 -201t-165 -63q-64 0 -139 41
l-59 35q-44 22 -76 22q-88 0 -88 -94h-162z" />
    <glyph glyph-name="Umacron" unicode="&#x16a;" horiz-adv-x="1409" 
d="M1276 586q0 -623 -577 -623q-275 0 -420 151t-146 478v870h246v-876q0 -207 75 -308q75 -102 252 -102q178 0 250 102t72 308v876h248v-876zM1012 1812v-188h-617v188h617z" />
    <glyph glyph-name="umacron" unicode="&#x16b;" horiz-adv-x="1175" 
d="M125 358v707h231v-670q0 -133 44 -182t144 -49q101 0 184 75t83 191v635h233v-1065h-227v156q-143 -189 -336 -189q-194 0 -275 96t-81 295zM870 1446v-182h-565v182h565z" />
    <glyph glyph-name="Ubreve" unicode="&#x16c;" horiz-adv-x="1409" 
d="M1276 586q0 -623 -577 -623q-275 0 -420 151t-146 478v870h246v-876q0 -207 75 -308q75 -102 252 -102q178 0 250 102t72 308v876h248v-876zM569 1882q0 -82 40 -117t93 -35t93 34q39 34 39 118h176q0 -152 -84 -226t-226 -73q-142 0 -224 76q-81 76 -81 223h174z" />
    <glyph glyph-name="ubreve" unicode="&#x16d;" horiz-adv-x="1175" 
d="M125 358v707h231v-670q0 -133 44 -182t144 -49q101 0 184 75t83 191v635h233v-1065h-227v156q-143 -189 -336 -189q-194 0 -275 96t-81 295zM457 1511q0 -85 39 -119t91 -34t91 35t39 118h172q0 -151 -82 -227t-221 -76t-217 77t-78 226h166z" />
    <glyph glyph-name="Uring" unicode="&#x16e;" horiz-adv-x="1409" 
d="M1276 586q0 -623 -577 -623q-275 0 -420 151t-146 478v870h246v-876q0 -207 75 -308q75 -102 252 -102q178 0 250 102t72 308v876h248v-876zM473 1735q0 113 66 171t163 58q155 0 211 -130q19 -42 19 -100q1 -112 -67 -167q-68 -54 -163 -55q-96 -2 -162 54t-67 169z
M606 1738q0 -104 96 -104t97 103q0 53 -27 79t-70 25q-96 1 -96 -103z" />
    <glyph glyph-name="uring" unicode="&#x16f;" horiz-adv-x="1175" 
d="M125 358v707h231v-670q0 -133 44 -182t144 -49q101 0 184 75t83 191v635h233v-1065h-227v156q-143 -189 -336 -189q-194 0 -275 96t-81 295zM586 1642q94 0 160 -58t65 -165q0 -107 -65 -159t-158 -53q-94 -1 -158 52t-65 162q0 109 64 165q63 56 157 56zM588 1323
q40 0 66 25q26 26 26 76t-25 75t-67 25q-94 0 -94 -100t94 -101z" />
    <glyph glyph-name="Uhungarumlaut" unicode="&#x170;" horiz-adv-x="1409" 
d="M1276 586q0 -623 -577 -623q-275 0 -420 151t-146 478v870h246v-876q0 -207 75 -308q75 -102 252 -102q178 0 250 102t72 308v876h248v-876zM1247 1868l-295 -285h-207l240 285h262zM848 1868l-295 -285h-209l242 285h262z" />
    <glyph glyph-name="uhungarumlaut" unicode="&#x171;" horiz-adv-x="1175" 
d="M125 358v707h231v-670q0 -133 44 -182t144 -49q101 0 184 75t83 191v635h233v-1065h-227v156q-143 -189 -336 -189q-194 0 -275 96t-81 295zM725 1518l-262 -304h-199l211 304h250zM1104 1518l-262 -304h-199l211 304h250z" />
    <glyph glyph-name="Uogonek" unicode="&#x172;" horiz-adv-x="1409" 
d="M600 -221q0 100 107 184q-25 2 -47.5 2t-45.5 4q-246 24 -363.5 180t-117.5 463v850h246v-876q0 -207 74.5 -308.5t252.5 -101.5t250 101.5t72 308.5v876h248v-876q0 -470 -328 -586q-145 -90 -145 -153.5t24.5 -77t54.5 -13.5t64 6v-153q-32 -4 -54 -4h-86
q-87 0 -137.5 39t-59.5 76t-9 59z" />
    <glyph glyph-name="uogonek" unicode="&#x173;" horiz-adv-x="1175" 
d="M125 375v690h231v-670q0 -133 43 -182t143 -49t184.5 74.5t84.5 191.5v635h233v-1065q-139 -86 -139 -166q0 -43 24.5 -56.5t55.5 -13.5l59 5v-148q-42 -6 -92 -6q-205 0 -231 125q-25 85 23.5 151t113.5 109h-41v156q-143 -189 -340 -189t-274.5 100.5t-77.5 307.5z" />
    <glyph glyph-name="Wcircumflex" unicode="&#x174;" horiz-adv-x="1945" 
d="M301 1462l270 -1110l279 1102h264l283 -1100l262 1108h264l-403 -1462h-248l-297 1151l-293 -1151h-240l-419 1462h278zM1090 1868l241 -285h-207l-151 154l-152 -154h-207l242 285h234z" />
    <glyph glyph-name="wcircumflex" unicode="&#x175;" horiz-adv-x="1542" 
d="M268 1065l181 -778l225 770h213l217 -770l180 778h244l-311 -1065h-232l-215 774l-217 -774h-229l-310 1065h254zM887 1518l239 -304h-204l-152 175l-152 -175h-206l241 304h234z" />
    <glyph glyph-name="Ycircumflex" unicode="&#x176;" horiz-adv-x="1300" 
d="M778 0h-246v608l-507 854h276l352 -635l361 635h262l-498 -854v-608zM766 1868l242 -285h-207l-152 154l-151 -154h-207l241 285h234z" />
    <glyph glyph-name="ycircumflex" unicode="&#x177;" horiz-adv-x="1116" 
d="M145 -188q51 -18 115 -18t98 29q35 30 66 111l39 103l-449 1028h271l293 -768l268 768h254l-424 -1075q-37 -94 -70 -166t-74 -121q-85 -102 -235 -100q-98 0 -195 30zM676 1518l239 -304h-204l-152 175l-151 -175h-207l241 304h234z" />
    <glyph glyph-name="Ydieresis" unicode="&#x178;" horiz-adv-x="1300" 
d="M778 0h-246v608l-507 854h276l352 -635l361 635h262l-498 -854v-608zM559 1847v-237h-229v237h229zM956 1847v-237h-229v237h229z" />
    <glyph glyph-name="Zacute" unicode="&#x179;" horiz-adv-x="1200" 
d="M70 1249v213h1065v-186l-785 -1061h813l-28 -215h-1080v184l787 1065h-772zM930 1868l-305 -285h-224l252 285h277z" />
    <glyph glyph-name="zacute" unicode="&#x17a;" horiz-adv-x="991" 
d="M78 881v184h850v-164l-568 -717h596l-26 -184h-864v164l569 717h-557zM866 1518l-293 -304h-219l240 304h272z" />
    <glyph glyph-name="Zdotaccent" unicode="&#x17b;" horiz-adv-x="1200" 
d="M70 1249v213h1065v-186l-785 -1061h813l-28 -215h-1080v184l787 1065h-772zM723 1851v-245h-240v245h240z" />
    <glyph glyph-name="zdotaccent" unicode="&#x17c;" horiz-adv-x="991" 
d="M78 881v184h850v-164l-568 -717h596l-26 -184h-864v164l569 717h-557zM627 1485v-234h-228v234h228z" />
    <glyph glyph-name="Zcaron" unicode="&#x17d;" horiz-adv-x="1200" 
d="M70 1249v213h1065v-186l-785 -1061h813l-28 -215h-1080v184l787 1065h-772zM444 1876l154 -156l150 156h206l-241 -287h-234l-241 287h206z" />
    <glyph glyph-name="zcaron" unicode="&#x17e;" horiz-adv-x="991" 
d="M78 881v184h850v-164l-568 -717h596l-26 -184h-864v164l569 717h-557zM395 1214l-241 306h206l152 -177l152 177h204l-239 -306h-234z" />
    <glyph glyph-name="longs" unicode="&#x17f;" horiz-adv-x="512" 
d="M528 1294q-159 0 -159 -161v-1133h-234v1126q0 260 137.5 306.5t228.5 46.5t183 -29l-33 -174q-66 18 -123 18z" />
    <glyph glyph-name="florin" unicode="&#x192;" 
d="M992 1452q25 0 130 -41l-61 -176q-93 32 -151 27q-58 -6 -83.5 -22.5t-46.5 -50t-49 -157.5h258l-28 -192h-269l-170 -875q-33 -154 -113.5 -236.5t-242.5 -86.5h-64q-64 0 -161 39l59 180q83 -36 160 -23q63 6 95 51t50 138l160 813h-164l29 192h170l20 98
q33 154 119 236t252 86h101z" />
    <glyph glyph-name="Scommaaccent" unicode="&#x218;" horiz-adv-x="1318" 
d="M977 401q0 178 -234 215l-186 35q-238 43 -348 138q-111 95 -111 296q0 200 154 308t414 107q261 -1 405 -127q113 -101 141 -283l-233 -37q-29 123 -99 182q-71 59 -225 59q-240 0 -291 -122q-15 -36 -16 -74q0 -96 52 -144t184 -73l202 -39q231 -42 340 -146t109 -298
t-145 -314q-145 -121 -416 -121q-270 0 -430 118t-176 365h249q15 -142 103 -208t253 -66t235 62q69 63 69 167zM819 -137l-211 -318h-215l162 318h264z" />
    <glyph glyph-name="scommaaccent" unicode="&#x219;" horiz-adv-x="1085" 
d="M553 150q219 0 219 130q0 60 -32 97t-144 57t-209 39q-200 42 -260 149q-33 56 -33 141q0 156 122 246q122 89 319 89q323 0 415 -191q27 -55 41 -116l-209 -29q-25 80 -74 119q-50 39 -142 39q-209 0 -239 -84q-21 -53 -4 -98q17 -46 91 -66q37 -10 92 -21l133 -22
q207 -35 285 -113t79 -224t-110 -236t-336 -89q-328 0 -439 186q-42 69 -48 173h223q11 -96 97 -148q46 -28 163 -28zM696 -137l-202 -307h-207l155 307h254z" />
    <glyph glyph-name="uni021A" unicode="&#x21a;" horiz-adv-x="1249" 
d="M502 1247h-463v215h1171v-215h-460v-1247h-248v1247zM764 -137l-211 -318h-215l162 318h264z" />
    <glyph glyph-name="uni021B" unicode="&#x21b;" horiz-adv-x="743" 
d="M561 168q75 0 129 18l35 -174q-98 -33 -213 -32q-176 0 -246 91t-69 273v537h-168v184h168v287h231v-287h264v-184h-264v-557q0 -156 133 -156zM596 -137l-203 -307h-207l156 307h254z" />
    <glyph glyph-name="dotlessj" unicode="&#x237;" horiz-adv-x="503" 
d="M10 -186q74 0 99.5 51t25.5 149v1051h234v-1073q0 -180 -75 -275.5t-247 -95.5q-109 0 -207 33l35 178q61 -18 135 -18z" />
    <glyph glyph-name="apostrophe" unicode="&#x2bc;" horiz-adv-x="694" 
d="M365 1462l-117 -475h-178l63 475h232z" />
    <glyph glyph-name="circumflex" unicode="&#x2c6;" horiz-adv-x="825" 
d="M528 1518l240 -304h-205l-151 175l-152 -175h-207l242 304h233z" />
    <glyph glyph-name="caron" unicode="&#x2c7;" horiz-adv-x="825" 
d="M295 1214l-242 306h207l152 -177l151 177h205l-240 -306h-233z" />
    <glyph glyph-name="uni02C9" unicode="&#x2c9;" horiz-adv-x="825" 
d="M694 1446v-182h-565v182h565z" />
    <glyph glyph-name="breve" unicode="&#x2d8;" horiz-adv-x="825" 
d="M281 1511q0 -84 38.5 -118.5t90.5 -34.5t91.5 34.5t39.5 118.5h172q0 -152 -82 -227.5t-221 -75.5t-217 77t-78 226h166z" />
    <glyph glyph-name="dotaccent" unicode="&#x2d9;" horiz-adv-x="825" 
d="M526 1485v-234h-227v234h227z" />
    <glyph glyph-name="ring" unicode="&#x2da;" horiz-adv-x="825" 
d="M410 1642q94 0 159.5 -58t65.5 -161q0 -159 -91 -188t-132 -29q-94 0 -159 53t-65 161t64 165t158 57zM504 1448q0 76 -93 76t-93 -100.5t94 -100.5q41 0 66.5 24.5t25.5 100.5z" />
    <glyph glyph-name="ogonek" unicode="&#x2db;" horiz-adv-x="825" 
d="M556 -383h-29q-25 0 -41 -1t-56 1q-98 5 -142 51t-44 117q0 121 145 215h186q-137 -88 -137 -166q0 -39 20 -52t38 -15t26 -1t19 1l34 2v-148q-16 -4 -19 -4z" />
    <glyph glyph-name="tilde" unicode="&#x2dc;" horiz-adv-x="825" 
d="M37 1235q0 135 60.5 200.5t166.5 65.5q49 0 111.5 -33.5t95.5 -49t68 -15.5q86 0 86 92h161q0 -139 -60 -201.5t-165 -62.5q-64 0 -139 41l-60 35q-44 22 -75 22q-88 0 -88 -94h-162z" />
    <glyph glyph-name="hungarumlaut" unicode="&#x2dd;" horiz-adv-x="825" 
d="M453 1518l-263 -304h-198l211 304h250zM831 1518l-262 -304h-198l211 304h249z" />
    <glyph glyph-name="tonos" unicode="&#x384;" horiz-adv-x="825" 
d="M590 1544l-195 -330h-186l143 330h238z" />
    <glyph glyph-name="dieresistonos" unicode="&#x385;" horiz-adv-x="743" 
d="M764 1466v-196h-193v196h193zM147 1466v-196h-192v196h192zM518 1528l-112 -299h-177l72 299h217z" />
    <glyph glyph-name="Alphatonos" unicode="&#x386;" horiz-adv-x="1421" 
d="M928 580l-217 602l-215 -602h432zM594 1462h246l557 -1462h-264l-138 373h-567l-135 -373h-256zM401 1462l-170 -315h-186l119 315h237z" />
    <glyph glyph-name="Epsilontonos" unicode="&#x388;" horiz-adv-x="1572" 
d="M502 1462h973v-213h-725v-389h684v-215h-684v-432h763l-28 -213h-983v1462zM362 1462l-169 -315h-187l119 315h237z" />
    <glyph glyph-name="Etatonos" unicode="&#x389;" horiz-adv-x="1810" 
d="M502 1462h248v-592h657v592h248v-1462h-248v641h-657v-641h-248v1462zM362 1462l-169 -315h-187l119 315h237z" />
    <glyph glyph-name="Iotatonos" unicode="&#x38a;" horiz-adv-x="905" 
d="M502 1462h248v-1462h-248v1462zM362 1462l-169 -315h-187l119 315h237z" />
    <glyph glyph-name="Omicrontonos" unicode="&#x38c;" horiz-adv-x="1806" 
d="M1015 176q213 0 321 148t108 407q0 258 -109 406q-109 149 -318 149q-208 0 -320 -147q-111 -147 -110 -407t109 -408t319 -148zM332 728q0 360 187 566q187 205 500 205q314 0 498 -204q183 -204 183 -563t-182 -564t-498 -205q-317 0 -503 203q-185 202 -185 562z
M369 1462l-170 -315h-187l119 315h238z" />
    <glyph glyph-name="Upsilontonos" unicode="&#x38e;" horiz-adv-x="1716" 
d="M1194 0h-246v608l-508 854h277l352 -635l361 635h262l-498 -854v-608zM362 1462l-169 -315h-187l119 315h237z" />
    <glyph glyph-name="Omegatonos" unicode="&#x38f;" horiz-adv-x="1714" 
d="M553 203q-225 236 -225 579t175 530t466 187t459 -182q169 -182 169 -529q0 -196 -60 -334t-171 -251h285l-29 -203h-526v186q141 98 196 251q56 153 56 372t-92 354t-292 135q-386 0 -389 -516q-1 -194 57 -344t195 -252v-186h-551v203h277zM362 1462l-169 -315h-187
l119 315h237z" />
    <glyph glyph-name="iotadieresistonos" unicode="&#x390;" horiz-adv-x="608" 
d="M137 283v782h234v-743q1 -78 23 -117t76 -39t110 14l32 -174q-73 -27 -209 -28q-266 -2 -266 305zM713 1466v-196h-193v196h193zM96 1466v-196h-192v196h192zM467 1528l-113 -299h-176l72 299h217z" />
    <glyph glyph-name="Alpha" unicode="&#x391;" horiz-adv-x="1404" 
d="M913 580l-217 602l-215 -602h432zM580 1462h245l557 -1462h-264l-137 373h-567l-135 -373h-256z" />
    <glyph glyph-name="Beta" unicode="&#x392;" horiz-adv-x="1310" 
d="M690 199q242 0 287 137q14 43 14 96q0 111 -62 169t-216 58h-318v-460h295zM690 862q145 0 203 53q57 53 57 155t-66 150q-67 46 -231 46h-258v-404h295zM156 1462h506q431 0 507 -234q23 -71 23 -157q0 -206 -191 -295q191 -85 224 -245q10 -47 10 -117t-28 -150
q-57 -164 -257 -230q-102 -34 -252 -34h-542v1462z" />
    <glyph glyph-name="Gamma" unicode="&#x393;" horiz-adv-x="1093" 
d="M156 1462h913v-215h-666v-1247h-247v1462z" />
    <glyph glyph-name="uni0394" unicode="&#x394;" horiz-adv-x="1376" 
d="M569 1462h242l545 -1462h-1333zM684 1192l-350 -979h698z" />
    <glyph glyph-name="Epsilon" unicode="&#x395;" horiz-adv-x="1226" 
d="M156 1462h972v-213h-725v-389h684v-215h-684v-432h764l-28 -213h-983v1462z" />
    <glyph glyph-name="Zeta" unicode="&#x396;" horiz-adv-x="1200" 
d="M70 1249v213h1065v-186l-785 -1061h813l-28 -215h-1080v184l787 1065h-772z" />
    <glyph glyph-name="Eta" unicode="&#x397;" horiz-adv-x="1464" 
d="M156 1462h247v-592h658v592h248v-1462h-248v641h-658v-641h-247v1462z" />
    <glyph glyph-name="Theta" unicode="&#x398;" horiz-adv-x="1581" 
d="M790 176q212 0 320.5 148.5t108.5 406.5t-110 406.5t-318 148.5t-318.5 -146t-110.5 -407q0 -260 108 -408.5t320 -148.5zM292.5 1293q186.5 206 501.5 206t498 -205t183 -563t-182 -563t-499 -205q-315 0 -501.5 203.5t-186.5 562t186.5 564.5zM512 856h563v-211h-563
v211z" />
    <glyph glyph-name="Iota" unicode="&#x399;" horiz-adv-x="557" 
d="M156 1462h247v-1462h-247v1462z" />
    <glyph glyph-name="Kappa" unicode="&#x39a;" horiz-adv-x="1355" 
d="M156 1462h247v-643l613 643h274l-504 -549l560 -913h-281l-453 754l-209 -211v-543h-247v1462z" />
    <glyph glyph-name="Lambda" unicode="&#x39b;" horiz-adv-x="1392" 
d="M1370 0h-276l-402 1139l-405 -1139h-264l552 1462h240z" />
    <glyph glyph-name="Mu" unicode="&#x39c;" horiz-adv-x="1746" 
d="M156 1462h301l415 -1163l428 1163h291v-1462h-227v1063l-401 -1063h-197l-387 1061v-1061h-223v1462z" />
    <glyph glyph-name="Nu" unicode="&#x39d;" horiz-adv-x="1454" 
d="M156 1462h229l672 -1056v1056h241v-1462h-229l-674 1053v-1053h-239v1462z" />
    <glyph glyph-name="Xi" unicode="&#x39e;" horiz-adv-x="1161" 
d="M82 0v225h1010l-31 -225h-979zM92 1462h975v-225h-975v225zM133 866h893v-225h-893v225z" />
    <glyph glyph-name="Omicron" unicode="&#x39f;" horiz-adv-x="1581" 
d="M790 176q212 0 320 148t109 407q0 258 -109 406q-109 149 -318 149q-208 0 -319 -146t-111 -407t108 -409t320 -148zM795 1499q315 0 496 -203q182 -203 183 -562t-181 -565t-499 -206t-501 202q-185 202 -186 562t186 566t502 206z" />
    <glyph glyph-name="Pi" unicode="&#x3a0;" horiz-adv-x="1433" 
d="M1030 1247h-627v-1247h-247v1462h1122v-1462h-248v1247z" />
    <glyph glyph-name="Rho" unicode="&#x3a1;" horiz-adv-x="1296" 
d="M659 752q256 0 298 151q32 114 -1 214q-43 140 -299 140h-258v-505h260zM156 1462h506q443 0 528 -277q51 -166 0 -349q-53 -183 -256 -253q-106 -38 -268 -38h-267v-545h-243v1462z" />
    <glyph glyph-name="Sigma" unicode="&#x3a3;" horiz-adv-x="1189" 
d="M70 1462h1052v-215h-737l422 -506l-455 -526h799l-29 -215h-1067v184l480 547l-465 545v186z" />
    <glyph glyph-name="Tau" unicode="&#x3a4;" horiz-adv-x="1249" 
d="M502 1247h-463v215h1171v-215h-460v-1247h-248v1247z" />
    <glyph glyph-name="Upsilon" unicode="&#x3a5;" horiz-adv-x="1300" 
d="M778 0h-246v608l-507 854h276l352 -635l361 635h262l-498 -854v-608z" />
    <glyph glyph-name="Phi" unicode="&#x3a6;" horiz-adv-x="1740" 
d="M346 791q0 -199 104.5 -294.5t301.5 -117.5v827q-406 -39 -406 -415zM1395 787q0 380 -406 419v-827q205 23 305.5 122t100.5 286zM96 784q0 284 175.5 441t480.5 178v162h237v-162q462 -32 559 -248.5t97 -364.5q0 -280 -178.5 -428.5t-477.5 -177.5v-184h-237v182
q-468 39 -562 246.5t-94 355.5z" />
    <glyph glyph-name="Chi" unicode="&#x3a7;" horiz-adv-x="1353" 
d="M530 772l-475 690h283l336 -512l340 512h266l-471 -700l528 -762h-284l-389 578l-377 -578h-269z" />
    <glyph glyph-name="Psi" unicode="&#x3a8;" horiz-adv-x="1716" 
d="M373 1462v-446q0 -217 92 -320.5t272 -115.5v882h246v-880q176 12 269.5 115.5t93.5 318.5v446h243v-432q0 -300 -161 -466.5t-445 -182.5v-381h-246v379q-436 26 -522 256.5t-86 398.5v428h244z" />
    <glyph glyph-name="Omega" unicode="&#x3a9;" horiz-adv-x="1515" 
d="M348 203q-225 236 -225 579t175 530t465 187t460 -182.5t170 -528.5q0 -195 -60.5 -334t-171.5 -251h285l-29 -203h-526v186q141 98 196.5 251t55.5 372t-92.5 354t-286.5 135q-393 0 -393 -516q0 -195 57 -344t195 -252v-186h-551v203h276z" />
    <glyph glyph-name="Iotadieresis" unicode="&#x3aa;" horiz-adv-x="557" 
d="M156 1462h247v-1462h-247v1462zM197 1872v-238h-230v238h230zM594 1872v-238h-229v238h229z" />
    <glyph glyph-name="Upsilondieresis" unicode="&#x3ab;" horiz-adv-x="1300" 
d="M778 0h-246v608l-507 854h276l352 -635l361 635h262l-498 -854v-608zM567 1872v-238h-229v238h229zM965 1872v-238h-230v238h230z" />
    <glyph glyph-name="alphatonos" unicode="&#x3ac;" horiz-adv-x="1411" 
d="M334 520q0 -253 135 -337q45 -27 100 -27q104 0 172 85t144 285q-62 211 -108 273q-46 63 -90 87t-103 23q-250 0 -250 -389zM542 -33q-102 0 -190 42t-146 116q-116 149 -116 405t127 412t371 156q155 0 251 -90q82 -81 146 -263l113 320h229l-231 -547l65 -221
q23 -78 49 -109q46 -56 158 -14l41 -168q-128 -55 -241 -29t-162 185l-48 143q-64 -152 -125 -214t-125 -93t-166 -31zM877 1544l-195 -330h-186l143 330h238z" />
    <glyph glyph-name="epsilontonos" unicode="&#x3ad;" horiz-adv-x="1116" 
d="M131 795q0 137 115 220t342 83q389 0 444 -310l-211 -36q-16 76 -66 120t-168 46q-118 0 -173 -39t-56 -107q0 -139 183 -139h207v-178h-203q-103 0 -157 -35t-54 -114t57 -118q57 -38 191 -38t187 44q54 44 60 134h222q-4 -170 -121 -266q-116 -96 -352 -95
q-236 0 -357 87t-121 247q0 109 58 172t137 86q-164 65 -164 236zM842 1544l-195 -330h-186l143 330h238z" />
    <glyph glyph-name="etatonos" unicode="&#x3ae;" horiz-adv-x="1191" 
d="M711 1098q356 0 356 -393v-1102h-233v1065q0 131 -48 182t-148 51t-186 -78t-85 -188v-635h-234v1065h227v-156q139 189 351 189zM926 1544l-195 -330h-186l143 330h238z" />
    <glyph glyph-name="iotatonos" unicode="&#x3af;" horiz-adv-x="608" 
d="M137 283v782h234v-743q1 -78 23 -117t76 -39t110 14l32 -174q-73 -27 -209 -28q-266 -2 -266 305zM545 1544l-195 -330h-186l143 330h238z" />
    <glyph glyph-name="upsilondieresistonos" unicode="&#x3b0;" horiz-adv-x="1146" 
d="M1032 459q0 -385 -268 -466q-86 -26 -192 -26q-108 0 -192 26q-267 82 -265 466v606h233v-606q0 -152 54 -225q54 -72 172 -72t171 72t54 225v606h233v-606zM975 1466v-196h-193v196h193zM358 1466v-196h-192v196h192zM729 1528l-113 -299h-176l72 299h217z" />
    <glyph glyph-name="alpha" unicode="&#x3b1;" horiz-adv-x="1411" 
d="M584 909q-129 0 -189.5 -104.5t-60.5 -274.5t61.5 -272t173.5 -102q103 0 172 85t144 285q-63 214 -108.5 275t-89.5 84.5t-103 23.5zM1097.5 11.5q-59.5 42.5 -91.5 150.5l-48 143q-64 -152 -125 -214t-125 -93t-166 -31t-190 42t-175 152t-87 368q0 257 127.5 413
t370.5 156q159 0 244.5 -83.5t152.5 -269.5l113 320h229l-231 -547l65 -221q23 -78 48.5 -108.5t70.5 -30.5t88 16l41 -168q-86 -37 -169 -37t-142.5 42.5z" />
    <glyph glyph-name="beta" unicode="&#x3b2;" horiz-adv-x="1224" 
d="M907 420q0 262 -313 262h-78v180h59q109 0 169.5 58t60.5 164q0 212 -207 212q-129 0 -186.5 -73.5t-57.5 -216.5v-521q0 -175 89.5 -252t209.5 -77q121 0 187.5 64.5t66.5 199.5zM354 -397h-221v1433q0 217 124 330t338 113t325.5 -100t111.5 -263q0 -212 -182 -307
q129 -37 208 -134t79 -239q0 -245 -131.5 -354t-311.5 -109q-221 0 -340 154v-524z" />
    <glyph glyph-name="gamma" unicode="&#x3b3;" horiz-adv-x="1114" 
d="M672 -397h-234v444l-424 1018h271l276 -760l281 760h258l-428 -1024v-438z" />
    <glyph glyph-name="delta" unicode="&#x3b4;" horiz-adv-x="1202" 
d="M334 446q0 -142 76.5 -216t201.5 -74t192.5 84t67.5 215t-56 210.5t-185 145.5l-60 31q-237 -102 -237 -396zM92 459q0 172 94.5 291.5t243.5 177.5q-104 63 -147 119t-43 130q0 138 103 220t302 82t303.5 -85t122.5 -235l-211 -24q-18 92 -74.5 130t-148.5 38t-136 -28
t-44 -71t20.5 -65.5t77.5 -57.5l244 -141q159 -92 237 -199.5t78 -277.5q0 -210 -134.5 -353t-369.5 -143t-376.5 130.5t-141.5 361.5z" />
    <glyph glyph-name="epsilon" unicode="&#x3b5;" horiz-adv-x="1116" 
d="M131 795q0 137 114.5 220t342.5 83q389 0 444 -310l-211 -36q-16 76 -66 121t-168 45t-173.5 -39t-55.5 -107q0 -139 183 -139h207v-178h-203q-104 0 -157.5 -35t-53.5 -114t57.5 -117.5t190.5 -38.5t187 44t60 134h222q-4 -170 -120.5 -265.5t-352.5 -95.5t-357 87
t-121 247q0 109 57.5 172.5t137.5 85.5q-164 65 -164 236z" />
    <glyph glyph-name="zeta" unicode="&#x3b6;" horiz-adv-x="997" 
d="M92 500q0 354 549 776h-491v186h813v-159q-440 -310 -534.5 -505.5t-94.5 -279.5t13 -131t58 -98t183 -90l133 -41q160 -49 226.5 -116t66.5 -167t-49.5 -175t-104.5 -120l-137 117q76 76 76 131t-41 85t-129 56l-152 45q-306 87 -345.5 236.5t-39.5 249.5z" />
    <glyph glyph-name="eta" unicode="&#x3b7;" horiz-adv-x="1191" 
d="M711 1098q356 0 356 -393v-1102h-233v1065q0 131 -48 182t-148 51t-186 -77t-85 -189v-635h-234v1065h227v-156q139 189 351 189z" />
    <glyph glyph-name="theta" unicode="&#x3b8;" horiz-adv-x="1224" 
d="M824.5 276q64.5 122 72.5 353h-571q13 -235 80.5 -355t210.5 -120t207.5 122zM613 1290q-145 0 -212 -124.5t-75 -348.5h571q-13 349 -110 411t-174 62zM618 1479q515 0 515 -764q0 -383 -137.5 -566.5t-385.5 -183.5t-383 183.5t-135 566.5t139.5 573.5t386.5 190.5z
" />
    <glyph glyph-name="iota" unicode="&#x3b9;" horiz-adv-x="608" 
d="M137 283v782h234v-743q0 -78 22.5 -117t74.5 -39t112 14l32 -174q-78 -29 -212 -29q-133 0 -198 80t-65 226z" />
    <glyph glyph-name="kappa" unicode="&#x3ba;" horiz-adv-x="1124" 
d="M133 1065h227v-463l455 463h268l-376 -391l413 -674h-256l-321 535l-183 -181v-354h-227v1065z" />
    <glyph glyph-name="lambda" unicode="&#x3bb;" horiz-adv-x="1116" 
d="M319 1483q101 0 181 -53.5t133 -194.5l467 -1235h-264l-273 807l-293 -807h-256l449 1065l-37 92q-29 78 -65.5 104.5t-87.5 26.5t-109 -20l-51 174q105 41 206 41z" />
    <glyph glyph-name="uni03BC" unicode="&#x3bc;" horiz-adv-x="1183" 
d="M365 1065v-659q0 -129 39.5 -185.5t144.5 -56.5q65 0 100 18q69 36 119.5 94.5t50.5 143.5v645h234v-1065h-228v154q-119 -180 -295 -181q-47 0 -90 10.5t-75 49.5v-430h-232v1462h232z" />
    <glyph glyph-name="nu" unicode="&#x3bd;" horiz-adv-x="1114" 
d="M285 1065l276 -803l281 803h258l-424 -1065h-240l-422 1065h271z" />
    <glyph glyph-name="xi" unicode="&#x3be;" horiz-adv-x="1064" 
d="M569 690q-245 0 -245 -233q0 -119 70.5 -176.5t199.5 -85.5l164 -39q164 -39 226.5 -112t62.5 -165q0 -168 -154 -299l-139 117q75 75 75 131t-38.5 88.5t-135.5 54.5l-174 41q-310 74 -350.5 208t-40.5 212q0 254 227 352q-190 93 -190 324q0 173 119.5 282t357.5 109
q406 0 443 -334l-209 -30q-18 98 -73.5 141t-178.5 43t-178.5 -63.5t-55.5 -161.5t53.5 -159t151.5 -61h254v-184h-242z" />
    <glyph glyph-name="omicron" unicode="&#x3bf;" horiz-adv-x="1234" 
d="M897 634.5q0 274.5 -279.5 274t-279.5 -376.5t213 -376t279.5 102t66.5 376.5zM231 114.5q-135 147.5 -135 411.5t140 418t384 154q243 0 381 -151.5t138 -413.5t-139 -414t-387 -152q-247 0 -382 147.5z" />
    <glyph glyph-name="pi" unicode="&#x3c0;" horiz-adv-x="1273" 
d="M1020 285q0 -127 92 -127q50 0 80 10l27 -172q-78 -27 -175 -27q-141 0 -198.5 81t-57.5 235v592h-337v-877h-234v877h-190v188h1194v-188h-201v-592z" />
    <glyph glyph-name="rho" unicode="&#x3c1;" horiz-adv-x="1243" 
d="M358 506q0 -348 277 -348q189 0 228.5 138t39.5 239q0 194 -72.5 284t-194.5 90t-200 -87t-78 -273v-43zM360 -397h-233v952q0 265 141 404t380 139t369 -151.5t130 -407.5t-124 -414t-333 -158t-330 154v-518z" />
    <glyph glyph-name="sigma1" unicode="&#x3c2;" horiz-adv-x="1107" 
d="M831 688q-37 221 -209 221q-88 0 -185 -57t-97 -301t106.5 -293t163.5 -63l129 -35q162 -45 229.5 -114t67.5 -185q0 -157 -153 -281l-140 117q31 31 53.5 63.5t22.5 80.5t-46 78t-124 50l-117 31q-227 58 -330.5 186t-103.5 358t132 392t382 162q392 0 447 -375z" />
    <glyph glyph-name="sigma" unicode="&#x3c3;" horiz-adv-x="1243" 
d="M338 518q0 -362 267 -362q144 0 212 92t68 244q0 241 -144 385h-79q-150 0 -237 -86t-87 -273zM229 112.5q-133 145.5 -133 394.5t147.5 403.5t432.5 154.5h502v-188h-248q96 -86 139 -196t43 -213t-30.5 -195.5t-129 -199t-344.5 -106.5t-379 145.5z" />
    <glyph glyph-name="tau" unicode="&#x3c4;" horiz-adv-x="1042" 
d="M758 162q90 0 178 26l35 -174q-109 -41 -276 -41q-337 0 -337 344v560h-331v188h962v-188h-397v-527q0 -100 38 -144t128 -44z" />
    <glyph glyph-name="upsilon" unicode="&#x3c5;" horiz-adv-x="1146" 
d="M572 -33q-225 0 -341 114t-116 378v606h233v-606q0 -152 54 -224.5t172 -72.5t171.5 72.5t53.5 224.5v606h233v-606q0 -387 -176 -439.5t-284 -52.5z" />
    <glyph glyph-name="phi" unicode="&#x3c6;" horiz-adv-x="1591" 
d="M1260 528q0 176 -95.5 273.5t-255.5 107.5v-751q154 10 252.5 102t98.5 268zM332 531q0 -174 95 -268.5t255 -104.5v751q-156 -10 -253 -107t-97 -271zM1345 143q-152 -148 -436 -170v-370h-227v370q-291 19 -439.5 167.5t-148.5 394.5t178.5 404.5t524.5 158.5
t523 -158.5t177 -403.5t-152 -393z" />
    <glyph glyph-name="chi" unicode="&#x3c7;" horiz-adv-x="1126" 
d="M1042 -422q-113 0 -178 63.5t-119 176.5l-172 366l-307 -581h-243l438 800l-176 367q-33 68 -64 100.5t-80 32.5t-96 -22l-55 172q84 34 126 38.5t79 4.5q106 0 172.5 -60.5t113.5 -167.5l123 -276l232 473h243l-364 -684l227 -467q37 -78 84.5 -125.5t165.5 6.5l55 -172
q-92 -45 -205 -45z" />
    <glyph glyph-name="psi" unicode="&#x3c8;" horiz-adv-x="1613" 
d="M1262 590v475h231v-494q0 -290 -157 -436.5t-412 -157.5v-374h-232v374q-406 13 -488.5 225t-82.5 369v494h231v-475q0 -323 133 -373.5t207 -54.5v903h232v-903q162 9 250 107t88 321z" />
    <glyph glyph-name="omega" unicode="&#x3c9;" horiz-adv-x="1652" 
d="M1556 512q0 -394 -146 -469.5t-234 -75.5q-144 0 -219 51.5t-132 163.5q-51 -109 -127.5 -162t-191.5 -53q-215 0 -312.5 141t-97.5 382q0 309 215 606l187 -97q-104 -147 -133 -281t-29 -212q0 -180 52 -265t139 -85t135.5 75.5t48.5 227.5v291h231v-291
q0 -152 48 -227.5t135 -75.5t139.5 85t52.5 252q0 280 -164 506l188 97q215 -292 215 -584z" />
    <glyph glyph-name="iotadieresis" unicode="&#x3ca;" horiz-adv-x="608" 
d="M137 283v782h234v-743q1 -78 23 -117t76 -39t110 14l32 -174q-73 -27 -209 -28q-266 -2 -266 305zM195 1483v-230h-224v230h224zM582 1483v-230h-224v230h224z" />
    <glyph glyph-name="upsilondieresis" unicode="&#x3cb;" horiz-adv-x="1146" 
d="M1032 459q0 -385 -268 -466q-86 -26 -192 -26q-108 0 -192 26q-267 82 -265 466v606h233v-606q0 -152 54 -225q54 -72 172 -72t171 72t54 225v606h233v-606zM494 1483v-230h-224v230h224zM881 1483v-230h-224v230h224z" />
    <glyph glyph-name="omicrontonos" unicode="&#x3cc;" horiz-adv-x="1234" 
d="M897 535q0 374 -281 374q-281 -1 -279 -377q1 -376 279 -376q147 0 214 102t67 277zM231 114q-135 148 -135 413t141 418t384 153t380 -151q138 -151 138 -414q0 -262 -140 -414t-386 -152q-247 -1 -382 147zM899 1544l-194 -330h-187l144 330h237z" />
    <glyph glyph-name="upsilontonos" unicode="&#x3cd;" horiz-adv-x="1146" 
d="M1032 459q0 -385 -268 -466q-86 -26 -192 -26q-108 0 -192 26q-267 82 -265 466v606h233v-606q0 -152 54 -225q54 -72 172 -72t171 72t54 225v606h233v-606zM815 1544l-194 -330h-187l144 330h237z" />
    <glyph glyph-name="omegatonos" unicode="&#x3ce;" horiz-adv-x="1652" 
d="M96 512q0 218 138 464q38 67 77 120l187 -97q-108 -152 -147 -344q-15 -72 -15 -149q0 -180 52 -265t139 -85t136 75q48 76 48 228v291h231v-291q0 -152 48 -228q48 -75 135 -75t140 85q52 85 52 252q0 280 -164 506l188 97q215 -292 215 -584q0 -395 -217 -506
q-76 -39 -163 -39q-87 -1 -138 15q-102 31 -159 111q-29 40 -54 89q-51 -109 -126 -161t-205 -54q-398 0 -398 545zM1081 1544l-194 -330h-187l144 330h237z" />
    <glyph glyph-name="uni0400" unicode="&#x400;" horiz-adv-x="1226" 
d="M156 1462h972v-213h-725v-389h684v-215h-684v-432h764l-28 -213h-983v1462zM846 1583h-223l-306 285h279z" />
    <glyph glyph-name="afii10023" unicode="&#x401;" horiz-adv-x="1226" 
d="M156 1462h972v-213h-725v-389h684v-215h-684v-432h764l-28 -213h-983v1462zM561 1847v-237h-229v237h229zM958 1847v-237h-229v237h229z" />
    <glyph glyph-name="afii10051" unicode="&#x402;" horiz-adv-x="1644" 
d="M1018 907q555 0 555 -454q0 -213 -141.5 -333t-444.5 -120h-84v209h80q176 0 257 57.5t81 183.5t-76 189t-256 63t-301 -49v-653h-246v1247h-407v215h1171v-215h-518v-391q172 51 330 51z" />
    <glyph glyph-name="afii10052" unicode="&#x403;" horiz-adv-x="1093" 
d="M156 1462h913v-215h-666v-1247h-247v1462zM967 1868l-305 -285h-224l252 285h277z" />
    <glyph glyph-name="afii10053" unicode="&#x404;" horiz-adv-x="1478" 
d="M774 -37q-334 0 -501 199.5t-167 573.5t192 568.5t484 194.5q469 0 570 -428l-246 -37q-33 123 -108.5 187.5t-231.5 64.5t-266.5 -108.5t-132.5 -319.5h614v-213h-616q14 -229 122.5 -349t288.5 -120q229 0 279.5 103.5t62.5 162.5h262q-37 -229 -187.5 -354
t-418.5 -125z" />
    <glyph glyph-name="afii10054" unicode="&#x405;" horiz-adv-x="1318" 
d="M977 401q0 178 -234 215l-186 35q-238 43 -348 138q-111 95 -111 296q0 200 154 308t414 107q261 -1 405 -127q113 -101 141 -283l-233 -37q-29 123 -99 182q-71 59 -225 59q-240 0 -291 -122q-15 -36 -16 -74q0 -96 52 -144t184 -73l202 -39q231 -42 340 -146t109 -298
t-145 -314q-145 -121 -416 -121q-270 0 -430 118t-176 365h249q15 -142 103 -208t253 -66t235 62q69 63 69 167z" />
    <glyph glyph-name="afii10055" unicode="&#x406;" horiz-adv-x="557" 
d="M156 1462h247v-1462h-247v1462z" />
    <glyph glyph-name="afii10056" unicode="&#x407;" horiz-adv-x="557" 
d="M156 1462h247v-1462h-247v1462zM197 1847v-237h-230v237h230zM594 1847v-237h-229v237h229z" />
    <glyph glyph-name="afii10057" unicode="&#x408;" horiz-adv-x="1263" 
d="M874 508v954h248v-970q0 -262 -140 -396t-386 -133q-246 0 -383 123t-156 385h248q17 -147 83 -221t213 -74t210 86t63 246z" />
    <glyph glyph-name="afii10058" unicode="&#x409;" horiz-adv-x="2197" 
d="M1325 731v-526h240q252 0 283.5 98t31.5 196.5t-70.5 165t-255.5 66.5h-229zM2126 473q0 -473 -565 -473h-484v1253h-352l-59 -485q-53 -405 -182.5 -593.5t-395.5 -188.5h-59v213h30q164 0 250 152.5t129 527.5l70 583h817v-524h250q299 0 425 -130t126 -335z" />
    <glyph glyph-name="afii10059" unicode="&#x40a;" horiz-adv-x="2134" 
d="M1262 680v-475h239q253 0 284.5 89t31.5 147q0 124 -72 181.5t-248 57.5h-235zM1016 678h-613v-678h-247v1462h247v-569h613v569h246v-569h247q295 0 423 -124t128 -318q0 -320 -200.5 -385.5t-362.5 -65.5h-481v678z" />
    <glyph glyph-name="afii10060" unicode="&#x40b;" horiz-adv-x="1630" 
d="M1507 426v-426h-245v362q0 173 -68 248.5t-228 75.5t-286 -55v-631h-248v1247h-397v215h1161v-215h-516v-422q143 60 296 60q282 0 406.5 -115.5t124.5 -343.5z" />
    <glyph glyph-name="afii10061" unicode="&#x40c;" horiz-adv-x="1353" 
d="M1192 1253q-42 -1 -84 -25q-43 -24 -82 -108l-78 -164q-63 -136 -176 -190q48 -19 90 -61q41 -41 109 -140l375 -565h-287l-330 500q-58 86 -102 115q-44 30 -129 30h-97v-645h-245v1462h245v-612h76q88 0 153 45t118 156l98 200q59 123 136 167t171 44t150 -18l-29 -199
q-41 8 -82 8zM1065 1868l-305 -285h-223l251 285h277z" />
    <glyph glyph-name="uni040D" unicode="&#x40d;" horiz-adv-x="1435" 
d="M1040 0v1063l-655 -1063h-229v1462h241v-1069l654 1069h229v-1462h-240zM895 1583h-223l-305 285h278z" />
    <glyph glyph-name="afii10062" unicode="&#x40e;" horiz-adv-x="1236" 
d="M254 160q84 0 146 42t108 144l33 72l-533 1044h275l376 -805l316 805h254l-484 -1118q-90 -205 -199 -293q-108 -88 -294 -88q-126 0 -201 39l49 188q70 -30 154 -30zM969 1884q0 -143 -89 -223t-252 -80t-247 80t-84 223h168q4 -78 48 -116t118 -37q158 0 166 153h172z
" />
    <glyph glyph-name="afii10145" unicode="&#x40f;" horiz-adv-x="1429" 
d="M403 215h623v1247h248v-1462h-445v-354h-219v354h-454v1462h247v-1247z" />
    <glyph glyph-name="afii10017" unicode="&#x410;" horiz-adv-x="1404" 
d="M913 580l-217 602l-215 -602h432zM580 1462h245l557 -1462h-264l-137 373h-567l-135 -373h-256z" />
    <glyph glyph-name="afii10018" unicode="&#x411;" horiz-adv-x="1294" 
d="M403 711v-506h267q248 0 277.5 93.5t29.5 151.5q0 126 -69 193.5t-249 67.5h-256zM1223 459q0 -459 -557 -459h-510v1462h895v-215h-648v-329h277q543 0 543 -459z" />
    <glyph glyph-name="afii10019" unicode="&#x412;" horiz-adv-x="1310" 
d="M690 199q242 0 287 137q14 43 14 96q0 111 -62 169t-216 58h-318v-460h295zM690 862q145 0 203 53q57 53 57 155t-66 150q-67 46 -231 46h-258v-404h295zM156 1462h506q431 0 507 -234q23 -71 23 -157q0 -206 -191 -295q191 -85 224 -245q10 -47 10 -117t-28 -150
q-57 -164 -257 -230q-102 -34 -252 -34h-542v1462z" />
    <glyph glyph-name="afii10020" unicode="&#x413;" horiz-adv-x="1093" 
d="M156 1462h913v-215h-666v-1247h-247v1462z" />
    <glyph glyph-name="afii10021" unicode="&#x414;" horiz-adv-x="1513" 
d="M1071 215v1038h-389l-20 -202q-62 -595 -228 -836h637zM1317 1462v-1247h156v-569h-220v354h-1017v-354h-220v569h146q161 201 211.5 501t62.5 427l31 319h850z" />
    <glyph glyph-name="afii10022" unicode="&#x415;" horiz-adv-x="1226" 
d="M156 1462h972v-213h-725v-389h684v-215h-684v-432h764l-28 -213h-983v1462z" />
    <glyph glyph-name="afii10024" unicode="&#x416;" horiz-adv-x="2111" 
d="M1939 1253q-40 0 -84.5 -24.5t-82.5 -108.5l-62 -135q-78 -168 -190 -219q57 -23 94 -60.5t84 -109.5l395 -596h-287l-333 508q-49 76 -96 106.5t-130 30.5h-69v-645h-246v645h-84q-66 0 -116 -27.5t-101 -105.5l-336 -512h-277l398 600q45 70 85 109t91 57
q-118 45 -180 188l-76 172q-37 80 -76 103.5t-81 23.5t-83 -8l-28 199q70 18 156 18q87 0 161 -36.5t127 -151.5l102 -223q49 -111 115 -157t154 -46h49v614h246v-614h47q88 0 153.5 46t118.5 157l94 200q57 121 135 166t173 45t151 -18l-31 -199q-40 8 -80 8z" />
    <glyph glyph-name="afii10025" unicode="&#x417;" horiz-adv-x="1294" 
d="M1169 1114q0 -237 -202 -340q123 -47 179 -141.5t56 -204.5q0 -220 -146 -342.5t-427 -122.5t-417 124t-140 335h235q16 -137 93 -197.5t245 -60.5q315 0 316 250q0 242 -328 241h-174v201h186q135 0 212 59.5t77 171.5q0 211 -285 211q-152 0 -224.5 -56t-100.5 -169
l-226 31q33 184 168 289.5t390 105.5t384 -104.5t129 -280.5z" />
    <glyph glyph-name="afii10026" unicode="&#x418;" horiz-adv-x="1435" 
d="M1040 0v1063l-655 -1063h-229v1462h241v-1069l654 1069h229v-1462h-240z" />
    <glyph glyph-name="afii10027" unicode="&#x419;" horiz-adv-x="1435" 
d="M1040 0v1063l-655 -1063h-229v1462h241v-1069l654 1069h229v-1462h-240zM1051 1884q0 -143 -89 -223t-252 -80t-247 80t-84 223h168q4 -78 48 -116t118 -37q156 0 166 153h172z" />
    <glyph glyph-name="afii10028" unicode="&#x41a;" horiz-adv-x="1353" 
d="M1192 1253q-42 0 -84.5 -24.5t-81.5 -108.5l-78 -164q-63 -136 -176 -190q48 -19 89.5 -60.5t109.5 -140.5l375 -565h-287l-330 500q-58 85 -92.5 109t-65 30t-73.5 6h-97v-645h-245v1462h245v-612h76q88 0 152.5 45t118.5 156l98 200q59 123 136 167t171 44t150 -18
l-29 -199q-41 8 -82 8z" />
    <glyph glyph-name="afii10029" unicode="&#x41b;" horiz-adv-x="1519" 
d="M1118 1253h-399l-57 -485q-48 -401 -179 -591.5t-399 -190.5h-59v213h30q164 0 250 152.5t129 527.5l70 583h860v-1462h-246v1253z" />
    <glyph glyph-name="afii10030" unicode="&#x41c;" horiz-adv-x="1746" 
d="M156 1462h301l415 -1163l428 1163h291v-1462h-227v1063l-401 -1063h-197l-387 1061v-1061h-223v1462z" />
    <glyph glyph-name="afii10031" unicode="&#x41d;" horiz-adv-x="1464" 
d="M156 1462h247v-592h658v592h248v-1462h-248v641h-658v-641h-247v1462z" />
    <glyph glyph-name="afii10032" unicode="&#x41e;" horiz-adv-x="1581" 
d="M790 176q212 0 320 148t109 407q0 258 -109 406q-109 149 -318 149q-208 0 -319 -146t-111 -407t108 -409t320 -148zM795 1499q315 0 496 -203q182 -203 183 -562t-181 -565t-499 -206t-501 202q-185 202 -186 562t186 566t502 206z" />
    <glyph glyph-name="afii10033" unicode="&#x41f;" horiz-adv-x="1433" 
d="M1030 1247h-627v-1247h-247v1462h1122v-1462h-248v1247z" />
    <glyph glyph-name="afii10034" unicode="&#x420;" horiz-adv-x="1296" 
d="M659 752q256 0 298 151q32 114 -1 214q-43 140 -299 140h-258v-505h260zM156 1462h506q443 0 528 -277q51 -166 0 -349q-53 -183 -256 -253q-106 -38 -268 -38h-267v-545h-243v1462z" />
    <glyph glyph-name="afii10035" unicode="&#x421;" horiz-adv-x="1458" 
d="M281 166q-172 203 -174 562q-1 359 182 565t483 206q389 0 521 -289q42 -90 63 -200l-244 -35q-33 155 -112 234q-78 79 -228 77q-194 0 -302 -150q-107 -150 -106 -406t109 -405t299 -149q239 0 312 185q24 58 34 133h262q-25 -238 -174 -379q-160 -152 -457 -152
q-296 0 -468 203z" />
    <glyph glyph-name="afii10036" unicode="&#x422;" horiz-adv-x="1249" 
d="M502 1247h-463v215h1171v-215h-460v-1247h-248v1247z" />
    <glyph glyph-name="afii10037" unicode="&#x423;" horiz-adv-x="1236" 
d="M254 160q84 0 146.5 42t107.5 144l33 72l-533 1044h275l376 -805l316 805h254l-484 -1118q-90 -205 -198.5 -293t-294.5 -88q-120 0 -201 39l49 188q70 -30 154 -30z" />
    <glyph glyph-name="afii10038" unicode="&#x424;" horiz-adv-x="1728" 
d="M340 791q0 -199 104.5 -294.5t300.5 -117.5v827q-405 -39 -405 -415zM1389 787q0 380 -406 419v-827q205 23 305.5 122t100.5 286zM90 784q0 285 174.5 441.5t480.5 177.5v162h238v-162q463 -32 559 -248.5t96 -364.5q0 -281 -178.5 -429.5t-476.5 -176.5v-184h-238v182
q-469 39 -562 246.5t-93 355.5z" />
    <glyph glyph-name="afii10039" unicode="&#x425;" horiz-adv-x="1353" 
d="M530 772l-475 690h283l336 -512l340 512h266l-471 -700l528 -762h-284l-389 578l-377 -578h-269z" />
    <glyph glyph-name="afii10040" unicode="&#x426;" horiz-adv-x="1452" 
d="M156 0v1462h247v-1247h603v1247h247v-1247h156v-569h-219v354h-1034z" />
    <glyph glyph-name="afii10041" unicode="&#x427;" horiz-adv-x="1347" 
d="M606 555q-356 0 -430 163t-74 290v454h246v-385q0 -173 68.5 -248t238.5 -75t291 55v653h246v-1462h-246v621q-159 -66 -340 -66z" />
    <glyph glyph-name="afii10042" unicode="&#x428;" horiz-adv-x="2029" 
d="M1139 215h487v1247h248v-1462h-1718v1462h247v-1247h488v1247h248v-1247z" />
    <glyph glyph-name="afii10043" unicode="&#x429;" horiz-adv-x="2072" 
d="M156 0v1462h247v-1247h488v1247h248v-1247h487v1247h248v-1247h156v-569h-220v354h-1654z" />
    <glyph glyph-name="afii10044" unicode="&#x42a;" horiz-adv-x="1484" 
d="M1411 471q0 -471 -567 -471h-494v1247h-334v215h580v-524h258q299 0 428 -129t129 -338zM596 731v-526h252q252 0 284.5 97t32.5 197.5t-72.5 166t-250.5 65.5h-246z" />
    <glyph glyph-name="afii10045" unicode="&#x42b;" horiz-adv-x="1832" 
d="M1432 1462h245v-1462h-245v1462zM401 205h244q180 0 250 65.5t70 197.5t-74.5 197.5t-249.5 65.5h-240v-526zM1210 471q0 -471 -569 -471h-485v1462h245v-524h252q300 0 428.5 -130.5t128.5 -336.5z" />
    <glyph glyph-name="afii10046" unicode="&#x42c;" horiz-adv-x="1308" 
d="M401 731v-526h273q180 0 249.5 65.5t69.5 197.5t-74 197.5t-251 65.5h-267zM1239 471q0 -471 -571 -471h-512v1462h245v-524h279q302 0 430.5 -130.5t128.5 -336.5z" />
    <glyph glyph-name="afii10047" unicode="&#x42d;" horiz-adv-x="1454" 
d="M485 645v213h602q-19 216 -120 322t-249 106t-212 -37t-102.5 -86t-63.5 -129l-240 37q121 428 627 428q271 0 446 -193.5t175 -565.5q0 -371 -168 -574t-472 -203t-452 130t-170 349h248q48 -266 354 -266q199 0 293 112.5t109 356.5h-605z" />
    <glyph glyph-name="afii10048" unicode="&#x42e;" horiz-adv-x="2160" 
d="M1388 1286q-208 0 -309.5 -146.5t-101.5 -407.5t99.5 -408.5t309.5 -147.5t311 146.5t101 406.5t-101 408.5t-309 148.5zM403 647v-647h-247v1462h247v-604h326q33 305 206 473t467 168t473 -202.5t179 -566.5t-177 -565.5t-483 -201.5t-477.5 177t-189.5 507h-324z" />
    <glyph glyph-name="afii10049" unicode="&#x42f;" horiz-adv-x="1378" 
d="M977 784v473h-248q-254 0 -283.5 -89t-29.5 -138q0 -109 64.5 -177.5t219.5 -68.5h277zM1223 0h-246v578h-184q-149 0 -197.5 -64.5t-69.5 -110.5l-200 -403h-283l225 438q45 86 89 128t98 67q-145 49 -217 140t-72 247q0 300 197.5 371t363.5 71h496v-1462z" />
    <glyph glyph-name="afii10065" unicode="&#x430;" horiz-adv-x="1126" 
d="M450 -27q-186 0 -285 82.5t-99 241.5q0 285 224 321.5t326 43.5l158 8v45q0 117 -55 166t-159 49q-194 0 -226 -144l-213 23q29 156 141.5 227.5t308.5 71.5q337 0 383.5 -161t46.5 -257v-690h-223v139q-59 -70 -142.5 -118t-185.5 -48zM299 292q0 -56 43 -97t131 -41
q139 0 220 68.5t81 197.5v92l-149 -6q-269 -11 -297.5 -84.5t-28.5 -129.5z" />
    <glyph glyph-name="afii10066" unicode="&#x431;" horiz-adv-x="1253" 
d="M709 1014q198 0 323 -133t125 -376t-138 -390.5t-378 -147.5q-528 0 -528 649q0 339 100.5 495.5t215.5 221t234 94t199 43.5l148 25l28 -190l-200 -37q-256 -45 -363 -148q-111 -102 -135 -295q114 189 369 189zM362 512q0 -170 70 -263t205 -93t208 83t73 257
t-70.5 252.5t-187.5 78.5t-181 -52q-117 -93 -117 -263z" />
    <glyph glyph-name="afii10067" unicode="&#x432;" horiz-adv-x="1140" 
d="M838 322q0 145 -207 145h-277v-285h279q115 0 160 34t45 106zM618 629q187 0 187 131q0 70 -42 102.5t-151 32.5h-258v-266h264zM1038 797q0 -170 -151 -238q86 -29 135 -91t49 -140q0 -157 -99 -242.5t-347 -85.5h-496v1077h489q223 0 321.5 -76.5t98.5 -203.5z" />
    <glyph glyph-name="afii10068" unicode="&#x433;" horiz-adv-x="892" 
d="M866 1077v-196h-504v-881h-233v1077h737z" />
    <glyph glyph-name="afii10069" unicode="&#x434;" horiz-adv-x="1226" 
d="M842 195v696h-295l-17 -164q-44 -400 -145 -532h457zM1073 1077v-882h129v-482h-201v287h-770v-287h-200v482h108q143 128 187 665l18 217h729z" />
    <glyph glyph-name="afii10070" unicode="&#x435;" horiz-adv-x="1187" 
d="M866 643q0 289 -258 289q-127 0 -195.5 -79t-78.5 -210h532zM228 117.5q-132 150.5 -132 418.5t142 420t379 152t357 -141.5t120 -380.5v-103h-764q4 -148 75 -240.5t209 -92.5q201 0 240 165h225q-61 -348 -465 -348q-254 0 -386 150.5z" />
    <glyph glyph-name="afii10072" unicode="&#x436;" horiz-adv-x="1650" 
d="M1506 897q-50 0 -73.5 -23.5t-50.5 -80.5l-43 -97q-52 -111 -137 -141q91 -31 178 -160l258 -395h-254l-223 344q-39 59 -71.5 88t-96.5 29h-57v-461h-219v461h-60q-70 0 -105.5 -33t-78.5 -102l-209 -326h-250l273 414q74 110 166 139q-89 27 -144 143l-55 117
q-23 47 -44.5 65.5t-67.5 18.5t-66 -8l-23 174q70 14 122 14q112 0 176.5 -60.5t118.5 -191.5q54 -130 98 -166t110 -36h39v454h219v-454h37q70 0 109.5 35.5t76.5 123.5q73 173 131.5 230t177.5 65q61 0 127 -14l-20 -174q-19 8 -69 8z" />
    <glyph glyph-name="afii10073" unicode="&#x437;" horiz-adv-x="1105" 
d="M549 1108q227 0 335.5 -85t108.5 -214q0 -86 -48 -150.5t-122 -91.5q82 -25 140.5 -86t58.5 -172q0 -150 -118 -245t-352 -95t-358 87t-135 278h224q14 -98 77.5 -138t193.5 -40t180 43t50 114q0 156 -202 156h-220v162h228q84 0 128 38.5t44 106.5t-53 108t-139 40
q-148 0 -202 -41t-79 -127l-213 39q72 313 473 313z" />
    <glyph glyph-name="afii10074" unicode="&#x438;" horiz-adv-x="1173" 
d="M1044 0h-213v743l-495 -743h-207v1077h213v-745l496 745h206v-1077z" />
    <glyph glyph-name="afii10075" unicode="&#x439;" horiz-adv-x="1173" 
d="M1044 0h-213v743l-495 -743h-207v1077h213v-745l496 745h206v-1077zM938 1511q0 -143 -89 -223t-252 -80t-247 80t-84 223h168q8 -153 166 -153t166 153h172z" />
    <glyph glyph-name="afii10076" unicode="&#x43a;" horiz-adv-x="1091" 
d="M971 897q-47 0 -72 -19.5t-47 -68.5l-51 -113q-23 -53 -53.5 -88t-83.5 -57q86 -34 151 -137l270 -414h-260l-223 344q-39 59 -71.5 88t-96.5 29h-72v-461h-233v1077h233v-454h60q70 0 111 35.5t78 124.5q75 176 140.5 235t202.5 59q51 0 105 -14l-21 -174q-20 8 -67 8z
" />
    <glyph glyph-name="afii10077" unicode="&#x43b;" horiz-adv-x="1196" 
d="M834 883h-302l-36 -326q-35 -303 -140.5 -435t-308.5 -132h-47v192h23q105 0 163.5 92t85.5 338l54 465h741v-1077h-233v883z" />
    <glyph glyph-name="afii10078" unicode="&#x43c;" horiz-adv-x="1462" 
d="M131 1077h262l342 -833l350 833h246v-1077h-211v713l-307 -713h-176l-295 713v-713h-211v1077z" />
    <glyph glyph-name="afii10079" unicode="&#x43d;" horiz-adv-x="1216" 
d="M362 1077v-422h492v422h233v-1077h-233v461h-492v-461h-233v1077h233z" />
    <glyph glyph-name="afii10080" unicode="&#x43e;" horiz-adv-x="1247" 
d="M622.5 156q147.5 0 216 104.5t68.5 280.5t-68.5 277.5t-216 101.5t-216 -101.5t-68.5 -277.5t68.5 -280.5t216 -104.5zM233.5 118.5q-137.5 151.5 -137.5 417.5t144.5 419t387.5 153t382 -151.5t139 -414t-143 -419t-389 -156.5t-383.5 151.5z" />
    <glyph glyph-name="afii10081" unicode="&#x43f;" horiz-adv-x="1191" 
d="M1063 1077v-1077h-234v881h-467v-881h-233v1077h934z" />
    <glyph glyph-name="afii10082" unicode="&#x440;" horiz-adv-x="1247" 
d="M989 1018.5q162 -89.5 162 -478.5q0 -250 -123.5 -411.5t-335.5 -161.5t-330 154v-518h-233v1474h227v-149q12 14 38 45t100 83t204 52q129 0 291 -89.5zM358 504q0 -346 279 -346q131 0 200.5 100t69.5 288t-72.5 280t-201.5 92t-202 -90.5t-73 -258.5v-65z" />
    <glyph glyph-name="afii10083" unicode="&#x441;" horiz-adv-x="1155" 
d="M604 -33q-258 0 -383 151.5t-125 414.5t138.5 419t379.5 156q293 0 360.5 -141.5t80.5 -221.5l-232 -34q-18 99 -68 154t-162 55t-183.5 -93t-71.5 -291t71.5 -289t187.5 -91t169.5 57t69.5 160h235q-23 -188 -135.5 -297t-331.5 -109z" />
    <glyph glyph-name="afii10084" unicode="&#x442;" horiz-adv-x="1017" 
d="M395 883h-360v194h950v-194h-356v-883h-234v883z" />
    <glyph glyph-name="afii10085" unicode="&#x443;" horiz-adv-x="1116" 
d="M261 -207q60 0 96 31t67 110l39 101l-449 1042h271l293 -780l270 780h254l-449 -1143q-75 -186 -144 -258.5t-191 -72.5t-220 32l43 179q60 -21 120 -21z" />
    <glyph glyph-name="afii10086" unicode="&#x444;" horiz-adv-x="1525" 
d="M1208 531q0 161 -90 245t-244 98v-686q152 12 243 97t91 246zM315 526q0 -307 334 -340v686q-152 -12 -243 -102t-91 -244zM649 0q-569 57 -569 519q0 226 151 370t418 172v375h225v-375q283 -23 426.5 -164t143.5 -367t-157 -365.5t-413 -164.5v-365h-225v365z" />
    <glyph glyph-name="afii10087" unicode="&#x445;" horiz-adv-x="1081" 
d="M412 559l-357 518h275l221 -342l235 342h246l-350 -508l381 -569h-268l-258 395l-263 -395h-254z" />
    <glyph glyph-name="afii10088" unicode="&#x446;" horiz-adv-x="1189" 
d="M129 0v1077h233v-882h439v882h233v-882h129v-482h-200v287h-834z" />
    <glyph glyph-name="afii10089" unicode="&#x447;" horiz-adv-x="1110" 
d="M514 385q-432 0 -432 383v309h231v-258q0 -137 58.5 -191.5t175.5 -54.5t203 31v473h231v-1077h-231v416q-108 -31 -236 -31z" />
    <glyph glyph-name="afii10090" unicode="&#x448;" horiz-adv-x="1683" 
d="M1552 0h-1423v1077h233v-882h363v882h231v-882h363v882h233v-1077z" />
    <glyph glyph-name="afii10091" unicode="&#x449;" horiz-adv-x="1708" 
d="M1552 195h129v-482h-200v287h-1352v1077h233v-882h363v882h233v-882h361v882h233v-882z" />
    <glyph glyph-name="afii10092" unicode="&#x44a;" horiz-adv-x="1216" 
d="M731 190q184 0 184 119t-40.5 164t-151.5 45h-254v-328h262zM0 1077h469v-370h287q200 0 299.5 -95.5t99.5 -257.5t-106.5 -258t-317.5 -96h-495v883h-236v194z" />
    <glyph glyph-name="afii10093" unicode="&#x44b;" horiz-adv-x="1548" 
d="M362 190h261q186 0 186 162q0 78 -42 122t-151 44h-254v-328zM1186 1077h233v-1077h-233v1077zM362 1077v-370h285q198 0 300 -95.5t102 -255.5t-104.5 -258t-321.5 -98h-494v1077h233z" />
    <glyph glyph-name="afii10094" unicode="&#x44c;" horiz-adv-x="1130" 
d="M362 190h279q188 0 188 162q0 78 -42 122t-152 44h-273v-328zM362 1077v-370h308q196 0 297.5 -95t101.5 -256q0 -160 -105.5 -258t-320.5 -98h-514v1077h233z" />
    <glyph glyph-name="afii10095" unicode="&#x44d;" horiz-adv-x="1167" 
d="M592 1108q219 0 349 -148.5t130 -413.5t-135 -422t-359 -157q-225 0 -346.5 94.5t-142.5 272.5h223q16 -86 75.5 -134t185.5 -48t189.5 82.5t72.5 224.5h-435v168h430q-21 297 -262 297q-203 0 -252 -176l-213 34q33 145 152 235.5t338 90.5z" />
    <glyph glyph-name="afii10096" unicode="&#x44e;" horiz-adv-x="1689" 
d="M1086 156q266 0 266 385q0 174 -61 276.5t-203 102.5q-270 0 -269 -382t267 -382zM362 1077v-442h228q25 221 154.5 347t356.5 126t359.5 -150.5t132.5 -414.5t-134.5 -420t-367.5 -156t-360 129t-143 365h-226v-461h-233v1077h233z" />
    <glyph glyph-name="afii10097" unicode="&#x44f;" horiz-adv-x="1140" 
d="M780 594v295h-217q-195 0 -194 -137q0 -158 180 -158h231zM239 986q106 91 328 91h445v-1077h-232v403h-121q-81 0 -121 -23t-81 -91l-160 -289h-264l194 334q53 92 123 121q-89 17 -153 90t-64 212q0 138 106 229z" />
    <glyph glyph-name="uni0450" unicode="&#x450;" horiz-adv-x="1187" 
d="M866 643q0 289 -258 289q-128 0 -196 -79t-78 -210h532zM228 118q-132 151 -132 418t142 419q142 153 378 153q235 0 356 -142q122 -142 122 -380v-103h-764q6 -237 162 -309q53 -24 143 -24t145 44t74 121h225q-61 -348 -465 -348q-254 0 -386 151zM559 1518l240 -304
h-219l-293 304h272z" />
    <glyph glyph-name="afii10071" unicode="&#x451;" horiz-adv-x="1187" 
d="M866 643q0 289 -258 289q-128 0 -196 -79t-78 -210h532zM228 118q-132 151 -132 418t142 419q142 153 378 153q235 0 356 -142q122 -142 122 -380v-103h-764q6 -237 162 -309q53 -24 143 -24t145 44t74 121h225q-61 -348 -465 -348q-254 0 -386 151zM524 1483v-230h-223
v230h223zM911 1483v-230h-223v230h223z" />
    <glyph glyph-name="afii10099" unicode="&#x452;" horiz-adv-x="1251" 
d="M753 1026q197 0 283 -96t86 -295v-643q0 -178 -71.5 -274.5t-243.5 -96.5q-98 0 -203 33l35 178q61 -18 125 -18t94.5 32.5t30.5 118.5v633q0 129 -47 180t-149 51t-186.5 -73.5t-84.5 -190.5v-565h-234v1153h-188v172h188v137h234v-137h426v-172h-426v-307
q134 180 331 180z" />
    <glyph glyph-name="afii10100" unicode="&#x453;" horiz-adv-x="892" 
d="M866 1077v-196h-504v-881h-233v1077h737zM811 1518l-293 -304h-219l240 304h272z" />
    <glyph glyph-name="afii10101" unicode="&#x454;" horiz-adv-x="1167" 
d="M768 461h-434q6 -141 74.5 -225t209.5 -84q98 0 162 40.5t78 139.5h223q-26 -185 -156 -275t-317 -90q-250 0 -381 147.5t-131 409.5t141.5 423t378.5 161q388 0 455 -326l-223 -34q-23 86 -76 131t-170 45t-185.5 -81t-82.5 -212h434v-170z" />
    <glyph glyph-name="afii10102" unicode="&#x455;" horiz-adv-x="1085" 
d="M564 930q-247 0 -247 -129q0 -63 37 -95t142 -49l143 -24q204 -36 284.5 -112.5t80.5 -224.5t-111 -238.5t-336 -90.5q-328 0 -404.5 128t-82.5 231h223q16 -102 84.5 -139t182.5 -37q212 0 212 139q0 53 -31.5 91t-130.5 54l-141 25q-186 31 -280.5 102.5t-94.5 220.5
t122 237.5t319 88.5q325 0 384.5 -122t71.5 -185l-209 -29q-25 84 -77 121t-141 37z" />
    <glyph glyph-name="afii10103" unicode="&#x456;" horiz-adv-x="503" 
d="M369 1077v-1077h-234v1077h234zM373 1462v-231h-242v231h242z" />
    <glyph glyph-name="afii10104" unicode="&#x457;" horiz-adv-x="503" 
d="M369 1077v-1077h-234v1077h234zM170 1483v-230h-223v230h223zM557 1483v-230h-223v230h223z" />
    <glyph glyph-name="afii10105" unicode="&#x458;" horiz-adv-x="503" 
d="M373 1462v-231h-242v231h242zM4 -186q68 0 99.5 32.5t31.5 118.5v1112h234v-1085q0 -178 -74 -274.5t-248 -96.5q-109 0 -207 33l35 178q61 -18 129 -18z" />
    <glyph glyph-name="afii10106" unicode="&#x459;" horiz-adv-x="1751" 
d="M1022 190h240q186 0 186 162q0 78 -41 122t-152 44h-233v-328zM791 883h-259l-36 -326q-35 -303 -140.5 -435t-308.5 -132h-47v192h23q105 0 163.5 92t85.5 338l54 465h696v-370h266q198 0 300 -95.5t102 -255.5t-105.5 -258t-320.5 -98h-473v883z" />
    <glyph glyph-name="afii10107" unicode="&#x45a;" horiz-adv-x="1763" 
d="M1036 190h240q186 0 186 148q0 72 -41 111.5t-151 39.5h-234v-299zM129 1077h233v-397h441v397h233v-397h267q298 0 348.5 -132t50.5 -204q0 -158 -104.5 -251t-321.5 -93h-473v489h-441v-489h-233v1077z" />
    <glyph glyph-name="afii10108" unicode="&#x45b;" horiz-adv-x="1251" 
d="M759 1026q195 0 282 -96t87 -295v-635h-233v598q0 129 -47.5 180t-121.5 51q-136 0 -218 -76t-82 -188v-565h-233v1153h-193v172h193v137h233v-137h438v-172h-438v-307q138 180 333 180z" />
    <glyph glyph-name="afii10109" unicode="&#x45c;" horiz-adv-x="1091" 
d="M971 897q-47 0 -72 -19t-47 -69l-51 -113q-23 -53 -53 -88t-84 -57q86 -34 151 -137l270 -414h-260l-223 344q-39 59 -72 88t-96 29h-72v-461h-233v1077h233v-454h60q69 0 101 27q32 26 51 60t47 98q68 154 133 211q65 58 200 58q54 0 105 -14l-21 -174q-20 8 -67 8z
M915 1518l-292 -304h-220l240 304h272z" />
    <glyph glyph-name="uni045D" unicode="&#x45d;" horiz-adv-x="1173" 
d="M1044 0h-213v743l-495 -743h-207v1077h213v-745l496 745h206v-1077zM553 1518l240 -304h-220l-292 304h272z" />
    <glyph glyph-name="afii10110" unicode="&#x45e;" horiz-adv-x="1116" 
d="M261 -207q60 0 96 31t67 110l39 101l-449 1042h271l293 -780l270 780h254l-449 -1143q-75 -186 -123 -237q-91 -96 -212 -95t-220 33l43 179q60 -21 120 -21zM893 1511q0 -143 -89 -223t-252 -80t-247 80t-84 223h168q8 -153 166 -153t166 153h172z" />
    <glyph glyph-name="afii10193" unicode="&#x45f;" horiz-adv-x="1191" 
d="M696 0v-287h-200v287h-367v1077h233v-882h467v882h234v-1077h-367z" />
    <glyph glyph-name="uni0462" unicode="&#x462;" horiz-adv-x="1533" 
d="M633 731v-526h264q180 0 250 65.5t70 197.5t-74.5 197.5t-251.5 65.5h-258zM1462 471q0 -471 -569 -471h-506v1155h-352v201h352v164h246v-164h459v-201h-459v-217h270q302 0 430.5 -130.5t128.5 -336.5z" />
    <glyph glyph-name="uni0463" unicode="&#x463;" horiz-adv-x="1249" 
d="M477 190h281q186 0 186 162q0 78 -41 122t-151 44h-275v-328zM6 1073h238v426h233v-426h420v-174h-420v-192h307q199 0 299.5 -95.5t100.5 -255.5t-105.5 -258t-320.5 -98h-514v899h-238v174z" />
    <glyph glyph-name="uni0472" unicode="&#x472;" horiz-adv-x="1581" 
d="M1008 561q-66 0 -121.5 22.5t-108.5 48t-105 48t-110 22.5q-119 0 -203 -53q14 -225 121 -352t305 -127t304 119t129 329q-91 -57 -211 -57zM1048 764q81 0 173 49q-16 223 -123.5 351t-304.5 128t-302.5 -118.5t-128.5 -327.5q94 59 187.5 59t150 -22.5t109.5 -48
t105.5 -48t133.5 -22.5zM106 641q0 268 49.5 411.5t139.5 243t216 151.5t362 52t419 -205t183 -563t-182 -563t-498 -205q-317 0 -503 205t-186 473z" />
    <glyph glyph-name="uni0473" unicode="&#x473;" horiz-adv-x="1247" 
d="M336 477q26 -323 282 -323q136 0 202.5 74.5t84.5 207.5q-68 -35 -124 -35t-95 16.5t-76 35t-73.5 35t-92.5 16.5t-108 -27zM909 600q-21 322 -281 322q-254 0 -288 -279q64 31 120 31t95 -16.5t76 -35t72 -35t95 -16.5t111 29zM233.5 118.5q-137.5 151.5 -137.5 417.5
t144.5 419t387.5 153t382 -151.5t139 -414t-143 -419t-389 -156.5t-383.5 151.5z" />
    <glyph glyph-name="uni0474" unicode="&#x474;" horiz-adv-x="1589" 
d="M961 1118q64 195 160 285t255 90t260 -78l-82 -190q-83 49 -146 49q-64 0 -110.5 -30t-83.5 -134l-397 -1110h-237l-557 1462h276l401 -1126z" />
    <glyph glyph-name="uni0475" unicode="&#x475;" horiz-adv-x="1259" 
d="M1064 1104q143 0 222 -68l-74 -170q-47 37 -109 37t-93 -30.5t-60 -108.5l-280 -764h-240l-418 1077h269l272 -815l203 594q47 141 134 194.5t174 53.5z" />
    <glyph glyph-name="uni048A" unicode="&#x48a;" horiz-adv-x="1497" 
d="M1051 1888q0 -143 -89.5 -223t-251.5 -80t-246.5 80t-84.5 223h168q8 -153 165 -153t167 153h172zM1454 215q0 -180 -40 -279.5t-97 -175t-152 -145.5l-141 143q147 117 190 242h-174v1063l-655 -1063h-229v1462h241v-1069l654 1069h229v-1247h174z" />
    <glyph glyph-name="uni048B" unicode="&#x48b;" horiz-adv-x="1196" 
d="M938 1511q0 -143 -89 -223t-252 -80t-247 80t-84 223h168q8 -153 166 -153t166 153h172zM131 0v1077h211v-745l496 745h206v-882h125q0 -169 -34.5 -250.5t-82.5 -140t-128 -115.5l-123 131q104 80 145 180h-115v743l-495 -743h-205z" />
    <glyph glyph-name="uni048C" unicode="&#x48c;" horiz-adv-x="1349" 
d="M451 725v-520h266q178 0 246.5 64.5t68.5 193.5t-72 195.5t-253 66.5h-256zM203 1108h-183v201h183v153h248v-153h344v-201h-344v-176h276q299 0 425 -130t126 -333q0 -469 -565 -469h-510v1108z" />
    <glyph glyph-name="uni048D" unicode="&#x48d;" horiz-adv-x="1214" 
d="M444 190h281q186 0 186 160q0 76 -41 118t-151 42h-275v-320zM6 995h207v109h231v-109h369v-174h-369v-123h308q200 0 300.5 -94.5t100.5 -252.5q0 -157 -105.5 -254t-320.5 -97h-514v821h-207v174z" />
    <glyph glyph-name="uni048E" unicode="&#x48e;" horiz-adv-x="1339" 
d="M702 1462q555 0 555 -446q0 -301 -225 -410l103 -157l-156 -99l-131 205q-59 -10 -207 -10h-242v-545h-243v1462h546zM913 797q99 57 99 199q0 141 -67.5 201t-246.5 60h-299v-505h149q150 0 175 2l-113 178l156 98z" />
    <glyph glyph-name="uni048F" unicode="&#x48f;" horiz-adv-x="1247" 
d="M358 504q0 -346 279 -346h21q22 0 36 4l-131 209l144 88l129 -205q72 100 72 290t-73 282t-202 92t-202 -90.5t-73 -258.5v-65zM362 -397h-233v1474h227v-149q12 14 38 45t100 83t204 52q235 0 344 -159.5t109 -407.5q0 -152 -48 -278t-145 -204l117 -182l-143 -88
l-123 195q-194 -51 -299 15t-148 122v-518z" />
    <glyph glyph-name="afii10050" unicode="&#x490;" horiz-adv-x="1085" 
d="M156 1462h694v203h219v-418h-666v-1247h-247v1462z" />
    <glyph glyph-name="afii10098" unicode="&#x491;" horiz-adv-x="892" 
d="M866 881h-504v-881h-233v1077h537v164h200v-360z" />
    <glyph glyph-name="uni0492" unicode="&#x492;" horiz-adv-x="1138" 
d="M211 637h-191v203h191v622h911v-215h-665v-407h409v-203h-409v-637h-246v637z" />
    <glyph glyph-name="uni0493" unicode="&#x493;" horiz-adv-x="921" 
d="M895 1077v-196h-504v-281h314v-176h-314v-424h-233v424h-146v176h146v477h737z" />
    <glyph glyph-name="uni0494" unicode="&#x494;" horiz-adv-x="1351" 
d="M704 905q307 0 441.5 -166.5t134.5 -445.5q0 -435 -234.5 -528t-400.5 -93h-88v211h105q174 0 270 99.5t96 304.5t-83 310t-277 105q-135 0 -267 -49v-653h-245v1462h909v-215h-664v-393q136 51 303 51z" />
    <glyph glyph-name="uni0495" unicode="&#x495;" horiz-adv-x="1132" 
d="M555 440q-97 0 -193 -37v-403h-233v1077h782v-196h-549v-287q107 35 238 35q469 0 469 -512q0 -364 -201.5 -447.5t-349.5 -83.5h-69v189h67q222 0 267.5 122.5t45.5 215.5q0 176 -64.5 251.5t-209.5 75.5z" />
    <glyph glyph-name="uni0496" unicode="&#x496;" horiz-adv-x="2129" 
d="M1939 1253q-40 0 -84.5 -24.5t-78.5 -100.5q-85 -187 -130 -256.5t-126 -105.5q61 -25 105 -76t104 -137l223 -338h135v-569h-217v354h-64l-333 508q-49 76 -96 106.5t-130 30.5h-69v-645h-246v645h-84q-66 0 -116 -27.5t-101 -105.5l-336 -512h-277l398 600
q45 70 85 109t91 57q-118 45 -180 188l-76 172q-37 80 -76 103.5t-81 23.5t-83 -8l-28 199q70 18 133 18q121 0 188.5 -36.5t118.5 -143.5l106 -231q51 -111 116 -157t153 -46h49v614h246v-614h47q88 0 153.5 46t118.5 157l94 200q57 121 135 166t173 45t151 -18l-31 -199
q-40 8 -80 8z" />
    <glyph glyph-name="uni0497" unicode="&#x497;" horiz-adv-x="1652" 
d="M1506 897q-50 0 -73.5 -23.5t-50.5 -80.5l-43 -97q-52 -111 -137 -141q89 -30 176 -158l133 -202h117v-482h-201v287h-43l-210 326q-55 84 -88 109.5t-93 25.5h-57v-461h-219v461h-60q-70 0 -104.5 -33t-73.5 -92l-215 -336h-250l260 395q80 126 179 158q-94 28 -144 143
l-53 117q-23 47 -45.5 65.5t-68.5 18.5t-66 -8l-23 174q27 4 51.5 9t76.5 5q110 0 173 -63t116 -191q54 -128 98 -164t110 -36h39v454h219v-454h37q68 0 109 35.5t78 125.5q74 175 137.5 234t191.5 59q50 0 106 -14l-20 -174q-19 8 -69 8z" />
    <glyph glyph-name="uni0498" unicode="&#x498;" horiz-adv-x="1294" 
d="M616 -328q109 0 109 68q0 35 -28.5 50t-104.5 15h-62l60 160q-258 11 -386 133t-132 324h235q16 -137 93 -197.5t245 -60.5q315 0 316 250q0 133 -92.5 187t-260.5 54h-149v201h186q135 0 212 59.5t77 171.5q0 211 -285 211q-152 0 -224.5 -56t-100.5 -169l-226 31
q33 184 168 289.5t388 105.5t384 -108t131 -277q0 -237 -202 -340q123 -47 179 -142t56 -212q0 -186 -115.5 -308t-351.5 -145l-28 -76q194 -20 194 -170q0 -98 -76.5 -136t-175.5 -38t-172 11v127q76 -13 139 -13z" />
    <glyph glyph-name="uni0499" unicode="&#x499;" horiz-adv-x="1105" 
d="M502 -309q102 0 102 63q0 35 -32.5 48.5t-120.5 13.5h-33l59 155q-401 25 -418 363h224q14 -98 77.5 -138t193.5 -40t180 43t50 114q0 156 -202 156h-220v162h228q86 0 129 38.5t43 106.5t-53 108t-139 40q-148 0 -202 -41t-79 -127l-213 39q72 313 473 313
q227 0 335.5 -85t108.5 -214q0 -86 -48 -150.5t-122 -91.5q82 -25 140.5 -86t58.5 -186t-99.5 -215t-308.5 -107l-24 -71q184 -20 184 -168q0 -94 -75.5 -131t-169.5 -37t-162 10v125q78 -10 135 -10z" />
    <glyph glyph-name="uni049A" unicode="&#x49a;" horiz-adv-x="1384" 
d="M1192 1253q-42 0 -84.5 -24.5t-81.5 -108.5l-78 -164q-63 -136 -176 -190q43 -16 86 -56t103 -130l243 -365h137v-569h-219v354h-63l-301 455q-37 55 -62.5 92t-64 67.5t-133.5 30.5h-97v-645h-245v1462h245v-612h76q88 0 152.5 45t118.5 156l104 213q53 111 129 154.5
t171 43.5t151 -18l-29 -199q-41 8 -82 8z" />
    <glyph glyph-name="uni049B" unicode="&#x49b;" horiz-adv-x="1101" 
d="M971 897q-47 0 -72 -19.5t-47 -68.5l-51 -113q-23 -53 -53.5 -88t-83.5 -57q47 -18 82.5 -52t76.5 -98l135 -206h119v-482h-200v287h-52l-209 322q-53 81 -86.5 110t-95.5 29h-72v-461h-233v1077h233v-454h60q78 0 117 42.5t73 122.5q73 171 140.5 230t195.5 59
q57 0 111 -14l-21 -174q-20 8 -67 8z" />
    <glyph glyph-name="uni049C" unicode="&#x49c;" horiz-adv-x="1419" 
d="M1256 1253q-41 0 -82 -24.5t-80 -108.5l-76 -164q-62 -135 -178 -190q59 -23 106 -76t101 -135l364 -555h-289l-336 512q-59 87 -108 106v-233h-166v264h-113v-649h-243v1462h243v-618h113v278h166v-243q84 43 143 172l92 200q55 121 132 166t173 45t148 -18l-29 -199
q-40 8 -81 8z" />
    <glyph glyph-name="uni049D" unicode="&#x49d;" horiz-adv-x="1159" 
d="M588 246h-139v219h-87v-465h-233v1077h233v-456h87v225h139v-199q55 30 95 128q74 181 139.5 241.5t199.5 60.5q53 0 104 -14l-20 -174q-20 8 -66 8t-72 -19.5t-48 -68.5l-50 -113q-25 -53 -55.5 -88t-83.5 -57q91 -40 166 -156l256 -395h-256q-37 55 -137 223.5
t-172 216.5v-194z" />
    <glyph glyph-name="uni049E" unicode="&#x49e;" horiz-adv-x="1400" 
d="M1236 1253q-44 0 -85 -27.5t-78 -105.5l-78 -164q-67 -138 -178 -190q84 -30 152 -133l424 -633h-289l-336 512q-49 77 -93.5 105t-129.5 28h-107v-645h-245v1067h-166v199h166v196h245v-196h211v-199h-211v-217h86q88 0 152.5 45t118.5 156l98 200q47 100 119.5 155.5
t175.5 55.5t162 -18l-29 -199q-40 8 -85 8z" />
    <glyph glyph-name="uni049F" unicode="&#x49f;" horiz-adv-x="1155" 
d="M498 461h-82v-461h-232v772h-155v172h155v133h232v-133h164v-172h-164v-149h69q70 0 110 35t79 125q77 179 143.5 236.5t200.5 57.5q53 0 104 -14l-20 -174q-20 8 -70 8t-73 -22.5t-50 -79.5l-45 -99q-25 -53 -54.5 -88t-82.5 -57q84 -33 152 -137l270 -414h-260
l-223 344q-39 59 -72 88t-96 29z" />
    <glyph glyph-name="uni04A0" unicode="&#x4a0;" horiz-adv-x="1546" 
d="M1383 1253q-41 0 -83.5 -24.5t-80.5 -108.5l-78 -164q-62 -135 -178 -190q57 -23 98 -65t94 -123l383 -578h-289l-336 512q-50 79 -95 106t-130 27h-96v-645h-246v1247h-311v215h557v-612h76q88 0 153.5 45t118.5 156l94 194q57 123 135 170t173 47t151 -18l-29 -199
q-40 8 -81 8z" />
    <glyph glyph-name="uni04A1" unicode="&#x4a1;" horiz-adv-x="1200" 
d="M471 461v-461h-233v883h-232v194h465v-454h59q70 0 111 35.5t79 123.5q75 175 140 235t205 60q51 0 102 -14l-20 -174q-25 8 -69 8t-69.5 -19.5t-47.5 -68.5l-52 -113q-25 -53 -53.5 -88t-83.5 -57q47 -20 82 -52t78 -98l262 -401h-260l-223 344q-41 64 -75 90.5
t-93 26.5h-72z" />
    <glyph glyph-name="uni04A2" unicode="&#x4a2;" horiz-adv-x="1507" 
d="M1464 215v-569h-219v354h-184v641h-658v-641h-247v1462h247v-592h658v592h248v-1247h155z" />
    <glyph glyph-name="uni04A3" unicode="&#x4a3;" horiz-adv-x="1243" 
d="M362 1077v-422h494v422h231v-882h130v-482h-201v287h-160v461h-494v-461h-233v1077h233z" />
    <glyph glyph-name="uni04A4" unicode="&#x4a4;" horiz-adv-x="1652" 
d="M403 1462v-592h658v592h557v-215h-309v-1247h-248v641h-658v-641h-247v1462h247z" />
    <glyph glyph-name="uni04A5" unicode="&#x4a5;" horiz-adv-x="1327" 
d="M1087 0h-233v461h-492v-461h-233v1077h233v-422h492v422h467v-194h-234v-883z" />
    <glyph glyph-name="uni04A6" unicode="&#x4a6;" horiz-adv-x="2201" 
d="M1518 702q-133 0 -265 -49v-653h-247v1247h-603v-1247h-247v1462h1097v-608q131 51 299 51q309 0 443.5 -166.5t134.5 -445.5q0 -435 -234.5 -528t-398.5 -93h-88v211h102q174 0 270.5 99.5t96.5 304.5t-83 310t-277 105z" />
    <glyph glyph-name="uni04A7" unicode="&#x4a7;" horiz-adv-x="1814" 
d="M1235 440q-99 0 -193 -37v-403h-231v881h-449v-881h-233v1077h913v-483q112 35 240 35q469 0 469 -512q0 -364 -202.5 -447.5t-350.5 -83.5h-70v189h70q222 0 267.5 122.5t45.5 215.5q0 176 -65.5 251.5t-210.5 75.5z" />
    <glyph glyph-name="uni04A8" unicode="&#x4a8;" horiz-adv-x="1710" 
d="M1354 643q0 297 -189 297q-94 0 -146 -79t-52 -220q0 -305 180 -418q103 58 155 171t52 249zM106 730q0 377 191.5 573t482.5 196q186 0 320 -65l-70 -189q-129 51 -234 51q-201 0 -320.5 -142.5t-119.5 -399.5q0 -313 127.5 -452.5t331.5 -139.5q69 0 115 12
q-191 187 -191 461q0 217 109 354t315 137q205 0 312.5 -130t107.5 -341q0 -141 -60.5 -267t-162.5 -222q54 -8 121 -8t147 24l35 -186q-95 -33 -243 -33q-149 0 -296 57q-139 -57 -300 -57q-334 0 -526 195t-192 572z" />
    <glyph glyph-name="uni04A9" unicode="&#x4a9;" horiz-adv-x="1306" 
d="M879 657q-127 0 -127 -198q0 -78 28.5 -152t87.5 -117q59 41 96 112t37 167q0 188 -122 188zM614 928q-131 0 -213 -93t-82 -303t85 -304.5t225 -94.5h25q26 0 42 4q-72 76 -99.5 155t-27.5 173q0 164 85.5 256t221.5 92t222 -86t86 -244q0 -205 -160 -352q20 -4 83 -4
t124 29l43 -152q-90 -41 -217 -41t-223 47q-101 -43 -218 -43q-246 0 -383 144.5t-137 419t140.5 426t388.5 151.5q116 0 221 -47l-58 -166q-79 33 -174 33z" />
    <glyph glyph-name="uni04AA" unicode="&#x4aa;" horiz-adv-x="1458" 
d="M801 -260q0 62 -129 61h-60l62 168q-269 28 -419 230q-149 202 -149 545t183 549t483 206q389 0 521 -289q42 -90 63 -200l-244 -35q-33 155 -112 234q-78 79 -228 77q-194 0 -302 -150q-107 -150 -106 -406t109 -405t299 -149q239 0 312 185q24 58 34 133h262
q-25 -226 -168 -372t-397 -157l-27 -74q161 -16 189 -111q8 -28 8 -59q0 -178 -285 -178q-70 0 -141 11v137q60 -10 151 -12q91 -1 91 61z" />
    <glyph glyph-name="uni04AB" unicode="&#x4ab;" horiz-adv-x="1155" 
d="M530 -309q104 0 105 63q0 33 -28.5 47.5t-102.5 14.5h-58l60 159q-209 29 -309.5 178.5t-100.5 394.5t139.5 402.5t378.5 157.5q195 0 304 -94.5t137 -268.5l-232 -36q-16 92 -61.5 151.5t-137.5 59.5t-189 -59t-97 -325t95 -323t189 -57q184 0 214 217h235
q-23 -180 -126 -286.5t-304 -117.5l-23 -67q111 -16 148 -61.5t37 -104.5q0 -94 -74 -132t-168 -38t-166 10v125q78 -10 135 -10z" />
    <glyph glyph-name="uni04AC" unicode="&#x4ac;" horiz-adv-x="1249" 
d="M502 0v1247h-463v215h1171v-215h-460v-1032h155v-569h-219v354h-184z" />
    <glyph glyph-name="uni04AD" unicode="&#x4ad;" horiz-adv-x="1005" 
d="M389 0v883h-362v194h950v-194h-356v-688h129v-482h-201v287h-160z" />
    <glyph glyph-name="uni04AE" unicode="&#x4ae;" horiz-adv-x="1300" 
d="M778 0h-246v608l-507 854h276l352 -635l361 635h262l-498 -854v-608z" />
    <glyph glyph-name="uni04AF" unicode="&#x4af;" horiz-adv-x="1116" 
d="M678 -397h-232v450l-434 1024h269l288 -780l277 780h258l-426 -1022v-452z" />
    <glyph glyph-name="uni04B0" unicode="&#x4b0;" horiz-adv-x="1300" 
d="M1077 440h-299v-440h-246v440h-303v203h281l-485 819h276l352 -635l361 635h262l-477 -819h278v-203z" />
    <glyph glyph-name="uni04B1" unicode="&#x4b1;" horiz-adv-x="1116" 
d="M199 188h190l-377 889h269l284 -788l281 788h258l-369 -889h189v-188h-246v-397h-232v397h-247v188z" />
    <glyph glyph-name="uni04B2" unicode="&#x4b2;" horiz-adv-x="1355" 
d="M1321 213v-545h-215v332h-53l-389 578l-377 -578h-269l512 772l-475 690h283l336 -512l340 512h266l-471 -700l381 -549h131z" />
    <glyph glyph-name="uni04B3" unicode="&#x4b3;" horiz-adv-x="1081" 
d="M1047 195v-482h-201v287h-58l-253 391l-261 -391h-254l390 555l-359 522h273l223 -350l239 350h246l-354 -512l252 -370h117z" />
    <glyph glyph-name="uni04B4" unicode="&#x4b4;" horiz-adv-x="1687" 
d="M389 0v1247h-356v215h997v-215h-393v-1032h604v1247h248v-1247h156v-569h-220v354h-1036z" />
    <glyph glyph-name="uni04B5" unicode="&#x4b5;" horiz-adv-x="1298" 
d="M238 0v883h-211v194h696v-194h-252v-688h438v882h234v-882h129v-482h-201v287h-833z" />
    <glyph glyph-name="uni04B6" unicode="&#x4b6;" horiz-adv-x="1390" 
d="M606 555q-356 0 -430 163t-74 290v454h246v-385q0 -173 68.5 -248t238.5 -75t291 55v653h246v-1247h156v-569h-218v354h-184v621q-159 -66 -340 -66z" />
    <glyph glyph-name="uni04B7" unicode="&#x4b7;" horiz-adv-x="1136" 
d="M547 573q117 0 203 31v473h231v-882h129v-482h-201v287h-159v416q-108 -31 -236 -31q-432 0 -432 383v309h231v-258q0 -137 58.5 -191.5t175.5 -54.5z" />
    <glyph glyph-name="uni04B8" unicode="&#x4b8;" horiz-adv-x="1376" 
d="M756 307h-201v254q-319 20 -386 177t-67 274v450h246v-389q0 -139 43 -216t164 -97v272h201v-278q140 14 219 51v657h246v-1462h-246v625q-88 -39 -219 -54v-264z" />
    <glyph glyph-name="uni04B9" unicode="&#x4b9;" horiz-adv-x="1138" 
d="M637 184h-176v209q-379 22 -379 383v301h233v-264q0 -109 33 -164t113 -74v213h176v-219q84 10 139 31v477h234v-1077h-234v424q-74 -20 -139 -27v-213z" />
    <glyph glyph-name="uni04BA" unicode="&#x4ba;" horiz-adv-x="1347" 
d="M702 932q293 0 418 -114t125 -345v-473h-246v410q0 173 -67.5 248t-234.5 75t-296 -55v-678h-245v1462h245v-590q143 60 301 60z" />
    <glyph glyph-name="uni04BB" unicode="&#x4bb;" horiz-adv-x="1189" 
d="M711 1104q356 0 356 -391v-713h-233v676q0 129 -47.5 180t-139.5 51q-110 0 -167.5 -52t-85 -107t-27.5 -168v-580h-234v1462h234v-538q133 180 344 180z" />
    <glyph glyph-name="uni04BC" unicode="&#x4bc;" horiz-adv-x="1828" 
d="M1063 1294q-186 0 -288.5 -120.5t-123.5 -337.5h797q-7 327 -145 392.5t-240 65.5zM225 980q0 -60 39 -100t137 -44q29 292 204 477.5t478 185.5q302 0 458.5 -200.5t156.5 -532.5v-123h-1053q8 -201 119 -336t311 -135q252 0 299 103.5t58 148.5h249
q-33 -212 -191.5 -336.5t-426.5 -124.5q-314 0 -480.5 190t-185.5 488q-195 0 -284.5 87t-89.5 215t69 241l174 -54q-41 -90 -41 -150z" />
    <glyph glyph-name="uni04BD" unicode="&#x4bd;" horiz-adv-x="1396" 
d="M1077 643q0 131 -61.5 210t-192.5 79t-200.5 -80t-79.5 -209h534zM825 150q204 0 238 165h227q-29 -166 -144.5 -257t-342.5 -91t-355 140t-141 374q-147 4 -222 76t-75 168t41 184l154 -37q-23 -55 -23 -135t129 -94q27 221 170 343t360 122t340.5 -140.5t123.5 -383.5
v-103h-766q7 -235 112 -283t174 -48z" />
    <glyph glyph-name="uni04BE" unicode="&#x4be;" horiz-adv-x="1828" 
d="M1063 1294q-186 0 -288.5 -120.5t-123.5 -337.5h797q-7 327 -145 392.5t-240 65.5zM225 980q0 -60 39 -100t137 -44q29 292 204 477.5t478 185.5q302 0 458.5 -200.5t156.5 -532.5v-123h-1053q8 -201 119 -336t311 -135q252 0 299 103.5t58 148.5h249
q-31 -184 -155.5 -306t-345.5 -147v-325h-219v323q-265 31 -408.5 218t-155.5 454q-195 0 -284.5 87t-89.5 215t69 241l174 -54q-41 -90 -41 -150z" />
    <glyph glyph-name="uni04BF" unicode="&#x4bf;" horiz-adv-x="1396" 
d="M1077 643q0 131 -61.5 210t-192.5 79t-200.5 -80t-79.5 -209h534zM930 -287h-201v260q-297 40 -356.5 223t-65.5 285q-147 4 -222 76t-75 168t41 184l154 -37q-23 -55 -23 -135t129 -94q27 221 170 343t360 122t340.5 -140.5t123.5 -383.5v-103h-766q7 -235 112 -283
t174 -48q204 0 238 165h227q-52 -300 -360 -340v-262z" />
    <glyph glyph-name="uni04C0" unicode="&#x4c0;" horiz-adv-x="557" 
d="M156 1462h247v-1462h-247v1462z" />
    <glyph glyph-name="uni04C1" unicode="&#x4c1;" horiz-adv-x="2111" 
d="M1939 1253q-40 0 -85 -24q-44 -25 -82 -109l-62 -135q-78 -168 -190 -219q57 -22 94 -60t84 -110l395 -596h-287l-333 508q-48 76 -97 106q-49 31 -129 31h-69v-645h-246v645h-84q-66 0 -116 -28t-101 -105l-336 -512h-277l398 600q45 70 85 109t91 57q-118 45 -180 188
l-76 172q-37 80 -76 104t-79 24t-85 -9l-28 199q70 18 156 18q87 0 161 -37t127 -151l102 -223q49 -111 115 -157t154 -46h49v614h246v-614h47q87 0 153 46t119 157l94 200q57 121 135 166t174 45t150 -18l-31 -199q-40 8 -80 8zM1393 1884q0 -143 -89 -223t-252 -80
t-247 80t-84 223h168q4 -78 48 -116t118 -37q156 0 166 153h172z" />
    <glyph glyph-name="uni04C2" unicode="&#x4c2;" horiz-adv-x="1650" 
d="M1506 897q-50 0 -74 -24t-50 -80l-43 -97q-52 -111 -137 -141q91 -31 178 -160l258 -395h-254l-223 344q-39 59 -71 88q-33 29 -97 29h-57v-461h-219v461h-60q-69 0 -105 -33t-79 -102l-209 -326h-250l273 414q74 110 166 139q-89 27 -144 143l-55 117q-23 47 -44 66
q-22 18 -68 18t-66 -8l-23 174q70 14 122 14q112 0 177 -61t119 -191q53 -131 97 -167t110 -35h39v454h219v-454h37q69 -1 109 35t94 164t99 174q44 45 87 61q95 35 233 6l-20 -174q-19 8 -69 8zM1165 1511q0 -143 -89 -223t-252 -80q-162 0 -246 80t-84 223h168
q8 -153 165 -153q158 0 166 153h172z" />
    <glyph glyph-name="uni04C3" unicode="&#x4c3;" horiz-adv-x="1374" 
d="M1182 1253q-42 0 -84.5 -24.5t-81.5 -108.5l-74 -162q-34 -83 -106 -133q240 -35 353.5 -183t113.5 -388q0 -407 -233.5 -494.5t-395.5 -87.5h-94v215h90q186 0 283.5 86t97.5 284t-99.5 294t-316.5 96h-234v-647h-245v1462h245v-614h76q86 0 148.5 46t113.5 157l86 180
q61 133 142.5 182t191.5 49q56 0 133 -18l-28 -199q-41 8 -82 8z" />
    <glyph glyph-name="uni04C4" unicode="&#x4c4;" horiz-adv-x="1140" 
d="M522 -225q318 0 318 352q0 182 -85 257t-247 75h-146v-459h-233v1077h233v-452h74q97 7 156 137l59 131q45 98 114 141t177 43q50 0 72 -6t37 -8l-21 -174q-40 8 -78 8q-74 0 -114 -90l-52 -111q-31 -63 -79 -94q174 -29 273 -141.5t99 -329.5q0 -391 -205.5 -468
t-355.5 -77h-65v189h69z" />
    <glyph glyph-name="uni04C5" unicode="&#x4c5;" horiz-adv-x="1558" 
d="M1114 0v1253h-397l-60 -485q-54 -410 -181.5 -596t-395.5 -186h-57v213h30q162 0 248 152.5t129 527.5l70 583h862v-1247h154q0 -177 -40 -278t-97.5 -176.5t-151.5 -145.5l-142 143q146 117 191 242h-162z" />
    <glyph glyph-name="uni04C6" unicode="&#x4c6;" horiz-adv-x="1216" 
d="M834 883h-302l-36 -326q-35 -303 -140.5 -435t-308.5 -132h-47v192h23q105 0 163.5 92t85.5 338l54 465h741v-882h125q0 -170 -35 -251t-83 -139.5t-128 -115.5l-125 131q105 81 148 180h-135v883z" />
    <glyph glyph-name="uni04C7" unicode="&#x4c7;" horiz-adv-x="1464" 
d="M923 -215q62 0 100 32.5t38 125.5v698h-658v-641h-247v1462h247v-592h658v592h248v-1501q-4 -191 -80 -285t-281 -94q-96 0 -203 33l39 190q77 -20 139 -20z" />
    <glyph glyph-name="uni04C8" unicode="&#x4c8;" horiz-adv-x="1216" 
d="M728 -227q63 0 94.5 32.5t31.5 118.5v537h-492v-461h-233v1077h233v-422h492v422h233v-1126q0 -180 -72.5 -275.5t-246.5 -95.5q-104 0 -209 33l37 178q69 -18 132 -18z" />
    <glyph glyph-name="uni04C9" unicode="&#x4c9;" horiz-adv-x="1505" 
d="M403 1462v-592h658v592h248v-1247h153q0 -180 -40 -279.5t-97 -175t-151 -145.5l-142 143q146 117 191 242h-162v641h-658v-641h-247v1462h247z" />
    <glyph glyph-name="uni04CA" unicode="&#x4ca;" horiz-adv-x="1239" 
d="M362 1077v-422h494v422h231v-882h125q0 -169 -34.5 -250.5t-82.5 -140t-128 -115.5l-123 131q104 80 145 180h-133v461h-494v-461h-233v1077h233z" />
    <glyph glyph-name="uni04CB" unicode="&#x4cb;" horiz-adv-x="1347" 
d="M695 754q124 0 251 53v655h246v-1462h-182v-354h-219v569h155v401q-141 -61 -325 -61q-519 0 -519 459v448h246v-385q0 -173 51.5 -229.5t111.5 -75t184 -18.5z" />
    <glyph glyph-name="uni04CC" unicode="&#x4cc;" horiz-adv-x="1110" 
d="M554 573q124 0 196 31v473h231v-1077h-160v-287h-200v482h129v221q-108 -31 -236 -31q-432 0 -432 383v309h231v-260q0 -135 58.5 -189.5t182.5 -54.5z" />
    <glyph glyph-name="uni04CD" unicode="&#x4cd;" horiz-adv-x="1787" 
d="M156 1462h301l415 -1163l428 1163h291v-1247h154q0 -175 -39 -277t-96.5 -177.5t-151.5 -145.5l-143 143q147 117 190 242h-141v1063l-401 -1063h-197l-387 1061v-1061h-223v1462z" />
    <glyph glyph-name="uni04CE" unicode="&#x4ce;" horiz-adv-x="1482" 
d="M131 1077h262l342 -833l350 833h246v-882h125q0 -170 -35 -251t-83 -139.5t-128 -115.5l-123 131q102 79 146 180h-113v713l-307 -713h-176l-295 713v-713h-211v1077z" />
    <glyph glyph-name="uni04CF" unicode="&#x4cf;" horiz-adv-x="557" 
d="M156 1462h247v-1462h-247v1462z" />
    <glyph glyph-name="uni04D0" unicode="&#x4d0;" horiz-adv-x="1404" 
d="M913 580l-217 602l-215 -602h432zM580 1462h245l557 -1462h-264l-137 373h-567l-135 -373h-256zM1032 1884q0 -143 -89 -223t-252 -80t-247 80t-84 223h168q4 -78 48 -116t118 -37q158 0 166 153h172z" />
    <glyph glyph-name="uni04D1" unicode="&#x4d1;" horiz-adv-x="1126" 
d="M774 715q0 117 -55 166t-159 49q-194 0 -226 -144l-213 23q29 155 141 227t309 72q336 0 408 -244q23 -78 22 -174v-690h-223v139q-138 -164 -354 -166q-249 0 -331 181q-27 62 -27 158t48 164t126 108q121 60 376 78l158 8v45zM299 292q0 -56 43 -96q43 -42 131 -42
q139 0 220 68t81 198v92l-149 -6q-271 -12 -313 -124q-13 -34 -13 -90zM903 1511q0 -143 -89 -223t-252 -80t-247 80t-84 223h168q8 -153 166 -153t166 153h172z" />
    <glyph glyph-name="uni04D2" unicode="&#x4d2;" horiz-adv-x="1404" 
d="M913 580l-217 602l-215 -602h432zM580 1462h245l557 -1462h-264l-137 373h-567l-135 -373h-256zM612 1847v-237h-229v237h229zM1010 1847v-237h-230v237h230z" />
    <glyph glyph-name="uni04D3" unicode="&#x4d3;" horiz-adv-x="1126" 
d="M774 715q0 117 -55 166t-159 49q-194 0 -226 -144l-213 23q29 155 141 227t309 72q336 0 408 -244q23 -78 22 -174v-690h-223v139q-138 -164 -354 -166q-249 0 -331 181q-27 62 -27 158t48 164t126 108q121 60 376 78l158 8v45zM299 292q0 -56 43 -96q43 -42 131 -42
q139 0 220 68t81 198v92l-149 -6q-271 -12 -313 -124q-13 -34 -13 -90zM479 1483v-230h-223v230h223zM866 1483v-230h-223v230h223z" />
    <glyph glyph-name="uni04D4" unicode="&#x4d4;" horiz-adv-x="2127" 
d="M1112 670v579h-121l-332 -579h453zM2032 1462v-213h-680v-389h639v-215h-639v-432h719l-29 -213h-930v461h-573l-263 -461h-278l870 1462h1164z" />
    <glyph glyph-name="uni04D5" unicode="&#x4d5;" horiz-adv-x="1832" 
d="M557 930q-190 0 -223 -144l-213 21q29 158 140.5 228.5t303.5 70.5q129 0 211 -41t133 -137q131 178 361 178t349.5 -141t119.5 -385v-103h-752q4 -145 73.5 -236t205.5 -91q195 0 233 165h225q-61 -348 -458 -348q-135 0 -241.5 54.5t-166.5 164.5q-140 -213 -412 -213
q-271 0 -325.5 119.5t-54.5 215.5t47 164.5t147 121.5t344 63l158 7v47q0 123 -53.5 171t-151.5 48zM299 288q0 -56 42 -95t128 -39q135 0 214 70.5t79 193.5v88l-150 -6q-263 -11 -288 -83.5t-25 -128.5zM1511 639q0 291 -249 291q-123 0 -192 -78t-79 -213h520z" />
    <glyph glyph-name="uni04D6" unicode="&#x4d6;" horiz-adv-x="1226" 
d="M156 1462h972v-213h-725v-389h684v-215h-684v-432h764l-28 -213h-983v1462zM997 1884q0 -143 -89 -223t-252 -80q-162 0 -246 80t-84 223h168q4 -78 48 -116t117 -37q158 0 166 153h172z" />
    <glyph glyph-name="uni04D7" unicode="&#x4d7;" horiz-adv-x="1187" 
d="M866 643q0 289 -258 289q-128 0 -196 -79t-78 -210h532zM228 118q-132 151 -132 418t142 419q142 153 378 153q235 0 356 -142q122 -142 122 -380v-103h-764q6 -237 162 -309q53 -24 143 -24t145 44t74 121h225q-61 -348 -465 -348q-254 0 -386 151zM952 1511
q0 -143 -89 -223t-252 -80t-247 80t-83 223h168q8 -153 165 -153q158 0 166 153h172z" />
    <glyph glyph-name="uni04D8" unicode="&#x4d8;" horiz-adv-x="1529" 
d="M754 168q186 0 285.5 121t119.5 338h-799q7 -322 149 -390.5t245 -68.5zM768 1499q324 0 484.5 -211t160.5 -543t-170 -557t-492 -225t-480 201t-158 532v123h1052q-13 334 -163 402.5t-239 68.5q-162 0 -251.5 -63t-144.5 -195l-234 41q137 426 635 426z" />
    <glyph glyph-name="uni04D9" unicode="&#x4d9;" horiz-adv-x="1193" 
d="M328 432q0 -131 61.5 -210t195.5 -79t200.5 80t76.5 209h-534zM598 1104q242 0 371 -153t129 -417q0 -265 -135.5 -415t-373.5 -150t-363.5 140t-125.5 387v98h766q-6 228 -104 278t-166 50q-217 0 -262 -183l-217 33q33 158 158.5 245t322.5 87z" />
    <glyph glyph-name="uni04DA" unicode="&#x4da;" horiz-adv-x="1529" 
d="M754 168q186 0 285 121t120 338h-799q7 -322 219 -424q73 -35 175 -35zM768 1499q325 0 494 -223q151 -197 151 -530q0 -332 -169 -556q-169 -225 -493 -226t-488 210q-150 191 -150 522v123h1052q-13 333 -239 437q-74 34 -163 34q-165 0 -253 -63t-143 -195l-234 41
q137 426 635 426zM680 1847v-237h-229v237h229zM1077 1847v-237h-229v237h229z" />
    <glyph glyph-name="uni04DB" unicode="&#x4db;" horiz-adv-x="1193" 
d="M328 432q0 -131 61 -210t195 -79t202 80q66 80 76 209h-534zM598 1104q241 0 371 -153q129 -153 129 -418q0 -264 -135 -414t-373 -150t-364 141t-126 386v98h766q-6 228 -153 303q-49 25 -117 25q-217 0 -262 -183l-217 33q33 158 158 245q126 87 323 87zM516 1483v-230
h-223v230h223zM903 1483v-230h-223v230h223z" />
    <glyph glyph-name="uni04DC" unicode="&#x4dc;" horiz-adv-x="2111" 
d="M1939 1253q-40 0 -85 -24q-44 -25 -82 -109l-62 -135q-78 -168 -190 -219q57 -22 94 -60t84 -110l395 -596h-287l-333 508q-48 76 -97 106q-49 31 -129 31h-69v-645h-246v645h-84q-66 0 -116 -28t-101 -105l-336 -512h-277l398 600q45 70 85 109t91 57q-118 45 -180 188
l-76 172q-37 80 -76 104t-79 24t-85 -9l-28 199q70 18 156 18q87 0 161 -37t127 -151l102 -223q49 -111 115 -157t154 -46h49v614h246v-614h47q87 0 153 46t119 157l94 200q57 121 135 166t174 45t150 -18l-31 -199q-40 8 -80 8zM965 1847v-237h-230v237h230zM1362 1847
v-237h-229v237h229z" />
    <glyph glyph-name="uni04DD" unicode="&#x4dd;" horiz-adv-x="1650" 
d="M1506 897q-50 0 -74 -24t-50 -80l-43 -97q-52 -111 -137 -141q91 -31 178 -160l258 -395h-254l-223 344q-39 59 -71 88q-33 29 -97 29h-57v-461h-219v461h-60q-69 0 -105 -33t-79 -102l-209 -326h-250l273 414q74 110 166 139q-89 27 -144 143l-55 117q-23 47 -44 66
q-22 18 -68 18t-66 -8l-23 174q70 14 122 14q112 0 177 -61t119 -191q53 -131 97 -167t110 -35h39v454h219v-454h37q69 -1 109 35t94 164t99 174q44 45 87 61q95 35 233 6l-20 -174q-19 8 -69 8zM739 1483v-230h-223v230h223zM1126 1483v-230h-223v230h223z" />
    <glyph glyph-name="uni04DE" unicode="&#x4de;" horiz-adv-x="1294" 
d="M1202 428q0 -328 -316 -431q-105 -34 -252 -34q-285 0 -422 124t-140 335h235q16 -138 93 -198t245 -60q315 0 316 250q0 242 -328 241h-174v201h186q135 0 212 59t77 172q0 211 -285 211q-153 0 -225 -56t-100 -169l-226 31q33 184 168 290t385 105q384 0 488 -230
q31 -71 30 -155q0 -237 -202 -340q123 -47 179 -142q56 -94 56 -204zM571 1847v-237h-229v237h229zM969 1847v-237h-230v237h230z" />
    <glyph glyph-name="uni04DF" unicode="&#x4df;" horiz-adv-x="1105" 
d="M549 1108q227 0 336 -85t108 -214q0 -86 -48 -151t-122 -91q83 -25 141 -86t58 -172q0 -151 -118 -245t-352 -94t-358 86q-124 87 -135 278h224q14 -98 77 -138q64 -40 194 -40t180 43t50 114q0 156 -202 156h-220v162h228q84 0 128 39q44 38 44 106t-52 108t-139 40
q-148 0 -202 -41t-80 -127l-213 39q72 313 473 313zM467 1483v-230h-223v230h223zM854 1483v-230h-223v230h223z" />
    <glyph glyph-name="uni04E0" unicode="&#x4e0;" horiz-adv-x="1226" 
d="M1145 426q0 -330 -201 -396.5t-345 -66.5q-271 0 -395.5 121t-140.5 338h236q16 -123 86 -187.5t225 -64.5q293 0 293 256q0 127 -77.5 192.5t-260.5 65.5h-166v166l385 399h-661v213h950v-186l-399 -412q471 -21 471 -438z" />
    <glyph glyph-name="uni04E1" unicode="&#x4e1;" horiz-adv-x="1042" 
d="M68 891v186h862v-149l-400 -447h9q211 0 329.5 -116.5t118.5 -328.5t-131 -333t-368.5 -121t-350 102.5t-131.5 278.5h225q14 -92 72.5 -145.5t184.5 -53.5t197 71t71 207t-79 201.5t-249 65.5h-137v166l364 416h-587z" />
    <glyph glyph-name="uni04E2" unicode="&#x4e2;" horiz-adv-x="1435" 
d="M1040 0v1063l-655 -1063h-229v1462h241v-1069l654 1069h229v-1462h-240zM1026 1812v-188h-616v188h616z" />
    <glyph glyph-name="uni04E3" unicode="&#x4e3;" horiz-adv-x="1173" 
d="M1044 0h-213v743l-495 -743h-207v1077h213v-745l496 745h206v-1077zM868 1446v-182h-565v182h565z" />
    <glyph glyph-name="uni04E4" unicode="&#x4e4;" horiz-adv-x="1435" 
d="M1040 0v1063l-655 -1063h-229v1462h241v-1069l654 1069h229v-1462h-240zM633 1847v-237h-230v237h230zM1030 1847v-237h-229v237h229z" />
    <glyph glyph-name="uni04E5" unicode="&#x4e5;" horiz-adv-x="1173" 
d="M1044 0h-213v743l-495 -743h-207v1077h213v-745l496 745h206v-1077zM506 1483v-230h-223v230h223zM893 1483v-230h-223v230h223z" />
    <glyph glyph-name="uni04E6" unicode="&#x4e6;" horiz-adv-x="1581" 
d="M790 176q212 0 320 148t109 407q0 258 -109 406q-109 149 -318 149q-208 0 -319 -146t-111 -407t108 -409t320 -148zM795 1499q315 0 496 -203q182 -203 183 -562t-181 -565t-499 -206t-501 202q-185 202 -186 562t186 566t502 206zM711 1847v-237h-230v237h230z
M1108 1847v-237h-229v237h229z" />
    <glyph glyph-name="uni04E7" unicode="&#x4e7;" horiz-adv-x="1247" 
d="M623 156q147 0 216 104t69 280q-1 378 -285 380q-147 0 -216 -102t-69 -277q0 -177 69 -281t216 -104zM233 119q-137 152 -137 417t145 419q145 153 387 153t382 -152q139 -152 139 -413q0 -262 -143 -419t-389 -157t-384 152zM541 1483v-230h-224v230h224zM928 1483
v-230h-223v230h223z" />
    <glyph glyph-name="uni04E8" unicode="&#x4e8;" horiz-adv-x="1581" 
d="M106 641q0 268 49.5 411.5t139.5 243t216 151.5t362 52t419 -205t183 -563t-182 -563t-498 -205q-317 0 -503 205t-186 473zM789 176q195 0 302 121t128 334h-857q18 -213 125 -334t302 -121zM788 1286q-190 0 -295.5 -117.5t-127.5 -322.5h852q-23 205 -131 322.5
t-298 117.5z" />
    <glyph glyph-name="uni04E9" unicode="&#x4e9;" horiz-adv-x="1247" 
d="M624 924q-130 0 -200 -78t-86 -211h571q-16 133 -85.5 211t-199.5 78zM336 457q35 -305 287 -305t286 305h-573zM233.5 118.5q-137.5 151.5 -137.5 417.5t144.5 419t387.5 153t382 -151.5t139 -414t-143 -419t-389 -156.5t-383.5 151.5z" />
    <glyph glyph-name="uni04EA" unicode="&#x4ea;" horiz-adv-x="1581" 
d="M795 1499q315 0 496 -203q182 -203 183 -562t-181 -565t-499 -206t-502 204q-184 204 -185 562t186 564t502 206zM789 176q195 0 303 121t127 334h-857q18 -213 125 -334t302 -121zM788 1286q-190 0 -295 -118t-128 -322h852q-23 204 -131 322t-298 118zM711 1847v-237
h-230v237h230zM1108 1847v-237h-229v237h229z" />
    <glyph glyph-name="uni04EB" unicode="&#x4eb;" horiz-adv-x="1247" 
d="M624 924q-130 0 -200 -78t-86 -211h571q-15 133 -85 211t-200 78zM336 457q35 -305 287 -305t286 305h-573zM233 119q-137 152 -137 417t145 419q145 153 387 153t382 -152q139 -152 139 -413q0 -262 -143 -419t-389 -157t-384 152zM541 1483v-230h-224v230h224z
M928 1483v-230h-223v230h223z" />
    <glyph glyph-name="uni04EC" unicode="&#x4ec;" horiz-adv-x="1454" 
d="M727 1499q273 0 446 -193t174 -565t-167 -575t-472 -203t-453 130q-148 130 -169 349h248q48 -263 354 -266q199 0 293 113t109 356h-605v213h602q-19 213 -120 322t-249 107q-148 -1 -212 -38t-103 -86t-63 -129l-240 37q121 428 627 428zM625 1847v-237h-230v237h230z
M1022 1847v-237h-229v237h229z" />
    <glyph glyph-name="uni04ED" unicode="&#x4ed;" horiz-adv-x="1167" 
d="M592 1108q219 0 349 -148t130 -414q0 -265 -134 -422q-136 -157 -361 -157q-224 0 -346 94t-142 273h223q15 -86 75 -134t186 -48q243 0 262 307h-435v168h430q-21 297 -262 297q-203 0 -252 -176l-213 34q33 143 152 234q119 92 338 92zM504 1483v-230h-223v230h223z
M891 1483v-230h-223v230h223z" />
    <glyph glyph-name="uni04EE" unicode="&#x4ee;" horiz-adv-x="1236" 
d="M254 160q84 0 146 42t108 144l33 72l-533 1044h275l376 -805l316 805h254l-484 -1118q-90 -205 -199 -293q-108 -88 -294 -88q-126 0 -201 39l49 188q70 -30 154 -30zM946 1812v-188h-616v188h616z" />
    <glyph glyph-name="uni04EF" unicode="&#x4ef;" horiz-adv-x="1116" 
d="M261 -207q60 0 96 31t67 110l39 101l-449 1042h271l293 -780l270 780h254l-449 -1143q-75 -186 -123 -237q-91 -96 -212 -95t-220 33l43 179q60 -21 120 -21zM858 1446v-182h-565v182h565z" />
    <glyph glyph-name="uni04F0" unicode="&#x4f0;" horiz-adv-x="1236" 
d="M254 160q84 0 146 42t108 144l33 72l-533 1044h275l376 -805l316 805h254l-484 -1118q-90 -205 -199 -293q-108 -88 -294 -88q-126 0 -201 39l49 188q70 -30 154 -30zM545 1847v-237h-230v237h230zM942 1847v-237h-229v237h229z" />
    <glyph glyph-name="uni04F1" unicode="&#x4f1;" horiz-adv-x="1116" 
d="M261 -207q60 0 96 31t67 110l39 101l-449 1042h271l293 -780l270 780h254l-449 -1143q-75 -186 -123 -237q-91 -96 -212 -95t-220 33l43 179q60 -21 120 -21zM487 1483v-230h-223v230h223zM874 1483v-230h-223v230h223z" />
    <glyph glyph-name="uni04F2" unicode="&#x4f2;" horiz-adv-x="1236" 
d="M254 160q84 0 146 42t108 144l33 72l-533 1044h275l376 -805l316 805h254l-484 -1118q-90 -205 -199 -293q-108 -88 -294 -88q-126 0 -201 39l49 188q70 -30 154 -30zM1176 1868l-295 -285h-207l239 285h263zM776 1868l-295 -285h-209l242 285h262z" />
    <glyph glyph-name="uni04F3" unicode="&#x4f3;" horiz-adv-x="1116" 
d="M261 -207q60 0 96 31t67 110l39 101l-449 1042h271l293 -780l270 780h254l-449 -1143q-75 -186 -123 -237q-91 -96 -212 -95t-220 33l43 179q60 -21 120 -21zM702 1518l-262 -304h-198l211 304h249zM1081 1518l-262 -304h-198l210 304h250z" />
    <glyph glyph-name="uni04F4" unicode="&#x4f4;" horiz-adv-x="1347" 
d="M606 555q-357 0 -465 240q-39 86 -39 213v454h246v-385q0 -171 67 -247q68 -76 239 -76t292 55v653h246v-1462h-246v621q-159 -66 -340 -66zM569 1847v-237h-229v237h229zM967 1847v-237h-230v237h230z" />
    <glyph glyph-name="uni04F5" unicode="&#x4f5;" horiz-adv-x="1110" 
d="M518 385q-441 0 -436 383v309h231v-258q1 -137 59 -191t174 -54t204 30v473h231v-1077h-231v416q-109 -31 -232 -31zM449 1483v-230h-224v230h224zM836 1483v-230h-224v230h224z" />
    <glyph glyph-name="uni04F6" unicode="&#x4f6;" horiz-adv-x="1085" 
d="M156 0v1462h913v-215h-666v-1032h154v-569h-217v354h-184z" />
    <glyph glyph-name="uni04F7" unicode="&#x4f7;" horiz-adv-x="882" 
d="M129 0v1077h737v-196h-504v-686h130v-482h-201v287h-162z" />
    <glyph glyph-name="uni04F8" unicode="&#x4f8;" horiz-adv-x="1832" 
d="M1432 1462h245v-1462h-245v1462zM401 205h244q180 -1 250 65t70 198t-74 198q-74 65 -250 65h-240v-526zM653 938q301 0 441 -142q118 -122 116 -325q0 -471 -569 -471h-485v1462h245v-524h252zM850 1847v-237h-229v237h229zM1247 1847v-237h-229v237h229z" />
    <glyph glyph-name="uni04F9" unicode="&#x4f9;" horiz-adv-x="1548" 
d="M362 190h261q186 0 186 162q0 78 -42 122t-151 44h-254v-328zM1186 1077h233v-1077h-233v1077zM362 1077v-370h285q198 0 300 -96t102 -255q-1 -160 -105 -258t-321 -98h-494v1077h233zM688 1483v-230h-223v230h223zM1075 1483v-230h-223v230h223z" />
    <glyph glyph-name="Wgrave" unicode="&#x1e80;" horiz-adv-x="1945" 
d="M301 1462l270 -1110l279 1102h264l283 -1100l262 1108h264l-403 -1462h-248l-297 1151l-293 -1151h-240l-419 1462h278zM1153 1583h-223l-305 285h278z" />
    <glyph glyph-name="wgrave" unicode="&#x1e81;" horiz-adv-x="1542" 
d="M268 1065l181 -778l225 770h213l217 -770l180 778h244l-311 -1065h-232l-215 774l-217 -774h-229l-310 1065h254zM684 1518l240 -304h-219l-293 304h272z" />
    <glyph glyph-name="Wacute" unicode="&#x1e82;" horiz-adv-x="1945" 
d="M301 1462l270 -1110l279 1102h264l283 -1100l262 1108h264l-403 -1462h-248l-297 1151l-293 -1151h-240l-419 1462h278zM1333 1868l-305 -285h-223l252 285h276z" />
    <glyph glyph-name="wacute" unicode="&#x1e83;" horiz-adv-x="1542" 
d="M268 1065l181 -778l225 770h213l217 -770l180 778h244l-311 -1065h-232l-215 774l-217 -774h-229l-310 1065h254zM1145 1518l-293 -304h-219l239 304h273z" />
    <glyph glyph-name="Wdieresis" unicode="&#x1e84;" horiz-adv-x="1945" 
d="M301 1462l270 -1110l279 1102h264l283 -1100l262 1108h264l-403 -1462h-248l-297 1151l-293 -1151h-240l-419 1462h278zM889 1847v-237h-230v237h230zM1286 1847v-237h-229v237h229z" />
    <glyph glyph-name="wdieresis" unicode="&#x1e85;" horiz-adv-x="1542" 
d="M268 1065l181 -778l225 770h213l217 -770l180 778h244l-311 -1065h-232l-215 774l-217 -774h-229l-310 1065h254zM688 1483v-230h-223v230h223zM1075 1483v-230h-223v230h223z" />
    <glyph glyph-name="Ygrave" unicode="&#x1ef2;" horiz-adv-x="1300" 
d="M778 0h-246v608l-507 854h276l352 -635l361 635h262l-498 -854v-608zM805 1583h-223l-306 285h279z" />
    <glyph glyph-name="ygrave" unicode="&#x1ef3;" horiz-adv-x="1116" 
d="M145 -188q51 -18 115 -18t98 29q35 30 66 111l39 103l-449 1028h271l293 -768l268 768h254l-424 -1075q-37 -94 -70 -166t-74 -121q-85 -102 -235 -100q-98 0 -195 30zM471 1518l240 -304h-219l-293 304h272z" />
    <glyph glyph-name="endash" unicode="&#x2013;" horiz-adv-x="1024" 
d="M1024 717v-223h-1024v223h1024z" />
    <glyph glyph-name="emdash" unicode="&#x2014;" horiz-adv-x="2048" 
d="M2048 717v-223h-2048v223h2048z" />
    <glyph glyph-name="afii00208" unicode="&#x2015;" horiz-adv-x="2048" 
d="M2048 717v-223h-2048v223h2048z" />
    <glyph glyph-name="quoteleft" unicode="&#x2018;" horiz-adv-x="458" 
d="M389 1462l-61 -481h-238l119 481h180z" />
    <glyph glyph-name="quoteright" unicode="&#x2019;" horiz-adv-x="458" 
d="M369 1462l-119 -481h-178l61 481h236z" />
    <glyph glyph-name="quotesinglbase" unicode="&#x201a;" horiz-adv-x="458" 
d="M373 287l-117 -482h-182l65 482h234z" />
    <glyph glyph-name="quotedblleft" unicode="&#x201c;" horiz-adv-x="794" 
d="M377 1462l-62 -481h-225l119 481h168zM725 1462l-61 -481h-226l119 481h168z" />
    <glyph glyph-name="quotedblright" unicode="&#x201d;" horiz-adv-x="794" 
d="M705 1462l-119 -481h-168l61 481h226zM358 1462l-118 -481h-168l61 481h225z" />
    <glyph glyph-name="quotedblbase" unicode="&#x201e;" horiz-adv-x="794" 
d="M707 285l-117 -482h-170l63 482h224zM360 285l-116 -482h-170l65 482h221z" />
    <glyph glyph-name="dagger" unicode="&#x2020;" horiz-adv-x="968" 
d="M35 872v205h334v385h231v-385h334v-205h-334v-1050h-231v1050h-334z" />
    <glyph glyph-name="daggerdbl" unicode="&#x2021;" horiz-adv-x="968" 
d="M35 217v207h334v463h-334v205h334v370h231v-370h334v-205h-334v-463h334v-207h-334v-395h-231v395h-334z" />
    <glyph glyph-name="bullet" unicode="&#x2022;" horiz-adv-x="780" 
d="M180.5 955.5q84.5 82.5 211.5 82.5t209.5 -84.5t82.5 -215.5t-86.5 -209t-210.5 -78t-207.5 80.5t-83.5 211.5q0 130 84.5 212.5z" />
    <glyph glyph-name="ellipsis" unicode="&#x2026;" horiz-adv-x="1875" 
d="M360 285v-285h-247v285h247zM1569 285v-285h-248v285h248zM1257 285v-285h-247v285h247z" />
    <glyph glyph-name="perthousand" unicode="&#x2030;" horiz-adv-x="2768" 
d="M166 670.5q-98 109.5 -98 330.5t101 335t265 114t266.5 -111t102.5 -337t-102.5 -333.5t-269.5 -107.5t-265 109.5zM434 1280q-168 0 -168 -276q0 -152 42 -213.5t126 -61.5t127 62.5t43 210.5t-43 213t-127 65zM494 0l714 1415h230l-717 -1415h-227zM1227.5 73.5
q-97.5 110.5 -97.5 328.5t101.5 333t265.5 115t266.5 -111.5t102.5 -336.5t-102.5 -332t-270.5 -107t-265.5 110.5zM1669 403q0 277 -172 277q-82 0 -125 -63.5t-43 -214.5t43 -211t126 -60t127 61.5t44 210.5zM2065.5 73.5q-97.5 110.5 -97.5 329.5t101.5 333t265.5 114
t266 -111.5t102 -336.5t-102 -332t-270 -107t-265.5 110.5zM2507 403q0 277 -172 277q-82 0 -125 -63.5t-43 -214.5t42 -211t126 -60t128 61.5t44 210.5z" />
    <glyph glyph-name="guilsinglleft" unicode="&#x2039;" horiz-adv-x="638" 
d="M352 985h236l-246 -455l246 -467h-240l-268 465z" />
    <glyph glyph-name="guilsinglright" unicode="&#x203a;" horiz-adv-x="638" 
d="M51 985h242l266 -463l-270 -459h-238l246 457z" />
    <glyph glyph-name="fraction" unicode="&#x2044;" horiz-adv-x="204" 
d="M-369 0l715 1415h227l-714 -1415h-228z" />
    <glyph glyph-name="zerosuperior" unicode="&#x2070;" horiz-adv-x="843" 
d="M152.5 670.5q-99.5 109.5 -99.5 328.5t102.5 335t266.5 116t266.5 -111t102.5 -337t-102.5 -333.5t-269.5 -107.5t-266.5 109.5zM422 1280q-170 0 -170 -276q0 -152 43 -213.5t127 -61.5t127 61.5t43 211.5t-43 214t-127 64z" />
    <glyph glyph-name="foursuperior" unicode="&#x2074;" horiz-adv-x="843" 
d="M649 1417v-504h107l-21 -141h-86v-178h-166v178h-401v113l405 532h162zM483 913v295l-223 -295h223z" />
    <glyph glyph-name="fivesuperior" unicode="&#x2075;" horiz-adv-x="843" 
d="M461.5 709q101.5 0 101.5 143t-137 143q-86 0 -143 -55h-138l41 477h486v-147h-340q-6 -47 -9.5 -91t-7.5 -89q49 26 93 28t52.5 3t18.5 -1q127 -4 189.5 -77t62.5 -204t-80 -204.5t-219 -73.5q-287 0 -305 262h160q10 -57 41.5 -85.5t133 -28.5z" />
    <glyph glyph-name="sixsuperior" unicode="&#x2076;" horiz-adv-x="843" 
d="M482 1118q128 0 195.5 -75.5t67.5 -200.5t-91 -203t-210 -78q-118 0 -232 65.5t-114 325.5t97 379t245 119t214.5 -61.5t84.5 -171.5l-161 -23q-19 113 -129 113q-161 0 -179 -252q84 63 212 63zM418 698q70 0 115 35t45 107q0 155 -142 155q-109 0 -134.5 -52
t-23.5 -101t36 -96.5t104 -47.5z" />
    <glyph glyph-name="sevensuperior" unicode="&#x2077;" horiz-adv-x="843" 
d="M104 1260v157h617v-133q-175 -303 -283 -690h-194q105 364 268 666h-408z" />
    <glyph glyph-name="eightsuperior" unicode="&#x2078;" horiz-adv-x="843" 
d="M123 1204q0 168 110.5 206t188.5 38q156 0 227.5 -69.5t71.5 -185.5t-107 -173q136 -74 136 -199t-83 -191.5t-249 -66.5t-245 69.5t-79 187.5t131 198q-102 64 -102 186zM283 1198q0 -117 133 -117t139 107q-1 127 -141 127q-66 0 -98.5 -35t-32.5 -82zM264 816
q0 -54 41 -86t119 -32q156 0 156 125q0 53 -39 85t-121 32t-119 -35t-37 -89z" />
    <glyph glyph-name="ninesuperior" unicode="&#x2079;" horiz-adv-x="843" 
d="M359 891q-131 0 -198 75.5t-67 195.5t84 204t250 84t238.5 -122.5t72.5 -276.5q0 -279 -91 -384.5t-238 -105.5q-148 0 -223.5 58.5t-86.5 187.5h166q8 -66 46 -85.5t104 -19.5t110.5 63.5t40.5 192.5q-77 -67 -208 -67zM260 1167q0 -151 143 -151q109 0 133.5 52
t23.5 99t-37.5 95.5t-106.5 48.5q-156 0 -156 -144z" />
    <glyph glyph-name="zeroinferior" unicode="&#x2080;" horiz-adv-x="843" 
d="M422 858q164 0 266 -112t102 -337t-102 -333q-103 -107 -270 -107q-166 0 -265 110t-99 328t102 335q102 116 266 116zM252 412q0 -152 43 -214t127 -61q84 -1 127 61t43 214q0 278 -170 276q-170 0 -170 -276z" />
    <glyph glyph-name="oneinferior" unicode="&#x2081;" horiz-adv-x="843" 
d="M561 825v-823h-186v643l-193 -102l-69 129l272 153h176z" />
    <glyph glyph-name="twoinferior" unicode="&#x2082;" horiz-adv-x="843" 
d="M537 584q0 58 -31 90q-31 31 -89 31t-94 -32t-53 -110l-176 23q31 125 92 185q91 89 238 88t223 -73t76 -178t-58 -189t-167 -173l-111 -88h346l-22 -156h-592v131l18 17q31 28 73 60t120 97l84 72q59 53 91 100t32 105z" />
    <glyph glyph-name="threeinferior" unicode="&#x2083;" horiz-adv-x="843" 
d="M578 236q0 121 -150 118h-84v140h92q59 0 93 30t34 86q0 109 -135 109q-66 0 -102 -32t-52 -101l-161 24q17 104 95 176t228 72t222 -66t71 -167q0 -66 -31 -110t-80 -79q66 -29 99 -81t33 -113q0 -123 -75 -198t-239 -75t-255 94q-72 78 -72 197h161q8 -80 47 -116
t111 -35q150 0 150 127z" />
    <glyph glyph-name="fourinferior" unicode="&#x2084;" horiz-adv-x="843" 
d="M647 825v-503h107l-21 -142h-86v-178h-166v178h-401v113l405 532h162zM481 322v294l-223 -294h223z" />
    <glyph glyph-name="fiveinferior" unicode="&#x2085;" horiz-adv-x="843" 
d="M672 825v-147h-340q-6 -47 -9 -91t-8 -89q49 26 93 28t52 3t19 -1q127 -4 189 -77q63 -73 63 -204t-80 -205t-219 -73q-287 0 -305 262h160q10 -57 42 -86q31 -29 99 -29q134 1 135 145q0 144 -137 142q-86 0 -143 -55h-138l41 477h486z" />
    <glyph glyph-name="sixinferior" unicode="&#x2086;" horiz-adv-x="843" 
d="M482 526q128 0 196 -76t68 -200q0 -125 -91 -202q-90 -77 -209 -78q-120 -1 -182 35q-162 93 -164 354t96 380t244 119q148 0 214 -61t85 -172l-161 -23q-19 113 -129 113q-161 0 -179 -252q84 63 212 63zM418 106q160 0 160 148q0 66 -34 108t-108 41q-31 0 -59 -8
q-103 -28 -98 -145q1 -48 35 -96t104 -48z" />
    <glyph glyph-name="seveninferior" unicode="&#x2087;" horiz-adv-x="843" 
d="M104 668v157h617v-133q-179 -310 -283 -690h-194q103 356 268 666h-408z" />
    <glyph glyph-name="eightinferior" unicode="&#x2088;" horiz-adv-x="843" 
d="M721 601q0 -115 -107 -173q136 -74 136 -199t-83 -191t-249 -67q-166 0 -245 70t-79 188t131 197q-104 65 -103 181t77 183q76 66 228 66q151 0 223 -70t71 -185zM283 606q0 -117 133 -117t139 107q-1 127 -141 127q-66 0 -98 -35t-33 -82zM264 224q0 -54 41 -86t119 -32
q156 0 156 125q0 53 -39 85t-121 32t-119 -35t-37 -89z" />
    <glyph glyph-name="nineinferior" unicode="&#x2089;" horiz-adv-x="843" 
d="M416 111q66 0 111 63q44 63 40 193q-78 -68 -209 -68q-130 0 -197 76q-67 75 -67 195t85 205t237 83q177 0 261 -140q62 -103 62 -258q-1 -154 -27 -248q-69 -243 -309 -243q-141 1 -217 59t-86 187h166q8 -66 46 -85t104 -19zM403 424q69 0 110 33q50 36 48 101
q-2 64 -38 112q-37 48 -107 49q-156 0 -156 -144q0 -151 143 -151z" />
    <glyph glyph-name="Euro" unicode="&#x20ac;" 
d="M711 1454q217 0 322.5 -100.5t135.5 -298.5l-208 -35q-29 127 -85.5 179t-171.5 52t-186 -84.5t-96 -224.5h403l-28 -160h-394q-2 -20 -2 -25v-59q0 -55 2 -73h373l-28 -160h-326q23 -135 90.5 -218t195.5 -83t186 62.5t75 191.5h219q-23 -225 -139.5 -340t-346.5 -115
q-442 0 -518 502h-149l26 160h109l-2 71l2 86h-135l26 160h127q61 357 233.5 434.5t289.5 77.5z" />
    <glyph glyph-name="uni20AE" unicode="&#x20ae;" 
d="M483 1210h-413v207h1054v-207h-409v-276l194 127l78 -119l-272 -174v-184l194 127l78 -119l-272 -174v-418h-232v281l-204 -131l-78 116l282 180v185l-204 -131l-78 118l282 179v413z" />
    <glyph glyph-name="uni20B4" unicode="&#x20b4;" 
d="M131 358q0 76 10 119h-90v131h154q51 70 147.5 107t150.5 55t91 39h-543v129h750q39 47 39 132t-58.5 135t-141.5 50q-138 0 -192 -48.5t-77 -143.5l-224 33q30 185 163 271.5t326 86.5q194 0 312.5 -100.5t118.5 -282.5q0 -76 -12 -133h90v-129h-180
q-61 -81 -169 -116.5t-166.5 -50.5t-99.5 -34h615v-131h-770q-14 -37 -15 -90q0 -96 60.5 -160.5t189.5 -64.5t188.5 45t69.5 151h238q-19 -395 -498 -395q-246 0 -361.5 114.5t-115.5 280.5z" />
    <glyph glyph-name="afii61289" unicode="&#x2113;" horiz-adv-x="960" 
d="M231 979q0 262 90.5 386t247.5 124q111 0 176.5 -63.5t82.5 -160.5t12 -141q-6 -162 -105.5 -317.5t-273.5 -321.5v-151q0 -94 43 -138t108 -44q98 0 187 88l98 -117q-135 -160 -338 -160q-142 0 -234 103.5t-92 281.5q-47 -43 -102 -86l-70 117q28 32 170 149v451z
M570.5 1323q-109.5 0 -109.5 -326v-295q108 141 163.5 252t55.5 211q0 158 -109.5 158z" />
    <glyph glyph-name="afii61352" unicode="&#x2116;" horiz-adv-x="2246" 
d="M1543 681q-99 110 -99 329t102 334.5t266 115.5t266.5 -111.5t102.5 -337.5t-102.5 -333t-269.5 -107t-266 110zM1812 1290q-170 0 -170 -276q0 -152 43.5 -213.5t127 -61.5t126.5 61.5t43 211.5t-43 214t-127 64zM1042 1462h240v-1462h-227l-660 1051v-1051h-239v1462
h229l657 -1054v1054z" />
    <glyph glyph-name="trademark" unicode="&#x2122;" horiz-adv-x="1871" 
d="M37 1313v149h692v-149h-262v-670h-168v670h-262zM1731 1462v-819h-154v565l-223 -565h-142l-223 563v-563h-153v819h206l242 -626l246 626h201z" />
    <glyph glyph-name="uni2126" unicode="&#x2126;" horiz-adv-x="1515" 
d="M348 203q-225 236 -225 569q0 352 179 544q171 183 462 183q289 0 459 -182t170 -529q-1 -196 -61 -334t-171 -251h285l-29 -203h-526v186q141 98 196 251t56 345q0 516 -379 516q-393 0 -393 -516q0 -194 57 -344t195 -252v-186h-551v203h276z" />
    <glyph glyph-name="estimated" unicode="&#x212e;" horiz-adv-x="1865" 
d="M941 -23q-185 0 -335.5 58.5t-262.5 159t-176.5 236.5t-64.5 289.5t64.5 289t176.5 238t263.5 161.5t322.5 59t322.5 -58t265 -159.5t180 -237.5t66.5 -292v-21h-1345q-10 0 -10 -8v-407q0 -26 34 -62q205 -205 503 -205t523 246h119q-111 -135 -286 -211t-360 -76z
M1448 741q8 0 8 47v375q0 25 -18 49q-98 98 -229 154.5t-281 56.5q-223 0 -371.5 -111t-148.5 -149v-407q0 -14 10 -15h1030z" />
    <glyph glyph-name="onethird" unicode="&#x2153;" horiz-adv-x="1892" 
d="M389 0l715 1415h227l-715 -1415h-227zM496 1417v-823h-187v643l-192 -102l-70 129l272 153h177zM1626 236q0 121 -149 118h-84v140h92q59 0 93 30t34 86q0 109 -135 109q-66 0 -102 -32t-52 -101l-162 24q17 102 95 175t229 73q149 0 221 -66t72 -167q0 -66 -31 -110
t-80 -79q67 -29 99 -81t32 -113q0 -123 -75 -198t-239 -75t-254 94q-71 76 -73 197h162q8 -80 47 -116t111 -35q149 0 149 127z" />
    <glyph glyph-name="twothirds" unicode="&#x2154;" horiz-adv-x="1892" 
d="M500 0l714 1415h228l-715 -1415h-227zM537 1176q0 58 -31 90q-31 30 -89 30t-94 -32t-53 -109l-176 23q31 125 92 185q89 87 237 87t224 -72t76 -178t-58 -189t-167 -173l-111 -88h346l-22 -156h-592v131l18 16q31 27 73 60t120 98l84 72q59 53 91 100t32 105zM1626 236
q0 121 -149 118h-84v140h92q59 0 93 30t34 86q0 109 -135 109q-66 0 -102 -32t-52 -101l-162 24q17 102 95 175t229 73q149 0 221 -66t72 -167q0 -66 -31 -110t-80 -79q67 -29 99 -81t32 -113q0 -123 -75 -198t-239 -75t-254 94q-71 76 -73 197h162q8 -80 47 -116t111 -35
q149 0 149 127z" />
    <glyph glyph-name="onefifth" unicode="&#x2155;" horiz-adv-x="1892" 
d="M385 0l715 1415h227l-715 -1415h-227zM496 1417v-823h-187v643l-192 -102l-70 129l272 153h177zM1729 825v-147h-340q-5 -47 -9 -91t-8 -89q49 26 93 28q45 2 53 3t18 -1q127 -4 189 -77q63 -73 63 -204t-80 -205t-219 -73q-287 0 -305 262h159q10 -57 42 -86t100 -29
q135 1 135 145t-137 142q-86 0 -144 -55h-137l41 477h486z" />
    <glyph glyph-name="twofifths" unicode="&#x2156;" horiz-adv-x="1892" 
d="M496 0l714 1415h228l-715 -1415h-227zM537 1176q0 58 -31 90q-31 30 -89 30t-94 -32t-53 -109l-176 23q31 125 92 185q89 87 237 87t224 -72t76 -178t-58 -189t-167 -173l-111 -88h346l-22 -156h-592v131l18 16q31 27 73 60t120 98l84 72q59 53 91 100t32 105zM1729 825
v-147h-340q-5 -47 -9 -91t-8 -89q49 26 93 28q45 2 53 3t18 -1q127 -4 189 -77q63 -73 63 -204t-80 -205t-219 -73q-287 0 -305 262h159q10 -57 42 -86t100 -29q135 1 135 145t-137 142q-86 0 -144 -55h-137l41 477h486z" />
    <glyph glyph-name="threefifths" unicode="&#x2157;" horiz-adv-x="1892" 
d="M483 0l715 1415h227l-714 -1415h-228zM1729 825v-147h-340q-5 -47 -9 -91t-8 -89q49 26 93 28q45 2 53 3t18 -1q127 -4 189 -77q63 -73 63 -204t-80 -205t-219 -73q-287 0 -305 262h159q10 -57 42 -86t100 -29q135 1 135 145t-137 142q-86 0 -144 -55h-137l41 477h486z
M426 700q152 0 152 128q0 121 -150 118h-84v139h92q59 0 93 31t34 86q0 109 -135 109q-66 0 -102 -32t-52 -101l-161 24q17 104 95 176t228 72t222 -67t71 -166q0 -66 -31 -110t-80 -79q66 -29 99 -81t33 -113q0 -123 -75 -198t-239 -75t-255 94q-72 78 -72 197h161
q8 -80 47 -116t109 -36z" />
    <glyph glyph-name="fourfifths" unicode="&#x2158;" horiz-adv-x="1892" 
d="M481 0l715 1415h227l-714 -1415h-228zM1729 825v-147h-340q-5 -47 -9 -91t-8 -89q49 26 93 28q45 2 53 3t18 -1q127 -4 189 -77q63 -73 63 -204t-80 -205t-219 -73q-287 0 -305 262h159q10 -57 42 -86t100 -29q135 1 135 145t-137 142q-86 0 -144 -55h-137l41 477h486z
M649 1417v-504h107l-21 -141h-86v-178h-166v178h-401v113l405 532h162zM483 913v295l-223 -295h223z" />
    <glyph glyph-name="onesixth" unicode="&#x2159;" horiz-adv-x="1892" 
d="M397 0l715 1415h227l-714 -1415h-228zM496 1417v-823h-187v643l-192 -102l-70 129l272 153h177zM1531 526q127 0 195 -76t68 -199q0 -124 -90 -202t-209 -79q-121 -1 -183 35q-166 95 -165 355q0 260 97 379q96 119 244 119t215 -61t85 -172l-162 -23q-19 113 -129 113
q-162 0 -178 -252q84 63 212 63zM1468 106q70 0 114 35t44 107q0 155 -141 155q-31 0 -60 -8q-103 -28 -98 -145q2 -48 36 -96q35 -48 105 -48z" />
    <glyph glyph-name="fivesixths" unicode="&#x215a;" horiz-adv-x="1892" 
d="M481 0l715 1415h227l-714 -1415h-228zM1531 526q127 0 195 -76t68 -199q0 -124 -90 -202t-209 -79q-121 -1 -183 35q-166 95 -165 355q0 260 97 379q96 119 244 119t215 -61t85 -172l-162 -23q-19 113 -129 113q-162 0 -178 -252q84 63 212 63zM1468 106q70 0 114 35
t44 107q0 155 -141 155q-31 0 -60 -8q-103 -28 -98 -145q2 -48 36 -96q35 -48 105 -48zM426 995q-86 0 -143 -55h-138l41 477h486v-147h-340q-6 -47 -9 -91t-8 -89q49 26 93 28t52 3t19 -1q127 -4 189 -77q63 -73 63 -204t-80 -205t-219 -73q-287 0 -305 262h160
q10 -57 42 -86q31 -29 99 -29q134 1 135 144q0 143 -137 143z" />
    <glyph glyph-name="oneeighth" unicode="&#x215b;" horiz-adv-x="1892" 
d="M375 0l715 1415h227l-715 -1415h-227zM496 1417v-823h-187v643l-192 -102l-70 129l272 153h177zM1171 612q0 166 165 225q56 19 134 19q156 0 228 -70t72 -185t-107 -173q135 -74 135 -199t-83 -191t-249 -67q-166 0 -244 70q-79 70 -79 188t131 197q-103 64 -103 186z
M1604 596q0 127 -141 127q-67 0 -99 -35t-33 -82q0 -117 133 -117t140 107zM1313 224q0 -54 41 -86t119 -32q156 0 155 125q0 53 -39 85t-121 32t-118 -35q-37 -35 -37 -89z" />
    <glyph glyph-name="threeeighths" unicode="&#x215c;" horiz-adv-x="1892" 
d="M481 0l715 1415h227l-714 -1415h-228zM1171 612q0 166 165 225q56 19 134 19q156 0 228 -70t72 -185t-107 -173q135 -74 135 -199t-83 -191t-249 -67q-166 0 -244 70q-79 70 -79 188t131 197q-103 64 -103 186zM1604 596q0 127 -141 127q-67 0 -99 -35t-33 -82
q0 -117 133 -117t140 107zM1313 224q0 -54 41 -86t119 -32q156 0 155 125q0 53 -39 85t-121 32t-118 -35q-37 -35 -37 -89zM426 700q152 0 152 128q0 121 -150 118h-84v139h92q59 0 93 31t34 86q0 109 -135 109q-66 0 -102 -32t-52 -101l-161 24q17 104 95 176t228 72
t222 -67t71 -166q0 -66 -31 -110t-80 -79q66 -29 99 -81t33 -113q0 -123 -75 -198t-239 -75t-255 94q-72 78 -72 197h161q8 -80 47 -116t109 -36z" />
    <glyph glyph-name="fiveeighths" unicode="&#x215d;" horiz-adv-x="1892" 
d="M477 0l715 1415h227l-714 -1415h-228zM426 995q-86 0 -143 -55h-138l41 477h486v-147h-340q-6 -47 -9 -91t-8 -89q49 26 93 28t52 3t19 -1q127 -4 189 -77q63 -73 63 -204t-80 -205t-219 -73q-287 0 -305 262h160q10 -57 42 -86q31 -29 99 -29q134 1 135 144
q0 143 -137 143zM1171 612q0 166 165 225q56 19 134 19q156 0 228 -70t72 -185t-107 -173q135 -74 135 -199t-83 -191t-249 -67q-166 0 -244 70q-79 70 -79 188t131 197q-103 64 -103 186zM1604 596q0 127 -141 127q-67 0 -99 -35t-33 -82q0 -117 133 -117t140 107z
M1313 224q0 -54 41 -86t119 -32q156 0 155 125q0 53 -39 85t-121 32t-118 -35q-37 -35 -37 -89z" />
    <glyph glyph-name="seveneighths" unicode="&#x215e;" horiz-adv-x="1892" 
d="M375 0l715 1415h227l-715 -1415h-227zM1171 612q0 166 165 225q56 19 134 19q156 0 228 -70t72 -185t-107 -173q135 -74 135 -199t-83 -191t-249 -67q-166 0 -244 70q-79 70 -79 188t131 197q-103 64 -103 186zM1604 596q0 127 -141 127q-67 0 -99 -35t-33 -82
q0 -117 133 -117t140 107zM1313 224q0 -54 41 -86t119 -32q156 0 155 125q0 53 -39 85t-121 32t-118 -35q-37 -35 -37 -89zM72 1260v157h616v-133q-181 -313 -282 -690h-195q103 356 268 666h-407z" />
    <glyph glyph-name="partialdiff" unicode="&#x2202;" 
d="M821 473q0 129 -69.5 191.5t-161.5 62.5q-157 0 -230 -87.5t-73 -214.5q0 -126 68.5 -199.5t189.5 -73.5t198.5 96t77.5 225zM641 1454q323 0 391 -225t68 -401q0 -385 -136.5 -625t-441.5 -240q-206 0 -329 127t-123 327.5t127.5 347t348.5 146.5t335 -159l2 67
q0 23 1 41.5t-2 78.5t-41.5 191.5t-197.5 131.5q-100 0 -159.5 -38t-88.5 -143l-202 33l6 19q45 172 153.5 246.5t288.5 74.5z" />
    <glyph glyph-name="Delta" unicode="&#x2206;" horiz-adv-x="1376" 
d="M569 1462h242l545 -1462h-1333zM684 1192l-350 -979h698z" />
    <glyph glyph-name="product" unicode="&#x220f;" horiz-adv-x="1429" 
d="M1278 1462v-1462h-248v1241h-631v-1241h-247v1462h1126z" />
    <glyph glyph-name="summation" unicode="&#x2211;" horiz-adv-x="1191" 
d="M53 1462h1092v-205h-789l412 -620l-422 -641h821l-28 -205h-1086v158l447 682l-447 667v164z" />
    <glyph glyph-name="minus" unicode="&#x2212;" 
d="M1053 799v-203h-893v203h893z" />
    <glyph glyph-name="uni2215" unicode="&#x2215;" horiz-adv-x="204" 
d="M-369 0l715 1415h227l-714 -1415h-228z" />
    <glyph glyph-name="uni2219" unicode="&#x2219;" horiz-adv-x="473" 
d="M360 885v-285h-247v285h247z" />
    <glyph glyph-name="radical" unicode="&#x221a;" horiz-adv-x="1253" 
d="M92 612v205h342l184 -500l392 1180h245l-520 -1497h-227l-248 612h-168z" />
    <glyph glyph-name="infinity" unicode="&#x221e;" 
d="M344 885q-47 0 -82 -44.5t-35 -140.5t35 -141t82 -45q79 0 124.5 56t59.5 132q-13 72 -46 111t-62 55.5t-76 16.5zM334 346q-127 0 -206 88t-79 260t78 265.5t214 93.5t190.5 -69t74.5 -101q63 115 141 142.5t132 27.5q129 0 206.5 -93.5t77.5 -265.5t-81.5 -260
t-195.5 -88q-113 0 -176 50t-104 122q-101 -172 -272 -172zM860 514q55 0 90 44t35 138t-35 141.5t-82 47.5q-81 0 -125.5 -57t-58.5 -134q45 -180 176 -180z" />
    <glyph glyph-name="integral" unicode="&#x222b;" horiz-adv-x="651" 
d="M176 -61q111 0 111 81.5t-17 208.5l-110 801q-18 113 -10 189q10 119 81.5 189.5t223.5 70.5q84 0 174 -33l-35 -172q-73 22 -118 22q-122 0 -103 -174q4 -29 7 -58.5t7 -57.5l113 -803q4 -47 14.5 -160.5t-76 -201t-235.5 -87.5q-94 0 -178 35l34 174q52 -24 117 -24z
" />
    <glyph glyph-name="approxequal" unicode="&#x2248;" 
d="M74 739q0 211 81 301t232 90q61 0 115.5 -28.5t105.5 -62t99.5 -62.5t103.5 -29q117 0 117 170h207q0 -310 -118.5 -351.5t-182.5 -41.5t-116 25.5t-101.5 57.5t-94.5 60.5t-84 34.5t-59 -2q-84 -6 -88 -117q-120 -20 -182 -45h-35zM74 229q0 211 81 301.5t232 90.5
q61 0 115.5 -29t105.5 -62.5t99.5 -62.5t103.5 -29q117 0 117 170h207q0 -307 -118.5 -349t-182.5 -42t-116 25.5t-101.5 57.5t-94.5 60.5t-86 36.5q-31 2 -57 -4q-84 -6 -88 -119q-120 -20 -182 -45h-35z" />
    <glyph glyph-name="notequal" unicode="&#x2260;" 
d="M160 369v204h276l135 250h-411v205h516l112 213h203l-112 -213h174v-205h-277l-135 -250h412v-204h-518l-111 -215h-203l113 215h-174z" />
    <glyph glyph-name="lessequal" unicode="&#x2264;" 
d="M1081 1231v-221l-657 -242l657 -244v-227l-927 377v180zM1081 203v-203h-927v203h927z" />
    <glyph glyph-name="greaterequal" unicode="&#x2265;" 
d="M131 297v227l655 242l-655 244v221l928 -377v-180zM131 0v203h928v-203h-928z" />
    <glyph glyph-name="lozenge" unicode="&#x25ca;" horiz-adv-x="1210" 
d="M524 1462h166l443 -731l-443 -731h-166l-446 731zM604 1200l-285 -469l285 -469l291 469z" />
    <glyph glyph-name="fi" unicode="&#xf001;" horiz-adv-x="1232" 
d="M33 881v184h166v61q0 168 90 257t239 94q12 2 24 1t74 -5q61 -4 122 -23l-35 -174q-65 18 -127 18t-108 -37t-46 -124v-68h258v-184h-258v-881h-233v881h-166zM1098 1065v-1065h-234v1065h234zM1102 1462v-231h-242v231h242z" />
    <glyph glyph-name="fl" unicode="&#xf002;" horiz-adv-x="1232" 
d="M33 881v184h166v61q0 168 90 257t239 94q12 2 24 1t74 -5q61 -4 122 -23l-35 -174q-65 18 -127 18t-108 -37t-46 -124v-68h258v-184h-258v-881h-233v881h-166zM1098 1462v-1462h-234v1462h234z" />
    <glyph glyph-name="oneseventh" unicode="&#xf506;" horiz-adv-x="1892" 
d="M354 0l715 1415h227l-714 -1415h-228zM496 1417v-823h-187v643l-192 -102l-70 129l272 153h177zM1153 668v157h616v-133q-177 -306 -282 -690h-195q104 360 269 666h-408z" />
    <glyph glyph-name="twosevenths" unicode="&#xf507;" horiz-adv-x="1892" 
d="M461 0l715 1415h227l-715 -1415h-227zM537 1176q0 58 -31 90q-31 30 -89 30t-94 -32t-53 -109l-176 23q31 125 92 185q89 87 237 87t224 -72t76 -178t-58 -189t-167 -173l-111 -88h346l-22 -156h-592v131l18 16q31 27 73 60t120 98l84 72q59 53 91 100t32 105zM1153 668
v157h616v-133q-177 -306 -282 -690h-195q104 360 269 666h-408z" />
    <glyph glyph-name="threesevenths" unicode="&#xf508;" horiz-adv-x="1892" 
d="M444 0l715 1415h227l-714 -1415h-228zM1153 668v157h616v-133q-177 -306 -282 -690h-195q104 360 269 666h-408zM426 700q152 0 152 128q0 121 -150 118h-84v139h92q59 0 93 31t34 86q0 109 -135 109q-66 0 -102 -32t-52 -101l-161 24q17 104 95 176t228 72t222 -67
t71 -166q0 -66 -31 -110t-80 -79q66 -29 99 -81t33 -113q0 -123 -75 -198t-239 -75t-255 94q-72 78 -72 197h161q8 -80 47 -116t109 -36z" />
    <glyph glyph-name="foursevenths" unicode="&#xf509;" horiz-adv-x="1892" 
d="M436 0l715 1415h227l-714 -1415h-228zM649 1417v-504h107l-21 -141h-86v-178h-166v178h-401v113l405 532h162zM483 913v295l-223 -295h223zM1153 668v157h616v-133q-177 -306 -282 -690h-195q104 360 269 666h-408z" />
    <glyph glyph-name="fivesevenths" unicode="&#xf50a;" horiz-adv-x="1892" 
d="M438 0l715 1415h227l-714 -1415h-228zM426 995q-86 0 -143 -55h-138l41 477h486v-147h-340q-6 -47 -9 -91t-8 -89q49 26 93 28t52 3t19 -1q127 -4 189 -77q63 -73 63 -204t-80 -205t-219 -73q-287 0 -305 262h160q10 -57 42 -86q31 -29 99 -29q134 1 135 144
q0 143 -137 143zM1153 668v157h616v-133q-177 -306 -282 -690h-195q104 360 269 666h-408z" />
    <glyph glyph-name="sixsevenths" unicode="&#xf50b;" horiz-adv-x="1892" 
d="M434 0l715 1415h227l-714 -1415h-228zM482 1118q128 0 196 -76t68 -200t-91 -202q-90 -77 -209 -78q-120 -1 -182 35q-162 93 -164 354t96 380t244 119q148 0 214 -61t85 -172l-161 -23q-19 113 -129 113q-161 0 -179 -252q84 63 212 63zM418 698q160 0 160 148
q0 66 -34 108t-108 41q-111 0 -146 -76q-13 -28 -11 -77t35 -97q34 -47 104 -47zM1153 668v157h616v-133q-177 -306 -282 -690h-195q104 360 269 666h-408z" />
    <glyph glyph-name="oneninth" unicode="&#xf50c;" horiz-adv-x="1892" 
d="M373 0l714 1415h228l-715 -1415h-227zM496 1417v-823h-187v643l-192 -102l-70 129l272 153h177zM1466 111q66 0 110 63t40 193q-78 -68 -209 -68t-198 76t-67 196t86 205q85 84 236 82q177 0 261 -140q63 -104 63 -258q0 -395 -207 -469q-61 -22 -129 -22q-141 1 -217 59
t-86 187h166q8 -66 46 -85q39 -19 105 -19zM1452 424q158 0 156 152q0 46 -36 94t-107 49q-156 0 -156 -144q0 -151 143 -151z" />
    <glyph glyph-name="twoninths" unicode="&#xf50d;" horiz-adv-x="1892" 
d="M489 0l715 1415h228l-715 -1415h-228zM537 1176q0 58 -31 90q-31 30 -89 30t-94 -32t-53 -109l-176 23q31 125 92 185q89 87 237 87t224 -72t76 -178t-58 -189t-167 -173l-111 -88h346l-22 -156h-592v131l18 16q31 27 73 60t120 98l84 72q59 53 91 100t32 105zM1466 111
q66 0 110 63t40 193q-78 -68 -209 -68t-198 76t-67 196t86 205q85 84 236 82q177 0 261 -140q63 -104 63 -258q0 -395 -207 -469q-61 -22 -129 -22q-141 1 -217 59t-86 187h166q8 -66 46 -85q39 -19 105 -19zM1452 424q158 0 156 152q0 46 -36 94t-107 49q-156 0 -156 -144
q0 -151 143 -151z" />
    <glyph glyph-name="fourninths" unicode="&#xf50e;" horiz-adv-x="1892" 
d="M467 0l715 1415h227l-715 -1415h-227zM649 1417v-504h107l-21 -141h-86v-178h-166v178h-401v113l405 532h162zM483 913v295l-223 -295h223zM1466 111q66 0 110 63t40 193q-78 -68 -209 -68t-198 76t-67 196t86 205q85 84 236 82q177 0 261 -140q63 -104 63 -258
q0 -395 -207 -469q-61 -22 -129 -22q-141 1 -217 59t-86 187h166q8 -66 46 -85q39 -19 105 -19zM1452 424q158 0 156 152q0 46 -36 94t-107 49q-156 0 -156 -144q0 -151 143 -151z" />
    <glyph glyph-name="fiveninths" unicode="&#xf50f;" horiz-adv-x="1892" 
d="M467 0l715 1415h227l-715 -1415h-227zM426 995q-86 0 -143 -55h-138l41 477h486v-147h-340q-6 -47 -9 -91t-8 -89q49 26 93 28t52 3t19 -1q127 -4 189 -77q63 -73 63 -204t-80 -205t-219 -73q-287 0 -305 262h160q10 -57 42 -86q31 -29 99 -29q134 1 135 144
q0 143 -137 143zM1466 111q66 0 110 63t40 193q-78 -68 -209 -68t-198 76t-67 196t86 205q85 84 236 82q177 0 261 -140q63 -104 63 -258q0 -395 -207 -469q-61 -22 -129 -22q-141 1 -217 59t-86 187h166q8 -66 46 -85q39 -19 105 -19zM1452 424q158 0 156 152q0 46 -36 94
t-107 49q-156 0 -156 -144q0 -151 143 -151z" />
    <glyph glyph-name="sevenninths" unicode="&#xf510;" horiz-adv-x="1892" 
d="M365 0l714 1415h228l-715 -1415h-227zM1466 111q66 0 110 63t40 193q-78 -68 -209 -68t-198 76t-67 196t86 205q85 84 236 82q177 0 261 -140q63 -104 63 -258q0 -395 -207 -469q-61 -22 -129 -22q-141 1 -217 59t-86 187h166q8 -66 46 -85q39 -19 105 -19zM1452 424
q158 0 156 152q0 46 -36 94t-107 49q-156 0 -156 -144q0 -151 143 -151zM72 1260v157h616v-133q-181 -313 -282 -690h-195q103 356 268 666h-407z" />
    <glyph glyph-name="eightninths" unicode="&#xf511;" horiz-adv-x="1892" 
d="M477 0l715 1415h227l-714 -1415h-228zM1466 111q66 0 110 63t40 193q-78 -68 -209 -68t-198 76t-67 196t86 205q85 84 236 82q177 0 261 -140q63 -104 63 -258q0 -395 -207 -469q-61 -22 -129 -22q-141 1 -217 59t-86 187h166q8 -66 46 -85q39 -19 105 -19zM1452 424
q158 0 156 152q0 46 -36 94t-107 49q-156 0 -156 -144q0 -151 143 -151zM721 1193q0 -115 -107 -173q136 -74 136 -199t-83 -191t-249 -67q-166 0 -245 70t-79 188t131 197q-104 65 -102 186q0 168 165 224q56 19 134 20q156 0 228 -70t71 -185zM283 1198q0 -117 133 -117
t139 107q-1 127 -141 127q-66 0 -98 -35t-33 -82zM264 816q0 -54 41 -86t119 -32q156 0 156 125q0 53 -39 85t-121 32t-119 -35t-37 -89z" />
    <glyph glyph-name="zero.alt" unicode="&#xf800;" 
d="M602 -37q-524 0 -524 746q0 375 138 560t390 185t390 -181t139 -564q0 -565 -309 -702q-99 -44 -224 -44zM604 168q287 0 287 541q0 397 -153 502q-54 38 -134 38q-223 0 -268 -318q-14 -99 -14 -222q0 -261 64 -401t218 -140z" />
    <glyph glyph-name="one.alt" unicode="&#xf801;" horiz-adv-x="966" 
d="M705 1415v-1415h-238v1151l-303 -182l-103 172l439 274h205z" />
    <glyph glyph-name="two.alt" unicode="&#xf802;" horiz-adv-x="1185" 
d="M819 1016q0 109 -60 171t-176 62q-115 0 -179 -54t-95 -183l-223 30q42 191 146 288q133 124 363 124t349 -116t119 -308q0 -121 -44 -216q-77 -166 -320 -379q-114 -99 -255 -228h637l-28 -207h-953v182q156 137 288 245q281 230 377 389q54 91 54 200z" />
    <glyph glyph-name="three.alt" unicode="&#xf803;" horiz-adv-x="1191" 
d="M1087 412q1 -209 -123 -329t-383 -120t-392 148q-106 121 -113 309h235q15 -140 77 -198t200 -58q260 0 260 239q0 121 -65 175t-189 53h-154v207h164q176 0 201 155q14 43 5 114q-8 71 -68 109t-168 37q-108 0 -172 -52q-62 -52 -93 -169l-221 31q78 391 502 391
q226 0 345 -107q120 -107 120 -268q0 -225 -197 -327q229 -95 229 -340z" />
    <glyph glyph-name="four.alt" unicode="&#xf804;" horiz-adv-x="1183" 
d="M942 1415v-893h186l-28 -188h-158v-334h-223v334h-658v166l662 915h219zM719 522v588l-416 -588h416z" />
    <glyph glyph-name="five.alt" unicode="&#xf805;" horiz-adv-x="1185" 
d="M602 166q250 0 250 291q0 272 -254 272q-154 0 -258 -108h-199l68 794h792v-205h-600l-32 -370q114 78 254 79q141 1 225 -39q238 -114 236 -442q0 -106 -36 -199q-105 -276 -448 -276q-458 0 -489 424h231q25 -172 148 -208q46 -13 112 -13z" />
    <glyph glyph-name="six.alt" unicode="&#xf806;" 
d="M340 762q122 151 340 152q218 0 326 -124t108 -347t-145 -357q-137 -123 -353 -123q-275 0 -404 213q-101 170 -100 422q3 670 333 813q99 43 212 43q203 0 305 -84t134 -258l-215 -31l-9 21q-30 75 -54 97q-73 67 -204 54q-258 -24 -274 -491zM887 434q-1 135 -59 214
t-190 79t-210 -76q-77 -76 -68 -215q0 -117 68 -199q68 -83 187 -83q120 0 196 72t76 208z" />
    <glyph glyph-name="seven.alt" unicode="&#xf807;" horiz-adv-x="1144" 
d="M61 1210v205h981v-186q-318 -582 -489 -1229h-260q193 645 487 1210h-719z" />
    <glyph glyph-name="eight.alt" unicode="&#xf808;" 
d="M115 1036q1 102 29 176q58 147 241 210q92 32 221 32q244 0 375 -118q113 -103 113 -281q0 -234 -197 -324q235 -104 238 -340q-1 -195 -133 -311t-399 -117q-267 0 -396 117t-129 302t148 296q42 31 85 49q-90 41 -143 124t-53 185zM606 817q141 0 203 57q61 57 61 173
q0 156 -140 206q-50 19 -124 19q-139 1 -204 -65q-66 -66 -66 -174t64 -162t206 -54zM905 395q0 228 -298 230t-298 -237q0 -110 71 -174q72 -64 226 -64t227 66t72 179z" />
    </font>
</defs>
</svg>
