<?xml version="1.0" standalone="no"?>
<!DOCTYPE svg PUBLIC "-//W3C//DTD SVG 1.1//EN" "http://www.w3.org/Graphics/SVG/1.1/DTD/svg11.dtd" >
<svg xmlns="http://www.w3.org/2000/svg">
<metadata>
Created by FontPrep 20130207 at Wed Feb  4 14:42:06 2015
 By Brian Tretcher
Copyright (c) 2010 Dalton Maag Ltd. All rights reserved. This font may not be altered in any way without prior permission of Dalton Maag Ltd.
</metadata>
<defs>
<font id="318681e332c96d2977d437dde1631394" horiz-adv-x='1024' >
  <font-face 
    font-family="AktivGroteskCorp-Bold"
    font-weight="700"
    font-stretch="normal"
    units-per-em="2048"
    panose-1="2 11 8 4 2 2 2 2 2 4"
    ascent="1638"
    descent="-410"
    x-height="1069"
    cap-height="1462"
    bbox="-379 -465 2773 1997"
    underline-thickness="188"
    underline-position="-84"
    unicode-range="U+0008-FB04"
  />
<missing-glyph horiz-adv-x="1024" 
d="M819 102v1332h-614v-1332h614zM102 0v1536h820v-1536h-820z" />
    <glyph glyph-name="f_f" unicode="ff" horiz-adv-x="1550" 
d="M197 846h-168v223h168v35q0 191 102 283t249 92t245 -31l-39 -209q-66 16 -123 16t-103 -31q-45 -32 -45 -114v-41h248v-223h-248v-846h-286v846zM973 846h-168v223h168v35q0 191 102 283t271 92q125 0 223 -31l-39 -209q-66 16 -123 16q-57 1 -102 -31t-45 -114v-41h247
v-223h-247v-846h-287v846z" />
    <glyph glyph-name="f_i" unicode="fi" horiz-adv-x="1320" 
d="M197 846h-168v223h168v35q0 191 102 283t249 92t245 -31l-39 -209q-66 16 -123 16t-103 -31q-45 -32 -45 -114v-41h248v-223h-248v-846h-286v846zM901 1462h295v-258h-295v258zM905 1069h287v-1069h-287v1069z" />
    <glyph glyph-name="f_l" unicode="fl" horiz-adv-x="1320" 
d="M197 846h-168v223h168v35q0 191 102 283t249 92t245 -31l-39 -209q-66 16 -123 16t-103 -31q-45 -32 -45 -114v-41h248v-223h-248v-846h-286v846zM905 1462h287v-1462h-287v1462z" />
    <glyph glyph-name="f_f_i" unicode="ffi" horiz-adv-x="2095" 
d="M197 846h-168v223h168v35q0 191 102 283t249 92t245 -31l-39 -209q-66 16 -123 16t-103 -31q-45 -32 -45 -114v-41h248v-223h-248v-846h-286v846zM973 846h-168v223h168v35q0 191 102 283t271 92q125 0 223 -31l-39 -209q-66 16 -123 16q-57 1 -102 -31t-45 -114v-41h247
v-223h-247v-846h-287v846zM1675 1462h295v-258h-295v258zM1679 1069h287v-1069h-287v1069z" />
    <glyph glyph-name="f_f_l" unicode="ffl" horiz-adv-x="2095" 
d="M197 846h-168v223h168v35q0 191 102 283t249 92t245 -31l-39 -209q-66 16 -123 16t-103 -31q-45 -32 -45 -114v-41h248v-223h-248v-846h-286v846zM973 846h-168v223h168v35q0 191 102 283t271 92q125 0 223 -31l-39 -209q-66 16 -123 16q-57 1 -102 -31t-45 -114v-41h247
v-223h-247v-846h-287v846zM1679 1462h287v-1462h-287v1462z" />
    <glyph glyph-name=".notdef" horiz-adv-x="1024" 
d="M819 102v1332h-614v-1332h614zM102 0v1536h820v-1536h-820z" />
    <glyph glyph-name=".null" horiz-adv-x="0" 
 />
    <glyph glyph-name=".null" horiz-adv-x="0" 
 />
    <glyph glyph-name=".null" horiz-adv-x="0" 
 />
    <glyph glyph-name="nonmarkingreturn" unicode="&#x9;" horiz-adv-x="454" 
 />
    <glyph glyph-name="nonmarkingreturn" unicode="&#xd;" horiz-adv-x="454" 
 />
    <glyph glyph-name="space" unicode=" " horiz-adv-x="454" 
 />
    <glyph glyph-name="exclam" unicode="!" horiz-adv-x="561" 
d="M139 326h283v-326h-283v326zM127 1462h307l-20 -999h-267z" />
    <glyph glyph-name="quotedbl" unicode="&#x22;" horiz-adv-x="786" 
d="M455 1456h262l-15 -555h-233zM70 1456h266l-17 -555h-235z" />
    <glyph glyph-name="numbersign" unicode="#" 
d="M698 537l56 315h-219l-56 -315h219zM39 326v211h197l51 315h-185v209h222l53 328h244l-54 -328h219l54 328h243l-53 -328h137v-209h-170l-51 -315h152v-211h-191l-51 -326h-244l52 326h-220l-51 -326h-243l51 326h-162z" />
    <glyph glyph-name="dollar" unicode="$" 
d="M362 1055q0 -70 42 -112t128 -64v350q-170 -20 -170 -174zM840 378q0 153 -174 191v-370q100 10 137 63.5t37 115.5zM532 1636h134v-188q231 -18 328.5 -133t117.5 -287l-274 -35q-16 113 -55.5 167t-116.5 67v-377l61 -12q209 -45 307.5 -146.5t98.5 -281.5t-116.5 -306
t-350.5 -137v-211h-134v213q-355 34 -410.5 209.5t-60.5 274.5h287q4 -115 48 -174.5t136 -75.5v393q-221 41 -336.5 142.5t-115.5 285.5t116 297.5t336 128.5v186z" />
    <glyph glyph-name="percent" unicode="%" horiz-adv-x="1988" 
d="M584 999q0 139 -38 193t-105 55q-67 0 -105 -54q-38 -53 -37 -193q-1 -140 37 -192t105 -52t105 52t38 191zM441 555q-169 0 -275 109t-105 333q0 225 106 339t273 114q266 0 351 -249q29 -85 29 -202t-28 -201q-80 -243 -351 -243zM774 0h-276l712 1415h277zM1405 412
q-1 -140 37 -192t105 -52t105 52t38 192t-38 193q-38 54 -105 54t-105 -54t-37 -193zM1547 -33q-170 0 -275 109t-105 333q0 223 107 339t272 114q269 0 350 -249q29 -85 29 -201t-28 -202q-80 -243 -350 -243z" />
    <glyph glyph-name="ampersand" unicode="&#x26;" horiz-adv-x="1372" 
d="M741 1135q0 68 -33.5 103.5t-95.5 35.5t-98.5 -37t-36.5 -122t117 -202q147 89 147 222zM348 432q0 -239 275 -239q124 0 202 61l-331 391q-146 -87 -146 -213zM188.5 90.5q-127.5 123.5 -127.5 314.5t122 280t184 124q-146 167 -146 321q0 153 107.5 251t281.5 98
t276.5 -92t102.5 -255t-108.5 -245t-163.5 -115l266 -311q45 110 45 276h254q0 -257 -139 -467l229 -270h-328l-75 90q-159 -123 -369 -123q-284 0 -411.5 123.5z" />
    <glyph glyph-name="quotesingle" unicode="'" horiz-adv-x="421" 
d="M70 1456h282l-14 -555h-254z" />
    <glyph glyph-name="parenleft" unicode="(" horiz-adv-x="610" 
d="M377 624.5q0 -483.5 223 -878.5h-272q-179 277 -212.5 517.5t-33.5 421t64.5 410.5t181.5 408h272q-223 -395 -223 -878.5z" />
    <glyph glyph-name="parenright" unicode=")" horiz-adv-x="610" 
d="M233 624.5q0 483.5 -223 878.5h273q245 -378 245 -812t-94 -645.5t-151 -299.5h-273q223 395 223 878.5z" />
    <glyph glyph-name="asterisk" unicode="*" horiz-adv-x="851" 
d="M295 1053l-254 57l94 223l211 -123l-51 252h262l-51 -252l211 123l94 -223l-254 -57l205 -203l-201 -143l-135 227l-135 -227l-201 143z" />
    <glyph glyph-name="plus" unicode="+" 
d="M477 573h-358v248h358v389h258v-389h359v-248h-359v-389h-258v389z" />
    <glyph glyph-name="comma" unicode="," horiz-adv-x="503" 
d="M131 330h279l-127 -523h-220z" />
    <glyph glyph-name="hyphen" unicode="-" horiz-adv-x="796" 
d="M92 754h613v-283h-613v283z" />
    <glyph glyph-name="period" unicode="." horiz-adv-x="503" 
d="M106 330h293v-330h-293v330z" />
    <glyph glyph-name="slash" unicode="/" horiz-adv-x="784" 
d="M297 0h-285l475 1503h285z" />
    <glyph glyph-name="zero" unicode="0" 
d="M604.5 213q67.5 0 113.5 34t74.5 98.5t41 155.5t12.5 207.5t-12.5 208t-41 156t-74.5 98t-113.5 33.5t-113 -33.5t-73 -98t-39.5 -156t-12 -208t12 -207.5t39.5 -155.5t73 -98.5t113 -34zM604 -37q-256 0 -396 180.5t-140 560.5t142.5 565t397.5 185q256 0 396.5 -181
t140.5 -565t-142.5 -564.5t-398.5 -180.5z" />
    <glyph glyph-name="one" unicode="1" 
d="M856 1415v-1415h-293v1083l-276 -165l-127 210l452 287h244z" />
    <glyph glyph-name="two" unicode="2" 
d="M791 1016q0 78 -50.5 134t-144.5 56t-152.5 -46t-87.5 -175l-278 33q41 199 160.5 317.5t362.5 118.5t366 -116.5t123 -317.5q0 -235 -147.5 -390t-252 -241t-162.5 -139h582l-31 -250h-981v215q88 78 174 148.5t173 147.5t152 138.5t108 118.5t64.5 113.5t21.5 134.5z
" />
    <glyph glyph-name="three" unicode="3" 
d="M1120 418q0 -323 -188 -389t-332 -66q-269 0 -392.5 140t-133.5 346h293q10 -133 67.5 -186.5t161.5 -53.5q229 0 229 199q0 104 -52 150t-173 46h-143v252h159q182 0 183 182q0 172 -195 172q-98 0 -157.5 -45t-86.5 -159l-274 36q40 196 162 304t356 108t358.5 -106
t124.5 -277q0 -216 -190 -319q223 -92 223 -334z" />
    <glyph glyph-name="four" unicode="4" 
d="M690 547v493l-344 -493h344zM963 1415v-868h180l-31 -230h-149v-317h-273v317h-637v195l647 903h263z" />
    <glyph glyph-name="five" unicode="5" 
d="M649 930q234 0 346.5 -131t112.5 -353t-130.5 -352.5t-361.5 -130.5t-363 109.5t-144 339.5h286q10 -98 57.5 -149.5t159.5 -51.5q211 0 211 252q0 121 -53 177t-179 56t-210 -96h-242l70 815h815v-248h-575l-27 -301q95 64 227 64z" />
    <glyph glyph-name="six" unicode="6" 
d="M848 449q0 245 -223 245q-161 0 -197.5 -88t-33.5 -150q6 -123 60.5 -193t156.5 -70q103 0 170 63t67 193zM1013.5 804q110.5 -120 110.5 -346t-136.5 -360.5t-373.5 -134.5q-276 0 -395 189t-119 444q0 464 152.5 661t402.5 197q211 0 318.5 -88t136.5 -272l-266 -33
q-23 80 -61 118t-132 38q-133 0 -197.5 -113t-72.5 -305q113 121 313 125q209 0 319.5 -120z" />
    <glyph glyph-name="seven" unicode="7" 
d="M88 1167v248h999v-221q-303 -561 -473 -1194h-317q195 635 465 1167h-674z" />
    <glyph glyph-name="eight" unicode="8" 
d="M606 608q-258 0 -258 -207q0 -96 60.5 -153.5t197.5 -57.5t197.5 59t60.5 153t-56 150t-202 56zM656 840q175 0 175 189q0 89 -50 146.5t-172 57.5t-179 -56t-57 -148q0 -93 54 -141t229 -48zM980 1346q124 -108 124 -293q0 -219 -178 -320q98 -47 157.5 -131t59.5 -201
q0 -203 -135.5 -320.5t-404.5 -117.5t-402 118t-133 320q0 111 60.5 197t152.5 133q-178 100 -179 324q0 176 130 287.5t377 111.5t371 -108z" />
    <glyph glyph-name="nine" unicode="9" 
d="M586 717q158 0 205 115.5t4 254t-201 138.5q-98 0 -166 -64.5t-68 -180.5t52.5 -189.5t173.5 -73.5zM506 489q-199 0 -313.5 122t-114.5 348t141 360.5t377 134.5q277 0 395.5 -194t118.5 -463t-39 -428.5t-107.5 -249.5t-165 -123t-208.5 -33q-229 0 -348 96.5
t-136 298.5h273q10 -76 53 -117.5t150 -41.5q135 0 190 107.5t57 314.5q-124 -132 -323 -132z" />
    <glyph glyph-name="colon" unicode=":" horiz-adv-x="503" 
d="M106 330h293v-330h-293v330zM106 1069h293v-330h-293v330z" />
    <glyph glyph-name="semicolon" unicode=";" horiz-adv-x="503" 
d="M131 330h279l-127 -523h-220zM106 1069h293v-330h-293v330z" />
    <glyph glyph-name="less" unicode="&#x3c;" 
d="M150 807l937 410v-265l-606 -256l606 -256v-268l-937 410v225z" />
    <glyph glyph-name="equal" unicode="=" 
d="M158 1049h897v-248h-897v248zM158 596h897v-248h-897v248z" />
    <glyph glyph-name="greater" unicode="&#x3e;" 
d="M125 436l606 254l-606 258v269l938 -410v-225l-938 -410v264z" />
    <glyph glyph-name="question" unicode="?" horiz-adv-x="1050" 
d="M371 326h282v-326h-282v326zM528 1487q219 0 343 -100.5t124 -269.5t-79.5 -252.5t-131 -134t-90.5 -104.5t-39 -128v-35h-282v47q0 137 77.5 218t109.5 112q76 74 106 118.5t30 122.5t-46 122t-137 44t-147.5 -47t-80.5 -166l-265 33q76 420 508 420z" />
    <glyph glyph-name="at" unicode="@" horiz-adv-x="2056" 
d="M889 666.5q-68 -93.5 -68 -265.5q0 -104 38 -153t95 -49q104 0 157 67t71 180l10 66q18 112 -13 180t-126 68q-96 0 -164 -93.5zM1020 -453q-443 0 -680.5 239.5t-237.5 633.5q0 327 155 555.5t385 337t436 108.5q407 0 644.5 -206.5t237.5 -579.5q0 -316 -146.5 -479.5
t-345.5 -163.5q-111 0 -179 34.5t-91 125.5q-112 -175 -303 -175q-164 0 -255 111.5t-91 286.5q0 254 132.5 423t340.5 169q156 0 240 -133l18 110h256l-115 -665q-2 -10 -2 -27q0 -72 64 -72q108 0 185 117.5t77 341.5q0 296 -172.5 441t-482.5 145q-154 0 -291 -56.5
t-240.5 -160t-165 -251t-61.5 -311.5q0 -324 171.5 -513t482.5 -189t450 162h264q-71 -151 -255.5 -255t-424.5 -104z" />
    <glyph glyph-name="A" unicode="A" horiz-adv-x="1429" 
d="M885 590l-178 524l-177 -524h355zM569 1462h291l549 -1462h-328l-116 338h-512l-117 -338h-316z" />
    <glyph glyph-name="B" unicode="B" horiz-adv-x="1325" 
d="M700 240q209 0 236 78.5t27 125.5q0 94 -51.5 143.5t-180.5 49.5h-287v-397h256zM711 883q121 0 166 45t45 132t-58.5 125t-197.5 38h-222v-340h267zM150 1462h526q439 0 491 -155.5t52 -240.5t-37 -161t-140 -129q177 -94 196 -191t19 -165t-27.5 -150t-130.5 -176
t-388 -94h-561v1462z" />
    <glyph glyph-name="C" unicode="C" horiz-adv-x="1460" 
d="M102 729q0 354 182 562t496 208q394 0 484 -192.5t110 -307.5l-303 -38q-23 129 -87 202.5t-204 73.5q-176 0 -267 -132t-91 -375t97 -374t249 -131t219.5 73t83.5 208h328q-21 -242 -180 -392.5t-452 -150.5q-315 0 -490 206t-175 560z" />
    <glyph glyph-name="D" unicode="D" horiz-adv-x="1509" 
d="M1092 736q0 466 -396 466h-241v-942h196q335 0 388 184.5t53 291.5zM150 1462h546q336 0 523.5 -182t187.5 -540t-199.5 -549t-562.5 -191h-495v1462z" />
    <glyph glyph-name="E" unicode="E" horiz-adv-x="1236" 
d="M150 1462h997v-260h-692v-319h651v-262h-651v-361h735l-31 -260h-1009v1462z" />
    <glyph glyph-name="F" unicode="F" horiz-adv-x="1196" 
d="M150 1462h960v-262h-655v-344h616v-262h-616v-594h-305v1462z" />
    <glyph glyph-name="G" unicode="G" horiz-adv-x="1486" 
d="M420 731q0 -508 366 -508q188 0 316 80v244h-279v254h561v-619q-113 -104 -268 -161.5t-325 -57.5q-336 0 -512.5 205.5t-176.5 559.5t180.5 562.5t491.5 208.5q264 0 405 -122t183 -328l-303 -39q-26 120 -87 174.5t-198 54.5q-178 0 -266 -133t-88 -375z" />
    <glyph glyph-name="H" unicode="H" horiz-adv-x="1488" 
d="M150 1462h305v-565h579v565h305v-1462h-305v614h-579v-614h-305v1462z" />
    <glyph glyph-name="I" unicode="I" horiz-adv-x="604" 
d="M150 1462h305v-1462h-305v1462z" />
    <glyph glyph-name="J" unicode="J" horiz-adv-x="1302" 
d="M864 520v942h305v-960q0 -263 -145.5 -401t-405.5 -138q-261 0 -402.5 131t-154.5 410h306q13 -145 69 -212t185 -67t186 77t57 218z" />
    <glyph glyph-name="K" unicode="K" horiz-adv-x="1382" 
d="M150 1462h307v-585l538 585h334l-485 -549l538 -913h-340l-411 715l-174 -178v-537h-307v1462z" />
    <glyph glyph-name="L" unicode="L" horiz-adv-x="1196" 
d="M150 1462h305v-1200h692l-33 -262h-964v1462z" />
    <glyph glyph-name="M" unicode="M" horiz-adv-x="1761" 
d="M150 1462h366l365 -1091l374 1091h357v-1462h-281v975l-334 -975h-237l-336 973v-973h-274v1462z" />
    <glyph glyph-name="N" unicode="N" horiz-adv-x="1472" 
d="M150 1462h274l602 -958v958h297v-1462h-272l-605 950v-950h-296v1462z" />
    <glyph glyph-name="O" unicode="O" horiz-adv-x="1597" 
d="M798.5 225q192.5 0 287 131t94.5 374t-94.5 375t-287 132t-286.5 -132t-94 -375t94 -374t286.5 -131zM289.5 1292q187.5 207 513.5 207t509 -206.5t183 -563t-182.5 -561.5t-510.5 -205q-327 0 -513.5 207.5t-186.5 561t187.5 560.5z" />
    <glyph glyph-name="P" unicode="P" horiz-adv-x="1310" 
d="M670 776q220 0 244 87t24 137q0 106 -59 158t-211 52h-217v-434h219zM1239 1006q0 -484 -559 -484h-229v-522h-301v1462h522q567 0 567 -456z" />
    <glyph glyph-name="Q" unicode="Q" horiz-adv-x="1599" 
d="M800.5 1237q-192.5 0 -287.5 -132t-95 -375t95 -377t288 -134q87 0 145 23l-178 219l184 155l166 -208q62 117 62 341t-93.5 356t-286 132zM289.5 1292q187.5 207 513.5 207t509 -206.5t183 -564.5t-186 -556l178 -219l-184 -156l-187 230q-139 -63 -309 -63t-299 53
t-267.5 207t-138.5 507.5t187.5 560.5z" />
    <glyph glyph-name="R" unicode="R" horiz-adv-x="1337" 
d="M930 1014q0 196 -268 196h-211v-407h237q198 0 220 82t22 129zM150 1462h518q316 0 443.5 -129.5t127.5 -312.5q0 -141 -51 -237.5t-172 -161.5l297 -621h-330l-246 549h-286v-549h-301v1462z" />
    <glyph glyph-name="S" unicode="S" horiz-adv-x="1320" 
d="M680 219q199 0 228.5 76t29.5 125t-43 99t-158 73l-190 35q-235 42 -349 143t-114 304t155 314t429 111q509 0 561 -440l-289 -37q-23 121 -87.5 174t-195.5 53q-209 0 -236.5 -63.5t-27.5 -93.5q0 -82 46 -123t157 -64l201 -39q238 -47 348 -152.5t110 -303.5
t-146.5 -322.5t-433.5 -124.5q-288 0 -446.5 128t-171.5 386h310q10 -135 86.5 -196.5t226.5 -61.5z" />
    <glyph glyph-name="T" unicode="T" horiz-adv-x="1269" 
d="M481 1198h-440v264h1188v-264h-441v-1198h-307v1198z" />
    <glyph glyph-name="U" unicode="U" horiz-adv-x="1419" 
d="M709 -37q-588 0 -588 635v864h305v-870q0 -186 65.5 -276.5t219 -90.5t218 90.5t64.5 276.5v870h305v-870q0 -480 -226 -554.5t-363 -74.5z" />
    <glyph glyph-name="V" unicode="V" horiz-adv-x="1427" 
d="M20 1462h340l355 -1034l364 1034h328l-549 -1462h-289z" />
    <glyph glyph-name="W" unicode="W" horiz-adv-x="1982" 
d="M20 1462h345l235 -1016l240 1008h323l250 -1008l221 1016h328l-397 -1462h-297l-273 1081l-264 -1081h-289z" />
    <glyph glyph-name="X" unicode="X" horiz-adv-x="1400" 
d="M522 770l-475 692h348l301 -467l308 467h327l-467 -700l525 -762h-349l-354 532l-340 -532h-334z" />
    <glyph glyph-name="Y" unicode="Y" horiz-adv-x="1345" 
d="M831 0h-305v596l-506 866h340l316 -592l325 592h324l-494 -866v-596z" />
    <glyph glyph-name="Z" unicode="Z" horiz-adv-x="1202" 
d="M61 1200v262h1082v-225l-729 -975h762l-31 -262h-1098v223l731 977h-717z" />
    <glyph glyph-name="bracketleft" unicode="[" horiz-adv-x="684" 
d="M147 1503h517v-246h-228v-1265h228v-246h-517v1757z" />
    <glyph glyph-name="backslash" unicode="\" horiz-adv-x="784" 
d="M293 1503l479 -1503h-280l-480 1503h281z" />
    <glyph glyph-name="bracketright" unicode="]" horiz-adv-x="684" 
d="M20 -8h228v1265h-228v246h517v-1757h-517v246z" />
    <glyph glyph-name="asciicircum" unicode="^" 
d="M489 1462h232l416 -856h-299l-234 514l-233 -514h-297z" />
    <glyph glyph-name="underscore" unicode="_" horiz-adv-x="1024" 
d="M0 -252h1024v-106h-1024v106z" />
    <glyph glyph-name="grave" unicode="`" horiz-adv-x="847" 
d="M137 1534h326l246 -317h-265z" />
    <glyph glyph-name="a" unicode="a" horiz-adv-x="1148" 
d="M348 294q0 -44 37 -75t125 -31t167 59t79 175v55l-127 -6q-236 -10 -258.5 -71.5t-22.5 -105.5zM442 -27q-268 0 -324.5 117.5t-56.5 215.5t49.5 167.5t156 121.5t354.5 62l137 7v53q0 98 -54.5 135t-128.5 37q-170 0 -194 -129l-262 24q29 168 147.5 243t319.5 75
q348 0 397 -164t49 -262v-676h-270v135q-142 -162 -320 -162z" />
    <glyph glyph-name="b" unicode="b" horiz-adv-x="1275" 
d="M887 532q0 336 -228 336q-98 0 -167 -59q-80 -76 -80 -250v-33q0 -195 73 -268q65 -59 168 -59q163 0 198.5 121.5t35.5 211.5zM406 0h-279v1462h287v-522q122 162 336 162t325 -151.5t111 -411.5t-125.5 -416t-329.5 -156q-203 0 -325 152v-119z" />
    <glyph glyph-name="c" unicode="c" horiz-adv-x="1165" 
d="M608 197q170 0 189 190h290q-16 -193 -131.5 -306.5t-347.5 -113.5q-388 0 -453 219.5t-65 411.5t140.5 348t390.5 156q310 0 376 -145.5t76 -227.5l-289 -39q-10 82 -47 132t-127 50q-223 0 -223 -338t221 -337z" />
    <glyph glyph-name="d" unicode="d" horiz-adv-x="1273" 
d="M862 547q0 191 -66 257t-175 66q-162 0 -197 -120.5t-35 -212.5q0 -177 61.5 -256.5t163.5 -79.5t168 59q80 80 80 250v37zM860 1462h287v-1462h-279v141q-124 -174 -340 -174t-327 151.5t-111 410.5t123.5 416t325.5 157q203 0 321 -139v499z" />
    <glyph glyph-name="e" unicode="e" horiz-adv-x="1206" 
d="M842 653q0 234 -224 234q-162 0 -198.5 -92.5t-38.5 -141.5h461zM625 -33q-266 0 -400.5 147.5t-134.5 415.5t146 420t390 152q245 0 368.5 -141.5t123.5 -380.5v-115h-741q4 -129 65.5 -202t184.5 -73q170 0 200 144h279q-29 -180 -144.5 -273.5t-336.5 -93.5z" />
    <glyph glyph-name="f" unicode="f" horiz-adv-x="776" 
d="M197 846h-168v223h168v35q0 191 102.5 283t269.5 92q121 0 224 -31l-39 -209q-66 16 -123 16t-102.5 -31.5t-45.5 -113.5v-41h248v-223h-248v-846h-286v846z" />
    <glyph glyph-name="g" unicode="g" horiz-adv-x="1275" 
d="M864 571q0 175 -67 237t-174 62q-161 0 -196.5 -110.5t-35.5 -190.5q0 -170 64.5 -240.5t160.5 -70.5q248 0 248 285v28zM870 1069h279v-919q0 -425 -185.5 -497.5t-319.5 -72.5q-258 0 -373 85t-136 267h291q15 -77 62.5 -103t139.5 -26q91 0 136 30t71.5 90.5
t26.5 232.5v32q-107 -157 -327 -157q-221 0 -333 145.5t-112 386.5t124.5 390t331.5 149t324 -154v121z" />
    <glyph glyph-name="h" unicode="h" 
d="M728 1102q191 0 279.5 -95.5t88.5 -299.5v-707h-287v668q0 113 -42.5 153.5t-106.5 40.5q-105 0 -179 -63q-67 -67 -67 -156v-643h-287v1462h287v-528q123 168 314 168z" />
    <glyph glyph-name="i" unicode="i" horiz-adv-x="544" 
d="M125 1462h295v-258h-295v258zM129 1069h287v-1069h-287v1069z" />
    <glyph glyph-name="j" unicode="j" horiz-adv-x="544" 
d="M6 -145q55 0 89 25.5t34 109.5v1079h287v-1073q0 -197 -89 -286t-264 -89q-102 0 -219 35l41 215q66 -16 121 -16zM125 1462h295v-258h-295v258z" />
    <glyph glyph-name="k" unicode="k" horiz-adv-x="1181" 
d="M127 1462h281v-766l411 373h332l-389 -369l420 -700h-310l-315 541l-149 -135v-406h-281v1462z" />
    <glyph glyph-name="l" unicode="l" horiz-adv-x="544" 
d="M129 1462h287v-1462h-287v1462z" />
    <glyph glyph-name="m" unicode="m" horiz-adv-x="1792" 
d="M1343 1102q166 0 249 -91t83 -296v-715h-286v676q0 152 -52.5 169t-87.5 17q-77 0 -141 -64t-64 -143v-655h-286v676q0 152 -53 169t-87 17q-78 0 -141 -63t-63 -156v-643h-287v1069h279v-143q115 176 307 176q232 0 295 -184q139 184 335 184z" />
    <glyph glyph-name="n" unicode="n" 
d="M737 1102q182 0 270.5 -95.5t88.5 -299.5v-707h-287v668q0 113 -42.5 153.5t-106.5 40.5q-105 0 -179 -63q-67 -67 -67 -156v-643h-287v1069h279v-147q121 180 331 180z" />
    <glyph glyph-name="o" unicode="o" horiz-adv-x="1261" 
d="M387 534q-1 -338 243 -337q244 0 244 337.5t-243.5 337.5t-243.5 -338zM231.5 114.5q-141.5 147.5 -141.5 416.5t146.5 420t394.5 151t394 -149t146 -415q0 -267 -146 -419t-399 -152t-394.5 147.5z" />
    <glyph glyph-name="p" unicode="p" horiz-adv-x="1275" 
d="M887 532q0 336 -228 336q-98 0 -167 -59q-80 -76 -80 -250v-33q0 -195 73 -268q65 -59 168 -59q163 0 198.5 121.5t35.5 211.5zM127 1069h279v-141q122 174 340 174t329 -151.5t111 -411.5t-125.5 -416t-339.5 -156q-80 0 -159 29t-148 115v-508h-287v1466z" />
    <glyph glyph-name="q" unicode="q" horiz-adv-x="1275" 
d="M864 547q0 274 -99 298.5t-144 24.5q-99 0 -164.5 -79.5t-65.5 -249.5q0 -264 89 -302t136 -38q102 0 168 59q80 80 80 250v37zM870 1069h279v-1466h-287v530q-55 -82 -143 -124t-180 -42q-227 0 -338 151.5t-111 410.5t123.5 416t331.5 157t325 -154v121z" />
    <glyph glyph-name="r" unicode="r" horiz-adv-x="858" 
d="M694 1087q62 0 115 -10l-35 -260q-48 12 -108 12q-181 0 -216.5 -83.5t-35.5 -127.5v-618h-287v1069h279v-149q105 167 288 167z" />
    <glyph glyph-name="s" unicode="s" horiz-adv-x="1099" 
d="M574 889q-218 0 -218 -106q0 -46 32 -69.5t124 -39.5l135 -23q216 -34 299.5 -113t83.5 -234t-114.5 -246t-354.5 -91q-333 0 -414 132t-88 241h275q14 -94 75.5 -123t155.5 -29q183 0 183 101q0 49 -28 79.5t-106 43.5l-147 24q-195 31 -290 105.5t-95 227.5t128.5 243
t334.5 90q343 0 403 -128t72 -196l-256 -33q-35 144 -190 144z" />
    <glyph glyph-name="t" unicode="t" horiz-adv-x="776" 
d="M193 346v500h-168v223h168v285h286v-285h246v-223h-246v-494q0 -84 35 -113.5t96 -29.5t111 14l41 -211q-105 -32 -223 -32q-176 0 -261 83.5t-85 282.5z" />
    <glyph glyph-name="u" unicode="u" horiz-adv-x="1202" 
d="M117 362v707h286v-668q0 -115 40.5 -154.5t104.5 -39.5t100 16.5t69 46.5q71 63 71 156v643h287v-1069h-278v147q-126 -180 -317 -180t-277 95.5t-86 299.5z" />
    <glyph glyph-name="v" unicode="v" horiz-adv-x="1161" 
d="M16 1069h332l240 -743l239 743h318l-422 -1069h-287z" />
    <glyph glyph-name="w" unicode="w" horiz-adv-x="1583" 
d="M12 1069h312l149 -709l205 701h250l194 -701l150 709h299l-311 -1069h-279l-190 705l-193 -705h-274z" />
    <glyph glyph-name="x" unicode="x" horiz-adv-x="1120" 
d="M403 549l-350 520h338l182 -305l205 305h299l-346 -504l373 -565h-332l-217 348l-227 -348h-312z" />
    <glyph glyph-name="y" unicode="y" horiz-adv-x="1161" 
d="M274 -168q59 0 94 27.5t60 97.5l33 90l-445 1022h332l250 -702l233 702h314l-432 -1100q-37 -92 -70 -160.5t-95.5 -137t-223.5 -68.5q-114 0 -215 32l47 213q59 -16 118 -16z" />
    <glyph glyph-name="z" unicode="z" horiz-adv-x="1024" 
d="M86 846v223h875v-195l-519 -651h543l-27 -223h-882v195l520 651h-510z" />
    <glyph glyph-name="braceleft" unicode="{" horiz-adv-x="681" 
d="M461 82q0 -96 119 -96h92v-240h-185q-131 0 -212.5 75t-81.5 228v313q0 66 -32 105t-98 39h-18v237h18q66 0 98 39t32 105v313q0 154 81.5 228.5t212.5 74.5h185v-239h-92q-119 0 -119 -97v-344q0 -150 -129 -198q129 -49 129 -199v-344z" />
    <glyph glyph-name="bar" unicode="|" horiz-adv-x="565" 
d="M147 1503h271v-1757h-271v1757z" />
    <glyph glyph-name="braceright" unicode="}" horiz-adv-x="681" 
d="M221 1167q0 97 -119 97h-92v239h185q133 0 213.5 -74.5t80.5 -228.5v-313q0 -66 34 -105t95 -39h19v-237h-19q-61 0 -95 -39t-34 -105v-313q0 -154 -80.5 -228.5t-213.5 -74.5h-185v240h92q119 0 119 96v344q0 151 133 199q-133 48 -133 198v344z" />
    <glyph glyph-name="asciitilde" unicode="~" 
d="M61 463q0 225 80 327.5t254 102.5q66 0 119 -23.5t99 -51t86 -50.5t81 -23q113 0 113 144h256q0 -223 -79 -326.5t-253 -103.5q-96 0 -180 52t-125 75.5t-80 23.5q-113 0 -113 -147h-258z" />
    <glyph glyph-name="uni00A0" unicode="&#xa0;" horiz-adv-x="454" 
 />
    <glyph glyph-name="exclamdown" unicode="&#xa1;" horiz-adv-x="561" 
d="M139 1069h283v-326h-283v326zM147 606h267l20 -1003h-307z" />
    <glyph glyph-name="cent" unicode="&#xa2;" 
d="M563 1042q-151 -47 -151 -316t151 -316v632zM238.5 1105q117.5 150 324.5 173v195h133v-191q278 -17 339 -155t71 -216l-285 -43q-18 149 -125 179v-641q119 27 131 184h291q-16 -180 -116.5 -292t-305.5 -126v-192h-133v194q-221 19 -331.5 165t-110.5 381t117.5 385z
" />
    <glyph glyph-name="sterling" unicode="&#xa3;" 
d="M537 526q0 -165 -84 -280h700l-33 -246h-966l2 203q116 137 116 284q0 71 -6 115h-157v223h129q-19 111 -19 200t37 176t129 170t287 83q329 0 383.5 -145.5t64.5 -214.5l-243 -37q-18 76 -57.5 119t-137.5 43t-147.5 -58.5t-49.5 -144.5t7.5 -120t11.5 -71h430v-223
h-399q2 -18 2 -23v-53z" />
    <glyph glyph-name="currency" unicode="&#xa4;" 
d="M606.5 387q65.5 0 111.5 22.5t74.5 62.5t42 94.5t13.5 120t-13.5 120.5t-42 95t-74.5 62.5t-111.5 22.5t-111.5 -22.5t-75 -62.5t-42 -95t-13 -120.5t13 -120t42 -94.5t75 -62.5t111.5 -22.5zM131 684q0 158 78 293l-123 123l172 166l127 -140q105 58 221 58t221 -58
l127 140l170 -166l-120 -123q77 -131 77 -289t-77 -291l120 -125l-170 -163l-127 137q-110 -56 -221 -56t-221 56l-127 -137l-172 163l123 125q-78 129 -78 287z" />
    <glyph glyph-name="yen" unicode="&#xa5;" 
d="M125 475h344v141h-344v199h221l-323 600h301l288 -586l293 586h285l-322 -600h226v-199h-344v-141h344v-199h-344v-276h-281v276h-344v199z" />
    <glyph glyph-name="brokenbar" unicode="&#xa6;" horiz-adv-x="565" 
d="M147 469h271v-723h-271v723zM147 1503h271v-688h-271v688z" />
    <glyph glyph-name="section" unicode="&#xa7;" horiz-adv-x="1142" 
d="M642 463q178 0 179 145q0 57 -33 100t-122 64l-105 27q-33 8 -83 8t-96 -36t-46 -105t31 -111.5t125 -65.5l79 -18q31 -8 71 -8zM887 371q168 -89 168 -265q0 -178 -123.5 -266t-346.5 -88q-222 0 -355 94.5t-156 327.5h282q22 -162 100.5 -178t129.5 -16q192 0 192 118
q0 41 -24.5 79t-116.5 61l-201 47q-192 50 -266 129.5t-74 235.5q0 155 172 245q-168 84 -168 276q0 151 130.5 239.5t349.5 88.5q338 0 403.5 -132t79.5 -191l-258 -62q-29 90 -80 124t-154 34q-102 0 -145 -34t-43 -80t26 -76t113 -52l219 -55q172 -45 247 -121t75 -183
t-39 -178t-137 -122z" />
    <glyph glyph-name="dieresis" unicode="&#xa8;" horiz-adv-x="847" 
d="M498 1501h266v-256h-266v256zM84 1501h266v-256h-266v256z" />
    <glyph glyph-name="copyright" unicode="&#xa9;" horiz-adv-x="1591" 
d="M633 733q0 -246 168 -246q129 0 141 144h221q-12 -145 -100 -230.5t-271 -85.5t-280.5 112t-97.5 301q0 190 106 304.5t280 114.5q173 0 256 -78t97 -201l-215 -34q-24 141 -135 141q-91 0 -130.5 -68.5t-39.5 -173.5zM1183 1153.5q-150 159.5 -389 159.5
q-238 0 -388 -159.5t-150 -423.5t150 -423.5t390 -159.5q237 0 387 159.5t150 423.5t-150 423.5zM792 0q-152 0 -281.5 52t-222.5 147.5t-144.5 230.5t-51.5 380t202 448.5t509 203.5q306 0 500 -200t194 -529.5t-201.5 -531t-503.5 -201.5z" />
    <glyph glyph-name="ordfeminine" unicode="&#xaa;" horiz-adv-x="872" 
d="M274 915q0 -80 103 -79q82 0 131 36q66 45 65 134v38l-88 -4q-131 -7 -163.5 -31t-40 -45.5t-7.5 -48.5zM578 788q-104 -116 -236 -116q-137 0 -210 61t-73 160q0 98 37 149.5t115.5 91.5t267.5 50l94 4v24q0 72 -37.5 98.5t-95.5 26.5q-122 0 -141 -92l-199 19
q25 123 111 179t209 56t242.5 -40.5t119.5 -268.5v-498h-204v96z" />
    <glyph glyph-name="guillemotleft" unicode="&#xab;" horiz-adv-x="1120" 
d="M532 528l261 459h286l-237 -457l237 -469h-291zM72 528l262 459h287l-238 -457l238 -469h-291z" />
    <glyph glyph-name="logicalnot" unicode="&#xac;" 
d="M147 903h897v-553h-256v305h-641v248z" />
    <glyph glyph-name="uni00AD" unicode="&#xad;" horiz-adv-x="796" 
d="M92 754h613v-283h-613v283z" />
    <glyph glyph-name="registered" unicode="&#xae;" horiz-adv-x="1001" 
d="M499.5 698q145.5 0 234.5 90.5t89 260.5t-89 260t-234.5 90t-233.5 -90t-88 -260t88 -260.5t233.5 -90.5zM186.5 1375.5q125.5 123.5 319.5 123.5t314 -122t120 -328t-124 -328.5t-320 -122.5t-315.5 121.5t-119.5 327t125.5 329zM571 1150q0 38 -82 38h-57v-107h70
q43 0 56 15.5t13 53.5zM324 1274h168q160 0 176 -53t16 -89q0 -74 -70 -114l93 -178h-123l-74 153h-78v-153h-108v434z" />
    <glyph glyph-name="macron" unicode="&#xaf;" horiz-adv-x="847" 
d="M125 1473h598v-220h-598v220z" />
    <glyph glyph-name="degree" unicode="&#xb0;" horiz-adv-x="720" 
d="M360 1026q57 0 91 36t34 96t-33.5 96t-91.5 36t-91 -36t-33 -96t33.5 -96t90.5 -36zM146 1369q85 85 216 85t214 -86t83 -211t-82.5 -211t-214.5 -86q-131 0 -216 85t-85 212t85 212z" />
    <glyph glyph-name="plusminus" unicode="&#xb1;" 
d="M158 248h319v325h-358v248h358v389h258v-389h359v-248h-359v-325h320v-248h-897v248z" />
    <glyph glyph-name="twosuperior" unicode="&#xb2;" horiz-adv-x="843" 
d="M80 1161q61 289 345 289q154 0 232 -70.5t78 -193.5q0 -84 -54.5 -173t-132 -147.5t-118.5 -93.5h315l-22 -182h-610v151q27 25 73.5 61t116.5 96t105.5 92t59.5 61.5t35 59.5t11 69t-23.5 64.5t-73.5 25.5t-82 -28t-46 -107z" />
    <glyph glyph-name="threesuperior" unicode="&#xb3;" horiz-adv-x="843" 
d="M438 719q131 -1 131 105t-129 106h-86v164h88q55 0 84 27.5t29 70.5q0 94 -117 94q-53 0 -88 -25.5t-47 -97.5l-192 27q23 115 100 187.5t235 72.5t232 -68.5t74 -175.5t-113 -182q66 -27 98.5 -80t32.5 -110q0 -125 -76 -202t-250 -77t-252.5 87t-85.5 220h193
q15 -143 139 -143z" />
    <glyph glyph-name="acute" unicode="&#xb4;" horiz-adv-x="847" 
d="M383 1534h326l-308 -317h-264z" />
    <glyph glyph-name="mu" unicode="&#xb5;" 
d="M414 -397h-287v1466h287v-668q0 -115 41 -154.5t104 -39.5t99 16.5t69 46.5q72 64 72 156v643h286v-1069h-278v147q-99 -172 -256 -172q-93 0 -137 52v-424z" />
    <glyph glyph-name="paragraph" unicode="&#xb6;" horiz-adv-x="1341" 
d="M175 1335q144 127 474 127h559v-1747h-270v1514h-176v-1514h-270v822q-241 19 -351 146.5t-110 325.5q0 199 144 326z" />
    <glyph glyph-name="periodcentered" unicode="&#xb7;" horiz-adv-x="503" 
d="M106 928h293v-330h-293v330z" />
    <glyph glyph-name="cedilla" unicode="&#xb8;" horiz-adv-x="847" 
d="M365 -303q79 0 79 57q0 29 -24.5 43.5t-89.5 14.5h-74l80 204h158l-41 -112q151 -22 168.5 -83t17.5 -89q0 -176 -283 -176q-76 0 -149 12v141q79 -12 158 -12z" />
    <glyph glyph-name="onesuperior" unicode="&#xb9;" horiz-adv-x="843" 
d="M575 1415v-825h-217v616l-190 -102l-82 149l289 162h200z" />
    <glyph glyph-name="ordmasculine" unicode="&#xba;" horiz-adv-x="862" 
d="M254 1078q0 -236 177 -236t177 236.5t-177 236.5q-177 -1 -177 -237zM27 1078q0 200 110.5 310.5t294.5 110.5t294 -110.5t110 -307.5t-111.5 -310.5t-296.5 -113.5q-186 0 -293.5 110.5t-107.5 310.5z" />
    <glyph glyph-name="guillemotright" unicode="&#xbb;" horiz-adv-x="1120" 
d="M279 520l-238 467h293l256 -465l-260 -461h-289zM739 520l-239 467h293l256 -465l-261 -461h-288z" />
    <glyph glyph-name="onequarter" unicode="&#xbc;" horiz-adv-x="1918" 
d="M516 1415v-825h-217v616l-190 -102l-82 149l288 162h201zM700 0h-276l713 1415h276zM1520 332v254l-189 -254h189zM1714 827v-495h107l-21 -164h-86v-166h-194v166h-394v129l400 530h188z" />
    <glyph glyph-name="onehalf" unicode="&#xbd;" horiz-adv-x="1918" 
d="M516 1415v-825h-217v616l-190 -102l-82 149l288 162h201zM641 0h-276l712 1415h277zM1569 592q0 38 -24 64q-23 26 -73 26t-82 -28t-47 -107l-208 26q61 292 346 290q153 -1 231 -71t78 -194q0 -85 -38 -147t-94 -118q-56 -55 -94 -85t-79 -64h315l-22 -182h-611v152
q27 25 80 65t235 201q87 76 87 172z" />
    <glyph glyph-name="threequarters" unicode="&#xbe;" horiz-adv-x="1918" 
d="M438 719q131 -1 131 105t-129 106h-86v164h88q55 0 84 28t29 70q0 96 -117 94q-53 0 -88 -26t-47 -97l-192 27q23 116 99 188t236 72q158 0 232 -69t74 -176t-113 -181q67 -27 99 -80t32 -110q0 -125 -76 -202t-247 -77t-265 98q-69 76 -76 209h193q15 -143 139 -143z
M799 0h-277l713 1415h276zM1520 332v254l-189 -254h189zM1714 827v-495h107l-21 -164h-86v-166h-194v166h-394v129l400 530h188z" />
    <glyph glyph-name="questiondown" unicode="&#xbf;" horiz-adv-x="1021" 
d="M346 1069h283v-326h-283v326zM128 -317.5q-124 100.5 -124 267.5t64.5 236.5t98.5 103.5l89 88q88 89 88 193v35h283v-47q0 -138 -78 -218.5t-110 -111.5q-78 -76 -107 -121t-29 -121q0 -77 46 -121t137 -44t147.5 47t81.5 166l264 -33q-76 -420 -508 -420
q-219 0 -343 100.5z" />
    <glyph glyph-name="Agrave" unicode="&#xc0;" horiz-adv-x="1429" 
d="M885 590l-178 524l-177 -524h355zM569 1462h291l549 -1462h-328l-116 338h-512l-117 -338h-316zM645 1878l262 -297h-268l-326 297h332z" />
    <glyph glyph-name="Aacute" unicode="&#xc1;" horiz-adv-x="1429" 
d="M885 590l-178 524l-177 -524h355zM569 1462h291l549 -1462h-328l-116 338h-512l-117 -338h-316zM782 1878h332l-326 -297h-268z" />
    <glyph glyph-name="Acircumflex" unicode="&#xc2;" horiz-adv-x="1429" 
d="M885 590l-178 524l-177 -524h355zM569 1462h291l549 -1462h-328l-116 338h-512l-117 -338h-316zM567 1878h289l248 -297h-246l-147 148l-146 -148h-246z" />
    <glyph glyph-name="Atilde" unicode="&#xc3;" horiz-adv-x="1429" 
d="M885 590l-178 524l-177 -524h355zM569 1462h291l549 -1462h-328l-116 338h-512l-117 -338h-316zM309 1583q0 155 69 223t185 68q62 0 147 -45q32 -17 62 -31t62 -14q34 0 56 16t21 66h203q0 -154 -68 -222t-184 -67q-70 0 -147 46q-31 17 -60 31t-63 15q-34 0 -58 -17
q-22 -17 -22 -69h-203z" />
    <glyph glyph-name="Adieresis" unicode="&#xc4;" horiz-adv-x="1429" 
d="M885 590l-178 524l-177 -524h355zM569 1462h291l549 -1462h-328l-116 338h-512l-117 -338h-316zM788 1866h275v-264h-275v264zM362 1866h275v-264h-275v264z" />
    <glyph glyph-name="Aring" unicode="&#xc5;" horiz-adv-x="1429" 
d="M618 1630q0 -98 94 -98t93 98q1 98 -93 99q-94 -1 -94 -99zM885 590l-178 524l-177 -524h355zM465 1628q0 177 98.5 210.5t174.5 33.5t148 -62.5t72 -187.5t-90 -186l541 -1436h-328l-116 338h-512l-117 -338h-316l537 1432q-92 65 -92 196z" />
    <glyph glyph-name="AE" unicode="&#xc6;" horiz-adv-x="2154" 
d="M1120 690v512h-114l-283 -512h397zM2064 1462v-260h-649v-319h610v-262h-610v-361h692l-30 -260h-957v438h-536l-242 -438h-342l850 1462h1214z" />
    <glyph glyph-name="Ccedilla" unicode="&#xc7;" horiz-adv-x="1460" 
d="M714 -315q84 0 84.5 45t-25 59t-93.5 14h-76l66 166q-272 31 -420 234t-148 542t182 546.5t496 207.5q394 0 484 -192.5t110 -307.5l-303 -38q-23 129 -87 202.5t-204 73.5q-176 0 -267 -132t-91 -375t97 -374t249 -131t219.5 73t83.5 208h328q-21 -231 -166 -378.5
t-404 -162.5l-24 -69q196 -20 196 -175q0 -178 -294 -178q-77 0 -154 13v143q77 -14 161 -14z" />
    <glyph glyph-name="Egrave" unicode="&#xc8;" horiz-adv-x="1236" 
d="M150 1462h997v-260h-692v-319h651v-262h-651v-361h735l-31 -260h-1009v1462zM612 1878l262 -297h-268l-325 297h331z" />
    <glyph glyph-name="Eacute" unicode="&#xc9;" horiz-adv-x="1236" 
d="M150 1462h997v-260h-692v-319h651v-262h-651v-361h735l-31 -260h-1009v1462zM709 1878h331l-325 -297h-269z" />
    <glyph glyph-name="Ecircumflex" unicode="&#xca;" horiz-adv-x="1236" 
d="M150 1462h997v-260h-692v-319h651v-262h-651v-361h735l-31 -260h-1009v1462zM506 1878h289l247 -297h-245l-148 148l-145 -148h-246z" />
    <glyph glyph-name="Edieresis" unicode="&#xcb;" horiz-adv-x="1236" 
d="M150 1462h997v-260h-692v-319h651v-262h-651v-361h735l-31 -260h-1009v1462zM727 1866h274v-264h-274v264zM301 1866h274v-264h-274v264z" />
    <glyph glyph-name="Igrave" unicode="&#xcc;" horiz-adv-x="604" 
d="M150 1462h305v-1462h-305v1462zM248 1878l262 -297h-268l-326 297h332z" />
    <glyph glyph-name="Iacute" unicode="&#xcd;" horiz-adv-x="604" 
d="M150 1462h305v-1462h-305v1462zM365 1878h331l-325 -297h-269z" />
    <glyph glyph-name="Icircumflex" unicode="&#xce;" horiz-adv-x="604" 
d="M150 1462h305v-1462h-305v1462zM160 1878h289l247 -297h-245l-148 148l-145 -148h-246z" />
    <glyph glyph-name="Idieresis" unicode="&#xcf;" horiz-adv-x="604" 
d="M150 1462h305v-1462h-305v1462zM381 1866h274v-264h-274v264zM-45 1866h274v-264h-274v264z" />
    <glyph glyph-name="Eth" unicode="&#xd0;" horiz-adv-x="1546" 
d="M688 260q440 0 440 477q0 340 -143 402.5t-252 62.5h-241v-321h311v-252h-311v-369h196zM186 629h-166v252h166v581h547q336 0 523.5 -182t187.5 -539t-199 -549t-563 -192h-496v629z" />
    <glyph glyph-name="Ntilde" unicode="&#xd1;" horiz-adv-x="1472" 
d="M150 1462h274l602 -958v958h297v-1462h-272l-605 950v-950h-296v1462zM326 1583q0 155 68 223t186 68q61 0 146 -45q32 -17 62 -31t63 -14t55 16t22 66h202q0 -154 -68 -222t-183 -67q-69 0 -148 46q-31 17 -59 31t-64 15q-36 0 -58 -17t-22 -69h-202z" />
    <glyph glyph-name="Ograve" unicode="&#xd2;" horiz-adv-x="1597" 
d="M799 225q379 0 381 506q0 242 -94 374t-288 132q-192 0 -286 -132t-94 -375t94 -374t287 -131zM804 1499q326 0 508 -206q183 -206 183 -562q0 -355 -183 -562q-183 -206 -510 -206q-328 0 -513 206t-186 561t187 562t514 207zM772 1878l262 -297h-268l-326 297h332z" />
    <glyph glyph-name="Oacute" unicode="&#xd3;" horiz-adv-x="1597" 
d="M799 225q379 0 381 506q0 242 -94 374t-288 132q-192 0 -286 -132t-94 -375t94 -374t287 -131zM804 1499q326 0 508 -206q183 -206 183 -562q0 -355 -183 -562q-183 -206 -510 -206q-328 0 -513 206t-186 561t187 562t514 207zM846 1878h332l-326 -297h-268z" />
    <glyph glyph-name="Ocircumflex" unicode="&#xd4;" horiz-adv-x="1597" 
d="M799 225q379 0 381 506q0 242 -94 374t-288 132q-192 0 -286 -132t-94 -375t94 -374t287 -131zM804 1499q326 0 508 -206q183 -206 183 -562q0 -355 -183 -562q-183 -206 -510 -206q-328 0 -513 206t-186 561t187 562t514 207zM653 1878h289l248 -297h-246l-147 148
l-146 -148h-245z" />
    <glyph glyph-name="Otilde" unicode="&#xd5;" horiz-adv-x="1597" 
d="M799 225q379 0 381 506q0 242 -94 374t-288 132q-192 0 -286 -132t-94 -375t94 -374t287 -131zM804 1499q326 0 508 -206q183 -206 183 -562q0 -355 -183 -562q-183 -206 -510 -206q-328 0 -513 206t-186 561t187 562t514 207zM395 1583q0 155 69 223t185 68
q62 0 147 -45q32 -17 62 -31t62 -14q34 0 56 16t21 66h203q0 -154 -68 -222t-184 -67q-70 0 -147 46q-31 17 -60 31t-63 15q-34 0 -58 -17q-22 -17 -22 -69h-203z" />
    <glyph glyph-name="Odieresis" unicode="&#xd6;" horiz-adv-x="1597" 
d="M799 225q379 0 381 506q0 242 -94 374t-288 132q-192 0 -286 -132t-94 -375t94 -374t287 -131zM804 1499q326 0 508 -206q183 -206 183 -562q0 -355 -183 -562q-183 -206 -510 -206q-328 0 -513 206t-186 561t187 562t514 207zM874 1866h275v-264h-275v264zM449 1866h274
v-264h-274v264z" />
    <glyph glyph-name="multiply" unicode="&#xd7;" 
d="M430 696l-285 289l174 174l287 -287l287 287l174 -174l-285 -289l285 -286l-174 -174l-287 286l-287 -286l-174 174z" />
    <glyph glyph-name="Oslash" unicode="&#xd8;" horiz-adv-x="1597" 
d="M799 1237q-193 0 -287 -132t-94 -348t57 -337l510 772q-84 45 -186 45zM1180 718q0 230 -76 357l-520 -788q86 -61 215 -62q193 0 287 131.5t94 361.5zM299 156q-197 205 -197 567t187.5 569t511.5 207q190 0 336 -76l104 158l137 -90l-106 -160q223 -205 223 -581
q0 -377 -182.5 -582t-511.5 -205q-208 0 -371 90l-115 -172l-137 90z" />
    <glyph glyph-name="Ugrave" unicode="&#xd9;" horiz-adv-x="1419" 
d="M709 -37q-588 0 -588 635v864h305v-870q0 -186 66 -276t220 -91q154 0 218 90t63 277v870h305v-870q0 -481 -343 -593q-110 -36 -246 -36zM662 1878l262 -297h-269l-325 297h332z" />
    <glyph glyph-name="Uacute" unicode="&#xda;" horiz-adv-x="1419" 
d="M709 -37q-588 0 -588 635v864h305v-870q0 -186 66 -276t220 -91q154 0 218 90t63 277v870h305v-870q0 -481 -343 -593q-110 -36 -246 -36zM778 1878h332l-326 -297h-268z" />
    <glyph glyph-name="Ucircumflex" unicode="&#xdb;" horiz-adv-x="1419" 
d="M709 -37q-588 0 -588 635v864h305v-870q0 -186 66 -276t220 -91q154 0 218 90t63 277v870h305v-870q0 -481 -343 -593q-110 -36 -246 -36zM563 1878h289l248 -297h-246l-147 148l-146 -148h-246z" />
    <glyph glyph-name="Udieresis" unicode="&#xdc;" horiz-adv-x="1419" 
d="M709 -37q-588 0 -588 635v864h305v-870q0 -186 66 -276t220 -91q154 0 218 90t63 277v870h305v-870q0 -481 -343 -593q-110 -36 -246 -36zM784 1866h275v-264h-275v264zM358 1866h275v-264h-275v264z" />
    <glyph glyph-name="Yacute" unicode="&#xdd;" horiz-adv-x="1345" 
d="M831 0h-305v596l-506 866h340l316 -592l325 592h324l-494 -866v-596zM750 1878h331l-325 -297h-269z" />
    <glyph glyph-name="Thorn" unicode="&#xde;" horiz-adv-x="1310" 
d="M670 524q220 0 244 87t24 137q0 107 -59 158.5t-211 51.5h-217v-434h219zM1239 754q0 -484 -559 -484h-229v-270h-301v1462h301v-252h221q567 0 567 -456z" />
    <glyph glyph-name="germandbls" unicode="&#xdf;" horiz-adv-x="1236" 
d="M786 1079q0 183 -182 183q-205 0 -205 -265v-997h-272v1026q0 209 127.5 331t341.5 122q215 0 341 -91.5t126 -277.5q0 -102 -40 -173t-126 -124q141 -43 206.5 -140.5t65.5 -254.5q0 -300 -160.5 -368t-281.5 -68t-219 30l41 211q70 -18 133 -18q117 0 163 57t46 179
t-71.5 169t-219.5 47h-61v220h65q182 0 182 202z" />
    <glyph glyph-name="agrave" unicode="&#xe0;" horiz-adv-x="1148" 
d="M348 294q0 -44 37 -75t125 -31t167 59t79 175v55l-127 -6q-238 -11 -271 -105q-10 -28 -10 -72zM762 135q-142 -162 -320 -162q-182 0 -281 81q-100 81 -100 239q0 286 358 344q99 16 202 20l137 7v53q0 98 -54 135t-129 37q-170 0 -194 -129l-262 24q29 168 147 243
q119 75 320 75q450 0 446 -426v-676h-270v135zM229 1534h326l246 -317h-264z" />
    <glyph glyph-name="aacute" unicode="&#xe1;" horiz-adv-x="1148" 
d="M348 294q0 -44 37 -75t125 -31t167 59t79 175v55l-127 -6q-238 -11 -271 -105q-10 -28 -10 -72zM762 135q-142 -162 -320 -162q-182 0 -281 81q-100 81 -100 239q0 286 358 344q99 16 202 20l137 7v53q0 98 -54 135t-129 37q-170 0 -194 -129l-262 24q29 168 147 243
q119 75 320 75q450 0 446 -426v-676h-270v135zM631 1534h325l-307 -317h-264z" />
    <glyph glyph-name="acircumflex" unicode="&#xe2;" horiz-adv-x="1148" 
d="M348 294q0 -44 37 -75t125 -31t167 59t79 175v55l-127 -6q-238 -11 -271 -105q-10 -28 -10 -72zM762 135q-142 -162 -320 -162q-182 0 -281 81q-100 81 -100 239q0 286 358 344q99 16 202 20l137 7v53q0 98 -54 135t-129 37q-170 0 -194 -129l-262 24q29 168 147 243
q119 75 320 75q450 0 446 -426v-676h-270v135zM424 1534h289l245 -317h-245l-146 169l-143 -169h-246z" />
    <glyph glyph-name="atilde" unicode="&#xe3;" horiz-adv-x="1148" 
d="M348 294q0 -44 37 -75t125 -31t167 59t79 175v55l-127 -6q-238 -11 -271 -105q-10 -28 -10 -72zM762 135q-142 -162 -320 -162q-182 0 -281 81q-100 81 -100 239q0 286 358 344q99 16 202 20l137 7v53q0 98 -54 135t-129 37q-170 0 -194 -129l-262 24q29 168 147 243
q119 75 320 75q450 0 446 -426v-676h-270v135zM182 1233q0 155 66 223t178 68q57 0 116 -30q60 -30 90 -46q30 -14 62 -14t55 16q22 16 21 66h193q0 -154 -66 -222t-176 -67q-62 0 -146 46q-33 17 -61 31t-62 15q-79 0 -77 -86h-193z" />
    <glyph glyph-name="adieresis" unicode="&#xe4;" horiz-adv-x="1148" 
d="M348 294q0 -44 37 -75t125 -31t167 59t79 175v55l-127 -6q-238 -11 -271 -105q-10 -28 -10 -72zM762 135q-142 -162 -320 -162q-182 0 -281 81q-100 81 -100 239q0 286 358 344q99 16 202 20l137 7v53q0 98 -54 135t-129 37q-170 0 -194 -129l-262 24q29 168 147 243
q119 75 320 75q450 0 446 -426v-676h-270v135zM647 1501h266v-256h-266v256zM233 1501h267v-256h-267v256z" />
    <glyph glyph-name="aring" unicode="&#xe5;" horiz-adv-x="1148" 
d="M348 294q0 -44 37 -75t125 -31t167 59t79 175v55l-127 -6q-238 -11 -271 -105q-10 -28 -10 -72zM762 135q-142 -162 -320 -162q-182 0 -281 81q-100 81 -100 239q0 286 358 344q99 16 202 20l137 7v53q0 98 -54 135t-129 37q-170 0 -194 -129l-262 24q29 168 147 243
q119 75 320 75q450 0 446 -426v-676h-270v135zM571 1530q-88 0 -88 -94q-1 -47 23 -71t65 -24t66 24t25 72q0 49 -25 71t-66 22zM571 1667q160 0 219 -130q19 -44 19 -102q0 -115 -68 -171t-170 -57q-101 -1 -168 59t-67 170q0 111 67 171t168 60z" />
    <glyph glyph-name="ae" unicode="&#xe6;" horiz-adv-x="1837" 
d="M1473 653q0 234 -164 234t-221.5 -67.5t-63.5 -166.5h449zM348 294q0 -44 36 -75t94 -31q170 0 217.5 84t47.5 150v55l-127 -6q-227 -10 -247.5 -71.5t-20.5 -105.5zM580 1102q115 0 197.5 -37t142.5 -131q74 96 159.5 132t182.5 36q242 0 364.5 -141.5t122.5 -380.5
v-115h-729q4 -129 64.5 -202t179.5 -73q164 0 194 144h279q-29 -180 -143.5 -273.5t-331.5 -93.5q-121 0 -231.5 45t-174.5 162q-61 -86 -155.5 -143.5t-249.5 -57.5q-277 0 -333.5 117.5t-56.5 215.5t48.5 167.5t152 121.5t346.5 62l137 7v53q0 172 -176 172
q-164 0 -188 -129l-262 24q29 168 146.5 243t314.5 75z" />
    <glyph glyph-name="ccedilla" unicode="&#xe7;" horiz-adv-x="1165" 
d="M541 -303q79 0 80 57q0 58 -115 58h-74l64 163q-211 33 -308.5 182t-97.5 391t140.5 398t390.5 156q310 0 376 -145.5t76 -227.5l-289 -39q-10 82 -47 132t-127 50q-223 0 -223 -338t221 -337q170 0 189 190h290q-16 -182 -120.5 -294.5t-315.5 -123.5l-22 -65
q151 -22 168.5 -83t17.5 -89q0 -176 -283 -176q-76 0 -149 12v141q79 -12 158 -12z" />
    <glyph glyph-name="egrave" unicode="&#xe8;" horiz-adv-x="1206" 
d="M842 653q0 232 -224 234q-108 0 -171 -66q-62 -66 -66 -168h461zM625 -33q-267 -1 -401 147t-134 415t146 420t391 153q243 0 367 -141t124 -381v-115h-741q4 -129 65 -202t185 -73q170 0 200 144h279q-29 -180 -144 -274q-116 -93 -337 -93zM262 1534h326l246 -317h-265
z" />
    <glyph glyph-name="eacute" unicode="&#xe9;" horiz-adv-x="1206" 
d="M842 653q0 232 -224 234q-108 0 -171 -66q-62 -66 -66 -168h461zM625 -33q-267 -1 -401 147t-134 415t146 420t391 153q243 0 367 -141t124 -381v-115h-741q4 -129 65 -202t185 -73q170 0 200 144h279q-29 -180 -144 -274q-116 -93 -337 -93zM666 1534h325l-307 -317
h-264z" />
    <glyph glyph-name="ecircumflex" unicode="&#xea;" horiz-adv-x="1206" 
d="M842 653q0 232 -224 234q-108 0 -171 -66q-62 -66 -66 -168h461zM625 -33q-267 -1 -401 147t-134 415t146 420t391 153q243 0 367 -141t124 -381v-115h-741q4 -129 65 -202t185 -73q170 0 200 144h279q-29 -180 -144 -274q-116 -93 -337 -93zM477 1534h289l246 -317h-246
l-145 169l-144 -169h-246z" />
    <glyph glyph-name="edieresis" unicode="&#xeb;" horiz-adv-x="1206" 
d="M842 653q0 232 -224 234q-108 0 -171 -66q-62 -66 -66 -168h461zM625 -33q-267 -1 -401 147t-134 415t146 420t391 153q243 0 367 -141t124 -381v-115h-741q4 -129 65 -202t185 -73q170 0 200 144h279q-29 -180 -144 -274q-116 -93 -337 -93zM696 1501h267v-256h-267v256
zM283 1501h266v-256h-266v256z" />
    <glyph glyph-name="igrave" unicode="&#xec;" horiz-adv-x="544" 
d="M129 1069h287v-1069h-287v1069zM-117 1534h326l246 -317h-265z" />
    <glyph glyph-name="iacute" unicode="&#xed;" horiz-adv-x="544" 
d="M129 1069h287v-1069h-287v1069zM346 1534h326l-307 -317h-265z" />
    <glyph glyph-name="icircumflex" unicode="&#xee;" horiz-adv-x="544" 
d="M129 1069h287v-1069h-287v1069zM127 1534h289l246 -317h-246l-146 169l-143 -169h-246z" />
    <glyph glyph-name="idieresis" unicode="&#xef;" horiz-adv-x="544" 
d="M129 1069h287v-1069h-287v1069zM346 1501h266v-256h-266v256zM-68 1501h267v-256h-267v256z" />
    <glyph glyph-name="eth" unicode="&#xf0;" horiz-adv-x="1261" 
d="M874 496q0 146 -67 217q-35 39 -80 52t-109 13q-98 0 -164.5 -74.5t-66.5 -216t66.5 -216t174.5 -74.5t177 75.5t69 208.5v15zM786 1389q385 -203 385 -794q0 -310 -149 -469t-394 -159t-391.5 138.5t-146.5 377.5t141 382t347 143q207 0 311 -142q-23 113 -84.5 204
t-190.5 149l-147 -148l-107 113l89 88q-80 18 -181 24l41 220q196 -22 322 -62l123 121l106 -113z" />
    <glyph glyph-name="ntilde" unicode="&#xf1;" 
d="M737 1102q183 0 271 -95t88 -300v-707h-287v668q0 114 -43 154q-42 40 -106 40q-107 0 -179 -63q-67 -67 -67 -156v-643h-287v1069h279v-147q121 180 331 180zM215 1233q0 155 66 223t178 68q57 0 116 -30q60 -30 90 -46q31 -14 63 -14t54 16t21 66h192q1 -154 -65 -222
t-176 -67q-62 0 -146 46l-62 31t-60 15q-79 0 -78 -86h-193z" />
    <glyph glyph-name="ograve" unicode="&#xf2;" horiz-adv-x="1261" 
d="M387 534q-1 -338 243 -337q244 -1 244 337t-244 338t-243 -338zM232 114q-142 148 -142 417t147 420t395 151t395 -151q146 -151 145 -415q-1 -265 -147 -417t-399 -152q-252 -1 -394 147zM283 1534h325l246 -317h-264z" />
    <glyph glyph-name="oacute" unicode="&#xf3;" horiz-adv-x="1261" 
d="M387 534q-1 -338 243 -337q244 -1 244 337t-244 338t-243 -338zM232 114q-142 148 -142 417t147 420t395 151t395 -151q146 -151 145 -415q-1 -265 -147 -417t-399 -152q-252 -1 -394 147zM672 1534h325l-307 -317h-264z" />
    <glyph glyph-name="ocircumflex" unicode="&#xf4;" horiz-adv-x="1261" 
d="M387 534q-1 -338 243 -337q244 -1 244 337t-244 338t-243 -338zM232 114q-142 148 -142 417t147 420t395 151t395 -151q146 -151 145 -415q-1 -265 -147 -417t-399 -152q-252 -1 -394 147zM485 1534h289l246 -317h-246l-145 169l-144 -169h-245z" />
    <glyph glyph-name="otilde" unicode="&#xf5;" horiz-adv-x="1261" 
d="M387 534q-1 -338 243 -337q244 -1 244 337t-244 338t-243 -338zM232 114q-142 148 -142 417t147 420t395 151t395 -151q146 -151 145 -415q-1 -265 -147 -417t-399 -152q-252 -1 -394 147zM240 1233q0 155 66 223t177 68q55 0 116 -30t91 -46q30 -14 62 -14t54 16t21 66
h193q0 -154 -66 -222t-176 -67q-63 0 -145 46q-33 17 -62 31t-61 15q-78 0 -78 -86h-192z" />
    <glyph glyph-name="odieresis" unicode="&#xf6;" horiz-adv-x="1261" 
d="M387 534q-1 -338 243 -337q244 -1 244 337t-244 338t-243 -338zM232 114q-142 148 -142 417t147 420t395 151t395 -151q146 -151 145 -415q-1 -265 -147 -417t-399 -152q-252 -1 -394 147zM705 1501h266v-256h-266v256zM291 1501h266v-256h-266v256z" />
    <glyph glyph-name="divide" unicode="&#xf7;" 
d="M158 821h897v-248h-897v248zM475 446h258v-276h-258v276zM475 1210h258v-276h-258v276z" />
    <glyph glyph-name="oslash" unicode="&#xf8;" horiz-adv-x="1261" 
d="M387 537q0 -121 25 -183l333 492q-47 27 -114 26q-244 0 -244 -335zM874 537q0 102 -26 182l-336 -496q47 -27 119 -26q243 0 243 340zM242 104q-152 152 -152 424t146.5 423t394.5 151q139 0 254 -51l88 131l129 -88l-88 -129q157 -153 157 -423t-146 -422.5
t-394 -152.5q-145 0 -260 51l-101 -149l-129 88z" />
    <glyph glyph-name="ugrave" unicode="&#xf9;" horiz-adv-x="1202" 
d="M117 362v707h286v-668q0 -115 41 -155q40 -40 104 -39q64 0 100 16t69 46q71 65 71 157v643h287v-1069h-278v147q-126 -180 -317 -180t-277 95t-86 300zM254 1534h326l245 -317h-264z" />
    <glyph glyph-name="uacute" unicode="&#xfa;" horiz-adv-x="1202" 
d="M117 362v707h286v-668q0 -115 41 -155q40 -40 104 -39q64 0 100 16t69 46q71 65 71 157v643h287v-1069h-278v147q-126 -180 -317 -180t-277 95t-86 300zM637 1534h326l-308 -317h-264z" />
    <glyph glyph-name="ucircumflex" unicode="&#xfb;" horiz-adv-x="1202" 
d="M117 362v707h286v-668q0 -115 41 -155q40 -40 104 -39q64 0 100 16t69 46q71 65 71 157v643h287v-1069h-278v147q-126 -180 -317 -180t-277 95t-86 300zM455 1534h288l246 -317h-246l-145 169l-143 -169h-246z" />
    <glyph glyph-name="udieresis" unicode="&#xfc;" horiz-adv-x="1202" 
d="M117 362v707h286v-668q0 -115 41 -155q40 -40 104 -39q64 0 100 16t69 46q71 65 71 157v643h287v-1069h-278v147q-126 -180 -317 -180t-277 95t-86 300zM674 1501h266v-256h-266v256zM260 1501h266v-256h-266v256z" />
    <glyph glyph-name="yacute" unicode="&#xfd;" horiz-adv-x="1161" 
d="M274 -168q59 0 95 28q35 28 59 97l33 90l-445 1022h332l250 -702l233 702h314l-432 -1100q-37 -93 -70 -161t-75 -114q-85 -93 -244 -91q-114 0 -215 32l47 213q59 -16 118 -16zM623 1534h325l-307 -317h-264z" />
    <glyph glyph-name="thorn" unicode="&#xfe;" horiz-adv-x="1275" 
d="M887 532q0 336 -228 336q-98 0 -167 -59q-80 -76 -80 -250v-33q0 -195 73 -268q65 -59 168 -59q163 0 198.5 121.5t35.5 211.5zM747 1102q217 0 328 -151.5t111 -411.5t-125.5 -416t-339.5 -156q-80 0 -159 29t-148 115v-508h-287v1859h287v-522q116 162 333 162z" />
    <glyph glyph-name="ydieresis" unicode="&#xff;" horiz-adv-x="1161" 
d="M274 -168q59 0 95 28q35 28 59 97l33 90l-445 1022h332l250 -702l233 702h314l-432 -1100q-37 -93 -70 -161t-75 -114q-85 -93 -244 -91q-114 0 -215 32l47 213q59 -16 118 -16zM655 1501h267v-256h-267v256zM242 1501h266v-256h-266v256z" />
    <glyph glyph-name="Amacron" unicode="&#x100;" horiz-adv-x="1429" 
d="M885 590l-178 524l-177 -524h355zM569 1462h291l549 -1462h-328l-116 338h-512l-117 -338h-316zM395 1845h635v-227h-635v227z" />
    <glyph glyph-name="amacron" unicode="&#x101;" horiz-adv-x="1148" 
d="M348 294q0 -44 37 -75t125 -31t167 59t79 175v55l-127 -6q-238 -11 -271 -105q-10 -28 -10 -72zM762 135q-142 -162 -320 -162q-182 0 -281 81q-100 81 -100 239q0 286 358 344q99 16 202 20l137 7v53q0 98 -54 135t-129 37q-170 0 -194 -129l-262 24q29 168 147 243
q119 75 320 75q450 0 446 -426v-676h-270v135zM264 1473h598v-220h-598v220z" />
    <glyph glyph-name="Abreve" unicode="&#x102;" horiz-adv-x="1429" 
d="M885 590l-178 524l-177 -524h355zM569 1462h291l549 -1462h-328l-116 338h-512l-117 -338h-316zM592 1898q0 -78 37 -110t84 -31q47 0 83 32t35 109h211q0 -160 -90 -238t-240 -79q-150 0 -240 79q-89 79 -89 238h209z" />
    <glyph glyph-name="abreve" unicode="&#x103;" horiz-adv-x="1148" 
d="M348 294q0 -44 37 -75t125 -31t167 59t79 175v55l-127 -6q-238 -11 -271 -105q-10 -28 -10 -72zM762 135q-142 -162 -320 -162q-182 0 -281 81q-100 81 -100 239q0 286 358 344q99 16 202 20l137 7v53q0 98 -54 135t-129 37q-170 0 -194 -129l-262 24q29 168 147 243
q119 75 320 75q450 0 446 -426v-676h-270v135zM453 1528q1 -78 35 -109t80 -31t81 32q35 30 35 108h205q0 -160 -87 -239q-88 -79 -234 -79t-231 79t-85 239h201z" />
    <glyph glyph-name="Aogonek" unicode="&#x104;" horiz-adv-x="1429" 
d="M885 590l-178 524l-177 -524h355zM1257 -166q0 -67 74 -67q38 0 72 6v-179q-47 -6 -139 -6q-248 0 -248 181q0 68 43 123t123 108h-101l-116 338h-512l-117 -338h-316l549 1462h291l549 -1462q-152 -85 -152 -166z" />
    <glyph glyph-name="aogonek" unicode="&#x105;" horiz-adv-x="1148" 
d="M348 294q0 -44 37 -75t125 -31t167 59t79 175v55l-127 -6q-236 -10 -258.5 -71.5t-22.5 -105.5zM762 135q-142 -162 -320 -162q-182 0 -281.5 81t-99.5 239q0 287 228.5 323.5t331.5 40.5l137 7v53q0 98 -54.5 135t-128.5 37q-170 0 -194 -129l-262 24q29 168 147.5 243
t319.5 75q348 0 397 -164t49 -262v-676q-143 -82 -143 -154q0 -71 69 -71q32 0 68 4v-172q-44 -6 -122 -6q-138 0 -191.5 49t-53.5 121t40 125t116 104h-53v135z" />
    <glyph glyph-name="Cacute" unicode="&#x106;" horiz-adv-x="1460" 
d="M780 1499q394 0 531 -293q43 -92 63 -207l-303 -38q-23 129 -87 203t-204 73q-176 0 -267 -132t-91 -375t97 -374t249 -131t220 73q67 73 83 208h328q-21 -242 -180 -392q-159 -151 -463 -151q-305 0 -480 206q-174 206 -174 561q0 354 183 562q182 207 495 207z
M842 1878h332l-326 -297h-268z" />
    <glyph glyph-name="cacute" unicode="&#x107;" horiz-adv-x="1165" 
d="M608 -33q-387 0 -487 334q-31 104 -31 231q0 257 141 414q141 156 390 156q207 0 319 -100t133 -273l-289 -39q-10 82 -47 132t-127 50q-223 0 -223 -339t221 -336q170 0 189 190h290q-16 -193 -132 -307t-347 -113zM645 1534h326l-307 -317h-265z" />
    <glyph glyph-name="Ccircumflex" unicode="&#x108;" horiz-adv-x="1460" 
d="M780 1499q394 0 531 -293q43 -92 63 -207l-303 -38q-23 129 -87 203t-204 73q-176 0 -267 -132t-91 -375t97 -374t249 -131t220 73q67 73 83 208h328q-21 -242 -180 -392q-159 -151 -463 -151q-305 0 -480 206q-174 206 -174 561q0 354 183 562q182 207 495 207z
M627 1878h288l248 -297h-245l-148 148l-145 -148h-246z" />
    <glyph glyph-name="ccircumflex" unicode="&#x109;" horiz-adv-x="1165" 
d="M608 -33q-387 0 -487 334q-31 104 -31 231q0 257 141 414q141 156 390 156q207 0 319 -100t133 -273l-289 -39q-10 82 -47 132t-127 50q-223 0 -223 -339t221 -336q170 0 189 190h290q-16 -193 -132 -307t-347 -113zM463 1534h289l245 -317h-245l-146 169l-143 -169h-246
z" />
    <glyph glyph-name="Cdotaccent" unicode="&#x10a;" horiz-adv-x="1460" 
d="M780 1499q394 0 531 -293q43 -92 63 -207l-303 -38q-23 129 -87 203t-204 73q-176 0 -267 -132t-91 -375t97 -374t249 -131t220 73q67 73 83 208h328q-21 -242 -180 -392q-159 -151 -463 -151q-305 0 -480 206q-174 206 -174 561q0 354 183 562q182 207 495 207z
M629 1872h286v-277h-286v277z" />
    <glyph glyph-name="cdotaccent" unicode="&#x10b;" horiz-adv-x="1165" 
d="M608 -33q-387 0 -487 334q-31 104 -31 231q0 257 141 414q141 156 390 156q207 0 319 -100t133 -273l-289 -39q-10 82 -47 132t-127 50q-223 0 -223 -339t221 -336q170 0 189 190h290q-16 -193 -132 -307t-347 -113zM473 1503h270v-260h-270v260z" />
    <glyph glyph-name="Ccaron" unicode="&#x10c;" horiz-adv-x="1460" 
d="M780 1499q394 0 531 -293q43 -92 63 -207l-303 -38q-23 129 -87 203t-204 73q-176 0 -267 -132t-91 -375t97 -374t249 -131t220 73q67 73 83 208h328q-21 -242 -180 -392q-159 -151 -463 -151q-305 0 -480 206q-174 206 -174 561q0 354 183 562q182 207 495 207z
M379 1886h246l147 -149l146 149h245l-248 -297h-288z" />
    <glyph glyph-name="ccaron" unicode="&#x10d;" horiz-adv-x="1165" 
d="M608 -33q-387 0 -487 334q-31 104 -31 231q0 257 141 414q141 156 390 156q207 0 319 -100t133 -273l-289 -39q-10 82 -47 132t-127 50q-223 0 -223 -339t221 -336q170 0 189 190h290q-16 -193 -132 -307t-347 -113zM752 1217h-289l-246 317h246l145 -170l144 170h245z
" />
    <glyph glyph-name="Dcaron" unicode="&#x10e;" horiz-adv-x="1509" 
d="M1092 736q0 466 -396 466h-241v-942h196q336 0 416 282q25 87 25 194zM150 1462h546q336 0 524 -182t187 -540q1 -358 -199 -549q-199 -191 -563 -191h-495v1462zM256 1886h246l147 -149l146 149h245l-247 -297h-289z" />
    <glyph glyph-name="dcaron" unicode="&#x10f;" horiz-adv-x="1273" 
d="M862 547q0 192 -74 264q-59 59 -167 59q-163 0 -213 -178q-18 -63 -18 -155t16 -157q48 -179 208 -179q102 0 168 59q41 41 61 99q19 58 19 151v37zM860 1462h287v-1462h-279v141q-124 -174 -340 -174t-327 152t-111 411t123 415q123 157 326 157t321 -139v499z
M1348 1462h268l-123 -499h-211z" />
    <glyph glyph-name="Dcroat" unicode="&#x110;" horiz-adv-x="1546" 
d="M733 1202h-241v-321h311v-252h-311v-369h196q336 0 416 282q25 87 24 195q0 465 -395 465zM186 629h-166v252h166v581h547q336 0 523 -182q188 -182 188 -540t-200 -549t-562 -191h-496v629z" />
    <glyph glyph-name="dcroat" unicode="&#x111;" horiz-adv-x="1286" 
d="M864 514q0 295 -241 295q-160 0 -197 -112.5t-37 -188.5q0 -162 65.5 -234.5t164.5 -72.5t165 59q80 78 80 219v35zM862 1147h-319v176h319v139h287v-139h137v-176h-137v-1147h-279v141q-123 -174 -335 -174t-328.5 145t-116.5 384t125.5 391.5t328.5 152.5
q202 0 318 -141v248z" />
    <glyph glyph-name="Emacron" unicode="&#x112;" horiz-adv-x="1236" 
d="M150 1462h997v-260h-692v-319h651v-262h-651v-361h735l-31 -260h-1009v1462zM342 1845h635v-227h-635v227z" />
    <glyph glyph-name="emacron" unicode="&#x113;" horiz-adv-x="1206" 
d="M842 653q0 232 -224 234q-108 0 -171 -66q-62 -66 -66 -168h461zM625 -33q-267 -1 -401 147t-134 415t146 420t391 153q243 0 367 -141t124 -381v-115h-741q4 -129 65 -202t185 -73q170 0 200 144h279q-29 -180 -144 -274q-116 -93 -337 -93zM326 1473h598v-220h-598v220
z" />
    <glyph glyph-name="Ebreve" unicode="&#x114;" horiz-adv-x="1236" 
d="M150 1462h997v-260h-692v-319h651v-262h-651v-361h735l-31 -260h-1009v1462zM539 1898q1 -78 37 -110t83 -31q47 0 83 32t36 109h211q0 -160 -90 -238t-241 -79q-152 0 -240 79t-88 238h209z" />
    <glyph glyph-name="ebreve" unicode="&#x115;" horiz-adv-x="1206" 
d="M842 653q0 232 -224 234q-108 0 -171 -66q-62 -66 -66 -168h461zM625 -33q-267 -1 -401 147t-134 415t146 420t391 153q243 0 367 -141t124 -381v-115h-741q4 -129 65 -202t185 -73q170 0 200 144h279q-29 -180 -144 -274q-116 -93 -337 -93zM508 1528q0 -78 35 -109
t81 -31t81 32q35 30 34 108h205q0 -160 -87 -239t-233 -79t-232 79q-85 79 -85 239h201z" />
    <glyph glyph-name="Edotaccent" unicode="&#x116;" horiz-adv-x="1236" 
d="M150 1462h997v-260h-692v-319h651v-262h-651v-361h735l-31 -260h-1009v1462zM516 1872h287v-277h-287v277z" />
    <glyph glyph-name="edotaccent" unicode="&#x117;" horiz-adv-x="1206" 
d="M842 653q0 232 -224 234q-108 0 -171 -66q-62 -66 -66 -168h461zM625 -33q-267 -1 -401 147t-134 415t146 420t391 153q243 0 367 -141t124 -381v-115h-741q4 -129 65 -202t185 -73q170 0 200 144h279q-29 -180 -144 -274q-116 -93 -337 -93zM489 1503h271v-260h-271v260
z" />
    <glyph glyph-name="Eogonek" unicode="&#x118;" horiz-adv-x="1236" 
d="M766 -231q0 68 43 123t123 108h-782v1462h997v-260h-692v-319h651v-262h-651v-361h735l-31 -260q-151 -85 -151 -159t73 -74q38 0 72 6v-179q-47 -6 -139 -6q-248 0 -248 181z" />
    <glyph glyph-name="eogonek" unicode="&#x119;" horiz-adv-x="1206" 
d="M842 653q0 234 -224 234q-162 0 -198.5 -92.5t-38.5 -141.5h461zM718 -399q-245 0 -245 176q0 101 113 192q-248 10 -372 155.5t-124 409.5t146 416t390 152q245 0 368.5 -141.5t123.5 -380.5v-115h-741q4 -129 65.5 -202t184.5 -73q170 0 200 144h279
q-47 -263 -262 -334q-142 -81 -142 -153t70 -72q30 0 68 4v-172q-43 -6 -122 -6z" />
    <glyph glyph-name="Ecaron" unicode="&#x11a;" horiz-adv-x="1236" 
d="M150 1462h997v-260h-692v-319h651v-262h-651v-361h735l-31 -260h-1009v1462zM266 1886h246l147 -149l146 149h246l-248 -297h-289z" />
    <glyph glyph-name="ecaron" unicode="&#x11b;" horiz-adv-x="1206" 
d="M842 653q0 232 -224 234q-108 0 -171 -66q-62 -66 -66 -168h461zM625 -33q-267 -1 -401 147t-134 415t146 420t391 153q243 0 367 -141t124 -381v-115h-741q4 -129 65 -202t185 -73q170 0 200 144h279q-29 -180 -144 -274q-116 -93 -337 -93zM768 1217h-289l-246 317h246
l146 -170l143 170h246z" />
    <glyph glyph-name="Gcircumflex" unicode="&#x11c;" horiz-adv-x="1486" 
d="M420 731q0 -508 367 -508q189 0 315 80v244h-279v254h561v-619q-112 -104 -268 -162t-326 -57q-337 -1 -512 205q-176 206 -176 560t181 563q181 208 491 208q263 0 406 -123t182 -327l-303 -39q-26 120 -86 175q-60 54 -199 54q-178 0 -266 -133t-88 -375zM639 1878h289
l248 -297h-246l-148 148l-145 -148h-246z" />
    <glyph glyph-name="gcircumflex" unicode="&#x11d;" horiz-adv-x="1275" 
d="M864 571q0 176 -78 247q-57 52 -163 52q-162 0 -213 -163q-18 -57 -19 -138q0 -171 65 -241t160 -70q248 0 248 285v28zM870 1069h279v-919q0 -425 -273 -532q-98 -38 -232 -38q-255 0 -376 87q-112 84 -133 265h291q15 -77 61 -102t139 -26t138 29q82 55 93 192
q5 63 5 131v32q-107 -157 -327 -157q-221 0 -333 145t-112 386t124 390q124 150 332 150q207 0 324 -154v121zM512 1534h289l246 -317h-246l-146 169l-143 -169h-246z" />
    <glyph glyph-name="Gbreve" unicode="&#x11e;" horiz-adv-x="1486" 
d="M420 731q0 -508 367 -508q189 0 315 80v244h-279v254h561v-619q-112 -104 -268 -162t-326 -57q-337 -1 -512 205q-176 206 -176 560t181 563q181 208 491 208q263 0 406 -123t182 -327l-303 -39q-26 120 -86 175q-60 54 -199 54q-178 0 -266 -133t-88 -375zM664 1898
q0 -78 36 -110t84 -31q47 0 83 32t36 109h211q0 -160 -90 -238t-241 -79q-151 0 -239 79t-89 238h209z" />
    <glyph glyph-name="gbreve" unicode="&#x11f;" horiz-adv-x="1275" 
d="M864 571q0 176 -78 247q-57 52 -163 52q-162 0 -213 -163q-18 -57 -19 -138q0 -171 65 -241t160 -70q248 0 248 285v28zM870 1069h279v-919q0 -425 -273 -532q-98 -38 -232 -38q-255 0 -376 87q-112 84 -133 265h291q15 -77 61 -102t139 -26t138 29q82 55 93 192
q5 63 5 131v32q-107 -157 -327 -157q-221 0 -333 145t-112 386t124 390q124 150 332 150q207 0 324 -154v121zM541 1528q1 -78 35 -109t80 -31t81 32q35 30 35 108h205q0 -160 -87 -239q-88 -79 -234 -79t-231 79t-85 239h201z" />
    <glyph glyph-name="Gdotaccent" unicode="&#x120;" horiz-adv-x="1486" 
d="M420 731q0 -508 367 -508q189 0 315 80v244h-279v254h561v-619q-112 -104 -268 -162t-326 -57q-337 -1 -512 205q-176 206 -176 560t181 563q181 208 491 208q263 0 406 -123t182 -327l-303 -39q-26 120 -86 175q-60 54 -199 54q-178 0 -266 -133t-88 -375zM641 1872h287
v-277h-287v277z" />
    <glyph glyph-name="gdotaccent" unicode="&#x121;" horiz-adv-x="1275" 
d="M864 571q0 176 -78 247q-57 52 -163 52q-162 0 -213 -163q-18 -57 -19 -138q0 -171 65 -241t160 -70q248 0 248 285v28zM870 1069h279v-919q0 -425 -273 -532q-98 -38 -232 -38q-255 0 -376 87q-112 84 -133 265h291q15 -77 61 -102t139 -26t138 29q82 55 93 192
q5 63 5 131v32q-107 -157 -327 -157q-221 0 -333 145t-112 386t124 390q124 150 332 150q207 0 324 -154v121zM502 1503h270v-260h-270v260z" />
    <glyph glyph-name="Gcommaaccent" unicode="&#x122;" horiz-adv-x="1486" 
d="M420 731q0 -508 367 -508q189 0 315 80v244h-279v254h561v-619q-112 -104 -268 -162t-326 -57q-337 -1 -512 205q-176 206 -176 560t181 563q181 208 491 208q263 0 406 -123t182 -327l-303 -39q-26 120 -86 175q-60 54 -199 54q-178 0 -266 -133t-88 -375zM643 -135h318
l-226 -330h-258z" />
    <glyph glyph-name="gcommaaccent" unicode="&#x123;" horiz-adv-x="1275" 
d="M864 571q0 176 -78 247q-57 52 -163 52q-162 0 -213 -163q-18 -57 -19 -138q0 -171 65 -241t160 -70q248 0 248 285v28zM870 1069h279v-919q0 -425 -273 -532q-98 -38 -232 -38q-255 0 -376 87q-112 84 -133 265h291q15 -77 61 -102t139 -26t138 29q82 55 93 192
q5 63 5 131v32q-107 -157 -327 -157q-221 0 -333 145t-112 386t124 390q124 150 332 150q207 0 324 -154v121zM680 1534h248l-160 -317h-303z" />
    <glyph glyph-name="Hcircumflex" unicode="&#x124;" horiz-adv-x="1488" 
d="M150 1462h305v-565h579v565h305v-1462h-305v614h-579v-614h-305v1462zM600 1878h289l248 -297h-246l-148 148l-145 -148h-246z" />
    <glyph glyph-name="hcircumflex" unicode="&#x125;" 
d="M728 1102q192 0 280 -95t88 -300v-707h-287v668q0 114 -43 154q-42 40 -106 40q-107 0 -179 -63q-67 -67 -67 -156v-643h-287v1462h287v-528q123 168 314 168zM391 1878h289l248 -297h-246l-147 148l-146 -148h-246z" />
    <glyph glyph-name="Hbar" unicode="&#x126;" horiz-adv-x="1562" 
d="M1071 866v187h-579v-187h579zM186 1053h-166v231h166v178h306v-178h579v178h307v-178h164v-231h-164v-1053h-307v584h-579v-584h-306v1053z" />
    <glyph glyph-name="hbar" unicode="&#x127;" horiz-adv-x="1220" 
d="M735 1040q192 0 280.5 -96t88.5 -299v-645h-287v606q0 113 -42.5 154t-106.5 41q-106 0 -179 -64q-67 -72 -67 -155v-582h-287v1147h-135v176h135v139h287v-139h323v-176h-323v-277q121 170 313 170z" />
    <glyph glyph-name="Itilde" unicode="&#x128;" horiz-adv-x="604" 
d="M150 1462h305v-1462h-305v1462zM-98 1583q0 155 68 223t186 68q61 0 146 -45l62 -31q30 -14 64 -14t54 16q22 16 22 66h203q0 -154 -68 -222t-184 -67q-69 0 -148 46q-31 17 -59 31t-64 15q-36 0 -58 -17t-22 -69h-202z" />
    <glyph glyph-name="itilde" unicode="&#x129;" horiz-adv-x="544" 
d="M129 1069h287v-1069h-287v1069zM-119 1233q0 155 66 223t178 68q57 0 116 -30q60 -30 90 -46q31 -14 63 -14t54 16t21 66h193q0 -154 -66 -222t-176 -67q-62 0 -146 46l-62 31t-60 15q-79 0 -78 -86h-193z" />
    <glyph glyph-name="Imacron" unicode="&#x12a;" horiz-adv-x="604" 
d="M150 1462h305v-1462h-305v1462zM-12 1845h635v-227h-635v227z" />
    <glyph glyph-name="imacron" unicode="&#x12b;" horiz-adv-x="544" 
d="M129 1069h287v-1069h-287v1069zM-27 1473h598v-220h-598v220z" />
    <glyph glyph-name="Ibreve" unicode="&#x12c;" horiz-adv-x="604" 
d="M150 1462h305v-1462h-305v1462zM184 1898q0 -78 37 -110t84 -31q47 0 83 32t36 109h211q0 -160 -90 -238t-241 -79q-152 0 -240 79t-89 238h209z" />
    <glyph glyph-name="ibreve" unicode="&#x12d;" horiz-adv-x="544" 
d="M129 1069h287v-1069h-287v1069zM156 1528q0 -78 34 -109t81 -31q46 0 81 32q35 30 35 108h205q0 -160 -87 -239t-233 -79t-232 79q-85 79 -85 239h201z" />
    <glyph glyph-name="Iogonek" unicode="&#x12e;" horiz-adv-x="604" 
d="M320 -412q-143 0 -201 50t-58 124q0 75 43 130t123 108h-77v1462h305v-1462q-152 -85 -152 -166q0 -67 74 -67q38 0 72 6v-179q-46 -6 -129 -6z" />
    <glyph glyph-name="iogonek" unicode="&#x12f;" horiz-adv-x="544" 
d="M125 1462h295v-258h-295v258zM288 -399q-138 0 -191.5 49t-53.5 121t40 125t116 104h-70v1069h287v-1069q-144 -83 -144 -160q0 -41 22 -53t50 -12t66 4v-172q-43 -6 -122 -6z" />
    <glyph glyph-name="Idotaccent" unicode="&#x130;" horiz-adv-x="604" 
d="M150 1462h305v-1462h-305v1462zM162 1872h287v-277h-287v277z" />
    <glyph glyph-name="dotlessi" unicode="&#x131;" horiz-adv-x="544" 
d="M129 1069h287v-1069h-287v1069z" />
    <glyph glyph-name="IJ" unicode="&#x132;" horiz-adv-x="1912" 
d="M150 1462h305v-1462h-305v1462zM1475 1462h305v-960q0 -261 -145 -400t-406 -139q-262 0 -404 131q-141 131 -153 410h305q13 -145 68 -211t185 -67t187 76t58 218v942z" />
    <glyph glyph-name="ij" unicode="&#x133;" horiz-adv-x="1089" 
d="M125 1462h295v-258h-295v258zM129 1069h287v-1069h-287v1069zM551 -145q55 -1 89 25t34 110v1079h287v-1073q1 -197 -89 -286t-264 -89q-108 0 -219 35l41 215q66 -16 121 -16zM670 1462h295v-258h-295v258z" />
    <glyph glyph-name="Jcircumflex" unicode="&#x134;" horiz-adv-x="1302" 
d="M864 520v942h305v-960q0 -260 -144 -400q-144 -139 -406 -139t-404 131q-141 131 -154 410h306q13 -145 68 -211t185 -67t187 76t57 218zM872 1878h289l248 -297h-246l-147 148l-146 -148h-245z" />
    <glyph glyph-name="jcircumflex" unicode="&#x135;" horiz-adv-x="544" 
d="M6 -145q55 -1 89 25t34 110v1079h287v-1073q0 -197 -89 -286t-264 -89q-108 0 -219 35l41 215q66 -16 121 -16zM127 1534h289l246 -317h-246l-146 169l-143 -169h-246z" />
    <glyph glyph-name="Kcommaaccent" unicode="&#x136;" horiz-adv-x="1382" 
d="M150 1462h307v-585l538 585h334l-485 -549l538 -913h-340l-411 715l-174 -178v-537h-307v1462zM580 -135h317l-225 -330h-258z" />
    <glyph glyph-name="kcommaaccent" unicode="&#x137;" horiz-adv-x="1181" 
d="M127 1462h281v-766l411 373h332l-389 -369l420 -700h-310l-315 541l-149 -135v-406h-281v1462zM481 -135h303l-215 -318h-247z" />
    <glyph glyph-name="kgreenlandic" unicode="&#x138;" horiz-adv-x="1181" 
d="M127 1069h281v-418l415 418h328l-383 -395l414 -674h-310l-303 508l-161 -156v-352h-281v1069z" />
    <glyph glyph-name="Lacute" unicode="&#x139;" horiz-adv-x="1196" 
d="M150 1462h305v-1200h692l-33 -262h-964v1462zM389 1878h332l-326 -297h-268z" />
    <glyph glyph-name="lacute" unicode="&#x13a;" horiz-adv-x="544" 
d="M129 1462h287v-1462h-287v1462zM362 1878h332l-325 -297h-269z" />
    <glyph glyph-name="Lcommaaccent" unicode="&#x13b;" horiz-adv-x="1196" 
d="M150 1462h305v-1200h692l-33 -262h-964v1462zM496 -135h317l-225 -330h-258z" />
    <glyph glyph-name="lcommaaccent" unicode="&#x13c;" horiz-adv-x="544" 
d="M129 1462h287v-1462h-287v1462zM125 -135h303l-215 -318h-248z" />
    <glyph glyph-name="Lcaron" unicode="&#x13d;" horiz-adv-x="1196" 
d="M150 1462h305v-1200h692l-33 -262h-964v1462zM770 1462h268l-123 -499h-210z" />
    <glyph glyph-name="lcaron" unicode="&#x13e;" horiz-adv-x="544" 
d="M129 1462h287v-1462h-287v1462zM612 1462h269l-123 -499h-211z" />
    <glyph glyph-name="Ldot" unicode="&#x13f;" horiz-adv-x="1196" 
d="M150 1462h305v-1200h692l-33 -262h-964v1462zM731 989h293v-330h-293v330z" />
    <glyph glyph-name="ldot" unicode="&#x140;" horiz-adv-x="892" 
d="M129 1462h287v-1462h-287v1462zM580 928h292v-330h-292v330z" />
    <glyph glyph-name="Lslash" unicode="&#x141;" horiz-adv-x="1232" 
d="M186 1462h306v-538l329 221v-264l-329 -222v-397h692l-33 -262h-965v455l-166 -111v266l166 111v741z" />
    <glyph glyph-name="lslash" unicode="&#x142;" horiz-adv-x="657" 
d="M186 1462h287v-467l184 111v-232l-184 -112v-762h-287v598l-186 -113v234l186 110v633z" />
    <glyph glyph-name="Nacute" unicode="&#x143;" horiz-adv-x="1472" 
d="M150 1462h274l602 -958v958h297v-1462h-272l-605 950v-950h-296v1462zM784 1878h332l-325 -297h-269z" />
    <glyph glyph-name="nacute" unicode="&#x144;" 
d="M737 1102q183 0 271 -95t88 -300v-707h-287v668q0 114 -43 154q-42 40 -106 40q-107 0 -179 -63q-67 -67 -67 -156v-643h-287v1069h279v-147q121 180 331 180zM639 1534h326l-308 -317h-264z" />
    <glyph glyph-name="Ncommaaccent" unicode="&#x145;" horiz-adv-x="1472" 
d="M150 1462h274l602 -958v958h297v-1462h-272l-605 950v-950h-296v1462zM614 -135h318l-225 -330h-258z" />
    <glyph glyph-name="ncommaaccent" unicode="&#x146;" 
d="M737 1102q183 0 271 -95t88 -300v-707h-287v668q0 114 -43 154q-42 40 -106 40q-107 0 -179 -63q-67 -67 -67 -156v-643h-287v1069h279v-147q121 180 331 180zM479 -135h303l-215 -318h-248z" />
    <glyph glyph-name="Ncaron" unicode="&#x147;" horiz-adv-x="1472" 
d="M150 1462h274l602 -958v958h297v-1462h-272l-605 950v-950h-296v1462zM324 1886h245l148 -149l145 149h246l-248 -297h-289z" />
    <glyph glyph-name="ncaron" unicode="&#x148;" 
d="M737 1102q183 0 271 -95t88 -300v-707h-287v668q0 114 -43 154q-42 40 -106 40q-107 0 -179 -63q-67 -67 -67 -156v-643h-287v1069h279v-147q121 180 331 180zM750 1217h-289l-246 317h246l145 -170l144 170h245z" />
    <glyph glyph-name="napostrophe" unicode="&#x149;" horiz-adv-x="1454" 
d="M369 1069h278v-147q121 180 332 180q182 0 270 -95t88 -300v-707h-286v668q0 114 -43 154q-42 40 -106 40q-107 0 -179 -63q-66 -66 -68 -156v-643h-286v1069zM70 1462h278l-127 -520h-219z" />
    <glyph glyph-name="Eng" unicode="&#x14a;" horiz-adv-x="1472" 
d="M776 -158q125 0 180.5 51.5t55.5 167.5l-566 889v-950h-296v1462h274l602 -958v958h297v-1390q0 -492 -510 -492q-162 0 -260 37l61 252q92 -27 162 -27z" />
    <glyph glyph-name="eng" unicode="&#x14b;" 
d="M737 1102q182 0 270.5 -95.5t88.5 -299.5v-719q0 -193 -90.5 -280t-260.5 -87q-102 0 -219 35l41 215q61 -16 118.5 -16t90.5 26.5t33 108.5v678q0 113 -43.5 153.5t-103.5 40.5q-110 0 -179 -63t-69 -156v-643h-287v1069h279v-147q121 180 331 180z" />
    <glyph glyph-name="Omacron" unicode="&#x14c;" horiz-adv-x="1597" 
d="M799 225q379 0 381 506q0 242 -94 374t-288 132q-192 0 -286 -132t-94 -375t94 -374t287 -131zM804 1499q326 0 508 -206q183 -206 183 -562q0 -355 -183 -562q-183 -206 -510 -206q-328 0 -513 206t-186 561t187 562t514 207zM481 1845h635v-227h-635v227z" />
    <glyph glyph-name="omacron" unicode="&#x14d;" horiz-adv-x="1261" 
d="M387 534q-1 -338 243 -337q244 -1 244 337t-244 338t-243 -338zM232 114q-142 148 -142 417t147 420t395 151t395 -151q146 -151 145 -415q-1 -265 -147 -417t-399 -152q-252 -1 -394 147zM332 1473h598v-220h-598v220z" />
    <glyph glyph-name="Obreve" unicode="&#x14e;" horiz-adv-x="1597" 
d="M799 225q379 0 381 506q0 242 -94 374t-288 132q-192 0 -286 -132t-94 -375t94 -374t287 -131zM804 1499q326 0 508 -206q183 -206 183 -562q0 -355 -183 -562q-183 -206 -510 -206q-328 0 -513 206t-186 561t187 562t514 207zM678 1898q0 -78 37 -110t84 -31q47 0 83 32
t36 109h210q0 -160 -90 -238t-240 -79q-150 0 -240 79q-89 79 -89 238h209z" />
    <glyph glyph-name="obreve" unicode="&#x14f;" horiz-adv-x="1261" 
d="M387 534q-1 -338 243 -337q244 -1 244 337t-244 338t-243 -338zM232 114q-142 148 -142 417t147 420t395 151t395 -151q146 -151 145 -415q-1 -265 -147 -417t-399 -152q-252 -1 -394 147zM514 1528q0 -78 35 -109t81 -31t81 32q35 30 34 108h205q0 -160 -87 -239
t-233 -79t-232 79q-85 79 -85 239h201z" />
    <glyph glyph-name="Ohungarumlaut" unicode="&#x150;" horiz-adv-x="1597" 
d="M799 225q379 0 381 506q0 242 -94 374t-288 132q-192 0 -286 -132t-94 -375t94 -374t287 -131zM804 1499q326 0 508 -206q183 -206 183 -562q0 -355 -183 -562q-183 -206 -510 -206q-328 0 -513 206t-186 561t187 562t514 207zM694 1878h316l-320 -297h-252zM1128 1878
h316l-320 -297h-252z" />
    <glyph glyph-name="ohungarumlaut" unicode="&#x151;" horiz-adv-x="1261" 
d="M387 534q-1 -338 243 -337q244 -1 244 337t-244 338t-243 -338zM232 114q-142 148 -142 417t147 420t395 151t395 -151q146 -151 145 -415q-1 -265 -147 -417t-399 -152q-252 -1 -394 147zM899 1534h295l-272 -317h-234zM496 1534h295l-273 -317h-233z" />
    <glyph glyph-name="OE" unicode="&#x152;" horiz-adv-x="2174" 
d="M786 1237q-182 0 -274 -132t-92 -375t92 -374t273 -131t265.5 124t90.5 356v49q-6 229 -89.5 356t-265.5 127zM760 -37q-299 0 -478.5 208.5t-179.5 558.5t181.5 559.5t476.5 209.5q135 0 224 -46t157 -130v139h944v-260h-649v-319h608v-262h-608v-361h692l-31 -260h-956
v135q-135 -172 -381 -172z" />
    <glyph glyph-name="oe" unicode="&#x153;" horiz-adv-x="1966" 
d="M1602 653q0 111 -54.5 172.5t-164.5 61.5t-167 -67.5t-63 -166.5h449zM625 197q233 0 237 335v5q0 335 -237 335q-117 0 -177.5 -86t-60.5 -249q0 -340 238 -340zM1393 190q163 0 194 144h279q-29 -180 -143.5 -273.5t-331.5 -93.5q-143 0 -234.5 52.5t-157.5 152.5
q-68 -100 -154.5 -152.5t-219.5 -52.5q-254 0 -394.5 147.5t-140.5 416.5t145 420t390 151q139 0 228 -52.5t153 -156.5q70 104 160.5 156.5t224.5 52.5q240 0 363.5 -141.5t123.5 -380.5v-115h-729q4 -129 64.5 -202t179.5 -73z" />
    <glyph glyph-name="Racute" unicode="&#x154;" horiz-adv-x="1337" 
d="M930 1014q0 196 -268 196h-211v-407h237q200 0 232 125q10 39 10 86zM150 1462h518q316 0 458 -144q113 -117 113 -298q0 -142 -51 -238t-172 -161l297 -621h-330l-246 549h-286v-549h-301v1462zM676 1878h332l-326 -297h-268z" />
    <glyph glyph-name="racute" unicode="&#x155;" horiz-adv-x="858" 
d="M127 1069h279v-149q53 84 129 126q114 63 274 31l-35 -260q-48 12 -108 12q-182 0 -235 -127q-17 -41 -17 -84v-618h-287v1069zM532 1534h326l-307 -317h-264z" />
    <glyph glyph-name="Rcommaaccent" unicode="&#x156;" horiz-adv-x="1337" 
d="M930 1014q0 196 -268 196h-211v-407h237q200 0 232 125q10 39 10 86zM150 1462h518q316 0 458 -144q113 -117 113 -298q0 -142 -51 -238t-172 -161l297 -621h-330l-246 549h-286v-549h-301v1462zM553 -135h317l-225 -330h-258z" />
    <glyph glyph-name="rcommaaccent" unicode="&#x157;" horiz-adv-x="858" 
d="M127 1069h279v-149q53 84 129 126q114 63 274 31l-35 -260q-48 12 -108 12q-182 0 -235 -127q-17 -41 -17 -84v-618h-287v1069zM133 -135h303l-215 -318h-248z" />
    <glyph glyph-name="Rcaron" unicode="&#x158;" horiz-adv-x="1337" 
d="M930 1014q0 196 -268 196h-211v-407h237q200 0 232 125q10 39 10 86zM150 1462h518q316 0 458 -144q113 -117 113 -298q0 -142 -51 -238t-172 -161l297 -621h-330l-246 549h-286v-549h-301v1462zM231 1886h246l148 -149l145 149h246l-248 -297h-289z" />
    <glyph glyph-name="rcaron" unicode="&#x159;" horiz-adv-x="858" 
d="M127 1069h279v-149q53 84 129 126q114 63 274 31l-35 -260q-48 12 -108 12q-182 0 -235 -127q-17 -41 -17 -84v-618h-287v1069zM592 1217h-289l-246 317h246l146 -170l143 170h246z" />
    <glyph glyph-name="Sacute" unicode="&#x15a;" horiz-adv-x="1320" 
d="M938 412q0 57 -43 107t-158 73l-190 35q-236 42 -349 144q-114 102 -114 304t156 313t429 111q509 0 560 -440l-289 -37q-23 121 -87 174q-65 53 -196 53q-259 0 -264 -157q0 -82 46 -123t157 -64l201 -39q239 -47 349 -152t110 -304t-148 -323q-147 -124 -434 -124
t-446 128t-171 386h310q10 -135 87 -196t226 -62q258 0 258 193zM702 1878h332l-325 -297h-269z" />
    <glyph glyph-name="sacute" unicode="&#x15b;" horiz-adv-x="1099" 
d="M764 745q-34 144 -190 144q-180 0 -208 -66q-10 -18 -10 -52q0 -33 32 -57t124 -40l135 -23q218 -35 300 -114q83 -79 83 -233q0 -155 -115 -246t-354 -91q-336 0 -451 193q-44 72 -51 180h275q14 -94 76 -123t155 -29q94 0 138 26q45 26 45 75t-28 80t-106 43l-147 24
q-195 31 -290 106t-95 226t128 242q128 92 335 92q343 0 435 -197q28 -59 40 -127zM610 1534h326l-307 -317h-264z" />
    <glyph glyph-name="Scircumflex" unicode="&#x15c;" horiz-adv-x="1320" 
d="M938 412q0 57 -43 107t-158 73l-190 35q-236 42 -349 144q-114 102 -114 304t156 313t429 111q509 0 560 -440l-289 -37q-23 121 -87 174q-65 53 -196 53q-259 0 -264 -157q0 -82 46 -123t157 -64l201 -39q239 -47 349 -152t110 -304t-148 -323q-147 -124 -434 -124
t-446 128t-171 386h310q10 -135 87 -196t226 -62q258 0 258 193zM514 1878h289l248 -297h-246l-148 148l-145 -148h-246z" />
    <glyph glyph-name="scircumflex" unicode="&#x15d;" horiz-adv-x="1099" 
d="M764 745q-34 144 -190 144q-180 0 -208 -66q-10 -18 -10 -52q0 -33 32 -57t124 -40l135 -23q218 -35 300 -114q83 -79 83 -233q0 -155 -115 -246t-354 -91q-336 0 -451 193q-44 72 -51 180h275q14 -94 76 -123t155 -29q94 0 138 26q45 26 45 75t-28 80t-106 43l-147 24
q-195 31 -290 106t-95 226t128 242q128 92 335 92q343 0 435 -197q28 -59 40 -127zM406 1534h288l246 -317h-246l-145 169l-143 -169h-246z" />
    <glyph glyph-name="Scedilla" unicode="&#x15e;" horiz-adv-x="1320" 
d="M596 -315q84 0 84 45t-25.5 59t-93.5 14h-76l66 168q-471 53 -494 506h310q10 -135 86.5 -196.5t226.5 -61.5q199 0 228.5 76t29.5 125t-43 99t-158 73l-190 35q-235 42 -349 143t-114 304t155 314t429 111q509 0 561 -440l-289 -37q-23 121 -87.5 174t-195.5 53
q-209 0 -236.5 -63.5t-27.5 -93.5q0 -82 46 -123t157 -64l201 -39q238 -47 348 -152.5t110 -301.5t-141 -320.5t-403 -128.5l-25 -67q197 -20 197 -175q0 -178 -295 -178q-77 0 -154 13v143q78 -14 162 -14z" />
    <glyph glyph-name="scedilla" unicode="&#x15f;" horiz-adv-x="1099" 
d="M574 889q-218 0 -218 -106q0 -46 32 -69.5t124 -39.5l135 -23q216 -34 299.5 -113t83.5 -231q0 -151 -105.5 -240.5t-322.5 -97.5l-22 -65q151 -22 168.5 -83t17.5 -89q0 -176 -283 -176q-76 0 -149 12v141q80 -12 158 -12q79 0 79 57q0 29 -24.5 43.5t-89.5 14.5h-74
l63 161q-362 37 -387 367h275q14 -94 75.5 -123t155.5 -29q183 0 183 101q0 49 -28 79.5t-106 43.5l-147 24q-195 31 -290 105.5t-95 227.5t128.5 243t334.5 90q343 0 403 -128t72 -196l-256 -33q-35 144 -190 144z" />
    <glyph glyph-name="Scaron" unicode="&#x160;" horiz-adv-x="1320" 
d="M938 412q0 57 -43 107t-158 73l-190 35q-236 42 -349 144q-114 102 -114 304t156 313t429 111q509 0 560 -440l-289 -37q-23 121 -87 174q-65 53 -196 53q-259 0 -264 -157q0 -82 46 -123t157 -64l201 -39q239 -47 349 -152t110 -304t-148 -323q-147 -124 -434 -124
t-446 128t-171 386h310q10 -135 87 -196t226 -62q258 0 258 193zM270 1886h246l148 -149l145 149h246l-248 -297h-289z" />
    <glyph glyph-name="scaron" unicode="&#x161;" horiz-adv-x="1099" 
d="M764 745q-34 144 -190 144q-180 0 -208 -66q-10 -18 -10 -52q0 -33 32 -57t124 -40l135 -23q218 -35 300 -114q83 -79 83 -233q0 -155 -115 -246t-354 -91q-336 0 -451 193q-44 72 -51 180h275q14 -94 76 -123t155 -29q94 0 138 26q45 26 45 75t-28 80t-106 43l-147 24
q-195 31 -290 106t-95 226t128 242q128 92 335 92q343 0 435 -197q28 -59 40 -127zM694 1217h-288l-246 317h246l145 -170l143 170h246z" />
    <glyph glyph-name="uni0162" unicode="&#x162;" horiz-adv-x="1269" 
d="M481 1198h-440v264h1188v-264h-441v-1198h-307v1198zM483 -135h318l-226 -330h-258z" />
    <glyph glyph-name="uni0163" unicode="&#x163;" horiz-adv-x="776" 
d="M193 346v500h-168v223h168v285h286v-285h246v-223h-246v-494q0 -84 35 -114q34 -30 96 -29q62 0 111 14l41 -211q-105 -32 -223 -32q-176 0 -261 84t-85 282zM338 -135h303l-215 -318h-248z" />
    <glyph glyph-name="Tcaron" unicode="&#x164;" horiz-adv-x="1269" 
d="M481 1198h-440v264h1188v-264h-441v-1198h-307v1198zM242 1886h245l148 -149l145 149h246l-248 -297h-289z" />
    <glyph glyph-name="tcaron" unicode="&#x165;" horiz-adv-x="776" 
d="M193 346v500h-168v223h168v285h286v-285h246v-223h-246v-494q0 -84 35 -113.5t96 -29.5t111 14l41 -211q-105 -32 -223 -32q-176 0 -261 83.5t-85 282.5zM631 1536h241l-110 -348h-189z" />
    <glyph glyph-name="Tbar" unicode="&#x166;" horiz-adv-x="1269" 
d="M481 567h-278v252h278v379h-440v264h1188v-264h-441v-379h279v-252h-279v-567h-307v567z" />
    <glyph glyph-name="tbar" unicode="&#x167;" horiz-adv-x="776" 
d="M193 346v96h-168v224h168v180h-168v223h168v285h286v-285h246v-223h-246v-180h246v-224h-246v-90q0 -84 35 -113.5t96 -29.5t111 14l41 -211q-105 -32 -223 -32q-176 0 -261 83.5t-85 282.5z" />
    <glyph glyph-name="Utilde" unicode="&#x168;" horiz-adv-x="1419" 
d="M709 -37q-588 0 -588 635v864h305v-870q0 -186 66 -276t220 -91q154 0 218 90t63 277v870h305v-870q0 -481 -343 -593q-110 -36 -246 -36zM305 1583q0 155 69 223t185 68q62 0 147 -45q32 -17 62 -31t62 -14q34 0 56 16t21 66h203q0 -154 -68 -222t-184 -67
q-70 0 -147 46q-31 17 -60 31t-63 15q-34 0 -58 -17q-23 -17 -22 -69h-203z" />
    <glyph glyph-name="utilde" unicode="&#x169;" horiz-adv-x="1202" 
d="M117 362v707h286v-668q0 -115 41 -155q40 -40 104 -39q64 0 100 16t69 46q71 65 71 157v643h287v-1069h-278v147q-126 -180 -317 -180t-277 95t-86 300zM209 1233q-1 155 65 223t179 68q54 0 115 -30q60 -30 90 -46q30 -14 63 -14t55 16t21 66h192q1 -154 -65 -222
t-176 -67q-62 0 -146 46l-62 31t-61 15q-78 0 -78 -86h-192z" />
    <glyph glyph-name="Umacron" unicode="&#x16a;" horiz-adv-x="1419" 
d="M709 -37q-588 0 -588 635v864h305v-870q0 -186 66 -276t220 -91q154 0 218 90t63 277v870h305v-870q0 -481 -343 -593q-110 -36 -246 -36zM391 1845h635v-227h-635v227z" />
    <glyph glyph-name="umacron" unicode="&#x16b;" horiz-adv-x="1202" 
d="M117 362v707h286v-668q0 -115 41 -155q40 -40 104 -39q64 0 100 16t69 46q71 65 71 157v643h287v-1069h-278v147q-126 -180 -317 -180t-277 95t-86 300zM301 1473h598v-220h-598v220z" />
    <glyph glyph-name="Ubreve" unicode="&#x16c;" horiz-adv-x="1419" 
d="M709 -37q-588 0 -588 635v864h305v-870q0 -186 66 -276t220 -91q154 0 218 90t63 277v870h305v-870q0 -481 -343 -593q-110 -36 -246 -36zM588 1898q0 -78 37 -110t84 -31q47 0 83 32t35 109h211q0 -160 -90 -238t-240 -79q-150 0 -240 79q-89 79 -89 238h209z" />
    <glyph glyph-name="ubreve" unicode="&#x16d;" horiz-adv-x="1202" 
d="M117 362v707h286v-668q0 -115 41 -155q40 -40 104 -39q64 0 100 16t69 46q71 65 71 157v643h287v-1069h-278v147q-126 -180 -317 -180t-277 95t-86 300zM483 1528q0 -78 35 -109t81 -31t81 32q35 30 35 108h205q0 -160 -87 -239t-233 -79t-232 79q-85 79 -85 239h200z
" />
    <glyph glyph-name="Uring" unicode="&#x16e;" horiz-adv-x="1419" 
d="M709 -37q-588 0 -588 635v864h305v-870q0 -186 66 -276t220 -91q154 0 218 90t63 277v870h305v-870q0 -481 -343 -593q-110 -36 -246 -36zM614 1755q0 -98 94 -98t93 99q0 99 -94 97q-93 0 -93 -98zM461 1753q0 123 70 182q70 60 175 61t176 -62q72 -63 72 -180t-69 -178
t-178 -63q-167 0 -227 134q-19 45 -19 106z" />
    <glyph glyph-name="uring" unicode="&#x16f;" horiz-adv-x="1202" 
d="M117 362v707h286v-668q0 -115 41 -155q40 -40 104 -39q64 0 100 16t69 46q71 65 71 157v643h287v-1069h-278v147q-126 -180 -317 -180t-277 95t-86 300zM510 1436q0 -47 24 -71t64 -24q41 0 66 24q24 24 24 72q-1 93 -89 93q-89 0 -89 -94zM362 1435q0 111 67 171
q67 61 169 61t169 -59t68 -173q1 -113 -67 -170t-170 -59q-47 0 -90 15q-88 29 -126 113q-20 43 -20 101z" />
    <glyph glyph-name="Uhungarumlaut" unicode="&#x170;" horiz-adv-x="1419" 
d="M709 -37q-588 0 -588 635v864h305v-870q0 -186 66 -276t220 -91q154 0 218 90t63 277v870h305v-870q0 -481 -343 -593q-110 -36 -246 -36zM565 1878h316l-320 -297h-252zM999 1878h316l-320 -297h-252z" />
    <glyph glyph-name="uhungarumlaut" unicode="&#x171;" horiz-adv-x="1202" 
d="M117 362v707h286v-668q0 -115 41 -155q40 -40 104 -39q64 0 100 16t69 46q71 65 71 157v643h287v-1069h-278v147q-126 -180 -317 -180t-277 95t-86 300zM862 1534h295l-272 -317h-234zM459 1534h295l-273 -317h-233z" />
    <glyph glyph-name="Uogonek" unicode="&#x172;" horiz-adv-x="1419" 
d="M121 598v864h305v-870q0 -186 65.5 -276.5t219 -90.5t218 90.5t64.5 276.5v870h305v-870q0 -477 -340 -592q-151 -85 -151 -159t74 -74q38 0 71 6v-179q-46 -6 -129 -6q-142 0 -200 50t-58 142q0 93 115 183q-268 8 -413.5 158.5t-145.5 476.5z" />
    <glyph glyph-name="uogonek" unicode="&#x173;" horiz-adv-x="1202" 
d="M117 362v707h286v-668q0 -115 40.5 -154.5t104.5 -39.5t100 16.5t69 46.5q71 63 71 156v643h287v-1069q-143 -82 -143 -154q0 -71 69 -71q32 0 68 4v-172q-44 -6 -122 -6q-138 0 -191.5 49t-53.5 121t40 125t116 104h-61v147q-126 -180 -317 -180t-277 95.5t-86 299.5z
" />
    <glyph glyph-name="Wcircumflex" unicode="&#x174;" horiz-adv-x="1982" 
d="M20 1462h345l235 -1016l240 1008h323l250 -1008l221 1016h328l-397 -1462h-297l-273 1081l-264 -1081h-289zM846 1878h289l247 -297h-245l-148 148l-145 -148h-246z" />
    <glyph glyph-name="wcircumflex" unicode="&#x175;" horiz-adv-x="1583" 
d="M12 1069h312l149 -709l205 701h250l194 -701l150 709h299l-311 -1069h-279l-190 705l-193 -705h-274zM645 1534h289l246 -317h-246l-146 169l-143 -169h-246z" />
    <glyph glyph-name="Ycircumflex" unicode="&#x176;" horiz-adv-x="1345" 
d="M831 0h-305v596l-506 866h340l316 -592l325 592h324l-494 -866v-596zM526 1878h289l248 -297h-246l-147 148l-146 -148h-245z" />
    <glyph glyph-name="ycircumflex" unicode="&#x177;" horiz-adv-x="1161" 
d="M274 -168q59 0 95 28q35 28 59 97l33 90l-445 1022h332l250 -702l233 702h314l-432 -1100q-37 -93 -70 -161t-75 -114q-85 -93 -244 -91q-114 0 -215 32l47 213q59 -16 118 -16zM436 1534h289l246 -317h-246l-145 169l-144 -169h-246z" />
    <glyph glyph-name="Ydieresis" unicode="&#x178;" horiz-adv-x="1345" 
d="M831 0h-305v596l-506 866h340l316 -592l325 592h324l-494 -866v-596zM748 1866h274v-264h-274v264zM322 1866h274v-264h-274v264z" />
    <glyph glyph-name="Zacute" unicode="&#x179;" horiz-adv-x="1202" 
d="M61 1200v262h1082v-225l-729 -975h762l-31 -262h-1098v223l731 977h-717zM627 1878h331l-325 -297h-268z" />
    <glyph glyph-name="zacute" unicode="&#x17a;" horiz-adv-x="1024" 
d="M86 846v223h875v-195l-519 -651h543l-27 -223h-882v195l520 651h-510zM598 1534h326l-308 -317h-264z" />
    <glyph glyph-name="Zdotaccent" unicode="&#x17b;" horiz-adv-x="1202" 
d="M61 1200v262h1082v-225l-729 -975h762l-31 -262h-1098v223l731 977h-717zM457 1872h286v-277h-286v277z" />
    <glyph glyph-name="zdotaccent" unicode="&#x17c;" horiz-adv-x="1024" 
d="M86 846v223h875v-195l-519 -651h543l-27 -223h-882v195l520 651h-510zM401 1503h271v-260h-271v260z" />
    <glyph glyph-name="Zcaron" unicode="&#x17d;" horiz-adv-x="1202" 
d="M61 1200v262h1082v-225l-729 -975h762l-31 -262h-1098v223l731 977h-717zM197 1886h245l148 -149l145 149h246l-248 -297h-289z" />
    <glyph glyph-name="zcaron" unicode="&#x17e;" horiz-adv-x="1024" 
d="M86 846v223h875v-195l-519 -651h543l-27 -223h-882v195l520 651h-510zM680 1217h-289l-246 317h246l146 -170l143 170h246z" />
    <glyph glyph-name="longs" unicode="&#x17f;" horiz-adv-x="559" 
d="M129 1104q0 191 103 283t270 92q121 0 223 -31l-39 -209q-62 16 -122 16t-104 -31.5t-44 -113.5v-1110h-287v1104z" />
    <glyph glyph-name="florin" unicode="&#x192;" 
d="M126 -125q68 0 103 33t52 108l153 785h-162l33 233h172l19 86q35 162 133 247t282 85q123 0 236 -47l-76 -213q-72 29 -139 29q-66 0 -106 -32t-56 -110l-10 -45h248l-33 -233h-260l-162 -828q-33 -162 -126 -246.5t-250 -84.5t-253 43l74 217q60 -27 128 -27z" />
    <glyph glyph-name="Scommaaccent" unicode="&#x218;" horiz-adv-x="1320" 
d="M938 412q0 57 -43 107t-158 73l-190 35q-236 42 -349 144q-114 102 -114 304t156 313t429 111q509 0 560 -440l-289 -37q-23 121 -87 174q-65 53 -196 53q-259 0 -264 -157q0 -82 46 -123t157 -64l201 -39q239 -47 349 -152t110 -304t-148 -323q-147 -124 -434 -124
t-446 128t-171 386h310q10 -135 87 -196t226 -62q258 0 258 193zM528 -135h318l-225 -330h-259z" />
    <glyph glyph-name="scommaaccent" unicode="&#x219;" horiz-adv-x="1099" 
d="M764 745q-34 144 -190 144q-180 0 -208 -66q-10 -18 -10 -52q0 -33 32 -57t124 -40l135 -23q218 -35 300 -114q83 -79 83 -233q0 -155 -115 -246t-354 -91q-336 0 -451 193q-44 72 -51 180h275q14 -94 76 -123t155 -29q94 0 138 26q45 26 45 75t-28 80t-106 43l-147 24
q-195 31 -290 106t-95 226t128 242q128 92 335 92q343 0 435 -197q28 -59 40 -127zM424 -135h303l-215 -318h-248z" />
    <glyph glyph-name="uni021A" unicode="&#x21a;" horiz-adv-x="1269" 
d="M481 1198h-440v264h1188v-264h-441v-1198h-307v1198zM483 -135h318l-226 -330h-258z" />
    <glyph glyph-name="uni021B" unicode="&#x21b;" horiz-adv-x="776" 
d="M193 346v500h-168v223h168v285h286v-285h246v-223h-246v-494q0 -84 35 -114q34 -30 96 -29q62 0 111 14l41 -211q-105 -32 -223 -32q-176 0 -261 84t-85 282zM336 -135h303l-215 -318h-248z" />
    <glyph glyph-name="dotlessj" unicode="&#x237;" horiz-adv-x="544" 
d="M6 -145q55 0 89 25.5t34 109.5v1079h287v-1073q0 -197 -89 -286t-264 -89q-102 0 -219 35l41 215q66 -16 121 -16z" />
    <glyph glyph-name="apostrophe" unicode="&#x2bc;" horiz-adv-x="847" 
d="M129 1462h279l-127 -520h-220z" />
    <glyph glyph-name="circumflex" unicode="&#x2c6;" horiz-adv-x="847" 
d="M279 1534h288l246 -317h-246l-145 169l-143 -169h-246z" />
    <glyph glyph-name="caron" unicode="&#x2c7;" horiz-adv-x="847" 
d="M567 1217h-288l-246 317h246l145 -170l143 170h246z" />
    <glyph glyph-name="uni02C9" unicode="&#x2c9;" horiz-adv-x="847" 
d="M125 1473h598v-220h-598v220z" />
    <glyph glyph-name="breve" unicode="&#x2d8;" horiz-adv-x="847" 
d="M307 1528q0 -78 35 -108.5t81 -30.5t81 30.5t35 108.5h204q0 -160 -87 -239t-233 -79t-231.5 79t-85.5 239h201z" />
    <glyph glyph-name="dotaccent" unicode="&#x2d9;" horiz-adv-x="847" 
d="M289 1503h270v-260h-270v260z" />
    <glyph glyph-name="ring" unicode="&#x2da;" horiz-adv-x="847" 
d="M512 1436q0 94 -89 94t-89 -94q0 -47 23.5 -71t64.5 -24t65.5 24t24.5 71zM186 1435q0 58 19.5 102t51.5 72.5t75 43t116 14.5t142 -59.5t69 -171.5q0 -166 -95 -198t-142 -32t-90 14.5t-75 42t-51.5 71t-19.5 101.5z" />
    <glyph glyph-name="ogonek" unicode="&#x2db;" horiz-adv-x="847" 
d="M473 -399q-235 0 -235 176q0 66 39.5 119t115.5 104h217q-143 -82 -143 -160q0 -41 22.5 -53t50.5 -12t64 4v-172q-43 -6 -131 -6z" />
    <glyph glyph-name="tilde" unicode="&#x2dc;" horiz-adv-x="847" 
d="M33 1233q0 154 65.5 222.5t177.5 68.5q57 0 117 -31t89.5 -45t62.5 -14t54.5 16t21.5 66h192q0 -154 -65.5 -221.5t-176.5 -67.5q-59 0 -118.5 31.5t-88 46t-61.5 14.5q-78 0 -78 -86h-192z" />
    <glyph glyph-name="hungarumlaut" unicode="&#x2dd;" horiz-adv-x="847" 
d="M584 1534h295l-273 -317h-233zM180 1534h295l-272 -317h-234z" />
    <glyph glyph-name="tonos" unicode="&#x384;" horiz-adv-x="847" 
d="M342 1565h285l-205 -348h-223z" />
    <glyph glyph-name="dieresistonos" unicode="&#x385;" horiz-adv-x="847" 
d="M342 1565h264l-168 -348h-202zM641 1481h225v-215h-225v215zM-59 1481h225v-215h-225v215z" />
    <glyph glyph-name="Alphatonos" unicode="&#x386;" horiz-adv-x="1452" 
d="M907 590l-178 524l-176 -524h354zM592 1462h291l549 -1462h-328l-117 338h-512l-117 -338h-315zM137 1462h285l-178 -315h-224z" />
    <glyph glyph-name="Epsilontonos" unicode="&#x388;" horiz-adv-x="1638" 
d="M551 1462h997v-260h-692v-319h651v-262h-651v-361h735l-30 -260h-1010v1462zM137 1462h285l-178 -315h-224z" />
    <glyph glyph-name="Etatonos" unicode="&#x389;" horiz-adv-x="1890" 
d="M551 1462h305v-565h580v565h305v-1462h-305v614h-580v-614h-305v1462zM137 1462h285l-178 -315h-224z" />
    <glyph glyph-name="Iotatonos" unicode="&#x38a;" horiz-adv-x="1005" 
d="M551 1462h305v-1462h-305v1462zM137 1462h285l-178 -315h-224z" />
    <glyph glyph-name="Omicrontonos" unicode="&#x38c;" horiz-adv-x="1875" 
d="M1077 225q193 0 287 131t94 374t-94 375t-287 132t-287 -132t-94 -375t94 -374t287 -131zM381 732q0 355 188 561t513 206q326 0 508 -206t183 -561t-182 -562t-511 -207t-514 207q-185 207 -185 562zM137 1462h285l-178 -315h-224z" />
    <glyph glyph-name="Upsilontonos" unicode="&#x38e;" horiz-adv-x="1808" 
d="M1294 0h-305v596l-506 866h340l316 -592l325 592h324l-494 -866v-596zM137 1462h285l-178 -315h-224z" />
    <glyph glyph-name="Omegatonos" unicode="&#x38f;" horiz-adv-x="1767" 
d="M1360 795q0 462 -332 460q-180 -1 -262 -119t-82 -320t46 -346q46 -146 167 -239v-231h-567v246h250q-96 112 -148 240t-51 304q0 176 47 307q47 132 133 221t205 135t262 46q292 0 466 -180q173 -180 173 -518q0 -256 -118 -439q-38 -59 -87 -116h254l-30 -246h-537v231
q211 149 211 564zM137 1462h285l-178 -315h-224z" />
    <glyph glyph-name="iotadieresistonos" unicode="&#x390;" horiz-adv-x="651" 
d="M133 303v766h287v-731q0 -59 20 -94t75 -35t101 14l43 -211q-106 -32 -229 -32q-297 0 -297 323zM283 1565h264l-168 -348h-203zM582 1481h225v-215h-225v215zM-119 1481h225v-215h-225v215z" />
    <glyph glyph-name="Alpha" unicode="&#x391;" horiz-adv-x="1429" 
d="M885 590l-178 524l-177 -524h355zM569 1462h291l549 -1462h-328l-116 338h-512l-117 -338h-316z" />
    <glyph glyph-name="Beta" unicode="&#x392;" horiz-adv-x="1325" 
d="M700 240q210 0 250 120q12 37 13 84q1 94 -51 144t-181 49h-287v-397h256zM711 883q121 0 166 45t45 132t-58 125t-198 38h-222v-340h267zM150 1462h526q439 0 519 -239q24 -72 24 -157t-37 -161t-140 -129q177 -94 206 -241q9 -45 9 -114q1 -69 -27 -151t-92 -141
q-141 -129 -427 -129h-561v1462z" />
    <glyph glyph-name="Gamma" unicode="&#x393;" horiz-adv-x="1107" 
d="M150 1462h933v-264h-628v-1198h-305v1462z" />
    <glyph glyph-name="uni0394" unicode="&#x394;" horiz-adv-x="1404" 
d="M991 260l-295 866l-295 -866h590zM20 0l539 1462h291l534 -1462h-1364z" />
    <glyph glyph-name="Epsilon" unicode="&#x395;" horiz-adv-x="1236" 
d="M150 1462h997v-260h-692v-319h651v-262h-651v-361h735l-31 -260h-1009v1462z" />
    <glyph glyph-name="Zeta" unicode="&#x396;" horiz-adv-x="1202" 
d="M61 1200v262h1082v-225l-729 -975h762l-31 -262h-1098v223l731 977h-717z" />
    <glyph glyph-name="Eta" unicode="&#x397;" horiz-adv-x="1488" 
d="M150 1462h305v-565h579v565h305v-1462h-305v614h-579v-614h-305v1462z" />
    <glyph glyph-name="Theta" unicode="&#x398;" horiz-adv-x="1597" 
d="M418 731q0 -506 381 -506t381 506q0 242 -94.5 374t-287 132t-286.5 -132t-94 -374zM289.5 1292q187.5 207 513.5 207t509 -206.5t183 -563t-182.5 -561.5t-510.5 -205q-327 0 -513.5 207.5t-186.5 561t187.5 560.5zM553 897h491v-285h-491v285z" />
    <glyph glyph-name="Iota" unicode="&#x399;" horiz-adv-x="604" 
d="M150 1462h305v-1462h-305v1462z" />
    <glyph glyph-name="Kappa" unicode="&#x39a;" horiz-adv-x="1382" 
d="M150 1462h307v-585l538 585h334l-485 -549l538 -913h-340l-411 715l-174 -178v-537h-307v1462z" />
    <glyph glyph-name="Lambda" unicode="&#x39b;" horiz-adv-x="1427" 
d="M1407 0h-340l-356 1051l-363 -1051h-328l549 1462h291z" />
    <glyph glyph-name="Mu" unicode="&#x39c;" horiz-adv-x="1761" 
d="M150 1462h366l365 -1091l374 1091h357v-1462h-281v975l-334 -975h-237l-336 973v-973h-274v1462z" />
    <glyph glyph-name="Nu" unicode="&#x39d;" horiz-adv-x="1472" 
d="M150 1462h274l602 -958v958h297v-1462h-272l-605 950v-950h-296v1462z" />
    <glyph glyph-name="Xi" unicode="&#x39e;" horiz-adv-x="1187" 
d="M82 0v276h1042l-32 -276h-1010zM92 1462h1004v-276h-1004v276zM133 891h922v-279h-922v279z" />
    <glyph glyph-name="Omicron" unicode="&#x39f;" horiz-adv-x="1597" 
d="M798.5 225q192.5 0 287 131t94.5 374t-94.5 375t-287 132t-286.5 -132t-94 -375t94 -374t286.5 -131zM289.5 1292q187.5 207 513.5 207t509 -206.5t183 -563t-182.5 -561.5t-510.5 -205q-327 0 -513.5 207.5t-186.5 561t187.5 560.5z" />
    <glyph glyph-name="Pi" unicode="&#x3a0;" horiz-adv-x="1454" 
d="M999 1198h-544v-1198h-305v1462h1155v-1462h-306v1198z" />
    <glyph glyph-name="Rho" unicode="&#x3a1;" horiz-adv-x="1310" 
d="M670 776q222 0 257 132q11 42 11 92q0 109 -59 159q-59 51 -211 51h-217v-434h219zM672 1462q567 0 567 -456q0 -340 -288 -445q-108 -39 -271 -39h-229v-522h-301v1462h522z" />
    <glyph glyph-name="Sigma" unicode="&#x3a3;" horiz-adv-x="1202" 
d="M61 1462h1082v-262h-694l393 -457l-441 -481h775l-31 -262h-1098v223l461 508l-447 506v225z" />
    <glyph glyph-name="Tau" unicode="&#x3a4;" horiz-adv-x="1269" 
d="M481 1198h-440v264h1188v-264h-441v-1198h-307v1198z" />
    <glyph glyph-name="Upsilon" unicode="&#x3a5;" horiz-adv-x="1345" 
d="M831 0h-305v596l-506 866h340l316 -592l325 592h324l-494 -866v-596z" />
    <glyph glyph-name="Phi" unicode="&#x3a6;" horiz-adv-x="1783" 
d="M399 799q0 -176 90.5 -264.5t255.5 -110.5v756q-174 -23 -260 -114t-86 -267zM1386 804q0 167 -84.5 260t-263.5 116v-756q180 25 264 119t84 261zM270.5 1243.5q178.5 154.5 474.5 179.5v160h293v-158q462 -40 558 -255.5t96 -369.5q0 -285 -179.5 -435t-474.5 -183
v-182h-293v180q-302 25 -477.5 177t-175.5 442t178.5 444.5z" />
    <glyph glyph-name="Chi" unicode="&#x3a7;" horiz-adv-x="1400" 
d="M522 770l-475 692h348l301 -467l308 467h327l-467 -700l525 -762h-349l-354 532l-340 -532h-334z" />
    <glyph glyph-name="Psi" unicode="&#x3a8;" horiz-adv-x="1738" 
d="M121 1462h301v-465q0 -350 297 -379v844h305v-841q147 14 220 112t73 264v465h301v-444q0 -303 -159 -467t-435 -186v-365h-305v362q-430 33 -514 264.5t-84 397.5v438z" />
    <glyph glyph-name="Omega" unicode="&#x3a9;" horiz-adv-x="1509" 
d="M1092 795q0 460 -332 460q-180 0 -262 -118.5t-82 -320.5t46 -347t167 -238v-231h-568v246h250q-96 113 -147 240.5t-51 303.5t47 307.5t133 220.5t204.5 135t336.5 46t391.5 -179.5t173.5 -518.5q0 -254 -78 -376t-127 -179h254l-31 -246h-536v231q211 149 211 564z" />
    <glyph glyph-name="Iotadieresis" unicode="&#x3aa;" horiz-adv-x="604" 
d="M150 1462h305v-1462h-305v1462zM379 1894h266v-256h-266v256zM-35 1894h266v-256h-266v256z" />
    <glyph glyph-name="Upsilondieresis" unicode="&#x3ab;" horiz-adv-x="1345" 
d="M831 0h-305v596l-506 866h340l316 -592l325 592h324l-494 -866v-596zM745 1894h267v-256h-267v256zM332 1894h266v-256h-266v256z" />
    <glyph glyph-name="alphatonos" unicode="&#x3ac;" horiz-adv-x="1445" 
d="M387 522q0 -216 111 -298q37 -28 83 -27q45 0 79 13q67 26 134 151q34 65 74 165q-55 182 -112 264t-156 82q-213 0 -213 -350zM1274 -33q-120 0 -165 29q-84 56 -120 170l-35 104q-69 -141 -125 -194q-114 -109 -249 -109q-249 0 -370 156q-120 156 -120 408t127 411
q127 160 387 160q147 0 233 -75t146 -241l100 283h287l-237 -539l61 -206q18 -60 43 -94q43 -58 160 -15l49 -205q-108 -43 -172 -43zM633 1565h285l-205 -348h-224z" />
    <glyph glyph-name="epsilontonos" unicode="&#x3ad;" horiz-adv-x="1142" 
d="M129 790q0 156 128 234t343 78q285 0 405 -173q42 -62 58 -153l-260 -45q-19 78 -65 115t-144 37t-143 -34t-45 -87q0 -115 153 -115h201v-215h-199q-90 0 -136 -26t-46 -90t48 -96t161 -32t164 38t55 120h274q0 -189 -133 -284t-362 -95t-362 87q-132 87 -132 245
t122 236q34 20 71 30q-156 69 -156 225zM602 1565h285l-205 -348h-223z" />
    <glyph glyph-name="etatonos" unicode="&#x3ae;" 
d="M737 1102q183 0 271 -95t88 -300v-1104h-287v1065q0 114 -43 154q-42 40 -106 40q-107 0 -179 -63q-67 -67 -67 -156v-643h-287v1069h279v-147q121 180 331 180zM700 1565h285l-205 -348h-223z" />
    <glyph glyph-name="iotatonos" unicode="&#x3af;" horiz-adv-x="651" 
d="M133 303v766h287v-731q0 -59 20 -94t75 -35t101 14l43 -211q-106 -32 -229 -32q-297 0 -297 323zM319 1565h285l-205 -348h-223z" />
    <glyph glyph-name="upsilondieresistonos" unicode="&#x3b0;" horiz-adv-x="1159" 
d="M580 -33q-234 0 -356 117t-122 381v604h287v-604q0 -131 46 -195q47 -64 145 -63q98 0 144 63t46 195v604h287v-604q0 -388 -276 -471q-88 -27 -201 -27zM522 1565h264l-168 -348h-202zM821 1481h226v-215h-226v215zM121 1481h225v-215h-225v215z" />
    <glyph glyph-name="alpha" unicode="&#x3b1;" horiz-adv-x="1445" 
d="M581 197q46 0 79.5 13t79.5 64.5t128 251.5q-55 182 -112.5 264t-155.5 82q-163 0 -188 -139t-25 -205t12.5 -126t37 -105t61.5 -72.5t83 -27.5zM1305 197q43 0 92 18l49 -205q-108 -43 -172 -43q-117 0 -182 41t-103 158l-35 104q-69 -141 -154 -222t-220 -81
q-249 0 -369.5 156t-120.5 408t127 411.5t387 159.5q149 0 232 -73.5t147 -242.5l100 283h287l-237 -539l61 -206q18 -61 43 -94t68 -33z" />
    <glyph glyph-name="beta" unicode="&#x3b2;" horiz-adv-x="1253" 
d="M786 1079q0 178 -176 178q-113 0 -162 -69.5t-49 -202.5v-479q0 -178 78.5 -245.5t183.5 -67.5t167.5 54t62.5 179t-71.5 178t-225.5 53h-55v220h49q104 0 151 51t47 151zM399 -397h-272v1423q0 218 131 335.5t354 117.5t337 -103t114 -264q0 -201 -166 -299
q272 -91 272 -393q0 -233 -130.5 -341t-328.5 -108t-311 144v-512z" />
    <glyph glyph-name="gamma" unicode="&#x3b3;" horiz-adv-x="1161" 
d="M721 -397h-287v452l-418 1014h332l236 -692l243 692h318l-424 -1018v-448z" />
    <glyph glyph-name="delta" unicode="&#x3b4;" horiz-adv-x="1218" 
d="M379 457q0 -134 64 -197t169 -63t166.5 70.5t61.5 181.5t-29 163t-65.5 84.5t-92.5 65.5l-67 39q-207 -83 -207 -344zM647 1264q-151 0 -151 -97q0 -29 23.5 -50t64.5 -44l231 -129q170 -96 246 -211t76 -268q0 -214 -140 -356t-378 -142t-387.5 128.5t-149.5 361.5
q0 147 80 268t233 186l-16 11q-152 95 -152 252q0 133 109 219t319 86q209 0 323 -91.5t132 -252.5l-262 -27q-29 156 -201 156z" />
    <glyph glyph-name="epsilon" unicode="&#x3b5;" horiz-adv-x="1142" 
d="M129 790q0 156 128 234t343 78q288 0 367.5 -118t95.5 -208l-260 -45q-18 78 -64.5 115t-144.5 37t-143 -34t-45 -87q0 -115 153 -115h201v-215h-199q-90 0 -136 -26.5t-46 -90t48 -95.5t161 -32t164 38t55 120h274q0 -189 -132.5 -284t-361.5 -95q-230 0 -362.5 87
t-132.5 247t78 207t115 57q-156 69 -156 225z" />
    <glyph glyph-name="zeta" unicode="&#x3b6;" horiz-adv-x="1021" 
d="M82 487q0 365 502 750h-449v225h850v-188q-608 -430 -608 -782q0 -102 52 -156.5t179 -93.5l142 -43q161 -50 226.5 -117.5t65.5 -196.5q0 -159 -178 -305l-168 144q39 39 59.5 68.5t20.5 69.5t-39 63.5t-112 45.5l-172 52q-299 87 -335 234.5t-36 229.5z" />
    <glyph glyph-name="eta" unicode="&#x3b7;" 
d="M737 1102q182 0 270.5 -95.5t88.5 -299.5v-1104h-287v1065q0 113 -42.5 153.5t-106.5 40.5q-105 0 -179 -63q-67 -67 -67 -156v-643h-287v1069h279v-147q121 180 331 180z" />
    <glyph glyph-name="theta" unicode="&#x3b8;" horiz-adv-x="1234" 
d="M369 606q27 -409 252.5 -409t242.5 409h-495zM618 1249q-126 0 -183.5 -108t-65.5 -305h495q-13 303 -96.5 358t-149.5 55zM625 1479q528 0 528 -764q0 -381 -141.5 -564.5t-396.5 -183.5t-394 183.5t-139 565.5t141.5 572.5t401.5 190.5z" />
    <glyph glyph-name="iota" unicode="&#x3b9;" horiz-adv-x="651" 
d="M133 303v766h287v-731q0 -59 20.5 -94t74.5 -35t101 14l43 -211q-106 -32 -229 -32q-297 0 -297 323z" />
    <glyph glyph-name="kappa" unicode="&#x3ba;" horiz-adv-x="1187" 
d="M127 1069h287v-418l415 418h328l-383 -395l414 -674h-309l-304 508l-161 -156v-352h-287v1069z" />
    <glyph glyph-name="lambda" unicode="&#x3bb;" horiz-adv-x="1161" 
d="M336 1483q115 0 203 -54.5t143 -199.5l463 -1229h-328l-235 743l-250 -743h-316l445 1057l-31 78q-42 112 -143 112q-47 0 -109 -20l-59 211q102 45 217 45z" />
    <glyph glyph-name="uni03BC" unicode="&#x3bc;" 
d="M414 -397h-287v1466h287v-668q0 -115 41 -154.5t104 -39.5t99 16.5t69 46.5q72 64 72 156v643h286v-1069h-278v147q-99 -172 -256 -172q-93 0 -137 52v-424z" />
    <glyph glyph-name="nu" unicode="&#x3bd;" horiz-adv-x="1161" 
d="M16 1069h332l240 -743l239 743h318l-422 -1069h-287z" />
    <glyph glyph-name="xi" unicode="&#x3be;" horiz-adv-x="1099" 
d="M618 1282q-217 0 -217 -199q0 -132 61.5 -165t110.5 -33h267v-223h-260q-115 0 -159 -51.5t-44 -149.5t67.5 -148.5t182.5 -76.5l159 -37q164 -37 228.5 -111t64.5 -203q0 -159 -178 -305l-168 144q39 39 59.5 68.5t20.5 69.5t-39 65.5t-112 43.5l-179 43
q-327 77 -360 214t-33 210q0 235 219 340q-184 104 -184 324q0 279 183.5 338t314.5 59q219 0 332.5 -87t131.5 -263l-258 -35q-18 90 -68 129t-143 39z" />
    <glyph glyph-name="omicron" unicode="&#x3bf;" horiz-adv-x="1249" 
d="M567.5 872q-180.5 0 -180.5 -250.5t56.5 -337.5t181.5 -87q237 0 237 252.5t-57 337.5t-237.5 85zM227.5 113.5q-137.5 146.5 -137.5 417.5t144 421t394 150q251 0 391 -149.5t140 -415.5t-143 -418t-397 -152t-391.5 146.5z" />
    <glyph glyph-name="pi" unicode="&#x3c0;" horiz-adv-x="1314" 
d="M1067 295q0 -98 82 -98q47 0 82 10l33 -207q-87 -33 -223 -33t-196.5 85t-60.5 245v543h-290v-840h-287v840h-182v229h1239v-229h-197v-545z" />
    <glyph glyph-name="rho" unicode="&#x3c1;" horiz-adv-x="1267" 
d="M1052.5 122.5q-125.5 -155.5 -339.5 -155.5q-80 0 -159 29t-148 115v-508h-287v954q0 267 145 406t395 139t384.5 -152.5t134.5 -411.5q0 -260 -125.5 -415.5zM403 532q0 -207 74 -274q41 -39 83 -49t87 -10q102 0 167 82.5t65 253.5q0 263 -93.5 300t-140.5 37
q-106 0 -174 -79.5t-68 -251.5v-9z" />
    <glyph glyph-name="sigma1" unicode="&#x3c2;" horiz-adv-x="1126" 
d="M1055 -106q0 -164 -178 -314l-168 144q39 39 59 68.5t20 69.5t-38.5 63.5t-112.5 45.5l-158 47q-314 92 -351.5 255t-37.5 265q0 231 131 397.5t395 166.5q193 0 314 -90t147 -301l-282 -37q-16 104 -58.5 151t-116.5 47q-128 0 -180.5 -95t-52.5 -206
q0 -110 20.5 -163.5t66.5 -96.5t171 -78l117 -34q161 -50 227 -118t66 -187z" />
    <glyph glyph-name="sigma" unicode="&#x3c3;" horiz-adv-x="1259" 
d="M856 494q0 229 -121 346h-63q-133 0 -209 -77t-76 -243q0 -225 80.5 -274t147.5 -49q125 0 183 83.5t58 213.5zM618 -33q-254 0 -391 147t-137 394t149.5 404t442.5 157h516v-229h-240q86 -75 130.5 -178.5t44.5 -203.5q0 -99 -30 -188.5t-130 -196t-355 -106.5z" />
    <glyph glyph-name="tau" unicode="&#x3c4;" horiz-adv-x="1069" 
d="M796 205q96 0 165 22l40 -211q-67 -22 -150 -31.5t-120 -9.5q-205 0 -295 89.5t-90 265.5v510h-321v229h993v-229h-385v-473q0 -82 33.5 -122t129.5 -40z" />
    <glyph glyph-name="upsilon" unicode="&#x3c5;" horiz-adv-x="1159" 
d="M518 -33q-174 0 -295 117t-121 381v604h287v-604q0 -131 46 -194.5t144.5 -63.5t144.5 63.5t46 194.5v604h287v-604q0 -389 -182.5 -443.5t-356.5 -54.5z" />
    <glyph glyph-name="phi" unicode="&#x3c6;" horiz-adv-x="1630" 
d="M1249 535q0 152 -83 239.5t-210 97.5v-673q203 13 248 134.5t45 201.5zM381 532q0 -155 83 -240t210 -93v673q-127 -10 -210 -97.5t-83 -242.5zM815 1102q359 0 542 -158t183 -402q0 -243 -145 -392t-439 -175v-372h-282v372q-433 35 -508.5 240t-75.5 322t43 220
t183 224t499 121z" />
    <glyph glyph-name="chi" unicode="&#x3c7;" horiz-adv-x="1181" 
d="M166 866q-52 0 -100 -24l-66 209q31 12 79 31.5t177 19.5q190 0 283 -219l100 -238l199 424h301l-367 -686l217 -446q31 -66 61.5 -94.5t84.5 -28.5t104 24l66 -209q-31 -12 -56.5 -22t-66.5 -19.5t-138 -9.5q-98 0 -170.5 59.5t-117.5 159.5l-156 344l-285 -538h-301
l449 811l-158 329q-31 66 -59 94.5t-80 28.5z" />
    <glyph glyph-name="psi" unicode="&#x3c8;" horiz-adv-x="1634" 
d="M1239 582v487h283v-498q0 -291 -155.5 -434.5t-408.5 -156.5v-377h-282v377q-400 20 -481.5 227t-81.5 364v498h282v-487q0 -281 111.5 -328t169.5 -53v868h282v-868q281 30 281 381z" />
    <glyph glyph-name="omega" unicode="&#x3c9;" horiz-adv-x="1667" 
d="M1577 498q0 -530 -401 -531q-133 0 -209 50.5t-133 154.5q-86 -158 -180.5 -181.5t-186.5 -23.5t-234.5 76.5t-142.5 474.5q0 288 223 590l232 -119q-66 -92 -112 -220t-46 -261q0 -311 158 -311q66 0 105.5 65.5t39.5 202.5v295h287v-295q0 -137 40 -202.5t105 -65.5
q158 0 158 311q0 133 -46 261t-112 220l232 119q223 -302 223 -610z" />
    <glyph glyph-name="iotadieresis" unicode="&#x3ca;" horiz-adv-x="651" 
d="M133 303v766h287v-731q0 -59 20 -94t75 -35t101 14l43 -211q-106 -32 -229 -32q-297 0 -297 323zM401 1501h267v-256h-267v256zM-12 1501h266v-256h-266v256z" />
    <glyph glyph-name="upsilondieresis" unicode="&#x3cb;" horiz-adv-x="1159" 
d="M580 -33q-234 0 -356 117t-122 381v604h287v-604q0 -131 46 -195q47 -64 145 -63q98 0 144 63t46 195v604h287v-604q0 -388 -276 -471q-88 -27 -201 -27zM664 1501h266v-256h-266v256zM250 1501h266v-256h-266v256z" />
    <glyph glyph-name="omicrontonos" unicode="&#x3cc;" horiz-adv-x="1261" 
d="M387 534q-1 -338 243 -337q244 -1 244 337t-244 338t-243 -338zM232 114q-142 148 -142 417t147 420t395 151t395 -151q146 -151 145 -415q-1 -265 -147 -417t-399 -152q-252 -1 -394 147zM657 1565h285l-205 -348h-223z" />
    <glyph glyph-name="upsilontonos" unicode="&#x3cd;" horiz-adv-x="1159" 
d="M580 -33q-234 0 -356 117t-122 381v604h287v-604q0 -131 46 -195q47 -64 145 -63q98 0 144 63t46 195v604h287v-604q0 -388 -276 -471q-88 -27 -201 -27zM600 1565h285l-205 -348h-223z" />
    <glyph glyph-name="omegatonos" unicode="&#x3ce;" horiz-adv-x="1667" 
d="M1354 1108q223 -302 223 -610q0 -530 -401 -531q-133 1 -209 51t-133 154q-89 -162 -225 -192q-50 -12 -142 -12t-170 41q-78 42 -124 117q-81 132 -83 392q0 215 137 458q41 71 86 132l232 -119q-66 -92 -112 -220t-46 -261q0 -313 158 -311q65 -1 105 65t40 203v295
h287v-295q0 -137 40 -203t105 -65q158 0 158 311q0 133 -46 261t-112 220zM860 1565h285l-205 -348h-223z" />
    <glyph glyph-name="uni0400" unicode="&#x400;" horiz-adv-x="1236" 
d="M150 1462h997v-260h-692v-319h651v-262h-651v-361h735l-31 -260h-1009v1462zM612 1878l262 -297h-268l-325 297h331z" />
    <glyph glyph-name="afii10023" unicode="&#x401;" horiz-adv-x="1236" 
d="M150 1462h997v-260h-692v-319h651v-262h-651v-361h735l-31 -260h-1009v1462zM727 1866h274v-264h-274v264zM301 1866h274v-264h-274v264z" />
    <glyph glyph-name="afii10051" unicode="&#x402;" horiz-adv-x="1689" 
d="M1071 911q557 0 557 -457q0 -222 -150.5 -338t-443.5 -116h-82v256h64q299 0 299 193q0 110 -68.5 160t-227.5 50t-263 -41v-618h-305v1198h-410v264h1227v-264h-512v-330q167 43 315 43z" />
    <glyph glyph-name="afii10052" unicode="&#x403;" horiz-adv-x="1107" 
d="M150 1462h933v-264h-628v-1198h-305v1462zM686 1878h332l-326 -297h-268z" />
    <glyph glyph-name="afii10053" unicode="&#x404;" horiz-adv-x="1484" 
d="M277 166q-175 203 -175 579t198 565t495 189q227 0 375.5 -102.5t201.5 -329.5l-305 -43q-29 104 -91.5 158.5t-191.5 54.5q-219 0 -282.5 -130t-77.5 -224h582v-262h-584q23 -205 119 -300.5t243 -95.5q195 0 237 88t54 138h330q-83 -488 -619 -488q-334 0 -509 203z
" />
    <glyph glyph-name="afii10054" unicode="&#x405;" horiz-adv-x="1320" 
d="M938 412q0 57 -43 107t-158 73l-190 35q-236 42 -349 144q-114 102 -114 304t156 313t429 111q509 0 560 -440l-289 -37q-23 121 -87 174q-65 53 -196 53q-259 0 -264 -157q0 -82 46 -123t157 -64l201 -39q239 -47 349 -152t110 -304t-148 -323q-147 -124 -434 -124
t-446 128t-171 386h310q10 -135 87 -196t226 -62q258 0 258 193z" />
    <glyph glyph-name="afii10055" unicode="&#x406;" horiz-adv-x="604" 
d="M150 1462h305v-1462h-305v1462z" />
    <glyph glyph-name="afii10056" unicode="&#x407;" horiz-adv-x="604" 
d="M150 1462h305v-1462h-305v1462zM379 1866h274v-264h-274v264zM-47 1866h274v-264h-274v264z" />
    <glyph glyph-name="afii10057" unicode="&#x408;" horiz-adv-x="1302" 
d="M864 520v942h305v-960q0 -260 -144 -400q-144 -139 -406 -139t-404 131q-141 131 -154 410h306q13 -145 68 -211t185 -67t187 76t57 218z" />
    <glyph glyph-name="afii10058" unicode="&#x409;" horiz-adv-x="2189" 
d="M1368 707v-455h176q160 0 221.5 57.5t61.5 169.5t-63 170t-218 58h-178zM1368 961h191q305 0 437 -132t132 -344q0 -341 -206 -413t-374 -72h-485v1206h-291l-55 -440q-23 -172 -100.5 -477t-503.5 -305h-74v260h33q165 0 245.5 151t120.5 506l66 561h864v-501z" />
    <glyph glyph-name="afii10059" unicode="&#x40a;" horiz-adv-x="2129" 
d="M1309 655v-403h176q160 0 221 49t61 155t-62 152.5t-218 46.5h-178zM1004 655h-549v-655h-305v1462h305v-542h549v542h305v-542h190q296 0 432.5 -124.5t136.5 -330.5q0 -329 -208.5 -397t-370.5 -68h-485v655z" />
    <glyph glyph-name="afii10060" unicode="&#x40b;" horiz-adv-x="1689" 
d="M1587 430v-430h-305v358q0 158 -59.5 226.5t-214.5 68.5q-61 0 -135 -14t-117 -35v-604h-305v1198h-410v264h1227v-264h-512v-356q133 53 293 53q289 0 413.5 -120t124.5 -345z" />
    <glyph glyph-name="afii10061" unicode="&#x40c;" horiz-adv-x="1394" 
d="M1232 1206q-97 0 -155 -121l-69 -151q-57 -124 -168 -174q55 -27 97 -74t87 -115l371 -571h-355l-331 518q-35 57 -72 77q-36 21 -115 21h-67v-616h-305v1462h305v-598h51q78 0 138 38t112 142l100 209q57 119 139 164q83 45 183 45t168 -20l-37 -244q-40 8 -77 8z
M809 1878h332l-326 -297h-268z" />
    <glyph glyph-name="uni040D" unicode="&#x40d;" horiz-adv-x="1460" 
d="M1311 0h-297v961l-592 -961h-272v1462h296v-970l590 970h275v-1462zM674 1878l262 -297h-268l-326 297h332z" />
    <glyph glyph-name="afii10062" unicode="&#x40e;" horiz-adv-x="1280" 
d="M256 203q183 0 252 164l27 63l-535 1032h336l344 -737l289 737h311l-494 -1124q-86 -197 -203 -286q-118 -89 -321 -89q-136 0 -211 39l60 229q65 -28 145 -28zM658 1763q64 0 106 31q41 31 45 109h205q0 -160 -95 -239t-263 -79t-259 79q-90 79 -90 239h201
q4 -78 45 -109t105 -31z" />
    <glyph glyph-name="afii10145" unicode="&#x40f;" horiz-adv-x="1454" 
d="M455 264h544v1198h306v-1462h-445v-354h-266v354h-444v1462h305v-1198z" />
    <glyph glyph-name="afii10017" unicode="&#x410;" horiz-adv-x="1429" 
d="M885 590l-178 524l-177 -524h355zM569 1462h291l549 -1462h-328l-116 338h-512l-117 -338h-316z" />
    <glyph glyph-name="afii10018" unicode="&#x411;" horiz-adv-x="1304" 
d="M455 686v-434h217q221 0 245.5 80t24.5 130q0 114 -60 169t-208 55h-219zM1243 465q0 -465 -567 -465h-526v1462h913v-264h-608v-258h231q557 0 557 -475z" />
    <glyph glyph-name="afii10019" unicode="&#x412;" horiz-adv-x="1325" 
d="M700 240q210 0 250 120q12 37 13 84q1 94 -51 144t-181 49h-287v-397h256zM711 883q121 0 166 45t45 132t-58 125t-198 38h-222v-340h267zM150 1462h526q439 0 519 -239q24 -72 24 -157t-37 -161t-140 -129q177 -94 206 -241q9 -45 9 -114q1 -69 -27 -151t-92 -141
q-141 -129 -427 -129h-561v1462z" />
    <glyph glyph-name="afii10020" unicode="&#x413;" horiz-adv-x="1107" 
d="M150 1462h933v-264h-628v-1198h-305v1462z" />
    <glyph glyph-name="afii10021" unicode="&#x414;" horiz-adv-x="1562" 
d="M1053 264v942h-318l-18 -182q-56 -536 -199 -760h535zM1354 1462v-1198h168v-618h-267v354h-964v-354h-266v618h163q193 273 252 866l33 332h881z" />
    <glyph glyph-name="afii10022" unicode="&#x415;" horiz-adv-x="1236" 
d="M150 1462h997v-260h-692v-319h651v-262h-651v-361h735l-31 -260h-1009v1462z" />
    <glyph glyph-name="afii10024" unicode="&#x416;" horiz-adv-x="2168" 
d="M1989 1206q-97 0 -154 -121l-70 -151q-58 -125 -168 -174q55 -27 97.5 -74t87.5 -115l370 -571h-354l-332 518q-37 59 -75 79.5t-111 20.5h-45v-618h-305v618h-62q-116 0 -178 -100l-332 -518h-342l394 606q81 121 163 154q-113 40 -174 174l-69 151q-35 74 -72 97.5
t-73 23.5t-79 -8l-36 244q78 20 176.5 20t172 -37t118.5 -137l114 -244q49 -104 110.5 -143t139.5 -39h29v600h305v-600h29q78 0 138 39t111 143l101 209q57 119 139 164t182 45t168 -20l-37 -244q-40 8 -77 8z" />
    <glyph glyph-name="afii10025" unicode="&#x417;" horiz-adv-x="1325" 
d="M662 1499q273 0 408.5 -110.5t135.5 -282.5q0 -104 -49 -191.5t-147 -140.5q123 -49 176 -144t53 -254.5t-151 -286t-442 -126.5q-290 0 -436.5 132t-148.5 356h293q12 -135 78.5 -188.5t224.5 -53.5q287 0 287 211t-323 211h-144v243h160q135 0 208 52.5t73 146.5
q0 182 -198 182t-262.5 -52t-86.5 -159l-279 37q69 418 570 418z" />
    <glyph glyph-name="afii10026" unicode="&#x418;" horiz-adv-x="1460" 
d="M1311 0h-297v961l-592 -961h-272v1462h296v-970l590 970h275v-1462z" />
    <glyph glyph-name="afii10027" unicode="&#x419;" horiz-adv-x="1460" 
d="M1311 0h-297v961l-592 -961h-272v1462h296v-970l590 970h275v-1462zM725 1763q142 0 149 140h205q0 -160 -95 -239t-263 -79t-258 79t-90 239h200q4 -78 45 -109t107 -31z" />
    <glyph glyph-name="afii10028" unicode="&#x41a;" horiz-adv-x="1394" 
d="M1232 1206q-97 0 -155 -121l-69 -151q-57 -124 -168 -174q55 -27 97 -74t87 -115l371 -571h-355l-331 518q-36 59 -73 78.5t-114 19.5h-67v-616h-305v1462h305v-598h51q78 0 138.5 38t111.5 142l100 209q57 119 139.5 164t182.5 45t168 -20l-37 -244q-40 8 -77 8z" />
    <glyph glyph-name="afii10029" unicode="&#x41b;" horiz-adv-x="1550" 
d="M1096 1206h-332l-53 -440q-23 -172 -60 -315.5t-143 -305t-402 -161.5h-73v260h33q165 0 245.5 151t120.5 506l66 561h903v-1462h-305v1206z" />
    <glyph glyph-name="afii10030" unicode="&#x41c;" horiz-adv-x="1761" 
d="M150 1462h366l365 -1091l374 1091h357v-1462h-281v975l-334 -975h-237l-336 973v-973h-274v1462z" />
    <glyph glyph-name="afii10031" unicode="&#x41d;" horiz-adv-x="1488" 
d="M150 1462h305v-565h579v565h305v-1462h-305v614h-579v-614h-305v1462z" />
    <glyph glyph-name="afii10032" unicode="&#x41e;" horiz-adv-x="1597" 
d="M799 225q379 0 381 506q0 242 -94 374t-288 132q-192 0 -286 -132t-94 -375t94 -374t287 -131zM804 1499q326 0 508 -206q183 -206 183 -562q0 -355 -183 -562q-183 -206 -510 -206q-328 0 -513 206t-186 561t187 562t514 207z" />
    <glyph glyph-name="afii10033" unicode="&#x41f;" horiz-adv-x="1454" 
d="M999 1198h-544v-1198h-305v1462h1155v-1462h-306v1198z" />
    <glyph glyph-name="afii10034" unicode="&#x420;" horiz-adv-x="1310" 
d="M670 776q222 0 257 132q11 42 11 92q0 109 -59 159q-59 51 -211 51h-217v-434h219zM672 1462q567 0 567 -456q0 -340 -288 -445q-108 -39 -271 -39h-229v-522h-301v1462h522z" />
    <glyph glyph-name="afii10035" unicode="&#x421;" horiz-adv-x="1460" 
d="M780 1499q394 0 531 -293q43 -92 63 -207l-303 -38q-23 129 -87 203t-204 73q-176 0 -267 -132t-91 -375t97 -374t249 -131t220 73q67 73 83 208h328q-21 -242 -180 -392q-159 -151 -463 -151q-305 0 -480 206q-174 206 -174 561q0 354 183 562q182 207 495 207z" />
    <glyph glyph-name="afii10036" unicode="&#x422;" horiz-adv-x="1269" 
d="M481 1198h-440v264h1188v-264h-441v-1198h-307v1198z" />
    <glyph glyph-name="afii10037" unicode="&#x423;" horiz-adv-x="1280" 
d="M256 203q184 0 252 164l27 63l-535 1032h336l344 -737l289 737h311l-494 -1124q-86 -197 -204 -286t-320 -89q-130 0 -211 39l60 229q65 -28 145 -28z" />
    <glyph glyph-name="afii10038" unicode="&#x424;" horiz-adv-x="1763" 
d="M389 799q0 -176 90 -264.5t256 -110.5v756q-174 -23 -260 -114t-86 -267zM1376 804q0 167 -85 260t-263 116v-756q180 25 264 119t84 261zM259.5 1243.5q177.5 154.5 475.5 179.5v160h293v-158q463 -41 558 -256t95 -369q0 -285 -179 -435t-474 -183v-182h-293v180
q-302 25 -477.5 177t-175.5 442t177.5 444.5z" />
    <glyph glyph-name="afii10039" unicode="&#x425;" horiz-adv-x="1400" 
d="M522 770l-475 692h348l301 -467l308 467h327l-467 -700l525 -762h-349l-354 532l-340 -532h-334z" />
    <glyph glyph-name="afii10040" unicode="&#x426;" horiz-adv-x="1501" 
d="M150 0v1462h305v-1198h532v1198h305v-1198h168v-618h-266v354h-1044z" />
    <glyph glyph-name="afii10041" unicode="&#x427;" horiz-adv-x="1388" 
d="M523 530q-259 0 -340 160t-81 295v477h306v-395q0 -158 59 -226.5t215 -68.5q61 0 135 14.5t117 34.5v641h305v-1462h-305v592q-152 -62 -411 -62z" />
    <glyph glyph-name="afii10042" unicode="&#x428;" horiz-adv-x="2086" 
d="M1196 264h436v1198h305v-1462h-1787v1462h305v-1198h436v1198h305v-1198z" />
    <glyph glyph-name="afii10043" unicode="&#x429;" horiz-adv-x="2146" 
d="M150 0v1462h305v-1198h436v1198h305v-1198h436v1198h305v-1198h168v-618h-266v354h-1689z" />
    <glyph glyph-name="afii10044" unicode="&#x42a;" horiz-adv-x="1515" 
d="M20 1462h650v-501h215q305 0 437 -132t132 -344q0 -342 -206 -413.5t-374 -71.5h-509v1198h-345v264zM670 707v-455h200q160 0 221.5 57.5t61.5 169.5t-63 170t-218 58h-202z" />
    <glyph glyph-name="afii10045" unicode="&#x42b;" horiz-adv-x="1902" 
d="M1448 1462h305v-1462h-305v1462zM455 707v-455h188q160 0 221.5 57.5t61.5 169.5t-63 170t-218 58h-190zM150 1462h305v-501h202q305 0 437.5 -132.5t132.5 -343.5q0 -341 -206 -413t-374 -72h-497v1462z" />
    <glyph glyph-name="afii10046" unicode="&#x42c;" horiz-adv-x="1316" 
d="M455 707v-455h217q160 0 221 57.5t61 170.5t-63 170t-217 57h-219zM150 1462h305v-501h231q305 0 437 -132t132 -344q0 -341 -205.5 -413t-373.5 -72h-526v1462z" />
    <glyph glyph-name="afii10047" unicode="&#x42d;" horiz-adv-x="1454" 
d="M692 1499q298 0 479 -191.5t181 -564.5q0 -374 -172 -577t-502 -203q-428 0 -517 188.5t-100 299.5h310q16 -96 86.5 -161t208.5 -65q182 0 266 90.5t100 305.5h-565v262h563q-37 283 -155.5 318.5t-168.5 35.5q-129 0 -208.5 -40t-122.5 -171l-297 41q121 432 614 432z
" />
    <glyph glyph-name="afii10048" unicode="&#x42e;" horiz-adv-x="2244" 
d="M1827 731q0 506 -363.5 506t-363.5 -506t363.5 -506t363.5 506zM455 623v-623h-305v1462h305v-583h338q37 292 213 456t456 164q319 0 499.5 -206t180.5 -563t-178.5 -562t-494.5 -205t-486 176t-195 484h-333z" />
    <glyph glyph-name="afii10049" unicode="&#x42f;" horiz-adv-x="1402" 
d="M948 803v407h-209q-216 0 -243 -76.5t-27 -120.5q0 -100 54 -155t188 -55h237zM446 616q-286 74 -286 386t201.5 386t373.5 74h518v-1462h-305v549h-131q-95 0 -134.5 -25.5t-59 -52.5t-37.5 -63l-211 -408h-350l231 428q51 94 98 132t92 56z" />
    <glyph glyph-name="afii10065" unicode="&#x430;" horiz-adv-x="1148" 
d="M348 297q0 -43 37 -76t125 -33t167 59t79 179v59l-127 -6q-235 -10 -258 -74.5t-23 -107.5zM442 -27q-266 0 -323.5 119.5t-57.5 217.5t49.5 167.5t155.5 124t355 64.5l137 6v53q0 98 -54.5 136t-128.5 38q-170 0 -194 -129l-262 25q29 168 146.5 242.5t320.5 74.5
q348 0 397 -165t49 -263v-684h-270v135q-142 -162 -320 -162z" />
    <glyph glyph-name="afii10066" unicode="&#x431;" horiz-adv-x="1282" 
d="M739 1018q199 0 326 -133t127 -374t-146 -392.5t-409 -151.5t-394.5 167t-131.5 482q0 426 229 641q156 149 549 213l147 27l33 -233l-207 -39q-249 -48 -348 -135t-133 -248q113 176 358 176zM672 788q-258 0 -258 -288q0 -141 58 -222t172 -81t183.5 71.5t69.5 216.5
q0 303 -225 303z" />
    <glyph glyph-name="afii10067" unicode="&#x432;" horiz-adv-x="1163" 
d="M645 221q98 0 134 26.5t36 82.5t-36 89.5t-138 33.5h-242v-232h246zM631 641q153 0 153 109q0 59 -31.5 85.5t-121.5 26.5h-232v-221h232zM1102 319q0 -147 -102 -233t-365 -86h-512v1081h516q334 0 382 -111.5t48 -172.5q0 -164 -147 -234q180 -72 180 -244z" />
    <glyph glyph-name="afii10068" unicode="&#x433;" horiz-adv-x="915" 
d="M887 1081v-239h-477v-842h-287v1081h764z" />
    <glyph glyph-name="afii10069" unicode="&#x434;" horiz-adv-x="1277" 
d="M840 238v618h-246l-16 -166q-16 -166 -53.5 -285.5t-71.5 -166.5h387zM1124 1081v-843h133v-525h-245v287h-725v-287h-246v525h113q126 105 174 626l18 217h778z" />
    <glyph glyph-name="afii10070" unicode="&#x435;" horiz-adv-x="1206" 
d="M842 662q0 235 -224 235q-162 0 -198.5 -93t-38.5 -142h461zM625 -33q-266 0 -400.5 151.5t-134.5 420.5t147.5 421t390.5 152t366.5 -142.5t123.5 -381.5v-115h-741q4 -129 65.5 -206t184.5 -77q170 0 200 144h279q-29 -180 -144.5 -273.5t-336.5 -93.5z" />
    <glyph glyph-name="afii10072" unicode="&#x436;" horiz-adv-x="1724" 
d="M186 1081q129 0 195.5 -51t123.5 -185q56 -134 95 -170t98 -36h29v442h270v-442h29q61 0 97 36t74 127q74 176 137 227.5t204 51.5q49 0 121 -16l-25 -211q-32 8 -70 8t-61.5 -14t-46.5 -62l-43 -94q-23 -47 -52.5 -84t-82.5 -53q93 -24 176 -147l260 -408h-305l-201 319
q-47 72 -76.5 98.5t-82.5 26.5h-52v-444h-270v444h-51q-59 0 -92 -30.5t-72 -94.5l-197 -319h-305l264 408q75 118 179 145q-57 16 -90 54t-56 85l-43 94q-23 47 -46 61.5t-62 14.5t-70 -8l-25 211q69 16 125 16z" />
    <glyph glyph-name="afii10073" unicode="&#x437;" horiz-adv-x="1134" 
d="M745 763q1 124 -191 124q-104 0 -151 -38t-69 -116l-264 45q38 161 152 247.5t346 86.5q233 0 347.5 -86t114.5 -221q0 -82 -46 -146.5t-120 -89.5q132 -36 164.5 -114t32.5 -136q0 -158 -125 -253t-372 -95t-376 93.5t-135 291.5h277q10 -86 66 -122.5t172 -36.5
t159 34.5t43 94.5q0 125 -172 125h-221v192h229q68 0 103.5 32t35.5 88z" />
    <glyph glyph-name="afii10074" unicode="&#x438;" horiz-adv-x="1193" 
d="M1071 0h-260v670l-444 -670h-244v1081h258v-673l446 673h244v-1081z" />
    <glyph glyph-name="afii10075" unicode="&#x439;" horiz-adv-x="1193" 
d="M1071 0h-260v670l-444 -670h-244v1081h258v-673l446 673h244v-1081zM963 1528q1 -160 -95 -239t-264 -79t-258 79t-90 239h201q7 -141 151 -139q63 0 105 30q41 31 45 109h205z" />
    <glyph glyph-name="afii10076" unicode="&#x43a;" horiz-adv-x="1144" 
d="M123 0v1081h287v-442h49q61 0 99 36t76 127q72 173 144.5 226t216.5 53q45 0 117 -16l-25 -211q-31 8 -69 8t-62 -14t-47 -62l-43 -94q-23 -51 -51.5 -87t-87.5 -56q91 -36 160 -141l258 -408h-316l-200 319q-45 70 -75.5 97.5t-84.5 27.5h-59v-444h-287z" />
    <glyph glyph-name="afii10077" unicode="&#x43b;" horiz-adv-x="1222" 
d="M813 844h-248l-33 -287q-36 -306 -148 -436.5t-327 -130.5h-57v233h27q92 0 149 84.5t80 296.5l55 477h789v-1081h-287v844z" />
    <glyph glyph-name="afii10078" unicode="&#x43c;" horiz-adv-x="1486" 
d="M123 1081h311l318 -778l325 778h287v-1081h-258v616l-260 -616h-207l-258 625v-625h-258v1081z" />
    <glyph glyph-name="afii10079" unicode="&#x43d;" horiz-adv-x="1245" 
d="M123 1081h287v-405h426v405h286v-1081h-286v438h-426v-438h-287v1081z" />
    <glyph glyph-name="afii10080" unicode="&#x43e;" horiz-adv-x="1261" 
d="M386.5 540q-0.5 -343 243.5 -343t244 343t-243.5 343t-244 -343zM230.5 117.5q-140.5 150.5 -140.5 420.5t146 422t395 152t394.5 -150.5t145.5 -416.5t-146 -422t-400 -156t-394.5 150.5z" />
    <glyph glyph-name="afii10081" unicode="&#x43f;" horiz-adv-x="1220" 
d="M1098 1081v-1081h-287v844h-401v-844h-287v1081h975z" />
    <glyph glyph-name="afii10082" unicode="&#x440;" horiz-adv-x="1271" 
d="M883 537q0 342 -228 342q-108 0 -170 -62q-43 -41 -60 -100.5t-17 -153.5v-33q0 -184 62 -257.5t179 -73.5t175.5 93t58.5 245zM123 1081h278v-143q54 91 149.5 132.5t205.5 41.5t195 -48t136.5 -128t73 -183.5t21.5 -277t-119 -341t-346 -167.5q-144 0 -236 72
q-43 31 -71 72v-508h-287v1478z" />
    <glyph glyph-name="afii10083" unicode="&#x441;" horiz-adv-x="1165" 
d="M608 197q170 0 189 190h290q-16 -193 -131.5 -306.5t-347.5 -113.5q-387 0 -452.5 222.5t-65.5 414.5t141 350t390 158q309 0 375.5 -146.5t76.5 -228.5l-289 -39q-10 82 -47 133.5t-115 51.5t-156.5 -53.5t-78.5 -286.5q0 -346 221 -346z" />
    <glyph glyph-name="afii10084" unicode="&#x442;" horiz-adv-x="1064" 
d="M391 844h-350v237h983v-237h-346v-844h-287v844z" />
    <glyph glyph-name="afii10085" unicode="&#x443;" horiz-adv-x="1161" 
d="M275 -168q58 0 93 27.5t60 97.5l33 90l-445 1034h332l250 -714l233 714h314l-432 -1112q-37 -92 -70 -160.5t-95.5 -137t-223.5 -68.5q-114 0 -215 32l47 213q61 -16 119 -16z" />
    <glyph glyph-name="afii10086" unicode="&#x444;" horiz-adv-x="1529" 
d="M1178 534q0 138 -77 208.5t-198 86.5v-589q123 12 199 84t76 210zM352 529q0 -259 273 -291v587q-123 -10 -198 -88.5t-75 -207.5zM66 520q0 227 142 367.5t417 177.5v358h278v-358q275 -27 418 -170t143 -366t-152.5 -359t-408.5 -170v-348h-278v348q-559 71 -559 520z
" />
    <glyph glyph-name="afii10087" unicode="&#x445;" horiz-adv-x="1128" 
d="M408 555l-355 526h338l187 -305l208 305h299l-350 -510l377 -571h-332l-221 354l-231 -354h-312z" />
    <glyph glyph-name="afii10088" unicode="&#x446;" horiz-adv-x="1224" 
d="M123 0v1081h287v-843h374v843h287v-843h133v-525h-246v287h-835z" />
    <glyph glyph-name="afii10089" unicode="&#x447;" horiz-adv-x="1153" 
d="M525 377q-443 0 -443 399v305h287v-250q0 -131 55 -177t164 -46t155 21v452h287v-1081h-287v397q-107 -20 -218 -20z" />
    <glyph glyph-name="afii10090" unicode="&#x448;" horiz-adv-x="1720" 
d="M1597 0h-1474v1081h287v-843h307v843h287v-843h307v843h286v-1081z" />
    <glyph glyph-name="afii10091" unicode="&#x449;" horiz-adv-x="1751" 
d="M1597 238h134v-525h-246v287h-1362v1081h287v-843h307v843h287v-843h307v843h286v-843z" />
    <glyph glyph-name="afii10092" unicode="&#x44a;" horiz-adv-x="1253" 
d="M518 233h223q156 0 156 134q0 63 -35 100t-127 37h-217v-271zM0 1081h518v-346h254q209 0 314.5 -98.5t105.5 -265.5q0 -168 -109.5 -269.5t-334.5 -101.5h-517v844h-231v237z" />
    <glyph glyph-name="afii10093" unicode="&#x44b;" horiz-adv-x="1626" 
d="M410 233h223q156 0 155 134q0 63 -34.5 100t-126.5 37h-217v-271zM1219 1081h284v-1081h-284v1081zM410 1081v-346h254q210 0 314.5 -98.5t104.5 -266.5q0 -167 -109.5 -268.5t-334.5 -101.5h-516v1081h287z" />
    <glyph glyph-name="afii10094" unicode="&#x44c;" horiz-adv-x="1163" 
d="M410 233h241q156 0 156 134q0 63 -35 100t-127 37h-235v-271zM410 1081v-346h272q209 0 314.5 -98.5t105.5 -265.5q0 -168 -109.5 -269.5t-335.5 -101.5h-534v1081h287z" />
    <glyph glyph-name="afii10095" unicode="&#x44d;" horiz-adv-x="1187" 
d="M399 643h402q-6 115 -62.5 180.5t-152.5 65.5t-154.5 -40t-75.5 -114l-264 39q47 234 215 286t281 52q233 0 371.5 -144.5t138.5 -418.5t-140 -428t-367 -154q-471 0 -513 379h274q18 -78 72.5 -117t209.5 -39t171 252h-406v201z" />
    <glyph glyph-name="afii10096" unicode="&#x44e;" horiz-adv-x="1748" 
d="M1139 883q-230 0 -230 -343t175.5 -343t226.5 90t51 256t-51 253t-172 87zM410 1081v-424h221q29 213 160 334t362 121t368.5 -152t137.5 -418q0 -265 -139.5 -420t-375.5 -155t-365.5 124t-151.5 355h-217v-446h-287v1081h287z" />
    <glyph glyph-name="afii10097" unicode="&#x44f;" horiz-adv-x="1167" 
d="M571 852q-153 0 -153 -111q0 -61 35.5 -96t105.5 -35h199v242h-187zM342 444q-213 58 -213 294t165 289.5t286 53.5h464v-1081h-286v379h-82q-70 0 -110 -25.5t-68 -77.5l-154 -276h-324l189 324q55 95 133 120z" />
    <glyph glyph-name="uni0450" unicode="&#x450;" horiz-adv-x="1206" 
d="M842 662q0 235 -224 235q-111 0 -172 -68t-65 -167h461zM625 -33q-266 0 -401 152q-134 152 -134 420t147 420q147 153 391 153q242 0 366 -142t124 -382v-115h-741q4 -129 65 -206t185 -77q170 0 200 144h279q-29 -180 -144 -274q-116 -93 -337 -93zM262 1534h326
l246 -317h-265z" />
    <glyph glyph-name="afii10071" unicode="&#x451;" horiz-adv-x="1206" 
d="M842 662q0 235 -224 235q-111 0 -172 -68t-65 -167h461zM625 -33q-266 0 -401 152q-134 152 -134 420t147 420q147 153 391 153q242 0 366 -142t124 -382v-115h-741q4 -129 65 -206t185 -77q170 0 200 144h279q-29 -180 -144 -274q-116 -93 -337 -93zM696 1501h267v-256
h-267v256zM283 1501h266v-256h-266v256z" />
    <glyph glyph-name="afii10099" unicode="&#x452;" horiz-adv-x="1282" 
d="M791 1018q192 0 279 -95.5t87 -299.5v-627q0 -199 -87 -287t-257 -88q-98 0 -213 35l41 215q66 -16 116 -16t81.5 25.5t31.5 109.5v594q0 113 -43 153.5t-106 40.5q-105 0 -178 -63q-68 -68 -68 -156v-559h-287v1130h-188v211h188v121h287v-121h443v-211h-443v-280
q124 168 316 168z" />
    <glyph glyph-name="afii10100" unicode="&#x453;" horiz-adv-x="915" 
d="M887 1081v-239h-477v-842h-287v1081h764zM526 1534h326l-307 -317h-264z" />
    <glyph glyph-name="afii10101" unicode="&#x454;" horiz-adv-x="1187" 
d="M629 190q187 0 207 152h274q-26 -197 -164 -286t-330 -89q-259 0 -392.5 148t-133.5 410t146.5 424.5t388.5 162.5q195 0 320.5 -78t158.5 -262l-279 -37q-20 82 -67 118t-143 36t-157 -64.5t-77 -177.5h407v-201h-407q17 -256 248 -256z" />
    <glyph glyph-name="afii10102" unicode="&#x455;" horiz-adv-x="1099" 
d="M574 899q-218 0 -218 -105q0 -46 32 -73t124 -43l135 -23q218 -35 300.5 -113.5t82.5 -235.5t-114.5 -248t-354.5 -91q-333 0 -414 132t-88 241h275q14 -94 75.5 -123t156.5 -29q182 0 182 101q0 49 -28 81.5t-106 45.5l-147 24q-197 31 -291 108t-94 230t128.5 243.5
t334.5 90.5q343 0 403 -128t72 -196l-256 -32q-34 143 -190 143z" />
    <glyph glyph-name="afii10103" unicode="&#x456;" horiz-adv-x="544" 
d="M125 1462h295v-258h-295v258zM129 1081h287v-1081h-287v1081z" />
    <glyph glyph-name="afii10104" unicode="&#x457;" horiz-adv-x="544" 
d="M346 1501h266v-256h-266v256zM-68 1501h267v-256h-267v256zM129 1081h287v-1081h-287v1081z" />
    <glyph glyph-name="afii10105" unicode="&#x458;" horiz-adv-x="544" 
d="M8 -145q53 0 87 25.5t34 109.5v1091h287v-1085q0 -199 -89 -287t-264 -88q-102 0 -219 35l41 215q70 -16 123 -16zM125 1462h295v-258h-295v258z" />
    <glyph glyph-name="afii10106" unicode="&#x459;" horiz-adv-x="1767" 
d="M1055 233h200q156 0 156 134q0 63 -35 100t-127 37h-194v-271zM768 844h-203l-33 -287q-36 -306 -148 -436.5t-327 -130.5h-57v233h27q92 0 149 84.5t80 296.5l55 477h744v-346h231q209 0 314.5 -98.5t105.5 -265.5q0 -168 -109.5 -269.5t-334.5 -101.5h-494v844z" />
    <glyph glyph-name="afii10107" unicode="&#x45a;" horiz-adv-x="1787" 
d="M1432 348q0 121 -162 121h-195v-236h201q156 0 156 115zM123 1081h287v-381h378v381h287v-381h232q210 0 314.5 -96t104.5 -254t-109.5 -254t-334.5 -96h-494v469h-378v-469h-287v1081z" />
    <glyph glyph-name="afii10108" unicode="&#x45b;" horiz-adv-x="1273" 
d="M791 1018q192 0 279 -95.5t87 -299.5v-623h-287v584q0 113 -43 153.5t-106 40.5q-105 0 -178 -63q-68 -68 -68 -156v-559h-287v1130h-188v211h188v121h287v-121h443v-211h-443v-280q124 168 316 168z" />
    <glyph glyph-name="afii10109" unicode="&#x45c;" horiz-adv-x="1144" 
d="M123 0v1081h287v-442h49q61 0 99 36t76 127q71 171 144 225t217 54q45 0 117 -16l-25 -211q-31 8 -69 8t-63 -14q-24 -14 -46 -62l-43 -94q-24 -51 -52 -87t-87 -56q91 -36 160 -141l258 -408h-316l-200 319q-49 75 -78 100t-82 25h-59v-444h-287zM659 1534h326
l-307 -317h-264z" />
    <glyph glyph-name="uni045D" unicode="&#x45d;" horiz-adv-x="1193" 
d="M1071 0h-260v670l-444 -670h-244v1081h258v-673l446 673h244v-1081zM270 1534h326l246 -317h-264z" />
    <glyph glyph-name="afii10110" unicode="&#x45e;" horiz-adv-x="1161" 
d="M275 -168q58 0 94 28q35 28 59 97l33 90l-445 1034h332l250 -714l233 714h314l-432 -1112q-37 -93 -70 -161t-75 -114q-85 -93 -244 -91q-114 0 -215 32l47 213q61 -16 119 -16zM950 1528q0 -160 -95 -239t-263 -79t-258 79t-90 239h200q6 -142 150 -140q64 0 106 32
q41 30 45 108h205z" />
    <glyph glyph-name="afii10193" unicode="&#x45f;" horiz-adv-x="1220" 
d="M733 0v-287h-246v287h-364v1081h287v-843h401v843h287v-1081h-365z" />
    <glyph glyph-name="uni0462" unicode="&#x462;" horiz-adv-x="1562" 
d="M700 707v-455h218q160 0 221 57.5t61 170.5t-63 170t-217 57h-220zM395 1380v140h305v-140h437v-245h-437v-174h232q305 0 437 -132t132 -344q0 -341 -205.5 -413t-373.5 -72h-527v1135h-354v245h354z" />
    <glyph glyph-name="uni0463" unicode="&#x463;" horiz-adv-x="1267" 
d="M514 233h242q156 0 155 134q0 63 -34.5 100t-126.5 37h-236v-271zM0 1081h227v418h287v-418h404v-211h-404v-135h272q211 0 315.5 -98.5t104.5 -266.5q0 -167 -109.5 -268.5t-334.5 -101.5h-535v870h-227v211z" />
    <glyph glyph-name="uni0472" unicode="&#x472;" horiz-adv-x="1597" 
d="M1180 602q-94 -53 -187 -53t-174.5 39t-125.5 56.5t-91 17.5q-113 0 -188 -41q41 -406 385 -406q334 0 381 387zM416 858q94 53 188 53q93 0 210 -56t181 -56q111 0 187 39q-37 409 -383 409q-337 0 -383 -389zM289.5 1292q187.5 207 513.5 207t509 -206.5t183 -563
t-182.5 -561.5t-510.5 -205q-327 0 -513.5 207.5t-186.5 561t187.5 560.5z" />
    <glyph glyph-name="uni0473" unicode="&#x473;" horiz-adv-x="1261" 
d="M763 393q-53 0 -85.5 12.5t-88.5 41t-112 28.5t-100 -20q33 -265 254 -265q209 0 248 238q-63 -35 -116 -35zM490 682q49 0 80.5 -13.5t63.5 -28.5t63 -28.5t83 -13.5t105 27q-29 264 -254 264q-213 0 -250 -236q60 29 109 29zM230.5 117.5q-140.5 150.5 -140.5 420.5
t146 422t395 152t394.5 -150.5t145.5 -416.5t-146 -422t-400 -156t-394.5 150.5z" />
    <glyph glyph-name="uni0474" unicode="&#x474;" horiz-adv-x="1624" 
d="M1104.5 1403q105.5 96 277.5 96t293 -84l-96 -237q-80 49 -151 49q-70 0 -113.5 -30t-77.5 -126l-379 -1071h-289l-549 1462h340l355 -1034l231 717q53 162 158.5 258z" />
    <glyph glyph-name="uni0475" unicode="&#x475;" horiz-adv-x="1306" 
d="M1104 1112q84 0 142.5 -25.5t84.5 -48.5l-86 -207q-48 37 -112 37t-94.5 -31.5t-59.5 -109.5l-266 -727h-287l-414 1081h332l231 -755l164 510q91 276 365 276z" />
    <glyph glyph-name="uni048A" unicode="&#x48a;" horiz-adv-x="1552" 
d="M725 1763q142 0 149 140h205q0 -160 -95 -239t-263 -79t-258 79t-90 239h200q4 -78 45 -109t107 -31zM1311 264h200q0 -66 -12 -252t-301 -403l-176 170q154 117 199 221h-207v961l-592 -961h-272v1462h296v-970l590 970h275v-1198z" />
    <glyph glyph-name="uni048B" unicode="&#x48b;" horiz-adv-x="1224" 
d="M607 1389q64 0 105.5 30.5t45.5 108.5h205q0 -160 -95.5 -239t-263.5 -79t-258 79t-90 239h201q4 -78 45 -108.5t105 -30.5zM811 0v670l-444 -670h-244v1081h258v-673l446 673h244v-843h133q0 -180 -30.5 -263.5t-85 -154t-152.5 -142.5l-156 156q102 80 150 166h-119z
" />
    <glyph glyph-name="uni048C" unicode="&#x48c;" horiz-adv-x="1378" 
d="M516 707v-455h217q160 0 221.5 57.5t61.5 169.5t-63 170t-218 58h-219zM211 1092h-191v245h191v125h305v-125h320v-245h-320v-131h232q303 0 436 -132t133 -344q0 -341 -206 -413t-374 -72h-526v1092z" />
    <glyph glyph-name="uni048D" unicode="&#x48d;" horiz-adv-x="1247" 
d="M494 233h241q156 0 156 129q0 63 -35 98.5t-127 35.5h-235v-263zM0 1026h207v86h287v-86h352v-211h-352v-88h272q211 0 315.5 -97.5t104.5 -263.5q0 -167 -109.5 -266.5t-335.5 -99.5h-534v815h-207v211z" />
    <glyph glyph-name="uni048E" unicode="&#x48e;" horiz-adv-x="1372" 
d="M930 825q69 51 69 167q0 115 -59 166.5t-211 51.5h-278v-434h249l-94 150l187 116zM733 1462q567 0 567 -456q0 -301 -221 -416l97 -150l-189 -116l-129 204q-55 -6 -117 -6h-290v-522h-301v1462h583z" />
    <glyph glyph-name="uni048F" unicode="&#x48f;" horiz-adv-x="1271" 
d="M883 537q0 342 -228 342q-108 0 -170 -62q-43 -41 -60 -100.5t-17 -153.5v-47q0 -184 62 -258t179 -74h27l-123 197l170 106l119 -186q41 77 41 236zM698 -33q-125 0 -217 72q-43 31 -71 72v-508h-287v1478h278v-143q54 91 149.5 132.5t205.5 41.5t268 -89t158 -484
q0 -141 -46 -269.5t-143 -208.5l113 -176l-172 -106l-125 196q-46 -8 -111 -8z" />
    <glyph glyph-name="afii10050" unicode="&#x490;" horiz-adv-x="1095" 
d="M150 1462h667v203h266v-467h-628v-1198h-305v1462z" />
    <glyph glyph-name="afii10098" unicode="&#x491;" horiz-adv-x="915" 
d="M887 842h-477v-842h-287v1081h518v160h246v-399z" />
    <glyph glyph-name="uni0492" unicode="&#x492;" horiz-adv-x="1157" 
d="M211 608h-191v246h191v608h934v-264h-629v-344h389v-246h-389v-608h-305v608z" />
    <glyph glyph-name="uni0493" unicode="&#x493;" horiz-adv-x="937" 
d="M909 1081v-239h-477v-242h301v-211h-301v-389h-287v389h-145v211h145v481h764z" />
    <glyph glyph-name="uni0494" unicode="&#x494;" horiz-adv-x="1386" 
d="M747 909q295 0 436.5 -163.5t141.5 -447.5q0 -285 -168.5 -455.5t-490.5 -170.5h-93v260h105q336 0 336 367q0 176 -79 268t-255 92q-113 0 -225 -38v-621h-305v1477h958v-265h-653v-346q142 43 292 43z" />
    <glyph glyph-name="uni0495" unicode="&#x495;" horiz-adv-x="1171" 
d="M583 395q-105 0 -173 -24v-371h-287v1081h821v-237h-534v-240q94 23 212 23q236 0 362 -127t126 -370q0 -244 -145 -394t-437 -150h-69v232h63q205 0 249 103.5t44 189.5q0 158 -63.5 221t-168.5 63z" />
    <glyph glyph-name="uni0496" unicode="&#x496;" horiz-adv-x="2166" 
d="M1989 1206q-97 0 -154 -121l-70 -151q-58 -125 -168 -174q55 -27 97.5 -74t87.5 -115l198 -307h146v-618h-266v354h-62l-332 518q-37 59 -75 79.5t-111 20.5h-45v-618h-305v618h-62q-116 0 -178 -100l-332 -518h-342l394 606q81 121 163 154q-113 40 -174 174l-69 151
q-35 74 -72 97.5t-73 23.5t-79 -8l-36 244q78 20 176.5 20t172 -37t118.5 -137l114 -244q49 -104 110.5 -143t139.5 -39h29v600h305v-600h29q78 0 138 39t111 143l101 209q57 119 139 164t182 45t168 -20l-37 -244q-40 8 -77 8z" />
    <glyph glyph-name="uni0497" unicode="&#x497;" horiz-adv-x="1703" 
d="M186 1081q129 0 195.5 -51t123.5 -185q56 -134 95 -170t98 -36h29v442h270v-442h29q61 0 97 36t74 127q74 176 137 227.5t204 51.5q49 0 121 -16l-25 -211q-32 8 -70 8t-61.5 -14t-46.5 -62l-43 -94q-23 -47 -52.5 -84t-82.5 -53q93 -24 176 -147l109 -170h120v-525h-245
v287h-29l-201 319q-47 72 -76.5 98.5t-82.5 26.5h-52v-444h-270v444h-51q-59 0 -92 -30.5t-72 -94.5l-197 -319h-305l264 408q75 118 179 145q-57 16 -90 54t-56 85l-43 94q-23 47 -46 61.5t-62 14.5t-70 -8l-25 211q69 16 125 16z" />
    <glyph glyph-name="uni0498" unicode="&#x498;" horiz-adv-x="1325" 
d="M646 -315q84 0 84.5 45t-25 59t-93.5 14h-75l61 162q-270 12 -402.5 141.5t-134.5 344.5h293q12 -135 78.5 -188.5t224.5 -53.5q287 0 287 211t-323 211h-144v243h160q135 0 208 52.5t73 146.5q0 182 -198 182t-262.5 -52t-86.5 -159l-279 37q69 418 570 418
q273 0 408.5 -110.5t135.5 -282.5q0 -104 -49 -191.5t-147 -140.5q123 -49 176 -144t53 -200q0 -188 -120 -313t-355 -148l-27 -73q197 -20 197 -175q0 -98 -80 -138t-185 -40t-184 13v143q77 -14 161 -14z" />
    <glyph glyph-name="uni0499" unicode="&#x499;" horiz-adv-x="1134" 
d="M745 763q1 124 -191 124q-104 0 -151 -38t-69 -116l-264 45q38 161 152 247.5t346 86.5q233 0 347.5 -86t114.5 -221q0 -82 -46 -146.5t-120 -89.5q132 -36 164.5 -114t32.5 -136q0 -143 -102.5 -234t-311.5 -110l-24 -71q186 -27 186 -172q0 -176 -283 -176
q-76 0 -149 12v141q80 -12 158 -12q79 0 79 57q0 29 -24.5 43.5t-89.5 14.5h-74l63 161q-428 25 -436 383h277q10 -86 66 -122.5t172 -36.5t159 34.5t43 94.5q0 125 -172 125h-221v192h229q68 0 103.5 32t35.5 88z" />
    <glyph glyph-name="uni049A" unicode="&#x49a;" horiz-adv-x="1409" 
d="M1232 1206q-97 0 -155 -121l-69 -151q-57 -124 -168 -174q55 -27 97 -74t87 -115l199 -307h145v-618h-266v354h-62l-331 518q-36 59 -73 78.5t-114 19.5h-67v-616h-305v1462h305v-598h51q78 0 138.5 38t111.5 142l100 209q57 119 139.5 164t182.5 45t168 -20l-37 -244
q-40 8 -77 8z" />
    <glyph glyph-name="uni049B" unicode="&#x49b;" horiz-adv-x="1136" 
d="M123 0v1081h287v-442h49q61 0 99 36t76 127q72 173 144.5 226t216.5 53q45 0 117 -16l-25 -211q-31 8 -69 8t-62 -14t-47 -62l-43 -94q-23 -51 -51.5 -87t-87.5 -56q91 -36 160 -141l106 -170h123v-525h-246v287h-41l-200 319q-45 70 -75.5 97.5t-84.5 27.5h-59v-444
h-287z" />
    <glyph glyph-name="uni049C" unicode="&#x49c;" horiz-adv-x="1470" 
d="M1307 1206q-37 0 -75 -23.5t-73 -97.5l-69 -151q-57 -124 -168 -174q94 -46 184 -189l364 -571h-354l-330 518q-25 37 -49 62v-224h-196v269h-90v-625h-301v1462h301v-606h90v277h196v-234q61 43 107 145l94 209q53 121 134 165t181 44t168 -20l-37 -244q-40 8 -77 8z
" />
    <glyph glyph-name="uni049D" unicode="&#x49d;" horiz-adv-x="1220" 
d="M123 0v1081h287v-446h69v227h164v-192q39 39 77 131q73 176 140.5 228t210.5 52q45 0 117 -16l-25 -211q-31 8 -69 8t-62 -14t-47 -62l-43 -94q-23 -51 -51.5 -87t-87.5 -56q91 -36 160 -141l258 -408h-312l-194 319q-49 75 -72 99v-189h-164v222h-69v-451h-287z" />
    <glyph glyph-name="uni049E" unicode="&#x49e;" horiz-adv-x="1443" 
d="M1280 1206q-97 0 -154 -121l-69 -151q-57 -124 -168 -174q55 -27 97 -74t87 -115l371 -571h-354l-332 518q-37 59 -73 78.5t-114 19.5h-82v-616h-305v1051h-164v243h164v168h305v-168h203v-243h-203v-187h66q78 0 138.5 38t111.5 142l100 209q57 119 139 164t182 45
t169 -20l-37 -244q-41 8 -78 8z" />
    <glyph glyph-name="uni049F" unicode="&#x49f;" 
d="M16 967h160v114h287v-114h149v-209h-149v-119h63q61 0 99.5 36t76.5 127q72 173 144.5 226t216.5 53q45 0 117 -16l-25 -211q-31 8 -70 8t-62.5 -14t-45.5 -62l-43 -94q-23 -51 -51.5 -87t-87.5 -56q90 -35 159 -141l258 -408h-315l-201 319q-47 72 -76.5 98.5
t-82.5 26.5h-74v-444h-287v758h-160v209z" />
    <glyph glyph-name="uni04A0" unicode="&#x4a0;" horiz-adv-x="1609" 
d="M1446 1206q-97 0 -154 -121l-69 -151q-57 -124 -168 -174q55 -27 97 -74t87 -115l371 -571h-355l-331 518q-36 59 -73 78.5t-114 19.5h-67v-616h-305v1198h-324v264h629v-598h51q78 0 138.5 38t111.5 142l100 209q57 119 139 164t182 45t169 -20l-37 -244q-41 8 -78 8z
" />
    <glyph glyph-name="uni04A1" unicode="&#x4a1;" horiz-adv-x="1253" 
d="M231 0v844h-231v237h518v-442h49q61 0 99 36t76 127q71 172 144.5 225.5t217.5 53.5q45 0 117 -16l-25 -211q-31 8 -70 8t-62.5 -14t-45.5 -62l-43 -94q-23 -51 -51.5 -87t-87.5 -56q90 -35 159 -141l258 -408h-315l-201 319q-47 72 -76.5 98.5t-82.5 26.5h-60v-444h-287
z" />
    <glyph glyph-name="uni04A2" unicode="&#x4a2;" horiz-adv-x="1548" 
d="M1339 264h168v-618h-266v354h-207v614h-579v-614h-305v1462h305v-565h579v565h305v-1198z" />
    <glyph glyph-name="uni04A3" unicode="&#x4a3;" horiz-adv-x="1275" 
d="M123 1081h287v-405h426v405h286v-843h133v-525h-245v287h-174v438h-426v-438h-287v1081z" />
    <glyph glyph-name="uni04A4" unicode="&#x4a4;" horiz-adv-x="1703" 
d="M150 1462h305v-565h579v565h629v-264h-324v-1198h-305v614h-579v-614h-305v1462z" />
    <glyph glyph-name="uni04A5" unicode="&#x4a5;" horiz-adv-x="1353" 
d="M1122 0h-286v438h-426v-438h-287v1081h287v-405h426v405h518v-237h-232v-844z" />
    <glyph glyph-name="uni04A6" unicode="&#x4a6;" horiz-adv-x="2215" 
d="M1509 659q-113 0 -225 -38v-621h-305v1198h-524v-1198h-305v1462h1134v-596q142 43 293 43q296 0 436.5 -163.5t140.5 -448.5t-168 -455t-491 -170h-92v260h104q336 0 336 367q0 176 -78.5 268t-255.5 92z" />
    <glyph glyph-name="uni04A7" unicode="&#x4a7;" horiz-adv-x="1839" 
d="M1251 395q-105 0 -174 -24v-371h-286v844h-381v-844h-287v1081h954v-477q94 23 212 23q236 0 362.5 -126.5t126.5 -370.5t-145 -394t-437 -150h-70v232h64q205 0 249 103.5t44 189.5q0 158 -63.5 221t-168.5 63z" />
    <glyph glyph-name="uni04A8" unicode="&#x4a8;" horiz-adv-x="1728" 
d="M1315 623q0 115 -39 173t-110 58t-111.5 -60t-40.5 -174q0 -249 141 -352q160 95 160 355zM825 -37q-320 0 -521.5 178.5t-201.5 578.5t196.5 589.5t487.5 189.5q198 0 344 -72l-81 -227q-139 51 -239 51q-188 0 -294 -128t-106 -367q0 -310 114.5 -430.5t284.5 -120.5
q42 0 84 8q-156 184 -156 398t108 342t321 128t320 -128.5t107 -317.5q0 -233 -178 -428q37 -6 102 -6q64 0 128 22l43 -227q-100 -33 -257 -33q-156 0 -303 60q-156 -60 -303 -60z" />
    <glyph glyph-name="uni04A9" unicode="&#x4a9;" horiz-adv-x="1318" 
d="M881 600q-97 0 -97 -149q0 -53 21.5 -114t73.5 -104q94 82 94 225q0 142 -92 142zM360 541q0 -293 103.5 -334t140.5 -41h31q31 0 43 2q-67 78 -87 143.5t-20 146.5q0 156 88.5 241t221.5 85q134 0 219.5 -80t85.5 -236t-129 -304q10 -2 15 -2h38q61 0 137 26l51 -182
q-92 -43 -222 -43t-242 55q-95 -51 -216 -51q-250 0 -389 141t-139 420q0 278 142.5 431t404.5 153q129 0 242 -53l-68 -199q-72 35 -188 35q-117 0 -190 -83t-73 -271z" />
    <glyph glyph-name="uni04AA" unicode="&#x4aa;" horiz-adv-x="1460" 
d="M805 -104q196 -20 196 -175q0 -178 -294 -178q-77 0 -154 13v143q77 -14 161 -14t85 61q0 29 -26 43t-93 14h-76l66 166q-272 31 -420 234q-148 202 -148 542t183 547t495 207q394 0 531 -293q43 -92 63 -207l-303 -38q-23 129 -87 203t-204 73q-176 0 -267 -132
t-91 -375t97 -374t249 -131t220 73q67 73 83 208h328q-21 -231 -166 -378t-404 -163z" />
    <glyph glyph-name="uni04AB" unicode="&#x4ab;" horiz-adv-x="1165" 
d="M556 -303q79 0 79 57q0 29 -24.5 43.5t-90.5 14.5h-74l64 163q-212 27 -316 175.5t-104 397.5t141 406.5t390 157.5q309 0 375.5 -146.5t76.5 -228.5l-289 -39q-10 82 -47 133.5t-115 51.5t-156.5 -53.5t-78.5 -286.5q0 -346 221 -346q170 0 189 190h290
q-16 -180 -117.5 -291.5t-303.5 -126.5l-23 -65q186 -27 186 -172q0 -176 -282 -176q-76 0 -150 12v141q80 -12 159 -12z" />
    <glyph glyph-name="uni04AC" unicode="&#x4ac;" horiz-adv-x="1269" 
d="M690 0h-209v1198h-440v264h1188v-264h-441v-934h168v-618h-266v354z" />
    <glyph glyph-name="uni04AD" unicode="&#x4ad;" horiz-adv-x="1044" 
d="M381 0v844h-350v237h983v-237h-346v-606h133v-525h-246v287h-174z" />
    <glyph glyph-name="uni04AE" unicode="&#x4ae;" horiz-adv-x="1345" 
d="M831 0h-305v596l-506 866h340l316 -592l325 592h324l-494 -866v-596z" />
    <glyph glyph-name="uni04AF" unicode="&#x4af;" horiz-adv-x="1163" 
d="M723 -397h-287v463l-424 1015h332l238 -735l252 735h317l-428 -1011v-467z" />
    <glyph glyph-name="uni04B0" unicode="&#x4b0;" horiz-adv-x="1345" 
d="M1118 639v-246h-287v-393h-305v393h-293v246h267l-480 823h340l316 -592l325 592h324l-469 -823h262z" />
    <glyph glyph-name="uni04B1" unicode="&#x4b1;" horiz-adv-x="1163" 
d="M195 0v231h172l-355 850h332l238 -735l252 735h317l-360 -850h170v-231h-238v-397h-287v397h-241z" />
    <glyph glyph-name="uni04B2" unicode="&#x4b2;" horiz-adv-x="1392" 
d="M1085 0h-45l-354 532l-340 -532h-334l510 770l-475 692h348l301 -467l308 467h327l-467 -700l342 -498h146v-618h-267v354z" />
    <glyph glyph-name="uni04B3" unicode="&#x4b3;" horiz-adv-x="1105" 
d="M1071 238v-525h-246v287h-53l-217 348l-227 -348h-312l387 549l-358 532h338l190 -317l213 317h299l-354 -516l217 -327h123z" />
    <glyph glyph-name="uni04B4" unicode="&#x4b4;" horiz-adv-x="1751" 
d="M399 0v1198h-358v264h1018v-264h-354v-934h532v1198h305v-1198h168v-618h-266v354h-1045z" />
    <glyph glyph-name="uni04B5" unicode="&#x4b5;" horiz-adv-x="1339" 
d="M238 0v844h-207v237h717v-237h-224v-606h375v843h287v-843h133v-525h-246v287h-835z" />
    <glyph glyph-name="uni04B6" unicode="&#x4b6;" horiz-adv-x="1447" 
d="M523 530q-259 0 -340 160t-81 295v477h306v-395q0 -158 59 -226.5t215 -68.5q61 0 135 14.5t117 34.5v641h305v-1198h168v-618h-266v354h-207v592q-152 -62 -411 -62z" />
    <glyph glyph-name="uni04B7" unicode="&#x4b7;" horiz-adv-x="1183" 
d="M525 377q-443 0 -443 399v305h287v-250q0 -131 55 -177t164 -46t155 21v452h287v-843h133v-525h-245v287h-175v397q-107 -20 -218 -20z" />
    <glyph glyph-name="uni04B8" unicode="&#x4b8;" horiz-adv-x="1429" 
d="M809 289h-246v250q-317 22 -389 175.5t-72 276.5v471h306v-401q0 -121 31.5 -188.5t123.5 -92.5v267h246v-275q119 20 166 43v647h305v-1462h-305v598q-73 -29 -166 -45v-264z" />
    <glyph glyph-name="uni04B9" unicode="&#x4b9;" horiz-adv-x="1193" 
d="M784 1081h287v-1081h-287v410l-92 -13v-219h-215v213q-213 18 -304 124t-91 273v293h287v-258q0 -92 21.5 -140t86.5 -69v205h215v-217q73 11 92 19v460z" />
    <glyph glyph-name="uni04BA" unicode="&#x4ba;" horiz-adv-x="1388" 
d="M748 950q289 0 413.5 -119.5t124.5 -345.5v-485h-305v414q0 158 -59.5 226.5t-214.5 68.5q-61 0 -135 -14.5t-117 -35.5v-659h-305v1462h305v-565q133 53 293 53z" />
    <glyph glyph-name="uni04BB" unicode="&#x4bb;" 
d="M728 1112q191 0 279.5 -95t88.5 -300v-717h-287v678q0 113 -42.5 153.5t-106.5 40.5q-107 0 -179 -63q-67 -67 -67 -156v-653h-287v1462h287v-518q123 168 314 168z" />
    <glyph glyph-name="uni04BC" unicode="&#x4bc;" horiz-adv-x="1835" 
d="M1081 1247q-330 0 -368 -393h712q-13 280 -134.5 336.5t-209.5 56.5zM1147 219q226 0 262 221h311q-31 -219 -194.5 -348t-444.5 -129q-320 0 -488 184.5t-192 470.5q-201 0 -296 90.5t-95 232.5t82 267l209 -65q-47 -82 -47 -148q0 -138 154 -141q35 278 207 461.5
t481 183.5q308 0 472.5 -204t164.5 -539v-135h-1028q12 -181 114 -291.5t328 -110.5z" />
    <glyph glyph-name="uni04BD" unicode="&#x4bd;" horiz-adv-x="1431" 
d="M1067 659q0 238 -223 238q-107 0 -170.5 -67.5t-67.5 -170.5h461zM0 745q0 82 43 179l182 -43q-20 -57 -20 -131.5t117 -90.5q30 215 177 334t369 119t348.5 -140.5t126.5 -385.5v-115h-741q4 -129 65.5 -205t184.5 -76q170 0 201 144h278q-29 -180 -144.5 -273.5
t-356.5 -93.5t-367 134t-146 370q-150 0 -233.5 76t-83.5 198z" />
    <glyph glyph-name="uni04BE" unicode="&#x4be;" horiz-adv-x="1835" 
d="M1081 1247q-330 0 -368 -393h712q-13 280 -134.5 336.5t-209.5 56.5zM1147 219q226 0 262 221h311q-29 -190 -154.5 -313t-342.5 -154v-327h-267v325q-257 33 -396 212.5t-159 434.5q-201 0 -296 90.5t-95 232.5t82 267l209 -65q-47 -82 -47 -148q0 -138 154 -141
q35 278 207 461.5t481 183.5q308 0 472.5 -204t164.5 -539v-135h-1028q12 -181 114 -291.5t328 -110.5z" />
    <glyph glyph-name="uni04BF" unicode="&#x4bf;" horiz-adv-x="1431" 
d="M1067 659q0 238 -223 238q-107 0 -170.5 -67.5t-67.5 -170.5h461zM739 -25q-379 49 -422 496q-150 0 -233.5 76t-83.5 198q0 82 43 179l182 -43q-20 -57 -20 -131.5t117 -90.5q30 215 177 334t369 119t348.5 -140.5t126.5 -385.5v-115h-741q4 -129 65.5 -205t184.5 -76
q170 0 201 144h278q-25 -152 -108.5 -241t-237.5 -116v-264h-246v262z" />
    <glyph glyph-name="uni04C0" unicode="&#x4c0;" horiz-adv-x="604" 
d="M150 1462h305v-1462h-305v1462z" />
    <glyph glyph-name="uni04C1" unicode="&#x4c1;" horiz-adv-x="2168" 
d="M1989 1206q-97 0 -154 -121l-70 -151q-58 -125 -168 -174q55 -27 97 -74t88 -115l370 -571h-354l-332 518q-36 58 -73 79t-113 21h-45v-618h-305v618h-62q-116 0 -178 -100l-332 -518h-342l394 606q41 61 78 99q38 37 85 55q-113 40 -174 174l-69 151q-58 123 -145 121
q-36 0 -79 -8l-36 244q78 20 150 20q71 0 112 -7q90 -15 147 -78q33 -34 58 -89l114 -244q49 -104 111 -143t139 -39h29v600h305v-600h29q78 0 138 39t111 143l101 209q57 119 139 164t182 45t168 -20l-37 -244q-40 8 -77 8zM1084 1763q64 0 106 31q41 31 45 109h205
q0 -160 -95 -239t-263 -79t-259 79q-90 79 -90 239h201q4 -78 45 -109t105 -31z" />
    <glyph glyph-name="uni04C2" unicode="&#x4c2;" horiz-adv-x="1724" 
d="M186 1081q129 0 197 -52t123 -185t94 -169t98 -36h29v442h270v-442h29q61 0 97 36t74 127q73 174 136 227q64 52 205 52q49 0 121 -16l-25 -211q-32 8 -70 8t-62 -14t-46 -62l-43 -94q-23 -47 -53 -84t-82 -53q93 -24 176 -147l260 -408h-305l-201 319q-48 75 -77 100
q-28 25 -82 25h-52v-444h-270v444h-51q-59 0 -92 -30t-72 -95l-197 -319h-305l264 408q75 119 179 145q-57 16 -91 54q-33 38 -55 85l-43 94q-23 47 -46 62q-24 14 -62 14t-70 -8l-25 211q69 16 125 16zM1223 1528q1 -160 -95 -239t-264 -79t-258 79t-90 239h201
q7 -141 151 -139q63 0 105 30q41 31 45 109h205z" />
    <glyph glyph-name="uni04C3" unicode="&#x4c3;" horiz-adv-x="1419" 
d="M1232 1206q-97 0 -155 -121l-65 -147q-29 -64 -86 -102q209 -43 320.5 -189.5t111.5 -400.5t-168 -414t-483 -160h-101v265h84q178 0 267.5 74t89.5 249q0 176 -88.5 268.5t-286.5 92.5h-217v-621h-305v1462h305v-602h53q76 0 138.5 40t109.5 144l84 179q63 135 150 187
t204 52q72 0 152 -20l-37 -244q-40 8 -77 8z" />
    <glyph glyph-name="uni04C4" unicode="&#x4c4;" horiz-adv-x="1202" 
d="M545 -182q301 0 301 321q0 242 -124 273.5t-200 31.5h-112v-444h-287v1081h287v-442h41q94 0 155 129l58 125q47 102 124.5 145t166.5 43t149 -16l-25 -211q-40 8 -67 8q-86 0 -121 -80l-43 -90q-27 -55 -76 -82q176 -36 272.5 -144.5t96.5 -322.5q0 -402 -219.5 -479.5
t-374.5 -77.5h-66v232h64z" />
    <glyph glyph-name="uni04C5" unicode="&#x4c5;" horiz-adv-x="1613" 
d="M1096 0v1206h-332l-53 -440q-23 -172 -60 -315.5t-143 -305t-402 -161.5h-73v260h33q165 0 245.5 151t120.5 506l66 561h903v-1198h172q0 -66 -12 -251t-301 -404l-177 170q154 117 199 221h-186z" />
    <glyph glyph-name="uni04C6" unicode="&#x4c6;" horiz-adv-x="1253" 
d="M813 0v844h-248l-33 -287q-36 -306 -148 -436.5t-327 -130.5h-57v233h27q92 0 149 84.5t80 296.5l55 477h789v-843h133q0 -70 -11.5 -225t-256.5 -335l-156 156q102 80 149 166h-145z" />
    <glyph glyph-name="uni04C7" unicode="&#x4c7;" horiz-adv-x="1488" 
d="M1001 -138.5q33 29.5 33 113.5v639h-579v-614h-305v1462h305v-565h579v565h305v-1485q0 -209 -97 -303t-281 -94q-113 0 -236 39l45 231q74 -18 136 -18t95 29.5z" />
    <glyph glyph-name="uni04C8" unicode="&#x4c8;" horiz-adv-x="1245" 
d="M1122 -45q0 -199 -89 -287t-263 -88q-104 0 -219 35l41 215q70 -16 123 -16t87 25.5t34 109.5v489h-426v-438h-287v1081h287v-405h426v405h286v-1126z" />
    <glyph glyph-name="uni04C9" unicode="&#x4c9;" horiz-adv-x="1552" 
d="M150 1462h305v-565h579v565h305v-1198h172q0 -66 -12 -252t-301 -403l-176 170q154 117 199 221h-187v614h-579v-614h-305v1462z" />
    <glyph glyph-name="uni04CA" unicode="&#x4ca;" horiz-adv-x="1275" 
d="M123 1081h287v-405h426v405h286v-843h133q0 -180 -30.5 -263.5t-85 -154t-152.5 -142.5l-156 156q102 80 150 166h-145v438h-426v-438h-287v1081z" />
    <glyph glyph-name="uni04CB" unicode="&#x4cb;" horiz-adv-x="1388" 
d="M641 553q-289 0 -414 120t-125 345v444h306v-372q0 -158 59 -226.5t215 -68.5q61 0 135 14t117 35v618h305v-1462h-207v-354h-266v618h168v342q-133 -53 -293 -53z" />
    <glyph glyph-name="uni04CC" unicode="&#x4cc;" horiz-adv-x="1153" 
d="M587 635q108 0 156 20v426h287v-1081h-174v-287h-246v525h133v186q-113 -21 -221 -21q-223 0 -331.5 103.5t-108.5 296.5v278h287v-223q0 -131 55 -177t163 -46z" />
    <glyph glyph-name="uni04CD" unicode="&#x4cd;" horiz-adv-x="1824" 
d="M1612 264h172q0 -66 -12 -251.5t-302 -403.5l-176 170q154 117 199 221h-162v975l-334 -975h-237l-336 973v-973h-274v1462h366l365 -1091l374 1091h357v-1198z" />
    <glyph glyph-name="uni04CE" unicode="&#x4ce;" horiz-adv-x="1517" 
d="M1106 0v616l-260 -616h-207l-258 625v-625h-258v1081h311l318 -778l325 778h287v-843h133q0 -180 -30.5 -263.5t-85 -154t-152.5 -142.5l-156 156q102 80 150 166h-117z" />
    <glyph glyph-name="uni04CF" unicode="&#x4cf;" horiz-adv-x="604" 
d="M150 1462h305v-1462h-305v1462z" />
    <glyph glyph-name="uni04D0" unicode="&#x4d0;" horiz-adv-x="1429" 
d="M885 590l-178 524l-177 -524h355zM569 1462h291l549 -1462h-328l-116 338h-512l-117 -338h-316zM705 1763q142 0 149 140h205q0 -160 -95 -239t-263 -79t-259 79q-90 79 -90 239h201q4 -78 45 -109t107 -31z" />
    <glyph glyph-name="uni04D1" unicode="&#x4d1;" horiz-adv-x="1148" 
d="M348 297q0 -43 37 -76t125 -33t167 59t79 179v59l-127 -6q-237 -11 -271 -109q-10 -30 -10 -73zM762 135q-142 -162 -320 -162q-98 -1 -162 19q-132 40 -190 161q-29 59 -29 157q-1 98 49 168t130 110q128 66 381 78l137 6v53q0 98 -54 136t-129 38q-170 0 -194 -129
l-262 25q29 169 147 243t320 74q450 0 446 -428v-684h-270v135zM936 1528q0 -160 -95 -239t-263 -79t-259 79q-90 79 -90 239h201q6 -142 150 -140q64 0 106 32q41 30 45 108h205z" />
    <glyph glyph-name="uni04D2" unicode="&#x4d2;" horiz-adv-x="1429" 
d="M885 590l-178 524l-177 -524h355zM569 1462h291l549 -1462h-328l-116 338h-512l-117 -338h-316zM782 1866h275v-264h-275v264zM356 1866h275v-264h-275v264z" />
    <glyph glyph-name="uni04D3" unicode="&#x4d3;" horiz-adv-x="1148" 
d="M348 297q0 -43 37 -76t125 -33t167 59t79 179v59l-127 -6q-237 -11 -271 -109q-10 -30 -10 -73zM762 135q-142 -162 -320 -162q-98 -1 -162 19q-132 40 -190 161q-29 59 -29 157q-1 98 49 168t130 110q128 66 381 78l137 6v53q0 98 -54 136t-129 38q-170 0 -194 -129
l-262 25q29 169 147 243t320 74q450 0 446 -428v-684h-270v135zM647 1501h266v-256h-266v256zM233 1501h267v-256h-267v256z" />
    <glyph glyph-name="uni04D4" unicode="&#x4d4;" horiz-adv-x="2154" 
d="M1120 690v512h-114l-283 -512h397zM2064 1462v-260h-649v-319h610v-262h-610v-361h692l-30 -260h-957v438h-536l-242 -438h-342l850 1462h1214z" />
    <glyph glyph-name="uni04D5" unicode="&#x4d5;" horiz-adv-x="1837" 
d="M1473 653q0 242 -218 242q-111 0 -168 -67.5t-63 -174.5h449zM348 293q0 -43 36 -74t94 -31q170 0 217.5 84t47.5 150v55l-127 -6q-228 -10 -248 -72.5t-20 -105.5zM745 717q0 180 -176 180q-164 0 -188 -129l-262 25q29 168 145.5 242.5t315.5 74.5q117 0 198.5 -37
t141.5 -131q74 98 158.5 133t183.5 35q242 0 364.5 -141.5t122.5 -388.5v-115h-729q4 -129 64.5 -202t179.5 -73q164 0 194 144h279q-29 -180 -143.5 -273.5t-331.5 -93.5q-293 0 -406 207q-61 -86 -155.5 -143.5t-249.5 -57.5q-277 0 -333.5 117.5t-56.5 215.5t48.5 167.5
t149 121.5t349.5 62l137 7v53z" />
    <glyph glyph-name="uni04D6" unicode="&#x4d6;" horiz-adv-x="1236" 
d="M150 1462h997v-260h-692v-319h651v-262h-651v-361h735l-31 -260h-1009v1462zM687 1763q64 0 106 31q41 31 45 109h204q0 -160 -95 -239t-263 -79t-258 79t-90 239h201q4 -78 45 -109t105 -31z" />
    <glyph glyph-name="uni04D7" unicode="&#x4d7;" horiz-adv-x="1206" 
d="M842 662q0 235 -224 235q-111 0 -172 -68t-65 -167h461zM625 -33q-266 0 -401 152q-134 152 -134 420t147 420q147 153 391 153q242 0 366 -142t124 -382v-115h-741q4 -129 65 -206t185 -77q170 0 200 144h279q-29 -180 -144 -274q-116 -93 -337 -93zM981 1528
q0 -160 -95 -239t-263 -79q-347 0 -349 318h201q7 -142 151 -140q64 0 105 32q41 30 45 108h205z" />
    <glyph glyph-name="uni04D8" unicode="&#x4d8;" horiz-adv-x="1538" 
d="M754 215q330 0 368 393h-712q4 -175 89.5 -284t254.5 -109zM754 1499q353 0 517.5 -215t164.5 -536t-172 -553t-505 -232t-495 203t-162 541v135h1028q-12 201 -116.5 301t-249.5 100t-224 -57.5t-132 -179.5l-289 51q146 442 635 442z" />
    <glyph glyph-name="uni04D9" unicode="&#x4d9;" horiz-adv-x="1206" 
d="M365 422q0 -111 52 -175.5t166 -64.5t177 69t67 171h-462zM602 1112q245 0 379.5 -151t134.5 -419q0 -267 -138 -420t-389 -153t-376 143.5t-125 389.5v108h743q-4 129 -60.5 204t-156.5 75t-162.5 -36t-82.5 -130l-267 39q33 172 164 261t336 89z" />
    <glyph glyph-name="uni04DA" unicode="&#x4da;" horiz-adv-x="1538" 
d="M754 215q330 0 368 393h-712q7 -275 192 -363q63 -30 152 -30zM781 1499q163 0 293 -63q250 -121 326 -407q36 -134 36 -278q0 -143 -38 -285q-81 -302 -335 -434q-131 -69 -307 -69q-331 0 -499 212q-155 194 -155 532v135h1028q-12 201 -117 302t-250 100
q-144 -1 -223 -58t-132 -180l-289 51q69 209 213 316q78 58 182 92t267 34zM856 1866h274v-264h-274v264zM430 1866h275v-264h-275v264z" />
    <glyph glyph-name="uni04DB" unicode="&#x4db;" horiz-adv-x="1206" 
d="M365 422q0 -112 52 -176t166 -64t177 69t67 171h-462zM602 1112q244 0 379 -152t135 -418q0 -267 -138 -420t-389 -153q-251 -1 -376 143t-125 390v108h743q-4 129 -61 204q-56 75 -156 75t-162 -36t-83 -130l-267 39q33 172 164 261t336 89zM684 1501h266v-256h-266v256
zM270 1501h267v-256h-267v256z" />
    <glyph glyph-name="uni04DC" unicode="&#x4dc;" horiz-adv-x="2168" 
d="M1989 1206q-97 0 -154 -121l-70 -151q-58 -125 -168 -174q55 -27 97 -74t88 -115l370 -571h-354l-332 518q-36 58 -73 79t-113 21h-45v-618h-305v618h-62q-116 0 -178 -100l-332 -518h-342l394 606q41 61 78 99q38 37 85 55q-113 40 -174 174l-69 151q-58 123 -145 121
q-36 0 -79 -8l-36 244q78 20 150 20q71 0 112 -7q90 -15 147 -78q33 -34 58 -89l114 -244q49 -104 111 -143t139 -39h29v600h305v-600h29q78 0 138 39t111 143l101 209q57 119 139 164t182 45t168 -20l-37 -244q-40 8 -77 8zM1151 1866h274v-264h-274v264zM725 1866h274
v-264h-274v264z" />
    <glyph glyph-name="uni04DD" unicode="&#x4dd;" horiz-adv-x="1724" 
d="M186 1081q129 0 197 -52t123 -185t94 -169t98 -36h29v442h270v-442h29q61 0 97 36t74 127q73 174 136 227q64 52 205 52q49 0 121 -16l-25 -211q-32 8 -70 8t-62 -14t-46 -62l-43 -94q-23 -47 -53 -84t-82 -53q93 -24 176 -147l260 -408h-305l-201 319q-48 75 -77 100
q-28 25 -82 25h-52v-444h-270v444h-51q-59 0 -92 -30t-72 -95l-197 -319h-305l264 408q75 119 179 145q-57 16 -91 54q-33 38 -55 85l-43 94q-23 47 -46 62q-24 14 -62 14t-70 -8l-25 211q69 16 125 16zM934 1501h266v-256h-266v256zM520 1501h266v-256h-266v256z" />
    <glyph glyph-name="uni04DE" unicode="&#x4de;" horiz-adv-x="1325" 
d="M662 1499q269 0 408 -111q138 -111 136 -282q0 -104 -49 -192t-147 -140q123 -49 176 -144q53 -96 53 -200q0 -214 -147 -338q-156 -129 -446 -129t-436 132t-149 356h293q12 -135 78 -188q66 -54 225 -54q287 0 287 211t-323 211h-144v243h160q135 0 208 52t73 147
q0 182 -256 182q-139 0 -204 -52t-87 -159l-279 37q69 418 570 418zM748 1866h274v-264h-274v264zM322 1866h274v-264h-274v264z" />
    <glyph glyph-name="uni04DF" unicode="&#x4df;" horiz-adv-x="1134" 
d="M633 1501h266v-256h-266v256zM219 1501h266v-256h-266v256zM745 763q1 124 -191 124q-104 0 -151 -38t-69 -116l-264 45q38 161 152 247.5t346 86.5q233 0 347.5 -86t114.5 -221q0 -82 -46 -146.5t-120 -89.5q132 -36 164.5 -114t32.5 -136q0 -158 -125 -253t-372 -95
t-376 93.5t-135 291.5h277q10 -86 66 -122.5t172 -36.5t159 34.5t43 94.5q0 125 -172 125h-221v192h229q68 0 103.5 32t35.5 88z" />
    <glyph glyph-name="uni04E0" unicode="&#x4e0;" horiz-adv-x="1255" 
d="M1174 436q0 -337 -203 -405t-349 -68q-282 0 -413 127t-143 361h292q16 -115 72.5 -175.5t196.5 -60.5q252 0 252 221q0 111 -69 167t-235 56h-172v199l338 340h-610v264h971v-225l-361 -360q433 -37 433 -441z" />
    <glyph glyph-name="uni04E1" unicode="&#x4e1;" horiz-adv-x="1075" 
d="M741 52q0 239 -299 239h-143v203l326 362h-551v225h893v-172l-379 -413h8q191 0 309.5 -120.5t118.5 -335.5t-139 -336.5t-374 -121.5q-236 0 -357 96.5t-144 292.5h277q24 -166 217 -166q106 0 171.5 61.5t65.5 185.5z" />
    <glyph glyph-name="uni04E2" unicode="&#x4e2;" horiz-adv-x="1460" 
d="M1311 0h-297v961l-592 -961h-272v1462h296v-970l590 970h275v-1462zM412 1845h635v-227h-635v227z" />
    <glyph glyph-name="uni04E3" unicode="&#x4e3;" horiz-adv-x="1193" 
d="M1071 0h-260v670l-444 -670h-244v1081h258v-673l446 673h244v-1081zM297 1473h598v-220h-598v220z" />
    <glyph glyph-name="uni04E4" unicode="&#x4e4;" horiz-adv-x="1460" 
d="M1311 0h-297v961l-592 -961h-272v1462h296v-970l590 970h275v-1462zM819 1866h275v-264h-275v264zM393 1866h275v-264h-275v264z" />
    <glyph glyph-name="uni04E5" unicode="&#x4e5;" horiz-adv-x="1193" 
d="M1071 0h-260v670l-444 -670h-244v1081h258v-673l446 673h244v-1081zM670 1501h266v-256h-266v256zM256 1501h266v-256h-266v256z" />
    <glyph glyph-name="uni04E6" unicode="&#x4e6;" horiz-adv-x="1597" 
d="M799 225q379 0 381 506q0 242 -94 374t-288 132q-192 0 -286 -132t-94 -375t94 -374t287 -131zM804 1499q326 0 508 -206q183 -206 183 -562q0 -355 -183 -562q-183 -206 -510 -206q-328 0 -513 206t-186 561t187 562t514 207zM881 1866h274v-264h-274v264zM455 1866h274
v-264h-274v264z" />
    <glyph glyph-name="uni04E7" unicode="&#x4e7;" horiz-adv-x="1261" 
d="M387 540q-1 -343 243 -343t244 343t-244 343t-243 -343zM230 118q-140 151 -140 419t146 422q146 153 395 153t396 -151q146 -152 145 -417t-147 -421t-400 -156t-395 151zM705 1501h266v-256h-266v256zM291 1501h266v-256h-266v256z" />
    <glyph glyph-name="uni04E8" unicode="&#x4e8;" horiz-adv-x="1597" 
d="M798 1237q-325 0 -378 -371h756q-25 180 -119 275.5t-259 95.5zM880 225q247 0 298 377h-758q23 -184 118 -280.5t342 -96.5zM289.5 1292q187.5 207 513.5 207t509 -206.5t183 -563t-182.5 -561.5t-510.5 -205q-327 0 -513.5 207.5t-186.5 561t187.5 560.5z" />
    <glyph glyph-name="uni04E9" unicode="&#x4e9;" horiz-adv-x="1261" 
d="M877 651q-37 238 -246 238t-246 -238h492zM385 438q33 -248 246 -248q206 0 246 248h-492zM230.5 117.5q-140.5 150.5 -140.5 420.5t146 422t395 152t394.5 -150.5t145.5 -416.5t-146 -422t-400 -156t-394.5 150.5z" />
    <glyph glyph-name="uni04EA" unicode="&#x4ea;" horiz-adv-x="1597" 
d="M798 1237q-325 0 -378 -371h756q-25 180 -119 275.5t-259 95.5zM880 225q247 0 298 377h-758q23 -184 118 -280.5t342 -96.5zM289.5 1292q187.5 207 513.5 207t509 -206.5t183 -563t-182.5 -561.5t-510.5 -205q-327 0 -513.5 207.5t-186.5 561t187.5 560.5zM881 1866h274
v-264h-274v264zM455 1866h274v-264h-274v264z" />
    <glyph glyph-name="uni04EB" unicode="&#x4eb;" horiz-adv-x="1261" 
d="M877 651q-37 238 -245 238t-247 -238h492zM385 438q33 -248 245 -248q207 0 247 248h-492zM230 118q-140 151 -140 419t146 422q146 153 395 153t396 -151q146 -152 145 -417t-147 -421t-400 -156t-395 151zM723 1501h266v-256h-266v256zM309 1501h266v-256h-266v256z
" />
    <glyph glyph-name="uni04EC" unicode="&#x4ec;" horiz-adv-x="1454" 
d="M1352 743q0 -374 -172 -577t-502 -203q-288 0 -441 130t-176 358h310q16 -96 87 -161t208 -65q182 0 266 90t100 306h-565v262h563q-37 282 -222 339q-52 15 -102 15t-100 -5q-170 -17 -231 -206l-297 41q121 434 614 432q298 0 479 -191t181 -565zM778 1866h275v-264
h-275v264zM352 1866h275v-264h-275v264z" />
    <glyph glyph-name="uni04ED" unicode="&#x4ed;" horiz-adv-x="1187" 
d="M399 643h402q-7 115 -63 181t-152 65q-96 0 -154 -40q-59 -40 -76 -114l-264 39q30 148 155 243q126 95 350 95t362 -144q139 -144 139 -419t-141 -429q-141 -153 -366 -153q-470 0 -513 379h274q18 -78 72 -117t160 -39q203 0 221 252h-406v201zM664 1501h266v-256h-266
v256zM250 1501h266v-256h-266v256z" />
    <glyph glyph-name="uni04EE" unicode="&#x4ee;" horiz-adv-x="1280" 
d="M256 203q183 0 252 164l27 63l-535 1032h336l344 -737l289 737h311l-494 -1124q-86 -197 -203 -286q-118 -89 -321 -89q-136 0 -211 39l60 229q65 -28 145 -28zM350 1845h635v-227h-635v227z" />
    <glyph glyph-name="uni04EF" unicode="&#x4ef;" horiz-adv-x="1161" 
d="M275 -168q58 0 94 28q35 28 59 97l33 90l-445 1034h332l250 -714l233 714h314l-432 -1112q-37 -93 -70 -161t-75 -114q-85 -93 -244 -91q-114 0 -215 32l47 213q61 -16 119 -16zM301 1473h598v-220h-598v220z" />
    <glyph glyph-name="uni04F0" unicode="&#x4f0;" horiz-adv-x="1280" 
d="M256 203q183 0 252 164l27 63l-535 1032h336l344 -737l289 737h311l-494 -1124q-86 -197 -203 -286q-118 -89 -321 -89q-136 0 -211 39l60 229q65 -28 145 -28zM735 1866h275v-264h-275v264zM309 1866h275v-264h-275v264z" />
    <glyph glyph-name="uni04F1" unicode="&#x4f1;" horiz-adv-x="1161" 
d="M275 -168q58 0 94 28q35 28 59 97l33 90l-445 1034h332l250 -714l233 714h314l-432 -1112q-37 -93 -70 -161t-75 -114q-85 -93 -244 -91q-114 0 -215 32l47 213q61 -16 119 -16zM674 1501h266v-256h-266v256zM260 1501h266v-256h-266v256z" />
    <glyph glyph-name="uni04F2" unicode="&#x4f2;" horiz-adv-x="1280" 
d="M256 203q183 0 252 164l27 63l-535 1032h336l344 -737l289 737h311l-494 -1124q-86 -197 -203 -286q-118 -89 -321 -89q-136 0 -211 39l60 229q65 -28 145 -28zM516 1878h315l-319 -297h-252zM950 1878h316l-320 -297h-252z" />
    <glyph glyph-name="uni04F3" unicode="&#x4f3;" horiz-adv-x="1161" 
d="M275 -168q58 0 94 28q35 28 59 97l33 90l-445 1034h332l250 -714l233 714h314l-432 -1112q-37 -93 -70 -161t-75 -114q-85 -93 -244 -91q-114 0 -215 32l47 213q61 -16 119 -16zM854 1534h295l-272 -317h-234zM451 1534h294l-272 -317h-233z" />
    <glyph glyph-name="uni04F4" unicode="&#x4f4;" horiz-adv-x="1388" 
d="M102 985v477h306v-395q0 -159 59 -227t215 -68q61 0 135 14t117 35v641h305v-1462h-305v592q-147 -60 -330 -62q-340 0 -458 233q-44 87 -44 222zM743 1866h275v-264h-275v264zM317 1866h275v-264h-275v264z" />
    <glyph glyph-name="uni04F5" unicode="&#x4f5;" horiz-adv-x="1153" 
d="M539 377q-461 0 -457 399v305h287v-250q0 -131 55 -177t164 -46t155 21v452h287v-1081h-287v397q-108 -20 -204 -20zM631 1501h266v-256h-266v256zM217 1501h266v-256h-266v256z" />
    <glyph glyph-name="uni04F6" unicode="&#x4f6;" horiz-adv-x="1095" 
d="M150 0v1462h933v-264h-628v-934h168v-618h-267v354h-206z" />
    <glyph glyph-name="uni04F7" unicode="&#x4f7;" horiz-adv-x="899" 
d="M123 0v1081h764v-239h-477v-604h133v-525h-246v287h-174z" />
    <glyph glyph-name="uni04F8" unicode="&#x4f8;" horiz-adv-x="1902" 
d="M1448 1462h305v-1462h-305v1462zM455 707v-455h188q160 0 221 57q62 57 62 170t-62 169q-62 57 -219 59h-190zM150 1462h305v-501h202q307 0 449 -144q121 -121 121 -332q0 -343 -300 -446q-112 -39 -280 -39h-497v1462zM1053 1866h274v-264h-274v264zM627 1866h274v-264
h-274v264z" />
    <glyph glyph-name="uni04F9" unicode="&#x4f9;" horiz-adv-x="1626" 
d="M410 233h223q156 0 155 134q0 63 -34 100q-35 37 -127 37h-217v-271zM1219 1081h284v-1081h-284v1081zM410 1081v-346h254q210 0 315 -100q106 -100 105 -266t-110 -268q-110 -101 -335 -101h-516v1081h287zM887 1501h266v-256h-266v256zM473 1501h266v-256h-266v256z
" />
    <glyph glyph-name="Wgrave" unicode="&#x1e80;" horiz-adv-x="1982" 
d="M20 1462h345l235 -1016l240 1008h323l250 -1008l221 1016h328l-397 -1462h-297l-273 1081l-264 -1081h-289zM942 1878l262 -297h-268l-326 297h332z" />
    <glyph glyph-name="wgrave" unicode="&#x1e81;" horiz-adv-x="1583" 
d="M12 1069h312l149 -709l205 701h250l194 -701l150 709h299l-311 -1069h-279l-190 705l-193 -705h-274zM399 1534h326l246 -317h-264z" />
    <glyph glyph-name="Wacute" unicode="&#x1e82;" horiz-adv-x="1982" 
d="M20 1462h345l235 -1016l240 1008h323l250 -1008l221 1016h328l-397 -1462h-297l-273 1081l-264 -1081h-289zM1059 1878h332l-326 -297h-268z" />
    <glyph glyph-name="wacute" unicode="&#x1e83;" horiz-adv-x="1583" 
d="M12 1069h312l149 -709l205 701h250l194 -701l150 709h299l-311 -1069h-279l-190 705l-193 -705h-274zM879 1534h325l-307 -317h-264z" />
    <glyph glyph-name="Wdieresis" unicode="&#x1e84;" horiz-adv-x="1982" 
d="M20 1462h345l235 -1016l240 1008h323l250 -1008l221 1016h328l-397 -1462h-297l-273 1081l-264 -1081h-289zM1067 1866h274v-264h-274v264zM641 1866h274v-264h-274v264z" />
    <glyph glyph-name="wdieresis" unicode="&#x1e85;" horiz-adv-x="1583" 
d="M12 1069h312l149 -709l205 701h250l194 -701l150 709h299l-311 -1069h-279l-190 705l-193 -705h-274zM864 1501h266v-256h-266v256zM451 1501h266v-256h-266v256z" />
    <glyph glyph-name="Ygrave" unicode="&#x1ef2;" horiz-adv-x="1345" 
d="M831 0h-305v596l-506 866h340l316 -592l325 592h324l-494 -866v-596zM586 1878l262 -297h-268l-326 297h332z" />
    <glyph glyph-name="ygrave" unicode="&#x1ef3;" horiz-adv-x="1161" 
d="M274 -168q59 0 95 28q35 28 59 97l33 90l-445 1022h332l250 -702l233 702h314l-432 -1100q-37 -93 -70 -161t-75 -114q-85 -93 -244 -91q-114 0 -215 32l47 213q59 -16 118 -16zM188 1534h326l246 -317h-264z" />
    <glyph glyph-name="endash" unicode="&#x2013;" horiz-adv-x="1024" 
d="M0 748h1024v-271h-1024v271z" />
    <glyph glyph-name="emdash" unicode="&#x2014;" horiz-adv-x="2048" 
d="M0 748h2048v-271h-2048v271z" />
    <glyph glyph-name="afii00208" unicode="&#x2015;" horiz-adv-x="2048" 
d="M0 748h2048v-271h-2048v271z" />
    <glyph glyph-name="quoteleft" unicode="&#x2018;" horiz-adv-x="493" 
d="M213 1462h219l-65 -520h-281z" />
    <glyph glyph-name="quoteright" unicode="&#x2019;" horiz-adv-x="493" 
d="M129 1462h279l-127 -520h-220z" />
    <glyph glyph-name="quotesinglbase" unicode="&#x201a;" horiz-adv-x="493" 
d="M139 330h279l-127 -523h-219z" />
    <glyph glyph-name="quotedblleft" unicode="&#x201c;" horiz-adv-x="856" 
d="M592 1462h203l-66 -520h-264zM213 1462h203l-66 -520h-264z" />
    <glyph glyph-name="quotedblright" unicode="&#x201d;" horiz-adv-x="856" 
d="M129 1462h262l-127 -520h-203zM506 1462h264l-127 -520h-203z" />
    <glyph glyph-name="quotedblbase" unicode="&#x201e;" horiz-adv-x="856" 
d="M139 328h262l-127 -523h-202zM516 328h264l-127 -523h-202z" />
    <glyph glyph-name="dagger" unicode="&#x2020;" horiz-adv-x="980" 
d="M348 834h-317v253h317v375h285v-375h317v-253h-317v-1012h-285v1012z" />
    <glyph glyph-name="daggerdbl" unicode="&#x2021;" horiz-adv-x="980" 
d="M348 203h-317v254h317v397h-317v254h317v354h285v-354h317v-254h-317v-397h317v-254h-317v-381h-285v381z" />
    <glyph glyph-name="bullet" unicode="&#x2022;" horiz-adv-x="819" 
d="M189.5 965q87.5 86 220.5 86q134 0 220.5 -84.5t86.5 -221.5t-86 -223t-221 -86t-221.5 88t-86.5 221q0 134 87.5 220z" />
    <glyph glyph-name="ellipsis" unicode="&#x2026;" horiz-adv-x="1996" 
d="M852 330h293v-330h-293v330zM106 330h293v-330h-293v330zM1599 330h293v-330h-293v330z" />
    <glyph glyph-name="perthousand" unicode="&#x2030;" horiz-adv-x="2834" 
d="M584 999q0 139 -38 193t-105 55q-67 0 -105 -54q-38 -53 -37 -193q-1 -140 37 -192t105 -52t105 52t38 191zM441 555q-169 0 -275 109t-105 333q0 225 106 339t273 114q266 0 351 -249q29 -85 29 -202t-28 -201q-80 -243 -351 -243zM774 0h-276l712 1415h277zM1405 412
q-1 -140 37 -192t105 -52t105 52t38 192t-38 193q-38 54 -105 54t-105 -54t-37 -193zM1547 -33q-170 0 -275 109t-105 333q0 223 107 339t272 114q269 0 350 -249q29 -85 29 -201t-28 -202q-80 -243 -350 -243zM2253 412q-1 -140 37 -192t105 -52t105 52t38 192t-38 193
q-38 54 -105 54t-105 -54t-37 -193zM2395 -33q-81 0 -151 26t-120 79q-109 113 -109 337q0 223 107 339t272 114q266 0 350 -249q29 -85 29 -201t-28 -202q-28 -85 -79 -138q-50 -53 -120 -79t-151 -26z" />
    <glyph glyph-name="guilsinglleft" unicode="&#x2039;" horiz-adv-x="669" 
d="M72 528l262 459h295l-238 -457l238 -469h-299z" />
    <glyph glyph-name="guilsinglright" unicode="&#x203a;" horiz-adv-x="669" 
d="M279 520l-238 467h301l256 -465l-260 -461h-297z" />
    <glyph glyph-name="fraction" unicode="&#x2044;" horiz-adv-x="231" 
d="M-102 0h-277l713 1415h276z" />
    <glyph glyph-name="zerosuperior" unicode="&#x2070;" horiz-adv-x="843" 
d="M423 756q67 0 104.5 52t37.5 191.5t-38.5 193.5t-104.5 54t-103.5 -54t-37.5 -193.5t37.5 -191.5t104.5 -52zM423 555q-81 0 -150.5 25.5t-121 79t-80 138.5t-28.5 254.5t105.5 283.5t273.5 114q265 0 322 -167t57 -283.5t-28 -201.5t-79 -138.5t-120.5 -79t-150.5 -25.5
z" />
    <glyph glyph-name="foursuperior" unicode="&#x2074;" horiz-adv-x="843" 
d="M465 920v254l-189 -254h189zM659 1415v-495h107l-21 -164h-86v-166h-194v166h-393v129l399 530h188z" />
    <glyph glyph-name="fivesuperior" unicode="&#x2075;" horiz-adv-x="843" 
d="M474 1122q269 0 269 -280q0 -136 -81.5 -211.5t-229.5 -75.5q-297 0 -315 276h190q8 -47 34 -74.5t85 -27.5q117 0 117 124t-121 124q-69 0 -121 -47h-164l45 485h500v-172h-328q-4 -35 -6 -69.5t-6 -73.5q63 22 132 22z" />
    <glyph glyph-name="sixsuperior" unicode="&#x2076;" horiz-adv-x="843" 
d="M416 715q142 0 143 127q0 59 -31.5 95t-89.5 36q-142 0 -141 -117q0 -53 29.5 -97t89.5 -44zM451 1282q-145 0 -160 -221q81 53 203 53t191 -71.5t69 -195.5t-90.5 -208t-241.5 -84q-187 0 -261.5 116.5t-74.5 266.5q0 272 100 392t257 120q156 0 224 -66.5t87 -183.5
l-197 -20q-8 102 -106 102z" />
    <glyph glyph-name="sevensuperior" unicode="&#x2077;" horiz-adv-x="843" 
d="M96 1231v184h633v-158q-176 -324 -270 -667h-232q113 361 252 641h-383z" />
    <glyph glyph-name="eightsuperior" unicode="&#x2078;" horiz-adv-x="843" 
d="M559 821q0 103 -136 103q-71 0 -104.5 -30t-33.5 -76t35.5 -74.5t102.5 -28.5t101.5 29.5t34.5 76.5zM301 1192q0 -100 117 -100t117 102q0 41 -27 68.5t-87 27.5t-90 -28.5t-30 -69.5zM115 1194q0 112 74.5 183t235.5 71t233.5 -68.5t72.5 -181.5t-104 -180
q131 -69 131 -195q0 -127 -84 -196.5t-255 -69.5t-252 70.5t-81 190.5t129 198q-100 66 -100 178z" />
    <glyph glyph-name="ninesuperior" unicode="&#x2079;" horiz-adv-x="843" 
d="M412 1288q-136 0 -136 -121q0 -59 32 -97t89 -38q142 0 142 117q0 53 -30 96t-97 43zM343 889q-124 0 -192.5 74.5t-68.5 198.5t90.5 206t241.5 82q184 0 260 -126.5t76 -278.5q0 -272 -92 -381t-251 -109q-160 0 -235.5 65.5t-85.5 190.5h197q8 -53 39.5 -71.5
t89.5 -18.5t97.5 56.5t35.5 166.5q-78 -55 -202 -55z" />
    <glyph glyph-name="zeroinferior" unicode="&#x2080;" horiz-adv-x="843" 
d="M423 168q67 0 105 52t37 192q0 140 -38 193q-39 54 -105 54t-104 -54t-38 -193t38 -192q38 -52 105 -52zM423 -33q-268 0 -351 243q-29 85 -29 202q0 220 107 336t272 114q266 0 350 -249q29 -85 29 -201t-28 -202q-28 -85 -79 -138q-101 -105 -271 -105z" />
    <glyph glyph-name="oneinferior" unicode="&#x2081;" horiz-adv-x="843" 
d="M575 827v-825h-217v616l-190 -102l-82 150l289 161h200z" />
    <glyph glyph-name="twoinferior" unicode="&#x2082;" horiz-adv-x="843" 
d="M735 598q0 -85 -37 -146t-93 -117q-56 -57 -95 -87t-80 -64h315l-22 -182h-610v152q27 24 73 60q60 46 223 188q72 63 89 107q16 44 16 83q0 38 -24 64t-74 26t-81 -28q-32 -28 -46 -107l-209 26q62 292 352 289q147 0 225 -70t78 -194z" />
    <glyph glyph-name="threeinferior" unicode="&#x2083;" horiz-adv-x="843" 
d="M438 131q131 -1 131 105t-129 106h-86v164h88q55 0 84 28t29 70q0 96 -117 94q-53 0 -88 -26t-47 -97l-192 27q23 115 99 188q78 72 236 72t232 -68t74 -176q0 -107 -113 -182q67 -27 99 -80t32 -110q0 -125 -76 -202t-248 -77t-264 99q-69 76 -76 208h193
q15 -143 139 -143z" />
    <glyph glyph-name="fourinferior" unicode="&#x2084;" horiz-adv-x="843" 
d="M465 332v254l-189 -254h189zM659 827v-495h107l-21 -164h-86v-166h-194v166h-393v129l399 530h188z" />
    <glyph glyph-name="fiveinferior" unicode="&#x2085;" horiz-adv-x="843" 
d="M743 254q1 -136 -81 -212t-230 -75q-297 0 -315 277h190q8 -47 34 -75t85 -28q117 0 117 124t-121 124q-72 0 -121 -47h-164l45 485h500v-172h-328q-4 -35 -6 -69t-6 -74q57 20 129 21q137 3 205 -70q67 -73 67 -209z" />
    <glyph glyph-name="sixinferior" unicode="&#x2086;" horiz-adv-x="843" 
d="M297 274q-1 -59 29 -103t90 -44q142 0 143 127q0 59 -32 95t-89 36t-99 -26t-42 -85zM494 526q122 0 191 -72t69 -194q0 -123 -90 -208q-91 -85 -242 -85q-187 0 -270 131q-66 102 -66 251q0 395 221 487q66 27 142 26q151 0 219 -66t86 -184l-197 -20q-4 51 -33 77
t-73 25q-145 0 -160 -221q81 53 203 53z" />
    <glyph glyph-name="seveninferior" unicode="&#x2087;" horiz-adv-x="843" 
d="M96 643v184h633v-157q-176 -323 -270 -668h-232q117 372 252 641h-383z" />
    <glyph glyph-name="eightinferior" unicode="&#x2088;" horiz-adv-x="843" 
d="M559 234q-1 102 -137 102q-70 0 -104 -30t-33 -76q0 -46 36 -74q37 -28 103 -29q66 0 100 30t35 77zM301 604q0 -100 117 -100t117 102q0 41 -27 69q-27 27 -87 27t-90 -28t-30 -70zM731 610q0 -113 -104 -180q131 -69 131 -195q0 -127 -84 -197t-255 -69q-171 0 -252 71
t-81 191t129 197q-102 68 -101 179t75 183q75 70 236 70t233 -68t73 -182z" />
    <glyph glyph-name="nineinferior" unicode="&#x2089;" horiz-adv-x="843" 
d="M412 700q-136 0 -136 -120q0 -60 32 -98t89 -38t100 26q42 26 42 85t-30 102t-97 43zM150 376q-68 75 -68 199t91 206q91 83 241 81q186 0 270 -143q63 -105 65 -259q2 -274 -91 -384q-93 -109 -252 -109q-158 0 -234 66t-86 190h197q8 -53 40 -71t90 -18t97 55
q39 56 35 167q-78 -55 -202 -55q-125 0 -193 75z" />
    <glyph glyph-name="Euro" unicode="&#x20ac;" 
d="M162 639v125h-133l28 186h125q61 350 235.5 427t295.5 77q221 0 328.5 -103.5t134.5 -308.5l-256 -41q-23 111 -69.5 157t-146.5 46q-183 0 -235 -254h328l-29 -186h-322v-125h308l-31 -186h-254q51 -242 229 -242q111 0 163 53t65 164h268q-32 -465 -502 -465
q-432 0 -514 490h-149l28 186h105z" />
    <glyph glyph-name="uni20AE" unicode="&#x20ae;" 
d="M453 1165h-396v252h1073v-252h-395v-233l164 106l88 -133l-252 -162v-155l164 106l88 -133l-252 -162v-399h-282v233l-177 -112l-88 133l265 168v156l-177 -113l-88 133l265 168v399z" />
    <glyph glyph-name="uni20B4" unicode="&#x20b4;" 
d="M799 1055q0 155 -188 155q-155 0 -191 -174l-279 41q32 210 171 293.5t333 83.5q193 0 313.5 -100.5t120.5 -292.5q0 -78 -12 -135h92v-146h-207q-68 -68 -152.5 -102.5t-170.5 -54.5h530v-146h-735q-14 -31 -14 -97t48 -119.5t151 -53.5t153.5 34.5t54.5 131.5h299
q-8 -410 -506 -410q-258 0 -372.5 113.5t-114.5 290.5q0 62 8 110h-94v146h172q79 97 258 157h-430v146h711q51 47 51 129z" />
    <glyph glyph-name="afii61289" unicode="&#x2113;" horiz-adv-x="1075" 
d="M750 1130q0 83 -22.5 122.5t-82.5 39.5q-77 0 -98 -103.5t-21 -189.5v-294q98 111 161 226.5t63 198.5zM238 969q0 262 107.5 393t273.5 131q165 0 246 -102.5t81 -268.5q0 -165 -111.5 -331t-308.5 -340v-72q0 -86 44 -134t114 -48q107 0 201 94l121 -144
q-152 -184 -396 -184q-245 0 -306.5 136.5t-61.5 187.5l-101 -72l-75 147l172 134v473z" />
    <glyph glyph-name="afii61352" unicode="&#x2116;" horiz-adv-x="2291" 
d="M1852 768q67 0 105 52t38 191.5t-38 194t-105 54.5t-104.5 -54.5t-37.5 -194t37.5 -191.5t104.5 -52zM1852 567q-81 0 -150.5 25.5t-120.5 79t-79.5 138.5t-28.5 254.5t105 283.5t273 114q267 0 323 -167t56 -283.5t-27.5 -201.5t-78.5 -138.5t-121 -79t-151 -25.5z
M150 1462h274l602 -958v958h297v-1462h-272l-605 950v-950h-296v1462z" />
    <glyph glyph-name="trademark" unicode="&#x2122;" horiz-adv-x="1886" 
d="M840 1462h239l219 -594l222 594h235v-819h-182v516l-193 -516h-168l-192 514v-514h-180v819zM291 1286h-250v176h702v-176h-254v-643h-198v643z" />
    <glyph glyph-name="uni2126" unicode="&#x2126;" horiz-adv-x="1509" 
d="M416 816q0 -202 46 -346q46 -146 167 -239v-231h-568v246h250q-96 112 -147 240t-51 304t47 307q47 132 133 221t205 135t262 46q292 0 466 -180q173 -180 173 -518q0 -256 -118 -439q-38 -59 -87 -116h254l-31 -246h-536v231q170 120 200 393q10 83 11 171
q0 462 -332 460q-180 -1 -262 -119t-82 -320z" />
    <glyph glyph-name="estimated" unicode="&#x212e;" horiz-adv-x="1865" 
d="M1448 741q8 0 8 15v407q0 27 -18 49q-98 98 -227.5 154.5t-277 56.5t-277.5 -60t-228 -159q-20 -16 -20 -49v-399q0 -14 10 -15h1030zM408 285q0 -27 18 -45q209 -222 508 -222q164 0 299 68t235 178h119q-109 -133 -283 -210t-360 -77t-336.5 58.5t-263.5 159
t-177.5 236.5t-64.5 289.5t64.5 290t177.5 238t263.5 160.5t322.5 59t324.5 -59t265 -160.5t178 -238t65.5 -289.5v-21h-1345q-10 0 -10 -8v-407z" />
    <glyph glyph-name="onethird" unicode="&#x2153;" horiz-adv-x="1918" 
d="M516 1415v-825h-217v616l-190 -102l-82 149l288 162h201zM670 0h-277l713 1415h276zM1513 131q132 -1 132 105t-129 106h-86v164h88q55 0 84 28t28 70q0 96 -117 94q-53 0 -88 -26t-47 -97l-192 27q23 115 99 188q77 72 236 72t233 -68t73 -176q0 -107 -113 -182
q66 -27 98 -80t33 -110q0 -125 -76 -202t-248 -77t-264 99q-70 77 -75 208h192q15 -143 139 -143z" />
    <glyph glyph-name="twothirds" unicode="&#x2154;" horiz-adv-x="1918" 
d="M80 1161q61 289 345 289q154 0 232 -71t78 -193q0 -84 -37 -145t-93 -118t-95 -87t-80 -64h315l-22 -182h-610v151q27 25 93 76t203 173q105 93 105 190q0 38 -24 64t-74 26t-81 -28q-32 -28 -46 -107zM774 0h-276l712 1415h277zM1513 131q132 -1 132 105t-129 106h-86
v164h88q55 0 84 28t28 70q0 96 -117 94q-53 0 -88 -26t-47 -97l-192 27q23 115 99 188q77 72 236 72t233 -68t73 -176q0 -107 -113 -182q66 -27 98 -80t33 -110q0 -125 -76 -202t-248 -77t-264 99q-70 77 -75 208h192q15 -143 139 -143z" />
    <glyph glyph-name="onefifth" unicode="&#x2155;" horiz-adv-x="1918" 
d="M516 1415v-825h-217v616l-190 -102l-82 149l288 162h201zM657 0h-276l713 1415h276zM1831 268q0 -150 -82 -226t-229 -75q-297 0 -316 277h191q7 -47 33 -75t85 -28q119 0 118 124t-122 124q-71 0 -120 -47h-164l45 485h499v-172h-327q-4 -35 -6 -69t-6 -74q58 20 129 21
t123 -19q148 -60 149 -246z" />
    <glyph glyph-name="twofifths" unicode="&#x2156;" horiz-adv-x="1918" 
d="M80 1161q61 289 345 289q154 0 232 -71t78 -193q0 -84 -37 -145t-93 -118t-95 -87t-80 -64h315l-22 -182h-610v151q27 25 93 76t203 173q105 93 105 190q0 38 -24 64t-74 26t-81 -28q-32 -28 -46 -107zM768 0h-276l712 1415h277zM1831 268q0 -150 -82 -226t-229 -75
q-297 0 -316 277h191q7 -47 33 -75t85 -28q119 0 118 124t-122 124q-71 0 -120 -47h-164l45 485h499v-172h-327q-4 -35 -6 -69t-6 -74q58 20 129 21t123 -19q148 -60 149 -246z" />
    <glyph glyph-name="threefifths" unicode="&#x2157;" horiz-adv-x="1918" 
d="M438 719q131 -1 131 105t-129 106h-86v164h88q55 0 84 28t29 70q0 96 -117 94q-53 0 -88 -26t-47 -97l-192 27q23 116 99 188t236 72q158 0 232 -69t74 -176t-113 -181q67 -27 99 -80t32 -110q0 -125 -76 -202t-247 -77t-265 98q-69 76 -76 209h193q15 -143 139 -143z
M760 0h-277l713 1415h277zM1831 268q0 -150 -82 -226t-229 -75q-297 0 -316 277h191q7 -47 33 -75t85 -28q119 0 118 124t-122 124q-71 0 -120 -47h-164l45 485h499v-172h-327q-4 -35 -6 -69t-6 -74q58 20 129 21t123 -19q148 -60 149 -246z" />
    <glyph glyph-name="fourfifths" unicode="&#x2158;" horiz-adv-x="1918" 
d="M465 920v254l-189 -254h189zM659 1415v-495h107l-21 -164h-86v-166h-194v166h-393v129l399 530h188zM752 0h-277l713 1415h276zM1831 268q0 -150 -82 -226t-229 -75q-297 0 -316 277h191q7 -47 33 -75t85 -28q119 0 118 124t-122 124q-71 0 -120 -47h-164l45 485h499
v-172h-327q-4 -35 -6 -69t-6 -74q58 20 129 21t123 -19q148 -60 149 -246z" />
    <glyph glyph-name="onesixth" unicode="&#x2159;" horiz-adv-x="1918" 
d="M516 1415v-825h-217v616l-190 -102l-82 149l288 162h201zM659 0h-276l713 1415h276zM1372 274q0 -59 30 -103t90 -44q142 0 142 127q0 59 -31 95t-89 36t-100 -26t-42 -85zM1568 526q122 0 192 -72q69 -72 69 -194q0 -123 -90 -208q-91 -85 -242 -85q-187 0 -270 131
q-63 98 -65 249q-2 270 106 403q95 114 250 113q156 -1 224 -67t87 -184l-197 -20q-4 51 -33 77t-73 25q-145 0 -160 -221q80 53 202 53z" />
    <glyph glyph-name="fivesixths" unicode="&#x215a;" horiz-adv-x="1918" 
d="M543 853q0 124 -121 124q-72 0 -121 -47h-164l45 485h500v-172h-328q-4 -35 -6 -69t-6 -74q64 22 132 22q269 0 269 -280q1 -136 -81 -212t-230 -75q-297 0 -315 276h190q17 -102 119 -102q117 0 117 124zM748 0h-277l713 1415h276zM1372 274q0 -59 30 -103t90 -44
q142 0 142 127q0 59 -31 95t-89 36t-100 -26t-42 -85zM1568 526q122 0 192 -72q69 -72 69 -194q0 -123 -90 -208q-91 -85 -242 -85q-187 0 -270 131q-63 98 -65 249q-2 270 106 403q95 114 250 113q156 -1 224 -67t87 -184l-197 -20q-4 51 -33 77t-73 25q-145 0 -160 -221
q80 53 202 53z" />
    <glyph glyph-name="oneeighth" unicode="&#x215b;" horiz-adv-x="1918" 
d="M516 1415v-825h-217v616l-190 -102l-82 149l288 162h201zM639 0h-277l713 1415h277zM1634 234q0 102 -136 102q-70 0 -104 -30t-34 -76t36 -74t102 -29q66 0 102 30q34 30 34 77zM1376 604q0 -100 117 -100t117 102q0 41 -27 69q-27 27 -87 27t-90 -28t-30 -70zM1833 235
q0 -127 -84 -197t-255 -69q-171 0 -252 71t-81 191t129 197q-102 68 -101 179t76 183t235 70q160 0 234 -68q72 -68 72 -182q0 -113 -104 -180q131 -68 131 -195z" />
    <glyph glyph-name="threeeighths" unicode="&#x215c;" horiz-adv-x="1918" 
d="M438 719q131 -1 131 105t-129 106h-86v164h88q55 0 84 28t29 70q0 96 -117 94q-53 0 -88 -26t-47 -97l-192 27q23 116 99 188t236 72q158 0 232 -69t74 -176t-113 -181q67 -27 99 -80t32 -110q0 -125 -76 -202t-247 -77t-265 98q-69 76 -76 209h193q15 -143 139 -143z
M752 0h-277l713 1415h276zM1634 234q0 102 -136 102q-70 0 -104 -30t-34 -76t36 -74t102 -29q66 0 102 30q34 30 34 77zM1376 604q0 -100 117 -100t117 102q0 41 -27 69q-27 27 -87 27t-90 -28t-30 -70zM1833 235q0 -127 -84 -197t-255 -69q-171 0 -252 71t-81 191t129 197
q-102 68 -101 179t76 183t235 70q160 0 234 -68q72 -68 72 -182q0 -113 -104 -180q131 -68 131 -195z" />
    <glyph glyph-name="fiveeighths" unicode="&#x215d;" horiz-adv-x="1918" 
d="M543 853q0 124 -121 124q-72 0 -121 -47h-164l45 485h500v-172h-328q-4 -35 -6 -69t-6 -74q64 22 132 22q269 0 269 -280q1 -136 -81 -212t-230 -75q-297 0 -315 276h190q17 -102 119 -102q117 0 117 124zM741 0h-276l713 1415h276zM1634 234q0 102 -136 102
q-70 0 -104 -30t-34 -76t36 -74t102 -29q66 0 102 30q34 30 34 77zM1376 604q0 -100 117 -100t117 102q0 41 -27 69q-27 27 -87 27t-90 -28t-30 -70zM1833 235q0 -127 -84 -197t-255 -69q-171 0 -252 71t-81 191t129 197q-102 68 -101 179t76 183t235 70q160 0 234 -68
q72 -68 72 -182q0 -113 -104 -180q131 -68 131 -195z" />
    <glyph glyph-name="seveneighths" unicode="&#x215e;" horiz-adv-x="1918" 
d="M57 1231v184h633v-158q-176 -324 -270 -667h-232q117 372 252 641h-383zM639 0h-277l713 1415h277zM1634 234q0 102 -136 102q-70 0 -104 -30t-34 -76t36 -74t102 -29q66 0 102 30q34 30 34 77zM1376 604q0 -100 117 -100t117 102q0 41 -27 69q-27 27 -87 27t-90 -28
t-30 -70zM1833 235q0 -127 -84 -197t-255 -69q-171 0 -252 71t-81 191t129 197q-102 68 -101 179t76 183t235 70q160 0 234 -68q72 -68 72 -182q0 -113 -104 -180q131 -68 131 -195z" />
    <glyph glyph-name="partialdiff" unicode="&#x2202;" 
d="M852 889q0 159 -55 244.5t-145 85.5q-91 0 -145 -31t-77 -121l-250 37q41 186 155 268t312 82q325 0 397 -221t72 -401q0 -395 -136.5 -632t-451.5 -237q-209 0 -338 131t-129 335t132 348.5t340 144.5t315 -136q4 36 4 103zM784 468q0 230 -222 230q-112 0 -175 -78
t-63 -188t61.5 -176t165.5 -66t168.5 80t64.5 198z" />
    <glyph glyph-name="Delta" unicode="&#x2206;" horiz-adv-x="1404" 
d="M991 260l-295 866l-295 -866h590zM20 0l539 1462h291l534 -1462h-1364z" />
    <glyph glyph-name="product" unicode="&#x220f;" horiz-adv-x="1468" 
d="M150 1462h1169v-1462h-305v1188h-559v-1188h-305v1462z" />
    <glyph glyph-name="summation" unicode="&#x2211;" horiz-adv-x="1206" 
d="M41 1462h1122v-250h-741l381 -577l-391 -594h774l-31 -250h-1114v184l428 656l-428 639v192z" />
    <glyph glyph-name="minus" unicode="&#x2212;" 
d="M158 821h897v-248h-897v248z" />
    <glyph glyph-name="uni2215" unicode="&#x2215;" horiz-adv-x="231" 
d="M-102 0h-277l713 1415h276z" />
    <glyph glyph-name="uni2219" unicode="&#x2219;" horiz-adv-x="503" 
d="M106 928h293v-330h-293v330z" />
    <glyph glyph-name="radical" unicode="&#x221a;" horiz-adv-x="1277" 
d="M82 592v252h387l154 -434l354 1087h301l-520 -1497h-264l-240 592h-172z" />
    <glyph glyph-name="infinity" unicode="&#x221e;" 
d="M958 697q0 163 -118 163q-56 0 -94 -52.5t-50 -113.5q21 -102 71 -129.5t90 -27.5t70.5 37.5t30.5 122.5zM45 698.5q0 178.5 82.5 271.5t197.5 93t177.5 -45t103.5 -111q102 156 268 156q128 0 210.5 -93t82.5 -271.5t-82.5 -271.5t-197.5 -93t-177.5 44.5t-103.5 110.5
q-101 -155 -268 -155q-128 0 -210.5 93t-82.5 271.5zM254 699q0 -162 118 -162q56 0 94 52t50 113q-23 102 -72 130t-89 28t-70.5 -38t-30.5 -123z" />
    <glyph glyph-name="integral" unicode="&#x222b;" horiz-adv-x="659" 
d="M434 1479q146 0 225 -37l-38 -209q-59 23 -109 23t-72 -21t-32.5 -60.5t6.5 -142.5l116 -831q46 -319 -91 -383t-209 -64q-147 0 -230 39l39 211q63 -25 121 -24q109 0 104.5 92t-10.5 131l-115 829q-46 322 87.5 384.5t207.5 62.5z" />
    <glyph glyph-name="approxequal" unicode="&#x2248;" 
d="M61 201q0 223 80 323.5t254 100.5q66 0 119 -23.5t99 -51.5t86 -51.5t81 -23.5q113 0 113 146h256q0 -223 -79 -323.5t-253 -100.5q-96 0 -180 52t-125 75.5t-80 23.5q-113 0 -113 -147h-258zM61 727q0 223 80 323.5t254 100.5q66 0 119 -23.5t99 -51t86 -51.5t81 -24
q113 0 113 146h256q0 -223 -79 -324.5t-253 -101.5q-96 0 -180 52t-125 75.5t-80 23.5q-113 0 -113 -145h-258z" />
    <glyph glyph-name="notequal" unicode="&#x2260;" 
d="M158 348v248h276l101 205h-377v248h497l107 217h244l-107 -217h156v-248h-277l-100 -205h377v-248h-500l-106 -219h-242l106 219h-155z" />
    <glyph glyph-name="lessequal" unicode="&#x2264;" 
d="M150 248h937v-248h-937v248zM150 909l937 348v-270l-606 -186l606 -189v-274l-937 346v225z" />
    <glyph glyph-name="greaterequal" unicode="&#x2265;" 
d="M1063 0h-938v248h938v-248zM1063 684l-938 -346v274l606 189l-606 186v270l938 -348v-225z" />
    <glyph glyph-name="lozenge" unicode="&#x25ca;" 
d="M850 731l-246 397l-239 -397l239 -397zM72 731l442 731h184l443 -731l-443 -731h-184z" />
    <glyph glyph-name="fi" unicode="&#xf001;" horiz-adv-x="1320" 
d="M197 846h-168v223h168v35q0 191 102 283t249 92t245 -31l-39 -209q-66 16 -123 16t-103 -31q-45 -32 -45 -114v-41h248v-223h-248v-846h-286v846zM901 1462h295v-258h-295v258zM905 1069h287v-1069h-287v1069z" />
    <glyph glyph-name="fl" unicode="&#xf002;" horiz-adv-x="1320" 
d="M197 846h-168v223h168v35q0 191 102 283t249 92t245 -31l-39 -209q-66 16 -123 16t-103 -31q-45 -32 -45 -114v-41h248v-223h-248v-846h-286v846zM905 1462h287v-1462h-287v1462z" />
    <glyph glyph-name="oneseventh" unicode="&#xf506;" horiz-adv-x="1918" 
d="M516 1415v-825h-217v616l-190 -102l-82 149l288 162h201zM631 0h-277l713 1415h276zM1171 643v184h633v-157q-176 -323 -270 -668h-231q118 377 251 641h-383z" />
    <glyph glyph-name="twosevenths" unicode="&#xf507;" horiz-adv-x="1918" 
d="M80 1161q61 289 345 289q154 0 232 -71t78 -193q0 -84 -37 -145t-93 -118t-95 -87t-80 -64h315l-22 -182h-610v151q27 25 93 76t203 173q105 93 105 190q0 38 -24 64t-74 26t-81 -28q-32 -28 -46 -107zM729 0h-276l712 1415h277zM1171 643v184h633v-157
q-176 -323 -270 -668h-231q118 377 251 641h-383z" />
    <glyph glyph-name="threesevenths" unicode="&#xf508;" horiz-adv-x="1918" 
d="M438 719q131 -1 131 105t-129 106h-86v164h88q55 0 84 28t29 70q0 96 -117 94q-53 0 -88 -26t-47 -97l-192 27q23 116 99 188t236 72q158 0 232 -69t74 -176t-113 -181q67 -27 99 -80t32 -110q0 -125 -76 -202t-247 -77t-265 98q-69 76 -76 209h193q15 -143 139 -143z
M717 0h-277l713 1415h277zM1171 643v184h633v-157q-176 -323 -270 -668h-231q118 377 251 641h-383z" />
    <glyph glyph-name="foursevenths" unicode="&#xf509;" horiz-adv-x="1918" 
d="M465 920v254l-189 -254h189zM659 1415v-495h107l-21 -164h-86v-166h-194v166h-393v129l399 530h188zM711 0h-277l713 1415h276zM1171 643v184h633v-157q-176 -323 -270 -668h-231q118 377 251 641h-383z" />
    <glyph glyph-name="fivesevenths" unicode="&#xf50a;" horiz-adv-x="1918" 
d="M543 853q0 124 -121 124q-72 0 -121 -47h-164l45 485h500v-172h-328q-4 -35 -6 -69t-6 -74q64 22 132 22q269 0 269 -280q1 -136 -81 -212t-230 -75q-297 0 -315 276h190q17 -102 119 -102q117 0 117 124zM707 0h-277l713 1415h276zM1171 643v184h633v-157
q-176 -323 -270 -668h-231q118 377 251 641h-383z" />
    <glyph glyph-name="sixsevenths" unicode="&#xf50b;" horiz-adv-x="1918" 
d="M297 862q-1 -59 29 -103t90 -44q142 0 143 127q0 59 -32 95t-89 36t-99 -26t-42 -85zM451 1282q-145 0 -160 -221q81 53 203 53t191 -72t69 -194t-90 -208q-91 -85 -242 -85q-187 0 -270 131q-66 102 -66 251t29 245q81 268 334 268q151 0 219 -67t86 -183l-197 -20
q-4 50 -33 76t-73 26zM698 0h-276l713 1415h276zM1171 643v184h633v-157q-176 -323 -270 -668h-231q118 377 251 641h-383z" />
    <glyph glyph-name="oneninth" unicode="&#xf50c;" horiz-adv-x="1918" 
d="M516 1415v-825h-217v616l-190 -102l-82 149l288 162h201zM639 0h-277l713 1415h277zM1487 700q-135 0 -135 -120q0 -59 31 -98q33 -38 90 -38t99 26t42 85t-30 102t-97 43zM1226 376q-69 75 -69 198t91 206q91 84 241 82q186 0 270 -143q63 -105 65 -259q2 -274 -91 -384
q-93 -109 -252 -109q-300 0 -320 256h197q8 -53 40 -71t90 -18t98 55q38 56 34 167q-78 -55 -201 -55q-124 0 -193 75z" />
    <glyph glyph-name="twoninths" unicode="&#xf50d;" horiz-adv-x="1918" 
d="M80 1161q61 289 345 289q154 0 232 -71t78 -193q0 -84 -37 -145t-93 -118t-95 -87t-80 -64h315l-22 -182h-610v151q27 25 93 76t203 173q105 93 105 190q0 38 -24 64t-74 26t-81 -28q-32 -28 -46 -107zM756 0h-277l713 1415h276zM1487 700q-135 0 -135 -120q0 -59 31 -98
q33 -38 90 -38t99 26t42 85t-30 102t-97 43zM1226 376q-69 75 -69 198t91 206q91 84 241 82q186 0 270 -143q63 -105 65 -259q2 -274 -91 -384q-93 -109 -252 -109q-300 0 -320 256h197q8 -53 40 -71t90 -18t98 55q38 56 34 167q-78 -55 -201 -55q-124 0 -193 75z" />
    <glyph glyph-name="fourninths" unicode="&#xf50e;" horiz-adv-x="1918" 
d="M465 920v254l-189 -254h189zM659 1415v-495h107l-21 -164h-86v-166h-194v166h-393v129l399 530h188zM735 0h-276l712 1415h277zM1487 700q-135 0 -135 -120q0 -59 31 -98q33 -38 90 -38t99 26t42 85t-30 102t-97 43zM1226 376q-69 75 -69 198t91 206q91 84 241 82
q186 0 270 -143q63 -105 65 -259q2 -274 -91 -384q-93 -109 -252 -109q-300 0 -320 256h197q8 -53 40 -71t90 -18t98 55q38 56 34 167q-78 -55 -201 -55q-124 0 -193 75z" />
    <glyph glyph-name="fiveninths" unicode="&#xf50f;" horiz-adv-x="1918" 
d="M543 853q0 124 -121 124q-72 0 -121 -47h-164l45 485h500v-172h-328q-4 -35 -6 -69t-6 -74q64 22 132 22q269 0 269 -280q1 -136 -81 -212t-230 -75q-297 0 -315 276h190q17 -102 119 -102q117 0 117 124zM733 0h-276l712 1415h277zM1487 700q-135 0 -135 -120
q0 -59 31 -98q33 -38 90 -38t99 26t42 85t-30 102t-97 43zM1226 376q-69 75 -69 198t91 206q91 84 241 82q186 0 270 -143q63 -105 65 -259q2 -274 -91 -384q-93 -109 -252 -109q-300 0 -320 256h197q8 -53 40 -71t90 -18t98 55q38 56 34 167q-78 -55 -201 -55
q-124 0 -193 75z" />
    <glyph glyph-name="sevenninths" unicode="&#xf510;" horiz-adv-x="1918" 
d="M57 1231v184h633v-158q-176 -324 -270 -667h-232q117 372 252 641h-383zM631 0h-277l713 1415h276zM1487 700q-135 0 -135 -120q0 -59 31 -98q33 -38 90 -38t99 26t42 85t-30 102t-97 43zM1226 376q-69 75 -69 198t91 206q91 84 241 82q186 0 270 -143q63 -105 65 -259
q2 -274 -91 -384q-93 -109 -252 -109q-300 0 -320 256h197q8 -53 40 -71t90 -18t98 55q38 56 34 167q-78 -55 -201 -55q-124 0 -193 75z" />
    <glyph glyph-name="eightninths" unicode="&#xf511;" horiz-adv-x="1918" 
d="M422 924q-70 0 -104 -30t-33 -76q0 -46 36 -75q37 -29 103 -29t100 30t35 77q0 47 -33 75q-34 28 -104 28zM301 1192q0 -100 117 -100t117 102q0 41 -27 69q-27 27 -87 27t-90 -28t-30 -70zM425 1448q161 0 233 -69t73 -182q0 -113 -104 -179q131 -69 131 -195
q0 -127 -84 -197t-255 -69q-171 0 -252 71t-81 191t129 197q-102 68 -101 179t75 182q75 71 236 71zM743 0h-276l713 1415h276zM1487 700q-135 0 -135 -120q0 -59 31 -98q33 -38 90 -38t99 26t42 85t-30 102t-97 43zM1226 376q-69 75 -69 198t91 206q91 84 241 82
q186 0 270 -143q63 -105 65 -259q2 -274 -91 -384q-93 -109 -252 -109q-300 0 -320 256h197q8 -53 40 -71t90 -18t98 55q38 56 34 167q-78 -55 -201 -55q-124 0 -193 75z" />
    <glyph glyph-name="zero.alt" unicode="&#xf800;" 
d="M604 213q192 0 230 288q12 91 12 208t-12 207q-38 288 -230 288q-187 0 -225 -288q-12 -92 -12 -208q0 -370 125 -461q44 -34 112 -34zM1145 708q-1 -384 -143 -564t-398 -181q-256 0 -396 180t-140 560t142 565q142 186 398 186t396 -181t141 -565z" />
    <glyph glyph-name="one.alt" unicode="&#xf801;" horiz-adv-x="1007" 
d="M758 1415v-1415h-293v1083l-277 -165l-127 210l453 287h244z" />
    <glyph glyph-name="two.alt" unicode="&#xf802;" 
d="M791 1016q-1 78 -51 134t-144 56t-152 -46t-88 -175l-278 33q41 199 148 306q130 130 374 130t367 -117t123 -317q0 -236 -196 -441q-98 -104 -203 -190t-163 -139h582l-31 -250h-981v215q88 78 174 149q86 72 173 148t152 137t108 119t65 114t21 134z" />
    <glyph glyph-name="three.alt" unicode="&#xf803;" horiz-adv-x="1202" 
d="M1112 418q0 -323 -278 -421q-96 -34 -241 -34q-269 0 -409 158q-111 127 -118 328h292q10 -133 68 -187t162 -53q230 0 229 199q0 104 -52 150t-173 46h-143v252h159q182 0 183 182q0 172 -195 172q-98 0 -158 -45t-86 -159l-274 36q40 196 162 304t355 108t360 -107
q126 -107 124 -276q0 -216 -190 -319q223 -92 223 -334z" />
    <glyph glyph-name="four.alt" unicode="&#xf804;" horiz-adv-x="1193" 
d="M690 547v493l-344 -493h344zM963 1415v-868h180l-31 -230h-149v-317h-273v317h-637v195l647 903h263z" />
    <glyph glyph-name="five.alt" unicode="&#xf805;" 
d="M1108 450q0 -225 -130 -356t-362 -131t-363 110q-132 110 -144 339h286q9 -98 57 -150t160 -51q211 0 211 252q0 121 -53 177t-179 56t-210 -96h-242l70 815h815v-248h-575l-27 -301q91 61 225 63q133 1 217 -37q244 -111 244 -442z" />
    <glyph glyph-name="six.alt" unicode="&#xf806;" 
d="M848 449q0 247 -223 245q-162 0 -214 -129q-19 -47 -17 -109t18 -110q47 -153 204 -153q98 0 165 63t67 193zM100 597q0 463 164 675q141 182 391 182q211 0 319 -88t136 -272l-266 -33q-23 80 -49 106q-48 48 -144 50q-133 0 -197 -113t-73 -305q113 121 313 125
q209 0 320 -120q110 -120 110 -346t-137 -361q-137 -134 -373 -134q-275 0 -408 210q-106 169 -106 424z" />
    <glyph glyph-name="seven.alt" unicode="&#xf807;" horiz-adv-x="1171" 
d="M70 1167v248h999v-221q-302 -559 -473 -1194h-317q194 630 464 1167h-673z" />
    <glyph glyph-name="eight.alt" unicode="&#xf808;" 
d="M606 608q-258 0 -258 -207q0 -96 60 -153q60 -58 198 -58t198 60t60 152q0 94 -56 150t-202 56zM604 840q227 0 227 189q0 89 -50 147t-174 57t-179 -57t-55 -148t54 -140t177 -48zM606 1454q247 0 372 -108q126 -108 126 -293q0 -219 -178 -320q98 -47 157 -131t60 -201
q0 -203 -135 -321q-134 -118 -404 -117q-270 0 -403 118t-133 320q0 111 60 197q61 86 153 133q-178 100 -179 324q0 86 32 158q64 149 250 210q94 31 222 31z" />
    <glyph glyph-name="nine.alt" unicode="&#xf809;" 
d="M586 717q160 0 214 136q37 94 1 216q-46 153 -207 156q-98 0 -166 -65t-68 -181t52 -189t174 -73zM506 489q-200 0 -314 122t-114 347t141 361q141 135 377 135q278 0 409 -215q105 -174 105 -442q0 -484 -146 -678q-69 -90 -165 -123t-209 -33q-229 0 -348 96t-136 299
h273q10 -76 53 -118t150 -41q135 -1 190 107t57 315q-124 -132 -323 -132z" />
    <glyph glyph-name="zero.sups" unicode="&#xf80a;" horiz-adv-x="843" 
d="M423 1004q67 0 105 52t37 191q0 139 -38 193q-39 54 -105 55q-66 0 -104 -54q-38 -53 -38 -193t38 -192t105 -52zM43 1248q0 116 30 201q88 249 351 249t348 -249q29 -85 29 -202t-28 -201q-80 -243 -350 -243t-351 243q-29 86 -29 202z" />
    <glyph glyph-name="one.sups" unicode="&#xf80b;" horiz-adv-x="843" 
d="M575 1663v-825h-217v616l-190 -102l-82 149l289 162h200z" />
    <glyph glyph-name="two.sups" unicode="&#xf80c;" horiz-adv-x="843" 
d="M80 1409q61 289 345 289q154 0 232 -71t78 -193q1 -84 -29 -132q-77 -126 -196 -218q-39 -30 -80 -64h315l-22 -182h-610v151q27 25 73 61t150 124q103 88 141 136q37 47 37 101q0 107 -94 107q-53 0 -85 -28t-46 -108z" />
    <glyph glyph-name="three.sups" unicode="&#xf80d;" horiz-adv-x="843" 
d="M438 967q131 -1 131 105t-129 106h-86v163h88q55 0 84 28t29 71q0 94 -117 94q-53 0 -88 -26t-47 -97l-192 27q23 116 99 188t236 72q158 0 232 -69t74 -176t-113 -181q67 -27 99 -80t32 -111q0 -125 -76 -201t-248 -77q-172 0 -264 98q-69 76 -76 209h193
q15 -145 139 -143z" />
    <glyph glyph-name="four.sups" unicode="&#xf80e;" horiz-adv-x="843" 
d="M465 1167v254l-189 -254h189zM659 1663v-496h107l-21 -163h-86v-166h-194v166h-393v129l399 530h188z" />
    <glyph glyph-name="five.sups" unicode="&#xf80f;" horiz-adv-x="843" 
d="M543 1101q0 124 -121 124q-70 0 -121 -47h-164l45 485h500v-172h-328q-4 -35 -6 -70t-6 -73q64 22 132 22q137 0 203 -73t66 -208q1 -135 -81 -211t-230 -75q-297 0 -315 276h190q17 -102 119 -102q117 0 117 124z" />
    <glyph glyph-name="six.sups" unicode="&#xf810;" horiz-adv-x="843" 
d="M297 1110q-1 -59 29 -103t90 -44q142 0 143 127q0 59 -32 95t-89 36t-99 -26t-42 -85zM451 1530q-145 0 -160 -221q81 53 203 53t191 -72t69 -194t-92 -209q-92 -86 -240 -84q-187 0 -270 131q-66 102 -66 251t29 245q81 268 334 268q151 0 219 -67t86 -183l-197 -21
q-4 51 -33 77t-73 26z" />
    <glyph glyph-name="seven.sups" unicode="&#xf811;" horiz-adv-x="843" 
d="M96 1479v184h633v-158q-176 -324 -270 -667h-232q117 372 252 641h-383z" />
    <glyph glyph-name="eight.sups" unicode="&#xf812;" horiz-adv-x="843" 
d="M285 1066q0 -46 36 -75q37 -29 103 -29t100 30t35 77q0 47 -33 75q-34 28 -104 28t-104 -30q-33 -30 -33 -76zM301 1440q0 -100 117 -100t117 102q0 40 -27 68t-87 28t-90 -28t-30 -70zM425 1696q161 0 233 -69t73 -182q0 -113 -104 -179q131 -69 131 -195
q0 -127 -84 -197t-255 -70t-252 72q-81 71 -81 191t129 197q-102 68 -101 179t75 182q75 71 236 71z" />
    <glyph glyph-name="nine.sups" unicode="&#xf813;" horiz-adv-x="843" 
d="M397 1280q57 0 100 26q42 26 42 85t-30 102t-90 43q-143 0 -143 -121q0 -59 32 -97t89 -38zM343 1137q-125 1 -193 75t-68 198t90 206t242 82q186 0 270 -144q63 -105 65 -259q3 -393 -208 -470q-63 -23 -140 -22q-295 0 -315 256h197q8 -53 40 -71t76 -19q72 0 111 56
t35 167q-78 -55 -202 -55z" />
    <glyph glyph-name="zero.sinf" unicode="&#xf814;" horiz-adv-x="843" 
d="M423 -80q67 0 105 52t37 192q0 140 -38 193q-39 55 -105 55t-104 -54t-38 -194q0 -139 38 -192q38 -52 105 -52zM423 -281q-268 0 -351 243q-29 85 -29 202t30 202q59 166 200 222q69 26 150 26t151 -26t119 -82q50 -55 79 -140t29 -202t-28 -202t-79 -138
q-101 -105 -271 -105z" />
    <glyph glyph-name="one.sinf" unicode="&#xf815;" horiz-adv-x="843" 
d="M575 580v-826h-217v617l-190 -103l-82 150l289 162h200z" />
    <glyph glyph-name="two.sinf" unicode="&#xf816;" horiz-adv-x="843" 
d="M735 350q0 -85 -37 -146t-93 -117q-56 -57 -95 -87t-80 -63h315l-22 -183h-610v152q27 24 73 60t151 126q104 90 140 135q37 46 37 101q0 108 -94 106q-53 0 -85 -28t-46 -107l-209 27q61 291 352 288q147 0 225 -70t78 -194z" />
    <glyph glyph-name="three.sinf" unicode="&#xf817;" horiz-adv-x="843" 
d="M438 -117q131 0 131 107t-129 104h-86v164h88q55 0 84 28t29 70q0 95 -117 95q-53 0 -88 -26t-47 -97l-192 26q23 115 99 188q78 72 236 72t232 -68t74 -176q0 -107 -113 -182q67 -28 99 -80t32 -110q0 -125 -76 -202t-248 -77t-264 99q-69 76 -76 209h193
q15 -144 139 -144z" />
    <glyph glyph-name="four.sinf" unicode="&#xf818;" horiz-adv-x="843" 
d="M426 84v254l-188 -254h188zM621 580v-496h106l-20 -164h-86v-166h-195v166h-393v129l399 531h189z" />
    </font>
</defs>
</svg>
