<?xml version="1.0" standalone="no"?>
<!DOCTYPE svg PUBLIC "-//W3C//DTD SVG 1.1//EN" "http://www.w3.org/Graphics/SVG/1.1/DTD/svg11.dtd" >
<svg xmlns="http://www.w3.org/2000/svg">
<metadata>
Created by FontPrep 20130207 at Wed Feb  4 14:42:11 2015
 By Brian Tretcher
Copyright (c) 2010 Dalton Maag Ltd. All rights reserved. This font may not be altered in any way without prior permission of Dalton Maag Ltd.
</metadata>
<defs>
<font id="d800ee806eac1949e77306c7deb9d2bf" horiz-adv-x='1024' >
  <font-face 
    font-family="AktivGroteskCorp-Light"
    font-weight="300"
    font-stretch="normal"
    units-per-em="2048"
    panose-1="2 11 3 4 2 2 2 2 2 4"
    ascent="1638"
    descent="-410"
    x-height="1055"
    cap-height="1462"
    bbox="-350 -446 2556 1896"
    underline-thickness="114"
    underline-position="-158"
    unicode-range="U+0008-FB04"
  />
<missing-glyph horiz-adv-x="1024" 
d="M819 102v1332h-614v-1332h614zM102 0v1536h820v-1536h-820z" />
    <glyph glyph-name="f_f" unicode="ff" horiz-adv-x="1265" 
d="M500 1374q-70 0 -124 -42t-54 -152v-125h280v-99h-280v-956h-119v956h-164v99h164v121q0 147 83 224t212 79q84 0 155 -23l-24 -100q-59 18 -129 18zM1133 1374q-70 0 -124 -42t-55 -152v-125h281v-99h-281v-956h-118v956h-164v99h164v121q0 147 83 224t189 78
q105 1 178 -22l-24 -100q-59 18 -129 18z" />
    <glyph glyph-name="f_i" unicode="fi" horiz-adv-x="1050" 
d="M500 1374q-70 0 -124 -42t-54 -152v-125h280v-99h-280v-956h-119v956h-164v99h164v121q0 147 83 224t212 79q84 0 155 -23l-24 -100q-59 18 -129 18zM774 1462h135v-178h-135v178zM782 1055h119v-1055h-119v1055z" />
    <glyph glyph-name="f_l" unicode="fl" horiz-adv-x="1050" 
d="M500 1374q-70 0 -124 -42t-54 -152v-125h280v-99h-280v-956h-119v956h-164v99h164v121q0 147 83 224t212 79q84 0 155 -23l-24 -100q-59 18 -129 18zM782 1462h119v-1462h-119v1462z" />
    <glyph glyph-name="f_f_i" unicode="ffi" horiz-adv-x="1683" 
d="M500 1374q-70 0 -124 -42t-54 -152v-125h280v-99h-280v-956h-119v956h-164v99h164v121q0 147 83 224t212 79q84 0 155 -23l-24 -100q-59 18 -129 18zM1133 1374q-70 0 -124 -42t-55 -152v-125h281v-99h-281v-956h-118v956h-164v99h164v121q0 147 83 224t189 78
q105 1 178 -22l-24 -100q-59 18 -129 18zM1407 1462h135v-178h-135v178zM1415 1055h119v-1055h-119v1055z" />
    <glyph glyph-name="f_f_l" unicode="ffl" horiz-adv-x="1683" 
d="M500 1374q-70 0 -124 -42t-54 -152v-125h280v-99h-280v-956h-119v956h-164v99h164v121q0 147 83 224t212 79q84 0 155 -23l-24 -100q-59 18 -129 18zM1133 1374q-70 0 -124 -42t-55 -152v-125h281v-99h-281v-956h-118v956h-164v99h164v121q0 147 83 224t189 78
q105 1 178 -22l-24 -100q-59 18 -129 18zM1415 1462h119v-1462h-119v1462z" />
    <glyph glyph-name=".notdef" horiz-adv-x="1024" 
d="M819 102v1332h-614v-1332h614zM102 0v1536h820v-1536h-820z" />
    <glyph glyph-name=".null" horiz-adv-x="0" 
 />
    <glyph glyph-name=".null" horiz-adv-x="0" 
 />
    <glyph glyph-name=".null" horiz-adv-x="0" 
 />
    <glyph glyph-name="nonmarkingreturn" unicode="&#x9;" horiz-adv-x="458" 
 />
    <glyph glyph-name="nonmarkingreturn" unicode="&#xd;" horiz-adv-x="458" 
 />
    <glyph glyph-name="space" unicode=" " horiz-adv-x="458" 
 />
    <glyph glyph-name="exclam" unicode="!" horiz-adv-x="421" 
d="M137 188h148v-188h-148v188zM150 1462h124l-8 -1067h-108z" />
    <glyph glyph-name="quotedbl" unicode="&#x22;" horiz-adv-x="610" 
d="M88 1454h123l-12 -496h-99zM399 1454h123l-14 -496h-96z" />
    <glyph glyph-name="numbersign" unicode="#" 
d="M760 469l74 455h-383l-74 -455h383zM37 379v90h227l78 455h-229v94h245l60 371h112l-63 -371h383l59 371h113l-59 -371h213v-94h-230l-78 -455h232v-90h-246l-61 -379h-113l65 379h-383l-63 -379h-111l62 379h-213z" />
    <glyph glyph-name="dollar" unicode="$" 
d="M305 882q59 -72 246 -100v566q-153 -11 -229 -85t-76 -191q0 -118 59 -190zM961 367q0 168 -88.5 218t-170.5 62l-51 8v-585q156 10 233 92t77 205zM250 1338q119 100 301 112v164h100v-162q198 -11 296.5 -108.5t129.5 -233.5l-108 -27q-39 120 -107 186t-211 79v-578
l27 -4q195 -25 299 -118t104 -286q0 -258 -162.5 -323.5t-267.5 -71.5v-190h-100v190q-199 10 -324 104.5t-143 282.5h111q23 -135 108.5 -204.5t247.5 -79.5v602q-221 29 -320.5 121t-99.5 269q0 176 119 276z" />
    <glyph glyph-name="percent" unicode="%" horiz-adv-x="1818" 
d="M610 0h-125l721 1415h125zM1396.5 55q227.5 0 227.5 337t-227.5 337t-227.5 -337t227.5 -337zM1741 393q0 -223 -95 -329.5t-250 -106.5t-249 109.5t-94 325.5t94 326.5t250 110.5q243 0 293.5 -162.5t50.5 -273.5zM422 674q227 0 227 337t-227 337t-227 -337t227 -337z
M422 575q-154 0 -249 109.5t-95 325.5t94 327t250 111q243 0 293.5 -163t50.5 -273q0 -223 -95 -330t-249 -107z" />
    <glyph glyph-name="ampersand" unicode="&#x26;" horiz-adv-x="1265" 
d="M570 1372q-94 0 -145.5 -54t-51.5 -148t41 -159t102 -139q117 63 186.5 130.5t69.5 167.5q0 101 -54 151.5t-148 50.5zM205 349.5q0 -109.5 85 -194.5t295 -85t333 157l-441 518q-129 -75 -178 -129.5t-71.5 -105.5t-22.5 -160.5zM78 396q0 205 133 297.5t201 127.5
q-158 180 -158 344q0 129 90 215t233 86q142 0 224 -82t82 -212t-74 -206t-227 -167l397 -469q58 136 68 332h118q-7 -220 -112 -420l211 -242h-148l-127 150q-153 -183 -417 -183t-379 112t-115 317z" />
    <glyph glyph-name="quotesingle" unicode="'" horiz-adv-x="299" 
d="M88 1454h123l-12 -496h-99z" />
    <glyph glyph-name="parenleft" unicode="(" horiz-adv-x="499" 
d="M123 624.5q0 241.5 58.5 471t174.5 407.5h113q-117 -211 -165 -427t-48 -451.5t48 -451.5t165 -427h-113q-117 178 -175 407.5t-58 471z" />
    <glyph glyph-name="parenright" unicode=")" horiz-adv-x="499" 
d="M244 752.5q0 363.5 -213 750.5h112q117 -178 175.5 -407.5t58.5 -471t-58.5 -471t-175.5 -407.5h-112q117 211 165 427t48 579.5z" />
    <glyph glyph-name="asterisk" unicode="*" horiz-adv-x="770" 
d="M319 1110l-245 82l49 108l221 -106l-16 268h118l-16 -268l221 106l45 -108l-243 -82l186 -213l-96 -70l-156 226l-156 -226l-96 70z" />
    <glyph glyph-name="plus" unicode="+" 
d="M551 643h-412v109h412v438h111v-438h411v-109h-411v-440h-111v440z" />
    <glyph glyph-name="comma" unicode="," horiz-adv-x="405" 
d="M154 197h139l-96 -398h-101z" />
    <glyph glyph-name="hyphen" unicode="-" horiz-adv-x="800" 
d="M102 653h596v-123h-596v123z" />
    <glyph glyph-name="period" unicode="." horiz-adv-x="407" 
d="M127 190h154v-190h-154v190z" />
    <glyph glyph-name="slash" unicode="/" horiz-adv-x="618" 
d="M475 1503h127l-459 -1503h-127z" />
    <glyph glyph-name="zero" unicode="0" 
d="M894.5 233q88.5 159 88.5 473t-89 474.5t-338 160.5t-289 -243.5t-40 -391.5t19.5 -266t88.5 -242t270 -124t289.5 159zM229 142.5q-133 179.5 -133 560.5t136 566t378 185q367 0 435.5 -277.5t68.5 -562t-132 -468t-376 -183.5t-377 179.5z" />
    <glyph glyph-name="one" unicode="1" 
d="M754 1415v-1415h-123v1290l-355 -215l-51 92l406 248h123z" />
    <glyph glyph-name="two" unicode="2" 
d="M616 1341q-235 0 -288.5 -105.5t-73.5 -166.5l-109 23q62 246 210.5 304t258.5 58q212 0 324.5 -113.5t112.5 -291.5t-108 -331.5t-370 -375.5q-63 -53 -132.5 -113.5t-131.5 -113.5h754l-25 -115h-886v111q72 63 165 146t192 169q228 198 321.5 326.5t93.5 283.5
q0 154 -80 229.5t-228 75.5z" />
    <glyph glyph-name="three" unicode="3" 
d="M936 393q0 291 -320 291h-172v113h172q133 0 211 72.5t78 207.5t-84 199.5t-231 64.5q-228 0 -279 -96t-71 -160l-111 21q80 348 467 348q214 0 322 -102t108 -244q0 -141 -51 -221t-158 -133q242 -94 242 -355q0 -195 -122.5 -315.5t-359.5 -120.5t-343.5 115.5
t-116.5 279.5h114q21 -145 102 -215.5t259 -70.5t261 84t83 237z" />
    <glyph glyph-name="four" unicode="4" 
d="M791 471v784l-568 -784h568zM909 1415v-944h203l-22 -100h-181v-371h-118v371h-697v100l690 944h125z" />
    <glyph glyph-name="five" unicode="5" 
d="M616 797q-206 0 -331 -133h-107l60 751h745v-112h-647l-45 -519q78 61 152.5 88t190.5 27q215 0 323 -125.5t108 -341.5t-121.5 -342.5t-334.5 -126.5q-418 0 -459 371h114q28 -141 107.5 -201.5t237.5 -60.5q157 0 245 91t88 283q0 248 -118.5 299.5t-207.5 51.5z" />
    <glyph glyph-name="six" unicode="6" 
d="M971 434q0 257 -116 311t-198 54q-169 0 -274.5 -98t-97.5 -285q4 -135 92 -240.5t248 -105.5q159 0 252.5 98t93.5 266zM256 682q138 219 400 219q233 0 335.5 -131t102.5 -337t-130 -338t-343 -132q-267 0 -374.5 187t-107.5 452q0 852 523 852q186 0 276 -80t125 -221
l-107 -27q-41 122 -102.5 169.5t-201.5 47.5q-174 0 -279.5 -146t-116.5 -515z" />
    <glyph glyph-name="seven" unicode="7" 
d="M92 1303v112h944v-112q-352 -655 -526 -1303h-137q208 708 532 1303h-813z" />
    <glyph glyph-name="eight" unicode="8" 
d="M225 371q0 -135 91.5 -220t291.5 -85t290.5 85t90.5 223q0 290 -381 290q-301 0 -342 -113.5t-41 -179.5zM260 1061q0 -289 264 -289t347 73t83 216q0 200 -127 245.5t-261 45.5t-220 -82t-86 -209zM257.5 1345q116.5 109 349.5 109t349.5 -108.5t116.5 -284.5
q0 -135 -67 -220.5t-168 -113.5q173 -44 226.5 -156t53.5 -201t-31.5 -164t-95 -129t-160 -84t-283.5 -30t-319.5 111t-132.5 299q0 146 91 235t192 111q-96 26 -167 115.5t-71 245.5t116.5 265z" />
    <glyph glyph-name="nine" unicode="9" 
d="M233 983q0 -362 324 -362q154 0 253 90.5t99 251.5t-83.5 273t-246.5 112t-254.5 -98.5t-91.5 -266.5zM544 70q108 0 179.5 32.5t143 147t71.5 485.5q-135 -221 -397 -221q-225 0 -327.5 132.5t-102.5 339.5t129.5 337.5t339.5 130.5q261 0 369 -194t108 -448t-29.5 -424
t-138 -297.5t-326.5 -127.5q-375 0 -416 322h119q27 -121 98.5 -168t179.5 -47z" />
    <glyph glyph-name="colon" unicode=":" horiz-adv-x="407" 
d="M127 1055h154v-191h-154v191zM127 190h154v-190h-154v190z" />
    <glyph glyph-name="semicolon" unicode=";" horiz-adv-x="407" 
d="M154 197h139l-96 -398h-101zM127 1055h154v-191h-154v191z" />
    <glyph glyph-name="less" unicode="&#x3c;" 
d="M162 739l909 437v-121l-770 -359l770 -356v-127l-909 436v90z" />
    <glyph glyph-name="equal" unicode="=" 
d="M166 524h881v-112h-881v112zM166 983h881v-113h-881v113z" />
    <glyph glyph-name="greater" unicode="&#x3e;" 
d="M141 338l764 352l-764 365v121l910 -437v-90l-910 -436v125z" />
    <glyph glyph-name="question" unicode="?" horiz-adv-x="1013" 
d="M399 188h152v-188h-152v188zM416 418q0 166 100 261t143 139t84 109.5t44 179.5t-67.5 193.5t-218.5 79.5t-225 -66.5t-114 -201.5l-109 21q51 239 194 296.5t249 57.5q198 0 304.5 -106.5t106.5 -274.5q0 -121 -47.5 -205t-101.5 -135q-117 -110 -170 -179t-53 -169v-23
h-119v23z" />
    <glyph glyph-name="at" unicode="@" horiz-adv-x="1898" 
d="M964 825q-146 0 -246 -122.5t-100 -335.5q0 -147 66 -218t152 -71q141 0 223 82q55 55 83.5 121.5t45.5 158.5l8 45q31 181 -63 283q-57 57 -169 57zM1264 201q0 -119 122 -119q140 0 230 132.5t90 381.5q0 297 -196.5 474t-522.5 177q-174 0 -317.5 -62.5t-301 -239.5
t-157.5 -560q0 -330 202 -520.5t518 -190.5t409.5 78t132.5 125h131q-107 -161 -265.5 -234t-414.5 -73q-362 0 -599 216t-237 589q0 336 136.5 555t342 321.5t401.5 102.5q380 0 618.5 -196.5t238.5 -536.5q0 -293 -123.5 -461t-320.5 -168t-218 160q-127 -172 -325 -172
q-156 0 -249 107.5t-93 250.5q0 268 134.5 427t335.5 159q200 0 285 -166q0 2 29 141h109l-121 -663q-4 -20 -4 -35z" />
    <glyph glyph-name="A" unicode="A" horiz-adv-x="1353" 
d="M973 561l-301 764l-297 -764h598zM604 1462h148l577 -1462h-135l-176 446h-688l-174 -446h-131z" />
    <glyph glyph-name="B" unicode="B" horiz-adv-x="1277" 
d="M666 111q317 0 353 112.5t36 179.5q0 150 -90.5 228t-292.5 78h-381v-598h375zM649 821q190 0 277.5 68.5t87.5 204t-87 198t-300 62.5h-336v-533h358zM1186 414q0 -295 -186.5 -354.5t-329.5 -59.5h-502v1462h463q282 0 394 -97t112 -265q0 -111 -51.5 -193t-172.5 -133
q273 -94 273 -360z" />
    <glyph glyph-name="C" unicode="C" horiz-adv-x="1452" 
d="M754 -37q-290 0 -464.5 200.5t-174.5 563.5t182.5 567.5t456.5 204.5q366 0 453 -183t112 -284l-119 -26q-50 195 -150.5 290t-295.5 95q-236 0 -373 -184t-137 -477t133 -474.5t381 -181.5q317 0 380.5 155.5t78.5 239.5h122q-45 -354 -245.5 -430t-339.5 -76z" />
    <glyph glyph-name="D" unicode="D" horiz-adv-x="1437" 
d="M625 111q567 -1 567 621t-530 622h-369v-1243h332zM168 1462h494q478 0 569.5 -268t91.5 -454q0 -367 -188 -553.5t-519 -186.5h-448v1462z" />
    <glyph glyph-name="E" unicode="E" horiz-adv-x="1204" 
d="M168 1462h919v-112h-794v-537h754v-117h-754v-581h829l-28 -115h-926v1462z" />
    <glyph glyph-name="F" unicode="F" horiz-adv-x="1132" 
d="M168 1462h879v-112h-754v-555h706v-117h-706v-678h-125v1462z" />
    <glyph glyph-name="G" unicode="G" horiz-adv-x="1456" 
d="M1210 610h-417v113h536v-565q-150 -144 -312.5 -169.5t-232.5 -25.5q-314 0 -491.5 199t-177.5 565q0 365 181.5 568.5t467.5 203.5q430 0 534 -399l-116 -27q-44 153 -142 235.5t-276 82.5q-248 0 -384 -182.5t-136 -480.5t137 -476t399 -178t430 129v407z" />
    <glyph glyph-name="H" unicode="H" horiz-adv-x="1411" 
d="M168 1462h125v-647h825v647h125v-1462h-125v698h-825v-698h-125v1462z" />
    <glyph glyph-name="I" unicode="I" horiz-adv-x="460" 
d="M168 1462h125v-1462h-125v1462z" />
    <glyph glyph-name="J" unicode="J" horiz-adv-x="1179" 
d="M547 74q197 0 273.5 106.5t76.5 302.5v979h125v-991q0 -256 -124 -382t-339 -126q-452 0 -508 440h127q47 -329 369 -329z" />
    <glyph glyph-name="K" unicode="K" horiz-adv-x="1302" 
d="M168 1462h125v-764l768 764h149l-542 -547l598 -915h-152l-541 834l-280 -277v-557h-125v1462z" />
    <glyph glyph-name="L" unicode="L" horiz-adv-x="1126" 
d="M168 1462h125v-1345h794l-26 -117h-893v1462z" />
    <glyph glyph-name="M" unicode="M" horiz-adv-x="1716" 
d="M285 0h-117v1462h162l528 -1317l537 1317h153v-1462h-116v1253l-517 -1253h-118l-512 1245v-1245z" />
    <glyph glyph-name="N" unicode="N" horiz-adv-x="1413" 
d="M168 1462h137l819 -1265v1265h121v-1462h-135l-821 1270v-1270h-121v1462z" />
    <glyph glyph-name="O" unicode="O" horiz-adv-x="1548" 
d="M1164.5 1207.5q-138.5 181.5 -393.5 181.5q-254 0 -389.5 -180t-135.5 -480t135.5 -477.5t392.5 -177.5q255 0 392 179.5t137 476t-138.5 478zM115 638.5q0 276.5 50 421t139 242t210 147.5t339.5 50t399.5 -200.5t181 -565.5t-181 -567.5t-476 -202.5q-298 0 -480 199.5
t-182 476z" />
    <glyph glyph-name="P" unicode="P" horiz-adv-x="1267" 
d="M637 700q334 0 367.5 128t33.5 208q0 167 -87 242.5t-316 75.5h-344v-654h346zM168 1462h471q428 0 477 -168t49 -256q0 -204 -118 -325t-412 -121h-344v-592h-123v1462z" />
    <glyph glyph-name="Q" unicode="Q" horiz-adv-x="1548" 
d="M1147 231q156 176 156 486t-138.5 491t-393.5 181q-254 0 -389.5 -180t-135.5 -480t135.5 -477.5t394.5 -177.5q166 0 285 82l-182 217l86 71zM776 -37q-297 0 -479 199.5t-182 565.5t184.5 568.5t478.5 202.5t475 -200.5t181 -576.5t-207 -585l180 -211l-86 -76
l-182 216q-156 -102 -363 -103z" />
    <glyph glyph-name="R" unicode="R" horiz-adv-x="1271" 
d="M643 750q304 0 340.5 119.5t36.5 192.5q0 151 -87.5 221.5t-311.5 70.5h-330v-604h352zM627 1462q520 0 520 -397q0 -291 -266 -387l315 -678h-145l-293 649q-88 -10 -150 -10h-317v-639h-123v1462h459z" />
    <glyph glyph-name="S" unicode="S" horiz-adv-x="1314" 
d="M680 74q298 0 338.5 121t40.5 177q0 121 -60.5 193.5t-240.5 104.5l-183 30q-225 38 -335.5 126.5t-110.5 280.5t147 292t375 100q358 0 432 -141t93 -205l-115 -33q-44 140 -130.5 205.5t-277.5 65.5q-312 0 -355.5 -112t-43.5 -172q0 -124 64 -184t239 -94l207 -36
q224 -40 327 -137.5t103 -278.5t-136 -297.5t-380 -116.5q-384 0 -479 152.5t-107 267.5h123q33 -164 141.5 -236.5t323.5 -72.5z" />
    <glyph glyph-name="T" unicode="T" horiz-adv-x="1208" 
d="M543 1348h-508v114h1139v-114h-506v-1348h-125v1348z" />
    <glyph glyph-name="U" unicode="U" horiz-adv-x="1384" 
d="M1227 573q0 -610 -533 -610q-399 0 -467.5 227.5t-68.5 391.5v880h125v-891q0 -248 96 -372.5t316 -124.5t313.5 122t93.5 375v891h125v-889z" />
    <glyph glyph-name="V" unicode="V" horiz-adv-x="1329" 
d="M29 1462h143l496 -1321l501 1321h131l-567 -1462h-135z" />
    <glyph glyph-name="W" unicode="W" horiz-adv-x="1865" 
d="M27 1462h139l344 -1306l362 1300h136l352 -1298l348 1304h131l-412 -1462h-145l-352 1300l-352 -1300h-138z" />
    <glyph glyph-name="X" unicode="X" horiz-adv-x="1255" 
d="M549 774l-479 688h149l408 -604l411 604h133l-477 -698l533 -764h-150l-461 674l-452 -674h-135z" />
    <glyph glyph-name="Y" unicode="Y" horiz-adv-x="1204" 
d="M668 0h-125v633l-512 829h147l428 -723l436 723h132l-506 -829v-633z" />
    <glyph glyph-name="Z" unicode="Z" horiz-adv-x="1198" 
d="M88 1350v112h1030v-104l-899 -1243h918l-27 -115h-1038v102l901 1248h-885z" />
    <glyph glyph-name="bracketleft" unicode="[" horiz-adv-x="520" 
d="M158 1503h340v-102h-217v-1553h217v-102h-340v1757z" />
    <glyph glyph-name="backslash" unicode="\" horiz-adv-x="618" 
d="M16 1503h127l459 -1503h-127z" />
    <glyph glyph-name="bracketright" unicode="]" horiz-adv-x="520" 
d="M23 -152h217v1553h-217v102h339v-1757h-339v102z" />
    <glyph glyph-name="asciicircum" unicode="^" 
d="M553 1448h106l416 -821h-129l-344 692l-344 -692h-121z" />
    <glyph glyph-name="underscore" unicode="_" horiz-adv-x="1024" 
d="M0 -252h1024v-106h-1024v106z" />
    <glyph glyph-name="grave" unicode="`" horiz-adv-x="776" 
d="M195 1483h159l228 -275h-127z" />
    <glyph glyph-name="a" unicode="a" horiz-adv-x="1075" 
d="M199 295q0 -213 243 -213q162 0 244 65q72 52 99.5 105.5t27.5 153.5v155l-195 -8q-334 -11 -376.5 -103t-42.5 -155zM74 293q0 195 144 269.5t388 84.5l205 8v33q0 156 -60.5 227.5t-215.5 71.5q-203 0 -247 -67.5t-55 -106.5l-108 16q57 258 414 258q311 0 353 -149.5
t42 -243.5v-694h-119v150q-143 -175 -375 -175q-166 0 -266 80t-100 238z" />
    <glyph glyph-name="b" unicode="b" horiz-adv-x="1193" 
d="M258 485q0 -141 24.5 -198.5t51 -89t69.5 -63.5q85 -64 183 -64q182 0 276 112t94 352q0 239 -96 345t-228 106t-213 -60t-121 -141.5t-40 -205.5v-93zM262 0h-119v1462h119v-565q72 90 158 140t205 50q227 0 342.5 -151.5t115.5 -406.5t-127.5 -408.5t-343.5 -153.5
q-217 0 -350 176v-143z" />
    <glyph glyph-name="c" unicode="c" horiz-adv-x="1134" 
d="M600 985q-178 0 -270 -122.5t-92 -391t132 -335t228 -66.5q154 0 224.5 74.5t95.5 199.5h118q-31 -178 -141.5 -277.5t-300.5 -99.5q-231 0 -357 149t-126 406.5t132 411t361 153.5q174 0 277.5 -89t136.5 -250l-115 -29q-56 266 -303 266z" />
    <glyph glyph-name="d" unicode="d" horiz-adv-x="1189" 
d="M934 569q0 137 -24.5 196.5t-97 139.5t-207.5 80q-367 0 -367 -465q0 -238 96 -344t227 -106q132 0 213 60q82 60 121 142t39 205v92zM928 158q-148 -191 -363 -191q-226 0 -340 157.5t-114 409.5t125.5 402.5t341.5 150.5t350 -176v551h119v-1462h-119v158z" />
    <glyph glyph-name="e" unicode="e" horiz-adv-x="1146" 
d="M920 600q0 282 -121 336.5t-209 54.5q-154 0 -246 -96t-111 -295h687zM574 -33q-212 0 -337.5 146.5t-125.5 410.5t132.5 413.5t355.5 149.5q224 0 333.5 -140t109.5 -374v-75h-811q0 -190 94 -311t265 -121q214 0 260.5 81.5t58.5 128.5h115q-25 -137 -131.5 -223
t-318.5 -86z" />
    <glyph glyph-name="f" unicode="f" horiz-adv-x="632" 
d="M500 1374q-70 0 -124 -42t-54 -152v-125h280v-99h-280v-956h-119v956h-164v99h164v121q0 147 84.5 225t210.5 78q76 0 155 -23l-24 -100q-59 18 -129 18z" />
    <glyph glyph-name="g" unicode="g" horiz-adv-x="1187" 
d="M930 569q0 141 -24.5 198.5t-51 89t-70.5 63.5q-88 66 -182 65q-178 0 -273.5 -108.5t-95.5 -327.5t98 -323.5t236 -104.5q68 0 115.5 14.5t109.5 58.5q138 99 138 336v39zM926 1055h118v-1016q0 -213 -109.5 -336t-344.5 -123q-405 0 -445 305h113q23 -104 98.5 -154
t240.5 -50t247 84.5t82 285.5v158q-138 -193 -365 -193q-226 0 -340.5 154.5t-114.5 387.5q0 234 128 381.5t344 147.5t348 -176v144z" />
    <glyph glyph-name="h" unicode="h" horiz-adv-x="1142" 
d="M653 1087q353 0 353 -385v-702h-119v670q0 166 -59.5 238.5t-198.5 72.5t-244 -98q-61 -53 -92 -109.5t-31 -155.5v-618h-119v1462h119v-579q161 204 391 204z" />
    <glyph glyph-name="i" unicode="i" horiz-adv-x="417" 
d="M141 1462h135v-178h-135v178zM150 1055h118v-1055h-118v1055z" />
    <glyph glyph-name="j" unicode="j" horiz-adv-x="417" 
d="M141 1462h135v-178h-135v178zM6 -274q82 0 113 51t31 135v1143h118v-1071q0 -176 -48.5 -270.5t-196.5 -94.5q-113 0 -193 31l25 100q69 -24 151 -24z" />
    <glyph glyph-name="k" unicode="k" horiz-adv-x="1009" 
d="M143 1462h119v-899l543 492h147l-372 -348l419 -707h-143l-369 633l-225 -203v-430h-119v1462z" />
    <glyph glyph-name="l" unicode="l" horiz-adv-x="417" 
d="M150 1462h118v-1462h-118v1462z" />
    <glyph glyph-name="m" unicode="m" horiz-adv-x="1746" 
d="M610 1087q230 0 301 -206q72 98 168.5 152t206.5 54q152 0 238 -81.5t86 -262.5v-743h-119v700q0 227 -82 254t-133 27q-131 0 -227 -82q-113 -90 -113 -223v-676h-119v698q0 154 -53 218.5t-173 64.5t-224.5 -108.5t-104.5 -247.5v-625h-119v1055h119v-174
q154 206 348 206z" />
    <glyph glyph-name="n" unicode="n" horiz-adv-x="1142" 
d="M653 1087q353 0 353 -385v-702h-119v670q0 166 -59.5 238.5t-198.5 72.5t-244 -98q-61 -53 -92 -109.5t-31 -155.5v-618h-119v1055h119v-172q161 204 391 204z" />
    <glyph glyph-name="o" unicode="o" horiz-adv-x="1214" 
d="M111 523q0 255 134.5 409.5t365.5 154.5t362 -150.5t131 -404.5t-134 -409.5t-367 -155.5t-362.5 150.5t-129.5 405.5zM885.5 195q91.5 125 91.5 335q0 315 -134.5 385t-234.5 70t-170.5 -36t-114.5 -97t-64.5 -144t-20.5 -179.5t20.5 -180.5t90 -181t257.5 -97
t279.5 125z" />
    <glyph glyph-name="p" unicode="p" horiz-adv-x="1193" 
d="M258 485q0 -141 24.5 -198.5t51 -89t69.5 -63.5q85 -64 183 -64q182 0 276 112t94 352q0 239 -96 345t-228 106t-213 -60t-121 -141.5t-40 -205.5v-93zM262 -397h-119v1452h119v-158q72 90 158 140t206 50q226 0 341.5 -151.5t115.5 -406.5t-127.5 -408.5t-343.5 -153.5
q-217 0 -350 176v-540z" />
    <glyph glyph-name="q" unicode="q" horiz-adv-x="1191" 
d="M934 569q0 137 -24.5 196.5t-97 139.5t-207.5 80q-367 0 -367 -465q0 -238 96 -344t227 -106q132 0 213 60q82 60 121 142t39 205v92zM928 158q-148 -191 -363 -191q-226 0 -340 157.5t-114 409.5t125.5 402.5t341.5 150.5t350 -176v144h121v-1452h-121v555z" />
    <glyph glyph-name="r" unicode="r" horiz-adv-x="690" 
d="M582 1071q50 0 84 -6l-15 -113q-37 6 -79 6q-114 0 -201 -86q-109 -95 -109 -237v-635h-119v1055h119v-172q132 188 320 188z" />
    <glyph glyph-name="s" unicode="s" horiz-adv-x="1052" 
d="M546 68q153 0 216 57t63 141t-43 133t-178 72l-129 21q-183 31 -269.5 93.5t-86.5 202.5t112 219.5t285 79.5q286 0 341.5 -107.5t70.5 -162.5l-109 -22q-34 100 -96.5 145t-172.5 45t-165 -15.5t-89 -42t-48.5 -61.5t-14.5 -93.5t44 -99t182 -65.5l162 -26
q166 -29 247.5 -99.5t81.5 -209.5t-105 -222.5t-296 -83.5q-308 0 -379.5 119t-79.5 207h117q23 -123 104.5 -174t234.5 -51z" />
    <glyph glyph-name="t" unicode="t" horiz-adv-x="675" 
d="M466 -23q-169 0 -216 93t-47 272v614h-164v99h164v291h119v-291h299v-99h-299v-690q0 -186 147 -186q81 0 156 26l24 -96q-86 -33 -183 -33z" />
    <glyph glyph-name="u" unicode="u" horiz-adv-x="1120" 
d="M139 1055h119v-670q0 -166 52 -238.5t182 -72.5t245 98q59 53 90 109.5t31 154.5v619h119v-1055h-119v172q-166 -205 -383 -205q-180 0 -258 98.5t-78 286.5v703z" />
    <glyph glyph-name="v" unicode="v" horiz-adv-x="1015" 
d="M12 1055h138l358 -926l366 926h130l-426 -1055h-140z" />
    <glyph glyph-name="w" unicode="w" horiz-adv-x="1456" 
d="M18 1055h132l245 -922l269 916h139l262 -916l246 922h127l-310 -1055h-137l-264 922l-266 -922h-137z" />
    <glyph glyph-name="x" unicode="x" horiz-adv-x="978" 
d="M418 561l-357 494h140l291 -414l292 414h129l-348 -498l393 -557h-139l-332 473l-327 -473h-133z" />
    <glyph glyph-name="y" unicode="y" horiz-adv-x="1019" 
d="M335 -255.5q34 35.5 81 144.5l49 125l-453 1041h138l382 -903l342 903h134l-480 -1194q-59 -139 -115.5 -198.5t-153.5 -59.5t-167 24l29 105q58 -23 119 -23t95 35.5z" />
    <glyph glyph-name="z" unicode="z" horiz-adv-x="919" 
d="M61 954v101h797v-101l-670 -854h705l-21 -100h-825v100l670 854h-656z" />
    <glyph glyph-name="braceleft" unicode="{" horiz-adv-x="538" 
d="M207 416q0 76 -28.5 115.5t-112.5 39.5h-5v107h5q84 0 112.5 39t28.5 117v442q0 131 61.5 179t173.5 48h86v-100h-98q-59 0 -80.5 -28.5t-21.5 -82.5v-489q0 -156 -115 -178q115 -23 115 -179v-489q0 -53 21.5 -82t80.5 -29h98v-100h-86q-119 0 -177 50.5t-58 176.5v443z
" />
    <glyph glyph-name="bar" unicode="|" horiz-adv-x="413" 
d="M145 1503h123v-1757h-123v1757z" />
    <glyph glyph-name="braceright" unicode="}" horiz-adv-x="538" 
d="M10 -154h99q59 0 80.5 29t21.5 82v489q0 156 115 179q-115 23 -115 178v489q0 53 -21.5 82t-80.5 29h-99v100h86q113 0 174.5 -48t61.5 -179v-442q0 -76 28.5 -116t112.5 -40h4v-107h-4q-84 0 -112.5 -38.5t-28.5 -116.5v-443q0 -184 -90 -205.5t-146 -21.5h-86v100z" />
    <glyph glyph-name="asciitilde" unicode="~" 
d="M102 541q0 178 74.5 247.5t196.5 69.5q76 0 138 -39t118.5 -86t108.5 -86t122 -39t107 48.5t37 170.5h102q0 -262 -109 -291.5t-171 -29.5t-124.5 40t-119 87t-109.5 87t-121 40t-106.5 -49t-38.5 -170h-105z" />
    <glyph glyph-name="uni00A0" unicode="&#xa0;" horiz-adv-x="458" 
 />
    <glyph glyph-name="exclamdown" unicode="&#xa1;" horiz-adv-x="421" 
d="M137 1055h148v-189h-148v189zM156 659h108l8 -1056h-125z" />
    <glyph glyph-name="cent" unicode="&#xa2;" 
d="M279 705q0 -297 115.5 -371t201.5 -82v909q-168 -23 -242.5 -146.5t-74.5 -309.5zM596 1434h100v-168q158 -10 255.5 -97.5t125.5 -232.5l-114 -27q-20 100 -82 170t-185 84v-911q125 12 189.5 84t87.5 178h121q-29 -160 -129.5 -255t-268.5 -109v-168h-100v168
q-211 14 -327.5 159.5t-116.5 390.5t120 393.5t324 170.5v170z" />
    <glyph glyph-name="sterling" unicode="&#xa3;" 
d="M413.5 303q-18.5 -100 -91.5 -190h802l-24 -113h-907v113q76 78 99 182t23 176t-14 182h-147v105h135q-27 159 -27 264q0 204 121.5 318t302.5 114q271 0 329 -124t72 -187l-108 -29q-37 126 -98 181t-204 55t-217.5 -88.5t-74.5 -228.5q0 -139 23 -275h479v-105h-465
q10 -102 10 -176t-18.5 -174z" />
    <glyph glyph-name="currency" unicode="&#xa4;" 
d="M601 336q85 0 144.5 27.5t97.5 76.5t54 118t16 197t-76 226t-236 98t-238 -100.5t-78 -318t115.5 -271t200.5 -53.5zM160 702q0 198 98 326l-119 129l78 78l121 -131q104 86 268 86t266 -86l123 131l78 -78l-123 -131q88 -127 88 -319t-90 -318l127 -133l-80 -76
l-125 127q-106 -82 -269 -82t-267 76l-117 -121l-80 76l117 125q-94 123 -94 321z" />
    <glyph glyph-name="yen" unicode="&#xa5;" 
d="M164 449h385v163l-43 64h-342v104h280l-385 635h142l409 -704l416 704h127l-381 -635h289v-104h-354l-37 -64v-163h391v-103h-391v-346h-121v346h-385v103z" />
    <glyph glyph-name="brokenbar" unicode="&#xa6;" horiz-adv-x="413" 
d="M145 469h123v-723h-123v723zM145 1503h123v-688h-123v688z" />
    <glyph glyph-name="section" unicode="&#xa7;" horiz-adv-x="1044" 
d="M836 605q0 87 -44.5 141.5t-179.5 93.5l-73 20q-149 38 -234.5 -29.5t-85.5 -183.5q0 -75 45.5 -130.5t177.5 -92.5l50 -14q143 -43 218.5 7t100.5 97t25 91zM221 1200q0 -70 46.5 -120.5t174.5 -84.5l174 -45q176 -45 258 -122.5t82 -213.5q0 -92 -57 -167.5
t-162 -110.5q102 -41 158.5 -107.5t56.5 -177.5q0 -154 -111.5 -226.5t-299.5 -72.5q-305 0 -375 120t-78 208h117q23 -123 101.5 -174t234.5 -51q238 0 264 76.5t26 113.5q0 80 -44 134.5t-175 88.5l-174 49q-174 47 -257 122t-83 210q0 90 57.5 170t166.5 115
q-100 39 -158 97.5t-58 150.5q0 164 118 240.5t310 76.5q339 0 412 -274l-108 -25q-31 94 -98.5 144.5t-215.5 50.5q-303 0 -303 -195z" />
    <glyph glyph-name="dieresis" unicode="&#xa8;" horiz-adv-x="776" 
d="M483 1442h135v-174h-135v174zM156 1442h133v-174h-133v174z" />
    <glyph glyph-name="copyright" unicode="&#xa9;" horiz-adv-x="1581" 
d="M1204 1185q-162 173 -416 173t-415.5 -171.5t-161.5 -455t161.5 -456.5t414.5 -173q254 0 416.5 174t162.5 455t-162 454zM293 1259.5q201 202.5 504 202.5t495.5 -200t192.5 -527.5t-198.5 -531t-500.5 -203.5q-150 0 -278.5 52t-272 201t-143.5 476.5t201 530z
M1016 874q-43 187 -205 187q-151 0 -215 -90t-64 -242q0 -229 95.5 -279.5t165.5 -50.5q195 0 229 197h113q-25 -135 -111 -213t-248 -78t-262 111.5t-100 308.5t104 312.5t279 115.5q137 0 217 -67.5t104 -190.5z" />
    <glyph glyph-name="ordfeminine" unicode="&#xaa;" horiz-adv-x="868" 
d="M207 924q0 -144 172 -144q94 0 157.5 37t81 79t17.5 103v107l-135 -6q-167 -8 -230 -48.5t-63 -127.5zM637 799q-103 -113 -283 -113q-106 0 -183 60.5t-77 175.5q0 207 159 232.5t239 29.5l141 6v16q0 100 -39 153.5t-168 53.5t-158.5 -49t-38.5 -78l-90 14
q41 199 307 199q164 0 230.5 -78t66.5 -213v-503h-106v94z" />
    <glyph glyph-name="guillemotleft" unicode="&#xab;" horiz-adv-x="960" 
d="M485 526l291 453h115l-268 -451l268 -458h-119zM98 526l291 453h115l-268 -451l268 -458h-119z" />
    <glyph glyph-name="logicalnot" unicode="&#xac;" 
d="M127 874h917v-544h-108v438h-809v106z" />
    <glyph glyph-name="uni00AD" unicode="&#xad;" horiz-adv-x="800" 
d="M102 653h596v-123h-596v123z" />
    <glyph glyph-name="registered" unicode="&#xae;" horiz-adv-x="983" 
d="M487.5 705q145.5 0 235.5 93t90 263t-90 263t-235.5 93t-233.5 -93t-88 -263t88 -263t233.5 -93zM486 623q-182 0 -298 118t-116 319q0 200 119.5 319.5t302.5 119.5t298 -117t115 -319q0 -201 -119.5 -320.5t-301.5 -119.5zM494 1090q55 0 68 19t13 44t-17 40t-77 15
h-65v-118h78zM485 1276q174 0 174 -120q0 -52 -15 -77.5t-56 -42.5l90 -174h-92l-78 156h-92v-156h-84v414h153z" />
    <glyph glyph-name="macron" unicode="&#xaf;" horiz-adv-x="776" 
d="M137 1389h500v-105h-500v105z" />
    <glyph glyph-name="degree" unicode="&#xb0;" horiz-adv-x="647" 
d="M324 1006q76 0 122 48t46 128t-46 130t-122 50t-122 -50t-46 -130t46 -128t122 -48zM51 1185q0 116 78.5 192.5t194.5 76.5q115 0 193.5 -76.5t78.5 -192.5t-78 -194t-194 -78t-194.5 78t-78.5 194z" />
    <glyph glyph-name="plusminus" unicode="&#xb1;" 
d="M551 643h-412v109h412v438h111v-438h411v-109h-411v-440h-111v440zM137 111h938v-111h-938v111z" />
    <glyph glyph-name="twosuperior" unicode="&#xb2;" horiz-adv-x="843" 
d="M584 1208q0 62 -40 103t-123 41t-125 -38t-67 -118l-104 18q29 103 94.5 168.5t202.5 65.5t206.5 -69.5t69.5 -176.5t-60.5 -193.5t-183 -182t-157.5 -124.5h410l-23 -98h-553v86q53 47 105.5 87t109.5 89t103.5 88t76 76t44 76.5t14.5 101.5z" />
    <glyph glyph-name="threesuperior" unicode="&#xb3;" horiz-adv-x="843" 
d="M416 664q180 0 180 165q0 154 -170 154h-102v88h102q66 0 110 38t44 110q0 141 -170 141q-92 0 -135.5 -43t-63.5 -109l-96 21q20 88 88.5 153.5t206.5 65.5q137 0 205.5 -60.5t68.5 -144.5t-27.5 -127t-78.5 -78q70 -33 98.5 -83t28.5 -121q0 -115 -71 -187t-224 -72
t-223.5 78.5t-75.5 177.5h96q29 -167 209 -167z" />
    <glyph glyph-name="acute" unicode="&#xb4;" horiz-adv-x="776" 
d="M422 1483h160l-260 -275h-127z" />
    <glyph glyph-name="mu" unicode="&#xb5;" horiz-adv-x="1120" 
d="M258 -399h-119v1454h119v-682q0 -166 61.5 -232.5t180.5 -66.5t238 97q120 97 120 237v647h119v-1055h-119v168q-159 -201 -375 -201q-68 0 -125 14.5t-100 65.5v-446z" />
    <glyph glyph-name="paragraph" unicode="&#xb6;" horiz-adv-x="1193" 
d="M508 645q-237 0 -347 113t-110 295q0 288 194.5 348.5t348.5 60.5h448v-1747h-127v1641h-280v-1641h-127v930z" />
    <glyph glyph-name="periodcentered" unicode="&#xb7;" horiz-adv-x="407" 
d="M127 860h154v-190h-154v190z" />
    <glyph glyph-name="cedilla" unicode="&#xb8;" horiz-adv-x="776" 
d="M453 -248q0 39 -35 55.5t-127 16.5h-25l64 182h94l-39 -106q106 -12 144 -55.5t38 -100.5q0 -92 -67.5 -126t-149.5 -34t-141 8v93q70 -9 125 -9q119 0 119 76z" />
    <glyph glyph-name="onesuperior" unicode="&#xb9;" horiz-adv-x="843" 
d="M530 1419v-815h-118v696l-201 -100l-45 86l244 133h120z" />
    <glyph glyph-name="ordmasculine" unicode="&#xba;" horiz-adv-x="884" 
d="M173 794.5q-99 110.5 -99 294t102 297t270 113.5t266.5 -108.5t98.5 -296.5t-101.5 -299t-269.5 -111t-267 110.5zM637.5 862.5q62.5 84.5 62.5 229.5q0 221 -94 268t-163.5 47t-119 -24.5t-80 -67.5t-45 -100.5t-14.5 -125t14.5 -124t62 -122t181 -65.5t196 84.5z" />
    <glyph glyph-name="guillemotright" unicode="&#xbb;" horiz-adv-x="980" 
d="M338 520l-268 459h118l287 -457l-291 -452h-114zM745 520l-268 459h119l287 -457l-291 -452h-115z" />
    <glyph glyph-name="onequarter" unicode="&#xbc;" horiz-adv-x="1837" 
d="M451 1419v-815h-119v696l-201 -100l-45 86l244 133h121zM582 0h-125l721 1415h125zM1516 297v381l-299 -381h299zM1618 817v-520h106l-20 -90h-86v-205h-102v205h-420v74l422 536h100z" />
    <glyph glyph-name="onehalf" unicode="&#xbd;" horiz-adv-x="1837" 
d="M451 1419v-815h-119v696l-201 -100l-45 86l244 133h121zM535 0h-125l720 1415h125zM1577 606q0 62 -40 103t-123 41t-125 -38t-66 -118l-105 18q29 103 74 148q84 84 222 85t207 -68t70 -176t-60 -194q-61 -88 -274 -253q-32 -25 -67 -54h410l-23 -98h-553v86
q54 47 106 87t109 89t103 88t77 76q30 37 44 76q14 40 14 102z" />
    <glyph glyph-name="threequarters" unicode="&#xbe;" horiz-adv-x="1837" 
d="M705 834q0 -115 -71 -187t-224 -72t-235 92q-59 65 -64 164h96q13 -78 46 -110q59 -57 157 -57q186 0 186 165q0 154 -170 154h-102v88h102q66 0 110 38t44 110q0 141 -170 141q-92 0 -136 -43t-63 -109l-96 21q21 93 79 144q80 75 216 75q138 0 206 -60t68 -144
t-28 -128q-28 -43 -78 -78q127 -60 127 -204zM676 0h-125l721 1415h125zM1516 297v381l-299 -381h299zM1618 817v-520h106l-20 -90h-86v-205h-102v205h-420v74l422 536h100z" />
    <glyph glyph-name="questiondown" unicode="&#xbf;" horiz-adv-x="1009" 
d="M477 1055h152v-189h-152v189zM532 -424q-200 0 -305.5 104t-105.5 273q1 199 149 338q123 115 173.5 180t50.5 166v22h118v-22q0 -166 -100 -260t-143 -138t-84 -108.5t-44 -178.5t67.5 -191.5t218.5 -77.5t225 66.5t114 201.5l109 -21q-51 -240 -194 -297t-249 -57z" />
    <glyph glyph-name="Agrave" unicode="&#xc0;" horiz-adv-x="1353" 
d="M973 561l-301 764l-297 -764h598zM604 1462h148l577 -1462h-135l-176 446h-688l-174 -446h-131zM420 1849h162l227 -264h-129z" />
    <glyph glyph-name="Aacute" unicode="&#xc1;" horiz-adv-x="1353" 
d="M973 561l-301 764l-297 -764h598zM604 1462h148l577 -1462h-135l-176 446h-688l-174 -446h-131zM772 1849h162l-260 -264h-129z" />
    <glyph glyph-name="Acircumflex" unicode="&#xc2;" horiz-adv-x="1353" 
d="M973 561l-301 764l-297 -764h598zM604 1462h148l577 -1462h-135l-176 446h-688l-174 -446h-131zM618 1849h117l230 -264h-125l-164 170l-164 -170h-125z" />
    <glyph glyph-name="Atilde" unicode="&#xc3;" horiz-adv-x="1353" 
d="M973 561l-301 764l-297 -764h598zM604 1462h148l577 -1462h-135l-176 446h-688l-174 -446h-131zM328 1602q0 100 51 157t125 57t113 -18q40 -18 73 -41t65 -41q31 -18 81 -18q89 0 92 117h98q0 -103 -51 -159t-138 -56t-173 58q-33 22 -66 40t-82 18q-50 0 -70 -34
t-20 -80h-98z" />
    <glyph glyph-name="Adieresis" unicode="&#xc4;" horiz-adv-x="1353" 
d="M973 561l-301 764l-297 -764h598zM604 1462h148l577 -1462h-135l-176 446h-688l-174 -446h-131zM774 1806h139v-178h-139v178zM438 1806h137v-178h-137v178z" />
    <glyph glyph-name="Aring" unicode="&#xc5;" horiz-adv-x="1353" 
d="M676 1464q104 0 104 113t-104 113q-47 0 -76 -28t-29 -86t29 -85t76 -27zM973 561l-301 764l-297 -764h598zM481 1563q0 110 58.5 159.5t137.5 49.5t137 -51t58 -146q0 -122 -98 -172l555 -1403h-135l-176 446h-688l-174 -446h-131l555 1401q-99 52 -99 162z" />
    <glyph glyph-name="AE" unicode="&#xc6;" horiz-adv-x="2072" 
d="M1094 625v725h-146l-428 -725h574zM1956 1462v-112h-744v-537h703v-117h-703v-581h779l-29 -115h-868v510h-641l-306 -510h-137l875 1462h1071z" />
    <glyph glyph-name="Ccedilla" unicode="&#xc7;" horiz-adv-x="1452" 
d="M690 -352q137 0 137 82q0 41 -36.5 59t-128.5 18h-27l55 160q-266 21 -420.5 221t-154.5 551t182.5 555.5t456.5 204.5q366 0 453 -183t112 -284l-119 -26q-50 195 -150.5 290t-295.5 95q-236 0 -373 -184t-137 -477t133 -474.5t381 -181.5q317 0 380.5 155.5t78.5 239.5
h122q-47 -346 -235.5 -424t-317.5 -82l-28 -78q111 -12 149.5 -58t38.5 -106q0 -167 -254 -167q-55 0 -117 8v94q66 -8 115 -8z" />
    <glyph glyph-name="Egrave" unicode="&#xc8;" horiz-adv-x="1204" 
d="M168 1462h919v-112h-794v-537h754v-117h-754v-581h829l-28 -115h-926v1462zM397 1849h162l227 -264h-129z" />
    <glyph glyph-name="Eacute" unicode="&#xc9;" horiz-adv-x="1204" 
d="M168 1462h919v-112h-794v-537h754v-117h-754v-581h829l-28 -115h-926v1462zM717 1849h162l-261 -264h-129z" />
    <glyph glyph-name="Ecircumflex" unicode="&#xca;" horiz-adv-x="1204" 
d="M168 1462h919v-112h-794v-537h754v-117h-754v-581h829l-28 -115h-926v1462zM575 1849h117l230 -264h-125l-164 170l-164 -170h-125z" />
    <glyph glyph-name="Edieresis" unicode="&#xcb;" horiz-adv-x="1204" 
d="M168 1462h919v-112h-794v-537h754v-117h-754v-581h829l-28 -115h-926v1462zM731 1806h139v-178h-139v178zM395 1806h137v-178h-137v178z" />
    <glyph glyph-name="Igrave" unicode="&#xcc;" horiz-adv-x="460" 
d="M168 1462h125v-1462h-125v1462zM-45 1849h162l227 -264h-129z" />
    <glyph glyph-name="Iacute" unicode="&#xcd;" horiz-adv-x="460" 
d="M168 1462h125v-1462h-125v1462zM348 1849h162l-260 -264h-129z" />
    <glyph glyph-name="Icircumflex" unicode="&#xce;" horiz-adv-x="460" 
d="M168 1462h125v-1462h-125v1462zM174 1849h117l229 -264h-125l-164 170l-163 -170h-125z" />
    <glyph glyph-name="Idieresis" unicode="&#xcf;" horiz-adv-x="460" 
d="M168 1462h125v-1462h-125v1462zM330 1806h139v-178h-139v178zM-6 1806h137v-178h-137v178z" />
    <glyph glyph-name="Eth" unicode="&#xd0;" horiz-adv-x="1458" 
d="M645 111q567 -1 567 621t-530 622h-369v-543h408v-111h-408v-589h332zM188 700h-168v111h168v651h494q478 0 569.5 -268t91.5 -454q0 -366 -187 -553t-519 -187h-449v700z" />
    <glyph glyph-name="Ntilde" unicode="&#xd1;" horiz-adv-x="1413" 
d="M168 1462h137l819 -1265v1265h121v-1462h-135l-821 1270v-1270h-121v1462zM373 1602q0 100 51 157q50 57 124 57t114 -18t74 -41q32 -23 64 -41t82 -18q89 0 91 117h98q0 -103 -51 -159q-50 -56 -124 -56t-114 18t-74 40q-32 22 -65 40t-82 18q-88 0 -90 -114h-98z" />
    <glyph glyph-name="Ograve" unicode="&#xd2;" horiz-adv-x="1548" 
d="M774 74q255 0 392 179t137 477q0 297 -139 477t-392 181q-254 1 -390 -179t-136 -479q0 -300 136 -478q137 -178 392 -178zM777 -37q-299 0 -480 199q-182 199 -182 565t185 569t478 203q294 0 474 -199t182 -563q0 -190 -50 -335q-97 -284 -344 -388q-121 -50 -263 -51z
M524 1849h162l227 -264h-129z" />
    <glyph glyph-name="Oacute" unicode="&#xd3;" horiz-adv-x="1548" 
d="M774 74q255 0 392 179t137 477q0 297 -139 477t-392 181q-254 1 -390 -179t-136 -479q0 -300 136 -478q137 -178 392 -178zM777 -37q-299 0 -480 199q-182 199 -182 565t185 569t478 203q294 0 474 -199t182 -563q0 -190 -50 -335q-97 -284 -344 -388q-121 -50 -263 -51z
M862 1849h162l-260 -264h-129z" />
    <glyph glyph-name="Ocircumflex" unicode="&#xd4;" horiz-adv-x="1548" 
d="M774 74q255 0 392 179t137 477q0 297 -139 477t-392 181q-254 1 -390 -179t-136 -479q0 -300 136 -478q137 -178 392 -178zM777 -37q-299 0 -480 199q-182 199 -182 565t185 569t478 203q294 0 474 -199t182 -563q0 -190 -50 -335q-97 -284 -344 -388q-121 -50 -263 -51z
M717 1849h117l229 -264h-125l-164 170l-164 -170h-125z" />
    <glyph glyph-name="Otilde" unicode="&#xd5;" horiz-adv-x="1548" 
d="M774 74q255 0 392 179t137 477q0 297 -139 477t-392 181q-254 1 -390 -179t-136 -479q0 -300 136 -478q137 -178 392 -178zM777 -37q-299 0 -480 199q-182 199 -182 565t185 569t478 203q294 0 474 -199t182 -563q0 -190 -50 -335q-97 -284 -344 -388q-121 -50 -263 -51z
M426 1602q0 100 51 157t139 57t172 -59q33 -23 65 -41t82 -18q91 0 91 117h98q0 -103 -51 -159t-125 -56t-113 18q-40 18 -73 40t-66 40q-34 18 -82 18q-88 0 -90 -114h-98z" />
    <glyph glyph-name="Odieresis" unicode="&#xd6;" horiz-adv-x="1548" 
d="M774 74q255 0 392 179t137 477q0 297 -139 477t-392 181q-254 1 -390 -179t-136 -479q0 -300 136 -478q137 -178 392 -178zM777 -37q-299 0 -480 199q-182 199 -182 565t185 569t478 203q294 0 474 -199t182 -563q0 -190 -50 -335q-97 -284 -344 -388q-121 -50 -263 -51z
M872 1806h140v-178h-140v178zM537 1806h137v-178h-137v178z" />
    <glyph glyph-name="multiply" unicode="&#xd7;" 
d="M199 354l336 334l-359 356l74 74l356 -352l357 352l73 -74l-358 -356l336 -334l-74 -78l-334 336l-336 -336z" />
    <glyph glyph-name="Oslash" unicode="&#xd8;" horiz-adv-x="1548" 
d="M776 74q253 0 390 179.5t137 479.5t-142 479l-694 -1046q127 -92 309 -92zM246 724q0 -305 143 -480l692 1046q-127 98 -283 98q-281 1 -416.5 -179t-135.5 -485zM319 139q-204 200 -204 578t184.5 580t476.5 202q213 0 371 -108l110 168l93 -62l-117 -178
q201 -205 201 -578q0 -372 -181 -575t-477 -203q-213 0 -373 107l-108 -164l-90 59z" />
    <glyph glyph-name="Ugrave" unicode="&#xd9;" horiz-adv-x="1384" 
d="M1227 573q0 -610 -533 -610q-399 0 -500 337q-36 118 -36 282v880h125v-891q0 -249 96 -373t317 -124q321 0 384 281q22 93 22 216v891h125v-889zM436 1849h162l227 -264h-129z" />
    <glyph glyph-name="Uacute" unicode="&#xda;" horiz-adv-x="1384" 
d="M1227 573q0 -610 -533 -610q-399 0 -500 337q-36 118 -36 282v880h125v-891q0 -249 96 -373t317 -124q321 0 384 281q22 93 22 216v891h125v-889zM788 1849h162l-260 -264h-129z" />
    <glyph glyph-name="Ucircumflex" unicode="&#xdb;" horiz-adv-x="1384" 
d="M1227 573q0 -610 -533 -610q-399 0 -500 337q-36 118 -36 282v880h125v-891q0 -249 96 -373t317 -124q321 0 384 281q22 93 22 216v891h125v-889zM635 1849h117l229 -264h-125l-164 170l-164 -170h-125z" />
    <glyph glyph-name="Udieresis" unicode="&#xdc;" horiz-adv-x="1384" 
d="M1227 573q0 -610 -533 -610q-399 0 -500 337q-36 118 -36 282v880h125v-891q0 -249 96 -373t317 -124q321 0 384 281q22 93 22 216v891h125v-889zM791 1806h139v-178h-139v178zM455 1806h137v-178h-137v178z" />
    <glyph glyph-name="Yacute" unicode="&#xdd;" horiz-adv-x="1204" 
d="M668 0h-125v633l-512 829h147l428 -723l436 723h132l-506 -829v-633zM696 1849h162l-260 -264h-129z" />
    <glyph glyph-name="Thorn" unicode="&#xde;" horiz-adv-x="1267" 
d="M637 416q334 0 367.5 128t33.5 208q0 166 -87 241.5t-316 75.5h-344v-653h346zM168 1462h123v-284h348q427 0 476.5 -168t49.5 -257q0 -202 -118 -324t-412 -122h-344v-307h-123v1462z" />
    <glyph glyph-name="germandbls" unicode="&#xdf;" horiz-adv-x="1148" 
d="M625 78q178 0 248.5 85t70.5 243t-103 241.5t-280 83.5h-121v105h95q141 0 213.5 75.5t72.5 218.5q0 174 -97 212t-169 38q-141 0 -215 -76.5t-74 -220.5v-1083h-119v1075q0 186 106.5 295t299.5 109t291 -93.5t98 -250.5q0 -250 -205 -332q133 -23 232.5 -127.5
t99.5 -274.5q0 -298 -160.5 -362t-285.5 -64t-220 37l25 101q101 -35 197 -35z" />
    <glyph glyph-name="agrave" unicode="&#xe0;" horiz-adv-x="1075" 
d="M813 406v155l-195 -8q-332 -11 -398 -149q-22 -46 -22 -126t55 -138q54 -58 205 -58t228 65q71 52 99 107q28 54 28 152zM74 293q0 196 165 280q124 64 367 74l205 8v33q0 156 -60 228t-216 71q-205 0 -271 -103q-20 -32 -31 -71l-108 16q57 258 414 258q312 0 374 -226
q20 -73 21 -167v-694h-119v150q-140 -172 -375 -175q-166 0 -266 80t-100 238zM305 1483h160l227 -275h-127z" />
    <glyph glyph-name="aacute" unicode="&#xe1;" horiz-adv-x="1075" 
d="M813 406v155l-195 -8q-332 -11 -398 -149q-22 -46 -22 -126t55 -138q54 -58 205 -58t228 65q71 52 99 107q28 54 28 152zM74 293q0 196 165 280q124 64 367 74l205 8v33q0 156 -60 228t-216 71q-205 0 -271 -103q-20 -32 -31 -71l-108 16q57 258 414 258q312 0 374 -226
q20 -73 21 -167v-694h-119v150q-140 -172 -375 -175q-166 0 -266 80t-100 238zM635 1483h160l-260 -275h-127z" />
    <glyph glyph-name="acircumflex" unicode="&#xe2;" horiz-adv-x="1075" 
d="M813 406v155l-195 -8q-332 -11 -398 -149q-22 -46 -22 -126t55 -138q54 -58 205 -58t228 65q71 52 99 107q28 54 28 152zM74 293q0 196 165 280q124 64 367 74l205 8v33q0 156 -60 228t-216 71q-205 0 -271 -103q-20 -32 -31 -71l-108 16q57 258 414 258q312 0 374 -226
q20 -73 21 -167v-694h-119v150q-140 -172 -375 -175q-166 0 -266 80t-100 238zM481 1483h117l229 -275h-120l-168 185l-168 -185h-121z" />
    <glyph glyph-name="atilde" unicode="&#xe3;" horiz-adv-x="1075" 
d="M813 406v155l-195 -8q-332 -11 -398 -149q-22 -46 -22 -126t55 -138q54 -58 205 -58t228 65q71 52 99 107q28 54 28 152zM74 293q0 196 165 280q124 64 367 74l205 8v33q0 156 -60 228t-216 71q-205 0 -271 -103q-20 -32 -31 -71l-108 16q57 258 414 258q312 0 374 -226
q20 -73 21 -167v-694h-119v150q-140 -172 -375 -175q-166 0 -266 80t-100 238zM186 1241q0 101 52 157t122 56q72 0 111 -18t72 -40t65 -40t79 -18q87 -1 87 112h98q0 -100 -51 -156t-123 -57q-72 0 -110 18q-39 18 -72 40q-32 22 -64 40q-32 19 -80 19t-68 -34t-19 -79h-99
z" />
    <glyph glyph-name="adieresis" unicode="&#xe4;" horiz-adv-x="1075" 
d="M813 406v155l-195 -8q-332 -11 -398 -149q-22 -46 -22 -126t55 -138q54 -58 205 -58t228 65q71 52 99 107q28 54 28 152zM74 293q0 196 165 280q124 64 367 74l205 8v33q0 156 -60 228t-216 71q-205 0 -271 -103q-20 -32 -31 -71l-108 16q57 258 414 258q312 0 374 -226
q20 -73 21 -167v-694h-119v150q-140 -172 -375 -175q-166 0 -266 80t-100 238zM627 1442h135v-174h-135v174zM299 1442h133v-174h-133v174z" />
    <glyph glyph-name="aring" unicode="&#xe5;" horiz-adv-x="1075" 
d="M813 406v155l-195 -8q-332 -11 -398 -149q-22 -46 -22 -126t55 -138q54 -58 205 -58t228 65q71 52 99 107q28 54 28 152zM74 293q0 196 165 280q124 64 367 74l205 8v33q0 156 -60 228t-216 71q-205 0 -271 -103q-20 -32 -31 -71l-108 16q57 258 414 258q312 0 374 -226
q20 -73 21 -167v-694h-119v150q-140 -172 -375 -175q-166 0 -266 80t-100 238zM532 1286q47 0 75 28t28 85t-28 85t-75 28q-46 0 -74 -28t-28 -85t28 -85t74 -28zM340 1399q0 96 57 145t135 49q130 0 179 -110q16 -37 16 -85t-16 -84q-46 -104 -179 -108q-78 0 -135 48
t-57 145z" />
    <glyph glyph-name="ae" unicode="&#xe6;" horiz-adv-x="1822" 
d="M1595 600q0 281 -118.5 336t-204.5 55q-150 0 -240 -96t-110 -295h673zM199 278q0 -80 55 -138t198 -58t226 65q75 54 99 110t24 149v155l-195 -8q-225 -8 -295.5 -55t-91 -93.5t-20.5 -126.5zM891 885q133 202 372 202t347 -140.5t108 -373.5v-75h-798q0 -190 93.5 -311
t258.5 -121q208 0 254.5 81.5t58.5 128.5h115q-25 -137 -130.5 -223t-313.5 -86t-288.5 98.5t-103.5 147.5q-86 -159 -209 -198.5t-209 -39.5q-171 0 -271.5 82t-100.5 236q0 195 140.5 269.5t379.5 84.5l205 8v33q0 159 -58.5 229t-208.5 70q-149 0 -213.5 -48t-85.5 -126
l-108 16q57 258 407 258q158 0 241 -52t118 -150z" />
    <glyph glyph-name="ccedilla" unicode="&#xe7;" horiz-adv-x="1134" 
d="M514 -324q119 0 119 76q0 39 -35 55.5t-127 16.5h-25l52 151q-186 29 -286.5 172.5t-100.5 387.5t132 398t361 154q174 0 277.5 -89t136.5 -250l-115 -29q-56 266 -303 266q-178 0 -270 -122.5t-92 -391t132 -335t228 -66.5q154 0 224.5 74.5t95.5 199.5h118
q-31 -178 -141.5 -277.5t-300.5 -99.5h-4l-25 -67q106 -12 144.5 -55.5t38.5 -100.5q0 -92 -68 -126t-151 -34t-140 8v93q69 -9 125 -9z" />
    <glyph glyph-name="egrave" unicode="&#xe8;" horiz-adv-x="1146" 
d="M920 600q0 282 -179 363q-63 29 -151 28q-154 0 -246 -96t-111 -295h687zM575 -33q-212 1 -338 147t-126 410t134 415q134 150 356 149t333 -142q110 -141 108 -373v-75h-811q0 -188 95 -311t264 -121q270 0 319 210h115q-25 -137 -131 -223t-318 -86zM340 1483h160
l227 -275h-127z" />
    <glyph glyph-name="eacute" unicode="&#xe9;" horiz-adv-x="1146" 
d="M920 600q0 282 -179 363q-63 29 -151 28q-154 0 -246 -96t-111 -295h687zM575 -33q-212 1 -338 147t-126 410t134 415q134 150 356 149t333 -142q110 -141 108 -373v-75h-811q0 -188 95 -311t264 -121q270 0 319 210h115q-25 -137 -131 -223t-318 -86zM688 1483h160
l-260 -275h-127z" />
    <glyph glyph-name="ecircumflex" unicode="&#xea;" horiz-adv-x="1146" 
d="M920 600q0 282 -179 363q-63 29 -151 28q-154 0 -246 -96t-111 -295h687zM575 -33q-212 1 -338 147t-126 410t134 415q134 150 356 149t333 -142q110 -141 108 -373v-75h-811q0 -188 95 -311t264 -121q270 0 319 210h115q-25 -137 -131 -223t-318 -86zM524 1483h117
l229 -275h-120l-168 185l-168 -185h-121z" />
    <glyph glyph-name="edieresis" unicode="&#xeb;" horiz-adv-x="1146" 
d="M920 600q0 282 -179 363q-63 29 -151 28q-154 0 -246 -96t-111 -295h687zM575 -33q-212 1 -338 147t-126 410t134 415q134 150 356 149t333 -142q110 -141 108 -373v-75h-811q0 -188 95 -311t264 -121q270 0 319 210h115q-25 -137 -131 -223t-318 -86zM678 1442h135v-174
h-135v174zM350 1442h133v-174h-133v174z" />
    <glyph glyph-name="igrave" unicode="&#xec;" horiz-adv-x="417" 
d="M150 1055h118v-1055h-118v1055zM-96 1483h159l228 -275h-127z" />
    <glyph glyph-name="iacute" unicode="&#xed;" horiz-adv-x="417" 
d="M150 1055h118v-1055h-118v1055zM362 1483h160l-260 -275h-127z" />
    <glyph glyph-name="icircumflex" unicode="&#xee;" horiz-adv-x="417" 
d="M150 1055h118v-1055h-118v1055zM154 1483h116l230 -275h-121l-168 185l-168 -185h-121z" />
    <glyph glyph-name="idieresis" unicode="&#xef;" horiz-adv-x="417" 
d="M150 1055h118v-1055h-118v1055zM307 1442h135v-174h-135v174zM-20 1442h133v-174h-133v174z" />
    <glyph glyph-name="eth" unicode="&#xf0;" horiz-adv-x="1214" 
d="M977 528q0 152 -80 248q-102 127 -290 127t-278.5 -120.5t-90.5 -295t90.5 -295t278.5 -120.5t279 118.5t91 298.5v39zM1104 557q0 -274 -134.5 -432t-365 -158t-362 144t-131.5 370q0 225 136.5 375t352.5 150q119 0 194.5 -34t145.5 -100q-60 292 -301 418l-162 -160
l-69 70l131 131q-117 41 -269 51l21 101q191 -17 327 -72l136 133l69 -71l-110 -109q391 -224 391 -807z" />
    <glyph glyph-name="ntilde" unicode="&#xf1;" horiz-adv-x="1142" 
d="M653 1087q353 0 353 -385v-702h-119v670q1 166 -59 238t-189 73q-145 1 -257 -99q-58 -52 -89 -108t-31 -156v-618h-119v1055h119v-172q161 204 391 204zM248 1241q0 101 51 157t123 56t110 -18q39 -18 72 -40t65 -40q31 -18 79 -18q85 -1 88 112h98q0 -100 -51 -156
t-123 -57q-72 0 -111 18t-71 40t-65 40q-32 19 -80 19q-84 1 -87 -113h-98z" />
    <glyph glyph-name="ograve" unicode="&#xf2;" horiz-adv-x="1214" 
d="M973 937q131 -152 131 -405t-134 -410q-134 -155 -368 -155q-117 0 -208 39q-178 76 -250 287q-34 102 -34 230q0 129 36 233q72 211 257 292q92 40 207 40q232 -2 363 -151zM607 985q-190 0 -284 -133q-85 -118 -85 -326t85 -323q96 -133 284 -133t284 133
q84 114 86 327q0 316 -201 419q-70 36 -169 36zM362 1483h160l228 -275h-127z" />
    <glyph glyph-name="oacute" unicode="&#xf3;" horiz-adv-x="1214" 
d="M973 937q131 -152 131 -405t-134 -410q-134 -155 -368 -155q-117 0 -208 39q-178 76 -250 287q-34 102 -34 230q0 129 36 233q72 211 257 292q92 40 207 40q232 -2 363 -151zM607 985q-190 0 -284 -133q-85 -118 -85 -326t85 -323q96 -133 284 -133t284 133
q84 114 86 327q0 316 -201 419q-70 36 -169 36zM723 1483h160l-260 -275h-127z" />
    <glyph glyph-name="ocircumflex" unicode="&#xf4;" horiz-adv-x="1214" 
d="M973 937q131 -152 131 -405t-134 -410q-134 -155 -368 -155q-117 0 -208 39q-178 76 -250 287q-34 102 -34 230q0 129 36 233q72 211 257 292q92 40 207 40q232 -2 363 -151zM607 985q-190 0 -284 -133q-85 -118 -85 -326t85 -323q96 -133 284 -133t284 133
q84 114 86 327q0 316 -201 419q-70 36 -169 36zM549 1483h117l229 -275h-121l-168 185l-168 -185h-121z" />
    <glyph glyph-name="otilde" unicode="&#xf5;" horiz-adv-x="1214" 
d="M973 937q131 -152 131 -405t-134 -410q-134 -155 -368 -155q-117 0 -208 39q-178 76 -250 287q-34 102 -34 230q0 129 36 233q72 211 257 292q92 40 207 40q232 -2 363 -151zM607 985q-190 0 -284 -133q-85 -118 -85 -326t85 -323q96 -133 284 -133t284 133
q84 114 86 327q0 316 -201 419q-70 36 -169 36zM264 1241q0 101 51 157t123 56t111 -18t72 -40t65 -40t79 -18q87 -1 87 112h98q0 -100 -51 -156t-123 -57q-72 0 -110 18q-39 18 -72 40t-65 40q-31 19 -79 19q-85 1 -88 -113h-98z" />
    <glyph glyph-name="odieresis" unicode="&#xf6;" horiz-adv-x="1214" 
d="M973 937q131 -152 131 -405t-134 -410q-134 -155 -368 -155q-117 0 -208 39q-178 76 -250 287q-34 102 -34 230q0 129 36 233q72 211 257 292q92 40 207 40q232 -2 363 -151zM607 985q-190 0 -284 -133q-85 -118 -85 -326t85 -323q96 -133 284 -133t284 133
q84 114 86 327q0 316 -201 419q-70 36 -169 36zM702 1442h136v-174h-136v174zM375 1442h133v-174h-133v174z" />
    <glyph glyph-name="divide" unicode="&#xf7;" 
d="M166 754h881v-113h-881v113zM532 412h146v-176h-146v176zM532 1157h146v-176h-146v176z" />
    <glyph glyph-name="oslash" unicode="&#xf8;" horiz-adv-x="1214" 
d="M596 70q199 0 290 125t91 334t-86 325l-488 -731q83 -53 193 -53zM620 985q-202 0 -292 -125.5t-90 -336.5t90 -328l489 731q-85 59 -197 59zM956 952q148 -148 148 -411t-134 -418.5t-368 -155.5q-152 0 -260 66l-90 -137l-84 57l94 141q-152 147 -152 416t135 423
t365 154q154 0 267 -71l90 135l84 -57z" />
    <glyph glyph-name="ugrave" unicode="&#xf9;" horiz-adv-x="1120" 
d="M139 1055h119v-670q0 -166 52 -239q52 -72 182 -72t245 98q59 54 90 110t31 154v619h119v-1055h-119v172q-166 -205 -383 -205q-180 1 -258 99t-78 286v703zM285 1483h159l228 -275h-127z" />
    <glyph glyph-name="uacute" unicode="&#xfa;" horiz-adv-x="1120" 
d="M139 1055h119v-670q0 -166 52 -239q52 -72 182 -72t245 98q59 54 90 110t31 154v619h119v-1055h-119v172q-166 -205 -383 -205q-180 1 -258 99t-78 286v703zM678 1483h160l-260 -275h-127z" />
    <glyph glyph-name="ucircumflex" unicode="&#xfb;" horiz-adv-x="1120" 
d="M139 1055h119v-670q0 -166 52 -239q52 -72 182 -72t245 98q59 54 90 110t31 154v619h119v-1055h-119v172q-166 -205 -383 -205q-180 1 -258 99t-78 286v703zM504 1483h117l229 -275h-121l-168 185l-168 -185h-121z" />
    <glyph glyph-name="udieresis" unicode="&#xfc;" horiz-adv-x="1120" 
d="M139 1055h119v-670q0 -166 52 -239q52 -72 182 -72t245 98q59 54 90 110t31 154v619h119v-1055h-119v172q-166 -205 -383 -205q-180 1 -258 99t-78 286v703zM653 1442h135v-174h-135v174zM326 1442h133v-174h-133v174z" />
    <glyph glyph-name="yacute" unicode="&#xfd;" horiz-adv-x="1019" 
d="M223 -291q45 0 70 8q44 14 83 85q17 34 40 87l49 125l-453 1041h138l382 -903l342 903h134l-480 -1194q-58 -136 -98 -180q-72 -78 -170 -78t-168 24l29 105q57 -23 102 -23zM606 1483h160l-260 -275h-127z" />
    <glyph glyph-name="thorn" unicode="&#xfe;" horiz-adv-x="1193" 
d="M258 485q0 -141 24.5 -198.5t51 -89t69.5 -63.5q85 -64 183 -64q182 0 276 112t94 352q0 239 -96 345t-228 106t-213 -60t-121 -141.5t-40 -205.5v-93zM262 -397h-119v1859h119v-565q72 90 158 140t206 50q226 0 341.5 -151.5t115.5 -406.5t-127.5 -408.5t-343.5 -153.5
q-217 0 -350 176v-540z" />
    <glyph glyph-name="ydieresis" unicode="&#xff;" horiz-adv-x="1019" 
d="M223 -291q45 0 70 8q44 14 83 85q17 34 40 87l49 125l-453 1041h138l382 -903l342 903h134l-480 -1194q-58 -136 -98 -180q-72 -78 -170 -78t-168 24l29 105q57 -23 102 -23zM606 1442h135v-174h-135v174zM279 1442h133v-174h-133v174z" />
    <glyph glyph-name="Amacron" unicode="&#x100;" horiz-adv-x="1353" 
d="M973 561l-301 764l-297 -764h598zM604 1462h148l577 -1462h-135l-176 446h-688l-174 -446h-131zM387 1743h578v-109h-578v109z" />
    <glyph glyph-name="amacron" unicode="&#x101;" horiz-adv-x="1075" 
d="M813 406v155l-195 -8q-332 -11 -398 -149q-22 -46 -22 -126t55 -138q54 -58 205 -58t228 65q71 52 99 107q28 54 28 152zM74 293q0 196 165 280q124 64 367 74l205 8v33q0 156 -60 228t-216 71q-205 0 -271 -103q-20 -32 -31 -71l-108 16q57 258 414 258q312 0 374 -226
q20 -73 21 -167v-694h-119v150q-140 -172 -375 -175q-166 0 -266 80t-100 238zM274 1389h500v-105h-500v105z" />
    <glyph glyph-name="Abreve" unicode="&#x102;" horiz-adv-x="1353" 
d="M973 561l-301 764l-297 -764h598zM604 1462h148l577 -1462h-135l-176 446h-688l-174 -446h-131zM518 1849q0 -86 44 -130t113 -44t113 44t46 130h100q0 -127 -68 -195t-190 -69q-122 0 -191 69q-68 69 -67 195h100z" />
    <glyph glyph-name="abreve" unicode="&#x103;" horiz-adv-x="1075" 
d="M813 406v155l-195 -8q-332 -11 -398 -149q-22 -46 -22 -126t55 -138q54 -58 205 -58t228 65q71 52 99 107q28 54 28 152zM74 293q0 196 165 280q124 64 367 74l205 8v33q0 156 -60 228t-216 71q-205 0 -271 -103q-20 -32 -31 -71l-108 16q57 258 414 258q312 0 374 -226
q20 -73 21 -167v-694h-119v150q-140 -172 -375 -175q-166 0 -266 80t-100 238zM373 1475q0 -89 45 -135q46 -46 114 -46t114 45t46 136h99q0 -127 -68 -198t-191 -71q-122 0 -190 71t-68 198h99z" />
    <glyph glyph-name="Aogonek" unicode="&#x104;" horiz-adv-x="1353" 
d="M973 561l-301 764l-297 -764h598zM1284 -362q-205 0 -205 159q0 98 125 203h-10l-176 446h-688l-174 -446h-131l579 1462h148l577 -1462q-131 -104 -131 -184q0 -47 28 -62.5t54 -15.5h22q21 0 37 2v-98q-16 -4 -19 -4h-36z" />
    <glyph glyph-name="aogonek" unicode="&#x105;" horiz-adv-x="1075" 
d="M199 295q0 -213 243 -213q162 0 244 65q72 52 99.5 105.5t27.5 153.5v155l-195 -8q-334 -11 -376.5 -103t-42.5 -155zM807 -180q1 -76 81 -76h21q21 0 37 2v-94q-16 -4 -20 -4h-35q-201 0 -201 153q0 106 125 199v150q-143 -175 -375 -175q-166 0 -266 80t-100 238
q0 195 144 269.5t388 84.5l205 8v33q0 156 -60.5 227.5t-215.5 71.5q-203 0 -247 -67.5t-55 -106.5l-108 16q57 258 414 258q311 0 353 -149.5t42 -243.5v-694h-2q-125 -98 -125 -180z" />
    <glyph glyph-name="Cacute" unicode="&#x106;" horiz-adv-x="1452" 
d="M754 1499q369 0 499 -280q41 -86 66 -187l-119 -26q-50 195 -151 290t-295 95q-235 1 -372 -183q-138 -184 -138 -476t134 -475t380 -183q319 0 414 238q30 73 45 157h122q-29 -229 -177 -368q-148 -138 -423 -138t-449 200t-175 563q0 363 183 568t456 205zM840 1849
h161l-260 -264h-129z" />
    <glyph glyph-name="cacute" unicode="&#x107;" horiz-adv-x="1134" 
d="M600 985q-181 0 -276 -130q-86 -115 -86 -327q0 -321 195 -424q69 -35 165 -34q154 0 224 74t96 200h118q-32 -178 -142 -277t-300 -100q-343 0 -451 324q-33 102 -32 231q0 258 132 413q132 154 361 152q174 0 278 -89t136 -250l-115 -29q-56 266 -303 266zM694 1483
h160l-260 -275h-127z" />
    <glyph glyph-name="Ccircumflex" unicode="&#x108;" horiz-adv-x="1452" 
d="M754 1499q369 0 499 -280q41 -86 66 -187l-119 -26q-50 195 -151 290t-295 95q-235 1 -372 -183q-138 -184 -138 -476t134 -475t380 -183q319 0 414 238q30 73 45 157h122q-29 -229 -177 -368q-148 -138 -423 -138t-449 200t-175 563q0 363 183 568t456 205zM705 1849
h116l230 -264h-125l-164 170l-164 -170h-125z" />
    <glyph glyph-name="ccircumflex" unicode="&#x109;" horiz-adv-x="1134" 
d="M600 985q-181 0 -276 -130q-86 -115 -86 -327q0 -321 195 -424q69 -35 165 -34q154 0 224 74t96 200h118q-32 -178 -142 -277t-300 -100q-343 0 -451 324q-33 102 -32 231q0 258 132 413q132 154 361 152q174 0 278 -89t136 -250l-115 -29q-56 266 -303 266zM545 1483
h117l229 -275h-121l-168 185l-168 -185h-121z" />
    <glyph glyph-name="Cdotaccent" unicode="&#x10a;" horiz-adv-x="1452" 
d="M754 1499q369 0 499 -280q41 -86 66 -187l-119 -26q-50 195 -151 290t-295 95q-235 1 -372 -183q-138 -184 -138 -476t134 -475t380 -183q319 0 414 238q30 73 45 157h122q-29 -229 -177 -368q-148 -138 -423 -138t-449 200t-175 563q0 363 183 568t456 205zM692 1808
h139v-182h-139v182z" />
    <glyph glyph-name="cdotaccent" unicode="&#x10b;" horiz-adv-x="1134" 
d="M600 985q-181 0 -276 -130q-86 -115 -86 -327q0 -321 195 -424q69 -35 165 -34q154 0 224 74t96 200h118q-32 -178 -142 -277t-300 -100q-343 0 -451 324q-33 102 -32 231q0 258 132 413q132 154 361 152q174 0 278 -89t136 -250l-115 -29q-56 266 -303 266zM535 1444
h135v-178h-135v178z" />
    <glyph glyph-name="Ccaron" unicode="&#x10c;" horiz-adv-x="1452" 
d="M754 1499q369 0 499 -280q41 -86 66 -187l-119 -26q-50 195 -151 290t-295 95q-235 1 -372 -183q-138 -184 -138 -476t134 -475t380 -183q319 0 414 238q30 73 45 157h122q-29 -229 -177 -368q-148 -138 -423 -138t-449 200t-175 563q0 363 183 568t456 205zM473 1855
h127l164 -172l164 172h123l-230 -264h-116z" />
    <glyph glyph-name="ccaron" unicode="&#x10d;" horiz-adv-x="1134" 
d="M600 985q-181 0 -276 -130q-86 -115 -86 -327q0 -321 195 -424q69 -35 165 -34q154 0 224 74t96 200h118q-32 -178 -142 -277t-300 -100q-343 0 -451 324q-33 102 -32 231q0 258 132 413q132 154 361 152q174 0 278 -89t136 -250l-115 -29q-56 266 -303 266zM657 1212
h-116l-230 275h121l168 -184l168 184h121z" />
    <glyph glyph-name="Dcaron" unicode="&#x10e;" horiz-adv-x="1437" 
d="M662 1354h-369v-1243h332q567 -1 567 621t-530 622zM168 1462h494q478 0 615 -401q46 -135 46 -321q0 -364 -187 -552t-520 -188h-448v1462zM326 1855h127l163 -172l164 172h123l-229 -264h-117z" />
    <glyph glyph-name="dcaron" unicode="&#x10f;" horiz-adv-x="1189" 
d="M934 569q0 202 -76 286t-143 107q-69 23 -137 23q-239 0 -314 -250q-26 -88 -26 -216t30 -215q56 -166 182 -213q108 -41 231 -7q51 14 113 60q140 103 140 333v92zM928 158q-148 -191 -363 -191q-226 0 -341 159t-113 390q0 270 126 421t342 151t349 -177v551h119v-1462
h-119v158zM1231 1462h125l-78 -372h-98z" />
    <glyph glyph-name="Dcroat" unicode="&#x110;" horiz-adv-x="1458" 
d="M682 1354h-369v-543h408v-111h-408v-589h332q567 -1 567 621t-530 622zM188 700h-168v111h168v651h494q478 0 615 -401q46 -135 46 -321q0 -364 -187 -552t-519 -188h-449v700z" />
    <glyph glyph-name="dcroat" unicode="&#x111;" 
d="M934 528q0 139 -24.5 197.5t-53 89.5t-70.5 63q-90 66 -183 66q-177 0 -271 -111.5t-94 -332.5t96.5 -325.5t227.5 -104.5t212 60q82 60 121 138t39 189v71zM928 158q-148 -191 -363 -191q-224 0 -339 154.5t-115 389.5t127 385.5t341 150.5q215 0 349 -177v332h-359v103
h359v157h119v-157h145v-103h-145v-1202h-119v158z" />
    <glyph glyph-name="Emacron" unicode="&#x112;" horiz-adv-x="1204" 
d="M168 1462h919v-112h-794v-537h754v-117h-754v-581h829l-28 -115h-926v1462zM344 1743h578v-109h-578v109z" />
    <glyph glyph-name="emacron" unicode="&#x113;" horiz-adv-x="1146" 
d="M920 600q0 282 -179 363q-63 29 -151 28q-154 0 -246 -96t-111 -295h687zM575 -33q-212 1 -338 147t-126 410t134 415q134 150 356 149t333 -142q110 -141 108 -373v-75h-811q0 -188 95 -311t264 -121q270 0 319 210h115q-25 -137 -131 -223t-318 -86zM342 1389h500v-105
h-500v105z" />
    <glyph glyph-name="Ebreve" unicode="&#x114;" horiz-adv-x="1204" 
d="M168 1462h919v-112h-794v-537h754v-117h-754v-581h829l-28 -115h-926v1462zM475 1849q0 -86 44 -130t113 -44q70 0 114 44t45 130h100q0 -127 -68 -195q-69 -68 -191 -69q-122 0 -190 69t-67 195h100z" />
    <glyph glyph-name="ebreve" unicode="&#x115;" horiz-adv-x="1146" 
d="M920 600q0 282 -179 363q-63 29 -151 28q-154 0 -246 -96t-111 -295h687zM575 -33q-212 1 -338 147t-126 410t134 415q134 150 356 149t333 -142q110 -141 108 -373v-75h-811q0 -188 95 -311t264 -121q270 0 319 210h115q-25 -137 -131 -223t-318 -86zM430 1475
q0 -89 45 -135t114 -46t115 45t46 136h98q0 -127 -68 -198t-190 -71t-191 71q-68 71 -67 198h98z" />
    <glyph glyph-name="Edotaccent" unicode="&#x116;" horiz-adv-x="1204" 
d="M168 1462h919v-112h-794v-537h754v-117h-754v-581h829l-28 -115h-926v1462zM563 1808h139v-182h-139v182z" />
    <glyph glyph-name="edotaccent" unicode="&#x117;" horiz-adv-x="1146" 
d="M920 600q0 282 -179 363q-63 29 -151 28q-154 0 -246 -96t-111 -295h687zM575 -33q-212 1 -338 147t-126 410t134 415q134 150 356 149t333 -142q110 -141 108 -373v-75h-811q0 -188 95 -311t264 -121q270 0 319 210h115q-25 -137 -131 -223t-318 -86zM524 1444h135v-178
h-135v178z" />
    <glyph glyph-name="Eogonek" unicode="&#x118;" horiz-adv-x="1204" 
d="M1049 -362q-205 0 -205 159q0 98 125 203h-801v1462h919v-112h-794v-537h754v-117h-754v-581h829l-28 -115q-131 -104 -131 -184q0 -47 27.5 -62.5t53.5 -15.5h22q21 0 38 2v-98q-16 -4 -20 -4h-35z" />
    <glyph glyph-name="eogonek" unicode="&#x119;" horiz-adv-x="1146" 
d="M920 600q0 282 -121 336.5t-209 54.5q-154 0 -246 -96t-111 -295h687zM666 -180q0 -76 80 -76h21q21 0 38 2v-94q-16 -4 -19 -4h-36q-201 0 -201 153q0 84 86 168q-10 -2 -13 -2h-32q-227 0 -353 146.5t-126 410.5t132.5 413.5t355.5 149.5q224 0 333.5 -140t109.5 -374
v-75h-811q0 -190 94 -311t265 -121q214 0 260.5 81.5t58.5 128.5h115q-38 -209 -236 -276q-123 -98 -122 -180z" />
    <glyph glyph-name="Ecaron" unicode="&#x11a;" horiz-adv-x="1204" 
d="M168 1462h919v-112h-794v-537h754v-117h-754v-581h829l-28 -115h-926v1462zM344 1855h127l164 -172l164 172h123l-230 -264h-117z" />
    <glyph glyph-name="ecaron" unicode="&#x11b;" horiz-adv-x="1146" 
d="M920 600q0 282 -179 363q-63 29 -151 28q-154 0 -246 -96t-111 -295h687zM575 -33q-212 1 -338 147t-126 410t134 415q134 150 356 149t333 -142q110 -141 108 -373v-75h-811q0 -188 95 -311t264 -121q270 0 319 210h115q-25 -137 -131 -223t-318 -86zM649 1212h-117
l-229 275h121l168 -184l168 184h121z" />
    <glyph glyph-name="Gcircumflex" unicode="&#x11c;" horiz-adv-x="1456" 
d="M1210 610h-417v113h536v-565q-98 -95 -246 -145q-147 -50 -301 -50q-312 0 -490 199q-177 199 -177 564t182 569t467 204q431 0 534 -399l-116 -27q-42 148 -133 229q-104 89 -285 89q-247 0 -383 -182q-137 -182 -137 -481q0 -298 138 -476t400 -178t428 129v407z
M707 1849h116l230 -264h-125l-164 170l-164 -170h-125z" />
    <glyph glyph-name="gcircumflex" unicode="&#x11d;" horiz-adv-x="1187" 
d="M930 569q0 145 -31 216t-95 119t-112 64t-116 17q-240 0 -316 -239q-27 -82 -27 -200q0 -216 99 -322t235 -103q68 0 115 14q48 14 110 59q138 100 138 336v39zM926 1055h118v-1016q0 -213 -110 -336t-344 -123q-405 0 -445 305h113q22 -104 98 -154t241 -50t247 85
t82 285v158q-137 -191 -364 -192t-341 153q-115 154 -115 388q0 233 128 382t344 148t348 -177v144zM547 1483h117l229 -275h-121l-168 185l-168 -185h-121z" />
    <glyph glyph-name="Gbreve" unicode="&#x11e;" horiz-adv-x="1456" 
d="M1210 610h-417v113h536v-565q-98 -95 -246 -145q-147 -50 -301 -50q-312 0 -490 199q-177 199 -177 564t182 569t467 204q431 0 534 -399l-116 -27q-42 148 -133 229q-104 89 -285 89q-247 0 -383 -182q-137 -182 -137 -481q0 -298 138 -476t400 -178t428 129v407z
M606 1849q0 -86 44 -130t113 -44t114 44t45 130h100q0 -127 -68 -195t-190 -69q-122 0 -191 69q-68 69 -67 195h100z" />
    <glyph glyph-name="gbreve" unicode="&#x11f;" horiz-adv-x="1187" 
d="M930 569q0 145 -31 216t-95 119t-112 64t-116 17q-240 0 -316 -239q-27 -82 -27 -200q0 -216 99 -322t235 -103q68 0 115 14q48 14 110 59q138 100 138 336v39zM926 1055h118v-1016q0 -213 -110 -336t-344 -123q-405 0 -445 305h113q22 -104 98 -154t241 -50t247 85
t82 285v158q-137 -191 -364 -192t-341 153q-115 154 -115 388q0 233 128 382t344 148t348 -177v144zM444 1475q0 -89 45 -135t114 -46t115 45t46 136h98q0 -127 -68 -198t-190 -71t-190 71t-68 198h98z" />
    <glyph glyph-name="Gdotaccent" unicode="&#x120;" horiz-adv-x="1456" 
d="M1210 610h-417v113h536v-565q-98 -95 -246 -145q-147 -50 -301 -50q-312 0 -490 199q-177 199 -177 564t182 569t467 204q431 0 534 -399l-116 -27q-42 148 -133 229q-104 89 -285 89q-247 0 -383 -182q-137 -182 -137 -481q0 -298 138 -476t400 -178t428 129v407z
M694 1808h140v-182h-140v182z" />
    <glyph glyph-name="gdotaccent" unicode="&#x121;" horiz-adv-x="1187" 
d="M930 569q0 145 -31 216t-95 119t-112 64t-116 17q-240 0 -316 -239q-27 -82 -27 -200q0 -216 99 -322t235 -103q68 0 115 14q48 14 110 59q138 100 138 336v39zM926 1055h118v-1016q0 -213 -110 -336t-344 -123q-405 0 -445 305h113q22 -104 98 -154t241 -50t247 85
t82 285v158q-137 -191 -364 -192t-341 153q-115 154 -115 388q0 233 128 382t344 148t348 -177v144zM532 1444h136v-178h-136v178z" />
    <glyph glyph-name="Gcommaaccent" unicode="&#x122;" horiz-adv-x="1456" 
d="M1210 610h-417v113h536v-565q-98 -95 -246 -145q-147 -50 -301 -50q-312 0 -490 199q-177 199 -177 564t182 569t467 204q431 0 534 -399l-116 -27q-42 148 -133 229q-104 89 -285 89q-247 0 -383 -182q-137 -182 -137 -481q0 -298 138 -476t400 -178t428 129v407z
M731 -139h152l-183 -295h-120z" />
    <glyph glyph-name="gcommaaccent" unicode="&#x123;" horiz-adv-x="1187" 
d="M930 569q0 145 -31 216t-95 119t-112 64t-116 17q-240 0 -316 -239q-27 -82 -27 -200q0 -216 99 -322t235 -103q68 0 115 14q48 14 110 59q138 100 138 336v39zM926 1055h118v-1016q0 -213 -110 -336t-344 -123q-405 0 -445 305h113q22 -104 98 -154t241 -50t247 85
t82 285v158q-137 -191 -364 -192t-341 153q-115 154 -115 388q0 233 128 382t344 148t348 -177v144zM684 1483h117l-148 -287h-147z" />
    <glyph glyph-name="Hcircumflex" unicode="&#x124;" horiz-adv-x="1411" 
d="M168 1462h125v-647h825v647h125v-1462h-125v698h-825v-698h-125v1462zM649 1849h117l229 -264h-125l-163 170l-164 -170h-125z" />
    <glyph glyph-name="hcircumflex" unicode="&#x125;" horiz-adv-x="1142" 
d="M653 1087q353 0 353 -385v-702h-119v670q1 166 -59 238t-189 73q-145 1 -257 -99q-58 -52 -89 -108t-31 -156v-618h-119v1462h119v-579q161 204 391 204zM375 1849h117l229 -264h-125l-164 170l-164 -170h-125z" />
    <glyph glyph-name="Hbar" unicode="&#x126;" horiz-adv-x="1452" 
d="M1139 799v284h-826v-284h826zM188 1083h-168v109h168v270h125v-270h826v270h125v-270h168v-109h-168v-1083h-125v682h-826v-682h-125v1083z" />
    <glyph glyph-name="hbar" unicode="&#x127;" horiz-adv-x="1165" 
d="M676 1047q180 0 266 -101.5t86 -283.5v-662h-119v629q0 166 -59 238.5t-188 72.5q-144 0 -256 -100q-57 -51 -89 -108.5t-32 -153.5v-578h-119v1202h-146v103h146v157h119v-157h360v-103h-360v-360q162 205 391 205z" />
    <glyph glyph-name="Itilde" unicode="&#x128;" horiz-adv-x="460" 
d="M168 1462h125v-1462h-125v1462zM-117 1602q0 100 51 157t138 57t174 -59q32 -23 64 -41t82 -18q91 0 91 117h99q0 -103 -52 -159t-124 -56q-74 0 -114 18t-73 40t-65 40t-82 18t-70 -34t-20 -80h-99z" />
    <glyph glyph-name="itilde" unicode="&#x129;" horiz-adv-x="417" 
d="M150 1055h118v-1055h-118v1055zM-131 1241q0 101 51 157q50 56 122 56t112 -18t72 -40t64 -40t80 -18q85 -1 87 112h98q0 -100 -51 -156q-50 -56 -122 -57q-72 0 -112 18t-72 40t-64 40q-32 19 -80 19q-84 1 -87 -113h-98z" />
    <glyph glyph-name="Imacron" unicode="&#x12a;" horiz-adv-x="460" 
d="M168 1462h125v-1462h-125v1462zM-57 1743h577v-109h-577v109z" />
    <glyph glyph-name="imacron" unicode="&#x12b;" horiz-adv-x="417" 
d="M150 1055h118v-1055h-118v1055zM-39 1389h500v-105h-500v105z" />
    <glyph glyph-name="Ibreve" unicode="&#x12c;" horiz-adv-x="460" 
d="M168 1462h125v-1462h-125v1462zM74 1849q0 -86 44 -130t112 -44t114 44q45 44 45 130h100q1 -127 -67 -195t-191 -69q-123 0 -191 69t-67 195h101z" />
    <glyph glyph-name="ibreve" unicode="&#x12d;" horiz-adv-x="417" 
d="M150 1055h118v-1055h-118v1055zM51 1475q0 -89 45 -135t114 -46t115 45t46 136h98q0 -127 -68 -198q-69 -71 -191 -71t-190 71t-67 198h98z" />
    <glyph glyph-name="Iogonek" unicode="&#x12e;" horiz-adv-x="460" 
d="M248 -362q-205 0 -205 159q0 98 125 203v1462h125v-1462q-131 -104 -131 -184q0 -47 28 -62.5t54 -15.5h22q21 0 37 2v-98q-16 -4 -19 -4h-36z" />
    <glyph glyph-name="iogonek" unicode="&#x12f;" horiz-adv-x="417" 
d="M141 1462h135v-178h-135v178zM150 0v1055h118v-1055q-125 -98 -125 -180q0 -47 27.5 -61.5t53.5 -14.5h21q21 0 38 2v-94q-16 -4 -19 -4h-37q-201 0 -200 153q0 107 125 199h-2z" />
    <glyph glyph-name="Idotaccent" unicode="&#x130;" horiz-adv-x="460" 
d="M168 1462h125v-1462h-125v1462zM162 1808h139v-182h-139v182z" />
    <glyph glyph-name="dotlessi" unicode="&#x131;" horiz-adv-x="417" 
d="M150 1055h118v-1055h-118v1055z" />
    <glyph glyph-name="IJ" unicode="&#x132;" horiz-adv-x="1640" 
d="M168 1462h125v-1462h-125v1462zM1358 483v979h125v-991q0 -256 -124 -382t-339 -126q-452 0 -508 440h127q47 -332 369 -329q198 0 274 106t76 303z" />
    <glyph glyph-name="ij" unicode="&#x133;" horiz-adv-x="835" 
d="M141 1462h135v-178h-135v178zM150 1055h118v-1055h-118v1055zM559 1462h135v-178h-135v178zM424 -274q82 0 113 51t30 135v1143h119v-1071q0 -178 -33 -240q-66 -125 -212 -125q-119 0 -193 31l24 100q70 -24 152 -24z" />
    <glyph glyph-name="Jcircumflex" unicode="&#x134;" horiz-adv-x="1179" 
d="M897 483v979h125v-991q0 -256 -124 -382t-339 -126q-452 0 -508 440h127q47 -332 369 -329q197 0 273 106t77 303zM899 1849h117l229 -264h-125l-164 170l-163 -170h-125z" />
    <glyph glyph-name="jcircumflex" unicode="&#x135;" horiz-adv-x="417" 
d="M6 -274q82 0 113 51t31 135v1143h118v-1071q0 -178 -33 -240q-33 -63 -83 -94t-149 -31q-100 0 -173 31l25 100q69 -24 151 -24zM154 1483h116l230 -275h-121l-168 185l-168 -185h-121z" />
    <glyph glyph-name="Kcommaaccent" unicode="&#x136;" horiz-adv-x="1302" 
d="M168 1462h125v-764l768 764h149l-542 -547l598 -915h-152l-541 834l-280 -277v-557h-125v1462zM631 -139h151l-182 -295h-121z" />
    <glyph glyph-name="kcommaaccent" unicode="&#x137;" horiz-adv-x="1009" 
d="M143 1462h119v-899l543 492h147l-372 -348l419 -707h-143l-369 633l-225 -203v-430h-119v1462zM483 -139h148l-178 -287h-117z" />
    <glyph glyph-name="kgreenlandic" unicode="&#x138;" horiz-adv-x="1009" 
d="M143 1055h119v-549l545 549h143l-370 -383l419 -672h-143l-369 594l-225 -223v-371h-119v1055z" />
    <glyph glyph-name="Lacute" unicode="&#x139;" horiz-adv-x="1126" 
d="M168 1462h125v-1345h794l-26 -117h-893v1462zM377 1849h162l-260 -264h-129z" />
    <glyph glyph-name="lacute" unicode="&#x13a;" horiz-adv-x="417" 
d="M150 1462h118v-1462h-118v1462zM356 1849h162l-260 -264h-129z" />
    <glyph glyph-name="Lcommaaccent" unicode="&#x13b;" horiz-adv-x="1126" 
d="M168 1462h125v-1345h794l-26 -117h-893v1462zM559 -139h152l-183 -295h-120z" />
    <glyph glyph-name="lcommaaccent" unicode="&#x13c;" horiz-adv-x="417" 
d="M150 1462h118v-1462h-118v1462zM137 -139h148l-179 -287h-116z" />
    <glyph glyph-name="Lcaron" unicode="&#x13d;" horiz-adv-x="1126" 
d="M168 1462h125v-1345h794l-26 -117h-893v1462zM730 1462h131l-81 -392h-104z" />
    <glyph glyph-name="lcaron" unicode="&#x13e;" horiz-adv-x="417" 
d="M150 1462h118v-1462h-118v1462zM451 1462h124l-77 -372h-99z" />
    <glyph glyph-name="Ldot" unicode="&#x13f;" horiz-adv-x="1126" 
d="M168 1462h125v-1345h794l-26 -117h-893v1462zM694 901h154v-190h-154v190z" />
    <glyph glyph-name="ldot" unicode="&#x140;" horiz-adv-x="595" 
d="M150 1462h118v-1462h-118v1462zM424 860h154v-190h-154v190z" />
    <glyph glyph-name="Lslash" unicode="&#x141;" horiz-adv-x="1146" 
d="M188 1462h125v-714l451 323v-127l-451 -323v-504h795l-27 -117h-893v530l-168 -120v127l168 120v805z" />
    <glyph glyph-name="lslash" unicode="&#x142;" horiz-adv-x="512" 
d="M197 1462h118v-567l187 143v-116l-187 -142v-780h-118v698l-187 -141v115l187 141v649z" />
    <glyph glyph-name="Nacute" unicode="&#x143;" horiz-adv-x="1413" 
d="M168 1462h137l819 -1265v1265h121v-1462h-135l-821 1270v-1270h-121v1462zM821 1849h162l-260 -264h-129z" />
    <glyph glyph-name="nacute" unicode="&#x144;" horiz-adv-x="1142" 
d="M653 1087q353 0 353 -385v-702h-119v670q1 166 -59 238t-189 73q-145 1 -257 -99q-58 -52 -89 -108t-31 -156v-618h-119v1055h119v-172q161 204 391 204zM645 1483h160l-260 -275h-127z" />
    <glyph glyph-name="Ncommaaccent" unicode="&#x145;" horiz-adv-x="1413" 
d="M168 1462h137l819 -1265v1265h121v-1462h-135l-821 1270v-1270h-121v1462zM645 -139h152l-183 -295h-120z" />
    <glyph glyph-name="ncommaaccent" unicode="&#x146;" horiz-adv-x="1142" 
d="M653 1087q353 0 353 -385v-702h-119v670q1 166 -59 238t-189 73q-145 1 -257 -99q-58 -52 -89 -108t-31 -156v-618h-119v1055h119v-172q161 204 391 204zM512 -139h147l-178 -287h-116z" />
    <glyph glyph-name="Ncaron" unicode="&#x147;" horiz-adv-x="1413" 
d="M168 1462h137l819 -1265v1265h121v-1462h-135l-821 1270v-1270h-121v1462zM436 1855h127l164 -172l164 172h123l-230 -264h-116z" />
    <glyph glyph-name="ncaron" unicode="&#x148;" horiz-adv-x="1142" 
d="M653 1087q353 0 353 -385v-702h-119v670q1 166 -59 238t-189 73q-145 1 -257 -99q-58 -52 -89 -108t-31 -156v-618h-119v1055h119v-172q161 204 391 204zM647 1212h-117l-229 275h121l168 -184l168 184h121z" />
    <glyph glyph-name="napostrophe" unicode="&#x149;" horiz-adv-x="1206" 
d="M717 1087q352 0 352 -385v-702h-119v670q0 166 -59 238t-189 73q-144 1 -256 -99q-58 -52 -90 -108t-30 -156v-618h-119v1055h119v-172q161 204 391 204zM53 1462h137l-96 -381h-92z" />
    <glyph glyph-name="Eng" unicode="&#x14a;" horiz-adv-x="1413" 
d="M809 -307q166 0 236.5 76.5t70.5 222.5l-827 1278v-1270h-121v1462h137l819 -1265v1265h121v-1462q0 -420 -440 -420q-194 0 -309 55l39 111q108 -53 274 -53z" />
    <glyph glyph-name="eng" unicode="&#x14b;" horiz-adv-x="1142" 
d="M745 -274q82 0 112 50t30 136v758q0 166 -59.5 238.5t-198.5 72.5t-244 -98q-61 -53 -92 -109.5t-31 -155.5v-618h-119v1055h119v-172q161 204 391 204q353 0 353 -385v-718q0 -178 -48 -271.5t-196 -93.5q-113 0 -193 31l25 100q69 -24 151 -24z" />
    <glyph glyph-name="Omacron" unicode="&#x14c;" horiz-adv-x="1548" 
d="M774 74q255 0 392 179t137 477q0 297 -139 477t-392 181q-254 1 -390 -179t-136 -479q0 -300 136 -478q137 -178 392 -178zM777 -37q-299 0 -480 199q-182 199 -182 565t185 569t478 203q294 0 474 -199t182 -563q0 -190 -50 -335q-97 -284 -344 -388q-121 -50 -263 -51z
M485 1743h578v-109h-578v109z" />
    <glyph glyph-name="omacron" unicode="&#x14d;" horiz-adv-x="1214" 
d="M973 937q131 -152 131 -405t-134 -410q-134 -155 -368 -155q-117 0 -208 39q-178 76 -250 287q-34 102 -34 230q0 129 36 233q72 211 257 292q92 40 207 40q232 -2 363 -151zM607 985q-190 0 -284 -133q-85 -118 -85 -326t85 -323q96 -133 284 -133t284 133
q84 114 86 327q0 316 -201 419q-70 36 -169 36zM356 1389h500v-105h-500v105z" />
    <glyph glyph-name="Obreve" unicode="&#x14e;" horiz-adv-x="1548" 
d="M774 74q255 0 392 179t137 477q0 297 -139 477t-392 181q-254 1 -390 -179t-136 -479q0 -300 136 -478q137 -178 392 -178zM777 -37q-299 0 -480 199q-182 199 -182 565t185 569t478 203q294 0 474 -199t182 -563q0 -190 -50 -335q-97 -284 -344 -388q-121 -50 -263 -51z
M616 1849q0 -86 44 -130t113 -44t114 44t45 130h100q0 -127 -68 -195t-190 -69q-122 0 -190 69t-68 195h100z" />
    <glyph glyph-name="obreve" unicode="&#x14f;" horiz-adv-x="1214" 
d="M973 937q131 -152 131 -405t-134 -410q-134 -155 -368 -155q-117 0 -208 39q-178 76 -250 287q-34 102 -34 230q0 129 36 233q72 211 257 292q92 40 207 40q232 -2 363 -151zM607 985q-190 0 -284 -133q-85 -118 -85 -326t85 -323q96 -133 284 -133t284 133
q84 114 86 327q0 316 -201 419q-70 36 -169 36zM446 1475q0 -89 46 -135t114 -46t114 45t46 136h98q0 -127 -68 -198t-190 -71t-190 71t-68 198h98z" />
    <glyph glyph-name="Ohungarumlaut" unicode="&#x150;" horiz-adv-x="1548" 
d="M774 74q255 0 392 179t137 477q0 297 -139 477t-392 181q-254 1 -390 -179t-136 -479q0 -300 136 -478q137 -178 392 -178zM777 -37q-299 0 -480 199q-182 199 -182 565t185 569t478 203q294 0 474 -199t182 -563q0 -190 -50 -335q-97 -284 -344 -388q-121 -50 -263 -51z
M1079 1849h150l-246 -264h-115zM750 1849h149l-244 -264h-116z" />
    <glyph glyph-name="ohungarumlaut" unicode="&#x151;" horiz-adv-x="1214" 
d="M973 937q131 -152 131 -405t-134 -410q-134 -155 -368 -155q-117 0 -208 39q-178 76 -250 287q-34 102 -34 230q0 129 36 233q72 211 257 292q92 40 207 40q232 -2 363 -151zM607 985q-190 0 -284 -133q-85 -118 -85 -326t85 -323q96 -133 284 -133t284 133
q84 114 86 327q0 316 -201 419q-70 36 -169 36zM907 1483h156l-246 -275h-121zM578 1483h155l-244 -275h-122z" />
    <glyph glyph-name="OE" unicode="&#x152;" horiz-adv-x="2217" 
d="M1104 1210.5q-135 182.5 -365 182.5q-229 0 -361 -181t-132 -480.5t130.5 -480.5t364.5 -181t366 183t132 479t-135 478.5zM764 -37q-449 0 -549 288t-100 564t180 480t448 204q170 0 289 -70.5t207 -216.5v250h862v-112h-741v-537h700v-117h-700v-581h776l-29 -115h-868
v262q-179 -299 -475 -299z" />
    <glyph glyph-name="oe" unicode="&#x153;" horiz-adv-x="1992" 
d="M1765 600q0 281 -118.5 336t-204.5 55q-150 0 -241 -96t-109 -295h673zM875.5 195.5q89.5 125.5 89.5 334.5q0 316 -133.5 385.5t-230.5 69.5t-165.5 -36t-112.5 -97t-64.5 -144t-20.5 -179.5t20.5 -180.5t90 -181t253.5 -97t273.5 125.5zM596 -33q-225 0 -355 148.5
t-130 405.5t134.5 411.5t358.5 154.5q147 0 256 -68.5t166 -197.5q59 131 168 198.5t238 67.5q237 0 346.5 -140t109.5 -374v-75h-798q0 -190 93.5 -311t258.5 -121q208 0 254.5 81.5t58.5 128.5h115q-25 -137 -130.5 -223t-297.5 -86q-298 0 -416 277q-125 -277 -430 -277z
" />
    <glyph glyph-name="Racute" unicode="&#x154;" horiz-adv-x="1271" 
d="M643 750q305 0 359 182q18 57 18 130q1 151 -86 220q-87 70 -313 72h-330v-604h352zM627 1462q520 0 520 -397q0 -291 -266 -387l315 -678h-145l-293 649q-88 -10 -150 -10h-317v-639h-123v1462h459zM709 1849h161l-260 -264h-129z" />
    <glyph glyph-name="racute" unicode="&#x155;" horiz-adv-x="690" 
d="M143 1055h119v-172q132 188 320 188q50 0 84 -6l-15 -113q-37 6 -79 6q-114 0 -201 -86q-109 -95 -109 -237v-635h-119v1055zM514 1483h160l-260 -275h-127z" />
    <glyph glyph-name="Rcommaaccent" unicode="&#x156;" horiz-adv-x="1271" 
d="M643 750q305 0 359 182q18 57 18 130q1 151 -86 220q-87 70 -313 72h-330v-604h352zM627 1462q520 0 520 -397q0 -291 -266 -387l315 -678h-145l-293 649q-88 -10 -150 -10h-317v-639h-123v1462h459zM594 -139h151l-182 -295h-121z" />
    <glyph glyph-name="rcommaaccent" unicode="&#x157;" horiz-adv-x="690" 
d="M143 1055h119v-172q132 188 320 188q50 0 84 -6l-15 -113q-37 6 -79 6q-114 0 -201 -86q-109 -95 -109 -237v-635h-119v1055zM143 -139h148l-178 -287h-117z" />
    <glyph glyph-name="Rcaron" unicode="&#x158;" horiz-adv-x="1271" 
d="M643 750q305 0 359 182q18 57 18 130q1 151 -86 220q-87 70 -313 72h-330v-604h352zM627 1462q520 0 520 -397q0 -291 -266 -387l315 -678h-145l-293 649q-88 -10 -150 -10h-317v-639h-123v1462h459zM289 1855h127l164 -172l163 172h123l-229 -264h-117z" />
    <glyph glyph-name="rcaron" unicode="&#x159;" horiz-adv-x="690" 
d="M143 1055h119v-172q132 188 320 188q50 0 84 -6l-15 -113q-37 6 -79 6q-114 0 -201 -86q-109 -95 -109 -237v-635h-119v1055zM471 1212h-117l-229 275h121l168 -184l168 184h120z" />
    <glyph glyph-name="Sacute" unicode="&#x15a;" horiz-adv-x="1314" 
d="M254 1108q0 -126 65 -187t238 -92l207 -36q333 -60 404 -256q26 -70 26 -159q0 -182 -136 -299q-136 -116 -380 -116q-386 0 -524 225q-49 80 -62 195h123q33 -164 141 -237t324 -72q299 0 360 186q34 104 8 214q-37 154 -290 196l-183 30q-222 38 -334 127t-112 281
q0 191 149 292t373 99q358 0 473 -220q33 -62 52 -126l-115 -33q-44 140 -129 205t-279 66q-399 0 -399 -283zM756 1849h162l-261 -264h-129z" />
    <glyph glyph-name="sacute" unicode="&#x15b;" horiz-adv-x="1052" 
d="M546 68q153 0 216 57t63 142t-32 120q-31 35 -75 53t-114 31l-129 21q-187 31 -263 89q-95 70 -94 206t112 218t286 82q284 0 372 -165q26 -49 40 -105l-109 -22q-34 100 -96 145q-63 45 -173 45q-183 0 -248 -53q-66 -53 -68 -135q-1 -83 32 -114q55 -50 193 -75
l162 -26q165 -29 247 -100t82 -208t-105 -222t-296 -85q-307 0 -414 176q-37 61 -45 150h117q23 -123 105 -174t234 -51zM639 1483h160l-260 -275h-127z" />
    <glyph glyph-name="Scircumflex" unicode="&#x15c;" horiz-adv-x="1314" 
d="M254 1108q0 -126 65 -187t238 -92l207 -36q333 -60 404 -256q26 -70 26 -159q0 -182 -136 -299q-136 -116 -380 -116q-386 0 -524 225q-49 80 -62 195h123q33 -164 141 -237t324 -72q299 0 360 186q34 104 8 214q-37 154 -290 196l-183 30q-222 38 -334 127t-112 281
q0 191 149 292t373 99q358 0 473 -220q33 -62 52 -126l-115 -33q-44 140 -129 205t-279 66q-399 0 -399 -283zM600 1849h117l229 -264h-125l-164 170l-163 -170h-125z" />
    <glyph glyph-name="scircumflex" unicode="&#x15d;" horiz-adv-x="1052" 
d="M546 68q153 0 216 57t63 142t-32 120q-31 35 -75 53t-114 31l-129 21q-187 31 -263 89q-95 70 -94 206t112 218t286 82q284 0 372 -165q26 -49 40 -105l-109 -22q-34 100 -96 145q-63 45 -173 45q-183 0 -248 -53q-66 -53 -68 -135q-1 -83 32 -114q55 -50 193 -75
l162 -26q165 -29 247 -100t82 -208t-105 -222t-296 -85q-307 0 -414 176q-37 61 -45 150h117q23 -123 105 -174t234 -51zM469 1483h117l229 -275h-121l-168 185l-168 -185h-120z" />
    <glyph glyph-name="Scedilla" unicode="&#x15e;" horiz-adv-x="1314" 
d="M571 -352q137 0 138 82q0 41 -37 59t-129 18h-27l55 160q-315 26 -391 170t-88 246h123q33 -164 141.5 -236.5t323.5 -72.5q298 0 338.5 121t40.5 177q0 121 -60.5 193.5t-240.5 104.5l-183 30q-225 38 -335.5 126.5t-110.5 280.5t147 292t375 100q358 0 432 -141
t93 -205l-115 -33q-44 140 -130.5 205.5t-277.5 65.5q-312 0 -355.5 -112t-43.5 -172q0 -124 64 -184t239 -94l207 -36q224 -40 327 -137.5t103 -278.5t-136 -297.5t-380 -116.5h-10l-29 -78q111 -12 149.5 -57.5t38.5 -99.5t-18 -86.5t-52 -52t-81 -27.5t-103 -8t-116 8v94
q66 -8 114 -8z" />
    <glyph glyph-name="scedilla" unicode="&#x15f;" horiz-adv-x="1052" 
d="M469 -324q119 0 119 76q0 39 -35 55.5t-127 16.5h-25l52 147q-154 16 -252.5 93t-110.5 229h117q23 -123 104.5 -174t234.5 -51t216 57t63 141t-43 133t-178 72l-129 21q-183 31 -269.5 93.5t-86.5 202.5t112 219.5t285 79.5q286 0 341.5 -107.5t70.5 -162.5l-109 -22
q-34 100 -96.5 145t-172.5 45t-165 -15.5t-89 -42t-48.5 -61.5t-14.5 -93.5t44 -99t182 -65.5l162 -26q166 -29 247.5 -99.5t81.5 -209.5t-105 -222.5t-296 -83.5h-4l-25 -67q106 -12 144 -55.5t38 -100.5q0 -92 -68 -126t-150 -34q-83 0 -140 8v93q69 -9 125 -9z" />
    <glyph glyph-name="Scaron" unicode="&#x160;" horiz-adv-x="1314" 
d="M254 1108q0 -126 65 -187t238 -92l207 -36q333 -60 404 -256q26 -70 26 -159q0 -182 -136 -299q-136 -116 -380 -116q-386 0 -524 225q-49 80 -62 195h123q33 -164 141 -237t324 -72q299 0 360 186q34 104 8 214q-37 154 -290 196l-183 30q-222 38 -334 127t-112 281
q0 191 149 292t373 99q358 0 473 -220q33 -62 52 -126l-115 -33q-44 140 -129 205t-279 66q-399 0 -399 -283zM369 1855h127l163 -172l164 172h123l-229 -264h-117z" />
    <glyph glyph-name="scaron" unicode="&#x161;" horiz-adv-x="1052" 
d="M546 68q153 0 216 57t63 142t-32 120q-31 35 -75 53t-114 31l-129 21q-187 31 -263 89q-95 70 -94 206t112 218t286 82q284 0 372 -165q26 -49 40 -105l-109 -22q-34 100 -96 145q-63 45 -173 45q-183 0 -248 -53q-66 -53 -68 -135q-1 -83 32 -114q55 -50 193 -75
l162 -26q165 -29 247 -100t82 -208t-105 -222t-296 -85q-307 0 -414 176q-37 61 -45 150h117q23 -123 105 -174t234 -51zM588 1212h-117l-229 275h120l168 -184l168 184h121z" />
    <glyph glyph-name="uni0162" unicode="&#x162;" horiz-adv-x="1208" 
d="M565 -324q119 0 119 76q0 39 -35 55.5t-127 16.5h-24l61 176h-16v1348h-508v114h1139v-114h-506v-1348h-15l-37 -100q106 -12 144.5 -55.5t38.5 -100.5q0 -92 -67.5 -126t-150.5 -34t-141 8v93q69 -9 125 -9z" />
    <glyph glyph-name="uni0163" unicode="&#x163;" horiz-adv-x="675" 
d="M418 -324q119 0 119 76q0 39 -35 55.5t-127 16.5h-25l53 158q-177 20 -188.5 157t-11.5 203v614h-164v99h164v291h119v-291h299v-99h-299v-690q0 -186 147 -186q81 0 156 26l24 -96q-63 -23 -151 -30l-29 -80q106 -12 144 -55.5t38 -100.5q0 -92 -67.5 -126t-150.5 -34
t-140 8v93q70 -9 125 -9z" />
    <glyph glyph-name="Tcaron" unicode="&#x164;" horiz-adv-x="1208" 
d="M543 1348h-508v114h1139v-114h-506v-1348h-125v1348zM315 1855h127l164 -172l164 172h123l-229 -264h-117z" />
    <glyph glyph-name="tcaron" unicode="&#x165;" horiz-adv-x="675" 
d="M466 -23q-169 0 -216 93t-47 272v614h-164v99h164v291h119v-291h299v-99h-299v-690q0 -186 147 -186q81 0 156 26l24 -96q-86 -33 -183 -33zM508 1483h123l-76 -314h-98z" />
    <glyph glyph-name="Tbar" unicode="&#x166;" horiz-adv-x="1208" 
d="M543 676h-330v110h330v562h-508v114h1139v-114h-506v-562h329v-110h-329v-676h-125v676z" />
    <glyph glyph-name="tbar" unicode="&#x167;" horiz-adv-x="675" 
d="M466 -23q-169 0 -216 93t-47 272v170h-164v104h164v340h-164v99h164v291h119v-291h299v-99h-299v-340h299v-104h-299v-246q0 -186 147 -186q81 0 156 26l24 -96q-86 -33 -183 -33z" />
    <glyph glyph-name="Utilde" unicode="&#x168;" horiz-adv-x="1384" 
d="M1227 573q0 -610 -533 -610q-399 0 -500 337q-36 118 -36 282v880h125v-891q0 -249 96 -373t317 -124q321 0 384 281q22 93 22 216v891h125v-889zM354 1602q0 100 52 157t124 57q74 0 114 -18t73 -41t65 -41t81 -18q91 0 91 117h99q1 -103 -51 -159t-126 -56t-113 18
q-40 18 -73 40q-34 22 -66 40t-81 18t-69 -34t-21 -80h-99z" />
    <glyph glyph-name="utilde" unicode="&#x169;" horiz-adv-x="1120" 
d="M139 1055h119v-670q0 -166 52 -239q52 -72 182 -72t245 98q59 54 90 110t31 154v619h119v-1055h-119v172q-166 -205 -383 -205q-180 1 -258 99t-78 286v703zM223 1241q0 101 51 157t123 56t111 -18t72 -40q32 -22 64 -40t80 -18q87 -1 87 112h98q0 -100 -51 -156
q-50 -56 -122 -57q-72 0 -111 18t-72 40t-65 40q-32 19 -80 19t-66 -34q-20 -34 -20 -79h-99z" />
    <glyph glyph-name="Umacron" unicode="&#x16a;" horiz-adv-x="1384" 
d="M1227 573q0 -610 -533 -610q-399 0 -500 337q-36 118 -36 282v880h125v-891q0 -249 96 -373t317 -124q321 0 384 281q22 93 22 216v891h125v-889zM403 1743h578v-109h-578v109z" />
    <glyph glyph-name="umacron" unicode="&#x16b;" horiz-adv-x="1120" 
d="M139 1055h119v-670q0 -166 52 -239q52 -72 182 -72t245 98q59 54 90 110t31 154v619h119v-1055h-119v172q-166 -205 -383 -205q-180 1 -258 99t-78 286v703zM311 1389h500v-105h-500v105z" />
    <glyph glyph-name="Ubreve" unicode="&#x16c;" horiz-adv-x="1384" 
d="M1227 573q0 -610 -533 -610q-399 0 -500 337q-36 118 -36 282v880h125v-891q0 -249 96 -373t317 -124q321 0 384 281q22 93 22 216v891h125v-889zM535 1849q0 -86 44 -130q45 -44 113 -44t113 44t45 130h100q0 -127 -68 -195t-190 -69q-122 0 -190 69t-68 195h101z" />
    <glyph glyph-name="ubreve" unicode="&#x16d;" horiz-adv-x="1120" 
d="M139 1055h119v-670q0 -166 52 -239q52 -72 182 -72t245 98q59 54 90 110t31 154v619h119v-1055h-119v172q-166 -205 -383 -205q-180 1 -258 99t-78 286v703zM401 1475q0 -89 45 -135t114 -46t115 45t46 136h98q1 -127 -67 -198t-191 -71t-191 71t-67 198h98z" />
    <glyph glyph-name="Uring" unicode="&#x16e;" horiz-adv-x="1384" 
d="M1227 573q0 -610 -533 -610q-399 0 -500 337q-36 118 -36 282v880h125v-891q0 -249 96 -373t317 -124q321 0 384 281q22 93 22 216v891h125v-889zM692 1589q105 0 105 113t-105 113q-47 0 -76 -28q-28 -28 -28 -86t28 -85t76 -27zM498 1701q0 97 58 146t139 49t136 -51
q56 -51 58 -145q0 -47 -17 -84q-48 -108 -200 -110q-58 0 -116 48q-58 50 -58 147z" />
    <glyph glyph-name="uring" unicode="&#x16f;" horiz-adv-x="1120" 
d="M139 1055h119v-670q0 -166 52 -239q52 -72 182 -72t245 98q59 54 90 110t31 154v619h119v-1055h-119v172q-166 -205 -383 -205q-180 1 -258 99t-78 286v703zM561 1286q47 0 75 28t28 85t-28 85t-75 28t-75 -28t-28 -85t28 -85t75 -28zM369 1399q0 96 57 145t135 49
q129 0 178 -110q17 -37 17 -85t-16 -84q-48 -104 -179 -108q-78 0 -135 48t-57 145z" />
    <glyph glyph-name="Uhungarumlaut" unicode="&#x170;" horiz-adv-x="1384" 
d="M1227 573q0 -610 -533 -610q-399 0 -500 337q-36 118 -36 282v880h125v-891q0 -249 96 -373t317 -124q321 0 384 281q22 93 22 216v891h125v-889zM958 1849h150l-246 -264h-114zM629 1849h149l-243 -264h-117z" />
    <glyph glyph-name="uhungarumlaut" unicode="&#x171;" horiz-adv-x="1120" 
d="M139 1055h119v-670q0 -166 52 -239q52 -72 182 -72t245 98q59 54 90 110t31 154v619h119v-1055h-119v172q-166 -205 -383 -205q-180 1 -258 99t-78 286v703zM838 1483h155l-245 -275h-121zM508 1483h156l-244 -275h-123z" />
    <glyph glyph-name="Uogonek" unicode="&#x172;" horiz-adv-x="1384" 
d="M879 -362q-205 0 -205 159q0 84 86 168q-16 -2 -20 -2h-46q-399 0 -467.5 227.5t-68.5 391.5v880h125v-891q0 -248 96 -372.5t316 -124.5t313.5 122t93.5 375v891h125v-889q0 -462 -303 -573q-131 -104 -131 -184q0 -47 27.5 -62.5t53.5 -15.5h22q22 0 38 2v-98
q-16 -4 -20 -4h-35z" />
    <glyph glyph-name="uogonek" unicode="&#x173;" horiz-adv-x="1120" 
d="M852 -180q0 -76 80 -76h22q21 0 37 2v-94q-16 -4 -19 -4h-36q-201 0 -201 153q0 106 125 199h-2v172q-166 -205 -383 -205q-180 0 -258 98.5t-78 286.5v703h119v-670q0 -166 52 -238.5t182 -72.5t245 98q59 53 90 109.5t31 154.5v619h119v-1055q-125 -98 -125 -180z" />
    <glyph glyph-name="Wcircumflex" unicode="&#x174;" horiz-adv-x="1865" 
d="M27 1462h139l344 -1306l362 1300h136l352 -1298l348 1304h131l-412 -1462h-145l-352 1300l-352 -1300h-138zM877 1849h116l230 -264h-125l-164 170l-164 -170h-125z" />
    <glyph glyph-name="wcircumflex" unicode="&#x175;" horiz-adv-x="1456" 
d="M18 1055h132l245 -922l269 916h139l262 -916l246 922h127l-310 -1055h-137l-264 922l-266 -922h-137zM672 1483h116l230 -275h-121l-168 185l-168 -185h-121z" />
    <glyph glyph-name="Ycircumflex" unicode="&#x176;" horiz-adv-x="1204" 
d="M668 0h-125v633l-512 829h147l428 -723l436 723h132l-506 -829v-633zM545 1849h117l229 -264h-125l-164 170l-164 -170h-125z" />
    <glyph glyph-name="ycircumflex" unicode="&#x177;" horiz-adv-x="1019" 
d="M223 -291q45 0 70 8q44 14 83 85q17 34 40 87l49 125l-453 1041h138l382 -903l342 903h134l-480 -1194q-58 -136 -98 -180q-72 -78 -170 -78t-168 24l29 105q57 -23 102 -23zM453 1483h116l230 -275h-121l-168 185l-168 -185h-121z" />
    <glyph glyph-name="Ydieresis" unicode="&#x178;" horiz-adv-x="1204" 
d="M668 0h-125v633l-512 829h147l428 -723l436 723h132l-506 -829v-633zM680 1806h139v-178h-139v178zM344 1806h137v-178h-137v178z" />
    <glyph glyph-name="Zacute" unicode="&#x179;" horiz-adv-x="1198" 
d="M88 1350v112h1030v-104l-899 -1243h918l-27 -115h-1038v102l901 1248h-885zM707 1849h161l-260 -264h-129z" />
    <glyph glyph-name="zacute" unicode="&#x17a;" horiz-adv-x="919" 
d="M61 954v101h797v-101l-670 -854h705l-21 -100h-825v100l670 854h-656zM584 1483h159l-260 -275h-127z" />
    <glyph glyph-name="Zdotaccent" unicode="&#x17b;" horiz-adv-x="1198" 
d="M88 1350v112h1030v-104l-899 -1243h918l-27 -115h-1038v102l901 1248h-885zM539 1808h139v-182h-139v182z" />
    <glyph glyph-name="zdotaccent" unicode="&#x17c;" horiz-adv-x="919" 
d="M61 954v101h797v-101l-670 -854h705l-21 -100h-825v100l670 854h-656zM393 1444h135v-178h-135v178z" />
    <glyph glyph-name="Zcaron" unicode="&#x17d;" horiz-adv-x="1198" 
d="M88 1350v112h1030v-104l-899 -1243h918l-27 -115h-1038v102l901 1248h-885zM322 1855h127l163 -172l164 172h123l-229 -264h-117z" />
    <glyph glyph-name="zcaron" unicode="&#x17e;" horiz-adv-x="919" 
d="M61 954v101h797v-101l-670 -854h705l-21 -100h-825v100l670 854h-656zM516 1212h-117l-229 275h121l168 -184l168 184h121z" />
    <glyph glyph-name="longs" unicode="&#x17f;" horiz-adv-x="413" 
d="M446 1374q-69 0 -123.5 -42t-54.5 -152v-1180h-118v1176q0 150 85 226.5t209 76.5q77 0 156 -23l-25 -100q-60 18 -129 18z" />
    <glyph glyph-name="florin" unicode="&#x192;" 
d="M888 1352q-79 0 -127 -42t-71 -161l-22 -121h282l-20 -104h-283l-190 -977q-29 -160 -101.5 -232.5t-222.5 -72.5q-83 0 -158 32l31 99q62 -27 118 -27q108 0 149.5 41.5t64.5 159.5l190 977h-166l19 104h168l22 121q29 156 105 230.5t231 74.5q89 0 162 -33l-31 -98
q-71 29 -150 29z" />
    <glyph glyph-name="Scommaaccent" unicode="&#x218;" horiz-adv-x="1314" 
d="M254 1108q0 -126 65 -187t238 -92l207 -36q333 -60 404 -256q26 -70 26 -159q0 -182 -136 -299q-136 -116 -380 -116q-386 0 -524 225q-49 80 -62 195h123q33 -164 141 -237t324 -72q299 0 360 186q34 104 8 214q-37 154 -290 196l-183 30q-222 38 -334 127t-112 281
q0 191 149 292t373 99q358 0 473 -220q33 -62 52 -126l-115 -33q-44 140 -129 205t-279 66q-399 0 -399 -283zM610 -139h152l-182 -295h-121z" />
    <glyph glyph-name="scommaaccent" unicode="&#x219;" horiz-adv-x="1052" 
d="M546 68q153 0 216 57t63 142t-32 120q-31 35 -75 53t-114 31l-129 21q-187 31 -263 89q-95 70 -94 206t112 218t286 82q284 0 372 -165q26 -49 40 -105l-109 -22q-34 100 -96 145q-63 45 -173 45q-183 0 -248 -53q-66 -53 -68 -135q-1 -83 32 -114q55 -50 193 -75
l162 -26q165 -29 247 -100t82 -208t-105 -222t-296 -85q-307 0 -414 176q-37 61 -45 150h117q23 -123 105 -174t234 -51zM485 -139h148l-178 -287h-117z" />
    <glyph glyph-name="uni021A" unicode="&#x21a;" horiz-adv-x="1208" 
d="M543 1348h-508v114h1139v-114h-506v-1348h-125v1348zM535 -139h151l-182 -295h-121z" />
    <glyph glyph-name="uni021B" unicode="&#x21b;" horiz-adv-x="675" 
d="M203 342v614h-164v99h164v291h119v-291h299v-99h-299v-690q0 -186 147 -186q81 0 156 26l24 -96q-81 -31 -181 -32q-239 -2 -259 227q-6 66 -6 137zM360 -139h148l-178 -287h-117z" />
    <glyph glyph-name="dotlessj" unicode="&#x237;" horiz-adv-x="417" 
d="M6 -274q82 0 113 51t31 135v1143h118v-1071q0 -176 -48.5 -270.5t-196.5 -94.5q-113 0 -193 31l25 100q69 -24 151 -24z" />
    <glyph glyph-name="apostrophe" unicode="&#x2bc;" horiz-adv-x="372" 
d="M139 1462h137l-96 -381h-92z" />
    <glyph glyph-name="circumflex" unicode="&#x2c6;" horiz-adv-x="776" 
d="M330 1483h116l230 -275h-121l-168 185l-168 -185h-121z" />
    <glyph glyph-name="caron" unicode="&#x2c7;" horiz-adv-x="776" 
d="M444 1212h-116l-230 275h121l168 -184l168 184h121z" />
    <glyph glyph-name="uni02C9" unicode="&#x2c9;" horiz-adv-x="776" 
d="M137 1389h500v-105h-500v105z" />
    <glyph glyph-name="breve" unicode="&#x2d8;" horiz-adv-x="776" 
d="M227 1475q0 -90 45 -135.5t114 -45.5t115 45t46 136h98q0 -127 -67.5 -198t-190.5 -71t-190.5 71t-67.5 198h98z" />
    <glyph glyph-name="dotaccent" unicode="&#x2d9;" horiz-adv-x="776" 
d="M319 1444h136v-178h-136v178z" />
    <glyph glyph-name="ring" unicode="&#x2da;" horiz-adv-x="776" 
d="M387 1286q47 0 74.5 27.5t27.5 85t-27.5 85t-74.5 27.5t-74.5 -27.5t-27.5 -85t27.5 -85t74.5 -27.5zM195 1399q0 96 57 145t135 49q129 0 162 -73.5t33 -121.5q0 -91 -57 -141.5t-137 -50.5q-79 0 -136 48.5t-57 144.5z" />
    <glyph glyph-name="ogonek" unicode="&#x2db;" horiz-adv-x="776" 
d="M375 -180q1 -76 81 -76h21q21 0 37 2v-94q-16 -4 -20 -4h-35q-201 0 -201 153q0 107 125 199h117q-125 -98 -125 -180z" />
    <glyph glyph-name="tilde" unicode="&#x2dc;" horiz-adv-x="776" 
d="M240 1354q-97 0 -97 -113h-98q0 100 51 156.5t123 56.5t111 -18.5t71.5 -40t64.5 -40t80 -18.5q87 0 87 113h98q0 -100 -50.5 -156.5t-122.5 -56.5t-111 18.5t-72 40t-64.5 40t-70.5 18.5z" />
    <glyph glyph-name="hungarumlaut" unicode="&#x2dd;" horiz-adv-x="776" 
d="M580 1483h155l-246 -275h-120zM250 1483h156l-244 -275h-123z" />
    <glyph glyph-name="tonos" unicode="&#x384;" horiz-adv-x="776" 
d="M375 1503h139l-174 -295h-107z" />
    <glyph glyph-name="dieresistonos" unicode="&#x385;" horiz-adv-x="776" 
d="M381 1503h139l-139 -295h-107zM555 1434h127v-158h-127v158zM94 1434h125v-158h-125v158z" />
    <glyph glyph-name="Alphatonos" unicode="&#x386;" horiz-adv-x="1353" 
d="M223 1462h139l-157 -315h-107zM973 561l-301 764l-297 -764h598zM604 1462h148l577 -1462h-135l-176 446h-688l-174 -446h-131z" />
    <glyph glyph-name="Epsilontonos" unicode="&#x388;" horiz-adv-x="1435" 
d="M98 1462h140l-158 -315h-107zM399 1462h920v-112h-795v-537h754v-117h-754v-581h830l-29 -115h-926v1462z" />
    <glyph glyph-name="Etatonos" unicode="&#x389;" horiz-adv-x="1642" 
d="M98 1462h140l-158 -315h-107zM399 1462h125v-647h826v647h125v-1462h-125v698h-826v-698h-125v1462z" />
    <glyph glyph-name="Iotatonos" unicode="&#x38a;" horiz-adv-x="692" 
d="M98 1462h140l-158 -315h-107zM399 1462h125v-1462h-125v1462z" />
    <glyph glyph-name="Omicrontonos" unicode="&#x38c;" horiz-adv-x="1658" 
d="M119 1462h139l-158 -315h-106zM1413 728q0 297 -138 478t-392 182t-391 -179q-136 -180 -136 -479q0 -300 136 -478t392 -178q255 0 392 178t137 476zM888 -37q-299 0 -481 200t-182 566t185 568t479 202q295 0 475 -199t180 -563q0 -190 -49 -335q-97 -284 -344 -388
q-121 -50 -263 -51z" />
    <glyph glyph-name="Upsilontonos" unicode="&#x38e;" horiz-adv-x="1521" 
d="M98 1462h140l-158 -315h-107zM985 0h-125v633l-512 829h148l428 -723l436 723h131l-506 -829v-633z" />
    <glyph glyph-name="Omegatonos" unicode="&#x38f;" horiz-adv-x="1603" 
d="M502 113q-281 233 -281 679q0 144 46 284t129 234q168 190 449 189q279 0 445 -189t166 -548q0 -205 -80 -373t-209 -276h349l-25 -113h-502v92q180 121 258 281t78 383q0 458 -268 589q-90 44 -215 44q-246 0 -368 -166t-122 -467q0 -221 81 -382t253 -282v-92h-516v113
h332zM98 1462h140l-158 -315h-107z" />
    <glyph glyph-name="iotadieresistonos" unicode="&#x390;" horiz-adv-x="516" 
d="M143 1055h119v-770q0 -115 31 -161t103 -46t106 14l14 -98q-61 -17 -143 -19q-123 0 -176 71t-54 196v813zM258 1503h139l-139 -295h-106zM432 1434h127v-158h-127v158zM-29 1434h125v-158h-125v158z" />
    <glyph glyph-name="Alpha" unicode="&#x391;" horiz-adv-x="1353" 
d="M973 561l-301 764l-297 -764h598zM604 1462h148l577 -1462h-135l-176 446h-688l-174 -446h-131z" />
    <glyph glyph-name="Beta" unicode="&#x392;" horiz-adv-x="1277" 
d="M666 111q318 0 371 171q17 54 18 121q0 150 -90 228t-293 78h-381v-598h375zM649 821q190 0 278 69q87 69 87 204t-87 197t-300 63h-336v-533h358zM1137 1100q0 -232 -224 -326q217 -75 259 -251q34 -140 -13 -271q-56 -158 -248 -220q-98 -32 -241 -32h-502v1462h463
q410 0 484 -223q22 -66 22 -139z" />
    <glyph glyph-name="Gamma" unicode="&#x393;" horiz-adv-x="1060" 
d="M1036 1462v-112h-743v-1350h-125v1462h868z" />
    <glyph glyph-name="uni0394" unicode="&#x394;" horiz-adv-x="1318" 
d="M1116 115l-461 1212l-460 -1212h921zM590 1462h137l565 -1462h-1265z" />
    <glyph glyph-name="Epsilon" unicode="&#x395;" horiz-adv-x="1204" 
d="M168 1462h919v-112h-794v-537h754v-117h-754v-581h829l-28 -115h-926v1462z" />
    <glyph glyph-name="Zeta" unicode="&#x396;" horiz-adv-x="1198" 
d="M88 1350v112h1030v-104l-899 -1243h918l-27 -115h-1038v102l901 1248h-885z" />
    <glyph glyph-name="Eta" unicode="&#x397;" horiz-adv-x="1411" 
d="M168 1462h125v-647h825v647h125v-1462h-125v698h-825v-698h-125v1462z" />
    <glyph glyph-name="Theta" unicode="&#x398;" horiz-adv-x="1548" 
d="M1164.5 1207.5q-138.5 181.5 -393.5 181.5q-254 0 -389.5 -180t-135.5 -480t135.5 -477.5t392.5 -177.5q255 0 392 179.5t137 476t-138.5 478zM115 638.5q0 276.5 50 421t139 242t210 147.5t339.5 50t399.5 -200.5t181 -565.5t-181 -567.5t-476 -202.5q-298 0 -480 199.5
t-182 476zM406 815h737v-117h-737v117z" />
    <glyph glyph-name="Iota" unicode="&#x399;" horiz-adv-x="460" 
d="M168 1462h125v-1462h-125v1462z" />
    <glyph glyph-name="Kappa" unicode="&#x39a;" horiz-adv-x="1302" 
d="M168 1462h125v-764l768 764h149l-542 -547l598 -915h-152l-541 834l-280 -277v-557h-125v1462z" />
    <glyph glyph-name="Lambda" unicode="&#x39b;" horiz-adv-x="1316" 
d="M1292 0h-143l-496 1321l-497 -1321h-131l563 1462h135z" />
    <glyph glyph-name="Mu" unicode="&#x39c;" horiz-adv-x="1716" 
d="M285 0h-117v1462h162l528 -1317l537 1317h153v-1462h-116v1253q-11 -20 -517 -1253h-118l-512 1245v-1245z" />
    <glyph glyph-name="Nu" unicode="&#x39d;" horiz-adv-x="1413" 
d="M168 1462h137l819 -1265v1265h121v-1462h-135l-821 1270v-1270h-121v1462z" />
    <glyph glyph-name="Xi" unicode="&#x39e;" horiz-adv-x="1103" 
d="M133 815h832v-117h-832v117zM82 115h940l-29 -115h-911v115zM92 1462h914v-114h-914v114z" />
    <glyph glyph-name="Omicron" unicode="&#x39f;" horiz-adv-x="1548" 
d="M774 74q255 0 392 179t137 477q0 297 -139 477t-392 181q-254 1 -390 -179t-136 -479q0 -300 136 -478q137 -178 392 -178zM777 -37q-299 0 -480 199q-182 199 -182 565t185 569t478 203q294 0 474 -199t182 -563q0 -190 -50 -335q-97 -284 -344 -388q-121 -50 -263 -51z
" />
    <glyph glyph-name="Pi" unicode="&#x3a0;" horiz-adv-x="1388" 
d="M1096 1350h-803v-1350h-125v1462h1053v-1462h-125v1350z" />
    <glyph glyph-name="Rho" unicode="&#x3a1;" horiz-adv-x="1267" 
d="M637 700q334 0 385 195q16 61 16 141q0 168 -86 242t-317 76h-344v-654h346zM168 1462h471q427 0 504 -259q48 -161 -1 -335q-81 -276 -507 -276h-344v-592h-123v1462z" />
    <glyph glyph-name="Sigma" unicode="&#x3a3;" horiz-adv-x="1163" 
d="M84 1462h997v-114h-837l485 -611l-510 -622h883l-29 -115h-1001v104l516 627l-504 629v102z" />
    <glyph glyph-name="Tau" unicode="&#x3a4;" horiz-adv-x="1208" 
d="M543 1348h-508v114h1139v-114h-506v-1348h-125v1348z" />
    <glyph glyph-name="Upsilon" unicode="&#x3a5;" horiz-adv-x="1204" 
d="M668 0h-125v633l-512 829h147l428 -723l436 723h132l-506 -829v-633z" />
    <glyph glyph-name="Phi" unicode="&#x3a6;" horiz-adv-x="1648" 
d="M233 762q0 -229 132.5 -343.5t396.5 -131.5v970q-529 -23 -529 -495zM1413 759q0 226 -130 356t-398 142v-970q262 17 395 131.5t133 340.5zM1366 349q-178 -144 -481 -163v-186h-123v186q-466 26 -563 230.5t-97 345.5q0 271 175 427.5t485 168.5v166h123v-166
q309 -12 484 -166.5t175 -426.5t-178 -416z" />
    <glyph glyph-name="Chi" unicode="&#x3a7;" horiz-adv-x="1255" 
d="M549 774l-479 688h149l408 -604l411 604h133l-477 -698l533 -764h-150l-461 674l-452 -674h-135z" />
    <glyph glyph-name="Psi" unicode="&#x3a8;" horiz-adv-x="1671" 
d="M145 1055v407h123v-407q0 -405 194.5 -470t311.5 -69v946h123v-946q506 17 506 539v407h123v-407q0 -309 -168 -467.5t-461 -171.5v-416h-123v416q-301 13 -465 161t-164 478z" />
    <glyph glyph-name="Omega" unicode="&#x3a9;" horiz-adv-x="1529" 
d="M428 113q-281 233 -281 679q0 144 46.5 284.5t172.5 281.5t404 141q279 0 445.5 -189t166.5 -548q0 -205 -79.5 -373t-208.5 -276h348l-25 -113h-502v92q180 121 258 280.5t78 383.5q0 456 -179 544.5t-304 88.5q-245 0 -367 -164.5t-122 -468.5q0 -221 80.5 -382
t252.5 -282v-92h-516v113h332z" />
    <glyph glyph-name="Iotadieresis" unicode="&#x3aa;" horiz-adv-x="460" 
d="M168 1462h125v-1462h-125v1462zM330 1806h139v-178h-139v178zM-6 1806h137v-178h-137v178z" />
    <glyph glyph-name="Upsilondieresis" unicode="&#x3ab;" horiz-adv-x="1204" 
d="M668 0h-125v633l-512 829h147l428 -723l436 723h132l-506 -829v-633zM709 1806h139v-178h-139v178zM373 1806h137v-178h-137v178z" />
    <glyph glyph-name="alphatonos" unicode="&#x3ac;" horiz-adv-x="1357" 
d="M565 70q193 0 307 279q35 83 68 175q-69 248 -135 341q-85 120 -238 120q-230 0 -300 -256q-24 -88 -23 -213q0 -218 82 -332t239 -114zM1348 -4q-148 -56 -219 15q-40 40 -72 143l-68 225q-71 -191 -153 -284q-113 -128 -275 -128q-224 0 -338 153t-112 394
q0 279 129 429q122 146 318 145t301 -118q84 -94 149 -311l137 396h112l-200 -545l76 -252q34 -116 59 -150t62 -34t73 12zM670 1503h139l-174 -295h-107z" />
    <glyph glyph-name="epsilontonos" unicode="&#x3ad;" horiz-adv-x="1058" 
d="M561 989q-301 0 -301 -192q0 -105 60 -151t182 -46h219v-98h-211q-272 0 -272 -211q0 -117 76 -171t253 -54q241 0 288 129q15 41 22 92h108q-15 -145 -86 -216q-102 -104 -340 -104q-339 0 -420 187q-25 57 -25 140t53 155q52 72 150 100q-72 23 -126 83t-54 136
q0 323 434 319q203 0 302 -90q76 -67 96 -182l-107 -18q-33 192 -301 192zM612 1503h140l-174 -295h-107z" />
    <glyph glyph-name="etatonos" unicode="&#x3ae;" horiz-adv-x="1146" 
d="M653 1087q353 0 353 -385v-1099h-119v1067q1 166 -59 238t-189 73q-145 1 -257 -99q-58 -52 -89 -108t-31 -156v-618h-119v1055h119v-172q161 204 391 204zM662 1503h139l-174 -295h-107z" />
    <glyph glyph-name="iotatonos" unicode="&#x3af;" horiz-adv-x="516" 
d="M143 1055h119v-770q0 -115 31 -161t103 -46t106 14l14 -98q-61 -17 -143 -19q-123 0 -176 71t-54 196v813zM287 1503h139l-174 -295h-107z" />
    <glyph glyph-name="upsilondieresistonos" unicode="&#x3b0;" horiz-adv-x="1122" 
d="M979 444q0 -477 -418 -477q-210 0 -314 112t-104 365v611h119v-611q0 -194 71 -284t231 -90t228 90q69 90 68 284v611h119v-611zM557 1503h139l-139 -295h-106zM731 1434h127v-158h-127v158zM270 1434h125v-158h-125v158z" />
    <glyph glyph-name="alpha" unicode="&#x3b1;" horiz-adv-x="1357" 
d="M244 516q0 -217 82.5 -331.5t229.5 -114.5t224.5 112.5t159.5 341.5q-69 248 -144 354.5t-229 106.5q-231 0 -277 -172t-46 -297zM561 -33q-224 0 -337 152t-113 412t125 408t322 148t291.5 -106.5t158.5 -321.5l137 396h112l-200 -545l76 -252q32 -112 51.5 -140t36 -36
t43.5 -8t63 12l21 -90q-149 -56 -203.5 -0.5t-87.5 158.5l-68 225q-70 -189 -168.5 -300.5t-259.5 -111.5z" />
    <glyph glyph-name="beta" unicode="&#x3b2;" horiz-adv-x="1165" 
d="M842 1118q0 258 -273 258q-158 0 -232.5 -79.5t-74.5 -249.5v-607q0 -169 108.5 -264.5t263.5 -95.5t232.5 85t77.5 222q0 243 -130 293.5t-218 50.5h-129v103h84q199 0 245 106.5t46 177.5zM143 1055q0 199 111.5 311.5t311.5 112.5t299.5 -96.5t99.5 -270.5t-86 -233.5
t-129 -75.5q124 -19 220.5 -119t96.5 -291t-131 -303.5t-307 -112.5q-106 0 -204.5 43t-162.5 134v-551h-119v1452z" />
    <glyph glyph-name="gamma" unicode="&#x3b3;" horiz-adv-x="1017" 
d="M565 -397h-119v426l-434 1026h138l362 -899l360 899h134l-441 -1032v-420z" />
    <glyph glyph-name="delta" unicode="&#x3b4;" horiz-adv-x="1169" 
d="M238 469q0 -184 91 -291.5t265 -107.5t261 105t87 284q0 250 -137 334.5t-219 121.5q-241 -54 -294.5 -201t-53.5 -245zM223.5 797.5q112.5 129.5 265.5 171.5q-129 73 -176 125t-47 146t89 166.5t266 72.5q178 0 265 -72t103 -195l-102 -20q-20 102 -84.5 146t-178.5 44
t-180.5 -36.5t-66.5 -102.5t45 -105t188 -111q143 -71 230.5 -132t137.5 -128t69.5 -140.5t19.5 -221.5t-124 -293t-354 -145q-231 0 -354.5 140t-123.5 351q0 210 112.5 339.5z" />
    <glyph glyph-name="epsilon" unicode="&#x3b5;" horiz-adv-x="1058" 
d="M561 989q-301 0 -301 -192q0 -104 60.5 -150.5t181.5 -46.5h219v-98h-211q-272 0 -272 -211q0 -117 76.5 -171t252.5 -54q241 0 272 85t38 136h108q-15 -144 -101.5 -232t-324.5 -88q-340 0 -392 122t-52 205t52 154.5t150 100.5q-72 23 -126 83t-54 136q0 320 434 319
q350 0 398 -272l-107 -18q-33 192 -301 192z" />
    <glyph glyph-name="zeta" unicode="&#x3b6;" horiz-adv-x="944" 
d="M178 1462h737v-102q-45 -33 -112.5 -82t-314 -259t-246.5 -511q0 -174 68.5 -261.5t232.5 -135.5l121 -37q158 -47 225 -113.5t67 -159.5q0 -134 -102 -221l-76 60q16 16 41 57t25 94t-45 96t-160 78l-113 33q-215 61 -313 172.5t-98 316.5q0 381 298 609.5t347 263.5
h-582v102z" />
    <glyph glyph-name="eta" unicode="&#x3b7;" horiz-adv-x="1146" 
d="M653 1087q353 0 353 -385v-1099h-119v1067q0 166 -59.5 238.5t-198.5 72.5t-244 -98q-61 -53 -92 -109.5t-31 -155.5v-618h-119v1055h119v-172q161 204 391 204z" />
    <glyph glyph-name="theta" unicode="&#x3b8;" horiz-adv-x="1206" 
d="M331 1222q-84 -154 -93 -442h729q-9 292 -92 444t-271.5 152t-272.5 -154zM607 66q194 0 276 155.5t86 456.5h-731q6 -450 137 -531t232 -81zM601 -37q-232 0 -359 185.5t-127 570.5q0 566 190.5 663t302.5 97q229 0 356.5 -186.5t127.5 -572.5t-129.5 -571.5
t-361.5 -185.5z" />
    <glyph glyph-name="iota" unicode="&#x3b9;" horiz-adv-x="516" 
d="M373 -25q-123 0 -176.5 71t-53.5 196v813h119v-770q0 -115 31 -161t103 -46t106 14l14 -98q-67 -19 -143 -19z" />
    <glyph glyph-name="kappa" unicode="&#x3ba;" horiz-adv-x="1009" 
d="M143 1055h119v-557l543 557h143l-362 -379l413 -676h-143l-360 592l-234 -234v-358h-119v1055z" />
    <glyph glyph-name="lambda" unicode="&#x3bb;" horiz-adv-x="1019" 
d="M249 1483q109 0 169.5 -52t111.5 -186l478 -1245h-134l-350 942l-385 -942h-127l455 1079l-49 125q-48 110 -82.5 141t-90.5 31t-114 -22l-29 98q87 31 147 31z" />
    <glyph glyph-name="uni03BC" unicode="&#x3bc;" horiz-adv-x="1120" 
d="M258 -399h-119v1454h119v-682q0 -166 61 -233q61 -66 179 -66t239 97t121 237v647h119v-1055h-119v168q-159 -201 -375 -201q-68 1 -125 15t-100 65v-446z" />
    <glyph glyph-name="nu" unicode="&#x3bd;" horiz-adv-x="1015" 
d="M12 1055h138l358 -926l366 926h130l-426 -1055h-140z" />
    <glyph glyph-name="xi" unicode="&#x3be;" horiz-adv-x="989" 
d="M552 1397q-146 0 -223 -70t-77 -207t80 -203.5t190 -66.5h226v-98h-201q-154 0 -245 -76t-91 -229t77.5 -228.5t233.5 -107.5l174 -39q158 -33 219.5 -107.5t61.5 -172.5t-44 -149t-59 -63l-75 60q16 16 40.5 57t24.5 97t-49 101.5t-156 69.5l-182 41
q-182 41 -285.5 143.5t-103.5 266.5t71.5 256t176.5 127q-92 27 -149.5 111t-57.5 184q0 188 112.5 296.5t300.5 108.5q381 0 419 -301l-107 -22q-20 115 -88 168t-214 53z" />
    <glyph glyph-name="omicron" unicode="&#x3bf;" horiz-adv-x="1206" 
d="M111 523q0 258 133.5 411t362.5 153q230 0 359.5 -151t129.5 -406q0 -254 -133 -408.5t-364 -154.5t-359.5 149t-128.5 407zM602 70q187 0 277 125.5t90 334.5q0 317 -134.5 386t-232.5 69t-167.5 -36t-112.5 -97t-63.5 -144t-20.5 -179.5t20.5 -180.5t88.5 -181t255 -97
z" />
    <glyph glyph-name="pi" unicode="&#x3c0;" horiz-adv-x="1187" 
d="M1020 -25q-117 0 -169 72t-52 213v692h-445v-952h-118v952h-203v103h1097v-103h-212v-690q0 -104 30 -144t86 -40t76 8l12 -96q-45 -15 -102 -15z" />
    <glyph glyph-name="rho" unicode="&#x3c1;" horiz-adv-x="1193" 
d="M956 530q0 455 -344 455q-153 0 -252.5 -104.5t-99.5 -315.5v-112q0 -164 92 -273.5t253 -109.5t256 111.5t95 348.5zM143 551q0 260 130 398t351 138t340 -149.5t119 -402.5t-123.5 -410.5t-353.5 -157.5q-117 0 -204 50.5t-140 121.5v-536h-119v948z" />
    <glyph glyph-name="sigma1" unicode="&#x3c2;" horiz-adv-x="1071" 
d="M604 985q-176 0 -269 -122t-93 -312q0 -306 114.5 -365t182.5 -73l155 -35q162 -37 232.5 -104.5t70.5 -153.5t-31 -146.5t-71 -93.5l-76 60q12 14 39 53t27 105q0 123 -207 167l-160 35q-221 50 -312 178.5t-91 365t131.5 390t355.5 153.5q170 0 277.5 -86t142.5 -253
l-115 -29q-56 266 -303 266z" />
    <glyph glyph-name="sigma" unicode="&#x3c3;" horiz-adv-x="1208" 
d="M942 489q0 280 -190 463h-109q-188 0 -296.5 -104.5t-108.5 -335.5q0 -312 123.5 -377t266.5 -65t228.5 115t85.5 304zM232 110.5q-121 143.5 -121 390.5t142 400.5t413 153.5h469v-103h-263q98 -90 147.5 -212t49.5 -244t-32.5 -217t-130 -203.5t-325.5 -108.5
t-349 143.5z" />
    <glyph glyph-name="tau" unicode="&#x3c4;" horiz-adv-x="987" 
d="M383 289v663h-350v103h897v-103h-428v-635q0 -141 50 -192t150 -51t185 35l20 -97q-94 -41 -225 -41q-299 0 -299 318z" />
    <glyph glyph-name="upsilon" unicode="&#x3c5;" horiz-adv-x="1122" 
d="M979 444q0 -477 -418 -477q-211 0 -314.5 112.5t-103.5 364.5v611h119v-611q0 -195 70.5 -284.5t230.5 -89.5t228.5 90t68.5 284v611h119v-611z" />
    <glyph glyph-name="phi" unicode="&#x3c6;" horiz-adv-x="1511" 
d="M1282 512q0 229 -120 347t-349 128v-917q334 19 401.5 178.5t67.5 263.5zM229 531q0 -215 119 -333t350 -128v917q-219 -10 -344 -125.5t-125 -330.5zM102 526q0 250 167 405.5t490 155.5t486.5 -157t163.5 -404q0 -246 -166.5 -395.5t-429.5 -161.5v-366h-115v368
q-455 23 -525.5 229t-70.5 326z" />
    <glyph glyph-name="chi" unicode="&#x3c7;" horiz-adv-x="1009" 
d="M1005 -420q-98 0 -153 61.5t-131 217.5l-201 413l-356 -669h-125l418 778l-215 444q-74 158 -158 158q-44 0 -80 -18l-33 90q57 31 121 30q94 0 152.5 -64.5t115.5 -182.5l170 -357l299 574h123l-360 -680l250 -508q50 -103 87 -143.5t80 -40.5q42 0 83 20l32 -90
q-64 -33 -119 -33z" />
    <glyph glyph-name="psi" unicode="&#x3c8;" horiz-adv-x="1568" 
d="M727 1055h115v-977q232 0 348.5 122.5t116.5 407.5v447h118v-486q0 -294 -159.5 -445t-423.5 -151v-370h-115v370q-264 0 -424 147t-160 449v486h119v-447q0 -414 177 -472t288 -58v977z" />
    <glyph glyph-name="omega" unicode="&#x3c9;" horiz-adv-x="1622" 
d="M1315 1069q196 -269 196 -587q0 -116 -30.5 -217t-108.5 -199.5t-246 -98.5q-136 0 -211.5 67.5t-103.5 168.5q-45 -162 -143 -199t-174 -37q-170 0 -276.5 129.5t-106.5 405.5q0 161 61.5 313t134.5 254l94 -51q-16 -29 -45.5 -76t-79 -159t-49.5 -256q0 -249 75.5 -353
t198.5 -104q122 0 187.5 97t65.5 282v276h114v-276q0 -184 65.5 -281.5t190.5 -97.5q189 0 230 157t41 263q0 181 -48.5 296.5t-125.5 231.5z" />
    <glyph glyph-name="iotadieresis" unicode="&#x3ca;" horiz-adv-x="516" 
d="M143 1055h119v-770q0 -115 31 -161t103 -46t106 14l14 -98q-61 -17 -143 -19q-123 0 -176 71t-54 196v813zM305 1442h135v-174h-135v174zM-23 1442h134v-174h-134v174z" />
    <glyph glyph-name="upsilondieresis" unicode="&#x3cb;" horiz-adv-x="1122" 
d="M979 444q0 -477 -418 -477q-210 0 -314 112t-104 365v611h119v-611q0 -194 71 -284t231 -90t228 90q69 90 68 284v611h119v-611zM659 1442h136v-174h-136v174zM332 1442h133v-174h-133v174z" />
    <glyph glyph-name="omicrontonos" unicode="&#x3cc;" horiz-adv-x="1214" 
d="M973 937q131 -152 131 -405t-134 -410q-134 -155 -368 -155q-117 0 -208 39q-178 76 -250 287q-34 102 -34 230q0 129 36 233q72 211 257 292q92 40 207 40q232 -2 363 -151zM607 985q-190 0 -284 -133q-85 -118 -85 -326t85 -323q96 -133 284 -133t284 133
q84 114 86 327q0 316 -201 419q-70 36 -169 36zM672 1503h139l-174 -295h-107z" />
    <glyph glyph-name="upsilontonos" unicode="&#x3cd;" horiz-adv-x="1122" 
d="M979 444q0 -477 -418 -477q-210 0 -314 112t-104 365v611h119v-611q0 -194 71 -284t231 -90t228 90q69 90 68 284v611h119v-611zM649 1503h139l-174 -295h-106z" />
    <glyph glyph-name="omegatonos" unicode="&#x3ce;" horiz-adv-x="1622" 
d="M754 449v276h114v-276q0 -183 66 -281t190 -98q190 0 249 231q22 83 22 189q0 237 -118 440q-30 49 -56 88l94 51q196 -269 196 -548t-108 -417q-108 -137 -277 -137q-136 0 -211 67t-104 169q-65 -233 -315 -236q-268 0 -355 286q-31 101 -31 222q1 319 197 594l94 -51
q-16 -29 -46 -76q-126 -197 -128 -442q0 -326 166 -407q49 -24 105 -23q124 0 190 97t66 282zM842 1503h139l-174 -295h-107z" />
    <glyph glyph-name="uni0400" unicode="&#x400;" horiz-adv-x="1204" 
d="M168 1462h919v-112h-794v-537h754v-117h-754v-581h829l-28 -115h-926v1462zM397 1849h162l227 -264h-129z" />
    <glyph glyph-name="afii10023" unicode="&#x401;" horiz-adv-x="1204" 
d="M168 1462h919v-112h-794v-537h754v-117h-754v-581h829l-28 -115h-926v1462zM729 1806h139v-178h-139v178zM393 1806h137v-178h-137v178z" />
    <glyph glyph-name="afii10051" unicode="&#x402;" horiz-adv-x="1552" 
d="M549 0h-123v1352h-401v110h1052v-110h-528v-523q165 70 351 70t289 -39t186 -124.5t83 -289.5q0 -446 -567 -446h-92v109h114q223 0 320.5 80.5t97.5 252.5t-94 260.5t-309 88.5t-379 -66v-725z" />
    <glyph glyph-name="afii10052" unicode="&#x403;" horiz-adv-x="1060" 
d="M1036 1462v-112h-743v-1350h-125v1462h868zM700 1849h162l-260 -264h-129z" />
    <glyph glyph-name="afii10053" unicode="&#x404;" horiz-adv-x="1466" 
d="M928 696h-686q8 -283 144.5 -452.5t371.5 -169.5q308 0 372 135t78 215h123q-29 -209 -174 -335t-399 -126q-294 0 -468.5 200.5t-174.5 563.5t182.5 567.5t456.5 204.5q234 0 370.5 -110.5t184.5 -309.5l-119 -26q-41 166 -145.5 252t-290.5 86q-224 0 -359 -163.5
t-151 -422.5h684v-109z" />
    <glyph glyph-name="afii10054" unicode="&#x405;" horiz-adv-x="1314" 
d="M254 1108q0 -126 65 -187t238 -92l207 -36q333 -60 404 -256q26 -70 26 -159q0 -182 -136 -299q-136 -116 -380 -116q-386 0 -524 225q-49 80 -62 195h123q33 -164 141 -237t324 -72q299 0 360 186q34 104 8 214q-37 154 -290 196l-183 30q-222 38 -334 127t-112 281
q0 191 149 292t373 99q358 0 473 -220q33 -62 52 -126l-115 -33q-44 140 -129 205t-279 66q-399 0 -399 -283z" />
    <glyph glyph-name="afii10055" unicode="&#x406;" horiz-adv-x="460" 
d="M168 1462h125v-1462h-125v1462z" />
    <glyph glyph-name="afii10056" unicode="&#x407;" horiz-adv-x="460" 
d="M168 1462h125v-1462h-125v1462zM330 1806h139v-178h-139v178zM-6 1806h137v-178h-137v178z" />
    <glyph glyph-name="afii10057" unicode="&#x408;" horiz-adv-x="1179" 
d="M897 483v979h125v-991q0 -256 -124 -382t-339 -126q-452 0 -508 440h127q47 -332 369 -329q197 0 273 106t77 303z" />
    <glyph glyph-name="afii10058" unicode="&#x409;" horiz-adv-x="2213" 
d="M1233 782v-673h377q309 0 346 123.5t37 203.5q0 173 -88.5 259.5t-335.5 86.5h-336zM1608 891q512 0 512 -447q0 -204 -120 -324t-413 -120h-477v1352h-483l-72 -582q-56 -436 -181.5 -608t-336.5 -172h-27v114h25q72 0 133 30t138 152.5t130 544.5l78 631h719v-571h375z
" />
    <glyph glyph-name="afii10059" unicode="&#x40a;" horiz-adv-x="2140" 
d="M1165 729v-620h371q307 0 345 115.5t38 229t-86.5 194.5t-310.5 81h-357zM2046 418q0 -418 -533 -418h-473v725h-747v-725h-125v1462h125v-624h747v624h125v-624h369q277 0 394.5 -119.5t117.5 -300.5z" />
    <glyph glyph-name="afii10060" unicode="&#x40b;" horiz-adv-x="1507" 
d="M837 862q280 0 391 -111.5t111 -334.5v-416h-122v371q0 203 -78 293t-293 90q-162 0 -326 -66v-688h-125v1354h-370v108h1022v-108h-527v-561q163 69 317 69z" />
    <glyph glyph-name="afii10061" unicode="&#x40c;" horiz-adv-x="1265" 
d="M1198 1343q-45 9 -96 9t-83 -22q-56 -38 -101 -136l-93 -193q-80 -166 -198 -223q59 -16 102 -59t102 -127l414 -592h-149l-348 502q-78 114 -138 157t-161 43h-158v-702h-123v1462h123v-643h125q112 1 186 63t131 183l88 184q83 174 204 203q42 10 76 10t64 -5
q31 -5 45 -7zM745 1849h162l-260 -264h-129z" />
    <glyph glyph-name="uni040D" unicode="&#x40d;" horiz-adv-x="1384" 
d="M1217 0h-121v1278l-791 -1278h-137v1462h123v-1276l788 1276h138v-1462zM422 1849h162l227 -264h-129z" />
    <glyph glyph-name="afii10062" unicode="&#x40e;" horiz-adv-x="1144" 
d="M226 72q65 0 101 13q102 37 183 220l41 88l-526 1069h143l446 -946l373 946h133l-458 -1106q-88 -213 -180 -303t-251 -90q-103 0 -178 39l29 104q79 -34 144 -34zM571 1673q96 0 147 51q50 51 54 129h98q0 -114 -79 -191t-221 -77t-219 76t-79 192h99q4 -78 54 -129
t146 -51z" />
    <glyph glyph-name="afii10145" unicode="&#x40f;" horiz-adv-x="1376" 
d="M293 113h790v1349h125v-1462h-444v-354h-119v354h-477v1462h125v-1349z" />
    <glyph glyph-name="afii10017" unicode="&#x410;" horiz-adv-x="1353" 
d="M973 561l-301 764l-297 -764h598zM604 1462h148l577 -1462h-135l-176 446h-688l-174 -446h-131z" />
    <glyph glyph-name="afii10018" unicode="&#x411;" horiz-adv-x="1271" 
d="M293 762v-653h375q213 0 298 75.5t85 241.5t-94 251t-330 85h-334zM666 870q512 0 512 -438q0 -202 -119 -317t-414 -115h-475v1462h852v-112h-729v-480h373z" />
    <glyph glyph-name="afii10019" unicode="&#x412;" horiz-adv-x="1277" 
d="M666 111q318 0 371 171q17 54 18 121q0 150 -90 228t-293 78h-381v-598h375zM649 821q190 0 278 69q87 69 87 204t-87 197t-300 63h-336v-533h358zM1137 1100q0 -232 -224 -326q217 -75 259 -251q34 -140 -13 -271q-56 -158 -248 -220q-98 -32 -241 -32h-502v1462h463
q410 0 484 -223q22 -66 22 -139z" />
    <glyph glyph-name="afii10020" unicode="&#x413;" horiz-adv-x="1060" 
d="M1036 1462v-112h-743v-1350h-125v1462h868z" />
    <glyph glyph-name="afii10021" unicode="&#x414;" horiz-adv-x="1413" 
d="M1112 113v1239h-543l-24 -244q-73 -729 -287 -995h854zM119 0v-354h-119v467h106q237 205 322 1056l29 293h780v-1349h129v-467h-119v354h-1128z" />
    <glyph glyph-name="afii10022" unicode="&#x415;" horiz-adv-x="1204" 
d="M168 1462h919v-112h-794v-537h754v-117h-754v-581h829l-28 -115h-926v1462z" />
    <glyph glyph-name="afii10024" unicode="&#x416;" horiz-adv-x="1990" 
d="M1732.5 1323.5q-43.5 -28.5 -92.5 -131.5l-88 -195q-74 -159 -196 -219q57 -15 103 -59t102 -127l409 -592h-149l-344 502q-77 113 -123.5 146.5t-85.5 43.5t-90 10h-121v-702h-123v702h-127q-100 0 -161 -42t-140 -158l-344 -502h-142l406 590q57 84 102 127t105 59
q-125 55 -195 223l-92 213q-38 90 -78 115t-99 25q-58 0 -95 -11l-13 107q14 2 39 8t68 6q102 0 166 -39t112 -155l89 -203q53 -123 125.5 -184.5t183.5 -61.5h90v643h123v-643h88q111 0 185.5 60.5t129.5 183.5l84 184q57 125 127 170t170 45q19 0 49 -5t45 -7l-12 -107
q-45 9 -96 9t-94.5 -28.5z" />
    <glyph glyph-name="afii10025" unicode="&#x417;" horiz-adv-x="1230" 
d="M997 399q0 308 -338 308h-237v112h237q133 0 220.5 73t87.5 216t-92.5 212t-253.5 69q-247 0 -311 -97.5t-85 -161.5l-116 21q33 144 161.5 246t354.5 102t345.5 -105.5t119.5 -263.5q0 -254 -211 -354q243 -89 243 -386t-190.5 -362t-328.5 -65q-256 0 -378.5 114.5
t-132.5 280.5h119q47 -286 405 -286q381 0 381 327z" />
    <glyph glyph-name="afii10026" unicode="&#x418;" horiz-adv-x="1384" 
d="M1217 0h-121v1278l-791 -1278h-137v1462h123v-1276l788 1276h138v-1462z" />
    <glyph glyph-name="afii10027" unicode="&#x419;" horiz-adv-x="1384" 
d="M1217 0h-121v1278l-791 -1278h-137v1462h123v-1276l788 1276h138v-1462zM690 1673q96 0 147 51q50 51 54 129h98q0 -115 -80 -191q-80 -77 -220 -77q-141 0 -219 76q-77 76 -79 192h98q5 -78 55 -129t146 -51z" />
    <glyph glyph-name="afii10028" unicode="&#x41a;" horiz-adv-x="1265" 
d="M1008 1322.5q-45 -29.5 -90 -128.5l-93 -193q-80 -166 -198 -223q59 -16 102 -59t102 -127l414 -592h-149l-348 502q-77 113 -123.5 146.5t-85.5 43.5t-90 10h-158v-702h-123v1462h123v-643h125q111 0 185.5 62.5t131.5 183.5l88 184q83 174 164.5 193.5t115.5 19.5
t64 -5q31 -5 45 -7l-12 -107q-45 9 -95 9t-95 -29.5z" />
    <glyph glyph-name="afii10029" unicode="&#x41b;" horiz-adv-x="1456" 
d="M1163 1352h-536l-72 -582q-56 -436 -181.5 -608t-336.5 -172h-27v114h25q72 0 133 30t138 152.5t130 544.5l78 631h774v-1462h-125v1352z" />
    <glyph glyph-name="afii10030" unicode="&#x41c;" horiz-adv-x="1716" 
d="M285 0h-117v1462h162l528 -1317l537 1317h153v-1462h-116v1253q-11 -20 -517 -1253h-118l-512 1245v-1245z" />
    <glyph glyph-name="afii10031" unicode="&#x41d;" horiz-adv-x="1411" 
d="M168 1462h125v-647h825v647h125v-1462h-125v698h-825v-698h-125v1462z" />
    <glyph glyph-name="afii10032" unicode="&#x41e;" horiz-adv-x="1548" 
d="M774 74q255 0 392 179t137 477q0 297 -139 477t-392 181q-254 1 -390 -179t-136 -479q0 -300 136 -478q137 -178 392 -178zM777 -37q-299 0 -480 199q-182 199 -182 565t185 569t478 203q294 0 474 -199t182 -563q0 -190 -50 -335q-97 -284 -344 -388q-121 -50 -263 -51z
" />
    <glyph glyph-name="afii10033" unicode="&#x41f;" horiz-adv-x="1388" 
d="M1096 1350h-803v-1350h-125v1462h1053v-1462h-125v1350z" />
    <glyph glyph-name="afii10034" unicode="&#x420;" horiz-adv-x="1267" 
d="M637 700q334 0 385 195q16 61 16 141q0 168 -86 242t-317 76h-344v-654h346zM168 1462h471q427 0 504 -259q48 -161 -1 -335q-81 -276 -507 -276h-344v-592h-123v1462z" />
    <glyph glyph-name="afii10035" unicode="&#x421;" horiz-adv-x="1452" 
d="M754 1499q369 0 499 -280q41 -86 66 -187l-119 -26q-50 195 -151 290t-295 95q-235 1 -372 -183q-138 -184 -138 -476t134 -475t380 -183q319 0 414 238q30 73 45 157h122q-29 -229 -177 -368q-148 -138 -423 -138t-449 200t-175 563q0 363 183 568t456 205z" />
    <glyph glyph-name="afii10036" unicode="&#x422;" horiz-adv-x="1208" 
d="M543 1348h-508v114h1139v-114h-506v-1348h-125v1348z" />
    <glyph glyph-name="afii10037" unicode="&#x423;" horiz-adv-x="1144" 
d="M226 72q65 0 132 24.5t152 208.5l41 88l-526 1069h143l446 -946l373 946h133l-458 -1106q-88 -213 -180 -303t-251 -90q-97 0 -178 39l29 104q79 -34 144 -34z" />
    <glyph glyph-name="afii10038" unicode="&#x424;" horiz-adv-x="1654" 
d="M236 762q0 -230 132 -344t396 -131v970q-528 -23 -528 -495zM1417 774q0 211 -130 341t-398 142v-970q397 25 462.5 194.5t65.5 292.5zM1370 349q-178 -144 -481 -163v-186h-125v186q-466 26 -563 230.5t-97 345.5q0 271 175 427.5t485 168.5v166h125v-166
q309 -12 484 -166.5t175 -426.5t-178 -416z" />
    <glyph glyph-name="afii10039" unicode="&#x425;" horiz-adv-x="1255" 
d="M549 774l-479 688h149l408 -604l411 604h133l-477 -698l533 -764h-150l-461 674l-452 -674h-135z" />
    <glyph glyph-name="afii10040" unicode="&#x426;" horiz-adv-x="1349" 
d="M168 0v1462h125v-1349h756v1349h125v-1349h129v-467h-119v354h-1016z" />
    <glyph glyph-name="afii10041" unicode="&#x427;" horiz-adv-x="1263" 
d="M638 608q-167 0 -263 30t-184.5 112t-88.5 305v407h123v-362q0 -202 84.5 -292.5t290.5 -90.5t371 65v680h125v-1462h-125v678q-166 -70 -333 -70z" />
    <glyph glyph-name="afii10042" unicode="&#x428;" horiz-adv-x="1910" 
d="M168 0v1462h125v-1349h600v1349h125v-1349h600v1349h125v-1462h-1575z" />
    <glyph glyph-name="afii10043" unicode="&#x429;" horiz-adv-x="1918" 
d="M168 0v1462h125v-1349h600v1349h125v-1349h600v1349h125v-1349h129v-467h-119v354h-1585z" />
    <glyph glyph-name="afii10044" unicode="&#x42a;" horiz-adv-x="1417" 
d="M438 782v-673h361q221 0 309 78.5t88 250.5q0 173 -93 258.5t-325 85.5h-340zM315 1350h-309v112h432v-571h353q294 0 413 -122.5t119 -330.5q0 -207 -124.5 -322.5t-422.5 -115.5h-461v1350z" />
    <glyph glyph-name="afii10045" unicode="&#x42b;" horiz-adv-x="1687" 
d="M291 782v-673h360q221 0 309.5 78t88.5 251t-94 258.5t-324 85.5h-340zM643 891q533 0 533 -449q0 -210 -125 -326t-422 -116h-461v1462h123v-571h352zM1395 1462h125v-1462h-125v1462z" />
    <glyph glyph-name="afii10046" unicode="&#x42c;" horiz-adv-x="1294" 
d="M291 782v-673h385q221 0 309 78.5t88 250.5q0 173 -93 258.5t-325 85.5h-364zM668 891q294 0 413 -122.5t119 -330.5q0 -207 -124.5 -322.5t-422.5 -115.5h-485v1462h123v-571h377z" />
    <glyph glyph-name="afii10047" unicode="&#x42d;" horiz-adv-x="1454" 
d="M150 1079q123 420 590 420q263 0 431 -196t168 -561t-167 -572t-459 -207t-424.5 131t-151.5 330h121q28 -163 127.5 -256.5t336.5 -93.5q468 0 488 622h-684v109h684q-13 260 -134.5 423t-321.5 163q-201 0 -316.5 -78t-171.5 -260z" />
    <glyph glyph-name="afii10048" unicode="&#x42e;" horiz-adv-x="1984" 
d="M1231 74q131 0 225 47t157.5 133t94.5 208t31 345.5t-128.5 402.5t-381.5 179t-381.5 -176.5t-128.5 -565.5t190.5 -481t321.5 -92zM293 698v-698h-125v1462h125v-649h305q19 331 189.5 508.5t452.5 177.5t456 -195t174 -568q0 -372 -170.5 -572.5t-464.5 -200.5
q-289 0 -462 189t-177 546h-303z" />
    <glyph glyph-name="afii10049" unicode="&#x42f;" horiz-adv-x="1325" 
d="M1034 745v609h-329q-317 0 -358.5 -114t-41.5 -177q0 -154 98.5 -236t278.5 -82h352zM178 1022q0 104 25.5 179t123.5 168t384 93h446v-1462h-123v639h-291q-127 0 -207.5 -59.5t-136.5 -182.5l-180 -397h-137l213 457q31 66 69.5 120t106.5 91l-27 10
q-141 51 -203.5 145.5t-62.5 198.5z" />
    <glyph glyph-name="afii10065" unicode="&#x430;" horiz-adv-x="1077" 
d="M199 282q0 -80 53.5 -140t199.5 -60q183 0 263 85t89 139t9 104v159l-195 -8q-334 -11 -376.5 -105t-42.5 -174zM74 297q0 194 145.5 271.5t386.5 86.5l205 9v32q0 156 -60.5 228.5t-215.5 72.5q-205 0 -248 -67.5t-54 -106.5l-108 17q57 258 414 258q310 0 352.5 -150.5
t42.5 -245.5v-702h-119v150q-143 -175 -375 -175q-166 0 -266 82t-100 240z" />
    <glyph glyph-name="afii10066" unicode="&#x431;" horiz-adv-x="1196" 
d="M641 1004q204 0 324 -132t120 -374t-119.5 -388.5t-351.5 -146.5q-266 0 -382.5 180.5t-116.5 470.5q0 369 71.5 480.5t125.5 169.5t173 113t314 87l157 27l15 -100l-183 -33q-238 -41 -313 -96.5t-117 -99.5t-80 -152.5t-45 -243.5q148 238 408 238zM958 494
q0 407 -325 407q-236 0 -308.5 -140t-72.5 -226q0 -469 364 -469q342 0 342 428z" />
    <glyph glyph-name="afii10067" unicode="&#x432;" horiz-adv-x="1091" 
d="M604 100q152 0 215.5 50.5t63.5 147.5t-70 149.5t-205 52.5h-346v-400h342zM592 600q135 0 196.5 46t61.5 138.5t-65.5 137.5t-209.5 45h-313v-367h330zM971 797q0 -177 -160 -244q102 -29 148.5 -100t46.5 -143q0 -147 -97 -228.5t-303 -81.5h-463v1067h432
q220 0 308 -78t88 -192z" />
    <glyph glyph-name="afii10068" unicode="&#x433;" horiz-adv-x="845" 
d="M825 1067v-106h-563v-961h-119v1067h682z" />
    <glyph glyph-name="afii10069" unicode="&#x434;" horiz-adv-x="1120" 
d="M844 104v861h-398l-16 -162q-51 -525 -184 -699h598zM963 1067v-963h120v-391h-108v287h-856v-287h-109v391h99q164 173 215 750l18 213h621z" />
    <glyph glyph-name="afii10070" unicode="&#x435;" horiz-adv-x="1146" 
d="M920 606q0 287 -121 342.5t-209 55.5q-154 0 -246 -98.5t-111 -299.5h687zM1042 580v-76h-811q0 -191 94.5 -314.5t264.5 -123.5q214 0 260.5 81.5t58.5 128.5h115q-25 -137 -131.5 -223t-316.5 -86t-337.5 148.5t-127.5 414.5t133.5 418t355.5 152t332 -143.5
t110 -376.5z" />
    <glyph glyph-name="afii10072" unicode="&#x436;" horiz-adv-x="1497" 
d="M39 1057q59 10 95 10q81 0 123.5 -37t86.5 -137l66 -145q39 -86 92 -123t133 -37h57v479h115v-479h53q86 0 137.5 37t89.5 123l66 143q41 90 89 133t144 43q24 0 45 -4t33 -6l-12 -96q-40 8 -83 8q-44 0 -70.5 -30t-49.5 -83l-67 -149q-48 -105 -138 -154q41 -16 72 -47
t66 -78l295 -428h-144l-270 395q-37 53 -77 77t-112 24h-67v-496h-115v496h-71q-72 0 -114 -23.5t-79 -77.5l-270 -395h-138l295 428q73 97 138 123q-83 31 -142 156l-75 163q-21 52 -38.5 69t-35 23.5t-40.5 6.5t-71 -8z" />
    <glyph glyph-name="afii10073" unicode="&#x437;" horiz-adv-x="1042" 
d="M522 1100q197 0 295 -80t98 -188q0 -109 -51 -173.5t-127 -95.5q98 -31 150.5 -101.5t52.5 -155.5q0 -162 -108 -250.5t-326 -88.5q-404 0 -434 322h114q23 -121 100.5 -171t235.5 -50t225.5 61t67.5 163t-70.5 159t-199.5 57h-211v98h219q121 0 181.5 53.5t60.5 143.5
q0 196 -277 196q-155 0 -221.5 -45.5t-101.5 -148.5l-105 22q67 273 432 273z" />
    <glyph glyph-name="afii10074" unicode="&#x438;" horiz-adv-x="1130" 
d="M987 0h-115v897l-604 -897h-125v1067h115v-897l600 897h129v-1067z" />
    <glyph glyph-name="afii10075" unicode="&#x439;" horiz-adv-x="1130" 
d="M987 0h-115v897l-604 -897h-125v1067h115v-897l600 897h129v-1067zM256 1477h98q4 -78 54 -129q50 -52 147 -52q96 0 146 52t55 129h98q0 -116 -80 -192q-80 -77 -220 -77q-141 0 -220 77q-78 77 -78 192z" />
    <glyph glyph-name="afii10076" unicode="&#x43a;" horiz-adv-x="980" 
d="M853 969q-44 0 -70.5 -30t-49.5 -83l-67 -149q-47 -104 -138 -154q41 -16 72 -47t66 -78l295 -428h-144l-270 395q-37 53 -77 77t-112 24h-96v-496h-119v1067h119v-479h80q86 0 137 37t90 123l66 143q41 90 90 133t145 43q22 0 44 -4t34 -6l-12 -96q-39 8 -83 8z" />
    <glyph glyph-name="afii10077" unicode="&#x43b;" horiz-adv-x="1140" 
d="M879 965h-414l-49 -408q-36 -304 -127 -435.5t-266 -131.5h-23v104h16q124 0 191.5 111.5t101.5 425.5l49 436h639v-1067h-118v965z" />
    <glyph glyph-name="afii10078" unicode="&#x43c;" horiz-adv-x="1409" 
d="M145 1067h164l389 -948l402 948h164v-1067h-115v918l-399 -918h-115l-375 901v-901h-115v1067z" />
    <glyph glyph-name="afii10079" unicode="&#x43d;" horiz-adv-x="1159" 
d="M143 1067h119v-455h635v455h119v-1067h-119v508h-635v-508h-119v1067z" />
    <glyph glyph-name="afii10080" unicode="&#x43e;" horiz-adv-x="1214" 
d="M111 528q0 254 135 413t364.5 159t361.5 -153.5t132 -408.5t-134.5 -413t-366.5 -158t-362 153.5t-130 407.5zM886 196.5q91 126.5 91 340.5q0 322 -134.5 391t-234.5 69t-170.5 -35.5t-114.5 -98t-64.5 -146.5t-20.5 -182.5t20.5 -183.5t89.5 -183t258 -98t280 126.5z
" />
    <glyph glyph-name="afii10081" unicode="&#x43f;" horiz-adv-x="1130" 
d="M868 961h-606v-961h-119v1067h844v-1067h-119v961z" />
    <glyph glyph-name="afii10082" unicode="&#x440;" horiz-adv-x="1193" 
d="M258 492q0 -144 32.5 -220t95.5 -122q62 -46 110 -63t118 -17q155 0 248.5 114t93.5 356q0 243 -97 350t-229 107t-212 -60q-160 -120 -160 -353v-92zM262 -397h-119v1464h119v-158q72 90 158 140.5t206 50.5q224 0 340.5 -154.5t116.5 -411.5t-127 -412t-344 -155
t-350 176v-540z" />
    <glyph glyph-name="afii10083" unicode="&#x441;" horiz-adv-x="1134" 
d="M594 -33q-229 0 -356 150t-127 410t132.5 416.5t360.5 156.5q174 0 277.5 -89t136.5 -251l-115 -29q-56 266 -303 266q-181 0 -271.5 -124t-90.5 -397t132 -339.5t228 -66.5q154 0 224.5 74.5t95.5 199.5h118q-31 -178 -141.5 -277.5t-300.5 -99.5z" />
    <glyph glyph-name="afii10084" unicode="&#x442;" horiz-adv-x="921" 
d="M403 963h-383v104h881v-104h-379v-963h-119v963z" />
    <glyph glyph-name="afii10085" unicode="&#x443;" horiz-adv-x="1024" 
d="M336.5 -251.5q37.5 39.5 81.5 140.5l51 121l-457 1057h140l383 -915l346 915h131l-482 -1206q-47 -121 -112.5 -189.5t-160.5 -68.5t-177 30l29 105q72 -29 131 -29t96.5 39.5z" />
    <glyph glyph-name="afii10086" unicode="&#x444;" horiz-adv-x="1515" 
d="M1274 530q0 402 -461 422v-852q211 14 336 119.5t125 310.5zM238 523q0 -205 114.5 -308.5t345.5 -114.5v852q-211 -14 -335.5 -119t-124.5 -310zM111 522q0 222 162 370.5t425 160.5v409h115v-409q298 -15 443 -153t145 -367t-162 -375t-426 -158v-397h-115v399
q-453 23 -520 215.5t-67 304.5z" />
    <glyph glyph-name="afii10087" unicode="&#x445;" horiz-adv-x="983" 
d="M420 567l-359 500h140l293 -420l294 420h130l-351 -504l396 -563h-140l-334 479l-329 -479h-133z" />
    <glyph glyph-name="afii10088" unicode="&#x446;" horiz-adv-x="1114" 
d="M143 0v1067h119v-963h576v963h118v-963h121v-391h-108v287h-826z" />
    <glyph glyph-name="afii10089" unicode="&#x447;" horiz-adv-x="1021" 
d="M491 399q-137 0 -209.5 29t-136 95.5t-63.5 226.5v317h115v-276q0 -150 64.5 -219.5t216.5 -69.5t282 51v514h119v-1067h-119v453q-132 -54 -269 -54z" />
    <glyph glyph-name="afii10090" unicode="&#x448;" horiz-adv-x="1603" 
d="M143 0v1067h119v-963h479v963h119v-963h481v963h119v-1067h-1317z" />
    <glyph glyph-name="afii10091" unicode="&#x449;" horiz-adv-x="1615" 
d="M1458 104h121v-391h-109v287h-1327v1067h119v-963h479v963h119v-963h479v963h119v-963z" />
    <glyph glyph-name="afii10092" unicode="&#x44a;" horiz-adv-x="1140" 
d="M711 100q243 0 243 217q0 113 -55 171.5t-203 58.5h-329v-447h344zM0 1067h367v-420h352q181 0 270.5 -87.5t89.5 -237.5t-99 -236t-282 -86h-450v967h-248v100z" />
    <glyph glyph-name="afii10093" unicode="&#x44b;" horiz-adv-x="1384" 
d="M602 100q248 0 248 219q0 111 -55.5 169.5t-202.5 58.5h-330v-447h340zM262 1067v-420h352q273 0 317 -126t44 -193q0 -145 -94.5 -236.5t-294.5 -91.5h-443v1067h119zM1122 1067h119v-1067h-119v1067z" />
    <glyph glyph-name="afii10094" unicode="&#x44c;" horiz-adv-x="1060" 
d="M262 100h361q133 0 192 54.5t59 166.5t-55.5 169t-202.5 57h-354v-447zM262 1067v-420h379q179 0 268.5 -87.5t89.5 -232.5q0 -144 -96 -235.5t-291 -91.5h-469v1067h119z" />
    <glyph glyph-name="afii10095" unicode="&#x44d;" horiz-adv-x="1124" 
d="M397 494v100h492q-14 193 -97.5 298t-229.5 105t-218 -52t-113 -169l-110 25q41 135 147.5 217t288.5 82q220 0 338.5 -156t118.5 -408t-123.5 -410.5t-336.5 -158.5t-320.5 96.5t-120.5 243.5h114q29 -237 258.5 -237t313.5 115.5t92 308.5h-494z" />
    <glyph glyph-name="afii10096" unicode="&#x44e;" horiz-adv-x="1566" 
d="M979 70q181 0 265.5 125.5t84.5 341.5q0 324 -127 392t-223 68t-162.5 -35.5t-108.5 -98t-61.5 -146.5t-19.5 -182.5t19.5 -183.5t85.5 -183t247 -98zM262 489v-489h-119v1067h119v-477h244q16 236 143 373t342 137t340 -151t125 -411t-127.5 -415.5t-350.5 -155.5
q-219 0 -342.5 140t-131.5 382h-242z" />
    <glyph glyph-name="afii10097" unicode="&#x44f;" horiz-adv-x="1087" 
d="M825 557v410h-280q-147 0 -213 -47.5t-66 -153.5t64.5 -157.5t197.5 -51.5h297zM141 744q0 155 92.5 239t305.5 84h405v-1067h-119v457h-198q-107 0 -147 -21.5t-61.5 -49.5t-45.5 -73l-174 -313h-138l205 354q50 89 101 119q-14 2 -33 10q-100 35 -146.5 109t-46.5 152z
" />
    <glyph glyph-name="uni0450" unicode="&#x450;" horiz-adv-x="1146" 
d="M920 606q0 288 -179 369q-63 29 -151 29q-154 0 -246 -98t-111 -300h687zM1042 504h-811q0 -190 95 -315t264 -123q270 0 319 210h115q-25 -137 -131 -223t-317 -86t-339 151t-127 415t135 416q134 151 356 151t332 -146q111 -146 109 -374v-76zM340 1483h160l227 -275
h-127z" />
    <glyph glyph-name="afii10071" unicode="&#x451;" horiz-adv-x="1146" 
d="M920 606q0 288 -179 369q-63 29 -151 29q-154 0 -246 -98t-111 -300h687zM1042 504h-811q0 -190 95 -315t264 -123q270 0 319 210h115q-25 -137 -131 -223t-317 -86t-339 151t-127 415t135 416q134 151 356 151t332 -146q111 -146 109 -374v-76zM670 1442h135v-174h-135
v174zM342 1442h133v-174h-133v174z" />
    <glyph glyph-name="afii10099" unicode="&#x452;" horiz-adv-x="1187" 
d="M788 -274q82 0 113 51t31 135v715q0 166 -59.5 238.5t-198.5 72.5t-244 -98q-61 -53 -92 -109.5t-31 -155.5v-575h-119v1202h-188v90h188v170h119v-170h391v-90h-391v-362q161 204 391 204q353 0 353 -385v-675q0 -174 -33 -238.5t-83 -95.5t-146 -31t-177 31l25 100
q69 -24 151 -24z" />
    <glyph glyph-name="afii10100" unicode="&#x453;" horiz-adv-x="845" 
d="M825 1067v-106h-563v-961h-119v1067h682zM567 1483h160l-260 -275h-127z" />
    <glyph glyph-name="afii10101" unicode="&#x454;" horiz-adv-x="1124" 
d="M598 70q266 0 309 237h113q-25 -160 -139.5 -250t-288.5 -90q-234 0 -357.5 148t-123.5 407t131.5 418.5t363.5 159.5q320 0 398 -299l-111 -25q-41 162 -133 191.5t-172 29.5q-160 0 -249.5 -111.5t-102.5 -291.5h491v-100h-494q7 -302 138 -363t227 -61z" />
    <glyph glyph-name="afii10102" unicode="&#x455;" horiz-adv-x="1052" 
d="M546 68q153 0 216 59t63 143t-43 133t-178 72l-129 21q-182 30 -269 96.5t-87 205.5t112 220.5t285 81.5q285 0 341 -107.5t71 -163.5l-109 -22q-35 102 -97 146t-172 44t-165 -16t-89 -43t-48.5 -61.5t-14.5 -93.5t44.5 -102.5t181.5 -68.5l162 -26q166 -29 247.5 -99.5
t81.5 -208.5t-103.5 -224.5t-297.5 -86.5q-308 0 -379.5 119t-79.5 207h117q23 -123 104.5 -174t234.5 -51z" />
    <glyph glyph-name="afii10103" unicode="&#x456;" horiz-adv-x="417" 
d="M141 1462h135v-178h-135v178zM150 1067h118v-1067h-118v1067z" />
    <glyph glyph-name="afii10104" unicode="&#x457;" horiz-adv-x="417" 
d="M305 1442h135v-174h-135v174zM-23 1442h134v-174h-134v174zM150 1067h118v-1067h-118v1067z" />
    <glyph glyph-name="afii10105" unicode="&#x458;" horiz-adv-x="417" 
d="M141 1462h135v-178h-135v178zM6 -274q82 0 113 51t31 135v1155h118v-1083q0 -176 -48.5 -270.5t-196.5 -94.5q-113 0 -193 31l25 100q69 -24 151 -24z" />
    <glyph glyph-name="afii10106" unicode="&#x459;" horiz-adv-x="1714" 
d="M954 100h322q133 0 192.5 54.5t59.5 164.5q0 172 -91 200t-167 28h-316v-447zM0 -10v104h16q124 0 191.5 111.5t101.5 425.5l49 436h596v-420h340q180 0 269.5 -87.5t89.5 -232.5q0 -144 -96.5 -235.5t-290.5 -91.5h-430v965h-371l-49 -408q-36 -304 -127 -435.5
t-266 -131.5h-23z" />
    <glyph glyph-name="afii10107" unicode="&#x45a;" horiz-adv-x="1714" 
d="M1276 100q252 0 252 213q0 111 -55.5 166.5t-202.5 55.5h-316v-435h322zM143 1067h119v-430h574v430h118v-432h340q181 0 270 -85t89 -230t-95.5 -232.5t-291.5 -87.5h-430v532h-574v-532h-119v1067z" />
    <glyph glyph-name="afii10108" unicode="&#x45b;" horiz-adv-x="1202" 
d="M713 1044q352 0 352 -385v-659h-119v627q0 166 -59.5 238.5t-197.5 72.5t-245 -98q-61 -53 -91.5 -109.5t-30.5 -155.5v-575h-119v1202h-203v90h203v170h119v-170h432v-90h-432v-362q161 204 391 204z" />
    <glyph glyph-name="afii10109" unicode="&#x45c;" horiz-adv-x="980" 
d="M853 969q-44 0 -71 -30t-49 -83l-67 -149q-49 -106 -138 -154q41 -16 72 -47t66 -78l295 -428h-144l-270 395q-37 53 -77 77t-112 24h-96v-496h-119v1067h119v-479h80q86 0 137 37t90 123l66 143q41 90 90 133t145 43q22 0 44 -4t34 -6l-12 -96q-39 8 -83 8zM610 1483
h160l-260 -275h-127z" />
    <glyph glyph-name="uni045D" unicode="&#x45d;" horiz-adv-x="1130" 
d="M987 0h-115v897l-604 -897h-125v1067h115v-897l600 897h129v-1067zM305 1483h160l227 -275h-127z" />
    <glyph glyph-name="afii10110" unicode="&#x45e;" horiz-adv-x="1024" 
d="M224 -291q42 0 75 11q53 17 119 169l51 121l-457 1057h140l383 -915l346 915h131l-482 -1206q-46 -121 -112 -190t-162 -69t-176 31l29 105q73 -29 115 -29zM815 1477q0 -116 -80 -192q-80 -77 -220 -77q-141 0 -219 76q-77 76 -79 193h98q5 -78 55 -129q50 -52 146 -52
t146 52t55 129h98z" />
    <glyph glyph-name="afii10193" unicode="&#x45f;" horiz-adv-x="1130" 
d="M868 1067h119v-1067h-366v-287h-109v287h-369v1067h119v-961h606v961z" />
    <glyph glyph-name="uni0462" unicode="&#x462;" horiz-adv-x="1472" 
d="M369 0v1200h-344v105h344v215h123v-215h505v-105h-505v-309h354q294 0 413 -122.5t119 -330.5q0 -207 -124.5 -322.5t-422.5 -115.5h-462zM854 109q221 0 309 78.5t88 250.5q0 173 -93 258.5t-324 85.5h-342v-673h362z" />
    <glyph glyph-name="uni0463" unicode="&#x463;" horiz-adv-x="1210" 
d="M399 100h361q133 0 192.5 54.5t59.5 165.5t-56 169t-202 58h-355v-447zM281 1499h118v-444h455v-99h-455v-309h379q180 0 269.5 -87.5t89.5 -232.5q0 -144 -96.5 -235.5t-290.5 -91.5h-469v956h-265v99h265v444z" />
    <glyph glyph-name="uni0472" unicode="&#x472;" horiz-adv-x="1548" 
d="M1099 692q93 0 204 70q-8 285 -147.5 456t-378.5 171t-376 -157t-153 -415q118 78 225 78t181.5 -32t143 -69.5t138.5 -69.5t163 -32zM1089 588q-104 0 -179.5 31.5t-144.5 69.5t-137.5 70t-144.5 32q-128 0 -237 -84q4 -288 139.5 -460.5t378.5 -172.5t379 154.5
t157 424.5q-107 -65 -211 -65zM115 638.5q0 276.5 50 421t139 242t210 147.5t339.5 50t399.5 -200.5t181 -565.5t-181 -567.5t-476 -202.5q-298 0 -480 199.5t-182 476z" />
    <glyph glyph-name="uni0473" unicode="&#x473;" horiz-adv-x="1214" 
d="M394 657q77 0 130.5 -22.5t100.5 -49t93 -49t117 -22.5t148 43q-7 311 -144 375.5t-230 64.5q-173 0 -264.5 -102t-111.5 -281q84 43 161 43zM828 416q-74 0 -126.5 22.5t-100.5 50t-97 50t-123 22.5t-150 -45q4 -199 96 -322.5t276 -123.5q175 0 267 103t109 284
q-77 -41 -151 -41zM111 528q0 254 135 413t364.5 159t361.5 -153.5t132 -408.5t-134.5 -413t-366.5 -158t-362 153.5t-130 407.5z" />
    <glyph glyph-name="uni0474" unicode="&#x474;" horiz-adv-x="1513" 
d="M1358 1483q117 0 196 -66l-53 -96q-66 51 -138 51q-71 0 -115 -39t-81 -141l-434 -1192h-135l-569 1462h143l496 -1321l391 1104q70 190 161 214t138 24z" />
    <glyph glyph-name="uni0475" unicode="&#x475;" horiz-adv-x="1159" 
d="M1038 977q-55 0 -86.5 -27.5t-60.5 -105.5l-313 -844h-140l-426 1067h138l358 -938l280 772q68 186 242 186q98 0 162 -53l-49 -92q-50 35 -105 35z" />
    <glyph glyph-name="uni048A" unicode="&#x48a;" horiz-adv-x="1380" 
d="M468 1662q-77 77 -77 191h98q4 -78 54.5 -129t146.5 -51t146.5 51.5t54.5 128.5h98q0 -113 -79.5 -190.5t-222 -77.5t-219.5 77zM1096 0v1278l-791 -1278h-137v1462h123v-1276l788 1276h138v-1349h116q0 -245 -93 -349t-142 -137l-72 90q140 108 174 283h-104z" />
    <glyph glyph-name="uni048B" unicode="&#x48b;" horiz-adv-x="1132" 
d="M333 1283q-77 77 -77 192h98q4 -78 54.5 -129.5t146.5 -51.5t146.5 51.5t54.5 129.5h98q0 -114 -79.5 -191.5t-222 -77.5t-219.5 77zM989 104h107q0 -218 -78 -293t-119 -102l-57 78q111 86 137 213h-105v897l-604 -897h-125v1067h115v-897l600 897h129v-963z" />
    <glyph glyph-name="uni048C" unicode="&#x48c;" horiz-adv-x="1290" 
d="M311 762v-653h373q308 0 346.5 117.5t38.5 198.5q0 173 -91.5 255t-334.5 82h-332zM682 870q514 0 514 -438q0 -203 -119.5 -317.5t-414.5 -114.5h-474v1145h-168v104h168v213h123v-213h400v-104h-400v-275h371z" />
    <glyph glyph-name="uni048D" unicode="&#x48d;" horiz-adv-x="1142" 
d="M344 100h361q133 0 192 55.5t59 166.5t-56.5 164t-201.5 53h-354v-439zM20 930h207v157h117v-157h397v-99h-397v-194h379q180 0 269 -85t89 -226t-96 -233.5t-291 -92.5h-467v831h-207v99z" />
    <glyph glyph-name="uni048E" unicode="&#x48e;" horiz-adv-x="1267" 
d="M1038 1022q0 94 -18.5 153.5t-87 119t-297.5 59.5h-344v-654h346q66 0 131 9l-147 235l90 57l166 -264q96 39 128.5 115t32.5 170zM1165 1040q0 -295 -229 -397l115 -180l-90 -57l-132 204q-84 -18 -194 -18h-344v-592h-123v1462h471q428 0 477 -168t49 -254z" />
    <glyph glyph-name="uni048F" unicode="&#x48f;" horiz-adv-x="1193" 
d="M827 145q129 116 129 377t-97 368t-229 107t-212 -60q-160 -120 -160 -353v-92q0 -143 24.5 -202t90 -139.5t235.5 -80.5q74 0 135 24l-157 252l84 51zM610 -33q-215 0 -348 176v-540h-119v1464h119v-158q72 90 158 140.5t206 50.5q224 0 340.5 -154.5t116.5 -400.5
q0 -342 -196 -492l123 -192l-84 -54l-125 197q-86 -37 -191 -37z" />
    <glyph glyph-name="afii10050" unicode="&#x490;" horiz-adv-x="1060" 
d="M1036 1665v-315h-743v-1350h-125v1462h750v203h118z" />
    <glyph glyph-name="afii10098" unicode="&#x491;" horiz-adv-x="845" 
d="M717 1067v174h108v-280h-563v-961h-119v1067h574z" />
    <glyph glyph-name="uni0492" unicode="&#x492;" horiz-adv-x="1101" 
d="M1077 1462v-112h-743v-543h448v-113h-448v-694h-125v694h-189v113h189v655h868z" />
    <glyph glyph-name="uni0493" unicode="&#x493;" horiz-adv-x="886" 
d="M866 1067v-106h-563v-363h344v-102h-344v-496h-119v496h-145v102h145v469h682z" />
    <glyph glyph-name="uni0494" unicode="&#x494;" horiz-adv-x="1277" 
d="M633 899q176 0 363.5 -91.5t187.5 -521.5t-210 -522t-370 -92h-80v109h103q223 0 326.5 134t103.5 376t-97.5 371t-318.5 129q-184 0 -350 -66v-725h-123v1462h809v-112h-686v-521q166 70 342 70z" />
    <glyph glyph-name="uni0495" unicode="&#x495;" horiz-adv-x="1048" 
d="M537 532q-133 0 -275 -57v-475h-119v1067h699v-106h-580v-386q141 60 276 60q245 0 346 -137.5t101 -374.5q0 -371 -179 -454t-312 -83h-70v101h82q184 0 269 115.5t85 320.5t-70.5 307t-252.5 102z" />
    <glyph glyph-name="uni0496" unicode="&#x496;" horiz-adv-x="2054" 
d="M1732.5 1323.5q-43.5 -28.5 -92.5 -131.5l-88 -195q-74 -159 -196 -219q57 -15 103 -59t102 -127l331 -479h115v-467h-119v354h-67l-344 502q-77 113 -123.5 146.5t-85.5 43.5t-90 10h-121v-702h-123v702h-127q-100 0 -161 -42t-140 -158l-344 -502h-142l406 590
q57 84 102.5 127t104.5 59q-125 55 -195 223l-92 213q-38 90 -78 115t-99 25q-58 0 -95 -11l-13 107q14 2 39 8t68 6q102 0 166 -39t112 -155l89 -203q53 -123 125.5 -184.5t183.5 -61.5h90v643h123v-643h88q111 0 185.5 60.5t129.5 183.5l84 184q57 125 127 170t170 45
q19 0 49 -5t45 -7l-12 -107q-45 9 -96 9t-94.5 -28.5z" />
    <glyph glyph-name="uni0497" unicode="&#x497;" horiz-adv-x="1546" 
d="M39 1057q59 10 95 10q81 0 123.5 -37t86.5 -137l66 -145q39 -86 92 -123t133 -37h57v479h115v-479h53q86 0 137.5 37t89.5 123l66 143q41 90 89 133t144 43q24 0 45 -4t33 -6l-12 -96q-40 8 -83 8q-44 0 -70.5 -30t-49.5 -83l-67 -149q-48 -105 -138 -154q41 -16 72 -47
t66 -78l223 -324h104v-391h-108v287h-68l-270 395q-37 53 -77 77t-112 24h-67v-496h-115v496h-71q-72 0 -114 -23.5t-79 -77.5l-270 -395h-138l295 428q73 97 138 123q-88 33 -142 156l-73 159q-23 51 -44.5 77t-57.5 26t-85 -8z" />
    <glyph glyph-name="uni0498" unicode="&#x498;" horiz-adv-x="1230" 
d="M575 -352q137 0 138 82q0 41 -37 59t-129 18h-27l55 156q-249 11 -361 125t-122 270h119q47 -286 405 -286q381 0 381 327q0 308 -338 308h-237v112h237q133 0 220.5 73t87.5 216t-92.5 212t-253.5 69q-247 0 -311 -97.5t-85 -161.5l-116 21q33 144 161.5 246t354.5 102
t345.5 -105.5t119.5 -263.5q0 -254 -211 -354q243 -89 243 -377q0 -182 -114 -300t-334 -134l-31 -80q111 -12 149.5 -57.5t38.5 -99.5t-18 -86.5t-52 -52t-81 -27.5t-102 -8t-117 8v94q66 -8 114 -8z" />
    <glyph glyph-name="uni0499" unicode="&#x499;" horiz-adv-x="1042" 
d="M467 -324q119 0 119 76q0 39 -35 55.5t-127 16.5h-25l50 145q-162 10 -262.5 85t-114.5 235h114q23 -121 100.5 -171t235.5 -50t225.5 61t67.5 163t-70.5 159t-199.5 57h-211v98h219q121 0 181.5 53.5t60.5 143.5q0 196 -277 196q-155 0 -221.5 -45.5t-101.5 -148.5
l-105 22q67 273 432 273q197 0 295 -80t98 -188q0 -109 -51 -173.5t-127 -95.5q98 -31 150.5 -101t52.5 -154q0 -156 -97.5 -243.5t-299.5 -95.5l-25 -69q106 -12 144 -55.5t38 -100.5q0 -92 -67.5 -126t-150.5 -34t-140 8v93q69 -9 125 -9z" />
    <glyph glyph-name="uni049A" unicode="&#x49a;" horiz-adv-x="1331" 
d="M1008 1322.5q-45 -29.5 -90 -128.5l-93 -193q-80 -166 -198 -223q59 -16 102 -59t102 -127l334 -479h119v-467h-119v354h-69l-348 502q-77 113 -123.5 146.5t-85.5 43.5t-90 10h-158v-702h-123v1462h123v-643h125q111 0 185.5 62.5t131.5 183.5l88 184
q83 174 164.5 193.5t115.5 19.5t64 -5q31 -5 45 -7l-12 -107q-45 9 -95 9t-95 -29.5z" />
    <glyph glyph-name="uni049B" unicode="&#x49b;" horiz-adv-x="1030" 
d="M853 969q-44 0 -70.5 -30t-49.5 -83l-67 -149q-47 -104 -138 -154q41 -16 72 -47t66 -78l223 -324h104v-391h-108v287h-68l-270 395q-37 53 -77 77t-112 24h-96v-496h-119v1067h119v-479h80q86 0 137 37t90 123l66 143q41 90 90 133t145 43q22 0 44 -4t34 -6l-12 -96
q-39 8 -83 8z" />
    <glyph glyph-name="uni049C" unicode="&#x49c;" horiz-adv-x="1306" 
d="M1049.5 1323q-44.5 -29 -91.5 -129l-92 -193q-80 -166 -198 -223q59 -16 102 -59t102 -127l414 -592h-149l-349 502q-66 94 -115.5 139t-119.5 57v-254h-104v258h-158v-702h-123v1462h123v-643h158v281h104v-266q72 23 124 81t97 150l88 184q83 174 164.5 193.5
t115.5 19.5t64 -5t45 -7l-12 -107q-45 9 -95 9t-94.5 -29z" />
    <glyph glyph-name="uni049D" unicode="&#x49d;" horiz-adv-x="1032" 
d="M471 281h-90v215h-119v-496h-119v1067h119v-479h119v221h90v-211q94 27 150 150l65 143q41 90 90 133t146 43q23 0 44 -4t33 -6l-12 -96q-40 8 -83 8t-70 -30t-50 -83l-67 -149q-48 -104 -137 -154q41 -16 71.5 -47t65.5 -78l295 -428h-144l-270 395q-57 77 -127 94v-208
z" />
    <glyph glyph-name="uni049E" unicode="&#x49e;" horiz-adv-x="1306" 
d="M1049.5 1323q-44.5 -29 -91.5 -129l-92 -193q-80 -166 -198 -223q59 -16 102 -59t102 -127l414 -592h-149l-349 502q-79 115 -124.5 147.5t-84 42.5t-90.5 10h-157v-702h-123v1100h-168v108h168v254h123v-254h225v-108h-225v-281h125q111 0 185.5 62.5t131.5 183.5
l88 184q83 174 164.5 193.5t115.5 19.5t64 -5t45 -7l-12 -107q-45 9 -95 9t-94.5 -29z" />
    <glyph glyph-name="uni049F" unicode="&#x49f;" horiz-adv-x="1036" 
d="M908 969q-43 0 -70 -30t-50 -83l-67 -149q-48 -104 -137 -154q41 -16 71.5 -47t65.5 -78l295 -428h-144l-270 395q-37 53 -77 77t-111 24h-97v-496h-118v801h-146v96h146v170h118v-170h195v-96h-195v-213h80q86 0 137.5 37t90.5 123l65 143q41 90 90 133t146 43
q23 0 44 -4t34 -6l-13 -96q-40 8 -83 8z" />
    <glyph glyph-name="uni04A0" unicode="&#x4a0;" horiz-adv-x="1404" 
d="M1147.5 1323q-45.5 -29 -90.5 -129l-92 -193q-80 -166 -199 -223q59 -16 102 -59t103 -127l413 -592h-149l-348 502q-77 113 -123.5 146.5t-85.5 43.5t-90 10h-158v-702h-123v1352h-282v110h405v-643h125q111 0 185.5 62.5t131.5 183.5l89 184q83 174 164 193.5t116 19.5
t65 -5q29 -5 44 -7l-13 -107q-45 9 -94 9q-50 0 -95.5 -29z" />
    <glyph glyph-name="uni04A1" unicode="&#x4a1;" horiz-adv-x="1093" 
d="M965 969q-43 0 -70 -30t-49 -83l-68 -149q-48 -104 -137 -154q41 -16 71.5 -47t65.5 -78l295 -428h-143l-271 395q-37 53 -76.5 77t-111.5 24h-96v-496h-119v965h-236v102h355v-479h80q86 0 137 37t90 123l66 143q41 90 90 133t145 43q23 0 44 -4t34 -6l-12 -96
q-41 8 -84 8z" />
    <glyph glyph-name="uni04A2" unicode="&#x4a2;" horiz-adv-x="1419" 
d="M168 1462h125v-647h825v647h125v-1349h129v-467h-119v354h-135v698h-825v-698h-125v1462z" />
    <glyph glyph-name="uni04A3" unicode="&#x4a3;" horiz-adv-x="1173" 
d="M143 1067h119v-455h635v455h119v-963h121v-391h-109v287h-131v508h-635v-508h-119v1067z" />
    <glyph glyph-name="uni04A4" unicode="&#x4a4;" horiz-adv-x="1546" 
d="M168 1462h125v-647h825v647h406v-110h-281v-1352h-125v698h-825v-698h-125v1462z" />
    <glyph glyph-name="uni04A5" unicode="&#x4a5;" horiz-adv-x="1269" 
d="M143 1067h119v-455h635v455h354v-102h-235v-965h-119v508h-635v-508h-119v1067z" />
    <glyph glyph-name="uni04A6" unicode="&#x4a6;" horiz-adv-x="2172" 
d="M1869 -236q-210 -92 -370 -92h-80v109h103q223 0 326.5 134t103.5 376t-97.5 371t-318.5 129q-184 0 -350 -66v-725h-127v1350h-766v-1350h-125v1462h1018v-633q165 70 342 70q176 0 363.5 -91.5t187.5 -521.5t-210 -522z" />
    <glyph glyph-name="uni04A7" unicode="&#x4a7;" horiz-adv-x="1761" 
d="M1245 532q-134 0 -274 -57v-475h-119v961h-590v-961h-119v1067h828v-492q141 60 276 60q447 0 447 -512q0 -372 -179.5 -454.5t-312.5 -82.5h-69v101h81q184 0 269.5 115.5t85.5 320.5t-71 307t-253 102z" />
    <glyph glyph-name="uni04A8" unicode="&#x4a8;" horiz-adv-x="1673" 
d="M868 686q0 -200 65.5 -344.5t194.5 -212.5q138 67 223 220.5t85 358.5q0 410 -273 410q-143 0 -219 -116t-76 -316zM244 736q0 -310 151.5 -488t431.5 -178q116 0 179 20q-123 90 -192 237.5t-69 367.5t113.5 374t300.5 154t293.5 -132.5t106.5 -394.5
q0 -205 -89.5 -361.5t-226.5 -252.5q62 -16 161 -16t191 30l19 -100q-101 -33 -240 -33t-256 55q-115 -55 -302 -55q-356 0 -528.5 218t-172.5 562q0 343 184.5 549.5t470.5 206.5q154 0 262 -51l-39 -109q-110 50 -226 50q-236 0 -379.5 -171.5t-143.5 -481.5z" />
    <glyph glyph-name="uni04A9" unicode="&#x4a9;" horiz-adv-x="1282" 
d="M680 480q0 -132 46 -233.5t122 -146.5q144 63 178.5 178.5t34.5 229.5t-43.5 192t-143.5 78t-147 -83t-47 -215zM111 534q0 257 135 411.5t350 154.5q104 0 180 -35l-35 -98q-67 31 -147 31q-161 -1 -261 -120.5t-100 -343.5t108 -347.5t290 -123.5q55 0 104 7
q-172 139 -172 409q0 172 80.5 283.5t224.5 111.5t227 -106t83 -298t-90.5 -287t-135.5 -122q15 -6 88 -6t158 31l23 -84q-65 -39 -190 -39t-195 33q-96 -29 -222 -29q-241 0 -372 155t-131 412z" />
    <glyph glyph-name="uni04AA" unicode="&#x4aa;" horiz-adv-x="1452" 
d="M690 -352q137 0 137 82q0 41 -36.5 59t-128.5 18h-27l55 160q-266 21 -420.5 221t-154.5 551t182.5 555.5t456.5 204.5q366 0 453 -183t112 -284l-119 -26q-50 195 -150.5 290t-295.5 95q-236 0 -373 -184t-137 -477t133 -474.5t381 -181.5q317 0 380.5 155.5t78.5 239.5
h122q-47 -346 -235.5 -424t-317.5 -82l-28 -78q111 -12 149.5 -58t38.5 -106q0 -167 -254 -167q-55 0 -117 8v94q66 -8 115 -8z" />
    <glyph glyph-name="uni04AB" unicode="&#x4ab;" horiz-adv-x="1134" 
d="M514 -324q119 0 119 76q0 39 -35 55.5t-127 16.5h-25l52 151q-186 29 -286.5 173.5t-100.5 391.5t132.5 403.5t360.5 156.5q174 0 277.5 -89t136.5 -251l-115 -29q-56 266 -303 266q-181 0 -271.5 -124t-90.5 -397t132 -339.5t228 -66.5q154 0 224.5 74.5t95.5 199.5h118
q-31 -178 -142.5 -277.5t-303.5 -99.5l-25 -67q106 -12 144.5 -55.5t38.5 -100.5q0 -92 -68 -126t-151 -34t-140 8v93q69 -9 125 -9z" />
    <glyph glyph-name="uni04AC" unicode="&#x4ac;" horiz-adv-x="1208" 
d="M543 1348h-508v114h1139v-114h-506v-1235h129v-467h-119v354h-135v1348z" />
    <glyph glyph-name="uni04AD" unicode="&#x4ad;" horiz-adv-x="921" 
d="M403 963h-383v104h881v-104h-379v-859h121v-391h-108v287h-132v963z" />
    <glyph glyph-name="uni04AE" unicode="&#x4ae;" horiz-adv-x="1204" 
d="M668 0h-125v633l-512 829h147l428 -723l436 723h132l-506 -829v-633z" />
    <glyph glyph-name="uni04AF" unicode="&#x4af;" horiz-adv-x="1019" 
d="M586 -397h-119v426l-455 1038h138l382 -895l342 895h134l-422 -1044v-420z" />
    <glyph glyph-name="uni04B0" unicode="&#x4b0;" horiz-adv-x="1204" 
d="M223 649h309l-501 813h147l428 -723l436 723h132l-496 -813h311v-110h-321v-539h-125v539h-320v110z" />
    <glyph glyph-name="uni04B1" unicode="&#x4b1;" horiz-adv-x="1019" 
d="M205 100h229l-422 967h138l382 -899l342 899h134l-392 -967h232v-100h-262v-397h-119v397h-262v100z" />
    <glyph glyph-name="uni04B2" unicode="&#x4b2;" horiz-adv-x="1275" 
d="M1255 104v-391h-108v287h-70l-461 674l-452 -674h-135l520 774l-479 688h149l408 -604l411 604h133l-477 -698l459 -660h102z" />
    <glyph glyph-name="uni04B3" unicode="&#x4b3;" horiz-adv-x="1032" 
d="M995 104v-391h-108v287h-64l-334 479l-329 -479h-133l393 567l-359 500h140l293 -420l294 420h130l-351 -504l322 -459h106z" />
    <glyph glyph-name="uni04B4" unicode="&#x4b4;" horiz-adv-x="1552" 
d="M1505 113v-467h-119v354h-1015v1354h-355v108h957v-108h-477v-1241h755v1349h125v-1349h129z" />
    <glyph glyph-name="uni04B5" unicode="&#x4b5;" horiz-adv-x="1210" 
d="M20 1067h654v-104h-316v-859h576v963h119v-963h121v-391h-109v287h-825v963h-220v104z" />
    <glyph glyph-name="uni04B6" unicode="&#x4b6;" horiz-adv-x="1271" 
d="M638 608q-167 0 -263 30t-184.5 112t-88.5 305v407h123v-362q0 -202 84.5 -292.5t290.5 -90.5t371 65v680h125v-1349h129v-467h-119v354h-135v678q-166 -70 -333 -70z" />
    <glyph glyph-name="uni04B7" unicode="&#x4b7;" horiz-adv-x="1036" 
d="M491 399q-137 0 -209.5 29t-136 95.5t-63.5 226.5v317h115v-276q0 -150 64.5 -219.5t216.5 -69.5t282 51v514h119v-963h120v-391h-108v287h-131v453q-132 -54 -269 -54z" />
    <glyph glyph-name="uni04B8" unicode="&#x4b8;" horiz-adv-x="1263" 
d="M645 346h-104v264q-238 14 -338.5 129t-100.5 316v407h123v-362q0 -188 68 -276.5t248 -104.5v282h104v-284q170 4 326 65v680h125v-1462h-125v678q-154 -62 -326 -70v-262z" />
    <glyph glyph-name="uni04B9" unicode="&#x4b9;" horiz-adv-x="1021" 
d="M524 195h-94v204q-348 14 -348 351v317h115v-276q0 -137 52 -207t181 -80v219h94v-221q125 6 236 51v514h119v-1067h-119v453q-108 -42 -236 -52v-206z" />
    <glyph glyph-name="uni04BA" unicode="&#x4ba;" horiz-adv-x="1263" 
d="M625 893q167 0 263.5 -29.5t184.5 -111.5t88 -306v-446h-123v401q0 202 -84.5 292.5t-289.5 90.5t-371 -65v-719h-125v1462h125v-639q165 70 332 70z" />
    <glyph glyph-name="uni04BB" unicode="&#x4bb;" horiz-adv-x="1142" 
d="M653 1087q353 0 353 -385v-702h-119v670q0 166 -59.5 238.5t-198.5 72.5t-244 -98q-61 -53 -92 -109.5t-31 -155.5v-618h-119v1462h119v-579q161 204 391 204z" />
    <glyph glyph-name="uni04BC" unicode="&#x4bc;" horiz-adv-x="1818" 
d="M1497 799q0 425 -171 508.5t-300 83.5q-215 0 -348 -153t-158 -439h977zM1018 -37q-139 0 -256 52.5t-243 198.5t-130 476q-258 0 -298 107t-40 181t43 152l101 -24q-29 -68 -29 -118q0 -95 48 -140t177 -49q24 327 200 513.5t435 186.5q312 0 456 -196.5t144 -518.5v-94
h-1108q0 -252 129.5 -434t386.5 -182q293 0 361.5 125t85.5 190h121q-65 -300 -255 -363t-329 -63z" />
    <glyph glyph-name="uni04BD" unicode="&#x4bd;" horiz-adv-x="1325" 
d="M1098 606q0 287 -121 342.5t-209 55.5q-154 0 -248 -98.5t-112 -299.5h690zM135 736q0 -117 156 -130q20 234 152 364t325 130q232 0 342.5 -144t110.5 -376v-76h-815q0 -189 96 -313.5t266 -124.5q214 0 260.5 81.5t58.5 128.5h115q-25 -137 -131 -223t-314 -86
t-336 144t-132 393q-141 8 -199.5 72.5t-58.5 150.5t37 152l92 -21q-25 -73 -25 -122z" />
    <glyph glyph-name="uni04BE" unicode="&#x4be;" horiz-adv-x="1818" 
d="M1497 799q0 425 -171 508.5t-300 83.5q-215 0 -348 -153t-158 -439h977zM1087 -354h-120v319q-263 20 -418.5 218t-159.5 507q-258 0 -298 107t-40 181t43 152l101 -24q-29 -68 -29 -118q0 -95 48 -140t177 -49q24 327 200 513.5t435 186.5q312 0 456 -196.5t144 -518.5
v-94h-1108q0 -252 129.5 -434t386.5 -182q293 0 361.5 125t85.5 190h121q-59 -281 -228.5 -348.5t-286.5 -75.5v-319z" />
    <glyph glyph-name="uni04BF" unicode="&#x4bf;" horiz-adv-x="1325" 
d="M1098 606q0 287 -121 342.5t-209 55.5q-154 0 -248 -98.5t-112 -299.5h690zM135 736q0 -117 156 -130q20 234 152 364t325 130q232 0 342.5 -144t110.5 -376v-76h-815q0 -189 96 -313.5t266 -124.5q214 0 260.5 81.5t58.5 128.5h115q-23 -129 -120 -212.5t-271 -94.5
v-256h-109v258q-193 23 -301 163t-112 370q-141 8 -199.5 72.5t-58.5 150.5t37 152l92 -21q-25 -73 -25 -122z" />
    <glyph glyph-name="uni04C0" unicode="&#x4c0;" horiz-adv-x="460" 
d="M168 1462h125v-1462h-125v1462z" />
    <glyph glyph-name="uni04C1" unicode="&#x4c1;" horiz-adv-x="1990" 
d="M771 1662q-77 77 -77 191h99q4 -78 54 -129t146.5 -51t146.5 51.5t54 128.5h98q0 -113 -79 -190.5t-222 -77.5t-220 77zM1732.5 1323.5q-43.5 -28.5 -92.5 -131.5l-88 -195q-74 -159 -196 -219q57 -15 103 -59t102 -127l409 -592h-149l-344 502q-77 113 -123.5 146.5
t-85.5 43.5t-90 10h-121v-702h-123v702h-127q-100 0 -161 -42t-140 -158l-344 -502h-142l406 590q57 84 102 127t105 59q-120 53 -195 223l-94 211q-38 90 -79 116t-102 26t-91 -9l-13 107q84 12 115 12q91 0 153.5 -39t116.5 -157l91 -201q53 -123 125.5 -184.5
t183.5 -61.5h90v643h123v-643h88q111 0 185.5 60.5t129.5 183.5l84 184q57 125 127 170t170 45q19 0 49 -5t45 -7l-12 -107q-45 9 -96 9t-94.5 -28.5z" />
    <glyph glyph-name="uni04C2" unicode="&#x4c2;" horiz-adv-x="1497" 
d="M39 1057q60 10 93 10q119 0 173 -96q18 -33 39 -78l66 -145q39 -86 92 -123t133 -37h57v479h115v-479h53q86 0 137 37t90 123l66 143q41 90 89 133t144 43q21 0 43 -4q23 -4 35 -6l-12 -96q-40 8 -83 8q-44 0 -71 -30t-49 -83l-67 -149q-49 -106 -138 -154q41 -16 72 -47
t66 -78l295 -428h-144l-270 395q-37 53 -77 77t-112 24h-67v-496h-115v496h-71q-72 0 -114 -24t-79 -77l-270 -395h-138l295 428q73 97 138 123q-83 31 -142 156l-75 163q-40 99 -101 99q-33 0 -84 -8zM1040 1477q0 -115 -79 -192t-221 -77t-219 76t-79 193h99
q4 -78 54 -129q50 -52 146 -52q97 0 147 52t54 129h98z" />
    <glyph glyph-name="uni04C3" unicode="&#x4c3;" horiz-adv-x="1277" 
d="M976.5 1321.5q-45.5 -30.5 -89.5 -127.5l-92 -195q-20 -43 -53 -99t-99 -93q541 -28 541 -563q0 -401 -210 -486.5t-370 -85.5h-80v109h103q223 0 326.5 120.5t103.5 354.5t-120 340t-378 106h-268v-702h-123v1462h123v-643h119q111 0 175 62.5t122 183.5l86 184
q58 122 124 167.5t168 45.5q22 0 51 -5t44 -7l-13 -107q-45 9 -95 9t-95.5 -30.5z" />
    <glyph glyph-name="uni04C4" unicode="&#x4c4;" horiz-adv-x="1009" 
d="M843 973q-44 0 -71 -32t-49 -85l-68 -149q-35 -78 -86 -119q197 -23 290 -151.5t93 -334.5q0 -362 -179 -439t-312 -77h-70v101h82q186 0 270 104.5t84 310.5t-82.5 298t-265.5 92h-217v-492h-119v1067h119v-473h141q53 12 89 49t67 105l66 143q41 90 90 133t145 43
q23 0 44 -4t34 -6l-12 -92q-39 8 -83 8z" />
    <glyph glyph-name="uni04C5" unicode="&#x4c5;" horiz-adv-x="1441" 
d="M1153 1352h-537l-71 -582q-56 -436 -181.5 -608t-336.5 -172h-27v114h25q72 0 133 30t137 152t131 545l78 631h774v-1349h117q0 -244 -93.5 -348.5t-142.5 -137.5l-72 90q139 107 175 283h-109v1352z" />
    <glyph glyph-name="uni04C6" unicode="&#x4c6;" horiz-adv-x="1140" 
d="M879 965h-414l-49 -408q-36 -304 -127 -435.5t-266 -131.5h-23v104h16q124 0 191.5 111.5t101.5 425.5l49 436h639v-963h107q0 -218 -78 -293t-119 -102l-57 78q111 86 137 213h-108v965z" />
    <glyph glyph-name="uni04C7" unicode="&#x4c7;" horiz-adv-x="1411" 
d="M957 -311q161 0 161 186v823h-825v-698h-125v1462h125v-647h825v647h125v-1534q0 -166 -54.5 -257t-215.5 -91q-95 0 -185 29l25 102q64 -22 144 -22z" />
    <glyph glyph-name="uni04C8" unicode="&#x4c8;" horiz-adv-x="1159" 
d="M754 -313q82 0 112.5 51t30.5 135v635h-635v-508h-119v1067h119v-455h635v455h119v-1122q0 -174 -33 -238.5t-83 -95.5t-147 -31t-175 31l24 100q70 -24 152 -24z" />
    <glyph glyph-name="uni04C9" unicode="&#x4c9;" horiz-adv-x="1406" 
d="M168 1462h125v-647h825v647h125v-1349h117q0 -242 -93 -347.5t-143 -138.5l-71 90q137 106 174 283h-109v698h-825v-698h-125v1462z" />
    <glyph glyph-name="uni04CA" unicode="&#x4ca;" horiz-adv-x="1159" 
d="M143 1067h119v-455h635v455h119v-963h106q0 -217 -77.5 -292.5t-118.5 -102.5l-58 78q111 86 138 213h-109v508h-635v-508h-119v1067z" />
    <glyph glyph-name="uni04CB" unicode="&#x4cb;" horiz-adv-x="1263" 
d="M638 608q-167 0 -263 30t-184.5 112t-88.5 305v407h123v-362q0 -202 84.5 -292.5t290.5 -90.5t371 65v680h125v-1462h-135v-354h-119v467h129v565q-166 -70 -333 -70z" />
    <glyph glyph-name="uni04CC" unicode="&#x4cc;" horiz-adv-x="1021" 
d="M491 399q-137 0 -209.5 29t-136 95.5t-63.5 226.5v317h115v-276q0 -150 64.5 -219.5t216.5 -69.5t282 51v514h119v-1067h-131v-287h-109v391h121v349q-132 -54 -269 -54z" />
    <glyph glyph-name="uni04CD" unicode="&#x4cd;" horiz-adv-x="1712" 
d="M285 0h-117v1462h162l528 -1317l537 1317h153v-1349h117q0 -245 -93 -349t-142 -137l-72 90q137 106 174 283h-100v1249q-19 -35 -517 -1249h-118l-512 1245v-1245z" />
    <glyph glyph-name="uni04CE" unicode="&#x4ce;" horiz-adv-x="1406" 
d="M145 1067h164l389 -948l402 948h164v-963h106q0 -218 -78 -293t-118 -102l-58 78q111 86 137 213h-104v918l-399 -918h-115l-375 901v-901h-115v1067z" />
    <glyph glyph-name="uni04CF" unicode="&#x4cf;" horiz-adv-x="460" 
d="M168 1462h125v-1462h-125v1462z" />
    <glyph glyph-name="uni04D0" unicode="&#x4d0;" horiz-adv-x="1353" 
d="M973 561l-301 764l-297 -764h598zM604 1462h148l577 -1462h-135l-176 446h-688l-174 -446h-131zM377 1853h98q4 -78 54 -129q51 -51 147 -51t146 51t55 129h98q0 -113 -80 -191q-80 -77 -220 -77q-141 0 -220 77q-78 77 -78 191z" />
    <glyph glyph-name="uni04D1" unicode="&#x4d1;" horiz-adv-x="1077" 
d="M452 82q181 0 297 120q44 48 54 103q10 56 10 105v159l-195 -8q-332 -11 -398 -151q-22 -46 -22 -127t55 -141q53 -60 199 -60zM74 297q0 194 165 282q125 66 367 76l205 9v32q0 156 -60 229t-216 72q-205 0 -271 -103q-20 -32 -31 -71l-108 17q57 258 414 258
q311 0 374 -229q20 -73 21 -167v-702h-119v150q-140 -172 -375 -175q-166 0 -266 82t-100 240zM236 1477h98q4 -78 54 -129q50 -52 146 -52t147 52q50 52 54 129h99q0 -114 -80 -192q-80 -77 -221 -77q-142 0 -219 76q-78 76 -78 193z" />
    <glyph glyph-name="uni04D2" unicode="&#x4d2;" horiz-adv-x="1353" 
d="M973 561l-301 764l-297 -764h598zM604 1462h148l577 -1462h-135l-176 446h-688l-174 -446h-131zM772 1806h139v-178h-139v178zM436 1806h137v-178h-137v178z" />
    <glyph glyph-name="uni04D3" unicode="&#x4d3;" horiz-adv-x="1077" 
d="M452 82q181 0 297 120q44 48 54 103q10 56 10 105v159l-195 -8q-332 -11 -398 -151q-22 -46 -22 -127t55 -141q53 -60 199 -60zM74 297q0 194 165 282q125 66 367 76l205 9v32q0 156 -60 229t-216 72q-205 0 -271 -103q-20 -32 -31 -71l-108 17q57 258 414 258
q311 0 374 -229q20 -73 21 -167v-702h-119v150q-140 -172 -375 -175q-166 0 -266 82t-100 240zM635 1442h135v-174h-135v174zM307 1442h133v-174h-133v174z" />
    <glyph glyph-name="uni04D4" unicode="&#x4d4;" horiz-adv-x="2072" 
d="M1094 625v725h-146l-428 -725h574zM1956 1462v-112h-744v-537h703v-117h-703v-581h779l-29 -115h-868v510h-641l-306 -510h-137l875 1462h1071z" />
    <glyph glyph-name="uni04D5" unicode="&#x4d5;" horiz-adv-x="1822" 
d="M1595 608q0 280 -118.5 338t-204.5 58q-150 0 -240 -98.5t-110 -297.5h673zM199 282q0 -80 55 -140t200 -60t222 62q78 62 101.5 114.5t23.5 151.5v159l-195 -8q-326 -11 -366.5 -105t-40.5 -174zM891 897q134 203 373 203t346.5 -143t107.5 -375v-76h-798
q0 -190 93 -315t259 -125q208 0 254.5 81.5t58.5 128.5h115q-25 -137 -130.5 -223t-313.5 -86t-288.5 98.5t-103.5 147.5q-86 -159 -209 -198.5t-213 -39.5q-166 0 -267 82t-101 240q0 194 141.5 271t378.5 87l205 9v34q0 158 -58 228.5t-208 70.5t-214.5 -48t-85.5 -126
l-108 17q57 258 407 258q158 0 241 -51.5t118 -149.5z" />
    <glyph glyph-name="uni04D6" unicode="&#x4d6;" horiz-adv-x="1204" 
d="M168 1462h919v-112h-794v-537h754v-117h-754v-581h829l-28 -115h-926v1462zM645 1673q96 0 147 51q50 51 54 129h98q0 -115 -80 -191q-80 -77 -220 -77q-141 0 -219 76q-77 76 -79 192h98q4 -78 54 -129t147 -51z" />
    <glyph glyph-name="uni04D7" unicode="&#x4d7;" horiz-adv-x="1146" 
d="M920 606q0 288 -179 369q-63 29 -151 29q-154 0 -246 -98t-111 -300h687zM1042 504h-811q0 -190 95 -315t264 -123q270 0 319 210h115q-25 -137 -131 -223t-317 -86t-339 151t-127 415t135 416q134 151 356 151t332 -146q111 -146 109 -374v-76zM293 1477h98
q4 -78 54 -129q51 -52 147 -52t146 52t55 129h98q0 -114 -80 -192q-80 -77 -220 -77q-141 0 -220 77q-78 77 -78 192z" />
    <glyph glyph-name="uni04D8" unicode="&#x4d8;" horiz-adv-x="1515" 
d="M260 664q0 -422 182.5 -507t311.5 -85q215 0 336.5 152.5t146.5 439.5h-977zM1204 1297q164 -202 164 -558t-170.5 -566t-443.5 -210q-317 0 -470 199t-153 516v94h1108q0 254 -123 435.5t-368 181.5q-305 0 -375 -116t-94 -183l-115 20q62 183 198.5 286t406.5 103
q271 0 435 -202z" />
    <glyph glyph-name="uni04D9" unicode="&#x4d9;" horiz-adv-x="1165" 
d="M250 455q0 -279 128 -335.5t218 -56.5q305 0 342 392h-688zM127 481v76h813q0 191 -90.5 311.5t-261.5 120.5q-213 0 -263.5 -84t-66.5 -131l-111 17q31 133 140.5 214.5t316.5 81.5t331 -155.5t124 -410.5t-127 -404.5t-349 -149.5t-339 141.5t-117 372.5z" />
    <glyph glyph-name="uni04DA" unicode="&#x4da;" horiz-adv-x="1515" 
d="M260 664q0 -422 270 -548q94 -44 224 -44q215 0 337 152t146 440h-977zM754 1499q289 0 451 -202q163 -202 163 -557t-170 -566t-444 -211q-318 0 -479 210q-144 186 -144 505v94h1108q0 251 -113 420q-131 195 -378 197q-305 0 -412 -178q-33 -54 -57 -121l-115 20
q63 187 184 275q154 114 406 114zM827 1806h140v-178h-140v178zM492 1806h137v-178h-137v178z" />
    <glyph glyph-name="uni04DB" unicode="&#x4db;" horiz-adv-x="1165" 
d="M250 455q0 -278 190 -363q66 -29 156 -29q305 0 342 392h-688zM127 481v76h813q0 298 -198 398q-66 34 -150 34q-220 0 -294 -128q-24 -40 -40 -87l-111 17q31 133 141 215t315 82t331 -157q125 -156 125 -409q0 -254 -126 -404q-126 -151 -349 -151q-224 0 -340 143
q-117 143 -117 371zM670 1442h135v-174h-135v174zM342 1442h133v-174h-133v174z" />
    <glyph glyph-name="uni04DC" unicode="&#x4dc;" horiz-adv-x="1990" 
d="M1923 1343q-45 9 -97 9t-84 -22q-53 -36 -102 -138l-88 -195q-74 -159 -196 -219q59 -15 105 -60t100 -126l409 -592h-149l-344 502q-78 114 -138 157t-161 43h-121v-702h-123v702h-127q-101 0 -162 -43t-139 -157l-344 -502h-142l406 590q57 84 102 127t105 59
q-125 55 -195 223l-92 213q-39 91 -79 115q-41 25 -99 25t-94 -11l-13 107q14 2 39 8t97 6q73 0 119 -28q82 -50 130 -166l89 -203q53 -123 125 -184t184 -62h90v643h123v-643h88q111 1 185 61t130 183l84 184q57 125 127 170t170 45q19 0 49 -5t45 -7zM1090 1806h139v-178
h-139v178zM754 1806h137v-178h-137v178z" />
    <glyph glyph-name="uni04DD" unicode="&#x4dd;" horiz-adv-x="1497" 
d="M39 1057q60 10 93 10q119 0 173 -96q18 -33 39 -78l66 -145q39 -86 92 -123t133 -37h57v479h115v-479h53q86 0 137 37t90 123l66 143q41 90 89 133t144 43q21 0 43 -4q23 -4 35 -6l-12 -96q-40 8 -83 8q-44 0 -71 -30t-49 -83l-67 -149q-49 -106 -138 -154q41 -16 72 -47
t66 -78l295 -428h-144l-270 395q-37 53 -77 77t-112 24h-67v-496h-115v496h-71q-72 0 -114 -24t-79 -77l-270 -395h-138l295 428q73 97 138 123q-83 31 -142 156l-75 163q-40 99 -101 99q-33 0 -84 -8zM838 1442h135v-174h-135v174zM510 1442h133v-174h-133v174z" />
    <glyph glyph-name="uni04DE" unicode="&#x4de;" horiz-adv-x="1230" 
d="M997 399q0 240 -199 291q-62 16 -139 17h-237v112h237q133 0 221 73q87 73 87 216q-1 143 -93 212t-253 69q-248 0 -343 -147q-32 -48 -53 -112l-116 21q33 143 149 237q140 111 364 111t353 -109q115 -101 115 -260q0 -252 -211 -354q243 -89 243 -386t-284 -394
q-96 -33 -234 -33q-254 0 -396 130q-106 99 -116 265h119q47 -288 405 -286q381 0 381 327zM723 1806h139v-178h-139v178zM387 1806h137v-178h-137v178z" />
    <glyph glyph-name="uni04DF" unicode="&#x4df;" horiz-adv-x="1042" 
d="M522 1100q194 0 294 -81q101 -81 99 -202q0 -94 -51 -159t-127 -95q203 -64 203 -276q0 -139 -101 -226q-114 -94 -333 -94q-293 0 -392 175q-34 60 -42 147h114q23 -121 101 -171q77 -50 235 -50t226 61t68 163t-72 158q-71 58 -199 58h-211v98h219q121 0 181 53t61 144
q0 196 -277 196q-155 0 -223 -47t-100 -147l-105 22q67 273 432 273zM618 1442h136v-174h-136v174zM291 1442h133v-174h-133v174z" />
    <glyph glyph-name="uni04E0" unicode="&#x4e0;" horiz-adv-x="1167" 
d="M956 406q0 164 -95 246.5t-318 82.5h-152v96l477 521h-762v110h910v-102l-484 -522h15q390 0 464 -159t74 -265q0 -206 -128.5 -328.5t-389.5 -122.5q-260 0 -376.5 113.5t-129.5 281.5h115q33 -284 402 -284q203 0 290.5 84t87.5 248z" />
    <glyph glyph-name="uni04E1" unicode="&#x4e1;" horiz-adv-x="972" 
d="M420 449q491 0 491 -429q0 -196 -118 -318t-346 -122t-330.5 103.5t-116.5 261.5h117q18 -128 93.5 -196t245.5 -68q169 0 250.5 88t81.5 254t-88.5 245.5t-302.5 79.5h-121v90l447 529h-666v100h797v-102l-442 -516h8z" />
    <glyph glyph-name="uni04E2" unicode="&#x4e2;" horiz-adv-x="1384" 
d="M1217 0h-121v1278l-791 -1278h-137v1462h123v-1276l788 1276h138v-1462zM401 1743h578v-109h-578v109z" />
    <glyph glyph-name="uni04E3" unicode="&#x4e3;" horiz-adv-x="1130" 
d="M987 0h-115v897l-604 -897h-125v1067h115v-897l600 897h129v-1067zM317 1389h500v-105h-500v105z" />
    <glyph glyph-name="uni04E4" unicode="&#x4e4;" horiz-adv-x="1384" 
d="M1217 0h-121v1278l-791 -1278h-137v1462h123v-1276l788 1276h138v-1462zM795 1806h139v-178h-139v178zM459 1806h137v-178h-137v178z" />
    <glyph glyph-name="uni04E5" unicode="&#x4e5;" horiz-adv-x="1130" 
d="M987 0h-115v897l-604 -897h-125v1067h115v-897l600 897h129v-1067zM657 1442h136v-174h-136v174zM330 1442h133v-174h-133v174z" />
    <glyph glyph-name="uni04E6" unicode="&#x4e6;" horiz-adv-x="1548" 
d="M774 74q255 0 392 179t137 477q0 297 -139 477t-392 181q-254 1 -390 -179t-136 -479q0 -300 136 -478q137 -178 392 -178zM777 -37q-299 0 -480 199q-182 199 -182 565t185 569t478 203q294 0 474 -199t182 -563q0 -190 -50 -335q-97 -284 -344 -388q-121 -50 -263 -51z
M874 1806h140v-178h-140v178zM539 1806h137v-178h-137v178z" />
    <glyph glyph-name="uni04E7" unicode="&#x4e7;" horiz-adv-x="1214" 
d="M610 1100q230 0 362 -154t132 -408t-134 -413q-135 -158 -368 -158q-117 0 -208 40q-178 78 -250 291q-34 103 -34 231q0 129 36 233q73 215 257 297q92 41 207 41zM323 863q-85 -120 -85 -331t85 -328q95 -134 284 -134t284 134q84 116 86 333q0 319 -201 425
q-70 36 -169 36q-193 0 -284 -135zM702 1442h136v-174h-136v174zM375 1442h133v-174h-133v174z" />
    <glyph glyph-name="uni04E8" unicode="&#x4e8;" horiz-adv-x="1548" 
d="M398.5 1231q-136.5 -158 -152.5 -428h1057q-16 266 -155.5 426t-375.5 160q-237 0 -373.5 -158zM1156 240.5q139 166.5 149 449.5h-1061q8 -283 145.5 -449.5t382.5 -166.5t384 166.5zM115 638.5q0 276.5 50 421t139 242t210 147.5t339.5 50t399.5 -200.5t181 -565.5
t-181 -567.5t-476 -202.5q-298 0 -480 199.5t-182 476z" />
    <glyph glyph-name="uni04E9" unicode="&#x4e9;" horiz-adv-x="1214" 
d="M564.5 997q-133.5 0 -223.5 -110t-103 -289h739q-20 280 -149.5 339.5t-263 59.5zM650.5 70q138.5 0 228.5 115t98 311h-741q13 -301 144.5 -363.5t270 -62.5zM111 528q0 254 135 413t364.5 159t361.5 -153.5t132 -408.5t-134.5 -413t-366.5 -158t-362 153.5t-130 407.5z
" />
    <glyph glyph-name="uni04EA" unicode="&#x4ea;" horiz-adv-x="1548" 
d="M246 803h1057q-16 263 -155 425q-139 161 -376 161q-236 0 -373 -157q-136 -157 -153 -429zM1305 690h-1061q8 -283 146 -449q138 -167 381 -167q244 0 385 168q141 167 149 448zM777 -37q-299 0 -480 199q-182 199 -182 565t185 569t478 203q294 0 474 -199t182 -563
q0 -190 -50 -335q-97 -284 -344 -388q-121 -50 -263 -51zM874 1806h140v-178h-140v178zM539 1806h137v-178h-137v178z" />
    <glyph glyph-name="uni04EB" unicode="&#x4eb;" horiz-adv-x="1214" 
d="M606 997q-256 0 -338 -240q-25 -73 -30 -159h739q-20 280 -212 369q-67 30 -159 30zM606 70q94 0 163 32q136 62 181 224q23 78 27 170h-741q13 -300 207 -394q69 -32 163 -32zM610 1100q230 0 362 -154t132 -408t-134 -413q-135 -158 -368 -158q-117 0 -208 40
q-178 78 -250 291q-34 103 -34 231q0 129 36 233q73 215 257 297q92 41 207 41zM705 1442h135v-174h-135v174zM377 1442h133v-174h-133v174z" />
    <glyph glyph-name="uni04EC" unicode="&#x4ec;" horiz-adv-x="1454" 
d="M526 696v109h684q-13 257 -133 422q-121 164 -323 164q-201 0 -317 -78t-171 -260l-116 26q88 301 365 389q97 31 225 31q265 0 432 -195t167 -560t-168 -573t-458 -208q-291 0 -440 146q-117 116 -136 315h121q28 -161 115 -245q113 -107 350 -106q467 2 487 623h-684z
M819 1806h139v-178h-139v178zM483 1806h138v-178h-138v178z" />
    <glyph glyph-name="uni04ED" unicode="&#x4ed;" horiz-adv-x="1124" 
d="M397 494v100h492q-14 193 -98 298q-83 105 -229 105t-218 -52t-113 -169l-110 25q41 135 147 217t289 82q220 0 338 -156q119 -156 119 -408t-124 -410t-337 -159q-214 0 -321 98q-108 98 -119 242h114q29 -237 324 -237q161 0 246 115t94 309h-494zM657 1442h136v-174
h-136v174zM330 1442h133v-174h-133v174z" />
    <glyph glyph-name="uni04EE" unicode="&#x4ee;" horiz-adv-x="1144" 
d="M226 72q65 0 101 13q102 37 183 220l41 88l-526 1069h143l446 -946l373 946h133l-458 -1106q-88 -213 -180 -303t-251 -90q-103 0 -178 39l29 104q79 -34 144 -34zM283 1743h577v-109h-577v109z" />
    <glyph glyph-name="uni04EF" unicode="&#x4ef;" horiz-adv-x="1024" 
d="M224 -291q42 0 75 11q53 17 119 169l51 121l-457 1057h140l383 -915l346 915h131l-482 -1206q-46 -121 -112 -190t-162 -69t-176 31l29 105q73 -29 115 -29zM274 1389h500v-105h-500v105z" />
    <glyph glyph-name="uni04F0" unicode="&#x4f0;" horiz-adv-x="1144" 
d="M226 72q65 0 101 13q102 37 183 220l41 88l-526 1069h143l446 -946l373 946h133l-458 -1106q-88 -213 -180 -303t-251 -90q-103 0 -178 39l29 104q79 -34 144 -34zM666 1806h139v-178h-139v178zM330 1806h137v-178h-137v178z" />
    <glyph glyph-name="uni04F1" unicode="&#x4f1;" horiz-adv-x="1024" 
d="M224 -291q42 0 75 11q53 17 119 169l51 121l-457 1057h140l383 -915l346 915h131l-482 -1206q-46 -121 -112 -190t-162 -69t-176 31l29 105q73 -29 115 -29zM621 1442h135v-174h-135v174zM293 1442h133v-174h-133v174z" />
    <glyph glyph-name="uni04F2" unicode="&#x4f2;" horiz-adv-x="1144" 
d="M226 72q65 0 101 13q102 37 183 220l41 88l-526 1069h143l446 -946l373 946h133l-458 -1106q-88 -213 -180 -303t-251 -90q-103 0 -178 39l29 104q79 -34 144 -34zM842 1849h149l-246 -264h-114zM512 1849h150l-244 -264h-117z" />
    <glyph glyph-name="uni04F3" unicode="&#x4f3;" horiz-adv-x="1024" 
d="M224 -291q42 0 75 11q53 17 119 169l51 121l-457 1057h140l383 -915l346 915h131l-482 -1206q-46 -121 -112 -190t-162 -69t-176 31l29 105q73 -29 115 -29zM786 1483h156l-246 -275h-121zM457 1483h155l-243 -275h-123z" />
    <glyph glyph-name="uni04F4" unicode="&#x4f4;" horiz-adv-x="1263" 
d="M102 1055v407h123v-362q0 -202 85 -294q85 -91 290 -90t371 66v680h125v-1462h-125v678q-161 -68 -330 -69q-170 -1 -266 29q-189 59 -245 225q-28 83 -28 192zM709 1806h139v-178h-139v178zM373 1806h137v-178h-137v178z" />
    <glyph glyph-name="uni04F5" unicode="&#x4f5;" horiz-adv-x="1021" 
d="M82 750v317h115v-276q1 -150 65 -220q64 -69 216 -69t282 51v514h119v-1067h-119v453q-127 -52 -266 -53q-140 -1 -212 28q-143 57 -182 186q-18 63 -18 136zM569 1442h136v-174h-136v174zM242 1442h133v-174h-133v174z" />
    <glyph glyph-name="uni04F6" unicode="&#x4f6;" horiz-adv-x="1060" 
d="M1036 1462v-112h-743v-1237h129v-467h-119v354h-135v1462h868z" />
    <glyph glyph-name="uni04F7" unicode="&#x4f7;" horiz-adv-x="845" 
d="M825 1067v-106h-563v-857h121v-391h-109v287h-131v1067h682z" />
    <glyph glyph-name="uni04F8" unicode="&#x4f8;" horiz-adv-x="1687" 
d="M291 782v-673h360q222 0 309 77t88 253q1 175 -89 254q-99 91 -328 89h-340zM643 891q293 0 427 -136q106 -110 106 -316t-114 -313q-135 -126 -433 -126h-461v1462h123v-571h352zM1395 1462h125v-1462h-125v1462zM940 1806h139v-178h-139v178zM604 1806h137v-178h-137
v178z" />
    <glyph glyph-name="uni04F9" unicode="&#x4f9;" horiz-adv-x="1384" 
d="M602 100q248 0 248 219q0 111 -55 169t-203 59h-330v-447h340zM262 1067v-420h352q273 0 340 -193q20 -58 21 -126q0 -144 -94 -236t-295 -92h-443v1067h119zM1122 1067h119v-1067h-119v1067zM793 1442h135v-174h-135v174zM465 1442h133v-174h-133v174z" />
    <glyph glyph-name="Wgrave" unicode="&#x1e80;" horiz-adv-x="1865" 
d="M27 1462h139l344 -1306l362 1300h136l352 -1298l348 1304h131l-412 -1462h-145l-352 1300l-352 -1300h-138zM655 1849h162l227 -264h-129z" />
    <glyph glyph-name="wgrave" unicode="&#x1e81;" horiz-adv-x="1456" 
d="M18 1055h132l245 -922l269 916h139l262 -916l246 922h127l-310 -1055h-137l-264 922l-266 -922h-137zM438 1483h160l227 -275h-127z" />
    <glyph glyph-name="Wacute" unicode="&#x1e82;" horiz-adv-x="1865" 
d="M27 1462h139l344 -1306l362 1300h136l352 -1298l348 1304h131l-412 -1462h-145l-352 1300l-352 -1300h-138zM1049 1849h161l-260 -264h-129z" />
    <glyph glyph-name="wacute" unicode="&#x1e83;" horiz-adv-x="1456" 
d="M18 1055h132l245 -922l269 916h139l262 -916l246 922h127l-310 -1055h-137l-264 922l-266 -922h-137zM860 1483h160l-260 -275h-127z" />
    <glyph glyph-name="Wdieresis" unicode="&#x1e84;" horiz-adv-x="1865" 
d="M27 1462h139l344 -1306l362 1300h136l352 -1298l348 1304h131l-412 -1462h-145l-352 1300l-352 -1300h-138zM1032 1806h139v-178h-139v178zM696 1806h138v-178h-138v178z" />
    <glyph glyph-name="wdieresis" unicode="&#x1e85;" horiz-adv-x="1456" 
d="M18 1055h132l245 -922l269 916h139l262 -916l246 922h127l-310 -1055h-137l-264 922l-266 -922h-137zM825 1442h136v-174h-136v174zM498 1442h133v-174h-133v174z" />
    <glyph glyph-name="Ygrave" unicode="&#x1ef2;" horiz-adv-x="1204" 
d="M668 0h-125v633l-512 829h147l428 -723l436 723h132l-506 -829v-633zM326 1849h161l228 -264h-129z" />
    <glyph glyph-name="ygrave" unicode="&#x1ef3;" horiz-adv-x="1019" 
d="M223 -291q45 0 70 8q44 14 83 85q17 34 40 87l49 125l-453 1041h138l382 -903l342 903h134l-480 -1194q-58 -136 -98 -180q-72 -78 -170 -78t-168 24l29 105q57 -23 102 -23zM223 1483h160l227 -275h-127z" />
    <glyph glyph-name="endash" unicode="&#x2013;" horiz-adv-x="1024" 
d="M0 653h1024v-123h-1024v123z" />
    <glyph glyph-name="emdash" unicode="&#x2014;" horiz-adv-x="2048" 
d="M0 653h2048v-123h-2048v123z" />
    <glyph glyph-name="afii00208" unicode="&#x2015;" horiz-adv-x="2048" 
d="M0 653h2048v-123h-2048v123z" />
    <glyph glyph-name="quoteleft" unicode="&#x2018;" horiz-adv-x="387" 
d="M201 1462h96l-53 -397h-144z" />
    <glyph glyph-name="quoteright" unicode="&#x2019;" horiz-adv-x="387" 
d="M143 1462h144l-101 -397h-96z" />
    <glyph glyph-name="quotesinglbase" unicode="&#x201a;" horiz-adv-x="387" 
d="M137 197h139l-96 -398h-100z" />
    <glyph glyph-name="quotedblleft" unicode="&#x201c;" horiz-adv-x="667" 
d="M201 1462h96l-53 -397h-144zM481 1462h97l-54 -397h-143z" />
    <glyph glyph-name="quotedblright" unicode="&#x201d;" horiz-adv-x="667" 
d="M143 1462h144l-101 -397h-96zM424 1462h143l-100 -397h-96z" />
    <glyph glyph-name="quotedblbase" unicode="&#x201e;" horiz-adv-x="663" 
d="M137 197h139l-96 -398h-100zM414 197h139l-96 -398h-101z" />
    <glyph glyph-name="dagger" unicode="&#x2020;" horiz-adv-x="942" 
d="M414 954h-371v101h371v407h118v-407h367v-101h-367v-1132h-118v1132z" />
    <glyph glyph-name="daggerdbl" unicode="&#x2021;" horiz-adv-x="942" 
d="M414 250h-371v104h371v600h-371v101h371v407h118v-407h367v-101h-367v-600h367v-104h-367v-428h-118v428z" />
    <glyph glyph-name="bullet" unicode="&#x2022;" horiz-adv-x="696" 
d="M158.5 938q76.5 74 191.5 74t189.5 -75t74.5 -191t-74 -191.5t-190 -75.5q-115 0 -191.5 74.5t-76.5 192.5t76.5 192z" />
    <glyph glyph-name="ellipsis" unicode="&#x2026;" horiz-adv-x="1624" 
d="M127 190h154v-190h-154v190zM735 190h154v-190h-154v190zM1343 190h154v-190h-154v190z" />
    <glyph glyph-name="perthousand" unicode="&#x2030;" horiz-adv-x="2633" 
d="M610 0h-125l721 1415h125zM2212 55q227 0 227 337t-227 337t-227 -337t227 -337zM2556 393q0 -223 -95 -329.5t-250 -106.5t-249 109.5t-94 325.5t94 326.5t250 110.5q243 0 293.5 -162.5t50.5 -273.5zM422 674q227 0 227 337t-227 337t-227 -337t227 -337zM422 575
q-154 0 -249 109.5t-95 325.5t94 327t250 111q243 0 293.5 -163t50.5 -273q0 -223 -95 -330t-249 -107zM1396.5 55q227.5 0 227.5 337t-227.5 337t-227.5 -337t227.5 -337zM1741 393q0 -223 -95 -329.5t-250 -106.5t-249 109.5t-94 325.5t94 326.5t250 110.5
q243 0 293.5 -162.5t50.5 -273.5z" />
    <glyph glyph-name="guilsinglleft" unicode="&#x2039;" horiz-adv-x="573" 
d="M98 526l291 453h115l-268 -451l268 -458h-119z" />
    <glyph glyph-name="guilsinglright" unicode="&#x203a;" horiz-adv-x="573" 
d="M338 520l-268 459h118l287 -457l-291 -452h-114z" />
    <glyph glyph-name="fraction" unicode="&#x2044;" horiz-adv-x="149" 
d="M-225 0h-125l721 1415h125z" />
    <glyph glyph-name="zerosuperior" unicode="&#x2070;" horiz-adv-x="843" 
d="M422 676q227 0 227 336t-227 336t-227 -336t227 -336zM422 575q-154 0 -249 109.5t-95 325.5t94 327t250 111q243 0 293.5 -163t50.5 -273q0 -223 -95 -330t-249 -107z" />
    <glyph glyph-name="foursuperior" unicode="&#x2074;" horiz-adv-x="843" 
d="M522 899v381l-299 -381h299zM625 1419v-520h106l-20 -90h-86v-205h-103v205h-420v74l422 536h101z" />
    <glyph glyph-name="fivesuperior" unicode="&#x2075;" horiz-adv-x="843" 
d="M457 1122q122 0 186 -73.5t64 -201.5t-74 -200t-205 -72q-257 0 -283 234h97q27 -145 190 -145q78 0 125 49t47 135q0 186 -172 186q-123 0 -188 -71h-84l37 456h454v-94h-368l-21 -254q73 51 195 51z" />
    <glyph glyph-name="sixsuperior" unicode="&#x2076;" horiz-adv-x="843" 
d="M618 854q0 188 -180 188q-138 0 -175.5 -88.5t-11 -165t78 -100.5t98.5 -24q98 0 144 52t46 138zM127 952q0 496 322 496q117 0 179 -47t83 -152l-93 -22q-16 74 -56 103.5t-125 29.5t-141 -75t-67 -245q86 86 220 86q211 0 244.5 -107.5t33.5 -162.5q0 -129 -79 -205
t-230 -76t-221 108.5t-70 268.5z" />
    <glyph glyph-name="sevensuperior" unicode="&#x2077;" horiz-adv-x="843" 
d="M119 1319v100h586v-82q-219 -366 -310 -733h-116q125 424 303 715h-463z" />
    <glyph glyph-name="eightsuperior" unicode="&#x2078;" horiz-adv-x="843" 
d="M422 973q-201 0 -201 -152q0 -159 201 -159q104 0 151.5 43t47.5 113t-43 112.5t-156 42.5zM422 1061q178 0 178 151q0 59 -41 105.5t-137 46.5t-137 -46.5t-41 -105.5q0 -151 178 -151zM250 1020q-111 56 -111 204q0 86 68.5 155t214 69t213 -69t67.5 -155
q0 -141 -112 -200q141 -61 141 -203q0 -111 -76.5 -178.5t-231.5 -67.5t-232.5 68t-77.5 177t57 149.5t80 50.5z" />
    <glyph glyph-name="ninesuperior" unicode="&#x2079;" horiz-adv-x="843" 
d="M227 1169q0 -188 181 -188q137 0 175 91.5t9.5 165t-79 98t-95.5 24.5q-96 0 -143.5 -52.5t-47.5 -138.5zM612 987q-79 -94 -217 -94t-205 76t-67 200q0 123 78 201t230 78t218 -107t66 -261q0 -282 -78 -393.5t-227 -111.5q-188 0 -230.5 78t-48.5 144h98
q10 -84 60.5 -108.5t122.5 -24.5q207 0 200 323z" />
    <glyph glyph-name="zeroinferior" unicode="&#x2080;" horiz-adv-x="843" 
d="M422 74q227 0 227 336t-227 335q-227 1 -227 -335t227 -336zM766 405q0 -218 -95 -325t-248 -107t-250 111t-96 325q1 215 96 326t249 111q156 0 250 -112q94 -111 94 -329z" />
    <glyph glyph-name="oneinferior" unicode="&#x2081;" horiz-adv-x="843" 
d="M530 817v-815h-118v696l-201 -100l-45 86l244 133h120z" />
    <glyph glyph-name="twoinferior" unicode="&#x2082;" horiz-adv-x="843" 
d="M421 750q-83 0 -125 -38t-67 -118l-104 18q29 103 74 148q84 84 222 85q137 1 207 -69t70 -176q0 -107 -61 -194t-273 -252q-32 -25 -67 -54h410l-23 -98h-553v86q53 47 105 87t110 89q57 49 104 88q93 79 119 152q15 40 15 102t-40 103t-123 41z" />
    <glyph glyph-name="threeinferior" unicode="&#x2083;" horiz-adv-x="843" 
d="M596 227q0 154 -170 154h-102v88h102q66 0 110 38t44 111q0 140 -170 140q-92 0 -136 -43t-63 -109l-96 21q33 144 165 197q52 22 126 22q142 0 210 -60t68 -145q0 -84 -28 -127t-78 -78q70 -33 98 -83t29 -122q0 -115 -71 -187t-224 -71q-153 0 -235 92q-59 66 -64 164
h96q13 -78 46 -110q58 -57 157 -58q186 0 186 166z" />
    <glyph glyph-name="fourinferior" unicode="&#x2084;" horiz-adv-x="843" 
d="M514 297v381l-299 -381h299zM616 817v-520h107l-21 -90h-86v-205h-102v205h-420v74l422 536h100z" />
    <glyph glyph-name="fiveinferior" unicode="&#x2085;" horiz-adv-x="843" 
d="M457 520q121 0 185 -74t64 -202t-73 -199q-74 -72 -205 -72q-259 0 -283 234h97q27 -145 190 -146q78 -1 125 49t47 136q0 186 -172 186q-125 0 -188 -72h-84l37 457h454v-94h-368l-21 -254q73 51 195 51z" />
    <glyph glyph-name="sixinferior" unicode="&#x2086;" horiz-adv-x="843" 
d="M618 252q0 188 -180 188q-137 0 -184 -109q-29 -68 -3 -144t96 -109q34 -16 81 -17q98 1 144 53t46 138zM127 350q0 496 322 496q117 0 179 -47t83 -152l-93 -22q-16 73 -56 103t-125 30t-141 -75t-67 -245q88 88 226 87t205 -76t67 -200q0 -124 -79 -200t-228 -76
t-232 121q-61 92 -61 256z" />
    <glyph glyph-name="seveninferior" unicode="&#x2087;" horiz-adv-x="843" 
d="M119 717v100h586v-82q-219 -366 -310 -733h-116q123 418 303 715h-463z" />
    <glyph glyph-name="eightinferior" unicode="&#x2088;" horiz-adv-x="843" 
d="M422 371q-201 0 -201 -152q0 -160 199 -160t201 160q0 66 -43 109t-156 43zM422 459q178 0 178 151q0 60 -41 106t-137 46t-137 -46t-41 -106q0 -151 178 -151zM250 418q-111 57 -111 204q0 86 69 155t214 69t213 -69q67 -69 67 -155q-1 -143 -112 -200q141 -61 141 -203
q0 -111 -77 -179q-78 -68 -232 -67q-154 0 -232 68t-77 178q0 74 46 129q35 45 91 70z" />
    <glyph glyph-name="nineinferior" unicode="&#x2089;" horiz-adv-x="843" 
d="M227 567q0 -188 181 -188q139 0 183 109q30 75 2 148q-45 119 -175 122q-96 0 -144 -52t-47 -139zM123 566q0 124 78 202t229 78t226 -120q57 -90 58 -246q2 -283 -77 -395t-214 -112q-136 0 -208 50q-73 50 -84 172h98q11 -84 61 -109t122 -25q207 0 200 324
q-80 -96 -218 -95q-137 1 -204 76q-67 76 -67 200z" />
    <glyph glyph-name="Euro" unicode="&#x20ac;" 
d="M182 714q0 66 6 109h-141l25 101h129q39 249 175 389.5t334 140.5t303 -90.5t146 -282.5l-110 -22q-51 234 -162 262.5t-185 28.5q-158 0 -251 -116t-125 -310h559l-25 -101h-547q-6 -55 -6 -116.5t6 -112.5h512l-24 -105h-477q29 -190 123 -305.5t267 -115.5t247.5 78
t99.5 251h117q-29 -211 -138.5 -322.5t-326.5 -111.5t-348.5 134t-165.5 392h-152l25 105h114q-4 54 -4 120z" />
    <glyph glyph-name="uni20AE" unicode="&#x20ae;" 
d="M670 0h-123v377l-266 -168l-54 86l320 203v243l-266 -168l-54 86l320 203v441h-449v112h1016v-112h-444v-363l264 168l53 -86l-317 -203v-244l264 168l53 -86l-317 -202v-455z" />
    <glyph glyph-name="uni20B4" unicode="&#x20b4;" 
d="M145 348q0 74 15 131h-76v99h115q90 154 327 184l129 16q144 18 209 88h-780v99h831q13 47 13 112q0 123 -78 197t-243 74t-233 -56t-110 -176l-106 21q48 211 197 264t257 53q203 0 316.5 -98t113.5 -262q0 -74 -14 -129h88v-99h-127q-88 -154 -334 -184l-149 -20
q-122 -18 -184 -84h794v-99h-844q-12 -44 -12 -111q0 -135 87.5 -216.5t264.5 -81.5q252 0 302.5 97t62.5 159h110q-55 -363 -485 -363q-224 0 -340.5 114.5t-116.5 270.5z" />
    <glyph glyph-name="afii61289" unicode="&#x2113;" horiz-adv-x="716" 
d="M532 1212q0 82 -24.5 129.5t-69.5 47.5t-79.5 -50.5t-34.5 -175.5v-465q208 270 208 514zM217 1149q0 163 63.5 248.5t161.5 85.5q186 0 187 -254q0 -306 -305 -672v-315q0 -96 40 -140.5t110 -44.5t142 76l50 -63q-94 -106 -222 -107q-156 0 -191.5 94.5t-35.5 161.5
v256q-27 -31 -52.5 -56.5t-53.5 -60.5l-56 58l162 182v551z" />
    <glyph glyph-name="afii61352" unicode="&#x2116;" horiz-adv-x="2152" 
d="M1730.5 676q227.5 0 227.5 336t-227.5 336t-227.5 -336t227.5 -336zM1731 575q-154 0 -249.5 110t-95.5 324.5t94.5 326.5t250.5 112q241 0 292.5 -163t51.5 -273q0 -223 -95 -330t-249 -107zM168 1462h137l770 -1259v1259h121v-1462h-135l-772 1264v-1264h-121v1462z
" />
    <glyph glyph-name="trademark" unicode="&#x2122;" horiz-adv-x="1839" 
d="M313 1368h-282v94h669v-94h-280v-725h-107v725zM829 1462h136l290 -694l293 694h133v-819h-94v672l-291 -672h-86l-286 670v-670h-95v819z" />
    <glyph glyph-name="uni2126" unicode="&#x2126;" horiz-adv-x="1529" 
d="M428 113q-281 233 -281 679q0 144 47 284q90 275 325 375q114 48 250 48q281 0 447 -189t166 -548q0 -205 -80 -373t-208 -276h348l-25 -113h-502v92q180 121 259 281q78 160 77 383q0 459 -268 589q-90 44 -215 44q-246 0 -368 -166q-123 -166 -121 -467q1 -221 81 -382
t252 -282v-92h-516v113h332z" />
    <glyph glyph-name="estimated" unicode="&#x212e;" horiz-adv-x="1865" 
d="M1448 741q8 0 8 15v407q0 27 -18 49q-98 98 -227.5 154.5t-277 56.5t-277.5 -60t-228 -159q-20 -16 -20 -49v-399q0 -14 10 -15h1030zM408 285q0 -27 18 -45q209 -222 508 -222q164 0 299 68t235 178h119q-109 -133 -283 -210t-360 -77t-336.5 58.5t-263.5 159
t-177.5 236.5t-64.5 289.5t64.5 290t177.5 238t263.5 160.5t322.5 59t324.5 -59t265 -160.5t178 -238t65.5 -289.5v-21h-1345q-10 0 -10 -8v-407z" />
    <glyph glyph-name="onethird" unicode="&#x2153;" horiz-adv-x="1837" 
d="M451 1419v-815h-119v696l-201 -100l-45 86l244 133h121zM502 0h-125l721 1415h125zM1589 227q0 154 -170 154h-102v88h102q66 0 110 38t44 111q0 140 -170 140q-92 0 -135 -43t-64 -109l-96 21q33 144 165 197q52 22 126 22q141 0 210 -60t69 -145q0 -84 -28 -127
t-79 -78q71 -33 99 -83t28 -122q0 -115 -71 -187t-223 -71q-152 0 -236 92q-59 66 -64 164h96q28 -165 209 -166q180 -2 180 164z" />
    <glyph glyph-name="twothirds" unicode="&#x2154;" horiz-adv-x="1837" 
d="M421 1352q-83 0 -125 -38t-67 -118l-104 18q29 103 74 148q84 84 222 85q137 1 207 -69t70 -176q0 -107 -61 -194t-273 -252q-32 -25 -67 -54h410l-23 -98h-553v86q53 47 105 87t110 89q57 49 104 88q93 79 119 152q15 40 15 102t-40 103t-123 41zM625 0h-125l721 1415
h125zM1589 227q0 154 -170 154h-102v88h102q66 0 110 38t44 111q0 140 -170 140q-92 0 -135 -43t-64 -109l-96 21q33 144 165 197q52 22 126 22q141 0 210 -60t69 -145q0 -84 -28 -127t-79 -78q71 -33 99 -83t28 -122q0 -115 -71 -187t-223 -71q-152 0 -236 92
q-59 66 -64 164h96q28 -165 209 -166q180 -2 180 164z" />
    <glyph glyph-name="onefifth" unicode="&#x2155;" horiz-adv-x="1837" 
d="M451 1419v-815h-119v696l-201 -100l-45 86l244 133h121zM514 0h-125l721 1415h125zM1451 520q122 0 185 -74q64 -74 64 -202t-74 -199q-74 -72 -205 -72q-258 0 -282 234h96q27 -145 190 -146q78 -1 125 49t47 136q0 186 -172 186q-125 0 -188 -72h-84l37 457h455v-94
h-369l-21 -254q74 51 196 51z" />
    <glyph glyph-name="twofifths" unicode="&#x2156;" horiz-adv-x="1837" 
d="M421 1352q-83 0 -125 -38t-67 -118l-104 18q29 103 74 148q84 84 222 85q137 1 207 -69t70 -176q0 -107 -61 -194t-273 -252q-32 -25 -67 -54h410l-23 -98h-553v86q53 47 105 87t110 89q57 49 104 88q93 79 119 152q15 40 15 102t-40 103t-123 41zM625 0h-125l721 1415
h125zM1451 520q122 0 185 -74q64 -74 64 -202t-74 -199q-74 -72 -205 -72q-258 0 -282 234h96q27 -145 190 -146q78 -1 125 49t47 136q0 186 -172 186q-125 0 -188 -72h-84l37 457h455v-94h-369l-21 -254q74 51 196 51z" />
    <glyph glyph-name="threefifths" unicode="&#x2157;" horiz-adv-x="1837" 
d="M705 834q0 -115 -71 -187t-224 -72t-235 92q-59 65 -64 164h96q13 -78 46 -110q59 -57 157 -57q186 0 186 165q0 154 -170 154h-102v88h102q66 0 110 38t44 110q0 141 -170 141q-92 0 -136 -43t-63 -109l-96 21q21 93 79 144q80 75 216 75q138 0 206 -60t68 -144
t-28 -128q-28 -43 -78 -78q127 -60 127 -204zM604 0h-125l721 1415h125zM1451 520q122 0 185 -74q64 -74 64 -202t-74 -199q-74 -72 -205 -72q-258 0 -282 234h96q27 -145 190 -146q78 -1 125 49t47 136q0 186 -172 186q-125 0 -188 -72h-84l37 457h455v-94h-369l-21 -254
q74 51 196 51z" />
    <glyph glyph-name="fourfifths" unicode="&#x2158;" horiz-adv-x="1837" 
d="M522 899v381l-299 -381h299zM625 1419v-520h106l-20 -90h-86v-205h-103v205h-420v74l422 536h101zM616 0h-124l720 1415h125zM1451 520q122 0 185 -74q64 -74 64 -202t-74 -199q-74 -72 -205 -72q-258 0 -282 234h96q27 -145 190 -146q78 -1 125 49t47 136
q0 186 -172 186q-125 0 -188 -72h-84l37 457h455v-94h-369l-21 -254q74 51 196 51z" />
    <glyph glyph-name="onesixth" unicode="&#x2159;" horiz-adv-x="1837" 
d="M451 1419v-815h-119v696l-201 -100l-45 86l244 133h121zM551 0h-125l721 1415h125zM1612 252q0 188 -180 188q-138 0 -185 -109q-29 -68 -3 -144t96 -109q34 -16 81 -17q99 1 145 53t46 138zM1720 249q0 -124 -79 -200t-229 -76t-230 121q-60 90 -61 241q-4 511 321 511
q117 0 179 -47t83 -152l-92 -22q-16 73 -56 103t-126 30q-84 0 -140 -75t-67 -245q88 88 225 87t205 -76q67 -76 67 -200z" />
    <glyph glyph-name="fivesixths" unicode="&#x215a;" horiz-adv-x="1837" 
d="M457 1122q122 0 186 -73q63 -74 63 -202t-73 -200q-74 -72 -205 -72q-259 0 -283 234h97q27 -145 190 -145q78 0 125 49t47 135q0 186 -172 186q-124 0 -188 -71h-84l37 456h454v-94h-368l-21 -254q73 51 195 51zM625 0h-125l721 1415h125zM1612 252q0 188 -180 188
q-138 0 -185 -109q-29 -68 -3 -144t96 -109q34 -16 81 -17q99 1 145 53t46 138zM1720 249q0 -124 -79 -200t-229 -76t-230 121q-60 90 -61 241q-4 511 321 511q117 0 179 -47t83 -152l-92 -22q-16 73 -56 103t-126 30q-84 0 -140 -75t-67 -245q88 88 225 87t205 -76
q67 -76 67 -200z" />
    <glyph glyph-name="oneeighth" unicode="&#x215b;" horiz-adv-x="1837" 
d="M451 1419v-815h-119v696l-201 -100l-45 86l244 133h121zM520 0h-125l721 1415h125zM1415 371q-201 0 -201 -152q0 -74 48 -117t152 -43q200 0 200 160q0 66 -43 109t-156 43zM1415 459q178 0 178 151q0 60 -41 106t-137 46t-137 -46t-41 -106q0 -151 178 -151zM1724 219
q0 -111 -76 -179t-232 -67q-154 0 -232 68t-78 178q0 74 46 129q35 45 91 70q-111 57 -111 204q0 86 69 155t214 69t213 -69t68 -155q0 -142 -113 -200q141 -61 141 -203z" />
    <glyph glyph-name="threeeighths" unicode="&#x215c;" horiz-adv-x="1837" 
d="M705 834q0 -115 -71 -187t-224 -72t-235 92q-59 65 -64 164h96q13 -78 46 -110q59 -57 157 -57q186 0 186 165q0 154 -170 154h-102v88h102q66 0 110 38t44 110q0 141 -170 141q-92 0 -136 -43t-63 -109l-96 21q21 93 79 144q80 75 216 75q138 0 206 -60t68 -144
t-28 -128q-28 -43 -78 -78q127 -60 127 -204zM618 0h-124l720 1415h125zM1415 371q-201 0 -201 -152q0 -74 48 -117t152 -43q200 0 200 160q0 66 -43 109t-156 43zM1415 459q178 0 178 151q0 60 -41 106t-137 46t-137 -46t-41 -106q0 -151 178 -151zM1724 219
q0 -111 -76 -179t-232 -67q-154 0 -232 68t-78 178q0 74 46 129q35 45 91 70q-111 57 -111 204q0 86 69 155t214 69t213 -69t68 -155q0 -142 -113 -200q141 -61 141 -203z" />
    <glyph glyph-name="fiveeighths" unicode="&#x215d;" horiz-adv-x="1837" 
d="M457 1122q122 0 186 -73q63 -74 63 -202t-73 -200q-74 -72 -205 -72q-259 0 -283 234h97q27 -145 190 -145q78 0 125 49t47 135q0 186 -172 186q-124 0 -188 -71h-84l37 456h454v-94h-368l-21 -254q73 51 195 51zM623 0h-125l721 1415h124zM1415 371q-201 0 -201 -152
q0 -74 48 -117t152 -43q200 0 200 160q0 66 -43 109t-156 43zM1415 459q178 0 178 151q0 60 -41 106t-137 46t-137 -46t-41 -106q0 -151 178 -151zM1724 219q0 -111 -76 -179t-232 -67q-154 0 -232 68t-78 178q0 74 46 129q35 45 91 70q-111 57 -111 204q0 86 69 155t214 69
t213 -69t68 -155q0 -142 -113 -200q141 -61 141 -203z" />
    <glyph glyph-name="seveneighths" unicode="&#x215e;" horiz-adv-x="1837" 
d="M100 1319v100h586v-82q-217 -363 -309 -733h-117q123 418 303 715h-463zM524 0h-125l721 1415h125zM1415 371q-201 0 -201 -152q0 -74 48 -117t152 -43q200 0 200 160q0 66 -43 109t-156 43zM1415 459q178 0 178 151q0 60 -41 106t-137 46t-137 -46t-41 -106
q0 -151 178 -151zM1724 219q0 -111 -76 -179t-232 -67q-154 0 -232 68t-78 178q0 74 46 129q35 45 91 70q-111 57 -111 204q0 86 69 155t214 69t213 -69t68 -155q0 -142 -113 -200q141 -61 141 -203z" />
    <glyph glyph-name="partialdiff" unicode="&#x2202;" 
d="M897 479q0 156 -95.5 234t-209.5 78q-202 0 -291.5 -115.5t-89.5 -270.5t86 -245t235 -90q161 0 263 126.5t102 282.5zM627 1454q438 0 438 -629q0 -573 -194.5 -717.5t-374.5 -144.5t-295 118.5t-115 312.5t122 346.5t377 152.5t365 -213q4 62 4 180t-26.5 221
t-89.5 186t-198 83q-136 0 -205 -51.5t-113 -186.5l-101 25q45 172 151.5 244.5t254.5 72.5z" />
    <glyph glyph-name="Delta" unicode="&#x2206;" horiz-adv-x="1318" 
d="M1116 115l-461 1212l-460 -1212h921zM590 1462h137l565 -1462h-1265z" />
    <glyph glyph-name="product" unicode="&#x220f;" horiz-adv-x="1349" 
d="M158 1462h1034v-1462h-125v1352h-784v-1352h-125v1462z" />
    <glyph glyph-name="summation" unicode="&#x2211;" horiz-adv-x="1161" 
d="M80 1462h1026v-108h-885l471 -715l-483 -737h921l-26 -111h-1024v100l483 742l-483 725v104z" />
    <glyph glyph-name="minus" unicode="&#x2212;" 
d="M166 754h881v-113h-881v113z" />
    <glyph glyph-name="uni2215" unicode="&#x2215;" horiz-adv-x="149" 
d="M-225 0h-125l721 1415h125z" />
    <glyph glyph-name="uni2219" unicode="&#x2219;" horiz-adv-x="407" 
d="M127 795h154v-191h-154v191z" />
    <glyph glyph-name="radical" unicode="&#x221a;" horiz-adv-x="1204" 
d="M113 655v109h247l252 -643l467 1376h131l-522 -1497h-149l-265 655h-161z" />
    <glyph glyph-name="infinity" unicode="&#x221e;" 
d="M318 934q-60 0 -104 -59.5t-44 -174t44 -174t104 -59.5q104 0 159.5 68.5t75.5 169.5q-31 150 -103 189.5t-132 39.5zM894 467q60 0 104 59.5t44 174t-44 174t-104 59.5q-103 0 -159 -68.5t-76 -169.5q31 -149 103 -189t132 -40zM326 371q-113 0 -190 80.5t-77 248.5
t77 249t190 81q183 0 280 -199q97 199 281 199q113 0 189.5 -81t76.5 -249t-77 -248.5t-189 -80.5q-180 0 -281 207q-101 -207 -280 -207z" />
    <glyph glyph-name="integral" unicode="&#x222b;" horiz-adv-x="636" 
d="M208 -147q96 0 117 56.5t7 168.5l-146 1071q-28 229 68 279.5t156 50.5t86 -6.5t69 -20.5l-24 -94q-55 22 -107 22q-53 0 -81.5 -17t-41 -48t-12.5 -72t6 -88l146 -1071q28 -231 -65.5 -280.5t-153.5 -49.5t-85.5 6.5t-68.5 20.5l24 94q55 -22 106 -22z" />
    <glyph glyph-name="approxequal" unicode="&#x2248;" 
d="M102 293q0 178 74.5 247.5t196.5 69.5q76 0 138 -39t118.5 -86t108.5 -86t122 -39t107 48.5t37 171.5h102q0 -261 -109 -291.5t-171 -30.5t-124.5 40t-119 87t-109.5 87t-121 40t-106.5 -49t-38.5 -170h-105zM102 768q0 178 74.5 247.5t196.5 69.5q76 0 138 -38.5
t118.5 -86t108.5 -86t122 -38.5t107 48t37 171h102q0 -261 -109 -291.5t-171 -30.5t-124.5 40t-119 87t-109.5 87t-121 40t-106.5 -49t-38.5 -170h-105z" />
    <glyph glyph-name="notequal" unicode="&#x2260;" 
d="M166 412v112h276l209 346h-485v113h551l125 207h119l-125 -207h211v-113h-277l-209 -346h486v-112h-553l-123 -209h-119l125 209h-211z" />
    <glyph glyph-name="lessequal" unicode="&#x2264;" 
d="M162 739l909 437v-121l-770 -359l770 -356v-127l-909 436v90zM162 111h909v-111h-909v111z" />
    <glyph glyph-name="greaterequal" unicode="&#x2265;" 
d="M141 338l764 352l-764 365v121l910 -437v-90l-910 -436v125zM141 111h910v-111h-910v111z" />
    <glyph glyph-name="lozenge" unicode="&#x25ca;" horiz-adv-x="1204" 
d="M987 731l-383 623l-377 -623l377 -620zM92 731l451 731h129l446 -731l-446 -731h-129z" />
    <glyph glyph-name="fi" unicode="&#xf001;" horiz-adv-x="1050" 
d="M500 1374q-70 0 -124 -42t-54 -152v-125h280v-99h-280v-956h-119v956h-164v99h164v121q0 147 83 224t212 79q84 0 155 -23l-24 -100q-59 18 -129 18zM774 1462h135v-178h-135v178zM782 1055h119v-1055h-119v1055z" />
    <glyph glyph-name="fl" unicode="&#xf002;" horiz-adv-x="1050" 
d="M500 1374q-70 0 -124 -42t-54 -152v-125h280v-99h-280v-956h-119v956h-164v99h164v121q0 147 83 224t212 79q84 0 155 -23l-24 -100q-59 18 -129 18zM782 1462h119v-1462h-119v1462z" />
    <glyph glyph-name="oneseventh" unicode="&#xf506;" horiz-adv-x="1837" 
d="M451 1419v-815h-119v696l-201 -100l-45 86l244 133h121zM473 0h-125l721 1415h125zM1112 717v100h586v-82q-217 -363 -309 -733h-117q123 418 303 715h-463z" />
    <glyph glyph-name="twosevenths" unicode="&#xf507;" horiz-adv-x="1837" 
d="M421 1352q-83 0 -125 -38t-67 -118l-104 18q29 103 74 148q84 84 222 85q137 1 207 -69t70 -176q0 -107 -61 -194t-273 -252q-32 -25 -67 -54h410l-23 -98h-553v86q53 47 105 87t110 89q57 49 104 88q93 79 119 152q15 40 15 102t-40 103t-123 41zM602 0h-125l721 1415
h125zM1112 717v100h586v-82q-217 -363 -309 -733h-117q123 418 303 715h-463z" />
    <glyph glyph-name="threesevenths" unicode="&#xf508;" horiz-adv-x="1837" 
d="M705 834q0 -115 -71 -187t-224 -72t-235 92q-59 65 -64 164h96q13 -78 46 -110q59 -57 157 -57q186 0 186 165q0 154 -170 154h-102v88h102q66 0 110 38t44 110q0 141 -170 141q-92 0 -136 -43t-63 -109l-96 21q21 93 79 144q80 75 216 75q138 0 206 -60t68 -144
t-28 -128q-28 -43 -78 -78q127 -60 127 -204zM575 0h-124l720 1415h125zM1112 717v100h586v-82q-217 -363 -309 -733h-117q123 418 303 715h-463z" />
    <glyph glyph-name="foursevenths" unicode="&#xf509;" horiz-adv-x="1837" 
d="M522 899v381l-299 -381h299zM625 1419v-520h106l-20 -90h-86v-205h-103v205h-420v74l422 536h101zM565 0h-125l721 1415h125zM1112 717v100h586v-82q-217 -363 -309 -733h-117q123 418 303 715h-463z" />
    <glyph glyph-name="fivesevenths" unicode="&#xf50a;" horiz-adv-x="1837" 
d="M457 1122q122 0 186 -73q63 -74 63 -202t-73 -200q-74 -72 -205 -72q-259 0 -283 234h97q27 -145 190 -145q78 0 125 49t47 135q0 186 -172 186q-124 0 -188 -71h-84l37 456h454v-94h-368l-21 -254q73 51 195 51zM580 0h-125l721 1415h124zM1112 717v100h586v-82
q-217 -363 -309 -733h-117q123 418 303 715h-463z" />
    <glyph glyph-name="sixsevenths" unicode="&#xf50b;" horiz-adv-x="1837" 
d="M618 854q0 188 -180 188q-137 0 -184 -109q-29 -68 -3 -144t96 -109q34 -16 81 -16q98 0 144 52t46 138zM127 952q0 496 322 496q117 0 179 -47t83 -152l-93 -22q-16 73 -56 103t-125 30t-141 -75t-67 -245q88 88 220 86q212 0 263 -165q15 -49 15 -105q0 -129 -79 -205
t-228 -76t-232 121q-61 92 -61 256zM582 0h-125l721 1415h125zM1112 717v100h586v-82q-217 -363 -309 -733h-117q123 418 303 715h-463z" />
    <glyph glyph-name="oneninth" unicode="&#xf50c;" horiz-adv-x="1837" 
d="M451 1419v-815h-119v696l-201 -100l-45 86l244 133h121zM516 0h-125l721 1415h125zM1221 567q0 -188 180 -188q139 0 183 109q30 75 2 148q-45 119 -175 122q-96 0 -143 -52t-47 -139zM1116 566q0 124 78 202t229 78t227 -120q58 -92 58 -247q0 -286 -78 -396t-214 -110
t-208 50q-73 50 -84 172h99q10 -84 60 -109t122 -25q207 0 201 324q-80 -96 -218 -95q-137 1 -204 77q-68 75 -68 199z" />
    <glyph glyph-name="twoninths" unicode="&#xf50d;" horiz-adv-x="1837" 
d="M421 1352q-83 0 -125 -38t-67 -118l-104 18q29 103 74 148q84 84 222 85q137 1 207 -69t70 -176q0 -107 -61 -194t-273 -252q-32 -25 -67 -54h410l-23 -98h-553v86q53 47 105 87t110 89q57 49 104 88q93 79 119 152q15 40 15 102t-40 103t-123 41zM635 0h-125l721 1415
h125zM1221 567q0 -188 180 -188q139 0 183 109q30 75 2 148q-45 119 -175 122q-96 0 -143 -52t-47 -139zM1116 566q0 124 78 202t229 78t227 -120q58 -92 58 -247q0 -286 -78 -396t-214 -110t-208 50q-73 50 -84 172h99q10 -84 60 -109t122 -25q207 0 201 324
q-80 -96 -218 -95q-137 1 -204 77q-68 75 -68 199z" />
    <glyph glyph-name="fourninths" unicode="&#xf50e;" horiz-adv-x="1837" 
d="M522 899v381l-299 -381h299zM625 1419v-520h106l-20 -90h-86v-205h-103v205h-420v74l422 536h101zM606 0h-125l721 1415h125zM1221 567q0 -188 180 -188q139 0 183 109q30 75 2 148q-45 119 -175 122q-96 0 -143 -52t-47 -139zM1116 566q0 124 78 202t229 78t227 -120
q58 -92 58 -247q0 -286 -78 -396t-214 -110t-208 50q-73 50 -84 172h99q10 -84 60 -109t122 -25q207 0 201 324q-80 -96 -218 -95q-137 1 -204 77q-68 75 -68 199z" />
    <glyph glyph-name="fiveninths" unicode="&#xf50f;" horiz-adv-x="1837" 
d="M457 1122q122 0 186 -73q63 -74 63 -202t-73 -200q-74 -72 -205 -72q-259 0 -283 234h97q27 -145 190 -145q78 0 125 49t47 135q0 186 -172 186q-124 0 -188 -71h-84l37 456h454v-94h-368l-21 -254q73 51 195 51zM610 0h-125l721 1415h125zM1221 567q0 -188 180 -188
q139 0 183 109q30 75 2 148q-45 119 -175 122q-96 0 -143 -52t-47 -139zM1116 566q0 124 78 202t229 78t227 -120q58 -92 58 -247q0 -286 -78 -396t-214 -110t-208 50q-73 50 -84 172h99q10 -84 60 -109t122 -25q207 0 201 324q-80 -96 -218 -95q-137 1 -204 77
q-68 75 -68 199z" />
    <glyph glyph-name="sevenninths" unicode="&#xf510;" horiz-adv-x="1837" 
d="M100 1319v100h586v-82q-217 -363 -309 -733h-117q123 418 303 715h-463zM506 0h-125l721 1415h125zM1221 567q0 -188 180 -188q139 0 183 109q30 75 2 148q-45 119 -175 122q-96 0 -143 -52t-47 -139zM1116 566q0 124 78 202t229 78t227 -120q58 -92 58 -247
q0 -286 -78 -396t-214 -110t-208 50q-73 50 -84 172h99q10 -84 60 -109t122 -25q207 0 201 324q-80 -96 -218 -95q-137 1 -204 77q-68 75 -68 199z" />
    <glyph glyph-name="eightninths" unicode="&#xf511;" horiz-adv-x="1837" 
d="M422 973q-201 0 -201 -152q0 -159 201 -159q104 0 151 43t47 113t-42 112q-43 43 -156 43zM422 1061q178 0 178 151q0 60 -41 106t-137 46t-137 -46t-41 -106q0 -151 178 -151zM250 1020q-111 56 -111 204q0 86 69 155t214 69t213 -69q67 -69 67 -155q-1 -140 -112 -200
q141 -61 141 -203q0 -111 -77 -179q-78 -68 -232 -67q-154 0 -232 68t-77 178q0 74 46 129q35 45 91 70zM621 0h-125l721 1415h124zM1221 567q0 -188 180 -188q139 0 183 109q30 75 2 148q-45 119 -175 122q-96 0 -143 -52t-47 -139zM1116 566q0 124 78 202t229 78t227 -120
q58 -92 58 -247q0 -286 -78 -396t-214 -110t-208 50q-73 50 -84 172h99q10 -84 60 -109t122 -25q207 0 201 324q-80 -96 -218 -95q-137 1 -204 77q-68 75 -68 199z" />
    <glyph glyph-name="zero.alt" unicode="&#xf800;" 
d="M983 706q0 318 -84 465q-93 170 -293 170q-299 0 -359 -369q-19 -118 -19 -266q-1 -314 83 -465q93 -167 295 -167q296 0 358 365q19 119 19 267zM229 142q-133 179 -133 560t137 566q137 186 377 186q370 0 469 -414q35 -142 35 -334q0 -373 -135 -564
q-130 -179 -373 -179q-244 0 -377 179z" />
    </font>
</defs>
</svg>
